<?xml version="1.0" encoding="utf-8"?>
<!-- Generator: Adobe Illustrator 26.3.1, SVG Export Plug-In . SVG Version: 6.00 Build 0)  -->
<svg version="1.1" id="圖層_1" xmlns="http://www.w3.org/2000/svg" xmlns:xlink="http://www.w3.org/1999/xlink" x="0px" y="0px"
	 viewBox="0 0 45 57.7" style="enable-background:new 0 0 45 57.7;" xml:space="preserve">
<style type="text/css">
	.st0{fill-rule:evenodd;clip-rule:evenodd;fill:#AAAAAA;}
</style>
<g>
	<g>
		<g>
			<path class="st0" d="M41.7,28.6c8-11,0.4-26.8-11.9-23.6c-1.2-1.8-2.6-3.2-4.1-3.8c-4.6-2-10.5-1.5-14.7,1.5
				C5.9,1-2.5,7.1,0.7,14c-1-3.5,0-5,2.2-6.5c-2.3,2-2.3,3.8-1.2,7.6C0.8,11.6,0.9,9.6,3,7.6C2,9.2,0.3,11.7,2.5,16
				c-1.2-2.9-1-5.6,0.8-7.4C2.8,9.4,2.5,10.5,2.5,12c0,1.8,0.1,1.9,0.5,3.5c-0.4-1.7-0.6-2.8-0.3-4.5c0.3-1.8,1-2.8,1.9-3.5
				C5,7.3,5.5,7.1,6,6.9c-2.5,1-3.7,3.6-3,6.9l0.5,1.8l-0.5-1.8c-0.5-3.2,0.7-5.9,3.2-6.9c-2,1.2-4,2.9-2.3,8.4
				c-0.1,2.7,1.1,3.8,1,5.2c-0.7-0.2-1.3-0.5-1.7-1c0.4,0.6,1,1,1.6,1.1c-0.3,1.7-2.8,4.1-2.8,4.6c0,0.5,1.8,1.3,2,1.7
				c0.2,0.5,0.1,1.5-0.3,2c0.2,0.7,0.6,0.8,1.1,1c-0.2,0.5-0.2,0.9,0,1.3c0.2,0.2,1.4,1.1,1.5,1.4C6.5,33,6.5,34,6.6,34.4
				c0.1,0.4,0.8,1.4,1.7,1.3s7-2.3,8-1.6c0.9,0.7,1.5,5.4,0.2,8.1c-1.2,2.9-8.8,9.5-10.4,15.5c2.9-7.2,14.3-15.5,23.6-9.7
				c-5-5.8-6.2-15.8-3.9-21.2c2.3-2,5-4.7,6.5-8c1.1-2.3,1-5.2,0.2-8.1c4.4,3.2,3.6,11.7-0.8,15.5c-7,6.1-4.7,15.5,4.8,15.5
				c-3.1-0.5-4-1.9-5.6-5c2.3,3.5,6.5,5.9,11.4,4.1C36.8,41.4,39.3,31.9,41.7,28.6z M6.8,6.7L6.8,6.7L6.8,6.7L6.8,6.7z"/>
		</g>
	</g>
</g>
</svg>
