<?xml version="1.0" encoding="utf-8"?>
<!-- Generator: Adobe Illustrator 26.3.1, SVG Export Plug-In . SVG Version: 6.00 Build 0)  -->
<svg version="1.1" id="圖層_1" xmlns="http://www.w3.org/2000/svg" xmlns:xlink="http://www.w3.org/1999/xlink" x="0px" y="0px"
	 viewBox="0 0 525.9 83" style="enable-background:new 0 0 525.9 83;" xml:space="preserve">
<style type="text/css">
	.st0{fill:#3C3C3C;}
	.st1{fill:#F5281E;}
</style>
<g>
	<g>
		<path class="st0" d="M231.5,1.9c-1.2-1.2-2.8-1.9-4.6-1.9c-1.8,0-3.3,0.7-4.6,1.9s-1.9,2.8-1.9,4.6s0.6,3.3,1.9,4.6
			s2.8,1.9,4.6,1.9c1.8,0,3.3-0.6,4.6-1.9c1.2-1.2,1.9-2.8,1.9-4.6C233.4,4.7,232.7,3.1,231.5,1.9z"/>
		<path class="st0" d="M232.7,60.2V19h-11.5v41.2c0,1.4,0.6,2.7,1.7,3.7c1.1,1,2.5,1.5,4.1,1.5c1.6,0,3-0.5,4.1-1.5
			C232.1,62.9,232.6,61.7,232.7,60.2z"/>
		<path class="st1" d="M290.2,23.3l-1.8-5.7c-0.8-2.4-2.2-3.6-4.3-3.6c-0.8,0-1.6,0.2-2.5,0.5l-50.2,17.5c-1.8,0.6-2.9,1.5-3.5,2.6
			c-0.5,1.1-0.5,2.5,0.2,4l2.1,5.6c4.5,11.7,12.2,16.8,17.8,19c3.8,1.5,8.1,2.3,12.3,2.3l0,0c3.6,0,7.1-0.6,10.2-1.7
			C287,58.1,295.6,40.3,290.2,23.3z M260.1,54.5c-2.7,0-5.4-0.5-7.8-1.4c-3.8-1.5-8.9-4.8-11.5-12.4l-0.2-0.7l38.8-13.5l0.2,0.7
			c0.5,1.5,1.6,6.8,0.2,12.5c-1.7,6.7-6,11.2-12.9,13.6C264.8,54.2,262.5,54.5,260.1,54.5z"/>
		<path class="st0" d="M182.1,9.2c0.9-1.2,1.2-2.7,0.8-4.5c-0.4-2.1-2.2-4.5-5.8-4.5c-12.7,0-19.7,6.5-20.2,18.9l-0.1,1.4l-1.8,0.1
			c-1.2,0.1-2.3,0.7-3.2,1.6c-1,1.1-1.6,2.5-1.6,4.1c0,1.6,0.5,3,1.6,4.1c0.9,1,2,1.5,3.2,1.6l1.8,0.1V65h11.5V32.1h8.2
			c1.4,0,2.6-0.6,3.6-1.7c1-1.1,1.5-2.5,1.5-4.1c0-1.6-0.5-3-1.5-4.1c-1-1.1-2.2-1.7-3.6-1.7h-8.2V19c0-4.3,1.3-6.9,8.1-7.2
			C178.9,11.6,181,10.7,182.1,9.2z"/>
		<path class="st0" d="M371.5,18.9c-0.8-0.3-1.8-0.5-2.7-0.5c-1.6,0-3.6,0.5-4.6,3l-9.4,22.3l-9.2-22.3c-1.1-2.8-3.9-3.1-5-3.1
			c-0.8,0-1.7,0.2-2.4,0.5c-0.9,0.4-2.6,1.6-3.3,3.4c-0.5,1.2-0.5,2.4,0.1,3.6l13.6,33l-10.1,24.1l12.5,0.1l24-56.9
			c0.5-1.2,0.5-2.7,0-4C374.3,21.1,373.4,19.7,371.5,18.9z"/>
		<path class="st0" d="M311.1,18.5c-6.4,0-11.9,2.3-16.3,6.8s-6.8,10-6.8,16.3s2.3,11.9,6.8,16.4c4.5,4.5,10,6.8,16.3,6.8
			c5.7,0,9.1-1.8,10.6-2.9l0.8-0.6l0.2,3.8h11.5V41.6c0-6.3-2.3-11.9-6.8-16.4C322.9,20.7,317.4,18.5,311.1,18.5z M321.9,46
			c-0.6,1.4-1.4,2.6-2.5,3.7c-1,1-2.3,1.9-3.7,2.5c-1.4,0.6-2.9,0.9-4.5,0.9c-1.6,0-3.1-0.3-4.5-0.9s-2.6-1.5-3.7-2.5
			c-1-1-1.9-2.3-2.5-3.7c-0.6-1.4-0.9-2.9-0.9-4.5c0-1.6,0.3-3.1,0.9-4.5c0.6-1.4,1.4-2.7,2.5-3.7c1-1,2.2-1.9,3.7-2.5
			c1.4-0.6,2.9-0.9,4.5-0.9c1.6,0,3.1,0.3,4.5,0.9c1.4,0.6,2.7,1.5,3.7,2.5c1.1,1.1,1.9,2.3,2.5,3.7c0.6,1.4,0.9,2.9,0.9,4.5
			C322.7,43.2,322.5,44.6,321.9,46z"/>
		<path class="st0" d="M217.7,23.3c-0.4-3-2.9-4.7-6.8-4.7h-1c-6.9,0-11.5,4.2-11.5,4.2l-0.9,0.9l0-4.7H186l0,41.3
			c0,1.4,0.6,2.6,1.7,3.6c1.1,1,2.5,1.5,4.1,1.5c1.6,0,3-0.5,4.1-1.5c1.1-1,1.6-2.2,1.6-3.6V41.9c0-6.9,7.6-10.7,11-11.4
			c0.6-0.1,1.3-0.2,2.1-0.2c0.7,0,1.3-0.1,1.9-0.2C214.8,29.8,218.3,27.6,217.7,23.3z"/>
	</g>
	<g>
		<path class="st1" d="M397.4,51.2c-0.7,3.9-2.1,8.4-4.2,13.5L388,63c2.1-5.4,3.5-9.8,4-13.2L397.4,51.2z M406.5,47.7h-16.1
			c-0.5,0-0.8-0.3-0.8-0.8V3c0-0.5,0.3-0.8,0.8-0.8h16.1c0.6,0,0.8,0.3,0.8,0.8v43.9C407.3,47.4,407,47.7,406.5,47.7z M402,15.6V7.8
			l-0.3-0.2h-6.4L395,7.8v7.7C395,15.6,402,15.6,402,15.6z M402,29v-8H395v8H402z M395,34.3V42l0.2,0.3h6.4c0.2,0,0.3-0.1,0.3-0.3
			v-7.7H395z M404.5,50.2c1.5,2.9,2.9,6.5,4,11l-5,1.6c-1.3-4.5-2.6-8.2-3.9-10.7L404.5,50.2z M418.2,64.6h-5.4v-9.5h-3.7v-4.8h3.7
			V32.1c0-0.8,0.4-1.3,1.3-1.3h14.3v-3.9H410v-4.8h10.3v-3.9h-7.8v-4.8h7.8V9.8h-9.7V4.9h9.7V0.5h5.4v4.5h11.5V0.2h5.4v4.8h9.3v4.8
			h-9.3v3.6h7.9v4.8h-7.9v3.9h10.3V27h-19.1v3.9h14.5c0.9,0,1.3,0.4,1.3,1.3v18.1h3.2v4.8h-3.2v3.7c0,2.2-0.8,3.8-2.6,5
			c-2.2,1.4-6,1.6-11.6,0.6l-0.2-5.9c4,1,6.6,1.3,7.5,0.6c1-0.6,1.4-1.4,1.4-2.4v-1.5h-26L418.2,64.6L418.2,64.6z M428.4,35.7h-9.8
			c-0.3,0-0.4,0.1-0.4,0.4v4.6h10.2V35.7z M428.4,50.3v-4.8h-10.2v4.8H428.4z M437.1,9.8h-11.5v3.6h11.5V9.8z M437.1,22.1v-3.9
			h-11.5v3.9H437.1z M433.8,40.7h10.4v-4.6c0-0.3-0.1-0.4-0.4-0.4h-10L433.8,40.7L433.8,40.7z M444.2,50.3v-4.8h-10.4v4.8H444.2z"/>
		<path class="st1" d="M473.8,19h-4.6c-0.8,5.9-1.6,10.1-2.3,12.3l-5.8-0.8c2.2-7.1,3.4-15.2,3.4-24.2V2.6h5.7v3.6l-0.4,6.8h4V0.2
			h5.9v12.9h6V19h-6v16.9l5.5-3.3l3.4,4.8c-2.5,1.7-5.5,3.3-8.8,5v22.4h-5.9V45.2l-9.3,3.9l-3.2-5.4c5.1-1.8,9.3-3.4,12.5-4.9
			L473.8,19L473.8,19z M505.9,14.4l-1.1,8.2c-2,9.4-7.8,18.9-17,28.5l-5.2-3.2c6.6-6.6,11.3-12.7,13.9-18c1.6-3.6,2.9-8.8,3.6-15.4
			h-5c-2,6-4.3,10.9-6.8,14.6l-5.7-2.2c5.4-8.2,8.7-17,9.8-26.3l5.9,0.8l-1.4,7.2h26.8l1.2,0.3c0.7,0.4,1,1.4,1,3.1L525.5,39
			c-0.3,13.2-2.8,21.3-7.2,24.3c-2.6,1.9-7.8,1.8-15.4-0.3l-0.2-6.9c6.4,2.2,10.5,2.7,12.1,1.4c1.2-0.9,2.3-2.7,3.2-5.3
			c0.9-2.8,1.4-7.5,1.5-14c0.5-14.8,0.5-22.6,0-23.2c-0.1-0.4-0.4-0.5-0.8-0.5H516c-0.1,9.3-2.3,18.6-6.3,28.1
			c-3.9,7.9-9.7,14.7-17.2,20.1l-4.7-4.3c14.2-8.3,21.7-23,22.3-43.9L505.9,14.4L505.9,14.4z"/>
	</g>
	<g>
		<path class="st0" d="M8.7,37.4c0-0.5-0.3-0.8-0.8-0.8H1.2v-5.9H13c1,0,1.5,0.5,1.5,1.5v16.4c0.3,1.5,1,2.9,2.3,4.5
			c1.5,2.2,3.9,3.8,7.1,4.4c3.6,0.9,17,0.8,39.9-0.5l-1.5,6.6l-32.9,0.1c-8.6-0.5-14.3-3.4-17.1-8.5c-0.4,1.4-1.6,3.2-3.4,5.1
			c-1.9,1.9-3.7,3.3-5.7,4.2L0,59.3c3.6-1.7,6-3.4,7.1-5.1c0.7-1.2,1.2-2.4,1.5-4V37.4z M3.5,14.3c3.3,1.7,7.1,4.2,11.2,7.7L11,26.8
			c-4.3-3.5-7.8-6-10.8-7.6L3.5,14.3z M5.3,1.5c3.3,1.6,6.9,4,11,7.1l-3.5,4.9C8.6,10.2,5.1,8,2.2,6.7L5.3,1.5z M30.3,45
			c-3.9,2.3-7.4,4-10.6,4.8l-2.9-5.3c5.8-1.7,11.3-4.4,16.4-8H20.9c-0.4,0-0.6-0.3-0.6-0.8V22.9c0-0.5,0.2-0.7,0.6-0.7h37.8
			c0.5,0,0.8,0.2,0.8,0.7v12.8c0,0.5-0.3,0.8-0.8,0.8H41.6l-5.7,4.7v15.3h-5.3V44.9L30.3,45z M36.7,9.8H19.6V4.8h17.1V0.2h5.6v4.6
			h17.2v5.1H42.3v3.8h19.9v5.3H17.5v-5.3h19.2L36.7,9.8L36.7,9.8z M25.9,27c-0.2,0-0.3,0.1-0.2,0.2v4.2l0.2,0.3h28l0.3-0.3v-4.2
			L53.9,27H25.9z M55.9,37.2l3.5,4.2c-1.7,1.8-4,3.6-6.5,5.5l6.7,5.2l-3.4,4.6c-6.9-5.7-12.9-9.8-17.8-12.3l3.1-4.8
			c2.1,1.1,4.4,2.4,6.6,4C51.5,41.2,54.1,39,55.9,37.2z"/>
		<path class="st0" d="M77.9,32.6l-5.7-2.1c6-9.2,9.5-19.2,10.4-29.9l5.9,0.6c-0.9,5.8-1.9,10.9-3.3,15.2V65h-5.6V29.7L77.9,32.6z
			 M88.9,52v-5.3h33.6v-4.1l-32.9,1.6L89,38.8l20-0.8v-3.9H91.9c-0.9,0-1.3-0.5-1.3-1.4V14.1c0-0.9,0.4-1.4,1.3-1.4h17.1V9.2H90.5
			V3.9h18.4V0.5h5.6v3.4H135v5.3h-20.5v3.5h18.1c1,0,1.4,0.5,1.4,1.4v18.6c0,0.9-0.4,1.4-1.4,1.4H132l5.3,7.8l-4.4,3l-1.9-2.8
			l-2.9,0.2v4.4h7.7V52h-7.7v6.1c0,2.6-1.1,4.4-3,5.7c-2,1.2-5.8,1.2-11.4-0.1v-5.9c4.4,1.2,7.1,1.5,8.2,0.7c0.4-0.3,0.6-1,0.6-1.9
			V52H88.9z M108.9,17.6H96.3c-0.1,0-0.2,0.1-0.1,0.3v3.2h12.8C108.9,21.1,108.9,17.6,108.9,17.6z M108.9,25.6H96.2V29
			c-0.1,0.2,0,0.3,0.1,0.4h12.6C108.9,29.3,108.9,25.6,108.9,25.6z M102.5,52.7c2.6,2.3,4.9,4.6,6.8,6.9L105,63
			c-2.3-2.6-4.5-4.8-6.5-6.6L102.5,52.7z M114.5,21.1h13.9v-3.2c0-0.2-0.1-0.3-0.3-0.3h-13.6C114.5,17.6,114.5,21.1,114.5,21.1z
			 M114.5,29.3h13.6l0.3-0.4v-3.4h-13.9V29.3z M128,34.1h-13.4v3.7l13.1-0.6l-1.2-1.8L128,34.1z"/>
	</g>
</g>
</svg>
