<!-- Generated by IcoMoon.io -->
<svg version="1.1" xmlns="http://www.w3.org/2000/svg" width="38" height="20" viewBox="0 0 38 20">
<title>icon_track</title>
<path fill="#fff" d="M18.246 2.257c0.236 0 0.465 0.015 0.679 0.053 2.699 0.427 4.003 2.707 4.178 3.683 0.435 2.364-1.632 5.467-2.92 6.923l-0.038 0.046c-1.563 1.822-4.224 3.622-7.922 5.353-4.285-1.929-10.034-6.176-10.576-9.813l-0.008-0.038-0.008-0.031c-0.008-0.023-0.633-3.553 1.555-5.147 1.067-0.778 2.31-0.938 3.164-0.938 1.769 0 3.683 0.671 4.88 1.716l0.938 0.816 0.999-0.74c0.023-0.023 2.6-1.883 5.078-1.883zM18.246 0.709c-3.065 0-6.008 2.181-6.008 2.181-1.403-1.22-3.66-2.089-5.886-2.089-1.449 0-2.882 0.366-4.079 1.235-3.035 2.211-2.158 6.695-2.158 6.695 0.671 4.522 7.472 9.356 12.124 11.27 6.405-2.905 8.486-5.36 9.081-6.054 0.122-0.145 3.995-4.422 3.294-8.235-0.297-1.639-2.089-4.407-5.459-4.933-0.29-0.046-0.602-0.069-0.907-0.069v0z"></path>
<path fill="#fff" d="M38.124 4.628h-4.628v-4.628h-1.54v4.628h-4.628v1.54h4.628v4.628h1.54v-4.628h4.628z"></path>
</svg>
