<?xml version="1.0" encoding="utf-8"?>
<!-- Generator: Adobe Illustrator 26.3.1, SVG Export Plug-In . SVG Version: 6.00 Build 0)  -->
<svg version="1.1" id="圖層_1" xmlns="http://www.w3.org/2000/svg" xmlns:xlink="http://www.w3.org/1999/xlink" x="0px" y="0px"
	 viewBox="0 0 559.495 119.055" enable-background="new 0 0 559.495 119.055" xml:space="preserve">
<g>
	<path fill="#DD0000" d="M108.369,36.511c-2.147-1.928-5.624-3.594-10.331-4.948c-3.247-0.968-5.61-1.882-7.045-2.726
		c-1.352-0.719-2.038-1.48-2.038-2.262c0-0.785,0.441-1.498,1.329-2.166c0.892-0.609,2.512-0.938,4.797-0.979
		c2.74,0.042,5.049,0.291,6.837,0.731c1.808,0.558,3.185,1.047,4.091,1.455l0.522,0.235l2.65-8.22l-0.415-0.182
		c-1.317-0.577-2.891-1.063-4.673-1.444c-1.098-0.244-2.368-0.425-3.766-0.553v-5.054h-2.389H89.48h-2.356v5.964
		c-7.105,1.9-10.762,5.693-10.856,11.325c0.055,3.211,1.469,5.819,4.2,7.746c2.573,1.873,6.054,3.391,10.345,4.512
		c5.373,1.394,8.075,3.109,8.03,5.089c-0.043,1.016-0.649,1.825-1.858,2.476c-1.255,0.688-2.993,1.037-5.157,1.037
		c-5.065-0.082-9.316-1.013-12.636-2.769l-0.547-0.29l-2.614,8.537l0.395,0.184c2.747,1.279,6.338,2.138,10.699,2.562v5.883h1.928
		h8.464h2.812v-6.836c3.156-0.821,5.679-2.08,7.506-3.77c2.452-2.226,3.695-4.886,3.695-7.909
		C111.53,41.057,110.47,38.493,108.369,36.511z"/>
	<path fill="#DD0000" d="M471.009,38.42c-1.603-1.66-4.198-3.095-7.712-4.261c-2.424-0.834-4.188-1.621-5.259-2.348
		c-1.009-0.619-1.521-1.274-1.521-1.948c0-0.676,0.329-1.29,0.992-1.865c0.666-0.524,1.875-0.808,3.581-0.843
		c2.045,0.036,3.769,0.25,5.104,0.63c1.35,0.48,2.378,0.902,3.054,1.253l0.39,0.202l1.978-7.078l-0.31-0.157
		c-0.983-0.497-2.158-0.915-3.488-1.244c-0.819-0.21-1.768-0.366-2.811-0.476v-4.352h-1.783h-6.315h-1.758v5.136
		c-5.304,1.636-8.033,4.902-8.104,9.753c0.041,2.766,1.097,5.011,3.135,6.671c1.921,1.613,4.519,2.92,7.722,3.886
		c4.011,1.2,6.028,2.678,5.994,4.382c-0.032,0.875-0.485,1.571-1.387,2.132c-0.937,0.592-2.234,0.893-3.85,0.893
		c-3.781-0.07-6.955-0.872-9.432-2.385l-0.408-0.249l-1.952,7.351l0.295,0.159c2.05,1.101,4.731,1.841,7.987,2.207v5.066h1.439
		h6.318h2.099v-5.887c2.356-0.707,4.239-1.791,5.603-3.247c1.83-1.917,2.759-4.208,2.759-6.811
		C473.368,42.335,472.577,40.128,471.009,38.42z"/>
	<path d="M48.404,78.977c-1.107,1.174-2.766,1.76-4.976,1.76H3.317c-0.806,0-1.484-0.271-2.036-0.813
		c-0.553-0.542-0.829-1.172-0.829-1.896v-5.145c0-0.722,0.151-1.511,0.452-2.37c0.301-0.857,0.703-1.557,1.207-2.099l25.031-26.809
		H2.564c-0.705,0-1.308-0.271-1.81-0.813C0.25,40.252,0,39.622,0,38.898v-5.145c0-0.722,0.151-1.398,0.452-2.031
		c0.301-0.631,0.702-1.172,1.207-1.625L28.65,1.256c0.201-0.271,0.653-0.495,1.358-0.677c0.702-0.18,1.305-0.271,1.81-0.271H47.65
		c0.603,0,1.03,0.271,1.281,0.813c0.25,0.542,0.226,0.994-0.075,1.354L22.769,30.774h24.278c0.603,0,1.18,0.25,1.734,0.745
		c0.551,0.497,0.829,1.015,0.829,1.557v5.281c0,0.724-0.127,1.513-0.377,2.369c-0.252,0.859-0.628,1.513-1.131,1.963L22.317,69.905
		h13.722v-5.984c0-0.63,0.301-1.24,0.904-1.828c0.603-0.586,1.306-0.88,2.111-0.88h8.746c0.603,0,1.154,0.294,1.658,0.88
		c0.502,0.588,0.755,1.197,0.755,1.828v10.452C50.213,76.359,49.61,77.893,48.404,78.977z M15.38,118.446
		c-0.301,0.406-0.705,0.609-1.206,0.609H3.92c-0.504,0-0.956-0.203-1.357-0.609c-0.403-0.406-0.603-0.835-0.603-1.286V87.642
		c0-0.451,0.151-0.834,0.452-1.151c0.301-0.315,0.652-0.474,1.055-0.474h10.707c0.4,0,0.777,0.159,1.131,0.474
		c0.351,0.317,0.528,0.7,0.528,1.151v29.517C15.833,117.611,15.682,118.039,15.38,118.446z M32.571,118.446
		c-0.301,0.406-0.705,0.609-1.207,0.609H20.809c-0.504,0-0.904-0.203-1.207-0.609c-0.301-0.406-0.452-0.835-0.452-1.286V87.642
		c0-0.451,0.151-0.834,0.452-1.151c0.302-0.315,0.653-0.474,1.056-0.474h10.706c0.502,0,0.905,0.159,1.207,0.474
		c0.301,0.317,0.452,0.7,0.452,1.151v29.517C33.023,117.611,32.872,118.039,32.571,118.446z M49.912,114.436
		c-0.302,0.406-0.705,0.609-1.207,0.609H38.15c-0.505,0-0.905-0.203-1.207-0.609s-0.452-0.835-0.452-1.286V87.642
		c0-0.451,0.151-0.834,0.452-1.151c0.301-0.315,0.653-0.474,1.056-0.474h10.706c0.502,0,0.904,0.159,1.207,0.474
		c0.301,0.317,0.452,0.7,0.452,1.151v25.508C50.364,113.601,50.213,114.03,49.912,114.436z M129.227,116.753
		c-1.911,1.534-4.425,2.302-7.54,2.302h-19.15c-0.603,0-1.082-0.135-1.433-0.406c-0.353-0.271-0.628-0.632-0.829-1.083l-3.619-6.228
		c-0.203-0.359-0.151-0.813,0.151-1.354s0.702-0.813,1.206-0.813h16.135V71.123H97.277v17.738h12.951
		c0.501,0,0.928,0.203,1.281,0.609c0.351,0.406,0.427,0.791,0.226,1.151l-2.262,6.77c-0.402,0.995-1.157,1.489-2.262,1.489H89.57
		c-2.714,0-4.926-0.856-6.636-2.572c-1.911-1.714-2.864-3.836-2.864-6.364V71.123h-6.334v46.442c0,0.451-0.176,0.813-0.528,1.083
		c-0.353,0.271-0.779,0.406-1.281,0.406H57.602c-1.308,0-1.961-0.497-1.961-1.489V11.005c0-2.797,0.954-4.963,2.865-6.499
		c2.111-1.896,4.826-2.843,8.143-2.843h54.134c3.216,0,5.881,0.813,7.992,2.437c2.311,1.625,3.468,3.973,3.468,7.041v98.573
		C132.243,112.78,131.237,115.129,129.227,116.753z M114.148,11.682H73.736v49.557h40.412V11.682z"/>
	<path d="M200.8,78.977c-1.108,1.174-2.766,1.76-4.976,1.76h-47.65c-0.806,0-1.484-0.271-2.035-0.813
		c-0.554-0.542-0.83-1.172-0.83-1.896v-4.875c0-0.721,0.151-1.534,0.452-2.437c0.302-0.901,0.703-1.578,1.207-2.031l28.951-26.539
		h-27.444c-0.806,0-1.432-0.271-1.884-0.813s-0.678-1.172-0.678-1.896v-5.145c0-0.451,0.174-1.105,0.528-1.963
		c0.35-0.856,0.727-1.421,1.131-1.692l30.007-29.382c0.702-0.63,1.457-0.948,2.262-0.948h17.793c0.603,0,1.003,0.339,1.206,1.016
		c0.201,0.677,0.151,1.197-0.151,1.557l-29.254,28.434h26.087c0.603,0,1.18,0.25,1.735,0.745c0.551,0.497,0.829,1.015,0.829,1.557
		v5.687c0,0.724-0.127,1.513-0.377,2.369c-0.253,0.859-0.629,1.513-1.132,1.963l-28.8,26.268h17.793V63.84
		c0-0.63,0.301-1.24,0.904-1.828c0.603-0.586,1.305-0.88,2.111-0.88h11.611c0.603,0,1.154,0.294,1.658,0.88
		c0.502,0.588,0.754,1.197,0.754,1.828v10.533C202.609,76.359,202.006,77.893,200.8,78.977z M160.991,118.446
		c-0.301,0.406-0.704,0.609-1.206,0.609h-11.31c-0.504,0-0.904-0.203-1.206-0.609c-0.301-0.406-0.452-0.835-0.452-1.286V87.642
		c0-0.451,0.151-0.834,0.452-1.151c0.301-0.315,0.653-0.474,1.055-0.474h11.46c0.4,0,0.777,0.159,1.131,0.474
		c0.351,0.317,0.529,0.7,0.529,1.151v29.517C161.444,117.611,161.293,118.039,160.991,118.446z M181.8,118.446
		c-0.301,0.406-0.704,0.609-1.206,0.609h-11.31c-0.504,0-0.904-0.203-1.206-0.609c-0.301-0.406-0.452-0.835-0.452-1.286V87.642
		c0-0.451,0.151-0.834,0.452-1.151c0.301-0.315,0.653-0.474,1.055-0.474h11.46c0.502,0,0.904,0.159,1.206,0.474
		c0.302,0.317,0.453,0.7,0.453,1.151v29.517C182.253,117.611,182.102,118.039,181.8,118.446z M277.552,117.566
		c-0.402,0.271-0.856,0.406-1.357,0.406h-75.546c-0.504,0-0.957-0.114-1.358-0.338c-0.402-0.227-0.603-0.565-0.603-1.016v-1.355
		h-9.047c-0.504,0-0.956-0.203-1.357-0.609c-0.403-0.406-0.604-0.835-0.604-1.286V87.642c0-0.451,0.151-0.834,0.453-1.151
		c0.301-0.315,0.652-0.474,1.055-0.474h11.46c0.501,0,0.904,0.159,1.206,0.474c0.301,0.317,0.452,0.7,0.452,1.151v19.498h26.238
		V14.661h-22.468c-0.504,0-0.956-0.135-1.357-0.406c-0.403-0.271-0.603-0.586-0.603-0.948V5.183c0-0.451,0.2-0.789,0.603-1.016
		c0.4-0.224,0.853-0.338,1.357-0.338h64.246c1.305,0,1.96,0.497,1.96,1.489v7.853c0,0.453-0.203,0.813-0.603,1.083
		c-0.402,0.271-0.855,0.406-1.357,0.406h-22.025v92.479h27.897c0.501,0,0.954,0.159,1.357,0.474c0.4,0.317,0.603,0.656,0.603,1.015
		v7.853C278.155,116.933,277.952,117.295,277.552,117.566z"/>
	<path d="M410.175,49.527c-0.403,0.317-0.855,0.474-1.358,0.474h-79.279l-7.239,8.124h71.475c5.429,0,9.448,1.174,12.063,3.521
		c2.413,2.348,3.619,5.642,3.619,9.884v34.798c0,4.244-0.956,7.401-2.865,9.478c-2.111,2.166-5.529,3.249-10.253,3.249h-88.213
		c-4.123,0-7.338-0.903-9.65-2.708c-2.615-1.896-3.92-4.963-3.92-9.207V78.57h-12.063c-0.504,0-0.829-0.224-0.98-0.677
		c-0.151-0.45-0.075-0.856,0.226-1.218l23.825-26.674H286.51c-0.504,0-0.956-0.136-1.357-0.406
		c-0.403-0.271-0.604-0.586-0.604-0.948v-5.823c0-0.45,0.174-0.856,0.528-1.218c0.351-0.36,0.879-0.542,1.584-0.542h26.893
		l7.841-8.801h-32.412c-0.504,0-0.956-0.136-1.357-0.406c-0.403-0.271-0.604-0.586-0.604-0.948v-5.823
		c0-0.45,0.175-0.856,0.529-1.218c0.35-0.36,0.878-0.542,1.583-0.542h40.252l7.691-8.531h-45.6c-0.505,0-0.931-0.135-1.282-0.406
		c-0.353-0.271-0.528-0.586-0.528-0.948V7.214c0-0.901,0.551-1.354,1.659-1.354h94.313l3.77-4.197
		c0.502-0.451,1.004-0.834,1.508-1.151c0.502-0.315,1.105-0.474,1.809-0.474h17.04c0.702,0,1.207,0.271,1.508,0.812
		c0.301,0.542,0.35,1.084,0.151,1.625l-2.564,4.333c-0.705,1.174-1.41,2.234-2.111,3.182c-0.705,0.948-1.559,1.739-2.564,2.369
		c-2.212,1.625-5.077,2.437-8.595,2.437h-34.69l-7.54,8.531h54.888c1.305,0,1.96,0.497,1.96,1.489v5.416
		c0,0.724-0.203,1.242-0.603,1.557c-0.402,0.317-0.855,0.474-1.357,0.474h-62.88l-7.841,8.801h71.287
		c1.306,0,1.961,0.497,1.961,1.489v5.416C410.778,48.693,410.575,49.212,410.175,49.527z M314.912,67.061v8.395h74.037l0.151-8.395
		H314.912z M389.1,84.392h-74.188v8.26H389.1V84.392z M389.1,101.589h-74.188v8.53H389.1V101.589z"/>
	<g>
		<g>
			<path d="M556.362,119.055H427.585c-0.503,0-0.954-0.135-1.354-0.406c-0.401-0.271-0.602-0.588-0.602-0.947v-6.905
				c0-0.451,0.174-0.789,0.526-1.016c0.351-0.224,0.776-0.338,1.279-0.338h6.77V86.154c0-2.166,0.851-4.015,2.558-5.551
				c2.106-2.075,4.663-3.114,7.672-3.114h94.777c1.302,0,2.633,0.203,3.986,0.609c1.354,0.406,2.581,1.016,3.686,1.828
				c2.307,1.625,3.461,3.656,3.461,6.093v23.423h5.716c1.303,0,1.956,0.497,1.956,1.489v6.634
				C558.016,118.558,557.464,119.055,556.362,119.055z M467.452,87.914H453.46v21.528h13.991V87.914z M499.195,87.914h-13.991
				v21.528h13.991V87.914z M531.087,87.914h-14.141v21.528h14.141V87.914z"/>
		</g>
		<g>
			<path d="M558.957,71.53l-24.881-14.217l18.095-12.457c0.804-0.542,1.207-1.534,1.207-2.979v-5.281
				c0-1.443-0.806-2.167-2.413-2.167h-56.094c-0.504,0-0.956,0.159-1.357,0.474c-0.403,0.317-0.603,0.7-0.603,1.151v5.687
				c0,0.453,0.2,0.835,0.603,1.151c0.4,0.317,0.853,0.474,1.357,0.474h35.737l-9.5,6.499l-3.619-2.031
				c-0.403-0.18-0.881-0.359-1.433-0.542c-0.553-0.18-1.081-0.271-1.583-0.271h-20.658c-0.504,0-0.806,0.271-0.904,0.813
				c-0.102,0.542,0.049,0.903,0.452,1.083l15.983,9.207l-18.999,13.27c-0.504,0.361-0.579,0.836-0.226,1.421
				c0.351,0.588,0.777,0.88,1.281,0.88h17.19c1.407,0,2.462-0.271,3.167-0.812l10.405-7.312l12.214,7.041
				c1.104,0.633,2.36,0.948,3.77,0.948h20.206c0.501,0,0.853-0.271,1.055-0.813C559.609,72.206,559.458,71.8,558.957,71.53z"/>
			<path d="M426.111,43.637h5.094v28.225c0,0.78,0.638,1.417,1.417,1.417h0.799c0.035,0.002,0.069,0.011,0.105,0.011h9.72
				c0.065,0,0.114-0.004,0.154-0.011h0.535c0.78,0,1.417-0.638,1.417-1.417V16.421h29.695v47.661h-18.175
				c-0.504,0-0.904,0.271-1.207,0.813c-0.301,0.542-0.353,0.994-0.151,1.354l3.921,6.228c0.2,0.271,0.476,0.453,0.829,0.542
				c0.351,0.091,0.678,0.135,0.98,0.135h17.492c1.708,0,3.141-0.224,4.298-0.677c1.154-0.451,2.186-1.083,3.091-1.896
				c1.908-1.714,2.864-3.88,2.864-6.499v-47.12c0-2.888-0.904-5.19-2.713-6.906c-2.012-1.984-4.826-2.979-8.444-2.979h-9.198V2.53
				c0-0.124,0.001-0.229-0.014-0.339V1.417c0-0.78-0.638-1.417-1.417-1.417H451.89c-0.779,0-1.417,0.638-1.417,1.417v5.661h-8.228
				c-3.419,0-6.133,0.903-8.143,2.708c-1.734,1.394-2.672,3.274-2.832,5.634c-0.038,0.128-0.065,0.26-0.065,0.4v18.745h-5.245
				c-0.505,0-0.931,0.114-1.282,0.338c-0.353,0.226-0.528,0.565-0.528,1.016v6.364c0,0.362,0.201,0.677,0.603,0.948
				C425.154,43.502,425.607,43.637,426.111,43.637z"/>
			<path d="M494.215,31.18h14.778c1.305,0,2.311-0.586,3.016-1.76l2.466-18.55h14.778v11.374c0,2.528,0.853,4.65,2.564,6.364
				c1.809,1.625,3.97,2.437,6.484,2.437h15.23c0.502,0,1.03-0.203,1.583-0.609c0.552-0.406,0.929-0.88,1.132-1.421l2.111-5.01
				c0.2-0.542,0.124-0.992-0.227-1.354c-0.353-0.359-0.829-0.542-1.432-0.542h-9.047V10.193c0-2.255-0.904-4.197-2.714-5.822
				c-1.71-1.534-4.022-2.302-6.936-2.302h-33.023c-2.413,0-4.474,0.677-6.182,2.031c-1.81,1.445-1.975,3.01-2.714,5.958
				l-3.069,19.227c-0.204,0.453-0.177,0.88,0.075,1.287C493.334,30.977,493.711,31.18,494.215,31.18z"/>
		</g>
	</g>
</g>
</svg>
