<?xml version="1.0" encoding="utf-8"?>
<!-- Generator: Adobe Illustrator 26.3.1, SVG Export Plug-In . SVG Version: 6.00 Build 0)  -->
<svg version="1.1" id="圖層_1" xmlns="http://www.w3.org/2000/svg" xmlns:xlink="http://www.w3.org/1999/xlink" x="0px" y="0px"
	 viewBox="0 0 106.3 106.3" style="enable-background:new 0 0 106.3 106.3;" xml:space="preserve">
<style type="text/css">
	.st0{fill:#FFFFFF;}
	.st1{fill:#CF171B;}
</style>
<g>
	<rect x="25.7" width="3.3" height="3.3"/>
	<rect x="32.2" width="3.3" height="3.3"/>
	<rect x="41.8" width="3.3" height="3.3"/>
	<rect x="45" width="3.3" height="3.3"/>
	<rect x="54.7" width="3.3" height="3.3"/>
	<rect x="74" width="3.3" height="3.3"/>
	<rect x="77.2" width="3.3" height="3.3"/>
	<rect x="25.7" y="3.2" width="3.3" height="3.3"/>
	<rect x="32.2" y="3.2" width="3.3" height="3.3"/>
	<rect x="35.4" y="3.2" width="3.3" height="3.3"/>
	<rect x="41.8" y="3.2" width="3.3" height="3.3"/>
	<rect x="51.5" y="3.2" width="3.3" height="3.3"/>
	<rect x="61.1" y="3.2" width="3.3" height="3.3"/>
	<rect x="70.8" y="3.2" width="3.3" height="3.3"/>
	<rect x="77.2" y="3.2" width="3.3" height="3.3"/>
	<rect x="25.7" y="6.4" width="3.3" height="3.3"/>
	<rect x="32.2" y="6.4" width="3.3" height="3.3"/>
	<rect x="35.4" y="6.4" width="3.3" height="3.3"/>
	<rect x="38.6" y="6.4" width="3.3" height="3.3"/>
	<rect x="48.3" y="6.4" width="3.3" height="3.3"/>
	<rect x="51.5" y="6.4" width="3.3" height="3.3"/>
	<rect x="57.9" y="6.4" width="3.3" height="3.3"/>
	<rect x="67.6" y="6.4" width="3.3" height="3.3"/>
	<rect x="74" y="6.4" width="3.3" height="3.3"/>
	<rect x="77.2" y="6.4" width="3.3" height="3.3"/>
	<rect x="38.6" y="9.7" width="3.3" height="3.3"/>
	<rect x="64.4" y="9.7" width="3.3" height="3.3"/>
	<rect x="70.8" y="9.7" width="3.3" height="3.3"/>
	<rect x="74" y="9.7" width="3.3" height="3.3"/>
	<rect x="77.2" y="9.7" width="3.3" height="3.3"/>
	<rect x="29" y="12.9" width="3.3" height="3.3"/>
	<rect x="38.6" y="12.9" width="3.3" height="3.3"/>
	<rect x="45" y="12.9" width="3.3" height="3.3"/>
	<rect x="57.9" y="12.9" width="3.3" height="3.3"/>
	<rect x="25.7" y="16.1" width="3.3" height="3.3"/>
	<rect x="29" y="16.1" width="3.3" height="3.3"/>
	<rect x="32.2" y="16.1" width="3.3" height="3.3"/>
	<rect x="41.8" y="16.1" width="3.3" height="3.3"/>
	<rect x="57.9" y="16.1" width="3.3" height="3.3"/>
	<rect x="70.8" y="16.1" width="3.3" height="3.3"/>
	<rect x="74" y="16.1" width="3.3" height="3.3"/>
	<rect x="77.2" y="16.1" width="3.3" height="3.3"/>
	<rect x="25.7" y="19.3" width="3.3" height="3.3"/>
	<rect x="32.2" y="19.3" width="3.3" height="3.3"/>
	<rect x="38.6" y="19.3" width="3.3" height="3.3"/>
	<rect x="45" y="19.3" width="3.3" height="3.3"/>
	<rect x="51.5" y="19.3" width="3.3" height="3.3"/>
	<rect x="57.9" y="19.3" width="3.3" height="3.3"/>
	<rect x="64.4" y="19.3" width="3.3" height="3.3"/>
	<rect x="70.8" y="19.3" width="3.3" height="3.3"/>
	<rect x="77.2" y="19.3" width="3.3" height="3.3"/>
	<rect x="25.7" y="22.5" width="3.3" height="3.3"/>
	<rect x="38.6" y="22.5" width="3.3" height="3.3"/>
	<rect x="45" y="22.5" width="3.3" height="3.3"/>
	<rect x="48.3" y="22.5" width="3.3" height="3.3"/>
	<rect x="54.7" y="22.5" width="3.3" height="3.3"/>
	<rect x="57.9" y="22.5" width="3.3" height="3.3"/>
	<rect x="67.6" y="22.5" width="3.3" height="3.3"/>
	<rect x="74" y="22.5" width="3.3" height="3.3"/>
	<rect x="6.4" y="25.7" width="3.3" height="3.3"/>
	<rect x="9.7" y="25.7" width="3.3" height="3.3"/>
	<rect x="12.9" y="25.7" width="3.3" height="3.3"/>
	<rect x="19.3" y="25.7" width="3.3" height="3.3"/>
	<rect x="25.7" y="25.7" width="3.3" height="3.3"/>
	<rect x="32.2" y="25.7" width="3.3" height="3.3"/>
	<rect x="35.4" y="25.7" width="3.3" height="3.3"/>
	<rect x="45" y="25.7" width="3.3" height="3.3"/>
	<rect x="48.3" y="25.7" width="3.3" height="3.3"/>
	<rect x="57.9" y="25.7" width="3.3" height="3.3"/>
	<rect x="70.8" y="25.7" width="3.3" height="3.3"/>
	<rect x="74" y="25.7" width="3.3" height="3.3"/>
	<rect x="77.2" y="25.7" width="3.3" height="3.3"/>
	<rect x="80.4" y="25.7" width="3.3" height="3.3"/>
	<rect x="83.7" y="25.7" width="3.3" height="3.3"/>
	<rect x="86.9" y="25.7" width="3.3" height="3.3"/>
	<rect x="96.5" y="25.7" width="3.3" height="3.3"/>
	<rect x="99.7" y="25.7" width="3.3" height="3.3"/>
	<rect x="103" y="25.7" width="3.3" height="3.3"/>
	<rect x="3.2" y="29" width="3.3" height="3.3"/>
	<rect x="6.4" y="29" width="3.3" height="3.3"/>
	<rect x="12.9" y="29" width="3.3" height="3.3"/>
	<rect x="16.1" y="29" width="3.3" height="3.3"/>
	<rect x="38.6" y="29" width="3.3" height="3.3"/>
	<rect x="54.7" y="29" width="3.3" height="3.3"/>
	<rect x="61.1" y="29" width="3.3" height="3.3"/>
	<rect x="64.4" y="29" width="3.3" height="3.3"/>
	<rect x="67.6" y="29" width="3.3" height="3.3"/>
	<rect x="70.8" y="29" width="3.3" height="3.3"/>
	<rect x="74" y="29" width="3.3" height="3.3"/>
	<rect x="77.2" y="29" width="3.3" height="3.3"/>
	<rect x="80.4" y="29" width="3.3" height="3.3"/>
	<rect x="83.7" y="29" width="3.3" height="3.3"/>
	<rect x="93.3" y="29" width="3.3" height="3.3"/>
	<rect x="96.5" y="29" width="3.3" height="3.3"/>
	<rect x="103" y="29" width="3.3" height="3.3"/>
	<rect y="32.2" width="3.3" height="3.3"/>
	<rect x="6.4" y="32.2" width="3.3" height="3.3"/>
	<rect x="9.7" y="32.2" width="3.3" height="3.3"/>
	<rect x="12.9" y="32.2" width="3.3" height="3.3"/>
	<rect x="16.1" y="32.2" width="3.3" height="3.3"/>
	<rect x="19.3" y="32.2" width="3.3" height="3.3"/>
	<rect x="29" y="32.2" width="3.3" height="3.3"/>
	<rect x="35.4" y="32.2" width="3.3" height="3.3"/>
	<rect x="38.6" y="32.2" width="3.3" height="3.3"/>
	<rect x="45" y="32.2" width="3.3" height="3.3"/>
	<rect x="48.3" y="32.2" width="3.3" height="3.3"/>
	<rect x="51.5" y="32.2" width="3.3" height="3.3"/>
	<rect x="54.7" y="32.2" width="3.3" height="3.3"/>
	<rect x="61.1" y="32.2" width="3.3" height="3.3"/>
	<rect x="67.6" y="32.2" width="3.3" height="3.3"/>
	<rect x="86.9" y="32.2" width="3.3" height="3.3"/>
	<rect x="99.7" y="32.2" width="3.3" height="3.3"/>
	<rect y="35.4" width="3.3" height="3.3"/>
	<rect x="3.2" y="35.4" width="3.3" height="3.3"/>
	<rect x="6.4" y="35.4" width="3.3" height="3.3"/>
	<rect x="12.9" y="35.4" width="3.3" height="3.3"/>
	<rect x="16.1" y="35.4" width="3.3" height="3.3"/>
	<rect x="35.4" y="35.4" width="3.3" height="3.3"/>
	<rect x="38.6" y="35.4" width="3.3" height="3.3"/>
	<rect x="48.3" y="35.4" width="3.3" height="3.3"/>
	<rect x="57.9" y="35.4" width="3.3" height="3.3"/>
	<rect x="61.1" y="35.4" width="3.3" height="3.3"/>
	<rect x="67.6" y="35.4" width="3.3" height="3.3"/>
	<rect x="70.8" y="35.4" width="3.3" height="3.3"/>
	<rect x="77.2" y="35.4" width="3.3" height="3.3"/>
	<rect x="93.3" y="35.4" width="3.3" height="3.3"/>
	<rect x="96.5" y="35.4" width="3.3" height="3.3"/>
	<rect x="99.7" y="35.4" width="3.3" height="3.3"/>
	<rect x="103" y="35.4" width="3.3" height="3.3"/>
	<rect y="38.6" width="3.3" height="3.3"/>
	<rect x="6.4" y="38.6" width="3.3" height="3.3"/>
	<rect x="9.7" y="38.6" width="3.3" height="3.3"/>
	<rect x="12.9" y="38.6" width="3.3" height="3.3"/>
	<rect x="19.3" y="38.6" width="3.3" height="3.3"/>
	<rect x="22.5" y="38.6" width="3.3" height="3.3"/>
	<rect x="25.7" y="38.6" width="3.3" height="3.3"/>
	<rect x="32.2" y="38.6" width="3.3" height="3.3"/>
	<rect x="35.4" y="38.6" width="3.3" height="3.3"/>
	<rect x="67.6" y="38.6" width="3.3" height="3.3"/>
	<rect x="74" y="38.6" width="3.3" height="3.3"/>
	<rect x="77.2" y="38.6" width="3.3" height="3.3"/>
	<rect x="80.4" y="38.6" width="3.3" height="3.3"/>
	<rect x="93.3" y="38.6" width="3.3" height="3.3"/>
	<rect x="3.2" y="41.8" width="3.3" height="3.3"/>
	<rect x="6.4" y="41.8" width="3.3" height="3.3"/>
	<rect x="12.9" y="41.8" width="3.3" height="3.3"/>
	<rect x="16.1" y="41.8" width="3.3" height="3.3"/>
	<rect x="22.5" y="41.8" width="3.3" height="3.3"/>
	<rect x="25.7" y="41.8" width="3.3" height="3.3"/>
	<rect x="35.4" y="41.8" width="3.3" height="3.3"/>
	<rect x="70.8" y="41.8" width="3.3" height="3.3"/>
	<rect x="74" y="41.8" width="3.3" height="3.3"/>
	<rect x="80.4" y="41.8" width="3.3" height="3.3"/>
	<rect x="83.7" y="41.8" width="3.3" height="3.3"/>
	<rect x="86.9" y="41.8" width="3.3" height="3.3"/>
	<rect x="93.3" y="41.8" width="3.3" height="3.3"/>
	<rect x="103" y="41.8" width="3.3" height="3.3"/>
	<rect x="6.4" y="45" width="3.3" height="3.3"/>
	<rect x="9.7" y="45" width="3.3" height="3.3"/>
	<rect x="12.9" y="45" width="3.3" height="3.3"/>
	<rect x="16.1" y="45" width="3.3" height="3.3"/>
	<rect x="19.3" y="45" width="3.3" height="3.3"/>
	<rect x="70.8" y="45" width="3.3" height="3.3"/>
	<rect x="80.4" y="45" width="3.3" height="3.3"/>
	<rect x="93.3" y="45" width="3.3" height="3.3"/>
	<rect x="99.7" y="45" width="3.3" height="3.3"/>
	<rect x="3.2" y="48.3" width="3.3" height="3.3"/>
	<rect x="9.7" y="48.3" width="3.3" height="3.3"/>
	<rect x="12.9" y="48.3" width="3.3" height="3.3"/>
	<rect x="32.2" y="48.3" width="3.3" height="3.3"/>
	<rect x="35.4" y="48.3" width="3.3" height="3.3"/>
	<rect x="67.6" y="48.3" width="3.3" height="3.3"/>
	<rect x="70.8" y="48.3" width="3.3" height="3.3"/>
	<rect x="77.2" y="48.3" width="3.3" height="3.3"/>
	<rect x="86.9" y="48.3" width="3.3" height="3.3"/>
	<rect x="96.5" y="48.3" width="3.3" height="3.3"/>
	<rect x="99.7" y="48.3" width="3.3" height="3.3"/>
	<rect x="103" y="48.3" width="3.3" height="3.3"/>
	<rect y="51.5" width="3.3" height="3.3"/>
	<rect x="3.2" y="51.5" width="3.3" height="3.3"/>
	<rect x="6.4" y="51.5" width="3.3" height="3.3"/>
	<rect x="12.9" y="51.5" width="3.3" height="3.3"/>
	<rect x="16.1" y="51.5" width="3.3" height="3.3"/>
	<rect x="19.3" y="51.5" width="3.3" height="3.3"/>
	<rect x="22.5" y="51.5" width="3.3" height="3.3"/>
	<rect x="25.7" y="51.5" width="3.3" height="3.3"/>
	<rect x="29" y="51.5" width="3.3" height="3.3"/>
	<rect x="32.2" y="51.5" width="3.3" height="3.3"/>
	<rect x="35.4" y="51.5" width="3.3" height="3.3"/>
	<rect x="74" y="51.5" width="3.3" height="3.3"/>
	<rect x="80.4" y="51.5" width="3.3" height="3.3"/>
	<rect x="86.9" y="51.5" width="3.3" height="3.3"/>
	<rect x="90.1" y="51.5" width="3.3" height="3.3"/>
	<rect x="96.5" y="51.5" width="3.3" height="3.3"/>
	<rect x="103" y="51.5" width="3.3" height="3.3"/>
	<rect x="6.4" y="54.7" width="3.3" height="3.3"/>
	<rect x="9.7" y="54.7" width="3.3" height="3.3"/>
	<rect x="16.1" y="54.7" width="3.3" height="3.3"/>
	<rect x="22.5" y="54.7" width="3.3" height="3.3"/>
	<rect x="25.7" y="54.7" width="3.3" height="3.3"/>
	<rect x="35.4" y="54.7" width="3.3" height="3.3"/>
	<rect x="67.6" y="54.7" width="3.3" height="3.3"/>
	<rect x="74" y="54.7" width="3.3" height="3.3"/>
	<rect x="77.2" y="54.7" width="3.3" height="3.3"/>
	<rect x="83.7" y="54.7" width="3.3" height="3.3"/>
	<rect x="103" y="54.7" width="3.3" height="3.3"/>
	<rect y="57.9" width="3.3" height="3.3"/>
	<rect x="3.2" y="57.9" width="3.3" height="3.3"/>
	<rect x="6.4" y="57.9" width="3.3" height="3.3"/>
	<rect x="9.7" y="57.9" width="3.3" height="3.3"/>
	<rect x="19.3" y="57.9" width="3.3" height="3.3"/>
	<rect x="25.7" y="57.9" width="3.3" height="3.3"/>
	<rect x="29" y="57.9" width="3.3" height="3.3"/>
	<rect x="32.2" y="57.9" width="3.3" height="3.3"/>
	<rect x="35.4" y="57.9" width="3.3" height="3.3"/>
	<rect x="70.8" y="57.9" width="3.3" height="3.3"/>
	<rect x="80.4" y="57.9" width="3.3" height="3.3"/>
	<rect x="83.7" y="57.9" width="3.3" height="3.3"/>
	<rect x="96.5" y="57.9" width="3.3" height="3.3"/>
	<rect y="61.1" width="3.3" height="3.3"/>
	<rect x="9.7" y="61.1" width="3.3" height="3.3"/>
	<rect x="12.9" y="61.1" width="3.3" height="3.3"/>
	<rect x="67.6" y="61.1" width="3.3" height="3.3"/>
	<rect x="70.8" y="61.1" width="3.3" height="3.3"/>
	<rect x="74" y="61.1" width="3.3" height="3.3"/>
	<rect x="77.2" y="61.1" width="3.3" height="3.3"/>
	<rect x="83.7" y="61.1" width="3.3" height="3.3"/>
	<rect x="86.9" y="61.1" width="3.3" height="3.3"/>
	<rect x="90.1" y="61.1" width="3.3" height="3.3"/>
	<rect x="93.3" y="61.1" width="3.3" height="3.3"/>
	<rect x="96.5" y="61.1" width="3.3" height="3.3"/>
	<rect x="99.7" y="61.1" width="3.3" height="3.3"/>
	<rect x="103" y="61.1" width="3.3" height="3.3"/>
	<rect y="64.4" width="3.3" height="3.3"/>
	<rect x="9.7" y="64.4" width="3.3" height="3.3"/>
	<rect x="12.9" y="64.4" width="3.3" height="3.3"/>
	<rect x="19.3" y="64.4" width="3.3" height="3.3"/>
	<rect x="22.5" y="64.4" width="3.3" height="3.3"/>
	<rect x="80.4" y="64.4" width="3.3" height="3.3"/>
	<rect x="83.7" y="64.4" width="3.3" height="3.3"/>
	<rect x="90.1" y="64.4" width="3.3" height="3.3"/>
	<rect x="93.3" y="64.4" width="3.3" height="3.3"/>
	<rect x="99.7" y="64.4" width="3.3" height="3.3"/>
	<rect y="67.6" width="3.3" height="3.3"/>
	<rect x="3.2" y="67.6" width="3.3" height="3.3"/>
	<rect x="6.4" y="67.6" width="3.3" height="3.3"/>
	<rect x="9.7" y="67.6" width="3.3" height="3.3"/>
	<rect x="12.9" y="67.6" width="3.3" height="3.3"/>
	<rect x="22.5" y="67.6" width="3.3" height="3.3"/>
	<rect x="32.2" y="67.6" width="3.3" height="3.3"/>
	<rect x="38.6" y="67.6" width="3.3" height="3.3"/>
	<rect x="41.8" y="67.6" width="3.3" height="3.3"/>
	<rect x="57.9" y="67.6" width="3.3" height="3.3"/>
	<rect x="64.4" y="67.6" width="3.3" height="3.3"/>
	<rect x="67.6" y="67.6" width="3.3" height="3.3"/>
	<rect x="77.2" y="67.6" width="3.3" height="3.3"/>
	<rect x="103" y="67.6" width="3.3" height="3.3"/>
	<rect y="70.8" width="3.3" height="3.3"/>
	<rect x="6.4" y="70.8" width="3.3" height="3.3"/>
	<rect x="19.3" y="70.8" width="3.3" height="3.3"/>
	<rect x="22.5" y="70.8" width="3.3" height="3.3"/>
	<rect x="25.7" y="70.8" width="3.3" height="3.3"/>
	<rect x="32.2" y="70.8" width="3.3" height="3.3"/>
	<rect x="35.4" y="70.8" width="3.3" height="3.3"/>
	<rect x="38.6" y="70.8" width="3.3" height="3.3"/>
	<rect x="48.3" y="70.8" width="3.3" height="3.3"/>
	<rect x="57.9" y="70.8" width="3.3" height="3.3"/>
	<rect x="61.1" y="70.8" width="3.3" height="3.3"/>
	<rect x="67.6" y="70.8" width="3.3" height="3.3"/>
	<rect x="70.8" y="70.8" width="3.3" height="3.3"/>
	<rect x="90.1" y="70.8" width="3.3" height="3.3"/>
	<rect x="96.5" y="70.8" width="3.3" height="3.3"/>
	<rect x="99.7" y="70.8" width="3.3" height="3.3"/>
	<rect y="74" width="3.3" height="3.3"/>
	<rect x="6.4" y="74" width="3.3" height="3.3"/>
	<rect x="9.7" y="74" width="3.3" height="3.3"/>
	<rect x="16.1" y="74" width="3.3" height="3.3"/>
	<rect x="22.5" y="74" width="3.3" height="3.3"/>
	<rect x="25.7" y="74" width="3.3" height="3.3"/>
	<rect x="29" y="74" width="3.3" height="3.3"/>
	<rect x="32.2" y="74" width="3.3" height="3.3"/>
	<rect x="38.6" y="74" width="3.3" height="3.3"/>
	<rect x="41.8" y="74" width="3.3" height="3.3"/>
	<rect x="45" y="74" width="3.3" height="3.3"/>
	<rect x="48.3" y="74" width="3.3" height="3.3"/>
	<rect x="57.9" y="74" width="3.3" height="3.3"/>
	<rect x="61.1" y="74" width="3.3" height="3.3"/>
	<rect x="67.6" y="74" width="3.3" height="3.3"/>
	<rect x="77.2" y="74" width="3.3" height="3.3"/>
	<rect x="90.1" y="74" width="3.3" height="3.3"/>
	<rect x="93.3" y="74" width="3.3" height="3.3"/>
	<rect x="96.5" y="74" width="3.3" height="3.3"/>
	<rect x="103" y="74" width="3.3" height="3.3"/>
	<rect y="77.2" width="3.3" height="3.3"/>
	<rect x="6.4" y="77.2" width="3.3" height="3.3"/>
	<rect x="12.9" y="77.2" width="3.3" height="3.3"/>
	<rect x="19.3" y="77.2" width="3.3" height="3.3"/>
	<rect x="32.2" y="77.2" width="3.3" height="3.3"/>
	<rect x="35.4" y="77.2" width="3.3" height="3.3"/>
	<rect x="70.8" y="77.2" width="3.3" height="3.3"/>
	<rect x="77.2" y="77.2" width="3.3" height="3.3"/>
	<rect x="80.4" y="77.2" width="3.3" height="3.3"/>
	<rect x="83.7" y="77.2" width="3.3" height="3.3"/>
	<rect x="86.9" y="77.2" width="3.3" height="3.3"/>
	<rect x="90.1" y="77.2" width="3.3" height="3.3"/>
	<rect x="99.7" y="77.2" width="3.3" height="3.3"/>
	<rect x="103" y="77.2" width="3.3" height="3.3"/>
	<rect x="25.7" y="80.4" width="3.3" height="3.3"/>
	<rect x="29" y="80.4" width="3.3" height="3.3"/>
	<rect x="32.2" y="80.4" width="3.3" height="3.3"/>
	<rect x="35.4" y="80.4" width="3.3" height="3.3"/>
	<rect x="41.8" y="80.4" width="3.3" height="3.3"/>
	<rect x="64.4" y="80.4" width="3.3" height="3.3"/>
	<rect x="70.8" y="80.4" width="3.3" height="3.3"/>
	<rect x="74" y="80.4" width="3.3" height="3.3"/>
	<rect x="77.2" y="80.4" width="3.3" height="3.3"/>
	<rect x="90.1" y="80.4" width="3.3" height="3.3"/>
	<rect x="96.5" y="80.4" width="3.3" height="3.3"/>
	<rect x="99.7" y="80.4" width="3.3" height="3.3"/>
	<rect x="103" y="80.4" width="3.3" height="3.3"/>
	<rect x="29" y="83.7" width="3.3" height="3.3"/>
	<rect x="38.6" y="83.7" width="3.3" height="3.3"/>
	<rect x="41.8" y="83.7" width="3.3" height="3.3"/>
	<rect x="51.5" y="83.7" width="3.3" height="3.3"/>
	<rect x="54.7" y="83.7" width="3.3" height="3.3"/>
	<rect x="61.1" y="83.7" width="3.3" height="3.3"/>
	<rect x="70.8" y="83.7" width="3.3" height="3.3"/>
	<rect x="74" y="83.7" width="3.3" height="3.3"/>
	<rect x="77.2" y="83.7" width="3.3" height="3.3"/>
	<rect x="83.7" y="83.7" width="3.3" height="3.3"/>
	<rect x="90.1" y="83.7" width="3.3" height="3.3"/>
	<rect x="99.7" y="83.7" width="3.3" height="3.3"/>
	<rect x="32.2" y="86.9" width="3.3" height="3.3"/>
	<rect x="35.4" y="86.9" width="3.3" height="3.3"/>
	<rect x="41.8" y="86.9" width="3.3" height="3.3"/>
	<rect x="45" y="86.9" width="3.3" height="3.3"/>
	<rect x="57.9" y="86.9" width="3.3" height="3.3"/>
	<rect x="64.4" y="86.9" width="3.3" height="3.3"/>
	<rect x="74" y="86.9" width="3.3" height="3.3"/>
	<rect x="77.2" y="86.9" width="3.3" height="3.3"/>
	<rect x="90.1" y="86.9" width="3.3" height="3.3"/>
	<rect x="93.3" y="86.9" width="3.3" height="3.3"/>
	<rect x="96.5" y="86.9" width="3.3" height="3.3"/>
	<rect x="99.7" y="86.9" width="3.3" height="3.3"/>
	<rect x="103" y="86.9" width="3.3" height="3.3"/>
	<rect x="25.7" y="90.1" width="3.3" height="3.3"/>
	<rect x="29" y="90.1" width="3.3" height="3.3"/>
	<rect x="32.2" y="90.1" width="3.3" height="3.3"/>
	<rect x="35.4" y="90.1" width="3.3" height="3.3"/>
	<rect x="38.6" y="90.1" width="3.3" height="3.3"/>
	<rect x="45" y="90.1" width="3.3" height="3.3"/>
	<rect x="48.3" y="90.1" width="3.3" height="3.3"/>
	<rect x="51.5" y="90.1" width="3.3" height="3.3"/>
	<rect x="61.1" y="90.1" width="3.3" height="3.3"/>
	<rect x="64.4" y="90.1" width="3.3" height="3.3"/>
	<rect x="67.6" y="90.1" width="3.3" height="3.3"/>
	<rect x="70.8" y="90.1" width="3.3" height="3.3"/>
	<rect x="77.2" y="90.1" width="3.3" height="3.3"/>
	<rect x="80.4" y="90.1" width="3.3" height="3.3"/>
	<rect x="83.7" y="90.1" width="3.3" height="3.3"/>
	<rect x="86.9" y="90.1" width="3.3" height="3.3"/>
	<rect x="90.1" y="90.1" width="3.3" height="3.3"/>
	<rect x="99.7" y="90.1" width="3.3" height="3.3"/>
	<rect x="103" y="90.1" width="3.3" height="3.3"/>
	<rect x="25.7" y="93.3" width="3.3" height="3.3"/>
	<rect x="35.4" y="93.3" width="3.3" height="3.3"/>
	<rect x="38.6" y="93.3" width="3.3" height="3.3"/>
	<rect x="48.3" y="93.3" width="3.3" height="3.3"/>
	<rect x="51.5" y="93.3" width="3.3" height="3.3"/>
	<rect x="57.9" y="93.3" width="3.3" height="3.3"/>
	<rect x="61.1" y="93.3" width="3.3" height="3.3"/>
	<rect x="74" y="93.3" width="3.3" height="3.3"/>
	<rect x="77.2" y="93.3" width="3.3" height="3.3"/>
	<rect x="80.4" y="93.3" width="3.3" height="3.3"/>
	<rect x="90.1" y="93.3" width="3.3" height="3.3"/>
	<rect x="93.3" y="93.3" width="3.3" height="3.3"/>
	<rect x="99.7" y="93.3" width="3.3" height="3.3"/>
	<rect x="25.7" y="96.5" width="3.3" height="3.3"/>
	<rect x="38.6" y="96.5" width="3.3" height="3.3"/>
	<rect x="41.8" y="96.5" width="3.3" height="3.3"/>
	<rect x="48.3" y="96.5" width="3.3" height="3.3"/>
	<rect x="61.1" y="96.5" width="3.3" height="3.3"/>
	<rect x="64.4" y="96.5" width="3.3" height="3.3"/>
	<rect x="70.8" y="96.5" width="3.3" height="3.3"/>
	<rect x="77.2" y="96.5" width="3.3" height="3.3"/>
	<rect x="80.4" y="96.5" width="3.3" height="3.3"/>
	<rect x="83.7" y="96.5" width="3.3" height="3.3"/>
	<rect x="38.6" y="99.7" width="3.3" height="3.3"/>
	<rect x="48.3" y="99.7" width="3.3" height="3.3"/>
	<rect x="51.5" y="99.7" width="3.3" height="3.3"/>
	<rect x="54.7" y="99.7" width="3.3" height="3.3"/>
	<rect x="57.9" y="99.7" width="3.3" height="3.3"/>
	<rect x="61.1" y="99.7" width="3.3" height="3.3"/>
	<rect x="64.4" y="99.7" width="3.3" height="3.3"/>
	<rect x="67.6" y="99.7" width="3.3" height="3.3"/>
	<rect x="70.8" y="99.7" width="3.3" height="3.3"/>
	<rect x="86.9" y="99.7" width="3.3" height="3.3"/>
	<rect x="93.3" y="99.7" width="3.3" height="3.3"/>
	<rect x="29" y="103" width="3.3" height="3.3"/>
	<rect x="35.4" y="103" width="3.3" height="3.3"/>
	<rect x="38.6" y="103" width="3.3" height="3.3"/>
	<rect x="45" y="103" width="3.3" height="3.3"/>
	<rect x="48.3" y="103" width="3.3" height="3.3"/>
	<rect x="51.5" y="103" width="3.3" height="3.3"/>
	<rect x="61.1" y="103" width="3.3" height="3.3"/>
	<rect x="64.4" y="103" width="3.3" height="3.3"/>
	<rect x="70.8" y="103" width="3.3" height="3.3"/>
	<rect x="74" y="103" width="3.3" height="3.3"/>
	<rect x="77.2" y="103" width="3.3" height="3.3"/>
	<rect x="96.5" y="103" width="3.3" height="3.3"/>
	<rect x="99.7" y="103" width="3.3" height="3.3"/>
	<path d="M0,0v22.5h22.5V0H0L0,0z M19.3,19.3H3.2V3.2h16.1V19.3L19.3,19.3z"/>
	<path d="M83.7,0v22.5h22.5V0H83.7L83.7,0z M103,19.3H86.9V3.2H103V19.3L103,19.3z"/>
	<path d="M0,83.7v22.5h22.5V83.7H0L0,83.7z M19.3,103H3.2V86.9h16.1V103L19.3,103z"/>
	<rect x="6.4" y="6.4" width="9.7" height="9.7"/>
	<rect x="90.1" y="6.4" width="9.7" height="9.7"/>
	<rect x="6.4" y="90.1" width="9.7" height="9.7"/>
</g>
<g>
	<g>
		<path class="st0" d="M63.9,31.4H42.3c-6,0-10.9,4.9-10.9,10.9v21.6c0,6,4.9,10.9,10.9,10.9h21.6c6,0,10.9-4.9,10.9-10.9V42.3
			C74.8,36.3,69.9,31.4,63.9,31.4L63.9,31.4z"/>
		<path class="st1" d="M63.9,33.7c4.8,0,8.6,3.9,8.6,8.6v21.6c0,4.8-3.9,8.6-8.6,8.6H42.3c-4.8,0-8.6-3.9-8.6-8.6V42.3
			c0-4.8,3.9-8.6,8.6-8.6H63.9"/>
		<path class="st0" d="M50.7,57.3c-0.3,0.3-0.6,0.4-1.1,0.4H39.3c-0.2,0-0.3-0.1-0.4-0.2c-0.1-0.1-0.2-0.3-0.2-0.4V56
			c0-0.2,0-0.3,0.1-0.5c0.1-0.2,0.2-0.3,0.3-0.4l6.3-5.8h-6c-0.2,0-0.3-0.1-0.4-0.2c-0.1-0.1-0.1-0.3-0.1-0.4v-1.1
			c0-0.1,0-0.3,0.1-0.4c0.1-0.2,0.2-0.3,0.3-0.4l6.5-6.4c0.2-0.1,0.3-0.2,0.5-0.2h3.9c0.1,0,0.2,0.1,0.3,0.2c0,0.1,0,0.3,0,0.3
			l-6.4,6.2h5.7c0.1,0,0.3,0,0.4,0.2c0.1,0.1,0.2,0.2,0.2,0.3v1.2c0,0.2,0,0.3-0.1,0.5c0,0.2-0.1,0.3-0.3,0.4l-6.3,5.7h3.9v-2
			c0-0.1,0.1-0.3,0.2-0.4c0.1-0.1,0.3-0.2,0.5-0.2h2.5c0.1,0,0.3,0.1,0.4,0.2c0.1,0.1,0.2,0.3,0.2,0.4v2.9
			C51.1,56.7,51,57.1,50.7,57.3L50.7,57.3z M42,65.9c-0.1,0.1-0.2,0.1-0.3,0.1h-2.5c-0.1,0-0.2,0-0.3-0.1C39,65.8,39,65.7,39,65.6
			v-6.4c0-0.1,0-0.2,0.1-0.3c0.1-0.1,0.1-0.1,0.2-0.1h2.5c0.1,0,0.2,0,0.3,0.1c0.1,0.1,0.1,0.2,0.1,0.3v6.4
			C42.1,65.7,42.1,65.8,42,65.9L42,65.9z M46.6,65.9c-0.1,0.1-0.2,0.1-0.3,0.1h-2.5c-0.1,0-0.2,0-0.3-0.1c0-0.1-0.1-0.2-0.1-0.3
			v-6.4c0-0.1,0-0.2,0.1-0.3c0.1-0.1,0.1-0.1,0.2-0.1h2.5c0.1,0,0.2,0,0.3,0.1c0.1,0.1,0.1,0.2,0.1,0.3v6.4
			C46.7,65.7,46.6,65.8,46.6,65.9L46.6,65.9z M67.4,65.7c-0.1,0.1-0.2,0.1-0.3,0.1H50.7c-0.1,0-0.2,0-0.3-0.1
			c-0.1,0-0.1-0.1-0.1-0.2v-0.3h-1.9c-0.1,0-0.2,0-0.3-0.1c-0.1-0.1-0.1-0.2-0.1-0.3v-5.6c0-0.1,0-0.2,0.1-0.3
			c0.1-0.1,0.1-0.1,0.2-0.1h2.5c0.1,0,0.2,0,0.3,0.1C51,59,51,59.1,51,59.2v4.3h5.7V43.3h-4.8c-0.1,0-0.2,0-0.3-0.1
			c-0.1-0.1-0.1-0.1-0.1-0.2v-1.8c0-0.1,0-0.2,0.1-0.2c0.1,0,0.2-0.1,0.3-0.1h14.6c0.3,0,0.4,0.1,0.4,0.3v1.7c0,0.1,0,0.2-0.1,0.2
			c-0.1,0.1-0.2,0.1-0.3,0.1h-5.4v20.2h6.1c0.1,0,0.2,0,0.3,0.1c0.1,0.1,0.1,0.1,0.1,0.2v1.7C67.5,65.6,67.5,65.7,67.4,65.7
			L67.4,65.7z"/>
	</g>
</g>
</svg>
