<?xml version="1.0" encoding="utf-8"?>
<!-- Generator: Adobe Illustrator 26.3.1, SVG Export Plug-In . SVG Version: 6.00 Build 0)  -->
<svg version="1.1" id="圖層_1" xmlns="http://www.w3.org/2000/svg" xmlns:xlink="http://www.w3.org/1999/xlink" x="0px" y="0px"
	 viewBox="0 0 35.4 35.3" style="enable-background:new 0 0 35.4 35.3;" xml:space="preserve">
<style type="text/css">
	.st0{fill:none;}
	.st1{fill:#FFFFFF;}
</style>
<g>
	<path class="st0" d="M24.3,13.7C24.3,7.8,19.5,3,13.7,3S3,7.8,3,13.7c0,5.9,4.8,10.7,10.7,10.7S24.3,19.5,24.3,13.7z"/>
	<path class="st1" d="M35.4,32.8L24.5,21.9c1.8-2.3,2.8-5.2,2.8-8.3C27.3,6.1,21.2,0,13.7,0C6.1,0,0,6.1,0,13.7
		c0,7.5,6.1,13.7,13.7,13.7c3.2,0,6.1-1.1,8.4-2.9L33,35.3L35.4,32.8z M3,13.7C3,7.8,7.8,3,13.7,3s10.7,4.8,10.7,10.7
		c0,5.9-4.8,10.7-10.7,10.7S3,19.5,3,13.7z"/>
</g>
</svg>
