<?xml version="1.0" encoding="utf-8"?>
<!-- Generator: Adobe Illustrator 26.3.1, SVG Export Plug-In . SVG Version: 6.00 Build 0)  -->
<svg version="1.1" id="圖層_1" xmlns="http://www.w3.org/2000/svg" xmlns:xlink="http://www.w3.org/1999/xlink" x="0px" y="0px"
	 viewBox="0 0 22 26" style="enable-background:new 0 0 22 26;" xml:space="preserve">
<style type="text/css">
	.st0{fill-rule:evenodd;clip-rule:evenodd;fill:#888988;}
	.st1{fill:none;}
	.st2{fill:#888988;}
</style>
<g>
	<g>
		<g>
			<path class="st0" d="M6,22h2V8H6V22z M10,22h2V8h-2V22z M14,8v14h2V8H14z"/>
		</g>
	</g>
	<g>
		<path class="st1" d="M4,23c0,0.6,0.4,1,1,1h12c0.6,0,1-0.4,1-1V6H4V23z"/>
		<polygon class="st1" points="14,2 14,2 8,2 8,4 14,4 		"/>
		<path class="st2" d="M22,4h-6c0,0,0,0,0,0V2c0-1.1-0.9-2-2-2H8C6.9,0,6,0.9,6,2v2c0,0,0,0,0,0H0v2h2v17c0,1.7,1.3,3,3,3h12
			c1.7,0,3-1.3,3-3c0,0,0-12.1,0-17h2V4z M8,2h6v0v2H8V2z M18,23c0,0.6-0.4,1-1,1H5c-0.6,0-1-0.4-1-1V6h14V23z"/>
	</g>
</g>
</svg>
