<svg id="Capa_1" enable-background="new 0 0 512 512" height="512" viewBox="0 0 512 512" width="512" xmlns="http://www.w3.org/2000/svg"><g><path d="m483.485 61.7c-3.962-9.531 6.151-28.76-1.04-35.951s-26.42 2.922-35.952-1.04c-9.205-3.827-15.549-24.709-26.124-24.709-5.001 0-9.056 4.672-12.915 10 28.944 14.961 48.731 45.166 48.731 79.995 0 33.881-18.725 63.383-46.388 78.737 3.174 3.925 6.57 6.918 10.572 6.918 10.575 0 16.919-20.883 26.125-24.709 9.531-3.962 28.76 6.151 35.951-1.04s-2.922-26.42 1.04-35.951c3.827-9.206 24.709-15.55 24.709-26.125s-20.882-16.919-24.709-26.125z" fill="#f4dd46"/><g><path d="m156.513 380.34c-1.806 0-3.572.533-5.068 1.544-9.173 6.2-20.223 9.811-32.123 9.811-27.999 0-51.312-20.015-56.443-46.514-.139-.741-.722-1.297-1.454-1.426-32.686-5.354-57.619-33.723-57.619-67.919 0-26.48 14.949-49.459 36.872-60.972.787-.417 1.148-1.325.861-2.158-1.593-4.686-2.612-9.642-2.945-14.782-2.204-33.816 25.767-62.546 59.629-61.241 11.519.445 22.156 4.279 30.969 10.531 1.227.871 2.918.171 3.179-1.311 4.937-27.977 29.688-48.611 57.981-48.121 27.55.481 51.156 20.869 55.962 48.116.262 1.484 1.953 2.185 3.182 1.313 8.806-6.251 19.449-10.084 30.958-10.528 33.862-1.306 61.843 27.425 59.638 61.241-.333 5.141-1.352 10.096-2.945 14.782-.287.834.074 1.741.861 2.158 21.923 11.513 36.872 34.492 36.872 60.972 0 34.195-24.933 62.565-57.619 67.919-.732.13-1.315.685-1.454 1.426-5.131 26.499-28.444 46.514-56.443 46.514-6.28 0-12.328-1.009-17.987-2.871-5.928-1.951-10.64-4.577-14.092-6.907-1.517-1.024-3.296-1.577-5.126-1.577z" fill="#b3e59f"/><g><path d="m338.008 214.864c-.787-.417-1.149-1.325-.861-2.158 1.593-4.686 2.612-9.642 2.945-14.782 2.204-33.816-25.777-62.546-59.639-61.241-4.51.174-8.884.876-13.069 2.032 25.482 7.065 44.073 31.411 42.262 59.209-.334 5.141-1.353 10.096-2.945 14.782-.287.834.074 1.741.861 2.158 15.97 8.386 28.239 22.857 33.725 40.333.13.415 4.285 9.784 3.148 20.639-2.491 23.758-28.369 37.982-39.432 43.016-1.806.822-4.343 3.288-7.033 6.891-7.013 9.395-6.762 20.102-7.016 23.545-.702 9.505-9.647 23.056-46.795 40.363 2.206.604 5.03 1.237 8.352 1.635 2.247.27 4.534.409 6.854.409 27.999 0 51.312-20.015 56.443-46.514.139-.741.723-1.297 1.454-1.426 32.685-5.354 57.619-33.723 57.619-67.919-.001-26.48-14.95-49.459-36.873-60.972z" fill="#95d6a4"/></g></g><g><path d="m420.369 175.65c-10.575 0-16.919-20.883-26.125-24.709-9.531-3.962-28.76 6.151-35.951-1.04s2.922-26.42-1.04-35.951c-3.826-9.206-24.709-15.55-24.709-26.125s20.883-16.919 24.709-26.125c3.962-9.531-6.151-28.76 1.04-35.951s26.419 2.922 35.951-1.04c9.206-3.827 15.551-24.709 26.125-24.709 10.575 0 16.919 20.882 26.125 24.709 9.531 3.962 28.76-6.151 35.951 1.04s-2.922 26.42 1.04 35.951c3.827 9.206 24.709 15.55 24.709 26.125s-20.883 16.919-24.709 26.125c-3.962 9.531 6.151 28.76-1.04 35.951s-26.419-2.922-35.951 1.04c-9.205 3.826-15.55 24.709-26.125 24.709z" fill="#f7e782"/><ellipse cx="420.369" cy="87.825" fill="#ecb780" rx="34.154" ry="34.154" transform="matrix(.16 -.987 .987 .16 266.343 488.698)"/></g><path d="m159.469 249.044c2.674-3.084 7.574-2.727 9.748.728 2.229 3.543 4.43 7.409 6.52 11.607 6.229 12.51 9.747 24.495 11.735 34.821.418 2.169 3.501 2.184 3.971.026 2.12-9.737 5.857-21.166 12.507-32.937 2.409-4.264 4.939-8.112 7.471-11.563 2.291-3.123 6.895-3.302 9.458-.397l16.192 18.351c1.546 1.752 1.957 4.229 1.05 6.382-8.952 21.238-32.174 86.099-4.904 156.754 13.217 34.245 33.616 57.727 48.072 71.574h-183.891c14.456-13.846 34.855-37.329 48.072-71.574 27.284-70.692 4.024-135.584-4.918-156.788-.9-2.135-.503-4.592 1.015-6.343z" fill="#ce9775"/><g><path d="m233.216 432.815c-27.27-70.655-4.048-135.517 4.903-156.755.907-2.153.496-4.63-1.05-6.382l-16.191-18.351c-2.563-2.905-7.167-2.726-9.458.397-2.532 3.452-5.062 7.3-7.471 11.563-.39.691-.769 1.38-1.139 2.069l.044.049c3.802 4.309 4.851 10.38 2.756 15.732-9.887 25.252-28.205 85.958-2.84 151.677 13.217 34.245 33.616 57.727 48.072 71.574h30.446c-14.456-13.846-34.855-37.329-48.072-71.573z" fill="#c6855b"/></g><g><path d="m329.216 512h-283.439c-4.204 0-7.611-3.407-7.611-7.612 0-4.204 3.407-7.611 7.611-7.611h283.439c4.204 0 7.612 3.407 7.612 7.611 0 4.205-3.408 7.612-7.612 7.612z" fill="#c6855b"/></g></g></svg>