<?xml version="1.0" encoding="utf-8"?>
<!-- Generator: Adobe Illustrator 26.3.1, SVG Export Plug-In . SVG Version: 6.00 Build 0)  -->
<svg version="1.1" id="圖層_1" xmlns="http://www.w3.org/2000/svg" xmlns:xlink="http://www.w3.org/1999/xlink" x="0px" y="0px"
	 viewBox="0 0 484.4 51.5" style="enable-background:new 0 0 484.4 51.5;" xml:space="preserve">
<style type="text/css">
	.st0{fill:#FFFFFF;}
	.st1{fill:#FFEE00;}
</style>
<g>
	<g>
		<g>
			<path class="st0" d="M138.3,8.8c1.1,0,2-0.4,2.8-1.1c0.8-0.8,1.2-1.7,1.2-2.8s-0.4-2-1.2-2.8s-1.7-1.2-2.8-1.2s-2,0.4-2.8,1.2
				s-1.2,1.7-1.2,2.8s0.4,2,1.2,2.8C136.3,8.4,137.3,8.8,138.3,8.8z M108,1c-7.8,0-12,4-12.3,11.5v0.9l-1.1,0.1
				c-0.7,0.1-1.4,0.4-2,1c-0.6,0.7-1,1.5-1,2.5s0.3,1.8,0.9,2.5c0.6,0.6,1.2,0.9,2,1l1.1,0.1v20h7v-20h5c0.8,0,1.6-0.4,2.2-1
				c0.6-0.7,0.9-1.5,0.9-2.5s-0.3-1.8-0.9-2.5s-1.4-1-2.2-1h-5v-1c0-2.6,0.8-4.2,4.9-4.4c1.5-0.1,2.7-0.6,3.4-1.5
				c0.6-0.7,0.7-1.7,0.5-2.8C111.2,2.5,110.1,1,108,1z M226.4,12.4c-0.5-0.2-1.1-0.3-1.6-0.3c-1,0-2.2,0.3-2.8,1.9l-5.8,13.6
				L210.6,14c-0.7-1.7-2.4-1.9-3.1-1.9c-0.5,0-1,0.1-1.5,0.3c-0.6,0.2-1.6,1-2,2.1c-0.3,0.7-0.3,1.5,0,2.2l8.3,20.1l-6.2,14.7h7.6
				l14.6-34.7c0.3-0.7,0.3-1.6,0-2.4C228.2,13.7,227.6,12.9,226.4,12.4z M189.7,12.2c-3.9,0-7.2,1.4-10,4.1c-0.8,0.8-1.4,1.6-2,2.5
				c-0.2-1.2-0.4-2.5-0.8-3.7l-1.1-3.5c-0.5-1.5-1.3-2.2-2.6-2.2c-0.5,0-1,0.1-1.5,0.3L141.8,20v-7.6h-7v25.1c0,0.9,0.4,1.6,1,2.2
				c0.7,0.6,1.5,0.9,2.5,0.9c0.9,0,1.8-0.3,2.5-0.9c0.7-0.6,1-1.4,1-2.2V31c2.7,4.9,6.5,7.3,9.4,8.4c2.3,0.9,4.9,1.4,7.5,1.4
				c2.2,0,4.3-0.4,6.2-1c5.1-1.8,8.9-5.5,11-10c0.6,2.4,1.8,4.6,3.7,6.4c2.7,2.7,6.1,4.1,10,4.1c3.5,0,5.5-1.1,6.5-1.8l0.5-0.4
				l0.1,2.3h7V26.2c0-3.9-1.4-7.2-4.1-10C196.9,13.5,193.5,12.2,189.7,12.2z M170.6,25.2c-1,4.1-3.6,6.8-7.8,8.3
				c-1.3,0.4-2.7,0.7-4.2,0.7c-1.6,0-3.3-0.3-4.7-0.9c-2.3-0.9-5.4-2.9-7-7.5l-0.2-0.4l23.7-8.2l0.2,0.4
				C170.8,18.5,171.4,21.7,170.6,25.2z M196.2,29c-0.4,0.9-0.9,1.6-1.5,2.3c-0.6,0.6-1.4,1.2-2.2,1.5c-0.9,0.4-1.8,0.6-2.7,0.6
				c-1,0-1.9-0.2-2.8-0.6c-0.9-0.4-1.6-0.9-2.2-1.5c-0.6-0.6-1.1-1.4-1.5-2.3s-0.6-1.8-0.6-2.7c0-1,0.2-1.9,0.5-2.7
				c0.4-0.9,0.9-1.6,1.5-2.3c0.6-0.6,1.4-1.1,2.2-1.5c0.9-0.4,1.8-0.6,2.8-0.6s1.9,0.2,2.7,0.6c0.9,0.4,1.6,0.9,2.3,1.5
				c0.7,0.7,1.1,1.4,1.5,2.3s0.5,1.7,0.5,2.7C196.7,27.2,196.6,28.1,196.2,29z M128.6,12.2H128c-4.2,0-7,2.6-7,2.6l-0.6,0.5v-2.8h-7
				v25.2c0,0.8,0.4,1.6,1,2.2c0.7,0.6,1.5,0.9,2.5,0.9s1.8-0.3,2.5-0.9c0.7-0.6,1-1.4,1-2.2V26.4c0-4.2,4.6-6.5,6.7-6.9
				c0.4-0.1,0.8-0.1,1.3-0.1c0.4,0,0.8,0,1.2-0.1c1.4-0.2,3.5-1.5,3.1-4.1C132.4,13.3,130.9,12.2,128.6,12.2z M34.1,23.6
				c-1.1,1.1-2.7,2.5-4.6,3.9c-1.4-1-2.7-1.7-4-2.4l-2,2.9c3,1.5,6.6,4,10.8,7.5l2.1-2.8l-4.1-3.2c1.5-1.2,2.9-2.3,3.9-3.4
				L34.1,23.6z M9.9,6.2c-2.5-2-4.7-3.4-6.7-4.4L1.3,5c1.8,0.8,3.9,2.2,6.5,4.2L9.9,6.2z M18.5,28.3l0.2-0.1v7.1H22V26l3.5-2.9h10.4
				c0.3,0,0.5-0.2,0.5-0.5v-7.8c0-0.3-0.2-0.4-0.5-0.4h-23c-0.3,0-0.4,0.1-0.4,0.4v7.8c0,0.3,0.1,0.5,0.4,0.5h7.5
				c-3.1,2.2-6.5,3.8-10,4.9l1.8,3.3C13.9,30.7,16.1,29.7,18.5,28.3z M15.8,20.3l-0.1-0.2v-2.6c0-0.1,0-0.1,0.1-0.1h17.1l0.2,0.1
				v2.6l-0.2,0.2H15.8z M37.9,9.2H25.8V6.9h10.5V3.8H25.8V1h-3.4v2.8H12v3.1h10.4v2.3H10.7v3.3H38L37.9,9.2L37.9,9.2z M8.9,14.3
				c-2.5-2.1-4.8-3.7-6.8-4.7l-1.9,3c1.8,1,3.9,2.5,6.6,4.6L8.9,14.3z M14.6,35.9c-1.9-0.4-3.4-1.4-4.3-2.7c-0.8-1-1.2-1.9-1.4-2.7
				v-10c0-0.6-0.3-0.9-0.9-0.9H0.8v3.6h4.1c0.3,0,0.5,0.2,0.5,0.5v7.9c-0.2,0.9-0.5,1.7-0.9,2.4c-0.8,1-2.3,2-4.5,3.1l1.9,3.2
				c1.2-0.5,2.3-1.4,3.5-2.6c1.1-1.2,1.8-2.3,2.1-3.1c1.7,3.1,5.2,4.9,10.4,5.2L38,39.7l0.9-4C24.9,36.4,16.8,36.5,14.6,35.9z
				 M62.5,33L60,35.3c1.2,1.1,2.6,2.5,4,4l2.7-2.1C65.5,35.8,64.1,34.4,62.5,33z M79.9,26.6l1.2,1.7l2.7-1.8l-3.3-4.8h0.4
				c0.6,0,0.8-0.3,0.8-0.8V9.5c0-0.5-0.3-0.8-0.8-0.8h-11V6.5h12.5V3.3H69.8V1.2h-3.4v2.1H55.2v3.3h11.2v2.2H56
				c-0.5,0-0.8,0.3-0.8,0.8v11.3c0,0.5,0.3,0.8,0.8,0.8h10.4v2.4l-12.2,0.5l0.4,3.3l20-1v2.5H54.2v3.3h20.5v2.8
				c0,0.5-0.1,0.9-0.3,1.1c-0.6,0.5-2.3,0.3-5-0.4v3.6c3.4,0.8,5.7,0.8,7,0c1.1-0.8,1.8-1.9,1.8-3.5v-3.7h4.7v-3.3h-4.7v-2.7
				L79.9,26.6z M66.4,18.8h-7.7c-0.1,0-0.1-0.1-0.1-0.2v-2.1h7.8V18.8z M66.4,13.8h-7.8v-1.9c0-0.1,0-0.2,0.1-0.2h7.7V13.8z
				 M69.8,11.6h8.3c0.1,0,0.2,0,0.2,0.2v1.9h-8.5V11.6z M77.8,23.6l-8,0.4v-2.2H78l-1,0.8L77.8,23.6z M69.8,18.8v-2.3h8.5v2.1
				l-0.2,0.2C78.1,18.8,69.8,18.8,69.8,18.8z M44,19.5l3.5,1.3l1.1-1.7v21.5H52V10.9c0.8-2.7,1.4-5.8,2-9.3l-3.6-0.4
				C49.8,7.8,47.7,13.8,44,19.5z M238,30h9.8c0.3,0,0.5-0.2,0.5-0.5V2.7c0-0.3-0.2-0.5-0.5-0.5H238c-0.3,0-0.5,0.2-0.5,0.5v26.8
				C237.5,29.8,237.7,30,238,30z M240.8,5.7l0.1-0.1h3.9l0.2,0.1v4.7h-4.2V5.7z M240.8,13.7h4.2v4.9h-4.2V13.7z M240.8,21.8h4.2v4.7
				c0,0.1,0,0.2-0.2,0.2h-3.9l-0.1-0.2V21.8z M243.6,32.7c0.8,1.5,1.6,3.7,2.4,6.5l3-1c-0.7-2.7-1.5-4.9-2.5-6.7L243.6,32.7z
				 M236.5,39.3l3.1,1.1c1.3-3.1,2.1-5.9,2.6-8.3l-3.2-0.9C238.6,33.3,237.8,36,236.5,39.3z M269.8,12h4.8V9.1h-4.8V6.9h5.7v-3h-5.7
				V1h-3.3v2.9h-7V1.2h-3.3v2.7h-5.9v2.9h5.9V9h-4.8v3h4.8v2.4h-6.3v2.9h11.2v2.4h-8.7c-0.5,0-0.8,0.3-0.8,0.8v11.1h-2.3v2.9h2.3
				v5.8h3.3v-5.8h15.8v0.9c0,0.6-0.3,1.1-0.9,1.5s-2.1,0.3-4.6-0.3l0.1,3.6c3.4,0.6,5.7,0.5,7.1-0.4c1.1-0.7,1.6-1.7,1.6-3v-2.3h2
				v-2.9h-2V20.5c0-0.5-0.3-0.8-0.8-0.8h-8.9v-2.4h11.6v-2.9h-6.3V12H269.8z M261.2,31.5H255v-2.9h6.2V31.5z M261.2,25.7H255v-2.8
				c0-0.2,0.1-0.3,0.3-0.3h6v3.1H261.2z M270.8,31.5h-6.3v-2.9h6.3V31.5z M270.5,22.6c0.2,0,0.3,0.1,0.3,0.3v2.8h-6.3v-3.1
				C264.5,22.6,270.5,22.6,270.5,22.6z M266.5,14.4h-7V12h7V14.4z M266.5,9.1h-7V6.9h7V9.1z M295.8,20.8l-3.3,2V12.5h3.7V8.9h-3.7V1
				h-3.6v7.9h-2.5l0.2-4.2V2.5h-3.4v2.2c0,5.5-0.7,10.4-2,14.8l3.5,0.5c0.4-1.3,0.9-3.9,1.4-7.5h2.8v12.1c-2,0.9-4.5,1.9-7.6,3
				l2,3.3l5.7-2.4v12h3.6V26.8c2-1,3.8-2,5.4-3L295.8,20.8z M319.9,6.2L319.2,6h-16.3l0.9-4.4l-3.6-0.5c-0.7,5.7-2.7,11-6,16
				l3.5,1.4c1.5-2.3,2.9-5.2,4.2-8.9h3c-0.4,4-1.2,7.2-2.2,9.4c-1.6,3.2-4.4,6.9-8.5,11l3.1,2c5.6-5.8,9.2-11.7,10.4-17.4l0.7-5h2.6
				c-0.3,12.8-4.9,21.7-13.6,26.8l2.9,2.6c4.6-3.3,8.1-7.4,10.5-12.3c2.4-5.8,3.7-11.5,3.8-17.2h1.7c0.2,0,0.4,0.1,0.5,0.3
				c0.3,0.4,0.3,5.1,0,14.2c-0.1,3.9-0.4,6.8-0.9,8.5c-0.6,1.6-1.2,2.7-2,3.2c-1,0.8-3.5,0.5-7.4-0.9l0.1,4.2
				c4.6,1.3,7.8,1.4,9.4,0.2c2.7-1.8,4.2-6.8,4.4-14.8l0.2-16.6C320.6,7.1,320.3,6.4,319.9,6.2z"/>
		</g>
	</g>
	<g>
		<path class="st0" d="M342.2,8.1c-0.4-0.4-0.5-0.8-0.5-1c0.1-0.4,0.5-0.7,1.2-0.8c0.6-0.1,1.1,0,1.5,0.4c0.3,0.3,0.6,0.6,0.9,0.9
			l13.2,13.5l13.2-13.5c0.3-0.3,0.6-0.7,0.9-1c0.4-0.3,0.8-0.4,1.3-0.3c0.7,0.1,1.1,0.3,1.2,0.5c0.2,0.4,0,0.9-0.4,1.3L360.3,23
			l14.5,14.8c0.4,0.4,0.5,0.8,0.4,1.1c-0.2,0.5-0.7,0.7-1.5,0.7c-0.3,0-0.6-0.1-0.9-0.3c-0.4-0.2-0.7-0.6-1.1-1l-13.2-13.5
			l-13.2,13.5c-0.3,0.3-0.6,0.6-0.9,0.9c-0.4,0.4-1,0.5-1.6,0.4c-0.5-0.2-0.8-0.4-0.9-0.7c-0.2-0.4,0-0.7,0.4-1.1L356.7,23
			L342.2,8.1z"/>
	</g>
	<g>
		<g>
			<path class="st1" d="M481.2,21.5c-0.2-0.3-0.4-0.4-0.6-0.4h-4.5c-0.2,0-0.3,0.1-0.4,0.2s-0.1,0.3,0,0.4l1,1.3h-2.6v-2.7h5.6
				c0.7,0,1.2-0.2,1.7-0.7c0.5-0.4,0.7-1,0.7-1.8v-7.3c0-0.8-0.2-1.4-0.7-1.9c-0.5-0.6-1.2-0.9-2-0.9H474V5.3h8.2
				c0.2,0,0.3-0.1,0.4-0.2C483,5,483,4.9,483,4.7V3c0-0.2-0.1-0.3-0.2-0.4c-0.2-0.1-0.3-0.1-0.5-0.1h-8.1V0.6c0-0.2,0-0.3-0.1-0.4
				C474,0.1,473.9,0,473.7,0H469c-0.2,0-0.3,0.1-0.4,0.2s-0.1,0.2-0.1,0.4v1.9H460c-0.3,0-0.5,0.2-0.5,0.5v1.9
				c0,0.1,0.1,0.2,0.2,0.3c0.1,0.1,0.3,0.1,0.4,0.1h8.5v2.5h-5.4c-0.4,0-0.7,0.1-1,0.3c-0.3,0.2-0.6,0.4-0.9,0.6
				c-0.5,0.4-0.8,1-0.8,1.6v7.8c0,0.8,0.3,1.4,0.9,1.8c0.5,0.3,1,0.5,1.5,0.5h5.7V23h-8.4c-0.3,0-0.5,0.2-0.5,0.5v1.9
				c0,0.1,0.1,0.2,0.2,0.3c0.1,0.1,0.3,0.1,0.4,0.1H476c0.2,0,0.3,0,0.5-0.1s0.3-0.2,0.5-0.4l0.8-1.2l1.1,1.4
				c0.1,0.1,0.2,0.2,0.5,0.3c0.2,0.1,0.5,0.1,0.6,0.1h4c0.1,0,0.2-0.1,0.3-0.2c0.1-0.1,0.1-0.3-0.1-0.4L481.2,21.5z M474.2,10.6h2.8
				v2h-2.8V10.6z M474.2,15.5h2.8v2h-2.8V15.5z M468.5,17.4h-2.8v-2h2.8V17.4z M468.5,12.6h-2.7v-2h2.8L468.5,12.6z M482.8,29.1
				c-0.1-0.1-0.3-0.1-0.5-0.1h-2.7v-1.7c0-0.2-0.1-0.3-0.2-0.5s-0.3-0.2-0.5-0.2h-4.3c-0.2,0-0.4,0.1-0.6,0.2s-0.2,0.3-0.2,0.5V29
				H460c-0.3,0-0.5,0.2-0.5,0.5v1.9c0,0.1,0.1,0.2,0.2,0.3c0.1,0.1,0.3,0.1,0.4,0.1h13.8v5.5h-2.4c-0.1,0-0.2,0.1-0.3,0.2
				c-0.1,0.2-0.1,0.3,0,0.3l0.9,2c0.1,0.2,0.2,0.3,0.5,0.3h4.2c0.3,0,0.7-0.1,1-0.3s0.6-0.4,0.9-0.6c0.6-0.6,0.9-1.3,0.9-2v-5.5h2.7
				c0.2,0,0.3-0.1,0.4-0.2s0.2-0.3,0.2-0.5v-1.7C483,29.3,482.9,29.2,482.8,29.1z M467.3,33c-0.2-0.3-0.4-0.4-0.6-0.4h-5.5
				c-0.1,0-0.2,0.1-0.3,0.2c-0.1,0.1-0.1,0.3,0,0.4l3.1,4.7c0.1,0.1,0.2,0.2,0.5,0.3c0.2,0.1,0.5,0.1,0.6,0.1h5.2
				c0.1,0,0.2-0.1,0.2-0.2c0-0.1,0-0.3-0.1-0.4L467.3,33z M440.2,16.9c0,2.4,0.5,3.7,1.8,5.5l3.4-2.3c-0.2-0.2-1.1-1.5-1.1-3.2
				c-0.1-2.6,1.8-4.7,4.2-5.2v2.7l6.9-4.8l-6.3-4.3h8.7c0.2,0,0.3-0.1,0.4-0.2s0.2-0.3,0.2-0.5V3c0-0.2-0.1-0.3-0.2-0.4
				c-0.1-0.1-0.3-0.1-0.5-0.1h-5.1V0.6c0-0.2-0.1-0.3-0.2-0.4S452.2,0,452,0h-4.5c-0.1,0-0.3,0.1-0.4,0.2s-0.2,0.3-0.2,0.4v1.9h-5.8
				c-0.2,0-0.3,0.1-0.4,0.2c-0.1,0.1-0.2,0.2-0.2,0.4v1.7c0,0.2,0.1,0.3,0.2,0.4s0.3,0.2,0.4,0.2h7.1v2.3
				C443.8,8.1,440.2,12.1,440.2,16.9z M458.9,16.9c0-2.5-0.7-4-1.8-5.5l-3.4,2.3c0.7,0.9,1.1,1.8,1.1,3.2c0,2.6-1.8,4.7-4.2,5.2
				v-2.7l-6.9,4.8l6.9,4.7h-9.4c-0.2,0-0.3,0.1-0.4,0.2s-0.2,0.2-0.2,0.4v1.8c0,0.2,0.1,0.3,0.2,0.4s0.3,0.2,0.4,0.2h5.9v7.7
				c0,0.2,0.1,0.3,0.2,0.4c0.1,0.1,0.3,0.2,0.4,0.2h4.3c0.4,0,0.6-0.2,0.6-0.7v-7.6h5.2c0.2,0,0.3-0.1,0.4-0.2s0.2-0.3,0.2-0.5v-1.7
				c0-0.2-0.1-0.3-0.2-0.4s-0.3-0.1-0.5-0.1h-7.2v-2.7C455.3,25.7,458.9,21.7,458.9,16.9z M436.4,29.1c-0.1-0.1-0.3-0.1-0.5-0.1
				h-2.7v-1.7c0-0.2-0.1-0.3-0.2-0.5s-0.3-0.2-0.5-0.2h-4.3c-0.2,0-0.4,0.1-0.6,0.2s-0.2,0.3-0.2,0.5V29h-13.9
				c-0.3,0-0.5,0.2-0.5,0.5v1.9c0,0.1,0.1,0.2,0.2,0.3c0.1,0.1,0.3,0.1,0.4,0.1h13.8v5.5H425c-0.1,0-0.2,0.1-0.3,0.2
				c-0.1,0.2-0.1,0.3,0,0.3l0.9,2c0.1,0.2,0.2,0.3,0.5,0.3h4.2c0.3,0,0.7-0.1,1-0.3s0.6-0.4,0.9-0.6c0.6-0.6,0.9-1.3,0.9-2v-5.5h2.7
				c0.2,0,0.3-0.1,0.4-0.2s0.2-0.3,0.2-0.5v-1.7C436.7,29.3,436.6,29.2,436.4,29.1z M421,33c-0.2-0.3-0.4-0.4-0.6-0.4h-5.5
				c-0.1,0-0.2,0.1-0.3,0.2c-0.1,0.1-0.1,0.3,0,0.4l3.1,4.7c0.1,0.1,0.2,0.2,0.5,0.3c0.2,0.1,0.5,0.1,0.6,0.1h5.2
				c0.1,0,0.2-0.1,0.2-0.2c0-0.1,0-0.3-0.1-0.4L421,33z M434.9,21.5c-0.2-0.3-0.4-0.4-0.6-0.4h-4.5c-0.2,0-0.3,0.1-0.4,0.2
				s-0.1,0.3,0,0.4l1,1.3h-2.6v-2.7h5.6c0.7,0,1.2-0.2,1.7-0.7c0.5-0.4,0.7-1,0.7-1.8v-7.3c0-0.8-0.2-1.4-0.7-1.9
				c-0.5-0.6-1.2-0.9-2-0.9h-5.4V5.3h8.2c0.2,0,0.3-0.1,0.4-0.2s0.2-0.3,0.2-0.5V3c0-0.2-0.1-0.3-0.2-0.4c-0.2-0.1-0.3-0.1-0.5-0.1
				h-8.1V0.6c0-0.2,0-0.3-0.1-0.4S427.4,0,427.3,0h-4.7c-0.2,0-0.3,0.1-0.4,0.2s-0.1,0.2-0.1,0.4v1.9h-8.5c-0.3,0-0.5,0.2-0.5,0.5
				v1.9c0,0.1,0.1,0.2,0.2,0.3c0.1,0.1,0.3,0.1,0.4,0.1h8.5v2.5h-5.4c-0.4,0-0.7,0.1-1,0.3c-0.3,0.2-0.6,0.4-0.9,0.6
				c-0.5,0.4-0.8,1-0.8,1.6v7.8c0,0.8,0.3,1.4,0.9,1.8c0.5,0.3,1,0.5,1.5,0.5h5.7V23h-8.4c-0.3,0-0.5,0.2-0.5,0.5v1.9
				c0,0.1,0.1,0.2,0.2,0.3c0.1,0.1,0.3,0.1,0.4,0.1h15.7c0.2,0,0.3,0,0.5-0.1s0.3-0.2,0.5-0.4l0.8-1.2l1.1,1.4
				c0.1,0.1,0.2,0.2,0.5,0.3c0.2,0.1,0.5,0.1,0.6,0.1h4c0.1,0,0.2-0.1,0.3-0.2c0.1-0.1,0.1-0.3-0.1-0.4L434.9,21.5z M427.9,10.6h2.8
				v2h-2.8V10.6z M427.9,15.5h2.8v2h-2.8V15.5z M422.2,17.4h-2.8v-2h2.8V17.4z M422.1,12.6h-2.7v-2h2.8L422.1,12.6z M393.8,16.9
				c0,2.4,0.5,3.7,1.8,5.5l3.4-2.3c-0.2-0.2-1.1-1.5-1.1-3.2c-0.1-2.6,1.8-4.7,4.2-5.2v2.7l6.9-4.8l-6.3-4.3h8.7
				c0.2,0,0.3-0.1,0.4-0.2s0.2-0.3,0.2-0.5V3c0-0.2-0.1-0.3-0.2-0.4c-0.1-0.1-0.3-0.1-0.5-0.1h-5.1V0.6c0-0.2-0.1-0.3-0.2-0.4
				c0.1-0.1,0-0.2-0.2-0.2h-4.5c-0.1,0-0.3,0.1-0.4,0.2s-0.2,0.3-0.2,0.4v1.9H395c-0.2,0-0.3,0.1-0.4,0.2c-0.1,0.1-0.2,0.2-0.2,0.4
				v1.7c0,0.2,0.1,0.3,0.2,0.4s0.3,0.2,0.4,0.2h7.1v2.3C397.5,8.1,393.8,12.1,393.8,16.9z M412.6,16.9c0-2.5-0.7-4-1.8-5.5l-3.4,2.3
				c0.7,0.9,1.1,1.8,1.1,3.2c0,2.6-1.8,4.7-4.2,5.2v-2.7l-6.9,4.8l6.9,4.7h-9.4c-0.2,0-0.3,0.1-0.4,0.2s-0.2,0.2-0.2,0.4v1.8
				c0,0.2,0.1,0.3,0.2,0.4s0.3,0.2,0.4,0.2h5.9v7.7c0,0.2,0.1,0.3,0.2,0.4c0.1,0.1,0.3,0.2,0.4,0.2h4.3c0.4,0,0.6-0.2,0.6-0.7v-7.6
				h5.2c0.2,0,0.3-0.1,0.4-0.2s0.2-0.3,0.2-0.5v-1.7c0-0.2-0.1-0.3-0.2-0.4s-0.3-0.1-0.5-0.1h-7.2v-2.7
				C408.9,25.7,412.6,21.7,412.6,16.9z"/>
		</g>
	</g>
</g>
</svg>
