<?xml version="1.0" encoding="utf-8"?>
<!-- Generator: Adobe Illustrator 26.3.1, SVG Export Plug-In . SVG Version: 6.00 Build 0)  -->
<svg version="1.1" id="圖層_1" xmlns="http://www.w3.org/2000/svg" xmlns:xlink="http://www.w3.org/1999/xlink" x="0px" y="0px"
	 viewBox="0 0 278.2 112.4" style="enable-background:new 0 0 278.2 112.4;" xml:space="preserve">
<style type="text/css">
	.st0{fill:#FFFFFF;}
	.st1{fill:#FFF000;}
</style>
<g>
	<g>
		<g>
			<g>
				<path class="st0" d="M128.8,3.7c0.5,0,0.9-0.2,1.3-0.5c0.4-0.4,0.5-0.8,0.5-1.3c0-0.5-0.2-1-0.5-1.3c-0.4-0.4-0.8-0.5-1.3-0.5
					c-0.5,0-1,0.2-1.3,0.5c-0.4,0.4-0.5,0.8-0.5,1.3c0,0.5,0.2,1,0.5,1.3C127.9,3.5,128.3,3.7,128.8,3.7z M114.6,0.1
					c-3.6,0-5.6,1.9-5.8,5.4l0,0.4l-0.5,0c-0.3,0-0.7,0.2-0.9,0.5C107.1,6.6,107,7,107,7.5c0,0.5,0.2,0.9,0.4,1.2
					c0.3,0.3,0.6,0.4,0.9,0.5l0.5,0v9.4h3.3V9.2h2.3c0.4,0,0.7-0.2,1-0.5c0.3-0.3,0.4-0.7,0.4-1.2c0-0.4-0.1-0.8-0.4-1.2
					c-0.3-0.3-0.6-0.5-1-0.5h-2.3V5.4c0-1.2,0.4-2,2.3-2.1c0.7,0,1.3-0.3,1.6-0.7c0.3-0.3,0.3-0.8,0.2-1.3
					C116.2,0.7,115.7,0.1,114.6,0.1z M170.1,5.4c-0.2-0.1-0.5-0.1-0.8-0.1c-0.4,0-1,0.1-1.3,0.9l-2.7,6.4l-2.6-6.4
					c-0.3-0.8-1.1-0.9-1.4-0.9c-0.2,0-0.5,0-0.7,0.1c-0.3,0.1-0.7,0.5-1,1c-0.1,0.3-0.1,0.7,0,1l3.9,9.4l-2.9,6.9l3.6,0L171,7.4
					c0.1-0.3,0.1-0.8,0-1.1C170.9,6,170.6,5.6,170.1,5.4z M152.9,5.3c-1.8,0-3.4,0.7-4.7,1.9c-0.4,0.4-0.7,0.8-0.9,1.2
					c-0.1-0.6-0.2-1.1-0.4-1.7L146.4,5c-0.2-0.7-0.6-1-1.2-1c-0.2,0-0.5,0-0.7,0.1l-14,4.8V5.4h-3.3v11.8c0,0.4,0.2,0.8,0.5,1
					c0.3,0.3,0.7,0.4,1.2,0.4c0.4,0,0.8-0.2,1.2-0.4c0.3-0.3,0.5-0.6,0.5-1v-3.1c1.3,2.3,3,3.4,4.4,4c1.1,0.4,2.3,0.7,3.5,0.7
					c1,0,2-0.2,2.9-0.5c2.4-0.8,4.2-2.6,5.2-4.7c0.3,1.1,0.9,2.1,1.7,3c1.3,1.3,2.9,1.9,4.7,1.9c1.6,0,2.6-0.5,3-0.8l0.2-0.2l0,1.1
					h3.3v-6.7c0-1.8-0.7-3.4-1.9-4.7C156.2,5.9,154.7,5.3,152.9,5.3z M143.9,11.4c-0.5,1.9-1.7,3.2-3.7,3.9c-0.6,0.2-1.3,0.3-2,0.3
					c-0.8,0-1.5-0.1-2.2-0.4c-1.1-0.4-2.5-1.4-3.3-3.5l-0.1-0.2l11.1-3.8l0.1,0.2C144,8.2,144.3,9.7,143.9,11.4z M155.9,13.1
					c-0.2,0.4-0.4,0.8-0.7,1.1c-0.3,0.3-0.6,0.5-1.1,0.7c-0.4,0.2-0.8,0.3-1.3,0.3c-0.5,0-0.9-0.1-1.3-0.3c-0.4-0.2-0.8-0.4-1-0.7
					c-0.3-0.3-0.5-0.7-0.7-1.1c-0.2-0.4-0.3-0.8-0.3-1.3c0-0.5,0.1-0.9,0.3-1.3c0.2-0.4,0.4-0.8,0.7-1.1c0.3-0.3,0.6-0.5,1-0.7
					c0.4-0.2,0.8-0.3,1.3-0.3c0.5,0,0.9,0.1,1.3,0.3c0.4,0.2,0.8,0.4,1.1,0.7c0.3,0.3,0.5,0.7,0.7,1.1c0.2,0.4,0.3,0.8,0.3,1.3
					C156.2,12.3,156.1,12.7,155.9,13.1z M124.3,5.3l-0.3,0c-2,0-3.3,1.2-3.3,1.2l-0.3,0.2l0-1.3h-3.3l0,11.8c0,0.4,0.2,0.7,0.5,1
					c0.3,0.3,0.7,0.4,1.2,0.4c0.4,0,0.9-0.1,1.2-0.4c0.3-0.3,0.5-0.6,0.5-1v-5.3c0-2,2.2-3,3.1-3.2c0.2,0,0.4,0,0.6-0.1
					c0.2,0,0.4,0,0.5,0c0.7-0.1,1.6-0.7,1.5-1.9C126.1,5.8,125.4,5.3,124.3,5.3z M68.3,6.3c-1.2-1-2.2-1.7-3.2-2.2l-0.9,1.4
					C65,5.9,66,6.6,67.3,7.7L68.3,6.3z M72.8,12.8L72.8,12.8l0.1,3.3h1.5v-4.4l1.6-1.3h4.9c0.1,0,0.2-0.1,0.2-0.2V6.5
					c0-0.1-0.1-0.2-0.2-0.2H70.1c-0.1,0-0.2,0.1-0.2,0.2v3.7c0,0.1,0.1,0.2,0.2,0.2h3.5c-1.5,1-3,1.8-4.7,2.3l0.8,1.5
					C70.6,14,71.7,13.5,72.8,12.8z M71.5,9.1L71.5,9.1l-0.1-1.3c0,0,0-0.1,0.1-0.1h8l0.1,0.1V9l-0.1,0.1H71.5z M81.9,3.9h-5.7V2.8
					h4.9V1.4h-4.9V0.1h-1.6v1.3h-4.9v1.4h4.9v1.1h-5.5v1.5h12.8V3.9z M80.1,10.6c-0.5,0.5-1.2,1.1-2.2,1.8c-0.6-0.5-1.3-0.8-1.9-1.1
					l-0.9,1.4c1.4,0.7,3.1,1.9,5.1,3.5l1-1.3l-1.9-1.5c0.7-0.6,1.3-1.1,1.8-1.6L80.1,10.6z M68.7,2.5c-1.1-0.9-2.2-1.6-3.1-2
					l-0.9,1.5c0.8,0.4,1.8,1,3,2L68.7,2.5z M70.9,16.4c-0.9-0.2-1.6-0.6-2-1.3c-0.4-0.5-0.6-0.9-0.7-1.3V9.2c0-0.3-0.1-0.4-0.4-0.4
					h-3.4v1.7h1.9c0.1,0,0.2,0.1,0.2,0.2v3.7c-0.1,0.4-0.2,0.8-0.4,1.1c-0.3,0.5-1,1-2,1.5l0.9,1.5c0.6-0.3,1.1-0.7,1.6-1.2
					c0.5-0.6,0.9-1.1,1-1.5c0.8,1.5,2.4,2.3,4.9,2.4l9.4,0l0.4-1.9C75.8,16.6,72,16.7,70.9,16.4z M84.7,8.7l1.6,0.6l0.5-0.8v10h1.6
					V4.7c0.4-1.2,0.7-2.7,0.9-4.4l-1.7-0.2C87.4,3.2,86.4,6.1,84.7,8.7z M101.5,12l0.6,0.8l1.2-0.9l-1.5-2.2h0.2
					c0.3,0,0.4-0.1,0.4-0.4V4c0-0.3-0.1-0.4-0.4-0.4h-5.2v-1h5.8V1.1h-5.8v-1h-1.6v1h-5.2v1.5h5.2v1h-4.9c-0.3,0-0.4,0.1-0.4,0.4
					v5.3c0,0.3,0.1,0.4,0.4,0.4h4.9v1.1l-5.7,0.2l0.2,1.5l9.4-0.5v1.2h-9.6v1.5H99v1.3c0,0.3,0,0.4-0.2,0.5
					c-0.3,0.2-1.1,0.1-2.3-0.2v1.7c1.6,0.4,2.7,0.4,3.3,0c0.5-0.4,0.9-0.9,0.9-1.6v-1.7h2.2v-1.5h-2.2v-1.2L101.5,12z M95.2,8.4
					h-3.6c0,0-0.1,0,0-0.1v-1h3.6V8.4z M95.2,6h-3.6V5.1c0-0.1,0-0.1,0-0.1h3.6V6z M96.8,5h3.9c0.1,0,0.1,0,0.1,0.1V6h-4V5z
					 M100.5,10.6l-3.7,0.2v-1h3.8l-0.5,0.4L100.5,10.6z M96.8,8.4V7.3h4v1l-0.1,0.1H96.8z M93.4,15l-1.2,1.1
					c0.6,0.5,1.2,1.1,1.9,1.9l1.2-1C94.8,16.3,94.1,15.7,93.4,15z M175.5,13.6h4.6c0.2,0,0.2-0.1,0.2-0.2V0.9c0-0.1-0.1-0.2-0.2-0.2
					h-4.6c-0.1,0-0.2,0.1-0.2,0.2v12.5C175.3,13.5,175.3,13.6,175.5,13.6z M176.8,2.2L176.8,2.2l1.9-0.1l0.1,0.1v2.2h-2V2.2z
					 M176.8,6h2v2.3h-2V6z M176.8,9.8h2V12c0,0.1,0,0.1-0.1,0.1h-1.8l-0.1-0.1V9.8z M178.1,14.9c0.4,0.7,0.8,1.8,1.1,3l1.4-0.5
					c-0.3-1.3-0.7-2.3-1.2-3.1L178.1,14.9z M190.3,5.2h2.3V3.8h-2.3v-1h2.6V1.4h-2.6V0.1h-1.5v1.4h-3.3V0.1H184v1.3h-2.8v1.4h2.8v1
					h-2.2v1.4h2.2v1.1h-2.9v1.4h5.3v1.1h-4.1c-0.2,0-0.4,0.1-0.4,0.4v5.2h-1.1v1.4h1.1v2.7h1.5v-2.7h7.4v0.4c0,0.3-0.1,0.5-0.4,0.7
					c-0.3,0.2-1,0.1-2.2-0.2l0.1,1.7c1.6,0.3,2.7,0.2,3.3-0.2c0.5-0.3,0.7-0.8,0.7-1.4v-1.1h0.9v-1.4h-0.9V9.2
					c0-0.2-0.1-0.4-0.4-0.4h-4.1V7.7h5.4V6.3h-2.9V5.2z M186.3,14.3h-2.9V13h2.9V14.3z M186.3,11.6h-2.9v-1.3c0-0.1,0-0.1,0.1-0.1
					h2.8V11.6z M190.8,14.3h-3V13h3V14.3z M190.7,10.2c0.1,0,0.1,0,0.1,0.1v1.3h-3v-1.4H190.7z M188.8,6.3h-3.3V5.2h3.3V6.3z
					 M188.8,3.8h-3.3v-1h3.3V3.8z M174.8,18l1.5,0.5c0.6-1.5,1-2.7,1.2-3.9l-1.5-0.4C175.8,15.2,175.4,16.4,174.8,18z M213.8,2.5
					l-0.3-0.1h-7.6l0.4-2.1l-1.7-0.2c-0.3,2.6-1.3,5.2-2.8,7.5l1.6,0.6c0.7-1.1,1.4-2.4,2-4.2h1.4c-0.2,1.9-0.6,3.4-1,4.4
					c-0.7,1.5-2.1,3.2-4,5.1l1.5,0.9c2.6-2.7,4.3-5.5,4.9-8.1l0.3-2.3h1.2c-0.2,6-2.3,10.2-6.4,12.5l1.3,1.2
					c2.2-1.6,3.8-3.5,4.9-5.7c1.1-2.7,1.8-5.4,1.8-8h0.8c0.1,0,0.2,0,0.2,0.1c0.1,0.2,0.1,2.4,0,6.6c0,1.8-0.2,3.2-0.4,4
					c-0.3,0.8-0.6,1.3-0.9,1.5c-0.5,0.4-1.7,0.2-3.5-0.4l0.1,2c2.2,0.6,3.6,0.6,4.4,0.1c1.3-0.9,2-3.2,2.1-6.9l0.1-7.7
					C214.1,2.9,214,2.6,213.8,2.5z M202.5,9.3l-1.6,0.9V5.4h1.7V3.7H201V0.1h-1.7v3.7h-1.2l0.1-2v-1h-1.6v1c0,2.6-0.3,4.9-1,6.9
					l1.7,0.2c0.2-0.6,0.4-1.8,0.7-3.5h1.3v5.7c-0.9,0.4-2.1,0.9-3.6,1.4l0.9,1.5l2.6-1.1v5.6h1.7v-6.4c1-0.5,1.8-0.9,2.5-1.4
					L202.5,9.3z"/>
			</g>
		</g>
	</g>
	<g>
		<g>
			<path class="st0" d="M17.3,108.2c0,1.3-0.4,2.2-1.1,3c-0.8,0.7-1.8,1.1-3,1.2c-1.1,0-2.1-0.3-2.8-1c-0.8-0.9-1.1-1.9-1.1-3.2v-15
				H3.7c-1.2,0-2.1-0.3-2.7-1c-0.6-0.6-1-1.5-1-2.6c0.1-1,0.4-1.8,1-2.5c0.7-0.7,1.6-1,2.7-1h5.5V56.5c0.1-1.8,0.7-3.4,2-4.6
				c1.4-1.4,3-2.1,4.8-2h22.6v-7H5.1c-1.2,0-2.1-0.3-2.7-1c-0.6-0.6-1-1.5-1-2.6c0.1-1,0.4-1.8,1-2.5c0.7-0.7,1.6-1,2.7-1h74.7
				c1.2,0.1,2.1,0.4,2.6,0.9c0.6,0.6,1,1.5,1,2.6c-0.1,1-0.4,1.8-1,2.5c-0.6,0.7-1.5,1.1-2.6,1.1H46.3v7h22.1c1.9,0.1,3.5,0.7,4.8,2
				c1.4,1.4,2.1,3,2.2,4.8v29.5h4.8c1.2,0.1,2.1,0.4,2.6,0.9c0.6,0.6,1,1.5,1,2.6c-0.1,1-0.4,1.8-1,2.5c-0.6,0.7-1.5,1.1-2.6,1.1
				h-4.8v10c-0.1,2.9-1.4,5.1-3.9,6.5c-1.6,1-3.9,1.5-6.7,1.5c-4.2,0.1-8.8-0.5-14-1.5c-1.4-0.5-2.4-1.1-3-2c-0.4-0.9-0.5-1.9-0.3-3
				c0.8-2.5,2.6-3.4,5.5-2.7c6,1.6,10.2,1.9,12.5,1c1.2-0.5,1.8-1.6,1.8-3.2v-6.6H17.3V108.2z M38.7,57H20.2c-0.8,0-1.5,0.3-2.1,0.9
				c-0.5,0.6-0.8,1.2-0.8,2v8.4h21.4V57z M38.7,86.1V75.2H17.3v10.9H38.7z M46.3,68.1h21.1v-8.8c-0.1-0.6-0.4-1.2-0.9-1.7
				C66,57.2,65.4,57,64.8,57H46.3V68.1z M67.4,86.1V75.2H46.3v10.9H67.4z"/>
		</g>
		<g>
			<g>
				<g>
					<ellipse class="st0" cx="237.8" cy="100.2" rx="5.1" ry="5.1"/>
					<path class="st0" d="M233,93.2c-1.3,0-2.3-0.3-2.9-1c-0.7-0.6-1-1.5-1-2.5c0.1-1,0.4-1.8,1-2.4c0.7-0.7,1.7-1,2.9-1h24.9v-1.9
						c0-1.1,0.2-1.9,0.7-2.6L234,83.5c-1.3,0.1-2.4-0.2-3.2-0.7c-0.9-0.8-1.4-1.6-1.5-2.5c0-1.2,0.3-2.1,0.9-2.9
						c0.8-0.8,1.9-1.2,3.3-1.3l13.9-0.9v-3.5h-10.4c-1.6-0.1-2.8-0.6-3.6-1.6c-1.1-1.2-1.6-2.6-1.5-4v-16c0-1.3,0.5-2.4,1.5-3.3
						c1.1-1,2.3-1.4,3.6-1.4h10.4v-2.6h-14c-1.3,0-2.3-0.3-2.9-1c-0.7-0.6-1-1.5-1-2.5c0.1-1,0.4-1.8,1-2.4c0.7-0.7,1.7-1,2.9-1h14
						v-2.3c0-1.4,0.4-2.4,1.2-3.1c0.9-0.7,2-1.1,3.4-1.1c1.2,0,2.3,0.4,3.3,1.1c0.9,0.8,1.4,1.9,1.4,3.1v2.3h14.2
						c1.2,0.1,2.2,0.4,2.8,0.9c0.7,0.6,1,1.5,1,2.5c-0.1,1-0.4,1.8-1,2.4c-0.7,0.7-1.6,1.1-2.8,1.1h-14.2v2.6h9.8
						c1.8-0.1,3.3,0.4,4.5,1.4c1,0.8,1.5,1.9,1.6,3.3v16c0,1.2-0.5,2.3-1.4,3.3c0.6,0.3,1.2,0.7,1.6,1.3c4.3,5.3,6,9.1,5.2,11.3
						c-0.4,0.9-1.2,1.5-2.2,1.9c-1.1,0.4-2.1,0.4-3,0.1c-0.6-0.3-1.5-1.4-2.9-3.3l-4,0.3c0.7,0.8,1.1,1.9,1.1,3.1v1.9h6.5
						c1.2,0.1,2.2,0.4,2.8,0.9c0.7,0.6,1,1.5,1,2.5c-0.1,1-0.4,1.8-1,2.4c-0.7,0.7-1.6,1.1-2.8,1.1h-6.5v9c-0.1,3.7-1.7,6.5-4.9,8.5
						c-2.1,1.1-4.9,1.5-9.8,1.2c-4.9-0.4-7.9-1.5-9-3.2c-0.5-1-0.6-2.1-0.4-3.1c1.1-2.7,3.2-3.6,6.2-2.8c4.5,0.7,6.6,0.8,7.5,0.1
						c0.7-0.6,1.1-1.5,1-2.8v-6.9H233z M247.4,52.2h-6.4c-0.4,0.1-0.8,0.2-1,0.4c-0.3,0.3-0.4,0.6-0.4,0.9v2.1h7.8V52.2z
						 M247.4,61.6h-7.8v2.2c0,0.3,0.1,0.6,0.4,0.8c0.3,0.3,0.7,0.4,1,0.4h6.4V61.6z M256.7,55.6h8.2v-2.1c0-0.4-0.1-0.7-0.4-0.9
						c-0.3-0.3-0.7-0.4-1-0.4h-6.7V55.6z M256.7,65.1h6.7c0.4-0.1,0.8-0.2,1-0.4c0.2-0.3,0.3-0.6,0.4-0.8v-2.2h-8.2V65.1z
						 M265.5,71.8h-8.8v3l9.1-0.8c-0.2-0.7-0.3-1.4-0.3-2V71.8z"/>
				</g>
				<path class="st0" d="M194.3,42.9c-1.3,0-2.3-0.3-2.9-1c-0.7-0.6-1-1.5-1-2.5c0.1-1,0.4-1.8,1-2.4c0.7-0.7,1.7-1,2.9-1h9.8v-2.3
					c0-1.4,0.4-2.4,1.2-3.1c0.9-0.7,2-1.1,3.4-1.1c1.2,0,2.3,0.4,3.3,1.1c0.9,0.8,1.4,1.9,1.4,3.1v2.3h19.6c1.2,0.1,2.2,0.4,2.8,0.9
					c0.7,0.6,1,1.5,1,2.5c-0.1,1-0.4,1.8-1,2.4c-0.7,0.7-1.6,1.1-2.8,1.1H194.3z"/>
				<path class="st0" d="M232.9,86.2c1.3,0,2.3,0.3,2.9,1c0.7,0.6,1,1.5,1,2.5c-0.1,1-0.4,1.8-1,2.4c-0.7,0.7-1.7,1-2.9,1h-20.5v7.1
					c0,1.4-0.4,2.4-1.2,3.1c-0.9,0.7-2,1.1-3.4,1.1c-1.2,0-2.3-0.4-3.3-1.1c-0.9-0.8-1.4-1.9-1.4-3.1v-7.1h-10.1
					c-1.2-0.1-2.2-0.4-2.8-0.9c-0.7-0.6-1-1.5-1-2.5c0.1-1,0.4-1.8,1-2.4c0.7-0.7,1.6-1.1,2.8-1.1H232.9z"/>
			</g>
			<path class="st1" d="M208.4,87.3c0.8,0,1.5-0.5,1.7-1.1c0.1-0.2,0.1-0.5,0.1-0.7v-3.4c0.1,0,0.3,0,0.4,0c2.9,0,5.7-0.7,8.3-2.1
				c6.8-3.7,10.5-11.3,9.1-19c-0.4-2.4-2.7-3.9-5-3.5c-2.3,0.4-3.9,2.7-3.4,5.1c0.7,3.9-1.1,7.8-4.7,9.7c-1.4,0.8-3,1.1-4.6,1.1V70
				c0-1-0.8-1.8-1.9-1.8c-0.4,0-0.8,0.1-1.1,0.4l-9.9,7.5c-1.1,1.2-1.1,2.3,0,3.5l8.9,6.7l1,0.8C207.6,87.2,208,87.3,208.4,87.3z"/>
			<path class="st1" d="M209.1,41.8c-0.8,0-1.5,0.5-1.7,1.1c-0.1,0.2-0.1,0.5-0.1,0.7V47c-0.1,0-0.3,0-0.4,0c-2.9,0-5.7,0.7-8.3,2.1
				c-6.8,3.7-10.5,11.3-9.1,19c0.4,2.4,2.7,3.9,5,3.5c2.3-0.4,3.9-2.7,3.4-5.1c-0.7-3.9,1.1-7.8,4.7-9.7c1.4-0.8,3-1.1,4.6-1.1v3.4
				c0,1,0.8,1.8,1.9,1.8c0.4,0,0.8-0.1,1.1-0.4l9.9-7.5c1.1-1.2,1.1-2.3,0-3.5l-8.9-6.7l-1-0.8C209.9,41.9,209.5,41.8,209.1,41.8z"
				/>
		</g>
		<g>
			<g>
				<g>
					<ellipse class="st0" cx="141.4" cy="100.2" rx="5.1" ry="5.1"/>
					<path class="st0" d="M136.5,93.2c-1.3,0-2.3-0.3-2.9-1c-0.7-0.6-1-1.5-1-2.5c0.1-1,0.4-1.8,1-2.4c0.7-0.7,1.7-1,2.9-1h24.9
						v-1.9c0-1.1,0.2-1.9,0.7-2.6l-24.5,1.9c-1.3,0.1-2.4-0.2-3.2-0.7c-0.9-0.8-1.4-1.6-1.5-2.5c0-1.2,0.3-2.1,0.9-2.9
						c0.8-0.8,1.9-1.2,3.3-1.3l13.9-0.9v-3.5h-10.4c-1.6-0.1-2.8-0.6-3.6-1.6c-1.1-1.2-1.6-2.6-1.5-4v-16c0-1.3,0.5-2.4,1.5-3.3
						c1.1-1,2.3-1.4,3.6-1.4H151v-2.6h-14c-1.3,0-2.3-0.3-2.9-1c-0.7-0.6-1-1.5-1-2.5c0.1-1,0.4-1.8,1-2.4c0.7-0.7,1.7-1,2.9-1h14
						v-2.3c0-1.4,0.4-2.4,1.2-3.1c0.9-0.7,2-1.1,3.4-1.1c1.2,0,2.3,0.4,3.3,1.1c0.9,0.8,1.4,1.9,1.4,3.1v2.3h14.2
						c1.2,0.1,2.2,0.4,2.8,0.9c0.7,0.6,1,1.5,1,2.5c-0.1,1-0.4,1.8-1,2.4c-0.7,0.7-1.6,1.1-2.8,1.1h-14.2v2.6h9.8
						c1.8-0.1,3.3,0.4,4.5,1.4c1,0.8,1.5,1.9,1.6,3.3v16c0,1.2-0.5,2.3-1.4,3.3c0.6,0.3,1.2,0.7,1.6,1.3c4.3,5.3,6,9.1,5.2,11.3
						c-0.4,0.9-1.2,1.5-2.2,1.9c-1.1,0.4-2.1,0.4-3,0.1c-0.6-0.3-1.5-1.4-2.9-3.3l-4,0.3c0.7,0.8,1.1,1.9,1.1,3.1v1.9h6.5
						c1.2,0.1,2.2,0.4,2.8,0.9c0.7,0.6,1,1.5,1,2.5c-0.1,1-0.4,1.8-1,2.4c-0.7,0.7-1.6,1.1-2.8,1.1h-6.5v9c-0.1,3.7-1.7,6.5-4.9,8.5
						c-2.1,1.1-4.9,1.5-9.8,1.2c-4.9-0.4-7.9-1.5-9-3.2c-0.5-1-0.6-2.1-0.4-3.1c1.1-2.7,3.2-3.6,6.2-2.8c4.5,0.7,6.6,0.8,7.5,0.1
						c0.7-0.6,1.1-1.5,1-2.8v-6.9H136.5z M151,52.2h-6.4c-0.4,0.1-0.8,0.2-1,0.4c-0.3,0.3-0.4,0.6-0.4,0.9v2.1h7.8V52.2z M151,61.6
						h-7.8v2.2c0,0.3,0.1,0.6,0.4,0.8c0.3,0.3,0.7,0.4,1,0.4h6.4V61.6z M160.3,55.6h8.2v-2.1c0-0.4-0.1-0.7-0.4-0.9
						c-0.3-0.3-0.7-0.4-1-0.4h-6.7V55.6z M160.3,65.1h6.7c0.4-0.1,0.8-0.2,1-0.4c0.2-0.3,0.3-0.6,0.4-0.8v-2.2h-8.2V65.1z
						 M169.1,71.8h-8.8v3l9.1-0.8c-0.2-0.7-0.3-1.4-0.3-2V71.8z"/>
				</g>
				<path class="st0" d="M97.8,42.9c-1.3,0-2.3-0.3-2.9-1c-0.7-0.6-1-1.5-1-2.5c0.1-1,0.4-1.8,1-2.4c0.7-0.7,1.7-1,2.9-1h9.8v-2.3
					c0-1.4,0.4-2.4,1.2-3.1c0.9-0.7,2-1.1,3.4-1.1c1.2,0,2.3,0.4,3.3,1.1c0.9,0.8,1.4,1.9,1.4,3.1v2.3h19.6c1.2,0.1,2.2,0.4,2.8,0.9
					c0.7,0.6,1,1.5,1,2.5c-0.1,1-0.4,1.8-1,2.4c-0.7,0.7-1.6,1.1-2.8,1.1H97.8z"/>
				<path class="st0" d="M136.4,86.2c1.3,0,2.3,0.3,2.9,1c0.7,0.6,1,1.5,1,2.5c-0.1,1-0.4,1.8-1,2.4c-0.7,0.7-1.7,1-2.9,1H116v7.1
					c0,1.4-0.4,2.4-1.2,3.1c-0.9,0.7-2,1.1-3.4,1.1c-1.2,0-2.3-0.4-3.3-1.1c-0.9-0.8-1.4-1.9-1.4-3.1v-7.1H96.6
					c-1.2-0.1-2.2-0.4-2.8-0.9c-0.7-0.6-1-1.5-1-2.5c0.1-1,0.4-1.8,1-2.4c0.7-0.7,1.6-1.1,2.8-1.1H136.4z"/>
			</g>
			<path class="st1" d="M112,87.3c0.8,0,1.5-0.5,1.7-1.1c0.1-0.2,0.1-0.5,0.1-0.7v-3.4c0.1,0,0.3,0,0.4,0c2.9,0,5.7-0.7,8.3-2.1
				c6.8-3.7,10.5-11.3,9.1-19c-0.4-2.4-2.7-3.9-5-3.5c-2.3,0.4-3.9,2.7-3.4,5.1c0.7,3.9-1.1,7.8-4.7,9.7c-1.4,0.8-3,1.1-4.6,1.1V70
				c0-1-0.8-1.8-1.9-1.8c-0.4,0-0.8,0.1-1.1,0.4l-9.9,7.5c-1.1,1.2-1.1,2.3,0,3.5l8.9,6.7l1,0.8C111.2,87.2,111.6,87.3,112,87.3z"/>
			<path class="st1" d="M112.7,41.8c-0.8,0-1.5,0.5-1.7,1.1c-0.1,0.2-0.1,0.5-0.1,0.7V47c-0.1,0-0.3,0-0.4,0c-2.9,0-5.7,0.7-8.3,2.1
				c-6.8,3.7-10.5,11.3-9.1,19c0.4,2.4,2.7,3.9,5,3.5c2.3-0.4,3.9-2.7,3.4-5.1c-0.7-3.9,1.1-7.8,4.7-9.7c1.4-0.8,3-1.1,4.6-1.1v3.4
				c0,1,0.8,1.8,1.9,1.8c0.4,0,0.8-0.1,1.1-0.4l9.9-7.5c1.1-1.2,1.1-2.3,0-3.5l-8.9-6.7l-1-0.8C113.5,41.9,113.1,41.8,112.7,41.8z"
				/>
		</g>
	</g>
</g>
</svg>
