<?xml version="1.0" encoding="utf-8"?>
<!-- Generator: Adobe Illustrator 26.0.2, SVG Export Plug-In . SVG Version: 6.00 Build 0)  -->
<svg version="1.1" id="圖層_1" xmlns="http://www.w3.org/2000/svg" xmlns:xlink="http://www.w3.org/1999/xlink" x="0px" y="0px"
	 viewBox="0 0 18.01 18.03" style="enable-background:new 0 0 18.01 18.03;" xml:space="preserve">
<style type="text/css">
	.st0{fill:#1079BE;}
</style>
<g>
	<g>
		<path class="st0" d="M12.73,14.89c-2.89,1.62-6.6,0.64-8.27-2.18l2.36-1.33L1.2,9.57L0,15.21l2.36-1.33
			c2.35,3.95,7.55,5.32,11.58,3.06c1.96-1.1,3.36-2.88,3.93-5.02l-2.34-0.61C15.13,12.83,14.13,14.1,12.73,14.89z M5.28,3.14
			c2.89-1.62,6.6-0.64,8.27,2.18l-2.36,1.33l5.62,1.8l1.2-5.64l-2.36,1.33C13.3,0.2,8.1-1.17,4.06,1.09C2.1,2.19,0.7,3.97,0.13,6.11
			l2.34,0.61C2.88,5.2,3.88,3.92,5.28,3.14z"/>
	</g>
</g>
</svg>
