<?xml version="1.0" encoding="utf-8"?>
<!-- Generator: Adobe Illustrator 27.3.1, SVG Export Plug-In . SVG Version: 6.00 Build 0)  -->
<svg version="1.1" id="圖層_1" xmlns="http://www.w3.org/2000/svg" xmlns:xlink="http://www.w3.org/1999/xlink" x="0px" y="0px"
	 width="100px" height="100px" viewBox="0 0 100 100" style="enable-background:new 0 0 100 100;" xml:space="preserve">
<style type="text/css">
	.製作陰影{fill:none;}
	.圓角_x0020_2_x0020_點{fill:#FFFFFF;stroke:#231815;stroke-miterlimit:10;}
	.即時反射_x0020_X{fill:none;}
	.柔化斜角{fill:url(#SVGID_1_);}
	.黃昏{fill:#FFFFFF;}
	.葉子_GS{fill:#FFE100;}
	.高捲式髮型_GS{fill-rule:evenodd;clip-rule:evenodd;fill:#4CACE2;}
	.st0{fill:#FFFFFF;}
	.st1{fill:#FF0055;}
	.st2{fill:#FFF000;}
</style>
<linearGradient id="SVGID_1_" gradientUnits="userSpaceOnUse" x1="-0.4079" y1="-7.068366e-02" x2="0.2992" y2="0.6364">
	<stop  offset="0" style="stop-color:#E6E7EA"/>
	<stop  offset="0.1747" style="stop-color:#E2E3E6"/>
	<stop  offset="0.3538" style="stop-color:#D6D7DA"/>
	<stop  offset="0.5349" style="stop-color:#C1C4C5"/>
	<stop  offset="0.7174" style="stop-color:#A4A8A8"/>
	<stop  offset="0.8993" style="stop-color:#808584"/>
	<stop  offset="1" style="stop-color:#686E6C"/>
</linearGradient>
<g>
	<rect class="st0" width="100" height="100"/>
	<g>
		<g transform="translate(240,48) scale(4.12)">
			<rect x="-51.6" y="-10.2" width="0.7" height="0.7"/>
		</g>
		<g transform="translate(264,48) scale(4.12)">
			<rect x="-56.8" y="-10.2" width="0.7" height="0.7"/>
		</g>
		<g transform="translate(288,48) scale(4.12)">
			<rect x="-62" y="-10.2" width="0.7" height="0.7"/>
		</g>
		<g transform="translate(432,48) scale(4.12)">
			<rect x="-93.1" y="-10.2" width="0.7" height="0.7"/>
		</g>
		<g transform="translate(480,48) scale(4.12)">
			<rect x="-103.4" y="-10.2" width="0.7" height="0.7"/>
		</g>
		<g transform="translate(504,48) scale(4.12)">
			<rect x="-108.6" y="-10.2" width="0.7" height="0.7"/>
		</g>
		<g transform="translate(528,48) scale(4.12)">
			<rect x="-113.8" y="-10.2" width="0.7" height="0.7"/>
		</g>
		<g transform="translate(552,48) scale(4.12)">
			<rect x="-118.9" y="-10.2" width="0.7" height="0.7"/>
		</g>
		<g transform="translate(600,48) scale(4.12)">
			<rect x="-129.3" y="-10.2" width="0.7" height="0.7"/>
		</g>
		<g transform="translate(624,48) scale(4.12)">
			<rect x="-134.5" y="-10.2" width="0.7" height="0.7"/>
		</g>
		<g transform="translate(240,72) scale(4.12)">
			<rect x="-51.6" y="-15.4" width="0.7" height="0.7"/>
		</g>
		<g transform="translate(264,72) scale(4.12)">
			<rect x="-56.8" y="-15.4" width="0.7" height="0.7"/>
		</g>
		<g transform="translate(336,72) scale(4.12)">
			<rect x="-72.3" y="-15.4" width="0.7" height="0.7"/>
		</g>
		<g transform="translate(360,72) scale(4.12)">
			<rect x="-77.5" y="-15.4" width="0.7" height="0.7"/>
		</g>
		<g transform="translate(432,72) scale(4.12)">
			<rect x="-93.1" y="-15.4" width="0.7" height="0.7"/>
		</g>
		<g transform="translate(504,72) scale(4.12)">
			<rect x="-108.6" y="-15.4" width="0.7" height="0.7"/>
		</g>
		<g transform="translate(552,72) scale(4.12)">
			<rect x="-118.9" y="-15.4" width="0.7" height="0.7"/>
		</g>
		<g transform="translate(576,72) scale(4.12)">
			<rect x="-124.1" y="-15.4" width="0.7" height="0.7"/>
		</g>
		<g transform="translate(624,72) scale(4.12)">
			<rect x="-134.5" y="-15.4" width="0.7" height="0.7"/>
		</g>
		<g transform="translate(240,96) scale(4.12)">
			<rect x="-51.6" y="-20.6" width="0.7" height="0.7"/>
		</g>
		<g transform="translate(336,96) scale(4.12)">
			<rect x="-72.3" y="-20.6" width="0.7" height="0.7"/>
		</g>
		<g transform="translate(360,96) scale(4.12)">
			<rect x="-77.5" y="-20.6" width="0.7" height="0.7"/>
		</g>
		<g transform="translate(384,96) scale(4.12)">
			<rect x="-82.7" y="-20.6" width="0.7" height="0.7"/>
		</g>
		<g transform="translate(432,96) scale(4.12)">
			<rect x="-93.1" y="-20.6" width="0.7" height="0.7"/>
		</g>
		<g transform="translate(552,96) scale(4.12)">
			<rect x="-118.9" y="-20.6" width="0.7" height="0.7"/>
		</g>
		<g transform="translate(600,96) scale(4.12)">
			<rect x="-129.3" y="-20.6" width="0.7" height="0.7"/>
		</g>
		<g transform="translate(624,96) scale(4.12)">
			<rect x="-134.5" y="-20.6" width="0.7" height="0.7"/>
		</g>
		<g transform="translate(288,120) scale(4.12)">
			<rect x="-62" y="-25.7" width="0.7" height="0.7"/>
		</g>
		<g transform="translate(408,120) scale(4.12)">
			<rect x="-87.9" y="-25.7" width="0.7" height="0.7"/>
		</g>
		<g transform="translate(432,120) scale(4.12)">
			<rect x="-93.1" y="-25.7" width="0.7" height="0.7"/>
		</g>
		<g transform="translate(504,120) scale(4.12)">
			<rect x="-108.6" y="-25.7" width="0.7" height="0.7"/>
		</g>
		<g transform="translate(576,120) scale(4.12)">
			<rect x="-124.1" y="-25.7" width="0.7" height="0.7"/>
		</g>
		<g transform="translate(600,120) scale(4.12)">
			<rect x="-129.3" y="-25.7" width="0.7" height="0.7"/>
		</g>
		<g transform="translate(624,120) scale(4.12)">
			<rect x="-134.5" y="-25.7" width="0.7" height="0.7"/>
		</g>
		<g transform="translate(264,144) scale(4.12)">
			<rect x="-56.8" y="-30.9" width="0.7" height="0.7"/>
		</g>
		<g transform="translate(312,144) scale(4.12)">
			<rect x="-67.2" y="-30.9" width="0.7" height="0.7"/>
		</g>
		<g transform="translate(384,144) scale(4.12)">
			<rect x="-82.7" y="-30.9" width="0.7" height="0.7"/>
		</g>
		<g transform="translate(432,144) scale(4.12)">
			<rect x="-93.1" y="-30.9" width="0.7" height="0.7"/>
		</g>
		<g transform="translate(480,144) scale(4.12)">
			<rect x="-103.4" y="-30.9" width="0.7" height="0.7"/>
		</g>
		<g transform="translate(504,144) scale(4.12)">
			<rect x="-108.6" y="-30.9" width="0.7" height="0.7"/>
		</g>
		<g transform="translate(576,144) scale(4.12)">
			<rect x="-124.1" y="-30.9" width="0.7" height="0.7"/>
		</g>
		<g transform="translate(624,144) scale(4.12)">
			<rect x="-134.5" y="-30.9" width="0.7" height="0.7"/>
		</g>
		<g transform="translate(240,168) scale(4.12)">
			<rect x="-51.6" y="-36.1" width="0.7" height="0.7"/>
		</g>
		<g transform="translate(264,168) scale(4.12)">
			<rect x="-56.8" y="-36.1" width="0.7" height="0.7"/>
		</g>
		<g transform="translate(288,168) scale(4.12)">
			<rect x="-62" y="-36.1" width="0.7" height="0.7"/>
		</g>
		<g transform="translate(312,168) scale(4.12)">
			<rect x="-67.2" y="-36.1" width="0.7" height="0.7"/>
		</g>
		<g transform="translate(432,168) scale(4.12)">
			<rect x="-93.1" y="-36.1" width="0.7" height="0.7"/>
		</g>
		<g transform="translate(480,168) scale(4.12)">
			<rect x="-103.4" y="-36.1" width="0.7" height="0.7"/>
		</g>
		<g transform="translate(528,168) scale(4.12)">
			<rect x="-113.8" y="-36.1" width="0.7" height="0.7"/>
		</g>
		<g transform="translate(576,168) scale(4.12)">
			<rect x="-124.1" y="-36.1" width="0.7" height="0.7"/>
		</g>
		<g transform="translate(240,192) scale(4.12)">
			<rect x="-51.6" y="-41.3" width="0.7" height="0.7"/>
		</g>
		<g transform="translate(288,192) scale(4.12)">
			<rect x="-62" y="-41.3" width="0.7" height="0.7"/>
		</g>
		<g transform="translate(336,192) scale(4.12)">
			<rect x="-72.3" y="-41.3" width="0.7" height="0.7"/>
		</g>
		<g transform="translate(384,192) scale(4.12)">
			<rect x="-82.7" y="-41.3" width="0.7" height="0.7"/>
		</g>
		<g transform="translate(432,192) scale(4.12)">
			<rect x="-93.1" y="-41.3" width="0.7" height="0.7"/>
		</g>
		<g transform="translate(480,192) scale(4.12)">
			<rect x="-103.4" y="-41.3" width="0.7" height="0.7"/>
		</g>
		<g transform="translate(528,192) scale(4.12)">
			<rect x="-113.8" y="-41.3" width="0.7" height="0.7"/>
		</g>
		<g transform="translate(576,192) scale(4.12)">
			<rect x="-124.1" y="-41.3" width="0.7" height="0.7"/>
		</g>
		<g transform="translate(624,192) scale(4.12)">
			<rect x="-134.5" y="-41.3" width="0.7" height="0.7"/>
		</g>
		<g transform="translate(240,216) scale(4.12)">
			<rect x="-51.6" y="-46.4" width="0.7" height="0.7"/>
		</g>
		<g transform="translate(336,216) scale(4.12)">
			<rect x="-72.3" y="-46.4" width="0.7" height="0.7"/>
		</g>
		<g transform="translate(384,216) scale(4.12)">
			<rect x="-82.7" y="-46.4" width="0.7" height="0.7"/>
		</g>
		<g transform="translate(408,216) scale(4.12)">
			<rect x="-87.9" y="-46.4" width="0.7" height="0.7"/>
		</g>
		<g transform="translate(504,216) scale(4.12)">
			<rect x="-108.6" y="-46.4" width="0.7" height="0.7"/>
		</g>
		<g transform="translate(552,216) scale(4.12)">
			<rect x="-118.9" y="-46.4" width="0.7" height="0.7"/>
		</g>
		<g transform="translate(576,216) scale(4.12)">
			<rect x="-124.1" y="-46.4" width="0.7" height="0.7"/>
		</g>
		<g transform="translate(600,216) scale(4.12)">
			<rect x="-129.3" y="-46.4" width="0.7" height="0.7"/>
		</g>
		<g transform="translate(96,240) scale(4.12)">
			<rect x="-20.6" y="-51.6" width="0.7" height="0.7"/>
		</g>
		<g transform="translate(120,240) scale(4.12)">
			<rect x="-25.7" y="-51.6" width="0.7" height="0.7"/>
		</g>
		<g transform="translate(144,240) scale(4.12)">
			<rect x="-30.9" y="-51.6" width="0.7" height="0.7"/>
		</g>
		<g transform="translate(192,240) scale(4.12)">
			<rect x="-41.3" y="-51.6" width="0.7" height="0.7"/>
		</g>
		<g transform="translate(240,240) scale(4.12)">
			<rect x="-51.6" y="-51.6" width="0.7" height="0.7"/>
		</g>
		<g transform="translate(264,240) scale(4.12)">
			<rect x="-56.8" y="-51.6" width="0.7" height="0.7"/>
		</g>
		<g transform="translate(312,240) scale(4.12)">
			<rect x="-67.2" y="-51.6" width="0.7" height="0.7"/>
		</g>
		<g transform="translate(336,240) scale(4.12)">
			<rect x="-72.3" y="-51.6" width="0.7" height="0.7"/>
		</g>
		<g transform="translate(384,240) scale(4.12)">
			<rect x="-82.7" y="-51.6" width="0.7" height="0.7"/>
		</g>
		<g transform="translate(432,240) scale(4.12)">
			<rect x="-93.1" y="-51.6" width="0.7" height="0.7"/>
		</g>
		<g transform="translate(576,240) scale(4.12)">
			<rect x="-124.1" y="-51.6" width="0.7" height="0.7"/>
		</g>
		<g transform="translate(600,240) scale(4.12)">
			<rect x="-129.3" y="-51.6" width="0.7" height="0.7"/>
		</g>
		<g transform="translate(624,240) scale(4.12)">
			<rect x="-134.5" y="-51.6" width="0.7" height="0.7"/>
		</g>
		<g transform="translate(648,240) scale(4.12)">
			<rect x="-139.7" y="-51.6" width="0.7" height="0.7"/>
		</g>
		<g transform="translate(672,240) scale(4.12)">
			<rect x="-144.8" y="-51.6" width="0.7" height="0.7"/>
		</g>
		<g transform="translate(696,240) scale(4.12)">
			<rect x="-150" y="-51.6" width="0.7" height="0.7"/>
		</g>
		<g transform="translate(768,240) scale(4.12)">
			<rect x="-165.6" y="-51.6" width="0.7" height="0.7"/>
		</g>
		<g transform="translate(792,240) scale(4.12)">
			<rect x="-170.7" y="-51.6" width="0.7" height="0.7"/>
		</g>
		<g transform="translate(816,240) scale(4.12)">
			<rect x="-175.9" y="-51.6" width="0.7" height="0.7"/>
		</g>
		<g transform="translate(48,264) scale(4.12)">
			<rect x="-10.2" y="-56.8" width="0.7" height="0.7"/>
		</g>
		<g transform="translate(216,264) scale(4.12)">
			<rect x="-46.4" y="-56.8" width="0.7" height="0.7"/>
		</g>
		<g transform="translate(240,264) scale(4.12)">
			<rect x="-51.6" y="-56.8" width="0.7" height="0.7"/>
		</g>
		<g transform="translate(264,264) scale(4.12)">
			<rect x="-56.8" y="-56.8" width="0.7" height="0.7"/>
		</g>
		<g transform="translate(312,264) scale(4.12)">
			<rect x="-67.2" y="-56.8" width="0.7" height="0.7"/>
		</g>
		<g transform="translate(456,264) scale(4.12)">
			<rect x="-98.2" y="-56.8" width="0.7" height="0.7"/>
		</g>
		<g transform="translate(600,264) scale(4.12)">
			<rect x="-129.3" y="-56.8" width="0.7" height="0.7"/>
		</g>
		<g transform="translate(624,264) scale(4.12)">
			<rect x="-134.5" y="-56.8" width="0.7" height="0.7"/>
		</g>
		<g transform="translate(648,264) scale(4.12)">
			<rect x="-139.7" y="-56.8" width="0.7" height="0.7"/>
		</g>
		<g transform="translate(672,264) scale(4.12)">
			<rect x="-144.8" y="-56.8" width="0.7" height="0.7"/>
		</g>
		<g transform="translate(768,264) scale(4.12)">
			<rect x="-165.6" y="-56.8" width="0.7" height="0.7"/>
		</g>
		<g transform="translate(816,264) scale(4.12)">
			<rect x="-175.9" y="-56.8" width="0.7" height="0.7"/>
		</g>
		<g transform="translate(48,288) scale(4.12)">
			<rect x="-10.2" y="-62" width="0.7" height="0.7"/>
		</g>
		<g transform="translate(120,288) scale(4.12)">
			<rect x="-25.7" y="-62" width="0.7" height="0.7"/>
		</g>
		<g transform="translate(168,288) scale(4.12)">
			<rect x="-36.1" y="-62" width="0.7" height="0.7"/>
		</g>
		<g transform="translate(192,288) scale(4.12)">
			<rect x="-41.3" y="-62" width="0.7" height="0.7"/>
		</g>
		<g transform="translate(216,288) scale(4.12)">
			<rect x="-46.4" y="-62" width="0.7" height="0.7"/>
		</g>
		<g transform="translate(240,288) scale(4.12)">
			<rect x="-51.6" y="-62" width="0.7" height="0.7"/>
		</g>
		<g transform="translate(264,288) scale(4.12)">
			<rect x="-56.8" y="-62" width="0.7" height="0.7"/>
		</g>
		<g transform="translate(312,288) scale(4.12)">
			<rect x="-67.2" y="-62" width="0.7" height="0.7"/>
		</g>
		<g transform="translate(336,288) scale(4.12)">
			<rect x="-72.3" y="-62" width="0.7" height="0.7"/>
		</g>
		<g transform="translate(360,288) scale(4.12)">
			<rect x="-77.5" y="-62" width="0.7" height="0.7"/>
		</g>
		<g transform="translate(384,288) scale(4.12)">
			<rect x="-82.7" y="-62" width="0.7" height="0.7"/>
		</g>
		<g transform="translate(408,288) scale(4.12)">
			<rect x="-87.9" y="-62" width="0.7" height="0.7"/>
		</g>
		<g transform="translate(432,288) scale(4.12)">
			<rect x="-93.1" y="-62" width="0.7" height="0.7"/>
		</g>
		<g transform="translate(456,288) scale(4.12)">
			<rect x="-98.2" y="-62" width="0.7" height="0.7"/>
		</g>
		<g transform="translate(576,288) scale(4.12)">
			<rect x="-124.1" y="-62" width="0.7" height="0.7"/>
		</g>
		<g transform="translate(648,288) scale(4.12)">
			<rect x="-139.7" y="-62" width="0.7" height="0.7"/>
		</g>
		<g transform="translate(672,288) scale(4.12)">
			<rect x="-144.8" y="-62" width="0.7" height="0.7"/>
		</g>
		<g transform="translate(696,288) scale(4.12)">
			<rect x="-150" y="-62" width="0.7" height="0.7"/>
		</g>
		<g transform="translate(744,288) scale(4.12)">
			<rect x="-160.4" y="-62" width="0.7" height="0.7"/>
		</g>
		<g transform="translate(792,288) scale(4.12)">
			<rect x="-170.7" y="-62" width="0.7" height="0.7"/>
		</g>
		<g transform="translate(48,312) scale(4.12)">
			<rect x="-10.2" y="-67.2" width="0.7" height="0.7"/>
		</g>
		<g transform="translate(72,312) scale(4.12)">
			<rect x="-15.4" y="-67.2" width="0.7" height="0.7"/>
		</g>
		<g transform="translate(96,312) scale(4.12)">
			<rect x="-20.6" y="-67.2" width="0.7" height="0.7"/>
		</g>
		<g transform="translate(120,312) scale(4.12)">
			<rect x="-25.7" y="-67.2" width="0.7" height="0.7"/>
		</g>
		<g transform="translate(288,312) scale(4.12)">
			<rect x="-62" y="-67.2" width="0.7" height="0.7"/>
		</g>
		<g transform="translate(480,312) scale(4.12)">
			<rect x="-103.4" y="-67.2" width="0.7" height="0.7"/>
		</g>
		<g transform="translate(528,312) scale(4.12)">
			<rect x="-113.8" y="-67.2" width="0.7" height="0.7"/>
		</g>
		<g transform="translate(600,312) scale(4.12)">
			<rect x="-129.3" y="-67.2" width="0.7" height="0.7"/>
		</g>
		<g transform="translate(672,312) scale(4.12)">
			<rect x="-144.8" y="-67.2" width="0.7" height="0.7"/>
		</g>
		<g transform="translate(744,312) scale(4.12)">
			<rect x="-160.4" y="-67.2" width="0.7" height="0.7"/>
		</g>
		<g transform="translate(768,312) scale(4.12)">
			<rect x="-165.6" y="-67.2" width="0.7" height="0.7"/>
		</g>
		<g transform="translate(792,312) scale(4.12)">
			<rect x="-170.7" y="-67.2" width="0.7" height="0.7"/>
		</g>
		<g transform="translate(72,336) scale(4.12)">
			<rect x="-15.4" y="-72.3" width="0.7" height="0.7"/>
		</g>
		<g transform="translate(120,336) scale(4.12)">
			<rect x="-25.7" y="-72.3" width="0.7" height="0.7"/>
		</g>
		<g transform="translate(192,336) scale(4.12)">
			<rect x="-41.3" y="-72.3" width="0.7" height="0.7"/>
		</g>
		<g transform="translate(240,336) scale(4.12)">
			<rect x="-51.6" y="-72.3" width="0.7" height="0.7"/>
		</g>
		<g transform="translate(552,336) scale(4.12)">
			<rect x="-118.9" y="-72.3" width="0.7" height="0.7"/>
		</g>
		<g transform="translate(576,336) scale(4.12)">
			<rect x="-124.1" y="-72.3" width="0.7" height="0.7"/>
		</g>
		<g transform="translate(624,336) scale(4.12)">
			<rect x="-134.5" y="-72.3" width="0.7" height="0.7"/>
		</g>
		<g transform="translate(648,336) scale(4.12)">
			<rect x="-139.7" y="-72.3" width="0.7" height="0.7"/>
		</g>
		<g transform="translate(720,336) scale(4.12)">
			<rect x="-155.2" y="-72.3" width="0.7" height="0.7"/>
		</g>
		<g transform="translate(48,360) scale(4.12)">
			<rect x="-10.2" y="-77.5" width="0.7" height="0.7"/>
		</g>
		<g transform="translate(96,360) scale(4.12)">
			<rect x="-20.6" y="-77.5" width="0.7" height="0.7"/>
		</g>
		<g transform="translate(120,360) scale(4.12)">
			<rect x="-25.7" y="-77.5" width="0.7" height="0.7"/>
		</g>
		<g transform="translate(144,360) scale(4.12)">
			<rect x="-30.9" y="-77.5" width="0.7" height="0.7"/>
		</g>
		<g transform="translate(240,360) scale(4.12)">
			<rect x="-51.6" y="-77.5" width="0.7" height="0.7"/>
		</g>
		<g transform="translate(288,360) scale(4.12)">
			<rect x="-62" y="-77.5" width="0.7" height="0.7"/>
		</g>
		<g transform="translate(312,360) scale(4.12)">
			<rect x="-67.2" y="-77.5" width="0.7" height="0.7"/>
		</g>
		<g transform="translate(600,360) scale(4.12)">
			<rect x="-129.3" y="-77.5" width="0.7" height="0.7"/>
		</g>
		<g transform="translate(648,360) scale(4.12)">
			<rect x="-139.7" y="-77.5" width="0.7" height="0.7"/>
		</g>
		<g transform="translate(672,360) scale(4.12)">
			<rect x="-144.8" y="-77.5" width="0.7" height="0.7"/>
		</g>
		<g transform="translate(744,360) scale(4.12)">
			<rect x="-160.4" y="-77.5" width="0.7" height="0.7"/>
		</g>
		<g transform="translate(816,360) scale(4.12)">
			<rect x="-175.9" y="-77.5" width="0.7" height="0.7"/>
		</g>
		<g transform="translate(72,384) scale(4.12)">
			<rect x="-15.4" y="-82.7" width="0.7" height="0.7"/>
		</g>
		<g transform="translate(96,384) scale(4.12)">
			<rect x="-20.6" y="-82.7" width="0.7" height="0.7"/>
		</g>
		<g transform="translate(120,384) scale(4.12)">
			<rect x="-25.7" y="-82.7" width="0.7" height="0.7"/>
		</g>
		<g transform="translate(144,384) scale(4.12)">
			<rect x="-30.9" y="-82.7" width="0.7" height="0.7"/>
		</g>
		<g transform="translate(192,384) scale(4.12)">
			<rect x="-41.3" y="-82.7" width="0.7" height="0.7"/>
		</g>
		<g transform="translate(216,384) scale(4.12)">
			<rect x="-46.4" y="-82.7" width="0.7" height="0.7"/>
		</g>
		<g transform="translate(240,384) scale(4.12)">
			<rect x="-51.6" y="-82.7" width="0.7" height="0.7"/>
		</g>
		<g transform="translate(312,384) scale(4.12)">
			<rect x="-67.2" y="-82.7" width="0.7" height="0.7"/>
		</g>
		<g transform="translate(576,384) scale(4.12)">
			<rect x="-124.1" y="-82.7" width="0.7" height="0.7"/>
		</g>
		<g transform="translate(648,384) scale(4.12)">
			<rect x="-139.7" y="-82.7" width="0.7" height="0.7"/>
		</g>
		<g transform="translate(672,384) scale(4.12)">
			<rect x="-144.8" y="-82.7" width="0.7" height="0.7"/>
		</g>
		<g transform="translate(744,384) scale(4.12)">
			<rect x="-160.4" y="-82.7" width="0.7" height="0.7"/>
		</g>
		<g transform="translate(792,384) scale(4.12)">
			<rect x="-170.7" y="-82.7" width="0.7" height="0.7"/>
		</g>
		<g transform="translate(72,408) scale(4.12)">
			<rect x="-15.4" y="-87.9" width="0.7" height="0.7"/>
		</g>
		<g transform="translate(96,408) scale(4.12)">
			<rect x="-20.6" y="-87.9" width="0.7" height="0.7"/>
		</g>
		<g transform="translate(144,408) scale(4.12)">
			<rect x="-30.9" y="-87.9" width="0.7" height="0.7"/>
		</g>
		<g transform="translate(168,408) scale(4.12)">
			<rect x="-36.1" y="-87.9" width="0.7" height="0.7"/>
		</g>
		<g transform="translate(216,408) scale(4.12)">
			<rect x="-46.4" y="-87.9" width="0.7" height="0.7"/>
		</g>
		<g transform="translate(288,408) scale(4.12)">
			<rect x="-62" y="-87.9" width="0.7" height="0.7"/>
		</g>
		<g transform="translate(312,408) scale(4.12)">
			<rect x="-67.2" y="-87.9" width="0.7" height="0.7"/>
		</g>
		<g transform="translate(552,408) scale(4.12)">
			<rect x="-118.9" y="-87.9" width="0.7" height="0.7"/>
		</g>
		<g transform="translate(576,408) scale(4.12)">
			<rect x="-124.1" y="-87.9" width="0.7" height="0.7"/>
		</g>
		<g transform="translate(600,408) scale(4.12)">
			<rect x="-129.3" y="-87.9" width="0.7" height="0.7"/>
		</g>
		<g transform="translate(624,408) scale(4.12)">
			<rect x="-134.5" y="-87.9" width="0.7" height="0.7"/>
		</g>
		<g transform="translate(672,408) scale(4.12)">
			<rect x="-144.8" y="-87.9" width="0.7" height="0.7"/>
		</g>
		<g transform="translate(744,408) scale(4.12)">
			<rect x="-160.4" y="-87.9" width="0.7" height="0.7"/>
		</g>
		<g transform="translate(768,408) scale(4.12)">
			<rect x="-165.6" y="-87.9" width="0.7" height="0.7"/>
		</g>
		<g transform="translate(120,432) scale(4.12)">
			<rect x="-25.7" y="-93.1" width="0.7" height="0.7"/>
		</g>
		<g transform="translate(144,432) scale(4.12)">
			<rect x="-30.9" y="-93.1" width="0.7" height="0.7"/>
		</g>
		<g transform="translate(168,432) scale(4.12)">
			<rect x="-36.1" y="-93.1" width="0.7" height="0.7"/>
		</g>
		<g transform="translate(192,432) scale(4.12)">
			<rect x="-41.3" y="-93.1" width="0.7" height="0.7"/>
		</g>
		<g transform="translate(312,432) scale(4.12)">
			<rect x="-67.2" y="-93.1" width="0.7" height="0.7"/>
		</g>
		<g transform="translate(648,432) scale(4.12)">
			<rect x="-139.7" y="-93.1" width="0.7" height="0.7"/>
		</g>
		<g transform="translate(696,432) scale(4.12)">
			<rect x="-150" y="-93.1" width="0.7" height="0.7"/>
		</g>
		<g transform="translate(720,432) scale(4.12)">
			<rect x="-155.2" y="-93.1" width="0.7" height="0.7"/>
		</g>
		<g transform="translate(744,432) scale(4.12)">
			<rect x="-160.4" y="-93.1" width="0.7" height="0.7"/>
		</g>
		<g transform="translate(48,456) scale(4.12)">
			<rect x="-10.2" y="-98.2" width="0.7" height="0.7"/>
		</g>
		<g transform="translate(96,456) scale(4.12)">
			<rect x="-20.6" y="-98.2" width="0.7" height="0.7"/>
		</g>
		<g transform="translate(216,456) scale(4.12)">
			<rect x="-46.4" y="-98.2" width="0.7" height="0.7"/>
		</g>
		<g transform="translate(264,456) scale(4.12)">
			<rect x="-56.8" y="-98.2" width="0.7" height="0.7"/>
		</g>
		<g transform="translate(288,456) scale(4.12)">
			<rect x="-62" y="-98.2" width="0.7" height="0.7"/>
		</g>
		<g transform="translate(312,456) scale(4.12)">
			<rect x="-67.2" y="-98.2" width="0.7" height="0.7"/>
		</g>
		<g transform="translate(552,456) scale(4.12)">
			<rect x="-118.9" y="-98.2" width="0.7" height="0.7"/>
		</g>
		<g transform="translate(600,456) scale(4.12)">
			<rect x="-129.3" y="-98.2" width="0.7" height="0.7"/>
		</g>
		<g transform="translate(624,456) scale(4.12)">
			<rect x="-134.5" y="-98.2" width="0.7" height="0.7"/>
		</g>
		<g transform="translate(648,456) scale(4.12)">
			<rect x="-139.7" y="-98.2" width="0.7" height="0.7"/>
		</g>
		<g transform="translate(672,456) scale(4.12)">
			<rect x="-144.8" y="-98.2" width="0.7" height="0.7"/>
		</g>
		<g transform="translate(696,456) scale(4.12)">
			<rect x="-150" y="-98.2" width="0.7" height="0.7"/>
		</g>
		<g transform="translate(816,456) scale(4.12)">
			<rect x="-175.9" y="-98.2" width="0.7" height="0.7"/>
		</g>
		<g transform="translate(48,480) scale(4.12)">
			<rect x="-10.2" y="-103.4" width="0.7" height="0.7"/>
		</g>
		<g transform="translate(72,480) scale(4.12)">
			<rect x="-15.4" y="-103.4" width="0.7" height="0.7"/>
		</g>
		<g transform="translate(120,480) scale(4.12)">
			<rect x="-25.7" y="-103.4" width="0.7" height="0.7"/>
		</g>
		<g transform="translate(144,480) scale(4.12)">
			<rect x="-30.9" y="-103.4" width="0.7" height="0.7"/>
		</g>
		<g transform="translate(192,480) scale(4.12)">
			<rect x="-41.3" y="-103.4" width="0.7" height="0.7"/>
		</g>
		<g transform="translate(216,480) scale(4.12)">
			<rect x="-46.4" y="-103.4" width="0.7" height="0.7"/>
		</g>
		<g transform="translate(240,480) scale(4.12)">
			<rect x="-51.6" y="-103.4" width="0.7" height="0.7"/>
		</g>
		<g transform="translate(552,480) scale(4.12)">
			<rect x="-118.9" y="-103.4" width="0.7" height="0.7"/>
		</g>
		<g transform="translate(576,480) scale(4.12)">
			<rect x="-124.1" y="-103.4" width="0.7" height="0.7"/>
		</g>
		<g transform="translate(768,480) scale(4.12)">
			<rect x="-165.6" y="-103.4" width="0.7" height="0.7"/>
		</g>
		<g transform="translate(72,504) scale(4.12)">
			<rect x="-15.4" y="-108.6" width="0.7" height="0.7"/>
		</g>
		<g transform="translate(96,504) scale(4.12)">
			<rect x="-20.6" y="-108.6" width="0.7" height="0.7"/>
		</g>
		<g transform="translate(120,504) scale(4.12)">
			<rect x="-25.7" y="-108.6" width="0.7" height="0.7"/>
		</g>
		<g transform="translate(144,504) scale(4.12)">
			<rect x="-30.9" y="-108.6" width="0.7" height="0.7"/>
		</g>
		<g transform="translate(168,504) scale(4.12)">
			<rect x="-36.1" y="-108.6" width="0.7" height="0.7"/>
		</g>
		<g transform="translate(216,504) scale(4.12)">
			<rect x="-46.4" y="-108.6" width="0.7" height="0.7"/>
		</g>
		<g transform="translate(264,504) scale(4.12)">
			<rect x="-56.8" y="-108.6" width="0.7" height="0.7"/>
		</g>
		<g transform="translate(552,504) scale(4.12)">
			<rect x="-118.9" y="-108.6" width="0.7" height="0.7"/>
		</g>
		<g transform="translate(600,504) scale(4.12)">
			<rect x="-129.3" y="-108.6" width="0.7" height="0.7"/>
		</g>
		<g transform="translate(624,504) scale(4.12)">
			<rect x="-134.5" y="-108.6" width="0.7" height="0.7"/>
		</g>
		<g transform="translate(672,504) scale(4.12)">
			<rect x="-144.8" y="-108.6" width="0.7" height="0.7"/>
		</g>
		<g transform="translate(720,504) scale(4.12)">
			<rect x="-155.2" y="-108.6" width="0.7" height="0.7"/>
		</g>
		<g transform="translate(744,504) scale(4.12)">
			<rect x="-160.4" y="-108.6" width="0.7" height="0.7"/>
		</g>
		<g transform="translate(768,504) scale(4.12)">
			<rect x="-165.6" y="-108.6" width="0.7" height="0.7"/>
		</g>
		<g transform="translate(792,504) scale(4.12)">
			<rect x="-170.7" y="-108.6" width="0.7" height="0.7"/>
		</g>
		<g transform="translate(72,528) scale(4.12)">
			<rect x="-15.4" y="-113.8" width="0.7" height="0.7"/>
		</g>
		<g transform="translate(96,528) scale(4.12)">
			<rect x="-20.6" y="-113.8" width="0.7" height="0.7"/>
		</g>
		<g transform="translate(192,528) scale(4.12)">
			<rect x="-41.3" y="-113.8" width="0.7" height="0.7"/>
		</g>
		<g transform="translate(240,528) scale(4.12)">
			<rect x="-51.6" y="-113.8" width="0.7" height="0.7"/>
		</g>
		<g transform="translate(624,528) scale(4.12)">
			<rect x="-134.5" y="-113.8" width="0.7" height="0.7"/>
		</g>
		<g transform="translate(648,528) scale(4.12)">
			<rect x="-139.7" y="-113.8" width="0.7" height="0.7"/>
		</g>
		<g transform="translate(696,528) scale(4.12)">
			<rect x="-150" y="-113.8" width="0.7" height="0.7"/>
		</g>
		<g transform="translate(720,528) scale(4.12)">
			<rect x="-155.2" y="-113.8" width="0.7" height="0.7"/>
		</g>
		<g transform="translate(744,528) scale(4.12)">
			<rect x="-160.4" y="-113.8" width="0.7" height="0.7"/>
		</g>
		<g transform="translate(816,528) scale(4.12)">
			<rect x="-175.9" y="-113.8" width="0.7" height="0.7"/>
		</g>
		<g transform="translate(48,552) scale(4.12)">
			<rect x="-10.2" y="-118.9" width="0.7" height="0.7"/>
		</g>
		<g transform="translate(72,552) scale(4.12)">
			<rect x="-15.4" y="-118.9" width="0.7" height="0.7"/>
		</g>
		<g transform="translate(96,552) scale(4.12)">
			<rect x="-20.6" y="-118.9" width="0.7" height="0.7"/>
		</g>
		<g transform="translate(144,552) scale(4.12)">
			<rect x="-30.9" y="-118.9" width="0.7" height="0.7"/>
		</g>
		<g transform="translate(216,552) scale(4.12)">
			<rect x="-46.4" y="-118.9" width="0.7" height="0.7"/>
		</g>
		<g transform="translate(264,552) scale(4.12)">
			<rect x="-56.8" y="-118.9" width="0.7" height="0.7"/>
		</g>
		<g transform="translate(288,552) scale(4.12)">
			<rect x="-62" y="-118.9" width="0.7" height="0.7"/>
		</g>
		<g transform="translate(360,552) scale(4.12)">
			<rect x="-77.5" y="-118.9" width="0.7" height="0.7"/>
		</g>
		<g transform="translate(384,552) scale(4.12)">
			<rect x="-82.7" y="-118.9" width="0.7" height="0.7"/>
		</g>
		<g transform="translate(408,552) scale(4.12)">
			<rect x="-87.9" y="-118.9" width="0.7" height="0.7"/>
		</g>
		<g transform="translate(432,552) scale(4.12)">
			<rect x="-93.1" y="-118.9" width="0.7" height="0.7"/>
		</g>
		<g transform="translate(504,552) scale(4.12)">
			<rect x="-108.6" y="-118.9" width="0.7" height="0.7"/>
		</g>
		<g transform="translate(552,552) scale(4.12)">
			<rect x="-118.9" y="-118.9" width="0.7" height="0.7"/>
		</g>
		<g transform="translate(600,552) scale(4.12)">
			<rect x="-129.3" y="-118.9" width="0.7" height="0.7"/>
		</g>
		<g transform="translate(624,552) scale(4.12)">
			<rect x="-134.5" y="-118.9" width="0.7" height="0.7"/>
		</g>
		<g transform="translate(672,552) scale(4.12)">
			<rect x="-144.8" y="-118.9" width="0.7" height="0.7"/>
		</g>
		<g transform="translate(696,552) scale(4.12)">
			<rect x="-150" y="-118.9" width="0.7" height="0.7"/>
		</g>
		<g transform="translate(816,552) scale(4.12)">
			<rect x="-175.9" y="-118.9" width="0.7" height="0.7"/>
		</g>
		<g transform="translate(48,576) scale(4.12)">
			<rect x="-10.2" y="-124.1" width="0.7" height="0.7"/>
		</g>
		<g transform="translate(96,576) scale(4.12)">
			<rect x="-20.6" y="-124.1" width="0.7" height="0.7"/>
		</g>
		<g transform="translate(144,576) scale(4.12)">
			<rect x="-30.9" y="-124.1" width="0.7" height="0.7"/>
		</g>
		<g transform="translate(168,576) scale(4.12)">
			<rect x="-36.1" y="-124.1" width="0.7" height="0.7"/>
		</g>
		<g transform="translate(192,576) scale(4.12)">
			<rect x="-41.3" y="-124.1" width="0.7" height="0.7"/>
		</g>
		<g transform="translate(240,576) scale(4.12)">
			<rect x="-51.6" y="-124.1" width="0.7" height="0.7"/>
		</g>
		<g transform="translate(336,576) scale(4.12)">
			<rect x="-72.3" y="-124.1" width="0.7" height="0.7"/>
		</g>
		<g transform="translate(360,576) scale(4.12)">
			<rect x="-77.5" y="-124.1" width="0.7" height="0.7"/>
		</g>
		<g transform="translate(384,576) scale(4.12)">
			<rect x="-82.7" y="-124.1" width="0.7" height="0.7"/>
		</g>
		<g transform="translate(408,576) scale(4.12)">
			<rect x="-87.9" y="-124.1" width="0.7" height="0.7"/>
		</g>
		<g transform="translate(456,576) scale(4.12)">
			<rect x="-98.2" y="-124.1" width="0.7" height="0.7"/>
		</g>
		<g transform="translate(480,576) scale(4.12)">
			<rect x="-103.4" y="-124.1" width="0.7" height="0.7"/>
		</g>
		<g transform="translate(504,576) scale(4.12)">
			<rect x="-108.6" y="-124.1" width="0.7" height="0.7"/>
		</g>
		<g transform="translate(552,576) scale(4.12)">
			<rect x="-118.9" y="-124.1" width="0.7" height="0.7"/>
		</g>
		<g transform="translate(624,576) scale(4.12)">
			<rect x="-134.5" y="-124.1" width="0.7" height="0.7"/>
		</g>
		<g transform="translate(696,576) scale(4.12)">
			<rect x="-150" y="-124.1" width="0.7" height="0.7"/>
		</g>
		<g transform="translate(744,576) scale(4.12)">
			<rect x="-160.4" y="-124.1" width="0.7" height="0.7"/>
		</g>
		<g transform="translate(768,576) scale(4.12)">
			<rect x="-165.6" y="-124.1" width="0.7" height="0.7"/>
		</g>
		<g transform="translate(792,576) scale(4.12)">
			<rect x="-170.7" y="-124.1" width="0.7" height="0.7"/>
		</g>
		<g transform="translate(48,600) scale(4.12)">
			<rect x="-10.2" y="-129.3" width="0.7" height="0.7"/>
		</g>
		<g transform="translate(96,600) scale(4.12)">
			<rect x="-20.6" y="-129.3" width="0.7" height="0.7"/>
		</g>
		<g transform="translate(120,600) scale(4.12)">
			<rect x="-25.7" y="-129.3" width="0.7" height="0.7"/>
		</g>
		<g transform="translate(168,600) scale(4.12)">
			<rect x="-36.1" y="-129.3" width="0.7" height="0.7"/>
		</g>
		<g transform="translate(240,600) scale(4.12)">
			<rect x="-51.6" y="-129.3" width="0.7" height="0.7"/>
		</g>
		<g transform="translate(264,600) scale(4.12)">
			<rect x="-56.8" y="-129.3" width="0.7" height="0.7"/>
		</g>
		<g transform="translate(336,600) scale(4.12)">
			<rect x="-72.3" y="-129.3" width="0.7" height="0.7"/>
		</g>
		<g transform="translate(360,600) scale(4.12)">
			<rect x="-77.5" y="-129.3" width="0.7" height="0.7"/>
		</g>
		<g transform="translate(384,600) scale(4.12)">
			<rect x="-82.7" y="-129.3" width="0.7" height="0.7"/>
		</g>
		<g transform="translate(408,600) scale(4.12)">
			<rect x="-87.9" y="-129.3" width="0.7" height="0.7"/>
		</g>
		<g transform="translate(432,600) scale(4.12)">
			<rect x="-93.1" y="-129.3" width="0.7" height="0.7"/>
		</g>
		<g transform="translate(456,600) scale(4.12)">
			<rect x="-98.2" y="-129.3" width="0.7" height="0.7"/>
		</g>
		<g transform="translate(552,600) scale(4.12)">
			<rect x="-118.9" y="-129.3" width="0.7" height="0.7"/>
		</g>
		<g transform="translate(576,600) scale(4.12)">
			<rect x="-124.1" y="-129.3" width="0.7" height="0.7"/>
		</g>
		<g transform="translate(600,600) scale(4.12)">
			<rect x="-129.3" y="-129.3" width="0.7" height="0.7"/>
		</g>
		<g transform="translate(768,600) scale(4.12)">
			<rect x="-165.6" y="-129.3" width="0.7" height="0.7"/>
		</g>
		<g transform="translate(816,600) scale(4.12)">
			<rect x="-175.9" y="-129.3" width="0.7" height="0.7"/>
		</g>
		<g transform="translate(48,624) scale(4.12)">
			<rect x="-10.2" y="-134.5" width="0.7" height="0.7"/>
		</g>
		<g transform="translate(96,624) scale(4.12)">
			<rect x="-20.6" y="-134.5" width="0.7" height="0.7"/>
		</g>
		<g transform="translate(120,624) scale(4.12)">
			<rect x="-25.7" y="-134.5" width="0.7" height="0.7"/>
		</g>
		<g transform="translate(168,624) scale(4.12)">
			<rect x="-36.1" y="-134.5" width="0.7" height="0.7"/>
		</g>
		<g transform="translate(192,624) scale(4.12)">
			<rect x="-41.3" y="-134.5" width="0.7" height="0.7"/>
		</g>
		<g transform="translate(264,624) scale(4.12)">
			<rect x="-56.8" y="-134.5" width="0.7" height="0.7"/>
		</g>
		<g transform="translate(288,624) scale(4.12)">
			<rect x="-62" y="-134.5" width="0.7" height="0.7"/>
		</g>
		<g transform="translate(336,624) scale(4.12)">
			<rect x="-72.3" y="-134.5" width="0.7" height="0.7"/>
		</g>
		<g transform="translate(408,624) scale(4.12)">
			<rect x="-87.9" y="-134.5" width="0.7" height="0.7"/>
		</g>
		<g transform="translate(432,624) scale(4.12)">
			<rect x="-93.1" y="-134.5" width="0.7" height="0.7"/>
		</g>
		<g transform="translate(456,624) scale(4.12)">
			<rect x="-98.2" y="-134.5" width="0.7" height="0.7"/>
		</g>
		<g transform="translate(480,624) scale(4.12)">
			<rect x="-103.4" y="-134.5" width="0.7" height="0.7"/>
		</g>
		<g transform="translate(504,624) scale(4.12)">
			<rect x="-108.6" y="-134.5" width="0.7" height="0.7"/>
		</g>
		<g transform="translate(576,624) scale(4.12)">
			<rect x="-124.1" y="-134.5" width="0.7" height="0.7"/>
		</g>
		<g transform="translate(600,624) scale(4.12)">
			<rect x="-129.3" y="-134.5" width="0.7" height="0.7"/>
		</g>
		<g transform="translate(624,624) scale(4.12)">
			<rect x="-134.5" y="-134.5" width="0.7" height="0.7"/>
		</g>
		<g transform="translate(648,624) scale(4.12)">
			<rect x="-139.7" y="-134.5" width="0.7" height="0.7"/>
		</g>
		<g transform="translate(672,624) scale(4.12)">
			<rect x="-144.8" y="-134.5" width="0.7" height="0.7"/>
		</g>
		<g transform="translate(696,624) scale(4.12)">
			<rect x="-150" y="-134.5" width="0.7" height="0.7"/>
		</g>
		<g transform="translate(720,624) scale(4.12)">
			<rect x="-155.2" y="-134.5" width="0.7" height="0.7"/>
		</g>
		<g transform="translate(744,624) scale(4.12)">
			<rect x="-160.4" y="-134.5" width="0.7" height="0.7"/>
		</g>
		<g transform="translate(792,624) scale(4.12)">
			<rect x="-170.7" y="-134.5" width="0.7" height="0.7"/>
		</g>
		<g transform="translate(816,624) scale(4.12)">
			<rect x="-175.9" y="-134.5" width="0.7" height="0.7"/>
		</g>
		<g transform="translate(240,648) scale(4.12)">
			<rect x="-51.6" y="-139.7" width="0.7" height="0.7"/>
		</g>
		<g transform="translate(384,648) scale(4.12)">
			<rect x="-82.7" y="-139.7" width="0.7" height="0.7"/>
		</g>
		<g transform="translate(408,648) scale(4.12)">
			<rect x="-87.9" y="-139.7" width="0.7" height="0.7"/>
		</g>
		<g transform="translate(432,648) scale(4.12)">
			<rect x="-93.1" y="-139.7" width="0.7" height="0.7"/>
		</g>
		<g transform="translate(480,648) scale(4.12)">
			<rect x="-103.4" y="-139.7" width="0.7" height="0.7"/>
		</g>
		<g transform="translate(528,648) scale(4.12)">
			<rect x="-113.8" y="-139.7" width="0.7" height="0.7"/>
		</g>
		<g transform="translate(552,648) scale(4.12)">
			<rect x="-118.9" y="-139.7" width="0.7" height="0.7"/>
		</g>
		<g transform="translate(600,648) scale(4.12)">
			<rect x="-129.3" y="-139.7" width="0.7" height="0.7"/>
		</g>
		<g transform="translate(624,648) scale(4.12)">
			<rect x="-134.5" y="-139.7" width="0.7" height="0.7"/>
		</g>
		<g transform="translate(720,648) scale(4.12)">
			<rect x="-155.2" y="-139.7" width="0.7" height="0.7"/>
		</g>
		<g transform="translate(744,648) scale(4.12)">
			<rect x="-160.4" y="-139.7" width="0.7" height="0.7"/>
		</g>
		<g transform="translate(816,648) scale(4.12)">
			<rect x="-175.9" y="-139.7" width="0.7" height="0.7"/>
		</g>
		<g transform="translate(312,672) scale(4.12)">
			<rect x="-67.2" y="-144.8" width="0.7" height="0.7"/>
		</g>
		<g transform="translate(336,672) scale(4.12)">
			<rect x="-72.3" y="-144.8" width="0.7" height="0.7"/>
		</g>
		<g transform="translate(360,672) scale(4.12)">
			<rect x="-77.5" y="-144.8" width="0.7" height="0.7"/>
		</g>
		<g transform="translate(384,672) scale(4.12)">
			<rect x="-82.7" y="-144.8" width="0.7" height="0.7"/>
		</g>
		<g transform="translate(432,672) scale(4.12)">
			<rect x="-93.1" y="-144.8" width="0.7" height="0.7"/>
		</g>
		<g transform="translate(456,672) scale(4.12)">
			<rect x="-98.2" y="-144.8" width="0.7" height="0.7"/>
		</g>
		<g transform="translate(480,672) scale(4.12)">
			<rect x="-103.4" y="-144.8" width="0.7" height="0.7"/>
		</g>
		<g transform="translate(504,672) scale(4.12)">
			<rect x="-108.6" y="-144.8" width="0.7" height="0.7"/>
		</g>
		<g transform="translate(528,672) scale(4.12)">
			<rect x="-113.8" y="-144.8" width="0.7" height="0.7"/>
		</g>
		<g transform="translate(552,672) scale(4.12)">
			<rect x="-118.9" y="-144.8" width="0.7" height="0.7"/>
		</g>
		<g transform="translate(600,672) scale(4.12)">
			<rect x="-129.3" y="-144.8" width="0.7" height="0.7"/>
		</g>
		<g transform="translate(624,672) scale(4.12)">
			<rect x="-134.5" y="-144.8" width="0.7" height="0.7"/>
		</g>
		<g transform="translate(672,672) scale(4.12)">
			<rect x="-144.8" y="-144.8" width="0.7" height="0.7"/>
		</g>
		<g transform="translate(720,672) scale(4.12)">
			<rect x="-155.2" y="-144.8" width="0.7" height="0.7"/>
		</g>
		<g transform="translate(744,672) scale(4.12)">
			<rect x="-160.4" y="-144.8" width="0.7" height="0.7"/>
		</g>
		<g transform="translate(792,672) scale(4.12)">
			<rect x="-170.7" y="-144.8" width="0.7" height="0.7"/>
		</g>
		<g transform="translate(264,696) scale(4.12)">
			<rect x="-56.8" y="-150" width="0.7" height="0.7"/>
		</g>
		<g transform="translate(288,696) scale(4.12)">
			<rect x="-62" y="-150" width="0.7" height="0.7"/>
		</g>
		<g transform="translate(312,696) scale(4.12)">
			<rect x="-67.2" y="-150" width="0.7" height="0.7"/>
		</g>
		<g transform="translate(360,696) scale(4.12)">
			<rect x="-77.5" y="-150" width="0.7" height="0.7"/>
		</g>
		<g transform="translate(408,696) scale(4.12)">
			<rect x="-87.9" y="-150" width="0.7" height="0.7"/>
		</g>
		<g transform="translate(432,696) scale(4.12)">
			<rect x="-93.1" y="-150" width="0.7" height="0.7"/>
		</g>
		<g transform="translate(504,696) scale(4.12)">
			<rect x="-108.6" y="-150" width="0.7" height="0.7"/>
		</g>
		<g transform="translate(552,696) scale(4.12)">
			<rect x="-118.9" y="-150" width="0.7" height="0.7"/>
		</g>
		<g transform="translate(576,696) scale(4.12)">
			<rect x="-124.1" y="-150" width="0.7" height="0.7"/>
		</g>
		<g transform="translate(600,696) scale(4.12)">
			<rect x="-129.3" y="-150" width="0.7" height="0.7"/>
		</g>
		<g transform="translate(624,696) scale(4.12)">
			<rect x="-134.5" y="-150" width="0.7" height="0.7"/>
		</g>
		<g transform="translate(720,696) scale(4.12)">
			<rect x="-155.2" y="-150" width="0.7" height="0.7"/>
		</g>
		<g transform="translate(744,696) scale(4.12)">
			<rect x="-160.4" y="-150" width="0.7" height="0.7"/>
		</g>
		<g transform="translate(768,696) scale(4.12)">
			<rect x="-165.6" y="-150" width="0.7" height="0.7"/>
		</g>
		<g transform="translate(792,696) scale(4.12)">
			<rect x="-170.7" y="-150" width="0.7" height="0.7"/>
		</g>
		<g transform="translate(816,696) scale(4.12)">
			<rect x="-175.9" y="-150" width="0.7" height="0.7"/>
		</g>
		<g transform="translate(240,720) scale(4.12)">
			<rect x="-51.6" y="-155.2" width="0.7" height="0.7"/>
		</g>
		<g transform="translate(264,720) scale(4.12)">
			<rect x="-56.8" y="-155.2" width="0.7" height="0.7"/>
		</g>
		<g transform="translate(336,720) scale(4.12)">
			<rect x="-72.3" y="-155.2" width="0.7" height="0.7"/>
		</g>
		<g transform="translate(360,720) scale(4.12)">
			<rect x="-77.5" y="-155.2" width="0.7" height="0.7"/>
		</g>
		<g transform="translate(384,720) scale(4.12)">
			<rect x="-82.7" y="-155.2" width="0.7" height="0.7"/>
		</g>
		<g transform="translate(408,720) scale(4.12)">
			<rect x="-87.9" y="-155.2" width="0.7" height="0.7"/>
		</g>
		<g transform="translate(456,720) scale(4.12)">
			<rect x="-98.2" y="-155.2" width="0.7" height="0.7"/>
		</g>
		<g transform="translate(504,720) scale(4.12)">
			<rect x="-108.6" y="-155.2" width="0.7" height="0.7"/>
		</g>
		<g transform="translate(528,720) scale(4.12)">
			<rect x="-113.8" y="-155.2" width="0.7" height="0.7"/>
		</g>
		<g transform="translate(552,720) scale(4.12)">
			<rect x="-118.9" y="-155.2" width="0.7" height="0.7"/>
		</g>
		<g transform="translate(624,720) scale(4.12)">
			<rect x="-134.5" y="-155.2" width="0.7" height="0.7"/>
		</g>
		<g transform="translate(648,720) scale(4.12)">
			<rect x="-139.7" y="-155.2" width="0.7" height="0.7"/>
		</g>
		<g transform="translate(672,720) scale(4.12)">
			<rect x="-144.8" y="-155.2" width="0.7" height="0.7"/>
		</g>
		<g transform="translate(696,720) scale(4.12)">
			<rect x="-150" y="-155.2" width="0.7" height="0.7"/>
		</g>
		<g transform="translate(720,720) scale(4.12)">
			<rect x="-155.2" y="-155.2" width="0.7" height="0.7"/>
		</g>
		<g transform="translate(792,720) scale(4.12)">
			<rect x="-170.7" y="-155.2" width="0.7" height="0.7"/>
		</g>
		<g transform="translate(816,720) scale(4.12)">
			<rect x="-175.9" y="-155.2" width="0.7" height="0.7"/>
		</g>
		<g transform="translate(240,744) scale(4.12)">
			<rect x="-51.6" y="-160.4" width="0.7" height="0.7"/>
		</g>
		<g transform="translate(288,744) scale(4.12)">
			<rect x="-62" y="-160.4" width="0.7" height="0.7"/>
		</g>
		<g transform="translate(336,744) scale(4.12)">
			<rect x="-72.3" y="-160.4" width="0.7" height="0.7"/>
		</g>
		<g transform="translate(384,744) scale(4.12)">
			<rect x="-82.7" y="-160.4" width="0.7" height="0.7"/>
		</g>
		<g transform="translate(408,744) scale(4.12)">
			<rect x="-87.9" y="-160.4" width="0.7" height="0.7"/>
		</g>
		<g transform="translate(432,744) scale(4.12)">
			<rect x="-93.1" y="-160.4" width="0.7" height="0.7"/>
		</g>
		<g transform="translate(456,744) scale(4.12)">
			<rect x="-98.2" y="-160.4" width="0.7" height="0.7"/>
		</g>
		<g transform="translate(480,744) scale(4.12)">
			<rect x="-103.4" y="-160.4" width="0.7" height="0.7"/>
		</g>
		<g transform="translate(528,744) scale(4.12)">
			<rect x="-113.8" y="-160.4" width="0.7" height="0.7"/>
		</g>
		<g transform="translate(552,744) scale(4.12)">
			<rect x="-118.9" y="-160.4" width="0.7" height="0.7"/>
		</g>
		<g transform="translate(576,744) scale(4.12)">
			<rect x="-124.1" y="-160.4" width="0.7" height="0.7"/>
		</g>
		<g transform="translate(624,744) scale(4.12)">
			<rect x="-134.5" y="-160.4" width="0.7" height="0.7"/>
		</g>
		<g transform="translate(648,744) scale(4.12)">
			<rect x="-139.7" y="-160.4" width="0.7" height="0.7"/>
		</g>
		<g transform="translate(720,744) scale(4.12)">
			<rect x="-155.2" y="-160.4" width="0.7" height="0.7"/>
		</g>
		<g transform="translate(744,744) scale(4.12)">
			<rect x="-160.4" y="-160.4" width="0.7" height="0.7"/>
		</g>
		<g transform="translate(768,744) scale(4.12)">
			<rect x="-165.6" y="-160.4" width="0.7" height="0.7"/>
		</g>
		<g transform="translate(816,744) scale(4.12)">
			<rect x="-175.9" y="-160.4" width="0.7" height="0.7"/>
		</g>
		<g transform="translate(240,768) scale(4.12)">
			<rect x="-51.6" y="-165.6" width="0.7" height="0.7"/>
		</g>
		<g transform="translate(264,768) scale(4.12)">
			<rect x="-56.8" y="-165.6" width="0.7" height="0.7"/>
		</g>
		<g transform="translate(288,768) scale(4.12)">
			<rect x="-62" y="-165.6" width="0.7" height="0.7"/>
		</g>
		<g transform="translate(336,768) scale(4.12)">
			<rect x="-72.3" y="-165.6" width="0.7" height="0.7"/>
		</g>
		<g transform="translate(360,768) scale(4.12)">
			<rect x="-77.5" y="-165.6" width="0.7" height="0.7"/>
		</g>
		<g transform="translate(384,768) scale(4.12)">
			<rect x="-82.7" y="-165.6" width="0.7" height="0.7"/>
		</g>
		<g transform="translate(408,768) scale(4.12)">
			<rect x="-87.9" y="-165.6" width="0.7" height="0.7"/>
		</g>
		<g transform="translate(504,768) scale(4.12)">
			<rect x="-108.6" y="-165.6" width="0.7" height="0.7"/>
		</g>
		<g transform="translate(528,768) scale(4.12)">
			<rect x="-113.8" y="-165.6" width="0.7" height="0.7"/>
		</g>
		<g transform="translate(552,768) scale(4.12)">
			<rect x="-118.9" y="-165.6" width="0.7" height="0.7"/>
		</g>
		<g transform="translate(576,768) scale(4.12)">
			<rect x="-124.1" y="-165.6" width="0.7" height="0.7"/>
		</g>
		<g transform="translate(600,768) scale(4.12)">
			<rect x="-129.3" y="-165.6" width="0.7" height="0.7"/>
		</g>
		<g transform="translate(624,768) scale(4.12)">
			<rect x="-134.5" y="-165.6" width="0.7" height="0.7"/>
		</g>
		<g transform="translate(648,768) scale(4.12)">
			<rect x="-139.7" y="-165.6" width="0.7" height="0.7"/>
		</g>
		<g transform="translate(672,768) scale(4.12)">
			<rect x="-144.8" y="-165.6" width="0.7" height="0.7"/>
		</g>
		<g transform="translate(768,768) scale(4.12)">
			<rect x="-165.6" y="-165.6" width="0.7" height="0.7"/>
		</g>
		<g transform="translate(336,792) scale(4.12)">
			<rect x="-72.3" y="-170.7" width="0.7" height="0.7"/>
		</g>
		<g transform="translate(408,792) scale(4.12)">
			<rect x="-87.9" y="-170.7" width="0.7" height="0.7"/>
		</g>
		<g transform="translate(456,792) scale(4.12)">
			<rect x="-98.2" y="-170.7" width="0.7" height="0.7"/>
		</g>
		<g transform="translate(528,792) scale(4.12)">
			<rect x="-113.8" y="-170.7" width="0.7" height="0.7"/>
		</g>
		<g transform="translate(552,792) scale(4.12)">
			<rect x="-118.9" y="-170.7" width="0.7" height="0.7"/>
		</g>
		<g transform="translate(576,792) scale(4.12)">
			<rect x="-124.1" y="-170.7" width="0.7" height="0.7"/>
		</g>
		<g transform="translate(600,792) scale(4.12)">
			<rect x="-129.3" y="-170.7" width="0.7" height="0.7"/>
		</g>
		<g transform="translate(672,792) scale(4.12)">
			<rect x="-144.8" y="-170.7" width="0.7" height="0.7"/>
		</g>
		<g transform="translate(696,792) scale(4.12)">
			<rect x="-150" y="-170.7" width="0.7" height="0.7"/>
		</g>
		<g transform="translate(744,792) scale(4.12)">
			<rect x="-160.4" y="-170.7" width="0.7" height="0.7"/>
		</g>
		<g transform="translate(768,792) scale(4.12)">
			<rect x="-165.6" y="-170.7" width="0.7" height="0.7"/>
		</g>
		<g transform="translate(264,816) scale(4.12)">
			<rect x="-56.8" y="-175.9" width="0.7" height="0.7"/>
		</g>
		<g transform="translate(288,816) scale(4.12)">
			<rect x="-62" y="-175.9" width="0.7" height="0.7"/>
		</g>
		<g transform="translate(312,816) scale(4.12)">
			<rect x="-67.2" y="-175.9" width="0.7" height="0.7"/>
		</g>
		<g transform="translate(360,816) scale(4.12)">
			<rect x="-77.5" y="-175.9" width="0.7" height="0.7"/>
		</g>
		<g transform="translate(432,816) scale(4.12)">
			<rect x="-93.1" y="-175.9" width="0.7" height="0.7"/>
		</g>
		<g transform="translate(456,816) scale(4.12)">
			<rect x="-98.2" y="-175.9" width="0.7" height="0.7"/>
		</g>
		<g transform="translate(552,816) scale(4.12)">
			<rect x="-118.9" y="-175.9" width="0.7" height="0.7"/>
		</g>
		<g transform="translate(600,816) scale(4.12)">
			<rect x="-129.3" y="-175.9" width="0.7" height="0.7"/>
		</g>
		<g transform="translate(624,816) scale(4.12)">
			<rect x="-134.5" y="-175.9" width="0.7" height="0.7"/>
		</g>
		<g transform="translate(648,816) scale(4.12)">
			<rect x="-139.7" y="-175.9" width="0.7" height="0.7"/>
		</g>
		<g transform="translate(744,816) scale(4.12)">
			<rect x="-160.4" y="-175.9" width="0.7" height="0.7"/>
		</g>
		<g transform="translate(792,816) scale(4.12)">
			<rect x="-170.7" y="-175.9" width="0.7" height="0.7"/>
		</g>
		<g transform="translate(48,48)">
			<g transform="scale(12)">
				<path d="M-3.5-3.5v1.6h1.6v-1.6H-3.5z M-2.2-2.2h-1.1v-1.1h1.1V-2.2z"/>
			</g>
		</g>
		<g transform="translate(672,48)">
			<g transform="scale(12)">
				<path d="M-49.7-3.5v1.6h1.6v-1.6H-49.7z M-48.4-2.2h-1.1v-1.1h1.1V-2.2z"/>
			</g>
		</g>
		<g transform="translate(48,672)">
			<g transform="scale(12)">
				<path d="M-3.5-49.7v1.6h1.6v-1.6H-3.5z M-2.2-48.4h-1.1v-1.1h1.1V-48.4z"/>
			</g>
		</g>
		<g transform="translate(96,96)">
			<g transform="scale(12)">
				<rect x="-7.1" y="-7.1" width="0.7" height="0.7"/>
			</g>
		</g>
		<g transform="translate(720,96)">
			<g transform="scale(12)">
				<rect x="-53.3" y="-7.1" width="0.7" height="0.7"/>
			</g>
		</g>
		<g transform="translate(96,720)">
			<g transform="scale(12)">
				<rect x="-7.1" y="-53.3" width="0.7" height="0.7"/>
			</g>
		</g>
	</g>
	<g>
		<path class="st0" d="M58.9,32H41.1c-5,0-9,4-9,9v17.9c0,5,4,9,9,9h17.9c5,0,9-4,9-9V41.1C68,36.1,63.9,32,58.9,32L58.9,32z"/>
		<path class="st1" d="M58.9,33.9c4,0,7.2,3.2,7.2,7.2v17.9c0,4-3.2,7.2-7.2,7.2H41.1c-4,0-7.2-3.2-7.2-7.2V41.1
			c0-4,3.2-7.2,7.2-7.2H58.9"/>
		<g>
			<path class="st0" d="M52.9,59.3c0,0.1,0,0.2,0,0.3c0,0.1-0.1,0.2-0.1,0.3c0,0.1-0.1,0.2-0.2,0.3c-0.1,0.1-0.1,0.2-0.2,0.2
				s-0.2,0.1-0.2,0.2c-0.1,0.1-0.2,0.1-0.3,0.2c-0.1,0-0.2,0.1-0.3,0.1c-0.1,0-0.2,0-0.3,0c-0.1,0-0.2,0-0.3,0s-0.2-0.1-0.3-0.1
				c-0.1,0-0.2-0.1-0.3-0.2c-0.1-0.1-0.2-0.1-0.2-0.2c-0.1-0.1-0.1-0.2-0.2-0.2c-0.1-0.1-0.1-0.2-0.2-0.3c0-0.1-0.1-0.2-0.1-0.3
				c0-0.1,0-0.2,0-0.3c0-0.1,0-0.2,0-0.3c0-0.1,0.1-0.2,0.1-0.3c0-0.1,0.1-0.2,0.2-0.3c0.1-0.1,0.1-0.2,0.2-0.2
				c0.1-0.1,0.2-0.1,0.2-0.2c0.1-0.1,0.2-0.1,0.3-0.2c0.1,0,0.2-0.1,0.3-0.1c0.1,0,0.2,0,0.3,0c0.1,0,0.2,0,0.3,0
				c0.1,0,0.2,0.1,0.3,0.1c0.1,0,0.2,0.1,0.3,0.2c0.1,0.1,0.2,0.1,0.2,0.2s0.1,0.2,0.2,0.2c0.1,0.1,0.1,0.2,0.2,0.3
				c0,0.1,0.1,0.2,0.1,0.3C52.9,59.1,52.9,59.2,52.9,59.3L52.9,59.3z"/>
			<path class="st0" d="M49.8,57.1c-0.4,0-0.7-0.1-0.9-0.3c-0.2-0.2-0.3-0.5-0.3-0.8c0-0.3,0.1-0.6,0.3-0.8c0.2-0.2,0.5-0.3,0.9-0.3
				h7.9v-0.6c0-0.3,0.1-0.6,0.2-0.8L50.1,54c-0.4,0-0.8-0.1-1-0.2c-0.3-0.2-0.5-0.5-0.5-0.8c0-0.4,0.1-0.7,0.3-0.9
				c0.3-0.2,0.6-0.4,1-0.4l4.4-0.3v-1.1h-3.3c-0.5,0-0.9-0.2-1.2-0.5c-0.3-0.4-0.5-0.8-0.5-1.2v-5.1c0-0.4,0.2-0.8,0.5-1
				c0.3-0.3,0.7-0.5,1.2-0.5h3.3v-0.8h-4.4c-0.4,0-0.7-0.1-0.9-0.3c-0.2-0.2-0.3-0.5-0.3-0.8c0-0.3,0.1-0.6,0.3-0.8
				c0.2-0.2,0.5-0.3,0.9-0.3h4.4v-0.7c0-0.4,0.1-0.8,0.4-1c0.3-0.2,0.6-0.3,1.1-0.3c0.4,0,0.7,0.1,1,0.3c0.3,0.3,0.5,0.6,0.5,1V39
				h4.5c0.4,0,0.7,0.1,0.9,0.3c0.2,0.2,0.3,0.5,0.3,0.8c0,0.3-0.1,0.6-0.3,0.8c-0.2,0.2-0.5,0.3-0.9,0.3h-4.5V42h3.1
				c0.6,0,1.1,0.1,1.4,0.5c0.3,0.3,0.5,0.6,0.5,1v5c0,0.4-0.2,0.7-0.5,1c0.2,0.1,0.4,0.2,0.5,0.4c1.4,1.7,1.9,2.9,1.7,3.6
				c-0.1,0.3-0.4,0.5-0.7,0.6c-0.3,0.1-0.7,0.1-0.9,0c-0.2-0.1-0.5-0.4-0.9-1l-1.3,0.1c0.2,0.3,0.4,0.6,0.4,1v0.6h2.1
				c0.4,0,0.7,0.1,0.9,0.3c0.2,0.2,0.3,0.5,0.3,0.8c0,0.3-0.1,0.6-0.3,0.8c-0.2,0.2-0.5,0.3-0.9,0.3h-2.1v2.9c0,1.2-0.5,2-1.6,2.7
				C58.5,63,57.6,63.1,56,63c-1.6-0.1-2.5-0.5-2.9-1c-0.2-0.3-0.2-0.6-0.1-1c0.4-0.9,1-1.2,2-0.9c1.4,0.2,2.1,0.2,2.4,0
				c0.2-0.2,0.3-0.5,0.3-0.9v-2.2L49.8,57.1L49.8,57.1L49.8,57.1z M54.4,44.1h-2c-0.1,0-0.2,0.1-0.3,0.1c-0.1,0.1-0.1,0.2-0.1,0.3
				v0.7h2.5L54.4,44.1L54.4,44.1L54.4,44.1z M54.4,47.1h-2.5v0.7c0,0.1,0,0.2,0.1,0.3c0.1,0.1,0.2,0.1,0.3,0.1h2L54.4,47.1
				L54.4,47.1L54.4,47.1z M57.3,45.2h2.6v-0.7c0-0.1,0-0.2-0.1-0.3c-0.1-0.1-0.2-0.1-0.3-0.1h-2.2V45.2L57.3,45.2z M57.3,48.2h2.2
				c0.1,0,0.2-0.1,0.3-0.1c0.1-0.1,0.1-0.2,0.1-0.3v-0.7h-2.6V48.2L57.3,48.2z M60.1,50.3h-2.8v0.9l2.9-0.2
				C60.2,50.8,60.1,50.6,60.1,50.3L60.1,50.3L60.1,50.3z"/>
			<path class="st0" d="M37.4,41.2c-0.4,0-0.7-0.1-0.9-0.3c-0.2-0.2-0.3-0.5-0.3-0.8c0-0.3,0.1-0.6,0.3-0.8c0.2-0.2,0.5-0.3,0.9-0.3
				h3.1v-0.7c0-0.4,0.1-0.8,0.4-1c0.3-0.2,0.6-0.3,1.1-0.3c0.4,0,0.7,0.1,1,0.3c0.3,0.3,0.5,0.6,0.5,1V39h6.2c0.4,0,0.7,0.1,0.9,0.3
				c0.2,0.2,0.3,0.5,0.3,0.8c0,0.3-0.1,0.6-0.3,0.8c-0.2,0.2-0.5,0.3-0.9,0.3L37.4,41.2L37.4,41.2L37.4,41.2z"/>
			<path class="st0" d="M49.7,54.9c0.4,0,0.7,0.1,0.9,0.3c0.2,0.2,0.3,0.5,0.3,0.8c0,0.3-0.1,0.6-0.3,0.8c-0.2,0.2-0.5,0.3-0.9,0.3
				h-6.5v2.2c0,0.4-0.1,0.8-0.4,1c-0.3,0.2-0.6,0.3-1.1,0.3c-0.4,0-0.7-0.1-1-0.3c-0.3-0.3-0.5-0.6-0.5-1v-2.2H37
				c-0.4,0-0.7-0.1-0.9-0.3c-0.2-0.2-0.3-0.5-0.3-0.8c0-0.3,0.1-0.6,0.3-0.8c0.2-0.2,0.5-0.3,0.9-0.3L49.7,54.9L49.7,54.9L49.7,54.9
				z"/>
			<path class="st2" d="M41.9,55.3c0.2,0,0.5-0.2,0.5-0.4c0-0.1,0-0.2,0-0.2v-1.1c0,0,0.1,0,0.1,0c0.9,0,1.8-0.2,2.6-0.7
				c2.2-1.2,3.3-3.6,2.9-6c-0.1-0.7-0.9-1.2-1.6-1.1c-0.7,0.1-1.2,0.9-1.1,1.6c0.2,1.2-0.4,2.5-1.5,3.1c-0.5,0.2-1,0.4-1.5,0.3v-1.1
				c0-0.3-0.3-0.6-0.6-0.6c-0.1,0-0.2,0-0.4,0.1l-3.2,2.4c-0.4,0.4-0.4,0.7,0,1.1l2.8,2.1l0.3,0.2C41.7,55.2,41.8,55.3,41.9,55.3
				L41.9,55.3z"/>
			<path class="st2" d="M42.2,40.9c-0.2,0-0.5,0.2-0.5,0.4c0,0.1,0,0.2,0,0.2v1.1c0,0-0.1,0-0.1,0c-0.9,0-1.8,0.2-2.6,0.7
				c-2.2,1.2-3.3,3.6-2.9,6c0.1,0.7,0.9,1.2,1.6,1.1c0.7-0.1,1.2-0.9,1.1-1.6c-0.2-1.2,0.4-2.5,1.5-3.1c0.5-0.2,1-0.4,1.5-0.3v1.1
				c0,0.3,0.3,0.6,0.6,0.6c0.1,0,0.2,0,0.4-0.1l3.2-2.4c0.4-0.4,0.4-0.7,0-1.1l-2.8-2.1L42.5,41C42.4,40.9,42.3,40.9,42.2,40.9
				L42.2,40.9z"/>
		</g>
	</g>
</g>
</svg>
