<?xml version="1.0" encoding="utf-8"?>
<!-- Generator: Adobe Illustrator 16.0.0, SVG Export Plug-In . SVG Version: 6.00 Build 0)  -->
<!DOCTYPE svg PUBLIC "-//W3C//DTD SVG 1.1//EN" "http://www.w3.org/Graphics/SVG/1.1/DTD/svg11.dtd">
<svg version="1.1" id="圖層_1" xmlns="http://www.w3.org/2000/svg" xmlns:xlink="http://www.w3.org/1999/xlink" x="0px" y="0px"
	 width="42.52px" height="42.52px" viewBox="0 0 42.52 42.52" enable-background="new 0 0 42.52 42.52" xml:space="preserve">
<path fill="#FFFFFF" d="M3.467,41.26c-1.22,0-2.207-0.988-2.207-2.207V3.467c0-1.22,0.987-2.208,2.207-2.208h35.585
	c1.219,0,2.208,0.988,2.208,2.208v35.585c0,1.219-0.989,2.207-2.208,2.207H3.467z M28.858,41.26V25.77h5.2l0.778-6.036h-5.979
	v-3.854c0-1.749,0.485-2.939,2.992-2.939l3.196-0.001v-5.4c-0.552-0.072-2.449-0.237-4.657-0.237c-4.61,0-7.765,2.813-7.765,7.98
	v4.452h-5.212v6.036h5.212v15.49H28.858z"/>
</svg>
