<?xml version="1.0" encoding="utf-8"?>
<!-- Generator: Adobe Illustrator 16.0.0, SVG Export Plug-In . SVG Version: 6.00 Build 0)  -->
<!DOCTYPE svg PUBLIC "-//W3C//DTD SVG 1.1//EN" "http://www.w3.org/Graphics/SVG/1.1/DTD/svg11.dtd">
<svg version="1.1" id="_x38_6_Logo" xmlns="http://www.w3.org/2000/svg" xmlns:xlink="http://www.w3.org/1999/xlink" x="0px"
	 y="0px" width="200.693px" height="68.598px" viewBox="0 0 200.693 68.598" enable-background="new 0 0 200.693 68.598"
	 xml:space="preserve">
<g>
	<g>
		<path fill="#F63578" d="M199.916,43.619c-0.277-0.505-0.671-0.894-1.174-1.163c-0.502-0.277-1.016-0.406-1.546-0.406
			c-0.526,0-1.044,0.129-1.546,0.406c-0.5,0.27-0.893,0.658-1.174,1.163c-0.279,0.51-0.424,1.039-0.424,1.589
			c0,0.543,0.141,1.064,0.416,1.569c0.277,0.501,0.667,0.894,1.166,1.173c0.498,0.277,1.021,0.414,1.562,0.414
			c0.545,0,1.067-0.137,1.565-0.414c0.495-0.279,0.885-0.672,1.162-1.173c0.271-0.505,0.416-1.026,0.416-1.569
			C200.34,44.658,200.195,44.128,199.916,43.619z M199.472,46.518c-0.23,0.416-0.554,0.74-0.971,0.978
			c-0.416,0.229-0.849,0.347-1.305,0.347c-0.452,0-0.884-0.117-1.301-0.347c-0.417-0.237-0.741-0.562-0.97-0.978
			c-0.234-0.422-0.352-0.854-0.352-1.311c0-0.46,0.117-0.898,0.355-1.322c0.232-0.423,0.561-0.748,0.977-0.975
			c0.422-0.227,0.85-0.341,1.29-0.341s0.868,0.114,1.289,0.341c0.417,0.227,0.745,0.552,0.979,0.975
			c0.237,0.424,0.354,0.862,0.354,1.322C199.818,45.665,199.701,46.096,199.472,46.518z M197.746,45.614
			c-0.07-0.071-0.164-0.129-0.289-0.181c0.297-0.023,0.529-0.129,0.701-0.31c0.18-0.184,0.269-0.399,0.269-0.65
			c0-0.172-0.054-0.341-0.159-0.497c-0.109-0.155-0.245-0.267-0.424-0.329c-0.181-0.063-0.465-0.094-0.862-0.094h-1.16v3.4h0.545
			v-1.447h0.319c0.191,0,0.34,0.04,0.437,0.119c0.145,0.105,0.335,0.371,0.569,0.791l0.299,0.537h0.672l-0.414-0.666
			C198.049,45.975,197.882,45.747,197.746,45.614z M197.025,45.038h-0.659v-1.021h0.62c0.265,0,0.451,0.019,0.549,0.059
			c0.098,0.038,0.176,0.098,0.23,0.176c0.054,0.078,0.086,0.168,0.086,0.27c0,0.158-0.063,0.283-0.18,0.377
			C197.559,44.991,197.345,45.038,197.025,45.038z M44.116,30.517c-1.318-1.006-1.977-1.728-1.977-2.171
			c0-0.469,0.544-1.1,1.641-1.888c3.64-2.616,5.46-5.782,5.46-9.501c0-2.361-0.618-4.443-1.85-6.241
			c-1.681-2.488-3.88-4.328-6.596-5.532c-4.956-2.17-10.375-3.259-16.254-3.259c-6.076,0-11.252,1.438-15.538,4.301
			C4.076,9.537,1.614,13.96,1.614,19.508c0,3.999,1.329,7.435,3.989,10.304c1.064,1.132,1.594,1.908,1.594,2.314
			c0,0.505-0.618,1.257-1.848,2.268c-3.333,2.649-4.996,6.005-4.996,10.067c0,2.994,0.7,5.613,2.101,7.852
			c1.847,2.986,4.407,5.337,7.684,7.037c4.842,2.49,10.385,3.732,16.627,3.732c9.045,0,15.652-3.086,19.827-9.262
			c2.353-3.463,3.528-7.027,3.528-10.684c0-2.421-0.547-4.779-1.637-7.065C47.391,33.788,45.936,31.939,44.116,30.517z
			 M28.761,52.213c-1.021,0.856-2.388,1.277-4.094,1.277c-2.912,0-5.376-1.151-7.392-3.449c-0.84-0.949-1.54-2.143-2.1-3.594
			c-0.561-1.449-0.84-2.785-0.84-4.015c0-1.075,0.19-1.948,0.567-2.626c0.379-0.673,0.888-1.015,1.534-1.015
			c1.23,0.031,3.332,0.819,6.3,2.362c3.103,1.639,5.14,2.947,6.108,3.922c0.966,0.977,1.449,2.236,1.449,3.781
			C30.293,50.245,29.782,51.366,28.761,52.213z M32.687,20.498c-0.59,1.106-1.246,1.655-1.972,1.655
			c-1.431,0-3.278-0.945-5.546-2.833c-2.042-1.669-3.063-3.326-3.063-4.963c0-1.038,0.409-1.916,1.237-2.625
			c0.826-0.708,1.854-1.062,3.086-1.062c2.014,0,3.779,0.614,5.292,1.84c1.23,0.98,1.847,2.398,1.847,4.257
			C33.568,18.153,33.274,19.402,32.687,20.498z M95.766,23.488c-2.886-2.523-6.089-3.784-9.619-3.784
			c-2.043,0-4.226,0.475-6.547,1.421c-1.709,0.691-2.717,1.04-3.025,1.04c-0.363,0-0.671-0.165-0.922-0.497
			c-0.254-0.333-0.379-0.733-0.379-1.207c0-0.972,0.441-2.422,1.321-4.344c0.885-1.925,1.884-3.563,3.005-4.917
			c1.734-2.207,2.762-3.551,3.084-4.04c0.322-0.49,0.485-0.973,0.485-1.442c0-0.595-0.507-1.277-1.514-2.033
			c-1.007-0.752-2.253-1.403-3.735-1.939c-2.744-0.976-4.72-1.461-5.921-1.461c-1.29,0-2.753,0.818-4.392,2.456
			c-1.637,1.637-3.799,4.427-6.487,8.365c-5.683,8.352-8.523,16.513-8.523,24.478c0,3.406,0.573,6.799,1.723,10.168
			c1.372,4.063,3.316,7.436,5.838,10.116c4.533,4.787,10.497,7.181,17.886,7.181c8.901,0,15.609-3.952,20.115-11.862
			c2.462-4.317,3.695-8.823,3.695-13.518C101.854,31.742,99.822,27.014,95.766,23.488z M82.873,49.081
			c-0.701,0.775-1.623,1.156-2.77,1.156c-1.708,0-3.39-1.281-5.041-3.848c-1.654-2.568-2.476-5.159-2.476-7.78
			c0-1.703,0.353-3.047,1.067-4.042c0.716-0.986,1.688-1.484,2.92-1.484c1.12,0.03,2.131,0.454,3.025,1.273
			c1.201,1.105,2.221,2.802,3.063,5.082c0.842,2.289,1.261,4.488,1.261,6.594C83.923,47.293,83.572,48.313,82.873,49.081z
			 M112.618,49.428c-1.138-0.555-1.718-1.162-1.729-1.824c-0.008-0.376,0.108-0.706,0.346-0.988
			c0.238-0.285,0.526-0.426,0.861-0.434c0.506-0.012,1.149,0.396,1.937,1.21c0.748,0.769,1.286,1.266,1.62,1.485
			c0.335,0.22,0.713,0.324,1.134,0.316c0.503-0.012,0.919-0.194,1.247-0.561c0.326-0.367,0.486-0.818,0.475-1.357
			c-0.012-0.549-0.171-1.203-0.475-1.951c-0.305-0.748-0.689-1.439-1.162-2.063c-0.584-0.783-1.145-1.168-1.697-1.156
			c-0.191,0.006-0.421,0.072-0.697,0.197c-0.581,0.259-0.975,0.387-1.177,0.392c-0.179,0.004-0.409-0.019-0.686-0.066
			c-1.36-0.267-2.342-0.392-2.941-0.381c-2.158,0.049-3.84,0.913-5.05,2.602c-0.852,1.179-1.258,2.574-1.223,4.177
			c0.031,1.481,0.487,2.781,1.369,3.895c0.884,1.117,2.297,2.186,4.253,3.209c0.935,0.477,1.406,1.02,1.418,1.625
			c0.012,0.393-0.105,0.705-0.339,0.952c-0.234,0.238-0.546,0.364-0.943,0.372c-0.37,0.009-0.721-0.094-1.051-0.309
			c-0.324-0.217-0.744-0.615-1.247-1.199c-0.923-1.058-1.526-1.708-1.814-1.955c-0.284-0.242-0.599-0.36-0.937-0.354
			c-0.864,0.021-1.277,0.65-1.25,1.889c0.012,0.772,0.241,1.686,0.686,2.751c0.443,1.062,0.914,1.837,1.419,2.323
			c0.331,0.316,0.778,0.474,1.341,0.459c0.155,0,0.408-0.035,0.754-0.098c0.203-0.045,0.382-0.072,0.537-0.076
			c0.145,0,0.799,0.06,1.965,0.182c1.238,0.148,2.092,0.218,2.563,0.207c1.82-0.039,3.347-0.619,4.582-1.74
			c1.438-1.289,2.131-2.864,2.092-4.74c-0.031-1.48-0.516-2.727-1.449-3.733C116.244,51.499,114.667,50.409,112.618,49.428z
			 M142.836,57.657c-0.147-0.294-0.229-0.76-0.256-1.391l-0.32-7.303c-0.059-1.48-0.199-2.621-0.425-3.408
			c-0.226-0.793-0.6-1.473-1.114-2.041c-1.156-1.281-2.688-1.904-4.592-1.865c-1.944,0.047-3.472,1.03-4.594,2.953
			c-0.266,0.455-0.545,0.686-0.83,0.689c-0.576,0.013-0.864-0.484-0.86-1.5l0.05-8.483c0.008-0.675-0.334-1.003-1.027-0.987
			c-1.282,0.027-3,0.402-5.139,1.125c-1.586,0.521-2.652,0.995-3.207,1.427c-0.557,0.43-0.825,0.987-0.81,1.658
			c0.012,0.567,0.397,1.058,1.146,1.474c0.354,0.195,0.592,0.391,0.725,0.578c0.128,0.197,0.222,0.502,0.28,0.918
			c0.167,1.115,0.284,3.121,0.347,6.025c0.078,3.694,0.051,6.342-0.09,7.941c-0.14,1.605-0.432,2.593-0.881,2.969
			c-0.506,0.412-0.82,0.721-0.949,0.917c-0.129,0.2-0.188,0.486-0.18,0.847c0.035,1.578,2.115,2.322,6.236,2.232
			c3.522-0.078,5.271-0.877,5.236-2.4c-0.008-0.381-0.133-0.706-0.362-0.987c-0.507-0.608-0.791-1.026-0.856-1.255
			c-0.063-0.227-0.156-1.206-0.277-2.93L130,50.954c-0.027-1.184,0.082-1.998,0.323-2.438c0.335-0.6,0.869-0.904,1.602-0.924
			c1.017-0.02,1.737,0.521,2.154,1.633c0.319,0.816,0.499,2.124,0.534,3.915c0.066,2.969-0.145,4.831-0.632,5.579
			c-0.347,0.536-0.553,0.865-0.608,0.986c-0.058,0.126-0.085,0.302-0.076,0.529c0.03,1.363,1.779,2.002,5.259,1.932
			c3.907-0.09,5.843-0.858,5.812-2.32c-0.012-0.426-0.19-0.795-0.545-1.101C143.308,58.315,142.98,57.952,142.836,57.657z
			 M161.983,43c-1.683-1.246-3.619-1.842-5.812-1.795c-3.156,0.067-5.813,1.195-7.967,3.375c-2.069,2.066-3.066,4.692-2.996,7.878
			c0.063,2.859,0.978,5.159,2.738,6.902c1.816,1.794,4.153,2.66,7.017,2.597c2.937-0.065,5.524-1.1,7.76-3.105
			c2.341-2.1,3.479-4.615,3.413-7.541c-0.035-1.674-0.44-3.27-1.22-4.793C164.17,45.061,163.188,43.889,161.983,43z M156.514,56.967
			c-0.841,0.02-1.461-0.525-1.854-1.622c-0.394-1.069-0.744-2.303-1.041-3.687c-0.299-1.39-0.459-2.495-0.479-3.303
			c-0.016-0.729,0.133-1.316,0.44-1.758c0.304-0.448,0.724-0.68,1.255-0.687c0.704,0.007,1.266,0.47,1.682,1.374
			c0.401,0.898,0.756,2.066,1.056,3.508c0.3,1.43,0.464,2.719,0.491,3.851C158.096,56.172,157.582,56.94,156.514,56.967z
			 M187.535,42.296c-1.228-1.161-2.599-1.724-4.121-1.69c-0.647,0.013-1.363,0.166-2.158,0.443
			c-0.791,0.282-1.442,0.621-1.945,1.023c-0.674,0.527-1.066,0.791-1.188,0.794c-0.288,0.004-0.437-0.238-0.448-0.74
			c-0.015-0.563-0.108-0.917-0.296-1.054c-0.184-0.137-0.639-0.199-1.367-0.184c-1.727,0.065-4.044,0.881-6.945,2.44
			c-0.745,0.407-1.282,0.823-1.609,1.241c-0.331,0.42-0.483,0.898-0.472,1.436c0.009,0.445,0.137,0.822,0.382,1.139
			c0.25,0.311,0.564,0.498,0.951,0.576c0.502,0.098,0.802,0.16,0.892,0.199c0.093,0.039,0.163,0.125,0.214,0.259
			c0.141,0.4,0.289,2.265,0.444,5.575c0.016,4.039-0.035,6.48-0.155,7.334c-0.121,0.852-0.487,1.446-1.107,1.783
			c-0.424,0.238-0.709,0.467-0.852,0.678c-0.148,0.212-0.215,0.521-0.207,0.926c0.02,0.877,0.533,1.596,1.543,2.172
			c1.979,1.129,4.27,1.67,6.867,1.611c1.465-0.031,2.592-0.278,3.386-0.733c0.79-0.458,1.181-1.088,1.16-1.896
			c-0.007-0.368-0.069-0.623-0.187-0.779c-0.117-0.15-0.471-0.443-1.068-0.873c-0.649-0.459-0.98-1.223-1.004-2.289
			c-0.02-0.807,0.152-1.215,0.51-1.227c0.133-0.004,0.308,0.052,0.526,0.153c1.091,0.514,2.146,0.765,3.163,0.739
			c2.003-0.042,3.768-0.939,5.302-2.686c1.991-2.246,2.949-5.066,2.876-8.463c-0.035-1.59-0.332-3.104-0.893-4.537
			C189.194,44.305,188.463,43.181,187.535,42.296z M179.615,56.094c-0.541,0.011-0.975-0.109-1.305-0.357
			c-0.327-0.25-0.5-0.579-0.508-0.998c-0.004-0.217-0.004-0.442,0.004-0.672l0.148-5.569c0.043-1.265,0.491-1.915,1.346-1.932
			c0.599-0.013,1.117,0.228,1.562,0.716c0.712,0.792,1.09,2.184,1.134,4.166C182.063,54.506,181.267,56.055,179.615,56.094z"/>
	</g>
</g>
</svg>
