<?xml version="1.0" encoding="utf-8"?>
<!-- Generator: Adobe Illustrator 16.0.0, SVG Export Plug-In . SVG Version: 6.00 Build 0)  -->
<!DOCTYPE svg PUBLIC "-//W3C//DTD SVG 1.1//EN" "http://www.w3.org/Graphics/SVG/1.1/DTD/svg11.dtd">
<svg version="1.1" id="圖層_1" xmlns="http://www.w3.org/2000/svg" xmlns:xlink="http://www.w3.org/1999/xlink" x="0px" y="0px"
	 width="51.023px" height="51.023px" viewBox="0 0 51.023 51.023" enable-background="new 0 0 51.023 51.023" xml:space="preserve">
<path fill="#FFFFFF" d="M25.512,2.511c13.792,0,24.972,8.81,24.972,19.678c0,3.797-1.365,7.34-3.729,10.346
	c-0.116,0.172-0.27,0.361-0.462,0.57l-0.015,0.016c-0.807,0.951-1.716,1.842-2.715,2.666c-6.906,6.281-18.273,13.76-19.773,12.605
	c-1.304-1.002,2.148-5.906-1.834-6.725c-0.278-0.031-0.556-0.064-0.83-0.104H21.12l0,0C9.423,39.93,0.54,31.877,0.54,22.189
	C0.539,11.321,11.72,2.511,25.512,2.511z M7.107,29.217h0.104h0.03h6.065c0.881,0,1.603-0.613,1.603-1.359v-0.113
	c0-0.748-0.722-1.357-1.603-1.357H8.844v-8.602c0-0.747-0.721-1.357-1.603-1.357H7.107c-0.881,0-1.603,0.61-1.603,1.357v10.072
	C5.505,28.604,6.227,29.217,7.107,29.217L7.107,29.217z M45.518,22.902V22.79c0-0.748-0.721-1.359-1.603-1.359h-4.462v-2.149h4.462
	c0.882,0,1.603-0.611,1.603-1.358V17.81c0-0.747-0.721-1.358-1.603-1.358H37.85h-0.03h-0.103c-0.882,0-1.604,0.611-1.604,1.358
	v10.073c0,0.746,0.722,1.357,1.604,1.357h0.103h0.03h6.065c0.882,0,1.603-0.611,1.603-1.357v-0.115c0-0.746-0.721-1.356-1.603-1.356
	h-4.462V24.26h4.462C44.797,24.261,45.518,23.649,45.518,22.902L45.518,22.902z M33.598,28.811L33.598,28.811
	c0.286-0.246,0.464-0.584,0.464-0.953V17.786c0-0.748-0.722-1.358-1.603-1.358h-0.135c-0.881,0-1.603,0.61-1.603,1.358v5.913
	l-5.794-6.585c-0.277-0.41-0.798-0.687-1.392-0.687h-0.134c-0.882,0-1.604,0.61-1.604,1.358v10.071c0,0.748,0.722,1.359,1.604,1.359
	h0.134c0.882,0,1.603-0.611,1.603-1.359v-6.022l5.836,6.753c0.035,0.047,0.074,0.092,0.117,0.137l0,0
	c0.16,0.184,0.38,0.311,0.624,0.389c0.188,0.066,0.394,0.104,0.608,0.104h0.134c0.271,0,0.524-0.059,0.749-0.16
	C33.367,28.992,33.502,28.91,33.598,28.811L33.598,28.811z M17.807,29.217h0.133c0.882,0,1.604-0.613,1.604-1.359V17.785
	c0-0.747-0.722-1.357-1.604-1.357h-0.133c-0.883,0-1.604,0.61-1.604,1.357v10.072C16.203,28.604,16.924,29.217,17.807,29.217z"/>
</svg>
