<?xml version="1.0" encoding="utf-8"?>
<!-- Generator: Adobe Illustrator 27.1.1, SVG Export Plug-In . SVG Version: 6.00 Build 0)  -->
<svg version="1.1" id="圖層_1" xmlns="http://www.w3.org/2000/svg" xmlns:xlink="http://www.w3.org/1999/xlink" x="0px" y="0px"
	 width="162.01px" height="49.99px" viewBox="0 0 162.01 49.99" style="enable-background:new 0 0 162.01 49.99;"
	 xml:space="preserve">
<style type="text/css">
	.製作陰影{fill:none;}
	.圓角_x0020_2_x0020_點{fill:#FFFFFF;stroke:#231815;stroke-miterlimit:10;}
	.即時反射_x0020_X{fill:none;}
	.柔化斜角{fill:url(#SVGID_1_);}
	.黃昏{fill:#FFFFFF;}
	.葉子_GS{fill:#FFE100;}
	.高捲式髮型_GS{fill-rule:evenodd;clip-rule:evenodd;fill:#4CACE2;}
	.st0{fill:#FFFFFF;}
</style>
<linearGradient id="SVGID_1_" gradientUnits="userSpaceOnUse" x1="30.693" y1="-25.0321" x2="31.4001" y2="-24.325">
	<stop  offset="0" style="stop-color:#E6E7EA"/>
	<stop  offset="0.1747" style="stop-color:#E2E3E6"/>
	<stop  offset="0.3538" style="stop-color:#D6D7DA"/>
	<stop  offset="0.5349" style="stop-color:#C1C4C5"/>
	<stop  offset="0.7174" style="stop-color:#A4A8A8"/>
	<stop  offset="0.8993" style="stop-color:#808584"/>
	<stop  offset="1" style="stop-color:#686E6C"/>
</linearGradient>
<g>
	<g>
		<g>
			<path class="st0" d="M140.01,11.69l6.86,8.3c2.83-5.63,8.39-9.82,15.1-9.84c0.03-0.04,0.05-0.07,0.05-0.07V0.31
				C152.94,0.31,144.92,4.81,140.01,11.69z M130.78,39.82c-0.1,0.01-14.92,0.02-14.92,0.02v9.85h16.41c5.29,0,10.02-2.44,13.12-6.26
				l-7.89-9.48C136.85,37.17,134.12,39.6,130.78,39.82z M145.59,22.19c-0.05-0.06-17.95-21.59-17.95-21.59h-14.53l33.81,40.61
				c1.45-2.51,2.28-5.42,2.28-8.53c0-3.76-1.21-7.23-3.27-10.04C145.83,22.49,145.71,22.34,145.59,22.19z M12.85,11.79L6.58,0.53H0
				l9.92,16.83v10.65h5.85V17.36l9.96-16.83h-6.61L12.85,11.79z M40.26,12.1c-3.72-1.41-5.21-2.52-5.21-4.12
				c0-1.76,1.83-2.86,4.64-2.86c2.51,0,5.09,0.73,6.69,1.68V1.37C44.67,0.61,41.97,0,39.23,0c-5.89,0-9.92,3.13-9.92,8.01
				c0,4.77,2.81,6.79,7.6,8.55c3.76,1.37,5.4,2.33,5.4,4.16c0,1.34-1.22,2.14-3.31,2.44c-0.72,0.15-1.56,0.19-2.43,0.15
				c-2.47-0.15-4.98-0.99-6.88-1.98v5.65c1.98,0.88,5.02,1.56,8.13,1.56c6.46,0,10.18-2.98,10.18-7.94
				C48.01,15.99,45.05,13.97,40.26,12.1z M64.31,0.53h-8.74v27.48h8.82c9.27,0,15.13-5.69,15.13-13.74
				C79.51,6.22,73.62,0.53,64.31,0.53z M64.31,23.09h-2.89V5.46h2.81c5.93,0,9.39,3.85,9.39,8.82
				C73.62,19.27,70.16,23.09,64.31,23.09z M81.98,5.46h7.64v22.55h5.85V5.46h7.68V0.53H81.98V5.46z"/>
		</g>
	</g>
	<g>
		<g>
			<path class="st0" d="M9.25,35.79c-1.13-0.84-2.16-1.45-3.09-1.86l-1.09,1.72c0.81,0.35,1.8,0.94,2.98,1.79L9.25,35.79z
				 M20.67,37.28h-4.59v-0.62h3.82v-1.72h-3.82v-0.7h-2.02v0.7h-3.93v1.72h3.93v0.62H9.43V39h11.24V37.28z M8.83,39
				c-1.16-0.85-2.2-1.49-3.14-1.92l-1.1,1.71c0.82,0.38,1.83,1,3.03,1.87L8.83,39z M20.35,46.49c-0.54-0.43-1.06-0.83-1.58-1.19
				c0.61-0.41,1.14-0.81,1.6-1.2l-0.79-0.99h0.44c0.18,0,0.26-0.08,0.26-0.25v-3.18c0-0.14-0.09-0.22-0.26-0.23h-9.85
				c-0.15,0-0.23,0.08-0.25,0.23v3.18c0,0.17,0.08,0.25,0.25,0.25h2.63c-1.05,0.67-2.22,1.2-3.49,1.61l1.02,1.66
				c0.64-0.2,1.37-0.51,2.19-0.94v1.92h2.02V44.1c0.36-0.3,0.76-0.63,1.19-0.99h2.84c-0.43,0.31-0.95,0.66-1.54,1.04
				c-0.4-0.25-0.79-0.46-1.19-0.65l-1.07,1.57c1.03,0.51,2.28,1.32,3.75,2.43c-1.8,0.07-3.78,0.13-5.93,0.18
				c-0.96,0.04-1.69-0.04-2.21-0.27c-0.89-0.43-1.43-1.13-1.63-2.07v-3.31c0-0.31-0.17-0.47-0.51-0.47H4.96v1.99H6.4
				c0.18,0,0.26,0.08,0.26,0.23v1.54c-0.01,0.55-0.16,1.04-0.44,1.49c-0.32,0.45-0.98,0.91-1.98,1.39l1.07,1.77
				c0.54-0.18,1.07-0.5,1.6-0.97c0.53-0.47,0.86-0.89,1.02-1.25c0.25,0.48,0.62,0.88,1.12,1.21c0.56,0.35,1.33,0.55,2.31,0.62
				c2.88,0,5.93,0.01,9.15,0.02l0.51-2.24c-0.46,0.01-0.92,0.04-1.4,0.08L20.35,46.49z M18.27,41.49c0,0.04-0.03,0.08-0.09,0.1
				h-6.17c-0.05-0.01-0.07-0.04-0.07-0.1v-0.44c-0.01-0.04,0.01-0.07,0.07-0.08h6.17c0.05,0,0.08,0.03,0.09,0.08V41.49z
				 M36.11,37.43h3.51V35.5h-3.51v-1.27h-2.09v1.27h-3.68v1.92h3.68v1.29h-4.03v1.92h6.56v1.12h-6.42v1.99h1.61l-1.33,1.07
				c0.71,0.65,1.53,1.61,2.44,2.89l1.7-1.2c-0.78-1.14-1.55-2.06-2.3-2.76h4.3v3.58c0,0.21-0.08,0.37-0.23,0.47
				c-0.46,0.2-1.36,0.08-2.72-0.37v2.07c1.79,0.43,3.1,0.47,3.93,0.12c0.36-0.17,0.65-0.37,0.86-0.62c0.15-0.21,0.23-0.48,0.25-0.8
				v-4.45h1.47v-1.99h-1.47v-1.12h1.54v-1.92h-4.07V37.43z M29.34,34.6H24.5c-0.19,0-0.29,0.09-0.3,0.28V48.2c0,0.2,0.1,0.3,0.3,0.3
				h4.84c0.21,0,0.32-0.1,0.32-0.3V34.88C29.66,34.71,29.55,34.61,29.34,34.6z M27.57,46.41c0,0.07-0.04,0.1-0.11,0.1h-1.09
				c-0.05,0-0.08-0.03-0.09-0.1v-4.06h1.28V46.41z M27.57,40.35h-1.28v-3.68c0-0.04,0.03-0.07,0.09-0.08h1.09
				c0.07,0,0.11,0.03,0.11,0.08V40.35z M48.15,34.53l-5.74,15.02h3.64l1.26-3.85h5.82l1.26,3.85h3.76l-5.77-15.02H48.15z
				 M48.08,43.37l0.53-1.64c0.53-1.56,1.07-3.26,1.53-4.91h0.12c0.51,1.62,0.99,3.34,1.55,4.91l0.53,1.64H48.08z M59.4,49.56h2.87
				V39.34H59.4V49.56z M76.03,38.48v1.32h4.3v-1.32H76.03z M73.17,38.48h-4.3v1.32h4.3V38.48z M76.03,41.47h4.44v-1.32h-4.44V41.47z
				 M68.88,41.47h4.3v-1.32h-4.3V41.47z M75.59,36.51v-0.49h5.36v-1.66H68.03v1.66h5.54v0.49h-6.64c-0.25,0-0.37,0.12-0.37,0.35
				v3.38h2.02v-1.91c0-0.11,0.06-0.17,0.18-0.17h4.82v2.98h2.02v-2.98h5.28c0.18,0,0.25,0.09,0.23,0.27
				c-0.01,0.01-0.22,0.52-0.61,1.54l1.91,0.6c0.43-1.28,0.69-2.39,0.77-3.31l-1.58-0.75H75.59z M81.41,42.16
				c0-0.14-0.09-0.22-0.26-0.23H67.79c-0.15,0-0.23,0.08-0.25,0.23v5.18c0,0.17,0.08,0.25,0.25,0.25h5.68v0.75
				c0,0.31,0.13,0.61,0.39,0.9c0.29,0.31,0.64,0.47,1.05,0.49h6.15c0.46,0,0.9-0.24,1.33-0.72c0.14-0.13,0.37-0.88,0.68-2.24
				l-1.67-0.59V42.16z M73.47,46.07h-3.84c-0.05-0.01-0.07-0.04-0.07-0.1v-0.52h3.91V46.07z M73.47,43.93h-3.91v-0.4
				c-0.01-0.04,0.01-0.07,0.07-0.08h3.84V43.93z M75.56,43.45h3.75c0.05,0,0.08,0.03,0.09,0.08v0.4h-3.84V43.45z M75.56,45.46h3.84
				v0.52c0,0.05-0.03,0.08-0.09,0.1h-3.75V45.46z M80.8,47.75c-0.19,0.13-0.37,0.2-0.56,0.2h-3.8c-0.32-0.01-0.54-0.09-0.68-0.23
				c-0.03-0.05-0.06-0.08-0.09-0.12h5.26C80.91,47.67,80.87,47.72,80.8,47.75z M101.87,36.89v-1.92h-6.94V34.3h-2.09v0.67h-6.98
				v1.92h3.68c0,0.03,0.18,0.42,0.54,1.15H86.9c-0.33,0-0.5,0.16-0.51,0.49v10.82h2.09v-6.64L89,43.53
				c0.05-0.01,0.11-0.03,0.19-0.07c0,0.01,0,0.04,0,0.08v4.01c0,0.35,0.18,0.52,0.54,0.53h7.26l0.16,1.81
				c1.4,0.18,2.46,0.09,3.17-0.25c0.64-0.33,0.97-0.82,0.98-1.46v-9.67c0-0.31-0.18-0.47-0.53-0.49h-3.14
				c0.04-0.13,0.16-0.52,0.39-1.15H101.87z M95.89,36.89c-0.15,0.4-0.3,0.79-0.44,1.15H92.3c-0.14-0.4-0.31-0.79-0.51-1.15H95.89z
				 M88.47,41.63v-1.51c0-0.1,0.05-0.15,0.16-0.15h2.35c-0.12,0.27-0.27,0.49-0.46,0.65C90.14,40.97,89.46,41.3,88.47,41.63z
				 M96.35,46.14c0,0.04-0.04,0.08-0.11,0.1h-4.87c-0.07-0.01-0.1-0.04-0.09-0.1v-1.17c-0.01-0.04,0.02-0.07,0.09-0.08h4.87
				c0.07,0,0.11,0.03,0.11,0.08V46.14z M99.22,47.26c0,0.28-0.18,0.5-0.54,0.65c-0.12,0.04-0.26,0.07-0.44,0.08
				c0.12-0.08,0.18-0.22,0.19-0.43v-4.01c0-0.35-0.19-0.52-0.56-0.52h-7.56c1.37-0.77,2.24-1.55,2.63-2.34
				c0.07-0.23,0.14-0.47,0.21-0.72h1.37v1.97c0,0.61,0.32,0.93,0.96,0.94h3.73V47.26z M99.05,39.97c0.12,0,0.18,0.05,0.18,0.15v0.9
				h-2.1c-0.33,0-0.5-0.17-0.51-0.5v-0.55H99.05z M60.9,34.21c-1.05,0-1.91,0.86-1.91,1.92c0,1.06,0.85,1.92,1.91,1.92
				c1.05,0,1.91-0.86,1.91-1.92C62.8,35.07,61.95,34.21,60.9,34.21z"/>
		</g>
	</g>
</g>
</svg>
