<svg id="Capa_1" enable-background="new 0 0 512 512" height="512" viewBox="0 0 512 512" width="512" xmlns="http://www.w3.org/2000/svg"><g><g><circle cx="245" cy="256" fill="#ffc8dd" r="245"/></g><g><circle cx="245" cy="256" fill="#fff" r="208"/></g><g><circle cx="245" cy="256" fill="#ffc8dd" r="167"/></g><g><path d="m245.174 476.71c-58.953 0-114.378-22.958-156.065-64.645-41.687-41.686-64.645-97.111-64.645-156.065s22.958-114.379 64.644-156.065c41.688-41.687 97.112-64.645 156.065-64.645 41.472 0 81.89 11.57 116.886 33.461 34.028 21.285 61.64 51.408 79.848 87.114 3.136 6.15.693 13.678-5.457 16.814-6.147 3.137-13.678.693-16.814-5.457-16.15-31.671-40.645-58.394-70.834-77.276-31.017-19.401-66.851-29.656-103.628-29.656-107.915 0-195.71 87.795-195.71 195.71s87.795 195.71 195.71 195.71c36.777 0 72.611-10.255 103.628-29.656 30.189-18.883 54.684-45.605 70.834-77.276 3.137-6.151 10.665-8.595 16.814-5.457 6.15 3.137 8.593 10.664 5.457 16.814-18.208 35.706-45.819 65.829-79.848 87.114-34.996 21.891-75.413 33.461-116.885 33.461z" fill="#fea3c6"/></g><g fill="#fe5694"><path d="m311.841 153.755h-53.125c-25.177 0-45.659 20.482-45.659 45.659v35.199c0 10.619 3.654 20.395 9.757 28.159-6.103 7.764-9.757 17.54-9.757 28.159v35.199c0 25.177 20.482 45.659 45.659 45.659h53.125c25.177 0 45.659-20.482 45.659-45.659v-35.199c0-10.619-3.654-20.395-9.757-28.159 6.103-7.764 9.757-17.54 9.757-28.159v-35.199c0-25.177-20.482-45.659-45.659-45.659zm-63.784 45.659c0-5.878 4.781-10.659 10.659-10.659h53.125c5.878 0 10.659 4.781 10.659 10.659v35.199c0 5.878-4.781 10.659-10.659 10.659h-53.125c-5.878 0-10.659-4.781-10.659-10.659zm74.443 126.717c0 5.878-4.781 10.659-10.659 10.659h-53.125c-5.878 0-10.659-4.781-10.659-10.659v-35.199c0-5.878 4.781-10.659 10.659-10.659h53.125c5.878 0 10.659 4.781 10.659 10.659z"/><path d="m174.238 153.755h-28.238c-9.665 0-17.5 7.835-17.5 17.5s7.835 17.5 17.5 17.5h10.738v165.535c0 9.665 7.835 17.5 17.5 17.5s17.5-7.835 17.5-17.5v-183.035c0-9.665-7.835-17.5-17.5-17.5z"/><path d="m494.5 238.5h-32.018v-32.018c0-9.665-7.835-17.5-17.5-17.5s-17.5 7.835-17.5 17.5v32.018h-32.017c-9.665 0-17.5 7.835-17.5 17.5s7.835 17.5 17.5 17.5h32.017v32.018c0 9.665 7.835 17.5 17.5 17.5s17.5-7.835 17.5-17.5v-32.018h32.018c9.665 0 17.5-7.835 17.5-17.5s-7.835-17.5-17.5-17.5z"/></g></g></svg>