<svg xmlns="http://www.w3.org/2000/svg" viewBox="0 0 22.76 20.61"><defs><style>.cls-1{fill:#231815;}.cls-2{fill:#040000;}.cls-3{fill:#fff;}</style></defs><g id="圖層_2" data-name="圖層 2"><g id="圖層_1-2" data-name="圖層 1"><path class="cls-1" d="M6.45,3.4c-.17-.33-1-1.93-1.12-2.27C5.09.6,5.61.52,5.71.79L6.77,3,7.4.55c0-.26.6-.24.6.07v0L7.07,3.5,7.4,7.3c0,.15-.12.2-.25.2s-.25,0-.28-.18A33.86,33.86,0,0,0,6.45,3.4Z"/><path class="cls-1" d="M10.37,0c1.68.19,1.44,4.17,1.34,5.42-.06.68-.41,1.87-1.34,1.87-1.66,0-1.74-2.83-1.74-3.92S8.72,0,10.37,0ZM9.17,3.33c0,2.74.5,3.49,1.17,3.49.91,0,.92-2.38.92-3v0c0-.72-.19-3.34-1.08-3.34-.7,0-1,1.56-1,2C9.17,2.81,9.17,3.07,9.17,3.33Z"/><path class="cls-1" d="M14.15,7l-.22,0C12.78,6.83,12.69,4,12.6.71l0-.46v0c0-.21.5-.2.56,0s-.25,6.36,1,6.36c.33,0,.43-.54.44-.79,0-1.16,0-3.77,0-5.57,0-.15.11-.17.28-.17s.28,0,.29.18c0,1.65,0,3.32,0,5C15.14,6.06,15.13,7,14.15,7Z"/><path class="cls-2" d="M8.5,20.42c-2.63-.4-5.86.71-7.61-1.28-1.16-1.32-.95-3.31-.67-5a6.6,6.6,0,0,1,1-2.87C2.3,9.7,4.46,9.48,6.36,9.39a51,51,0,0,1,9.08.1,10.65,10.65,0,0,1,5.27,1.91,5,5,0,0,1,1.91,5,5,5,0,0,1-3.05,3.09,11.74,11.74,0,0,1-4.26,1,44.19,44.19,0,0,1-6.81-.11"/><path class="cls-3" d="M5.62,15c0-.72,0-2.53,0-2.54l-.74,0c-.3-.08-.42-.37,0-.49.73,0,1.44,0,2.2.06.42,0,.39.51.12.51l-1,0s0,3-.06,4.18c0,.38,0,1.1,0,1.55v.12c-.07.28-.46.2-.52-.06C5.58,17.63,5.62,15.7,5.62,15Z"/><path class="cls-3" d="M9.94,18.8l-.22,0c-1.15-.14-1.23-3-1.33-6.25l0-.46V12c0-.2.5-.2.56,0s-.25,6.36,1,6.36c.33,0,.43-.53.44-.78,0-1.16,0-3.77,0-5.58,0-.15.1-.17.27-.17s.28,0,.29.19c0,1.65,0,3.31,0,5C10.93,17.88,10.92,18.8,9.94,18.8Z"/><path class="cls-3" d="M13.86,12.75a1.87,1.87,0,0,1-.5,1.28,2.86,2.86,0,0,1,1.48,2.72,2.21,2.21,0,0,1-2.2,2.47c-.07,0-.26,0-.33-.14-.1-1.44-.1-2.87-.24-4.56l-.19-2.23V12.1A1.11,1.11,0,0,1,13.86,12.75Zm-1.3,1.09c.48,0,.8-.54.8-1.05s-.44-.72-.94-.49ZM13,18.66c1,0,1.32-1,1.32-1.91s-.47-2.31-1.7-2.31c0,1.42.1,2.81.22,4.21Z"/><path class="cls-3" d="M15.27,12.55a.34.34,0,0,1,.32-.33h1.48a.52.52,0,0,1,.25.18.09.09,0,0,1,0,0c0,.19-.25.27-.4.27H15.81l0,3.11,1-.15h0c.44,0,.27.43-.1.49l-.94.13,0,2.45h.48c.63,0,1.09-.22,1.12.21s-2.08.28-2.08.1Z"/></g></g></svg>