<svg xmlns="http://www.w3.org/2000/svg" viewBox="0 0 20.25 24.73"><defs><style>.cls-1,.cls-2{fill:none;stroke:#040000;stroke-linecap:round;stroke-linejoin:round;}.cls-2{stroke-width:1.09px;}</style></defs><g id="圖層_2" data-name="圖層 2"><g id="圖層_1-2" data-name="圖層 1"><path class="cls-1" d="M10,16.53c1,2.66-5,3.12-6,.59a2.88,2.88,0,0,1,1.65-3.73C7.17,12.81,9.41,15,10,16.53Z"/><path class="cls-1" d="M4.67,8.28c-.14.42,0,5.59,0,5.59"/><path class="cls-1" d="M10.55,16.53c-1,2.66,5,3.12,6,.59a2.88,2.88,0,0,0-1.65-3.73C13.37,12.81,11.12,15,10.55,16.53Z"/><path class="cls-1" d="M15.86,8.28c.14.42,0,5.59,0,5.59"/><rect class="cls-2" x="0.54" y="2.32" width="19.16" height="21.87" rx="3.33"/><path class="cls-2" d="M5.58,4.28a.81.81,0,1,1-.8-.8A.8.8,0,0,1,5.58,4.28Z"/><line class="cls-2" x1="4.78" y1="0.54" x2="4.78" y2="4.01"/><path class="cls-2" d="M9.18,4.28a.81.81,0,1,1-.8-.8A.8.8,0,0,1,9.18,4.28Z"/><line class="cls-2" x1="8.38" y1="0.54" x2="8.38" y2="4.01"/><path class="cls-2" d="M12.78,4.28a.81.81,0,1,1-.8-.8A.8.8,0,0,1,12.78,4.28Z"/><line class="cls-2" x1="11.98" y1="0.54" x2="11.98" y2="4.01"/><path class="cls-2" d="M16.38,4.28a.81.81,0,1,1-.8-.8A.8.8,0,0,1,16.38,4.28Z"/><line class="cls-2" x1="15.58" y1="0.54" x2="15.58" y2="4.01"/></g></g></svg>