<?xml version="1.0" encoding="utf-8"?>
<!-- Generator: Adobe Illustrator 16.0.3, SVG Export Plug-In . SVG Version: 6.00 Build 0)  -->
<!DOCTYPE svg PUBLIC "-//W3C//DTD SVG 1.1//EN" "http://www.w3.org/Graphics/SVG/1.1/DTD/svg11.dtd">
<svg version="1.1" id="圖層_1" xmlns="http://www.w3.org/2000/svg" xmlns:xlink="http://www.w3.org/1999/xlink" x="0px" y="0px"
	 width="200px" height="31.564px" viewBox="0 84.218 200 31.564" enable-background="new 0 84.218 200 31.564" xml:space="preserve"
	>
<g>
	<g>
		<path fill="#3C3C3C" d="M88.04,84.94c-0.457-0.456-1.065-0.722-1.75-0.722s-1.255,0.266-1.749,0.722
			c-0.495,0.457-0.723,1.065-0.723,1.75s0.228,1.255,0.723,1.75c0.494,0.494,1.064,0.723,1.749,0.723s1.255-0.229,1.75-0.723
			c0.457-0.457,0.723-1.065,0.723-1.75S88.496,85.396,88.04,84.94z"/>
		<path fill="#3C3C3C" d="M88.496,107.111V91.443h-4.374v15.668c0,0.533,0.228,1.027,0.646,1.407s0.951,0.571,1.559,0.571
			s1.141-0.191,1.559-0.571C88.268,108.139,88.458,107.682,88.496,107.111z"/>
		<path fill="#F5281E" d="M110.363,93.079l-0.685-2.168c-0.304-0.913-0.837-1.369-1.636-1.369c-0.304,0-0.607,0.076-0.95,0.19
			l-19.091,6.655c-0.685,0.228-1.103,0.57-1.331,0.989c-0.19,0.418-0.19,0.951,0.076,1.521l0.799,2.13
			c1.711,4.449,4.64,6.389,6.769,7.225c1.445,0.57,3.081,0.875,4.678,0.875l0,0c1.369,0,2.7-0.229,3.879-0.646
			C109.146,106.313,112.417,99.543,110.363,93.079z M98.916,104.943c-1.027,0-2.054-0.189-2.966-0.531
			c-1.445-0.571-3.385-1.826-4.374-4.716L91.5,99.43l14.755-5.134l0.076,0.266c0.189,0.571,0.608,2.586,0.076,4.754
			c-0.646,2.548-2.281,4.259-4.906,5.172C100.703,104.83,99.829,104.943,98.916,104.943z"/>
		<path fill="#3C3C3C" d="M69.253,87.716c0.342-0.457,0.456-1.027,0.304-1.711c-0.152-0.799-0.837-1.711-2.206-1.711
			c-4.83,0-7.492,2.472-7.682,7.188l-0.038,0.532l-0.685,0.038c-0.457,0.038-0.875,0.266-1.217,0.608
			c-0.38,0.418-0.608,0.951-0.608,1.559c0,0.609,0.19,1.141,0.608,1.56c0.342,0.38,0.761,0.57,1.217,0.608l0.685,0.038v12.512h4.373
			V96.425h3.119c0.532,0,0.989-0.229,1.369-0.646c0.38-0.418,0.57-0.951,0.57-1.56c0-0.608-0.19-1.141-0.57-1.559
			s-0.837-0.646-1.369-0.646h-3.119v-0.57c0-1.635,0.495-2.624,3.081-2.738C68.036,88.629,68.834,88.287,69.253,87.716z"/>
		<path fill="#3C3C3C" d="M141.281,91.405c-0.304-0.114-0.684-0.19-1.026-0.19c-0.608,0-1.369,0.19-1.749,1.141l-3.575,8.481
			l-3.499-8.481c-0.418-1.065-1.482-1.179-1.901-1.179c-0.304,0-0.646,0.076-0.913,0.19c-0.342,0.152-0.988,0.608-1.254,1.293
			c-0.191,0.457-0.191,0.913,0.037,1.369l5.172,12.55l-3.84,9.165l4.753,0.038l9.128-21.639c0.189-0.457,0.189-1.027,0-1.521
			C142.347,92.242,142.004,91.709,141.281,91.405z"/>
		<path fill="#3C3C3C" d="M118.312,91.253c-2.435,0-4.525,0.875-6.198,2.586c-1.674,1.711-2.587,3.803-2.587,6.199
			c0,2.396,0.875,4.525,2.587,6.237c1.711,1.711,3.803,2.586,6.198,2.586c2.167,0,3.46-0.686,4.031-1.104l0.304-0.229l0.076,1.445
			h4.373v-8.937c0-2.396-0.874-4.525-2.586-6.237C122.799,92.09,120.707,91.253,118.312,91.253z M122.419,101.711
			c-0.229,0.533-0.532,0.989-0.951,1.408c-0.38,0.379-0.874,0.722-1.407,0.95c-0.532,0.228-1.103,0.343-1.711,0.343
			s-1.18-0.115-1.711-0.343c-0.533-0.229-0.989-0.571-1.408-0.95c-0.38-0.381-0.723-0.875-0.95-1.408
			c-0.228-0.532-0.343-1.103-0.343-1.711s0.115-1.179,0.343-1.711c0.228-0.532,0.532-1.027,0.95-1.407
			c0.381-0.38,0.838-0.722,1.408-0.951c0.531-0.228,1.103-0.342,1.711-0.342s1.179,0.114,1.711,0.342
			c0.533,0.229,1.027,0.57,1.407,0.951c0.419,0.418,0.723,0.875,0.951,1.407c0.228,0.533,0.342,1.103,0.342,1.711
			C122.723,100.646,122.646,101.179,122.419,101.711z"/>
		<path fill="#3C3C3C" d="M82.792,93.079c-0.152-1.141-1.103-1.788-2.586-1.788h-0.38c-2.624,0-4.374,1.597-4.374,1.597
			l-0.342,0.342v-1.787h-4.374v15.706c0,0.532,0.228,0.989,0.646,1.369s0.951,0.571,1.559,0.571c0.609,0,1.141-0.191,1.56-0.571
			s0.608-0.837,0.608-1.369v-6.997c0-2.625,2.89-4.069,4.183-4.335c0.229-0.038,0.495-0.076,0.799-0.076
			c0.266,0,0.494-0.038,0.723-0.076C81.688,95.55,83.02,94.714,82.792,93.079z"/>
	</g>
	<g>
		<path fill="#F5281E" d="M151.131,103.689c-0.266,1.482-0.799,3.193-1.597,5.133l-1.978-0.646c0.799-2.053,1.331-3.727,1.521-5.02
			L151.131,103.689z M154.592,102.357h-6.123c-0.189,0-0.304-0.113-0.304-0.304V85.358c0-0.19,0.114-0.304,0.304-0.304h6.123
			c0.229,0,0.305,0.114,0.305,0.304v16.695C154.896,102.244,154.782,102.357,154.592,102.357z M152.881,90.15v-2.966l-0.114-0.076
			h-2.435l-0.113,0.076v2.928C150.219,90.15,152.881,90.15,152.881,90.15z M152.881,95.246v-3.042h-2.662v3.042H152.881z
			 M150.219,97.262v2.928l0.076,0.114h2.434c0.076,0,0.114-0.038,0.114-0.114v-2.928H150.219z M153.832,103.309
			c0.57,1.104,1.103,2.473,1.521,4.184l-1.901,0.608c-0.494-1.712-0.988-3.118-1.482-4.069L153.832,103.309z M159.041,108.785
			h-2.053v-3.613h-1.407v-1.825h1.407v-6.921c0-0.304,0.152-0.495,0.494-0.495h5.438v-1.483h-6.997v-1.826h3.916v-1.483h-2.966
			v-1.826h2.966v-1.369h-3.688v-1.863h3.688v-1.673h2.055v1.711h4.373v-1.826h2.053v1.826h3.537v1.825h-3.537v1.369h3.005v1.826
			h-3.005v1.483h3.918v1.864h-7.264v1.483h5.514c0.343,0,0.494,0.152,0.494,0.495v6.883h1.218v1.825h-1.218v1.407
			c0,0.837-0.304,1.445-0.988,1.901c-0.836,0.533-2.281,0.609-4.411,0.229l-0.076-2.244c1.521,0.381,2.51,0.494,2.853,0.229
			c0.38-0.229,0.532-0.533,0.532-0.912v-0.571h-9.888L159.041,108.785L159.041,108.785z M162.921,97.794h-3.728
			c-0.113,0-0.152,0.038-0.152,0.152v1.75h3.88V97.794L162.921,97.794z M162.921,103.347v-1.825h-3.88v1.825H162.921z
			 M166.229,87.944h-4.374v1.369h4.374V87.944z M166.229,92.622v-1.483h-4.374v1.483H166.229z M164.975,99.696h3.955v-1.75
			c0-0.114-0.038-0.152-0.152-0.152h-3.803V99.696L164.975,99.696z M168.93,103.347v-1.825h-3.955v1.825H168.93z"/>
		<path fill="#F5281E" d="M180.187,91.443h-1.749c-0.305,2.244-0.609,3.841-0.875,4.678l-2.206-0.304
			c0.837-2.7,1.293-5.781,1.293-9.204v-1.407h2.168v1.369l-0.152,2.586h1.521v-4.868h2.243v4.906h2.282v2.244h-2.282v6.427
			l2.092-1.255l1.293,1.826c-0.95,0.646-2.092,1.255-3.346,1.901v8.519h-2.244v-7.454l-3.537,1.483l-1.217-2.054
			c1.939-0.685,3.537-1.293,4.754-1.864L180.187,91.443L180.187,91.443z M192.395,89.694l-0.419,3.119
			c-0.761,3.575-2.966,7.188-6.465,10.838l-1.978-1.217c2.51-2.51,4.297-4.83,5.286-6.845c0.608-1.369,1.103-3.347,1.368-5.856h-1.9
			c-0.761,2.282-1.636,4.145-2.586,5.552l-2.168-0.836c2.053-3.119,3.309-6.465,3.727-10.002l2.244,0.304l-0.533,2.738h10.192
			l0.456,0.114c0.267,0.152,0.381,0.533,0.381,1.179l-0.152,10.268c-0.113,5.02-1.064,8.1-2.738,9.242
			c-0.988,0.723-2.966,0.684-5.856-0.115l-0.075-2.623c2.434,0.836,3.992,1.026,4.602,0.532c0.455-0.343,0.874-1.026,1.217-2.016
			c0.342-1.065,0.531-2.853,0.57-5.324c0.189-5.628,0.189-8.595,0-8.823c-0.039-0.152-0.152-0.19-0.305-0.19h-1.027
			c-0.037,3.537-0.874,7.074-2.395,10.687c-1.484,3.004-3.689,5.59-6.542,7.644l-1.787-1.635c5.399-3.157,8.253-8.748,8.48-16.696
			L192.395,89.694L192.395,89.694z"/>
	</g>
	<g>
		<path fill="#3C3C3C" d="M3.309,98.441c0-0.19-0.114-0.304-0.304-0.304H0.457v-2.244h4.487c0.38,0,0.57,0.19,0.57,0.571v6.237
			c0.114,0.57,0.38,1.103,0.875,1.712c0.57,0.836,1.483,1.444,2.7,1.673c1.369,0.343,6.465,0.304,15.174-0.19l-0.57,2.51
			l-12.512,0.039c-3.271-0.191-5.438-1.294-6.503-3.233c-0.152,0.532-0.608,1.218-1.293,1.939c-0.723,0.723-1.407,1.255-2.168,1.598
			L0,106.77c1.369-0.646,2.282-1.293,2.7-1.939c0.266-0.457,0.457-0.913,0.57-1.521v-4.868H3.309z M1.331,89.656
			c1.255,0.646,2.7,1.597,4.259,2.928L4.183,94.41c-1.635-1.331-2.966-2.282-4.107-2.89L1.331,89.656z M2.016,84.788
			c1.255,0.608,2.624,1.521,4.183,2.7l-1.331,1.863c-1.597-1.255-2.928-2.092-4.031-2.586L2.016,84.788z M11.523,101.331
			c-1.483,0.874-2.814,1.521-4.031,1.825l-1.103-2.016c2.206-0.646,4.297-1.673,6.237-3.042H7.948c-0.152,0-0.228-0.114-0.228-0.304
			v-4.868c0-0.19,0.076-0.266,0.228-0.266h14.375c0.19,0,0.304,0.076,0.304,0.266v4.868c0,0.19-0.114,0.304-0.304,0.304H15.82
			l-2.167,1.787v5.819h-2.016v-4.412L11.523,101.331z M13.957,87.944H7.454v-1.901h6.503v-1.75h2.13v1.75h6.541v1.939h-6.541v1.445
			h7.568v2.016h-17v-2.016h7.302V87.944L13.957,87.944z M9.85,94.486c-0.076,0-0.114,0.038-0.076,0.076v1.598l0.076,0.114h10.648
			l0.114-0.114v-1.598l-0.114-0.076H9.85z M21.259,98.365l1.331,1.597c-0.646,0.685-1.521,1.369-2.472,2.092l2.548,1.978
			l-1.293,1.75c-2.624-2.168-4.906-3.728-6.77-4.678l1.179-1.826c0.798,0.418,1.673,0.913,2.51,1.521
			C19.585,99.886,20.574,99.049,21.259,98.365z"/>
		<path fill="#3C3C3C" d="M29.625,96.615l-2.168-0.798c2.282-3.499,3.613-7.302,3.955-11.371l2.244,0.228
			c-0.342,2.206-0.723,4.146-1.255,5.781v18.483h-2.129V95.513L29.625,96.615z M33.809,103.993v-2.016h12.778v-1.559l-12.512,0.609
			l-0.228-2.054l7.606-0.304v-1.483H34.95c-0.342,0-0.495-0.19-0.495-0.532V89.58c0-0.342,0.152-0.532,0.495-0.532h6.503v-1.331
			h-7.036v-2.016h6.998v-1.293h2.13v1.293h7.796v2.016h-7.796v1.331h6.883c0.38,0,0.533,0.19,0.533,0.532v7.074
			c0,0.342-0.152,0.532-0.533,0.532H50.2l2.016,2.967l-1.673,1.141l-0.723-1.065l-1.103,0.076v1.673h2.929v2.016h-2.929v2.319
			c0,0.989-0.418,1.674-1.141,2.168c-0.761,0.457-2.206,0.457-4.335-0.037v-2.244c1.673,0.456,2.7,0.57,3.118,0.266
			c0.152-0.113,0.229-0.38,0.229-0.723v-1.749H33.809z M41.415,90.911h-4.792c-0.038,0-0.076,0.038-0.038,0.114v1.217h4.868
			C41.415,92.242,41.415,90.911,41.415,90.911z M41.415,93.953h-4.83v1.293c-0.038,0.076,0,0.114,0.038,0.152h4.792
			C41.415,95.36,41.415,93.953,41.415,93.953z M38.981,104.26c0.989,0.875,1.863,1.749,2.586,2.623l-1.635,1.293
			c-0.875-0.988-1.711-1.824-2.472-2.51L38.981,104.26z M43.544,92.242h5.286v-1.217c0-0.076-0.038-0.114-0.114-0.114h-5.172V92.242
			z M43.544,95.36h5.172l0.114-0.152v-1.293h-5.286V95.36z M48.678,97.186h-5.096v1.407l4.982-0.228l-0.457-0.685L48.678,97.186z"/>
	</g>
</g>
</svg>
