<?xml version="1.0" encoding="utf-8"?>
<!-- Generator: Adobe Illustrator 26.0.2, SVG Export Plug-In . SVG Version: 6.00 Build 0)  -->
<svg version="1.1" id="圖層_1" xmlns="http://www.w3.org/2000/svg" xmlns:xlink="http://www.w3.org/1999/xlink" x="0px" y="0px"
	 viewBox="0 0 50 26.23" style="enable-background:new 0 0 50 26.23;" xml:space="preserve">
<style type="text/css">
	.st0{fill:#FFFFFF;}
</style>
<g>
	<path class="st0" d="M23.93,2.96c0.31,0,0.61,0.02,0.89,0.07c3.54,0.56,5.25,3.55,5.48,4.83c0.57,3.1-2.14,7.17-3.83,9.08L26.42,17
		c-2.05,2.39-5.54,4.75-10.39,7.02c-5.62-2.53-13.16-8.1-13.87-12.87l-0.01-0.05l-0.01-0.04C2.13,11.03,1.31,6.4,4.18,4.31
		c1.4-1.02,3.03-1.23,4.15-1.23c2.32,0,4.83,0.88,6.4,2.25l1.23,1.07l1.31-0.97C17.3,5.4,20.68,2.96,23.93,2.96 M23.93,0.93
		c-4.02,0-7.88,2.86-7.88,2.86c-1.84-1.6-4.8-2.74-7.72-2.74c-1.9,0-3.78,0.48-5.35,1.62c-3.98,2.9-2.83,8.78-2.83,8.78
		c0.88,5.93,9.8,12.27,15.9,14.78c8.4-3.81,11.13-7.03,11.91-7.94c0.16-0.19,5.24-5.8,4.32-10.8c-0.39-2.15-2.74-5.78-7.16-6.47
		C24.74,0.96,24.33,0.93,23.93,0.93L23.93,0.93z"/>
	<polygon class="st0" points="50,6.07 43.93,6.07 43.93,0 41.91,0 41.91,6.07 35.84,6.07 35.84,8.09 41.91,8.09 41.91,14.16 
		43.93,14.16 43.93,8.09 50,8.09 	"/>
</g>
</svg>
