<?xml version="1.0" encoding="utf-8"?>
<!-- Generator: Adobe Illustrator 26.5.0, SVG Export Plug-In . SVG Version: 6.00 Build 0)  -->
<svg version="1.1" id="圖層_1" xmlns="http://www.w3.org/2000/svg" xmlns:xlink="http://www.w3.org/1999/xlink" x="0px" y="0px"
	 viewBox="0 0 32 32" style="enable-background:new 0 0 32 32;" xml:space="preserve">
<g>
	<path d="M14.2,20.7c-0.2-0.5-0.3-1.1-0.3-1.6c0-0.6,0.1-1.1,0.4-1.6c0.3-0.5,0.8-1.1,1.5-1.8c0.9-0.8,1.4-1.4,1.6-1.8
		s0.3-0.8,0.3-1.2c0-0.6-0.2-1.1-0.7-1.5c-0.4-0.4-1-0.6-1.7-0.6c-1.3,0-2.5,0.5-3.5,1.5V9.5c1.2-0.7,2.5-1.1,3.8-1.1
		c1.4,0,2.5,0.3,3.3,1c0.8,0.7,1.3,1.6,1.3,2.8c0,0.7-0.2,1.4-0.5,2c-0.3,0.6-0.9,1.3-1.8,2.1c-0.8,0.7-1.3,1.3-1.5,1.7
		c-0.2,0.4-0.3,0.8-0.3,1.2c0,0.5,0.1,1,0.4,1.5H14.2z M13.8,24.1c0-0.4,0.2-0.8,0.5-1.1c0.3-0.3,0.7-0.4,1.1-0.4
		c0.4,0,0.8,0.1,1.1,0.4c0.3,0.3,0.5,0.6,0.5,1.1c0,0.4-0.2,0.8-0.5,1.1c-0.3,0.3-0.7,0.4-1.1,0.4c-0.5,0-0.9-0.1-1.2-0.4
		C14,24.8,13.8,24.5,13.8,24.1z"/>
</g>
<path d="M16,3c7.2,0,13,5.8,13,13s-5.8,13-13,13S3,23.2,3,16S8.8,3,16,3 M16,0C7.2,0,0,7.2,0,16s7.2,16,16,16s16-7.2,16-16
	S24.8,0,16,0L16,0z"/>
</svg>
