<?xml version="1.0" encoding="utf-8"?>
<!-- Generator: Adobe Illustrator 27.3.1, SVG Export Plug-In . SVG Version: 6.00 Build 0)  -->
<svg version="1.1" id="圖層_1" xmlns="http://www.w3.org/2000/svg" xmlns:xlink="http://www.w3.org/1999/xlink" x="0px" y="0px"
	 width="194.8px" height="60px" viewBox="0 0 194.8 60" style="enable-background:new 0 0 194.8 60;" xml:space="preserve">
<style type="text/css">
	.製作陰影{fill:none;}
	.圓角_x0020_2_x0020_點{fill:#FFFFFF;stroke:#231815;stroke-miterlimit:10;}
	.即時反射_x0020_X{fill:none;}
	.柔化斜角{fill:url(#SVGID_1_);}
	.黃昏{fill:#FFFFFF;}
	.葉子_GS{fill:#FFE100;}
	.高捲式髮型_GS{fill-rule:evenodd;clip-rule:evenodd;fill:#4CACE2;}
	.st0{fill:#FFFFFF;}
</style>
<linearGradient id="SVGID_1_" gradientUnits="userSpaceOnUse" x1="47.4928" y1="-20.0707" x2="48.1999" y2="-19.3636">
	<stop  offset="0" style="stop-color:#E6E7EA"/>
	<stop  offset="0.1747" style="stop-color:#E2E3E6"/>
	<stop  offset="0.3538" style="stop-color:#D6D7DA"/>
	<stop  offset="0.5349" style="stop-color:#C1C4C5"/>
	<stop  offset="0.7174" style="stop-color:#A4A8A8"/>
	<stop  offset="0.8993" style="stop-color:#808584"/>
	<stop  offset="1" style="stop-color:#686E6C"/>
</linearGradient>
<g>
	<path class="st0" d="M168.4,14l8.3,9.9c3.4-6.7,10.1-11.8,18.2-11.8c0,0,0.1-0.1,0.1-0.1V0.4C183.9,0.4,174.3,5.8,168.4,14"/>
	<path class="st0" d="M165.4,40.7c-0.8,3.8-4.1,6.8-8.1,7c-0.1,0-17.9,0-17.9,0v11.8h19.7c6.4,0,12-2.9,15.8-7.5L165.4,40.7z"/>
	<path class="st0" d="M175.5,27.1c-0.1-0.2-0.3-0.4-0.4-0.5c-0.1-0.1-21.6-25.9-21.6-25.9H136l40.7,48.6c1.7-3,2.7-6.5,2.7-10.2
		C179.4,34.6,178,30.5,175.5,27.1"/>
	<polygon class="st0" points="7.9,0.6 15.4,14.1 23,0.6 30.9,0.6 19,20.8 19,33.5 11.9,33.5 11.9,20.8 0,0.6 	"/>
	<path class="st0" d="M35.7,32.3v-6.8c2.3,1.2,5.3,2.2,8.3,2.4c1.1,0,2.1,0,2.9-0.2c2.5-0.4,4-1.3,4-2.9c0-2.2-2-3.3-6.5-5
		c-5.8-2.1-9.1-4.5-9.1-10.2c0-5.8,4.8-9.6,11.9-9.6c3.3,0,6.5,0.7,8.6,1.6v6.5c-1.9-1.1-5-2-8-2c-3.4,0-5.6,1.3-5.6,3.4
		c0,1.9,1.8,3.2,6.3,4.9c5.8,2.2,9.3,4.7,9.3,10.2c0,5.9-4.5,9.5-12.2,9.5C41.7,34.2,38.1,33.4,35.7,32.3"/>
	<path class="st0" d="M66.8,33.5V0.6h10.5c11.2,0,18.3,6.8,18.3,16.5c0,9.6-7,16.5-18.2,16.5H66.8z M73.9,6.5v21.1h3.5
		c7,0,11.2-4.6,11.2-10.6c0-5.9-4.2-10.6-11.3-10.6H73.9z"/>
	<polygon class="st0" points="114.8,6.5 114.8,33.5 107.8,33.5 107.8,6.5 98.6,6.5 98.6,0.6 124,0.6 124,6.5 	"/>
	<g>
		<path class="st0" d="M11.9,40.6h4.6l6.2,18.5h-4.1l-1.4-4.8H11l-1.4,4.8H5.7L11.9,40.6z M11.8,51.5h4.6l-0.6-2
			c-0.6-1.9-1.1-4.1-1.7-6.1h-0.1c-0.5,2-1.1,4.1-1.7,6.1L11.8,51.5z"/>
		<path class="st0" d="M23.8,40.6h3.9v18.5h-3.9V40.6z"/>
		<path class="st0" d="M33.4,59.1H31v-9c0-0.5,0.3-0.8,0.8-0.8h7c0.6,0,0.8,0.3,0.8,0.8v9h-2.4v-0.6h-3.9V59.1z M47.7,48.3H32.9
			c-0.4,0-0.6-0.2-0.6-0.6v-6.4c0-0.4,0.2-0.6,0.6-0.6h14.9c0.4,0,0.6,0.2,0.6,0.6v6.4C48.3,48.1,48.1,48.3,47.7,48.3z M37.3,56.2
			V52c0-0.2-0.1-0.3-0.4-0.3h-3.2c-0.2,0-0.3,0.1-0.3,0.3v4.2H37.3z M34.9,43c-0.2,0-0.2,0.1-0.2,0.2v2.4c0,0.2,0.1,0.3,0.2,0.3
			h10.8c0.2,0,0.3-0.1,0.3-0.3v-2.4c0-0.2-0.1-0.2-0.3-0.2H34.9z M43.1,59.1h-2.4v-9c0-0.5,0.3-0.8,0.8-0.8h7.2
			c0.6,0,0.8,0.3,0.8,0.8v9h-2.4v-0.6h-4.1V59.1z M47.2,56.2V52c0-0.2-0.1-0.3-0.4-0.3h-3.5c-0.2,0-0.3,0.1-0.3,0.3v4.2H47.2z"/>
		<path class="st0" d="M54.2,59.6l-2.4-0.3c0.8-2.6,1.1-5.7,1.1-9.4v-9.4h2.4v5.3h1v-5.1h2.4v5.1h0.5v2.4h-3.9v1.5h3.1
			c0.4,0,0.6,0.2,0.6,0.6v9.2h-2.4v-7.1c0-0.2-0.1-0.3-0.3-0.3h-1C55,55.5,54.7,58,54.2,59.6z M59.5,55.7v-2.4h1.7
			c0.4-0.7,0.8-1.4,1-2h-1.9c-0.4,0-0.6-0.2-0.6-0.6v-8.4c0-0.4,0.2-0.6,0.6-0.6h3.2c0.3-0.8,0.5-1.4,0.7-1.9l2.2,0.8
			c-0.1,0.3-0.2,0.7-0.3,1.1h4.5c0.4,0,0.6,0.2,0.6,0.6v8.4c0,0.4-0.2,0.6-0.6,0.6h-2v2h2.8v2.4h-2.8v3.7h-2.4v-3.7H59.5z M64.2,44
			H62c-0.1,0-0.1,0-0.1,0.1v1.3h2.3V44z M64.2,47.7h-2.3v1.2c0,0.1,0,0.1,0.1,0.1h2.2V47.7z M66.2,51.3h-1.6c-0.2,0.7-0.5,1.3-0.8,2
			h2.4V51.3z M66.5,45.4h2.3v-1.3c0-0.1,0-0.1-0.1-0.1h-2.2V45.4z M66.5,49h2.2c0.1,0,0.1,0,0.1-0.1v-1.2h-2.3V49z"/>
		<path class="st0" d="M85.3,56.1l1.1,1.3c-1.5,1.2-3.1,2-4.6,2.5c-0.1-0.9-0.3-1.7-0.6-2.3c1-0.3,2-0.8,3-1.5h-2.7v-2.3h1.3v-6.5
			h-1.2v-1.7c-0.1,0.1-0.2,0.2-0.3,0.3l-1.5-1.2h-2.1v0.9c0,0.2,0,0.5,0,0.8h3.1c0.4,0,0.6,0.2,0.6,0.6c0,6.2-0.4,10-1,11.3
			c-0.3,0.6-0.6,1-1,1.1c-0.6,0.2-1.6,0.2-3-0.1v-2.1c-0.2,0.9-0.4,1.7-0.6,2.2l-2.4-0.4c1.4-4,2-8.4,2-13.4v-0.9h-1.2v-2.4h2.2
			v-1.9h2.4v1.9h1.9v0.7c0.6-0.9,1.1-1.9,1.3-3.2l2.2,0.5c-0.1,0.4-0.2,0.7-0.3,1.1h8.9v2.3H83c-0.3,0.5-0.6,1-1,1.4h0.8v-0.8h2.3
			v0.8h4.3v-0.8h2.3v0.8H93v2.2h-1.2v6.5H93v2.3h-2.9c1.2,0.6,2.3,1.3,3.3,2L91.9,60c-1.1-0.9-2.4-1.6-3.7-2.2l1.1-1.7H85.3z
			 M77.6,48.9c-0.1,0.5-0.1,1-0.1,1.5c-0.1,1.7-0.5,3.8-1,6.5c0.9,0.2,1.5,0.3,1.7,0.2c0.2-0.1,0.3-0.3,0.4-0.6
			c0.3-0.8,0.5-3.4,0.5-7.6c0-0.1-0.1-0.1-0.3-0.1H77.6z M89.4,48v-0.7h-4.3V48H89.4z M89.4,50.9v-0.8h-4.3v0.8H89.4z M89.4,53.8V53
			h-4.3v0.8H89.4z"/>
		<path class="st0" d="M97.9,51.4v0.9c0,2.5-0.2,5-0.6,7.5l-2.2-0.4c0.5-2.4,0.7-5,0.7-7.8h-0.3l-0.4-2.3l0.7-0.1v-6.6
			c0-0.3,0.2-0.5,0.5-0.5h1.5c0.3-0.8,0.5-1.5,0.6-2.1l2.2,0.6c-0.1,0.4-0.2,0.9-0.4,1.4h1.3c0.1,0,0.3,0,0.4,0.1
			c0.1,0.1,0.2,0.2,0.2,0.4v6.1h0.3l0.2,2.3l-0.5,0.1v7.3c0,0.5-0.1,0.8-0.4,1.1c-0.3,0.2-0.6,0.4-0.9,0.5c-0.3,0-1.1,0-2.5-0.1
			l-0.3-2.2c1.1,0.2,1.7,0.3,1.9,0.3c0.1,0,0.2-0.1,0.2-0.2v-6.3h-0.4v5.3h-1.5v-5.1H97.9z M100.2,47.6v-3.2c0-0.1,0-0.1-0.1-0.1
			c0,0-0.1-0.1-0.1-0.1h-1.8c-0.1,0-0.2,0.1-0.2,0.2v0.7l1.4-0.4c0.1,0.3,0.3,0.8,0.5,1.5C99.9,46.7,100.1,47.1,100.2,47.6z
			 M97.9,45.6v3.5l2.2-0.2v-0.7l-1.5,0.3c-0.1-0.6-0.3-1.2-0.5-1.9C98.1,46.1,98,45.9,97.9,45.6z M103.1,52.4c0-0.5,0.3-0.8,0.8-0.8
			h9.5c0.5,0,0.8,0.3,0.8,0.8v4.7h0.5v2.3h-12.3v-2.3h0.7V52.4z M111.2,46.9c-0.6-0.4-1.1-0.7-1.6-0.8v1.3c0,0.4-0.2,0.6-0.6,0.6
			h-1.3v1h1.9v2h-6c-0.5,0-0.8-0.3-0.8-0.8v-9c0-0.5,0.3-0.8,0.8-0.8h6l-0.1,2h-1.8v0.9h1.3c0.4,0,0.6,0.2,0.6,0.6v1
			c0.5-1.4,0.7-2.9,0.7-4.5l2.3,0.2c0,0.5-0.1,1-0.1,1.5h2.2v2.3h-2.6C111.9,45.3,111.6,46.1,111.2,46.9z M105.7,43.5v-0.9h-0.4
			c-0.2,0-0.3,0.1-0.3,0.3v0.6H105.7z M105,45.2v1.1h2.4c0.1,0,0.2-0.1,0.2-0.2v-0.7c0-0.1-0.1-0.2-0.2-0.2H105z M105.7,48H105v0.7
			c0,0.2,0.1,0.3,0.3,0.3h0.4V48z M106.1,57.1v-3.2h-0.5c-0.2,0-0.3,0.1-0.3,0.3v2.9H106.1z M109,57.1v-3.2h-0.7v3.2H109z
			 M114.5,48.7V51h-3.9v-2.3H114.5z M112.1,57.1v-2.9c0-0.2-0.1-0.3-0.3-0.3h-0.5v3.2H112.1z"/>
	</g>
</g>
</svg>
