<?xml version="1.0" encoding="utf-8"?>
<!-- Generator: Adobe Illustrator 26.0.2, SVG Export Plug-In . SVG Version: 6.00 Build 0)  -->
<svg version="1.1" id="圖層_1" xmlns="http://www.w3.org/2000/svg" xmlns:xlink="http://www.w3.org/1999/xlink" x="0px" y="0px"
	 viewBox="0 0 32.4 25.3" style="enable-background:new 0 0 32.4 25.3;" xml:space="preserve">
<style type="text/css">
	.st0{fill:#F9D0D7;}
</style>
<g>
	<path class="st0" d="M23.93,0c-4.02,0-7.88,2.86-7.88,2.86c-1.84-1.6-4.8-2.74-7.72-2.74c-1.9,0-3.78,0.48-5.35,1.62
		c-3.98,2.9-2.83,8.78-2.83,8.78c0.88,5.93,9.8,12.27,15.9,14.78c8.4-3.81,11.13-7.03,11.91-7.94c0.16-0.19,5.24-5.8,4.32-10.8
		c-0.39-2.15-2.74-5.78-7.16-6.47C24.74,0.03,24.33,0,23.93,0L23.93,0z"/>
</g>
</svg>
