<?xml version="1.0" encoding="utf-8"?>
<!-- Generator: Adobe Illustrator 26.3.1, SVG Export Plug-In . SVG Version: 6.00 Build 0)  -->
<svg version="1.1" id="圖層_1" xmlns="http://www.w3.org/2000/svg" xmlns:xlink="http://www.w3.org/1999/xlink" x="0px" y="0px"
	 viewBox="0 0 30 30" style="enable-background:new 0 0 30 30;" xml:space="preserve">
<style type="text/css">
	.st0{fill:#888888;}
	.st1{fill-rule:evenodd;clip-rule:evenodd;fill:#888888;}
</style>
<g>
	<path class="st0" d="M29,1v28H1V1H29 M30,0H0v30h30V0L30,0z"/>
	<path class="st0" d="M13,5v8H5V5H13 M14,4H4v10h10V4L14,4z"/>
	<path class="st0" d="M13,17.2v8H5v-8H13 M14,16.2H4v10h10V16.2L14,16.2z"/>
	<g>
		<path class="st1" d="M16.2,5h10v1h-10V5z"/>
		<path class="st1" d="M16.2,8h10v1h-10V8z"/>
		<path class="st1" d="M16.2,11h7v1h-7V11z"/>
	</g>
	<g>
		<path class="st1" d="M16.2,17.2h10v1h-10V17.2z"/>
		<path class="st1" d="M16.2,20.2h10v1h-10V20.2z"/>
		<path class="st1" d="M16.2,23.2h7v1h-7V23.2z"/>
	</g>
</g>
</svg>
