<?xml version="1.0" encoding="utf-8"?>
<!-- Generator: Adobe Illustrator 26.5.0, SVG Export Plug-In . SVG Version: 6.00 Build 0)  -->
<svg version="1.1" id="圖層_1" xmlns="http://www.w3.org/2000/svg" xmlns:xlink="http://www.w3.org/1999/xlink" x="0px" y="0px"
	 viewBox="0 0 34 30" style="enable-background:new 0 0 34 30;" xml:space="preserve">
<style type="text/css">
	.st0{fill-rule:evenodd;clip-rule:evenodd;}
</style>
<g>
	<path d="M22.8,3c0.4,0.4,1,1,1.6,1.6c1.5,1.5,3.3,3.4,4.8,4.9c0.7,0.7,1.3,1.3,1.8,1.8V25c0,1.1-0.9,2-2,2H5c-1.1,0-2-0.9-2-2V5
		c0-1.1,0.9-2,2-2H22.8 M24,0H5C2.2,0,0,2.2,0,5v20c0,2.8,2.2,5,5,5h24c2.8,0,5-2.2,5-5V10c0,0,0,0,0,0C33.9,10,24,0,24,0L24,0z"/>
	<g>
		<g>
			<path class="st0" d="M7.1,27h3v-5h-3V27z M7.1,3v5h3V3H7.1z M7.1,18h3v-6h-3V18z"/>
		</g>
	</g>
</g>
</svg>
