<?xml version="1.0" encoding="utf-8"?>
<!-- Generator: Adobe Illustrator 26.5.0, SVG Export Plug-In . SVG Version: 6.00 Build 0)  -->
<svg version="1.1" id="圖層_1" xmlns="http://www.w3.org/2000/svg" xmlns:xlink="http://www.w3.org/1999/xlink" x="0px" y="0px"
	 viewBox="0 0 32 32" style="enable-background:new 0 0 32 32;" xml:space="preserve">
<g>
	<g>
		<path d="M14.1,8.8c0-1.1,0.8-1.8,1.9-1.8c1.1,0,1.9,0.7,1.9,1.8c0,1.1-0.8,1.8-1.9,1.8C14.9,10.6,14.1,9.9,14.1,8.8z M14.4,12.6
			h3.2v12.3h-3.2V12.6z"/>
	</g>
	<path d="M16,3c7.2,0,13,5.8,13,13s-5.8,13-13,13S3,23.2,3,16S8.8,3,16,3 M16,0C7.2,0,0,7.2,0,16s7.2,16,16,16s16-7.2,16-16
		S24.8,0,16,0L16,0z"/>
</g>
</svg>
