<?xml version="1.0" encoding="utf-8"?>
<!-- Generator: Adobe Illustrator 26.3.1, SVG Export Plug-In . SVG Version: 6.00 Build 0)  -->
<svg version="1.1" id="圖層_1" xmlns="http://www.w3.org/2000/svg" xmlns:xlink="http://www.w3.org/1999/xlink" x="0px" y="0px"
	 viewBox="0 0 80 80" style="enable-background:new 0 0 80 80;" xml:space="preserve">
<style type="text/css">
	.st0{fill-rule:evenodd;clip-rule:evenodd;fill:#333333;}
	.st1{fill-rule:evenodd;clip-rule:evenodd;fill:#888888;}
	.st2{fill-rule:evenodd;clip-rule:evenodd;}
	.st3{fill-rule:evenodd;clip-rule:evenodd;fill:url(#SVGID_1_);}
	.st4{fill:url(#SVGID_00000151539799306622609420000013642584225128792731_);}
</style>
<g>
	<path class="st0" d="M62.6,0C72.2,0,80,7.8,80,17.4v45.3C80,72.2,72.2,80,62.6,80H17.4C7.8,80,0,72.2,0,62.6V17.4
		C0,7.8,7.8,0,17.4,0H62.6z"/>
	<path class="st1" d="M80,18.4v-1C80,7.8,72.2,0,62.6,0H17.4C7.8,0,0,7.8,0,17.4v1C0,8.9,7.8,2,17.4,2h45.3C72.2,2,80,8.9,80,18.4z"
		/>
	<path class="st2" d="M80,61.6v1C80,72.2,72.2,80,62.6,80H17.4C7.8,80,0,72.2,0,62.6v-1C0,71.1,7.8,76,17.4,76h45.3
		C72.2,76,80,71.1,80,61.6z"/>
	<g>
		<linearGradient id="SVGID_1_" gradientUnits="userSpaceOnUse" x1="75.9463" y1="73.8503" x2="29.0628" y2="26.9668">
			<stop  offset="0" style="stop-color:#000000;stop-opacity:0"/>
			<stop  offset="0.9104" style="stop-color:#000000;stop-opacity:0.9104"/>
			<stop  offset="1" style="stop-color:#000000"/>
		</linearGradient>
		<path class="st3" d="M55.7,23.2L80,47.5v15.1C80,72.2,72.2,80,62.6,80h-11L15.1,43.3C27.9,19.3,55.7,23.2,55.7,23.2z"/>
		<g>
			<g>
				
					<linearGradient id="SVGID_00000014607840055570403660000004144181724304326813_" gradientUnits="userSpaceOnUse" x1="23.7344" y1="56.2657" x2="56.2663" y2="23.7338">
					<stop  offset="0" style="stop-color:#888888"/>
					<stop  offset="0.49" style="stop-color:#FFFFFF"/>
					<stop  offset="0.5" style="stop-color:#BBBBBB"/>
					<stop  offset="0.9" style="stop-color:#FFFFFF"/>
				</linearGradient>
				<path style="fill:url(#SVGID_00000014607840055570403660000004144181724304326813_);" d="M40,27.5v6.8l15.7-11.2L40,12v6.8
					c-13.8,0-25,11-25,24.5h8.8C23.8,34.6,31.1,27.5,40,27.5z M56.2,36.7c0,8.7-7.3,15.8-16.2,15.8v-6.8L24.3,56.8L40,68v-6.8
					c13.8,0,25-11,25-24.5H56.2z"/>
			</g>
		</g>
	</g>
</g>
</svg>
