<?xml version="1.0" encoding="utf-8"?>
<!-- Generator: Adobe Illustrator 26.5.0, SVG Export Plug-In . SVG Version: 6.00 Build 0)  -->
<svg version="1.1" id="圖層_1" xmlns="http://www.w3.org/2000/svg" xmlns:xlink="http://www.w3.org/1999/xlink" x="0px" y="0px"
	 viewBox="0 0 32.9 32.9" style="enable-background:new 0 0 32.9 32.9;" xml:space="preserve">
<style type="text/css">
	.st0{fill-rule:evenodd;clip-rule:evenodd;fill:#FDAC00;}
	.st1{fill:#FFFFFF;}
</style>
<path class="st0" d="M16.4,0c9.1,0,16.4,7.4,16.4,16.4c0,9.1-7.4,16.4-16.4,16.4C7.4,32.9,0,25.5,0,16.4C0,7.4,7.4,0,16.4,0z"/>
<path class="st1" d="M16.4,4.6c6.5,0,11.8,5.3,11.8,11.8S23,28.3,16.4,28.3C9.9,28.3,4.6,23,4.6,16.4S9.9,4.6,16.4,4.6 M16.4,2.6
	C8.8,2.6,2.6,8.8,2.6,16.4s6.2,13.8,13.8,13.8c7.6,0,13.8-6.2,13.8-13.8S24.1,2.6,16.4,2.6L16.4,2.6z"/>
<path class="st1" d="M20.5,10.2c0.2-0.3,0.3-0.7,0.2-1.2c-0.1-0.5-0.6-1.2-1.5-1.2c-3.4,0-5.2,1.7-5.3,5l0,0.4l-0.5,0
	c-0.3,0-0.6,0.2-0.9,0.4c-0.3,0.3-0.4,0.7-0.4,1.1c0,0.4,0.1,0.8,0.4,1.1c0.2,0.3,0.5,0.4,0.9,0.4l0.5,0V25h3v-8.7h2.2
	c0.4,0,0.7-0.2,1-0.4c0.3-0.3,0.4-0.7,0.4-1.1c0-0.4-0.1-0.8-0.4-1.1c-0.3-0.3-0.6-0.4-1-0.4h-2.2v-0.4c0-1.1,0.4-1.8,2.1-1.9
	C19.7,10.9,20.2,10.6,20.5,10.2z"/>
</svg>
