<?xml version="1.0" encoding="utf-8"?>
<!-- Generator: Adobe Illustrator 27.4.1, SVG Export Plug-In . SVG Version: 6.00 Build 0)  -->
<svg version="1.1" id="圖層_1" xmlns="http://www.w3.org/2000/svg" xmlns:xlink="http://www.w3.org/1999/xlink" x="0px" y="0px"
	 width="200px" height="70px" viewBox="0 0 200 70" style="enable-background:new 0 0 200 70;" xml:space="preserve">
<style type="text/css">
	.製作陰影{fill:none;}
	.圓角_x0020_2_x0020_點{fill:#FFFFFF;stroke:#231815;stroke-miterlimit:10;}
	.即時反射_x0020_X{fill:none;}
	.柔化斜角{fill:url(#SVGID_1_);}
	.黃昏{fill:#FFFFFF;}
	.葉子_GS{fill:#FFE100;}
	.高捲式髮型_GS{fill-rule:evenodd;clip-rule:evenodd;fill:#4CACE2;}
	.st0{fill:#FFFFFF;}
	.st1{fill:#F5281E;}
</style>
<linearGradient id="SVGID_1_" gradientUnits="userSpaceOnUse" x1="-149.7816" y1="-214.9425" x2="-149.0745" y2="-214.2354">
	<stop  offset="0" style="stop-color:#E6E7EA"/>
	<stop  offset="0.1747" style="stop-color:#E2E3E6"/>
	<stop  offset="0.3538" style="stop-color:#D6D7DA"/>
	<stop  offset="0.5349" style="stop-color:#C1C4C5"/>
	<stop  offset="0.7174" style="stop-color:#A4A8A8"/>
	<stop  offset="0.8993" style="stop-color:#808584"/>
	<stop  offset="1" style="stop-color:#686E6C"/>
</linearGradient>
<g>
	<path class="st0" d="M134,23.8c-0.4,0-0.6,0.2-0.9,0.5c-0.2,0.3-0.3,0.7-0.3,1V51c0,3.4-0.2,6.6-0.5,9.6c-0.2,2.1-0.6,4.3-1.1,6.5
		c-0.4,1.7-1.9,2.9-3.6,2.9h-7.3c0.8-3.4,1.4-6.9,1.8-10.4c0.4-3.5,0.6-7.4,0.6-11.7V24c0-2.2,0.7-3.9,2.1-5.1
		c1.1-1,2.6-1.4,4.4-1.4h18.5c-0.3-0.6-0.6-1.5-1-2.6c-0.4-1.1-0.7-1.9-0.9-2.6l10.4,0c0.8,0,1.5,0.5,1.7,1.2c0.6,1.5,1.2,2.8,2,4
		h18.2v4.9c0,0.9-0.7,1.5-1.5,1.5H134z M160.7,39.9v5.6h10.6c2.2,0,3.9,0.6,5,1.8c1,1.1,1.5,2.5,1.5,4.4v11.9c0,1.7-0.5,3.2-1.6,4.4
		c-1.1,1.1-2.5,1.6-4.2,1.6h-29.7c-2,0-3.5-0.5-4.6-1.6c-1.3-1.1-1.9-2.8-1.9-5V51.7c0-2.1,0.6-3.8,1.9-4.9c1.1-0.9,2.4-1.3,4-1.3
		h8.8V29.8h10.2v3.8h15.7v4.5c0,1-0.8,1.9-1.9,1.9H160.7z M167.8,53c0-0.3-0.1-0.5-0.4-0.8c-0.3-0.3-0.5-0.4-0.8-0.4h-19.3
		c-0.3,0-0.6,0.1-0.8,0.4c-0.2,0.3-0.3,0.5-0.3,0.7v8.9c0,0.3,0.2,0.5,0.5,0.8c0.3,0.3,0.6,0.4,0.9,0.4h19.1c0.3,0,0.6-0.1,0.9-0.4
		c0.2-0.2,0.4-0.6,0.4-0.9V53z"/>
	<g>
		<path class="st0" d="M97.8,58.4v2.8c0,2.1-1.7,3.7-3.7,3.7h-5.6v-6.5h-8.8c-0.6,2-0.8,3.6-1.8,4.7c-0.8,0.9-2.1,1.8-4,1.8h-5.4
			c0.6-2.1,6.3-22.1,6.3-22.1c0.5-2.5,2.2-3.3,3.8-3.3h15.5c2.1,0,3.7,1.5,3.7,3.3v1.9l0,0v8.5h4.2v3.6c0,0.9-0.7,1.5-1.5,1.5H97.8z
			 M88.5,44.7h-4.9l-2.4,8.5h7.3V44.7z"/>
	</g>
	<g>
		<path class="st0" d="M82.1,35.1c-1,0.8-2.2,1.2-3.6,1.2H67.2v29.9c0,2.1-1.7,3.7-3.7,3.7h-5.8V17.4c0-1.5,0.5-2.7,1.5-3.5
			c1-0.9,2.2-1.3,3.7-1.3h15.4c1.7,0,3.1,0.5,4.1,1.5c1,1,1.4,2.2,1.4,3.9v13.5C83.8,32.9,83.2,34.2,82.1,35.1z M74.1,19.5
			c0-0.6-0.3-1-1-1h-4.7c-0.3,0-0.5,0.1-0.8,0.3c-0.3,0.2-0.4,0.4-0.4,0.6v2h6.9V19.5z M74.1,27.2h-6.9v3.2h5.9c0.6,0,1-0.4,1-1.1
			V27.2z M112.7,68.4c-0.5,0.5-1,0.9-1.6,1.2c-0.6,0.3-1.2,0.4-1.8,0.4h-9l-1.6-6.3h4.4c0.4,0,0.7-0.1,0.9-0.4
			c0.2-0.2,0.4-0.6,0.4-0.9V36.4H92.8c-1.4,0-2.6-0.4-3.5-1.2c-1.1-1-1.6-2.4-1.6-4.3V17.5c0-1.6,0.5-2.8,1.5-3.7
			c1-0.9,2.4-1.4,4.2-1.4H108c2.2,0,3.8,0.6,4.8,1.8c0.9,1,1.3,2.4,1.3,4.3v46.5C114.1,66.2,113.6,67.3,112.7,68.4z M104.4,19.5
			c0-0.2-0.1-0.4-0.3-0.6c-0.2-0.2-0.5-0.3-0.7-0.3h-5.2c-0.5,0-1,0.4-1,1v2h7.2V19.5z M104.4,27.2h-7.2v2.2c0,0.6,0.4,1,1.1,1h6.1
			V27.2z"/>
	</g>
	<path class="st0" d="M160.9,48.7h-11.1V27h7.4c2.1,0,3.7,1.7,3.7,3.7V48.7z"/>
	<circle class="st0" cx="34.2" cy="12.4" r="12.4"/>
	<path class="st1" d="M34.1,4.3c0.9,0,1.7,0.6,2.4,1.9L41.5,17c0.3,0.7-0.1,1.4-1.3,1.9c-1.2,0.4-1.9,0.3-2.2-0.4l-0.7-1.6h-6.2
		l-0.7,1.7c-0.3,0.7-1,0.8-2.2,0.3c-1.2-0.5-1.7-1.1-1.4-1.7l5-10.9C32.5,4.9,33.3,4.3,34.1,4.3z M32.4,13.6h3.4l-1.7-4L32.4,13.6z"
		/>
	<g>
		<rect x="21.7" y="27.9" class="st0" width="24.8" height="1.9"/>
		<rect x="21.7" y="68.1" class="st0" width="24.8" height="1.9"/>
		<rect x="23" y="27.9" class="st0" width="22.3" height="42.1"/>
	</g>
	<g>
		<polygon class="st1" points="26.3,60.3 27.4,62.3 28.5,60.3 29.6,60.3 27.9,63.3 27.9,65.1 26.9,65.1 26.9,63.3 25.1,60.3 		"/>
		<path class="st1" d="M30.3,64.9v-1c0.3,0.2,0.8,0.3,1.2,0.3c0.2,0,0.3,0,0.4,0c0.4-0.1,0.6-0.2,0.6-0.4c0-0.3-0.3-0.5-0.9-0.7
			c-0.8-0.3-1.3-0.7-1.3-1.5c0-0.8,0.7-1.4,1.7-1.4c0.5,0,0.9,0.1,1.2,0.2v0.9c-0.3-0.2-0.7-0.3-1.2-0.3c-0.5,0-0.8,0.2-0.8,0.5
			c0,0.3,0.3,0.5,0.9,0.7c0.8,0.3,1.4,0.7,1.4,1.5c0,0.9-0.6,1.4-1.8,1.4C31.2,65.2,30.7,65.1,30.3,64.9"/>
		<path class="st1" d="M34.8,65.1v-4.8h1.5c1.6,0,2.6,1,2.6,2.4c0,1.4-1,2.4-2.6,2.4H34.8z M35.8,61.2v3.1h0.5c1,0,1.6-0.7,1.6-1.5
			c0-0.9-0.6-1.5-1.6-1.5H35.8z"/>
		<polygon class="st1" points="41.8,61.2 41.8,65.1 40.8,65.1 40.8,61.2 39.4,61.2 39.4,60.3 43.1,60.3 43.1,61.2 		"/>
	</g>
</g>
</svg>
