<?xml version="1.0" encoding="utf-8"?>
<!-- Generator: Adobe Illustrator 26.3.1, SVG Export Plug-In . SVG Version: 6.00 Build 0)  -->
<svg version="1.1" id="圖層_1" xmlns="http://www.w3.org/2000/svg" xmlns:xlink="http://www.w3.org/1999/xlink" x="0px" y="0px"
	 viewBox="0 0 190 58" style="enable-background:new 0 0 190 58;" xml:space="preserve">
<style type="text/css">
	.st0{fill:#FFFFFF;}
</style>
<g>
	<g>
		<path class="st0" d="M20.4,56.5c-2.6-0.3-4.9-0.7-7-1.4c0,0,0,0,0-0.1c0,0,0,0,0-0.1c1.5-0.8,2.7-1.8,3.6-3
			c0.1-0.1,0.2-0.3,0.1-0.4c0-0.2-0.1-0.3-0.3-0.4L16.5,51c-0.1-0.1-0.3-0.1-0.5-0.1c0,0,0,0,0,0H9.4c0,0,0,0-0.1,0c0,0,0,0,0-0.1
			c0.3-0.3,0.6-0.6,0.9-0.9c0.1-0.1,0.1-0.1,0.1-0.2c0-0.1-0.1-0.1-0.2-0.2c0,0,0,0,0,0c0,0,0,0,0,0h3.5c0.6,0,1.1-0.1,1.4-0.3
			s0.5-0.6,0.6-1.2c0-0.2,0-0.4-0.1-0.5c-0.1-0.2-0.3-0.3-0.5-0.3c-0.1-0.1-0.3,0-0.4,0c-0.1,0.1-0.2,0.2-0.3,0.4
			c0,0.3-0.1,0.5-0.2,0.6c-0.1,0.1-0.3,0.1-0.6,0.1h-3.2c-0.5,0-0.8,0-0.9-0.1c-0.1-0.1-0.2-0.2-0.2-0.4v-1.3c0-0.2-0.1-0.4-0.2-0.5
			c-0.1-0.1-0.3-0.2-0.5-0.2c-0.2,0-0.4,0.1-0.5,0.2c-0.2,0.1-0.2,0.3-0.2,0.5v1.3c0,0.5,0.1,0.8,0.2,1.1c0.2,0.2,0.4,0.4,0.8,0.5
			c0,0,0,0,0.1,0.1c0,0,0,0.1,0,0.1c-1.4,1.5-3.4,2.8-6,3.9c-0.2,0.1-0.3,0.2-0.3,0.4c0,0.2,0,0.3,0.2,0.4c0.2,0.2,0.5,0.4,0.8,0.4
			c0.2,0,0.3,0,0.5-0.1c1-0.5,1.9-1,2.8-1.5c0.1-0.1,0.2,0,0.2,0c0.8,0.7,1.7,1.4,2.7,2c0,0,0,0,0,0.1c0,0,0,0.1-0.1,0.1
			c-2,0.7-4.4,1.1-7.1,1.4c-0.2,0-0.3,0.1-0.4,0.3c0,0.1,0,0.1,0,0.2c0,0.1,0,0.2,0.1,0.3c0.3,0.4,0.6,0.6,1,0.6c0.1,0,0.1,0,0.2,0
			c3.2-0.4,5.8-1.1,7.9-1.9c0.1,0,0.2,0,0.3,0c2.2,0.9,4.9,1.5,7.9,1.9c0.1,0,0.1,0,0.1,0c0.2,0,0.4-0.1,0.6-0.1
			c0.2-0.1,0.4-0.3,0.5-0.5c0.1-0.1,0.1-0.2,0.1-0.3c0-0.1,0-0.1,0-0.2C20.7,56.6,20.6,56.5,20.4,56.5z M11.3,54.4
			C10,53.8,8.9,53.1,8,52.3c0,0,0-0.1,0-0.1c0,0,0,0,0.1,0h6.7c0,0,0,0,0.1,0s0,0.1,0,0.1c-0.8,0.8-1.9,1.5-3.2,2.1
			C11.5,54.4,11.4,54.4,11.3,54.4z M6.1,43.2H3.5c-0.3,0-0.6,0.1-0.9,0.4c-0.3,0.2-0.4,0.5-0.4,0.9v1.8c0,0.2,0.1,0.4,0.2,0.5
			C2.6,46.9,2.8,47,3,47c0.2,0,0.4-0.1,0.5-0.2c0.2-0.1,0.2-0.3,0.2-0.5v-1.5c0-0.1,0.1-0.1,0.2-0.1h6c0,0,0,0,0,0c0,0,0,0,0,0.1
			c-0.1,0.1-0.2,0.3-0.2,0.5c0,0.2,0.2,0.3,0.3,0.4c0.7,0.4,1.4,0.8,2,1.2c0.2,0.1,0.3,0.2,0.5,0.1c0.2,0,0.3-0.1,0.4-0.2
			c0.1-0.1,0.2-0.3,0.2-0.5c0-0.2-0.1-0.3-0.2-0.4c-0.5-0.4-1.2-0.7-2.1-1.2c0,0,0,0,0,0c0,0,0,0,0,0h8c0.1,0,0.2,0.1,0.2,0.1v1.7
			c0,0.2,0.1,0.4,0.2,0.6c0.2,0.2,0.3,0.2,0.6,0.2c0.2,0,0.4-0.1,0.6-0.2c0.2-0.2,0.2-0.3,0.2-0.6v-1.9c0-0.3-0.1-0.6-0.4-0.9
			c-0.3-0.2-0.5-0.4-0.9-0.4h-2.5c0,0-0.1,0-0.1,0c0,0,0,0,0-0.1c0.4-0.5,0.9-1.2,1.4-1.8c0.1-0.2,0.2-0.4,0.1-0.6
			c-0.1-0.2-0.2-0.3-0.4-0.4c-0.2-0.1-0.4-0.1-0.7,0c-0.2,0.1-0.4,0.2-0.5,0.4c-0.5,0.8-1,1.6-1.5,2.3c-0.1,0.1-0.1,0.1-0.3,0.1
			h-3.6c0,0,0,0,0,0c0,0,0,0,0,0c0.3-0.1,0.6-0.3,0.8-0.7C12,42.4,12,42.2,12,42c0-0.2,0-0.3-0.1-0.5c-0.2-0.4-0.4-0.8-0.6-1.1
			c0,0,0-0.1,0-0.1c0,0,0,0,0.1,0c2.8-0.2,5.3-0.5,7.4-0.8c0.2,0,0.3-0.1,0.3-0.3c0.1-0.2,0-0.3-0.1-0.4c-0.3-0.3-0.6-0.5-1-0.5
			c-0.1,0-0.2,0-0.3,0c-3.4,0.6-8.1,0.9-14,1.1c-0.2,0-0.3,0.1-0.4,0.2c-0.1,0.1-0.1,0.3-0.1,0.4c0.1,0.2,0.2,0.3,0.3,0.4
			c0.1,0.1,0.3,0.2,0.5,0.2c0.6,0,1.1,0,1.5-0.1c0,0,0,0,0,0c-0.1,0.1-0.2,0.2-0.3,0.3c0,0.1,0,0.3,0.1,0.4c0.4,0.6,0.8,1.2,1,1.7
			C6.3,43.1,6.3,43.1,6.1,43.2C6.2,43.2,6.2,43.2,6.1,43.2z M6.5,40.7C6.5,40.6,6.5,40.6,6.5,40.7c0.8-0.1,1.9-0.2,3.4-0.2v0
			c-0.1,0-0.1,0.1-0.1,0.1c0,0.1,0,0.1,0,0.2c0.6,0.9,0.9,1.6,1.1,2.3c0,0,0,0.1,0,0.1c0,0-0.1,0-0.1,0H7.1v0
			c0.2-0.1,0.3-0.2,0.4-0.4c0.1-0.2,0.1-0.3,0-0.5C7.3,41.7,6.9,41.2,6.5,40.7C6.5,40.7,6.5,40.7,6.5,40.7z M6.1,46.1
			c-0.2-0.1-0.3-0.1-0.5,0c-0.2,0.1-0.3,0.2-0.4,0.3c-0.5,1-1.1,1.7-1.8,2.3c-0.1,0.1-0.2,0.2-0.2,0.4s0.1,0.3,0.2,0.4
			c0.2,0.1,0.4,0.2,0.6,0.2c0.2,0,0.4,0,0.6-0.2C5.3,49,6,48.1,6.5,46.9c0.1-0.2,0.1-0.3,0-0.5C6.4,46.3,6.3,46.1,6.1,46.1z
			 M17.1,46c-0.1-0.1-0.3-0.2-0.5-0.2h0c-0.2,0-0.4,0.1-0.5,0.2c-0.1,0.1-0.2,0.2-0.2,0.4c0,0.2,0.1,0.3,0.2,0.4
			c0.9,0.8,1.8,1.6,2.4,2.4c0.1,0.2,0.3,0.2,0.5,0.3c0.2,0,0.4,0,0.5-0.1c0.2-0.1,0.3-0.3,0.3-0.5c0-0.2,0-0.4-0.2-0.6
			C19,47.5,18.2,46.8,17.1,46z M59.3,45.2H47.6c-0.3,0-0.6,0.1-0.9,0.4c-0.3,0.2-0.4,0.5-0.4,0.9v6.8c0,0.3,0.1,0.6,0.4,0.9
			c0.3,0.2,0.5,0.4,0.9,0.4h11.8c0.3,0,0.6-0.1,0.9-0.4c0.3-0.2,0.4-0.5,0.4-0.9v-6.8c0-0.4-0.1-0.6-0.4-0.9S59.7,45.2,59.3,45.2z
			 M58.9,53.2c0,0.1,0,0.2-0.2,0.2H48.1c-0.1,0-0.2-0.1-0.2-0.2v-1.4c0-0.1,0.1-0.1,0.2-0.1h10.7c0.1,0,0.2,0.1,0.2,0.1V53.2z
			 M58.9,50.5c0,0.1,0,0.2-0.2,0.2H48.1c-0.1,0-0.2-0.1-0.2-0.2v-1.3c0-0.1,0.1-0.1,0.2-0.1h10.7c0.1,0,0.2,0,0.2,0.1V50.5z
			 M58.9,47.8c0,0.1,0,0.2-0.2,0.2H48.1c-0.1,0-0.2-0.1-0.2-0.2v-1.3c0-0.1,0.1-0.1,0.2-0.1h10.7c0.1,0,0.2,0,0.2,0.1V47.8z
			 M45.4,39.6c-0.2,0.2-0.4,0.5-0.4,0.9v2.3c0,0.4,0.1,0.6,0.4,0.9c0.2,0.2,0.5,0.4,0.9,0.4h14.3c0.4,0,0.7-0.1,0.9-0.4
			c0.2-0.2,0.4-0.5,0.4-0.9v-2.3c0-0.3-0.1-0.6-0.4-0.9c-0.2-0.2-0.5-0.4-0.9-0.4H46.3C45.9,39.2,45.6,39.3,45.4,39.6z M56.5,40.6
			c0-0.1,0.1-0.2,0.2-0.2h3.5c0.1,0,0.2,0.1,0.2,0.2v1.9c0,0.1-0.1,0.2-0.2,0.2h-3.5c-0.1,0-0.2-0.1-0.2-0.2V40.6z M51.5,40.6
			c0-0.1,0.1-0.2,0.2-0.2h3.3c0.1,0,0.2,0.1,0.2,0.2v1.9c0,0.1-0.1,0.2-0.2,0.2h-3.3c-0.1,0-0.2-0.1-0.2-0.2V40.6z M46.5,40.6
			c0-0.1,0.1-0.2,0.2-0.2h3.2c0.1,0,0.2,0.1,0.2,0.2v1.9c0,0.1-0.1,0.2-0.2,0.2h-3.2c-0.1,0-0.2-0.1-0.2-0.2V40.6z M50.8,55
			c-0.2-0.1-0.5-0.1-0.7-0.1c-0.3,0-0.5,0.1-0.8,0.2c-1.3,0.6-3,1.1-5,1.6c-0.2,0-0.3,0.1-0.3,0.3c0,0,0,0.1,0,0.1
			c0,0.1,0.1,0.2,0.2,0.3c0.3,0.3,0.6,0.5,1,0.5c0.1,0,0.3,0,0.4-0.1c2-0.6,3.8-1.3,5.3-2c0.1-0.1,0.2-0.2,0.2-0.3
			C51,55.2,50.9,55.1,50.8,55z M62.4,56.8c-1.5-0.6-3.3-1.2-5.2-1.8c-0.2-0.1-0.3-0.1-0.5-0.1c-0.3,0-0.6,0.1-0.9,0.3
			c-0.1,0.1-0.2,0.2-0.2,0.4c0,0.2,0.1,0.3,0.3,0.3c1.8,0.6,3.4,1.2,4.8,1.8c0.3,0.1,0.6,0.2,0.9,0.2c0.3,0,0.6-0.1,0.9-0.2
			c0.2-0.1,0.2-0.2,0.2-0.4C62.6,57,62.6,56.8,62.4,56.8z M103.8,55.9h-7.7c-0.1,0-0.2-0.1-0.2-0.2v-3.2c0-0.1,0-0.1,0.2-0.1h5.8
			c0.2,0,0.4-0.1,0.5-0.2c0.1-0.1,0.2-0.3,0.2-0.5c0-0.2-0.1-0.4-0.2-0.5c-0.1-0.1-0.3-0.2-0.5-0.2h-5.8c-0.1,0-0.2-0.1-0.2-0.1
			v-3.1c0-0.1,0-0.2,0.2-0.2h4.9c0.2,0,0.4-0.1,0.5-0.2c0.1-0.1,0.2-0.3,0.2-0.5s-0.1-0.4-0.2-0.5c-0.1-0.1-0.3-0.2-0.5-0.2H89.5
			c-0.2,0-0.4,0.1-0.5,0.2c-0.1,0.1-0.2,0.3-0.2,0.5s0.1,0.4,0.2,0.5c0.1,0.1,0.3,0.2,0.5,0.2h4.7c0.1,0,0.1,0.1,0.1,0.2v3.1
			c0,0.1,0,0.1-0.1,0.1h-5.7c-0.2,0-0.4,0.1-0.5,0.2c-0.1,0.1-0.2,0.3-0.2,0.5c0,0.2,0.1,0.4,0.2,0.5c0.1,0.1,0.3,0.2,0.5,0.2h5.7
			c0.1,0,0.1,0.1,0.1,0.1v3.2c0,0.1,0,0.2-0.1,0.2h-7.4c-0.2,0-0.4,0.1-0.5,0.2c-0.1,0.1-0.2,0.3-0.2,0.5s0.1,0.4,0.2,0.5
			c0.1,0.1,0.3,0.2,0.5,0.2h17c0.2,0,0.4-0.1,0.5-0.2c0.1-0.1,0.2-0.3,0.2-0.5s-0.1-0.4-0.2-0.5C104.2,56,104.1,55.9,103.8,55.9z
			 M104.6,45.7c-1.5-0.8-3-1.8-4.5-3.1c-1.5-1.2-2.7-2.5-3.8-3.9c-0.3-0.4-0.8-0.6-1.3-0.6c-0.5,0-0.9,0.2-1.2,0.7
			c-0.9,1.3-2,2.5-3.5,3.8C89,44,87.5,45.1,85.9,46c-0.2,0.1-0.3,0.3-0.3,0.5c0,0,0,0.1,0,0.1c0,0.2,0,0.3,0.2,0.4
			c0.2,0.2,0.3,0.3,0.6,0.3c0.2,0.1,0.4,0,0.6-0.1c1.7-1,3.2-2.2,4.7-3.5c1.5-1.3,2.6-2.6,3.5-3.8c0,0,0,0,0.1,0c0,0,0.1,0,0.1,0
			c0.9,1.2,2.1,2.5,3.6,3.8c1.5,1.3,3.1,2.5,4.7,3.5c0.1,0.1,0.3,0.1,0.5,0.1c0.1,0,0.2,0,0.2,0c0.2-0.1,0.4-0.2,0.6-0.4
			c0.1-0.1,0.1-0.3,0.1-0.4c0-0.1,0-0.1,0-0.2C104.9,46,104.8,45.9,104.6,45.7z M147.3,42.8c0-0.2-0.1-0.4-0.2-0.5
			c-0.2-0.1-0.3-0.2-0.5-0.2h-5.2c-0.1,0-0.2-0.1-0.2-0.1V39c0-0.2-0.1-0.4-0.2-0.5c-0.2-0.1-0.3-0.2-0.5-0.2
			c-0.2,0-0.4,0.1-0.5,0.2s-0.2,0.3-0.2,0.5v2.9c0,0.1-0.1,0.1-0.2,0.1h-4.7c-0.2,0-0.4,0.1-0.5,0.2c-0.2,0.1-0.2,0.3-0.2,0.5
			c0,0.2,0.1,0.4,0.2,0.5c0.1,0.1,0.3,0.2,0.5,0.2h4.7c0.1,0,0.2,0,0.2,0.1V56c0,0.2,0,0.3-0.1,0.4c-0.1,0.1-0.2,0.1-0.4,0.1
			c-0.3,0-0.6,0-1.1,0c-0.2,0-0.5,0-0.8,0c-0.2,0-0.3,0.1-0.4,0.2c-0.1,0.2-0.1,0.3-0.1,0.5c0.1,0.2,0.2,0.4,0.4,0.6
			c0.2,0.1,0.4,0.2,0.6,0.2h0c1.2,0,2.1-0.1,2.5-0.3c0.3-0.1,0.5-0.3,0.7-0.6c0.1-0.3,0.2-0.6,0.2-1.1v-6c0,0,0,0,0,0c0,0,0,0,0,0
			c1,2.4,2.5,4.4,4.7,6.1c0.2,0.1,0.4,0.2,0.6,0.1c0.2,0,0.4-0.1,0.5-0.3c0.1-0.2,0.2-0.3,0.2-0.6c0-0.2-0.1-0.4-0.3-0.5
			c-1.7-1.2-3-2.7-3.8-4.3c-0.9-1.6-1.5-3.7-1.9-6.3v-0.5c0-0.1,0.1-0.1,0.2-0.1h5.2c0.2,0,0.4-0.1,0.5-0.2
			C147.3,43.2,147.3,43,147.3,42.8z M146.3,45c-0.1-0.1-0.2-0.1-0.4-0.1c-0.1,0-0.2,0-0.2,0c-0.2,0.1-0.4,0.2-0.5,0.4
			c-0.6,1-1.3,2-2,2.9c-0.1,0.1-0.1,0.2-0.1,0.3c0,0,0,0.1,0,0.1c0,0.2,0.1,0.3,0.3,0.4c0.1,0.1,0.3,0.1,0.4,0.1c0,0,0.1,0,0.2,0
			c0.2,0,0.3-0.1,0.5-0.3c0.7-0.8,1.4-1.7,2.2-2.8c0.1-0.1,0.1-0.3,0.1-0.4c0-0.1,0-0.1,0-0.2C146.6,45.3,146.5,45.1,146.3,45z
			 M145.4,41.2c0.1,0.1,0.3,0.2,0.5,0.2c0.2,0,0.3-0.1,0.5-0.2c0.1-0.1,0.2-0.3,0.2-0.5c0-0.2-0.1-0.3-0.2-0.5
			c-0.6-0.5-1.4-1.1-2.2-1.6c-0.2-0.1-0.3-0.1-0.5-0.1c-0.2,0-0.3,0.1-0.5,0.2c-0.1,0.1-0.1,0.2-0.1,0.4c0,0.2,0.1,0.3,0.2,0.4
			C144,40.1,144.7,40.7,145.4,41.2z M137,49.1c0.2,0.1,0.4,0.1,0.5,0c0.2-0.1,0.3-0.2,0.4-0.4c0.1-0.2,0.1-0.4,0-0.6
			c-0.4-0.9-1-1.8-1.8-2.7c-0.1-0.2-0.3-0.3-0.5-0.3c-0.2,0-0.4,0-0.6,0.1c-0.2,0.1-0.3,0.2-0.3,0.4c0,0.2,0,0.3,0.1,0.4
			c0.7,1,1.3,1.9,1.7,2.8C136.7,49,136.8,49.1,137,49.1z M138.7,52c0.1-0.2,0.1-0.4,0-0.6c-0.1-0.2-0.2-0.3-0.4-0.3
			c-0.2-0.1-0.3,0-0.5,0.1c-1.8,1.2-3.3,2.1-4.5,2.7c-0.2,0.1-0.3,0.3-0.4,0.5c0,0.1,0,0.1,0,0.2c0,0.1,0,0.3,0.1,0.4
			c0.1,0.2,0.3,0.3,0.5,0.3c0.2,0.1,0.4,0,0.6-0.1c1.4-0.9,2.8-1.8,4.1-2.7C138.6,52.4,138.7,52.2,138.7,52z M134.4,52.6
			c0.1-0.2,0.1-0.4,0.1-0.6c0-0.2-0.1-0.3-0.3-0.4c-0.2-0.1-0.3-0.1-0.5-0.1l-2,0.6c0,0-0.1,0-0.1,0c0,0,0-0.1,0-0.1v-4.4
			c0-0.1,0-0.2,0.2-0.2h1.6c0.2,0,0.4-0.1,0.5-0.2c0.2-0.1,0.2-0.3,0.2-0.5s-0.1-0.4-0.2-0.5c-0.1-0.1-0.3-0.2-0.5-0.2h-1.6
			c-0.1,0-0.2-0.1-0.2-0.2v-4.2c0-0.1,0-0.1,0.2-0.1h1.9c0.2,0,0.4-0.1,0.5-0.2c0.2-0.1,0.2-0.3,0.2-0.5c0-0.2-0.1-0.4-0.2-0.5
			s-0.3-0.2-0.5-0.2h-5.6c-0.2,0-0.4,0.1-0.5,0.2c-0.1,0.1-0.2,0.3-0.2,0.5c0,0.2,0.1,0.4,0.2,0.5c0.2,0.1,0.3,0.2,0.5,0.2h1.8
			c0.1,0,0.2,0.1,0.2,0.1v4.2c0,0.1,0,0.2-0.2,0.2h-1.6c-0.2,0-0.4,0.1-0.5,0.2c-0.2,0.1-0.2,0.3-0.2,0.5s0.1,0.4,0.2,0.5
			c0.1,0.1,0.3,0.2,0.5,0.2h1.6c0.1,0,0.2,0.1,0.2,0.2v4.9c0,0.1,0,0.2-0.2,0.2c-0.7,0.2-1.4,0.4-2.1,0.7c-0.2,0.1-0.4,0.2-0.5,0.4
			c-0.1,0.1-0.1,0.2-0.1,0.4c0,0.1,0,0.1,0,0.2c0.1,0.2,0.2,0.4,0.4,0.5c0.2,0.1,0.4,0.1,0.6,0.1c2.3-0.8,4.2-1.5,5.8-2
			C134.2,52.9,134.3,52.8,134.4,52.6z M175.5,53.5c-0.1-0.2-0.2-0.3-0.4-0.3c-0.2-0.1-0.4,0-0.5,0c-0.2,0.1-0.3,0.2-0.3,0.4
			c0,0.1,0,0.1,0,0.2c0,0.1,0,0.2,0.1,0.3c0.5,0.8,0.8,1.5,1.1,2.2c0.1,0.2,0.2,0.3,0.4,0.4c0.2,0.1,0.4,0.1,0.5,0
			c0.2-0.1,0.3-0.2,0.4-0.4c0.1-0.2,0.1-0.4,0-0.5C176.3,55,175.9,54.2,175.5,53.5z M171.3,39c-0.3,0-0.6,0.1-0.9,0.4
			c-0.3,0.2-0.4,0.5-0.4,0.9v11c0,0.3,0.1,0.6,0.4,0.9c0.3,0.2,0.5,0.4,0.9,0.4h3.6c0.3,0,0.6-0.1,0.9-0.4c0.2-0.2,0.4-0.5,0.4-0.9
			v-11c0-0.4-0.1-0.6-0.4-0.9c-0.3-0.2-0.5-0.4-0.9-0.4H171.3z M174.7,51.1c0,0.1-0.1,0.1-0.1,0.1h-3c-0.1,0-0.1,0-0.1-0.1v-2.5
			c0-0.1,0-0.2,0.1-0.2h3c0.1,0,0.1,0.1,0.1,0.2V51.1z M174.7,47c0,0.1-0.1,0.2-0.1,0.2h-3c-0.1,0-0.1-0.1-0.1-0.2v-2.5
			c0-0.1,0-0.1,0.1-0.1h3c0.1,0,0.1,0.1,0.1,0.1V47z M174.7,43c0,0.1-0.1,0.1-0.1,0.1h-3c-0.1,0-0.1,0-0.1-0.1v-2.4
			c0-0.1,0-0.2,0.1-0.2h3c0.1,0,0.1,0.1,0.1,0.2V43z M171.9,53.2c-0.2,0-0.4,0-0.6,0.1c-0.2,0.1-0.3,0.3-0.4,0.5
			c-0.4,1.1-0.9,2.1-1.5,2.8c-0.1,0.1-0.2,0.3-0.2,0.4c0,0.2,0.1,0.4,0.3,0.6c0.2,0.1,0.4,0.2,0.6,0.2c0.2,0,0.4-0.1,0.5-0.3
			c0.7-1,1.3-2.1,1.7-3.4c0.1-0.2,0.1-0.4,0-0.5C172.2,53.3,172.1,53.2,171.9,53.2z M188.5,53.2H188c-0.1,0-0.1-0.1-0.1-0.1v-4.1
			c0-0.3-0.1-0.6-0.4-0.9c-0.2-0.2-0.5-0.4-0.9-0.4h-2.9c-0.1,0-0.2-0.1-0.2-0.1v-0.9c0-0.1,0-0.2,0.2-0.2h4.8
			c0.2,0,0.3-0.1,0.4-0.2c0.1-0.1,0.2-0.3,0.2-0.4c0-0.2-0.1-0.3-0.2-0.4c-0.1-0.1-0.3-0.2-0.4-0.2h-2.4c-0.1,0-0.2-0.1-0.2-0.2
			v-1.1c0-0.1,0.1-0.2,0.2-0.2h1.6c0.2,0,0.3-0.1,0.4-0.2c0.1-0.1,0.2-0.3,0.2-0.4c0-0.2-0.1-0.3-0.2-0.4c-0.1-0.1-0.3-0.2-0.4-0.2
			h-1.6c-0.1,0-0.2-0.1-0.2-0.2v-1c0-0.1,0.1-0.2,0.2-0.2h1.9c0.2,0,0.3-0.1,0.4-0.2c0.1-0.1,0.2-0.3,0.2-0.4c0-0.2-0.1-0.3-0.2-0.4
			c-0.1-0.1-0.3-0.2-0.4-0.2h-1.9c-0.1,0-0.2-0.1-0.2-0.2v-1c0-0.2-0.1-0.4-0.2-0.5c-0.1-0.1-0.3-0.2-0.5-0.2
			c-0.2,0-0.4,0.1-0.5,0.2c-0.1,0.1-0.2,0.3-0.2,0.5v1c0,0.1-0.1,0.2-0.2,0.2h-2.9c-0.1,0-0.2-0.1-0.2-0.2v-1c0-0.2-0.1-0.4-0.2-0.5
			c-0.1-0.1-0.3-0.2-0.5-0.2c-0.2,0-0.4,0.1-0.5,0.2c-0.1,0.1-0.2,0.3-0.2,0.5v1c0,0.1-0.1,0.2-0.2,0.2h-1.9c-0.2,0-0.3,0.1-0.4,0.2
			c-0.1,0.1-0.2,0.3-0.2,0.4c0,0.2,0.1,0.3,0.2,0.4c0.1,0.1,0.3,0.2,0.4,0.2h1.9c0.1,0,0.2,0.1,0.2,0.2v1c0,0.1-0.1,0.2-0.2,0.2
			h-1.3c-0.2,0-0.3,0.1-0.4,0.2c-0.1,0.1-0.2,0.3-0.2,0.4c0,0.2,0.1,0.3,0.2,0.4c0.1,0.1,0.3,0.2,0.4,0.2h1.3c0.1,0,0.2,0.1,0.2,0.2
			V45c0,0.1-0.1,0.2-0.2,0.2h-2.4c-0.2,0-0.3,0.1-0.4,0.2c-0.1,0.1-0.2,0.3-0.2,0.4c0,0.2,0.1,0.3,0.2,0.4c0.1,0.1,0.3,0.2,0.4,0.2
			h4.7c0.1,0,0.2,0.1,0.2,0.2v0.9c0,0.1,0,0.1-0.2,0.1h-2.7c-0.4,0-0.7,0.1-0.9,0.4c-0.2,0.2-0.4,0.5-0.4,0.9V53
			c0,0.1-0.1,0.2-0.2,0.2h-0.6c-0.2,0-0.3,0.1-0.4,0.2c-0.1,0.1-0.2,0.3-0.2,0.4c0,0.2,0.1,0.3,0.2,0.4c0.1,0.1,0.3,0.2,0.4,0.2h0.6
			c0.1,0,0.2,0,0.2,0.1v2.7c0,0.2,0.1,0.4,0.2,0.5c0.1,0.1,0.3,0.2,0.5,0.2c0.2,0,0.4-0.1,0.5-0.2c0.1-0.1,0.2-0.3,0.2-0.5v-2.7
			c0-0.1,0.1-0.1,0.2-0.1h6.6c0.1,0,0.2,0,0.2,0.1v1.7c0,0.1,0,0.2-0.1,0.3c-0.1,0.1-0.2,0.1-0.3,0.1c-0.6,0-1.2,0-1.8,0
			c-0.2,0-0.3,0.1-0.4,0.2c-0.1,0.1-0.1,0.3,0,0.4c0.1,0.2,0.2,0.4,0.3,0.5c0.2,0.1,0.3,0.2,0.5,0.2c1.3,0,2.1-0.1,2.5-0.2
			c0.3-0.1,0.5-0.3,0.6-0.5c0.1-0.2,0.2-0.5,0.2-0.9v-1.7c0-0.1,0-0.1,0.1-0.1h0.6c0.2,0,0.3-0.1,0.4-0.2c0.1-0.1,0.2-0.3,0.2-0.4
			c0-0.2-0.1-0.3-0.2-0.4C188.8,53.2,188.7,53.2,188.5,53.2z M182.1,53c0,0.1,0,0.2-0.2,0.2h-2.4c-0.1,0-0.2-0.1-0.2-0.2v-1.3
			c0-0.1,0.1-0.1,0.2-0.1h2.4c0.1,0,0.2,0.1,0.2,0.1V53z M182.1,50.3c0,0.1,0,0.1-0.2,0.1h-2.4c-0.1,0-0.2,0-0.2-0.1V49
			c0-0.1,0.1-0.1,0.2-0.1h2.4c0.1,0,0.2,0,0.2,0.1V50.3z M181.2,41.5c0-0.1,0.1-0.2,0.2-0.2h2.9c0.1,0,0.2,0.1,0.2,0.2v1
			c0,0.1-0.1,0.2-0.2,0.2h-2.9c-0.1,0-0.2-0.1-0.2-0.2V41.5z M181.4,45.2c-0.1,0-0.2-0.1-0.2-0.2v-1.1c0-0.1,0.1-0.2,0.2-0.2h2.9
			c0.1,0,0.2,0.1,0.2,0.2V45c0,0.1-0.1,0.2-0.2,0.2H181.4z M186.3,53c0,0.1-0.1,0.2-0.2,0.2h-2.5c-0.1,0-0.2-0.1-0.2-0.2v-1.3
			c0-0.1,0-0.1,0.2-0.1h2.5c0.1,0,0.2,0.1,0.2,0.1V53z M186.3,50.3c0,0.1-0.1,0.1-0.2,0.1h-2.5c-0.1,0-0.2,0-0.2-0.1V49
			c0-0.1,0-0.1,0.2-0.1h2.5c0.1,0,0.2,0,0.2,0.1V50.3z M22.7,15.4C22,12,20.1,9.5,16.9,8C13.7,6.5,10.3,6.4,7,7.6
			c-3.9,1.4-6.1,4.2-6.8,8.3C0.1,16.5,0.1,17,0,17.6c0,0.1,0,0.2,0,0.2c0.1,0.6,0.1,1.2,0.2,1.8c0.5,2.9,1.9,5.2,4.3,6.9
			c1.7,1.2,3.6,1.8,5.7,2c2.3,0.2,4.4-0.2,6.4-1.3c0.6-0.3,1.1-0.7,1.7-1.1c0,0.7,0,1.4,0,2.1c1.6,0,3.2,0,4.8,0c0-0.1,0-0.2,0-0.3
			c0-3.2,0-6.4,0-9.6C23,17.3,22.9,16.3,22.7,15.4z M17.5,20.9c-1,1.9-2.7,3-4.8,3.3c-1.3,0.2-2.7,0.1-3.9-0.4
			c-2.1-0.9-3.3-2.4-3.7-4.6c-0.3-1.8-0.1-3.5,0.8-5c1-1.7,2.6-2.6,4.5-2.9c0.2,0,0.3,0,0.5-0.1c0.2,0,0.5,0,0.7,0
			c1.9,0,3.6,0.6,5,2c0.9,1,1.4,2.2,1.6,3.5C18.3,18.1,18.1,19.5,17.5,20.9z M45.7,28c0-0.1,0-0.3,0-0.4c0-3.5,0-7,0-10.5
			c0-1.4,0.2-2.7,1-3.9c1.1-1.6,2.6-2.3,4.5-2.1c1.7,0.2,2.8,1.1,3.6,2.6c0.6,1.1,0.8,2.3,0.8,3.5c0,3.5,0,7,0,10.5
			c0,0.1,0,0.2,0,0.4c1.6,0,3.2,0,4.8,0c0-0.1,0-0.1,0-0.2c0-3.5,0-6.9,0-10.4c0-1.1-0.2-2.3-0.5-3.4c-0.6-2.2-1.8-4.1-3.7-5.5
			c-2.1-1.5-4.4-2-6.9-1.7c-2.2,0.3-4,1.3-5.5,3c-0.2,0.2-0.4,0.4-0.5,0.7c-0.1-0.1-0.2-0.2-0.2-0.3c-0.5-0.5-1-1.1-1.6-1.6
			c-2-1.6-4.3-2.1-6.8-1.7c-2.9,0.4-5.2,1.9-6.7,4.3c-1.3,2-1.7,4.3-1.7,6.6c0,3.3,0,6.6,0,9.9c0,0.1,0,0.2,0,0.3c1.6,0,3.2,0,4.8,0
			c0-0.1,0-0.3,0-0.4c0-3.5,0-7,0-10.4c0-1.4,0.3-2.7,1-3.9c1.8-2.9,6.1-2.9,7.9,0c0.7,1.1,1,2.4,1,3.7c0,3.5,0,7.1,0,10.6
			c0,0.1,0,0.2,0,0.3C42.5,28,44.1,28,45.7,28z M85.8,28c0-0.1,0-0.2,0-0.3c0-3.2,0-6.3,0-9.5c0-0.9-0.1-1.9-0.3-2.8
			c-0.8-3.6-2.9-6.2-6.3-7.7c-2.5-1-5.1-1.2-7.7-0.6c-3.2,0.7-5.7,2.3-7.3,5.1c-1.3,2.3-1.7,4.8-1.3,7.3c0.5,3.3,2.3,5.9,5.3,7.5
			c2.2,1.2,4.7,1.6,7.2,1.3c1.9-0.2,3.6-0.9,5.1-2.1c0.1-0.1,0.3-0.2,0.5-0.4c0,0.8,0,1.4,0,2.1C82.6,28,84.1,28,85.8,28z
			 M80.2,20.9c-1,1.9-2.6,3-4.7,3.3c-1.4,0.2-2.7,0.1-4-0.4c-2.1-0.9-3.3-2.4-3.7-4.6c-0.3-1.8-0.1-3.5,0.8-5c1-1.7,2.6-2.6,4.5-2.8
			c0.2,0,0.3,0,0.5-0.1c0.2,0,0.5,0,0.7,0c1.9,0,3.6,0.5,4.9,1.9c1,1,1.5,2.2,1.6,3.5C81,18.1,80.9,19.5,80.2,20.9z M113.7,17.6
			c-1-0.8-2.2-1.3-3.4-1.7c-1.5-0.4-3-0.8-4.5-1.1c-0.8-0.2-1.7-0.4-2.5-0.8c-0.5-0.3-0.8-0.7-0.7-1.3c0-0.6,0.3-1,0.9-1.2
			c0.4-0.2,0.8-0.3,1.3-0.3c2.2-0.2,4.4,0,6.5,0.7c0.8,0.2,1.5,0.6,2.3,0.9c0,0,0-0.1,0-0.1c0.2-1.3,0.4-2.7,0.7-4
			c0-0.2,0-0.3-0.2-0.4c-2.1-0.8-4.4-1.3-6.7-1.4c-1.9-0.1-3.8,0.1-5.5,0.8c-1.2,0.5-2.2,1.1-3,2.2c-1,1.3-1.3,2.9-1.1,4.5
			c0.2,1.6,1.1,2.8,2.5,3.6c0.8,0.4,1.6,0.8,2.5,1c1.6,0.4,3.2,0.7,4.7,1c0.8,0.2,1.5,0.4,2.2,0.8c0.7,0.4,1,1.1,0.8,2
			c-0.2,0.7-0.7,1-1.3,1.2c-1.5,0.5-2.9,0.4-4.4,0.3c-1.9-0.2-3.6-0.7-5.3-1.4c-0.5-0.2-1-0.4-1.5-0.6c-0.2,0.8-0.3,1.6-0.5,2.4
			c-0.1,0.6-0.3,1.3-0.4,1.9c0,0,0,0,0,0.1c0.4,0.2,0.7,0.4,1.1,0.5c2,0.8,4.1,1.3,6.3,1.4c2,0.1,4,0.1,6-0.5
			c1.5-0.4,2.8-1.1,3.8-2.4c1-1.2,1.3-2.7,1.2-4.2C115.4,19.8,114.8,18.6,113.7,17.6z M171.9,26c0.6,0.4,1.1,0.8,1.7,1.1
			c2.5,1.3,5.1,1.6,7.8,1.1c3.2-0.6,5.6-2.3,7.2-5.1c1.3-2.3,1.7-4.8,1.2-7.4c-0.7-3.7-2.8-6.4-6.4-7.9c-2.5-1.1-5.1-1.2-7.7-0.7
			c-3,0.6-5.3,2.2-7,4.7c-1.2,2-1.7,4.1-1.7,6.4c0,5.3,0,10.6,0,15.9c0,0.1,0,0.2,0,0.3c1.6,0,3.2,0,4.9,0
			C171.9,31.6,171.9,28.8,171.9,26z M172.8,14c1-1.7,2.6-2.6,4.5-2.8c0.4-0.1,0.8-0.1,1-0.1c2.1,0,3.9,0.6,5.2,2.1
			c0.9,1,1.3,2.1,1.5,3.4c0.2,1.4,0,2.9-0.7,4.2c-1,2-2.7,3-4.8,3.3c-1.3,0.2-2.6,0.1-3.8-0.4c-1.6-0.6-2.8-1.7-3.4-3.3
			C171.5,18.2,171.6,16,172.8,14z M130.9,11.3c1.6,0.3,2.7,1.2,3.2,2.7c0.3,0.8,0.3,1.6,0.3,2.4c0,3.7,0,7.5,0,11.2
			c0,0.1,0,0.2,0,0.4c1.6,0,3.2,0,4.8,0c0-0.1,0-0.2,0-0.3c0-4.1,0-8.1,0-12.2c0-0.9-0.1-1.7-0.3-2.6c-0.6-2.6-2.1-4.5-4.7-5.5
			c-1.9-0.7-3.8-0.8-5.7-0.4c-2,0.4-3.7,1.3-5,2.9c0,0-0.1,0-0.1,0.1c0-3.3,0-6.6,0-9.9c-1.6,0-3.2,0-4.7,0c0,9.3,0,18.6,0,28
			c1.6,0,3.2,0,4.8,0c0-0.1,0-0.3,0-0.4c0-3.9,0-7.8,0-11.7c0-0.1,0-0.3,0.1-0.4C124.6,12.3,127.6,10.7,130.9,11.3z M159,8.2
			c-3-1.6-6.1-1.8-9.4-1c-2.8,0.7-5.1,2.3-6.6,4.9c-1.4,2.3-1.7,4.8-1.3,7.3c0.5,3.4,2.3,5.9,5.4,7.5c2.7,1.5,5.6,1.7,8.7,1.2
			c2.5-0.5,4.6-1.6,6.2-3.5c1.8-2,2.5-4.4,2.6-7c-0.1-0.6-0.1-1.2-0.2-1.8C163.9,12.4,162.1,9.8,159,8.2z M159,20.7
			c-1,1.9-2.6,3-4.8,3.3c-1.7,0.2-3.4,0-4.9-0.9c-1.7-1-2.6-2.5-2.9-4.4c0-0.2,0-0.3-0.1-0.5c0-0.3,0-0.5,0-0.7c0-2,0.6-3.7,2.1-5
			c1-0.9,2.2-1.3,3.6-1.5c1.4-0.2,2.8,0,4.1,0.5c2,0.9,3.1,2.5,3.5,4.5C159.9,17.8,159.8,19.3,159,20.7z"/>
	</g>
</g>
</svg>
