<?xml version="1.0" encoding="utf-8"?>
<!-- Generator: Adobe Illustrator 26.3.1, SVG Export Plug-In . SVG Version: 6.00 Build 0)  -->
<svg version="1.1" id="圖層_1" xmlns="http://www.w3.org/2000/svg" xmlns:xlink="http://www.w3.org/1999/xlink" x="0px" y="0px"
	 viewBox="0 0 200 36" style="enable-background:new 0 0 200 36;" xml:space="preserve">
<style type="text/css">
	.st0{fill:#FFFFFF;}
</style>
<g>
	<g>
		<path class="st0" d="M94,34.8h7.3V11.6H94V34.8z M97.7,0c-2.2,0-4,1.8-4,3.9c0,2.3,1.8,4,4,4s4-1.8,4-4C101.7,1.8,99.9,0,97.7,0z
			 M57.9,27.2c-2.4,5-7.2,5.2-9.1,0.4v-16h-7.3v17.5c3.5,10.2,14.6,6.5,16.3,3v3.1h7.7V11.6H58L57.9,27.2z M75,14.7v-3.1h-7.7v23.6
			h7.4l0.1-15.6c2.6-4.9,7.2-5.2,9.1-0.3v15.9h7.3V17.7C87.8,7.5,76.6,11.3,75,14.7z M137,11.2c-0.1,0-0.3,0-0.5,0
			c-12.7,0-12.8,12.3-12.8,12.3s0.1,12.3,13.1,12.5h0.3h0.5c8.1-0.1,10.8-3.3,10.8-3.3v-4.7c0,0-3.5,3.3-9.1,3.3
			c-0.8,0-1.5-0.1-2.2-0.3c-5.5-1-5.4-6.2-5.4-6.2h5.4h11.8C148.8,24.9,149.9,11.6,137,11.2z M137,20.8h-5.3c0,0,0.3-5,5.3-5.2h0.1
			c4.9,0,5.1,5.2,5.1,5.2H137z M114.5,5c0-0.5-0.8-1.1-1.2-0.5l-10.3,10.6c-0.5,0.8-0.4,1.5,0,1.6h3.6v12.1
			c2.2,9.6,13.5,7.3,16.3,5.4l-0.1-5.3c0,0-7.4,4.4-8.5-1.6V16.6h8.7v-5h-8.6V5z M158.5,23.5c-0.1-8.4,11-7.4,13.6-5.2v-5.5
			c-3-2.4-21.6-4-21.7,10.8c0,15.7,21.1,11.7,22,10.6v-5.3C171,30.4,158.7,33.2,158.5,23.5z M190,11.3c-3.5,0.5-5.8,3.1-6.7,4.3V0.8
			H176V35h7.6V20l2.6-2.3c1-0.8,2.4-1.3,3.6-1.1c1.5,0.1,2.6,1.1,2.7,2.8v15.5h7.6V18C198.3,11.7,193.6,10.7,190,11.3z M24.8,21.8
			l-7.8,7.5c-0.6,0.8-1.7,0.8-2.3,0.1L5.8,20c-0.6-0.4-0.8-1.6,0-2.4l7.2-7.3L4.9,1.8C2.1-0.8,0,2.1,0.1,3.5C0.1,3.3,0,26.3,0,31.3
			v0.3v0.3V32v0.1v0.1v0.1c0,1.3,1,2,1.9,2.1h29.9c1.9,0.1,3.3-2.8,2.3-4L24.8,21.8z M33.1,0.3L6.4,0.1l10.1,9.8L8.9,18
			c-1,0.9-0.5,2-0.3,2.4l5.3,5.5c1,1,1.9,0.9,2.6,0.3l8.7-7.8l10.1,9.6V2.1C35.4,1,34.3,0.3,33.1,0.3z"/>
	</g>
</g>
</svg>
