<?xml version="1.0" encoding="utf-8"?>
<!-- Generator: Adobe Illustrator 26.5.0, SVG Export Plug-In . SVG Version: 6.00 Build 0)  -->
<svg version="1.1" id="friDay" xmlns="http://www.w3.org/2000/svg" xmlns:xlink="http://www.w3.org/1999/xlink" x="0px" y="0px"
	 viewBox="0 0 360 120" style="enable-background:new 0 0 360 120;" xml:space="preserve">
<style type="text/css">
	.st0{fill:#FFFFFF;}
	.st1{fill:#FFF000;}
</style>
<g>
	<g>
		<g>
			<g>
				<path class="st0" d="M169.7,11.3c0.5,0,0.9-0.2,1.3-0.5c0.4-0.4,0.5-0.8,0.5-1.3c0-0.5-0.2-1-0.5-1.3c-0.4-0.4-0.8-0.5-1.3-0.5
					c-0.5,0-1,0.2-1.3,0.5c-0.4,0.4-0.5,0.8-0.5,1.3c0,0.5,0.2,1,0.5,1.3C168.8,11.1,169.2,11.3,169.7,11.3z M155.5,7.7
					c-3.6,0-5.6,1.9-5.8,5.4l0,0.4l-0.5,0c-0.3,0-0.7,0.2-0.9,0.5c-0.3,0.3-0.4,0.7-0.4,1.2c0,0.5,0.2,0.9,0.4,1.2
					c0.3,0.3,0.6,0.4,0.9,0.5l0.5,0v9.4h3.3v-9.4h2.3c0.4,0,0.7-0.2,1-0.5c0.3-0.3,0.4-0.7,0.4-1.2c0-0.4-0.1-0.8-0.4-1.2
					c-0.3-0.3-0.6-0.5-1-0.5H153V13c0-1.2,0.4-2,2.3-2.1c0.7,0,1.3-0.3,1.6-0.7c0.3-0.3,0.3-0.8,0.2-1.3
					C157,8.4,156.5,7.7,155.5,7.7z M211,13c-0.2-0.1-0.5-0.1-0.8-0.1c-0.4,0-1,0.1-1.3,0.9l-2.7,6.4l-2.6-6.4
					c-0.3-0.8-1.1-0.9-1.4-0.9c-0.2,0-0.5,0-0.7,0.1c-0.3,0.1-0.7,0.5-1,1c-0.1,0.3-0.1,0.7,0,1l3.9,9.4l-2.9,6.9l3.6,0l6.8-16.2
					c0.1-0.3,0.1-0.8,0-1.1C211.8,13.6,211.5,13.2,211,13z M193.8,12.9c-1.8,0-3.4,0.7-4.7,1.9c-0.4,0.4-0.7,0.8-0.9,1.2
					c-0.1-0.6-0.2-1.1-0.4-1.7l-0.5-1.6c-0.2-0.7-0.6-1-1.2-1c-0.2,0-0.5,0-0.7,0.1l-14,4.8V13h-3.3v11.8c0,0.4,0.2,0.8,0.5,1
					c0.3,0.3,0.7,0.4,1.2,0.4c0.4,0,0.8-0.2,1.2-0.4c0.3-0.3,0.5-0.6,0.5-1v-3.1c1.3,2.3,3,3.4,4.4,4c1.1,0.4,2.3,0.7,3.5,0.7
					c1,0,2-0.2,2.9-0.5c2.4-0.8,4.2-2.6,5.2-4.7c0.3,1.1,0.9,2.1,1.7,3c1.3,1.3,2.9,1.9,4.7,1.9c1.6,0,2.6-0.5,3-0.8l0.2-0.2l0,1.1
					h3.3v-6.7c0-1.8-0.7-3.4-1.9-4.7C197.1,13.5,195.6,12.9,193.8,12.9z M184.8,19c-0.5,1.9-1.7,3.2-3.7,3.9c-0.6,0.2-1.3,0.3-2,0.3
					c-0.8,0-1.5-0.1-2.2-0.4c-1.1-0.4-2.5-1.4-3.3-3.5l-0.1-0.2l11.1-3.8l0.1,0.2C184.9,15.9,185.2,17.4,184.8,19z M196.8,20.8
					c-0.2,0.4-0.4,0.8-0.7,1.1c-0.3,0.3-0.6,0.5-1.1,0.7c-0.4,0.2-0.8,0.3-1.3,0.3c-0.5,0-0.9-0.1-1.3-0.3c-0.4-0.2-0.8-0.4-1-0.7
					c-0.3-0.3-0.5-0.7-0.7-1.1c-0.2-0.4-0.3-0.8-0.3-1.3c0-0.5,0.1-0.9,0.3-1.3c0.2-0.4,0.4-0.8,0.7-1.1c0.3-0.3,0.6-0.5,1-0.7
					c0.4-0.2,0.8-0.3,1.3-0.3c0.5,0,0.9,0.1,1.3,0.3c0.4,0.2,0.8,0.4,1.1,0.7c0.3,0.3,0.5,0.7,0.7,1.1c0.2,0.4,0.3,0.8,0.3,1.3
					C197.1,19.9,197,20.4,196.8,20.8z M165.2,12.9l-0.3,0c-2,0-3.3,1.2-3.3,1.2l-0.3,0.2l0-1.3H158l0,11.8c0,0.4,0.2,0.7,0.5,1
					c0.3,0.3,0.7,0.4,1.2,0.4c0.4,0,0.9-0.1,1.2-0.4c0.3-0.3,0.5-0.6,0.5-1v-5.3c0-2,2.2-3,3.1-3.2c0.2,0,0.4,0,0.6-0.1
					c0.2,0,0.4,0,0.5,0c0.7-0.1,1.6-0.7,1.5-1.9C167,13.4,166.2,12.9,165.2,12.9z M113.6,20.5L113.6,20.5l0.1,3.3h1.5v-4.4l1.6-1.3
					h4.9c0.1,0,0.2-0.1,0.2-0.2v-3.7c0-0.1-0.1-0.2-0.2-0.2H111c-0.1,0-0.2,0.1-0.2,0.2v3.7c0,0.1,0.1,0.2,0.2,0.2h3.5
					c-1.5,1-3,1.8-4.7,2.3l0.8,1.5C111.5,21.6,112.5,21.1,113.6,20.5z M112.4,16.7L112.4,16.7l-0.1-1.3c0,0,0-0.1,0.1-0.1h8l0.1,0.1
					v1.2l-0.1,0.1H112.4z M109.6,10.1c-1.1-0.9-2.2-1.6-3.1-2l-0.9,1.5c0.8,0.4,1.8,1,3,2L109.6,10.1z M122.7,11.5h-5.7v-1.1h4.9V9
					h-4.9V7.7h-1.6V9h-4.9v1.4h4.9v1.1H110V13h12.8V11.5z M109.2,13.9c-1.2-1-2.2-1.7-3.2-2.2l-0.9,1.4c0.8,0.5,1.8,1.2,3.1,2.2
					L109.2,13.9z M120.9,18.2c-0.5,0.5-1.2,1.1-2.2,1.8c-0.6-0.5-1.3-0.8-1.9-1.1l-0.9,1.4c1.4,0.7,3.1,1.9,5.1,3.5l1-1.3l-1.9-1.5
					c0.7-0.6,1.3-1.1,1.8-1.6L120.9,18.2z M111.8,24c-0.9-0.2-1.6-0.6-2-1.3c-0.4-0.5-0.6-0.9-0.7-1.3v-4.7c0-0.3-0.1-0.4-0.4-0.4
					h-3.4V18h1.9c0.1,0,0.2,0.1,0.2,0.2V22c-0.1,0.4-0.2,0.8-0.4,1.1c-0.3,0.5-1,1-2,1.5l0.9,1.5c0.6-0.3,1.1-0.7,1.6-1.2
					c0.5-0.6,0.9-1.1,1-1.5c0.8,1.5,2.4,2.3,4.9,2.4l9.4,0l0.4-1.9C116.7,24.2,112.9,24.3,111.8,24z M142.4,19.6l0.6,0.8l1.2-0.9
					l-1.5-2.2h0.2c0.3,0,0.4-0.1,0.4-0.4v-5.3c0-0.3-0.1-0.4-0.4-0.4h-5.2v-1h5.8V8.7h-5.8v-1h-1.6v1h-5.2v1.5h5.2v1h-4.9
					c-0.3,0-0.4,0.1-0.4,0.4V17c0,0.3,0.1,0.4,0.4,0.4h4.9v1.1l-5.7,0.2l0.2,1.5l9.4-0.5v1.2h-9.6v1.5h9.6v1.3c0,0.3,0,0.4-0.2,0.5
					c-0.3,0.2-1.1,0.1-2.3-0.2v1.7c1.6,0.4,2.7,0.4,3.3,0c0.5-0.4,0.9-0.9,0.9-1.6v-1.7h2.2v-1.5h-2.2v-1.2L142.4,19.6z M136.1,16
					h-3.6c0,0-0.1,0,0-0.1v-1h3.6V16z M136.1,13.6h-3.6v-0.9c0-0.1,0-0.1,0-0.1h3.6V13.6z M137.7,12.7h3.9c0.1,0,0.1,0,0.1,0.1v0.9
					h-4V12.7z M141.4,18.2l-3.7,0.2v-1h3.8l-0.5,0.4L141.4,18.2z M137.7,16v-1.1h4v1l-0.1,0.1H137.7z M134.3,22.7l-1.2,1.1
					c0.6,0.5,1.2,1.1,1.9,1.9l1.2-1C135.7,24,135,23.3,134.3,22.7z M125.6,16.3l1.6,0.6l0.5-0.8v10h1.6V12.3
					c0.4-1.2,0.7-2.7,0.9-4.4l-1.7-0.2C128.3,10.8,127.3,13.7,125.6,16.3z M216.4,21.2h4.6c0.2,0,0.2-0.1,0.2-0.2V8.5
					c0-0.1-0.1-0.2-0.2-0.2h-4.6c-0.1,0-0.2,0.1-0.2,0.2V21C216.2,21.1,216.2,21.2,216.4,21.2z M217.7,9.9L217.7,9.9l1.9-0.1
					l0.1,0.1v2.2h-2V9.9z M217.7,13.6h2v2.3h-2V13.6z M217.7,17.4h2v2.2c0,0.1,0,0.1-0.1,0.1h-1.8l-0.1-0.1V17.4z M231.2,12.8h2.3
					v-1.4h-2.3v-1h2.6V9h-2.6V7.7h-1.5V9h-3.3V7.8h-1.5V9h-2.8v1.4h2.8v1h-2.2v1.4h2.2v1.1h-2.9v1.4h5.3v1.1h-4.1
					c-0.2,0-0.4,0.1-0.4,0.4V22h-1.1v1.4h1.1V26h1.5v-2.7h7.4v0.4c0,0.3-0.1,0.5-0.4,0.7c-0.3,0.2-1,0.1-2.2-0.2l0.1,1.7
					c1.6,0.3,2.7,0.2,3.3-0.2c0.5-0.3,0.7-0.8,0.7-1.4v-1.1h0.9V22h-0.9v-5.2c0-0.2-0.1-0.4-0.4-0.4h-4.1v-1.1h5.4v-1.4h-2.9V12.8z
					 M227.2,22h-2.9v-1.4h2.9V22z M227.2,19.2h-2.9v-1.3c0-0.1,0-0.1,0.1-0.1h2.8V19.2z M231.7,22h-3v-1.4h3V22z M231.6,17.8
					c0.1,0,0.1,0,0.1,0.1v1.3h-3v-1.4H231.6z M229.7,13.9h-3.3v-1.1h3.3V13.9z M229.7,11.4h-3.3v-1h3.3V11.4z M215.7,25.6l1.5,0.5
					c0.6-1.5,1-2.7,1.2-3.9l-1.5-0.4C216.7,22.8,216.3,24.1,215.7,25.6z M219,22.5c0.4,0.7,0.8,1.8,1.1,3l1.4-0.5
					c-0.3-1.3-0.7-2.3-1.2-3.1L219,22.5z M254.7,10.1l-0.3-0.1h-7.6l0.4-2.1l-1.7-0.2c-0.3,2.6-1.3,5.2-2.8,7.5l1.6,0.6
					c0.7-1.1,1.4-2.4,2-4.2h1.4c-0.2,1.9-0.6,3.4-1,4.4c-0.7,1.5-2.1,3.2-4,5.1l1.5,0.9c2.6-2.7,4.3-5.5,4.9-8.1l0.3-2.3h1.2
					c-0.2,6-2.3,10.2-6.4,12.5l1.3,1.2c2.2-1.6,3.8-3.5,4.9-5.7c1.1-2.7,1.8-5.4,1.8-8h0.8c0.1,0,0.2,0,0.2,0.1
					c0.1,0.2,0.1,2.4,0,6.6c0,1.8-0.2,3.2-0.4,4c-0.3,0.8-0.6,1.3-0.9,1.5c-0.5,0.4-1.7,0.2-3.5-0.4l0.1,2c2.2,0.6,3.6,0.6,4.4,0.1
					c1.3-0.9,2-3.2,2.1-6.9L255,11C255,10.5,254.9,10.2,254.7,10.1z M243.4,16.9l-1.6,0.9v-4.8h1.7v-1.7h-1.7V7.7h-1.7v3.7H239
					l0.1-2v-1h-1.6v1c0,2.6-0.3,4.9-1,6.9l1.7,0.2c0.2-0.6,0.4-1.8,0.7-3.5h1.3v5.7c-0.9,0.4-2.1,0.9-3.6,1.4l0.9,1.5l2.6-1.1v5.6
					h1.7v-6.4c1-0.5,1.8-0.9,2.5-1.4L243.4,16.9z"/>
			</g>
		</g>
	</g>
	<g>
		<g>
			<path class="st0" d="M58.2,115.8c0,1.3-0.4,2.2-1.1,3c-0.8,0.7-1.8,1.1-3,1.2c-1.1,0-2.1-0.3-2.8-1c-0.8-0.9-1.1-1.9-1.1-3.2v-15
				h-5.5c-1.2,0-2.1-0.3-2.7-1c-0.6-0.6-1-1.5-1-2.6c0.1-1,0.4-1.8,1-2.5c0.7-0.7,1.6-1,2.7-1h5.5V64.2c0.1-1.8,0.7-3.4,2-4.6
				c1.4-1.4,3-2.1,4.8-2h22.6v-7H46c-1.2,0-2.1-0.3-2.7-1c-0.6-0.6-1-1.5-1-2.6c0.1-1,0.4-1.8,1-2.5c0.7-0.7,1.6-1,2.7-1h74.7
				c1.2,0.1,2.1,0.4,2.6,0.9c0.6,0.6,1,1.5,1,2.6c-0.1,1-0.4,1.8-1,2.5c-0.6,0.7-1.5,1.1-2.6,1.1H87.2v7h22.1c1.9,0.1,3.5,0.7,4.8,2
				c1.4,1.4,2.1,3,2.2,4.8v29.5h4.8c1.2,0.1,2.1,0.4,2.6,0.9c0.6,0.6,1,1.5,1,2.6c-0.1,1-0.4,1.8-1,2.5c-0.6,0.7-1.5,1.1-2.6,1.1
				h-4.8v10c-0.1,2.9-1.4,5.1-3.9,6.5c-1.6,1-3.9,1.5-6.7,1.5c-4.2,0.1-8.8-0.5-14-1.5c-1.4-0.5-2.4-1.1-3-2c-0.4-0.9-0.5-1.9-0.3-3
				c0.8-2.5,2.6-3.4,5.5-2.7c6,1.6,10.2,1.9,12.5,1c1.2-0.5,1.8-1.6,1.8-3.2v-6.6H58.2V115.8z M79.6,64.6H61.1
				c-0.8,0-1.5,0.3-2.1,0.9c-0.5,0.6-0.8,1.2-0.8,2v8.4h21.4V64.6z M79.6,93.7V82.9H58.2v10.9H79.6z M87.2,75.8h21.1V67
				c-0.1-0.6-0.4-1.2-0.9-1.7c-0.5-0.5-1.1-0.7-1.7-0.7H87.2V75.8z M108.3,93.7V82.9H87.2v10.9H108.3z"/>
		</g>
		<g>
			<g>
				<g>
					<ellipse class="st0" cx="278.7" cy="107.9" rx="5.1" ry="5.1"/>
					<path class="st0" d="M273.9,100.8c-1.3,0-2.3-0.3-2.9-1c-0.7-0.6-1-1.5-1-2.5c0.1-1,0.4-1.8,1-2.4c0.7-0.7,1.7-1,2.9-1h24.9
						v-1.9c0-1.1,0.2-1.9,0.7-2.6l-24.5,1.9c-1.3,0.1-2.4-0.2-3.2-0.7c-0.9-0.8-1.4-1.6-1.5-2.5c0-1.2,0.3-2.1,0.9-2.9
						c0.8-0.8,1.9-1.2,3.3-1.3l13.9-0.9v-3.5h-10.4c-1.6-0.1-2.8-0.6-3.6-1.6c-1.1-1.2-1.6-2.6-1.5-4v-16c0-1.3,0.5-2.4,1.5-3.3
						c1.1-1,2.3-1.4,3.6-1.4h10.4v-2.6h-14c-1.3,0-2.3-0.3-2.9-1c-0.7-0.6-1-1.5-1-2.5c0.1-1,0.4-1.8,1-2.4c0.7-0.7,1.7-1,2.9-1h14
						v-2.3c0-1.4,0.4-2.4,1.2-3.1c0.9-0.7,2-1.1,3.4-1.1c1.2,0,2.3,0.4,3.3,1.1c0.9,0.8,1.4,1.9,1.4,3.1v2.3h14.2
						c1.2,0.1,2.2,0.4,2.8,0.9c0.7,0.6,1,1.5,1,2.5c-0.1,1-0.4,1.8-1,2.4c-0.7,0.7-1.6,1.1-2.8,1.1h-14.2v2.6h9.8
						c1.8-0.1,3.3,0.4,4.5,1.4c1,0.8,1.5,1.9,1.6,3.3v16c0,1.2-0.5,2.3-1.4,3.3c0.6,0.3,1.2,0.7,1.6,1.3c4.3,5.3,6,9.1,5.2,11.3
						c-0.4,0.9-1.2,1.5-2.2,1.9c-1.1,0.4-2.1,0.4-3,0.1c-0.6-0.3-1.5-1.4-2.9-3.3l-4,0.3c0.7,0.8,1.1,1.9,1.1,3.1v1.9h6.5
						c1.2,0.1,2.2,0.4,2.8,0.9c0.7,0.6,1,1.5,1,2.5c-0.1,1-0.4,1.8-1,2.4c-0.7,0.7-1.6,1.1-2.8,1.1H308v9c-0.1,3.7-1.7,6.5-4.9,8.5
						c-2.1,1.1-4.9,1.5-9.8,1.2c-4.9-0.4-7.9-1.5-9-3.2c-0.5-1-0.6-2.1-0.4-3.1c1.1-2.7,3.2-3.6,6.2-2.8c4.5,0.7,6.6,0.8,7.5,0.1
						c0.7-0.6,1.1-1.5,1-2.8v-6.9H273.9z M288.3,59.8H282c-0.4,0.1-0.8,0.2-1,0.4c-0.3,0.3-0.4,0.6-0.4,0.9v2.1h7.8V59.8z
						 M288.3,69.3h-7.8v2.2c0,0.3,0.1,0.6,0.4,0.8c0.3,0.3,0.7,0.4,1,0.4h6.4V69.3z M297.6,63.3h8.2v-2.1c0-0.4-0.1-0.7-0.4-0.9
						c-0.3-0.3-0.7-0.4-1-0.4h-6.7V63.3z M297.6,72.7h6.7c0.4-0.1,0.8-0.2,1-0.4c0.2-0.3,0.3-0.6,0.4-0.8v-2.2h-8.2V72.7z
						 M306.4,79.4h-8.8v3l9.1-0.8c-0.2-0.7-0.3-1.4-0.3-2V79.4z"/>
				</g>
				<path class="st0" d="M235.2,50.5c-1.3,0-2.3-0.3-2.9-1c-0.7-0.6-1-1.5-1-2.5c0.1-1,0.4-1.8,1-2.4c0.7-0.7,1.7-1,2.9-1h9.8v-2.3
					c0-1.4,0.4-2.4,1.2-3.1c0.9-0.7,2-1.1,3.4-1.1c1.2,0,2.3,0.4,3.3,1.1c0.9,0.8,1.4,1.9,1.4,3.1v2.3h19.6c1.2,0.1,2.2,0.4,2.8,0.9
					c0.7,0.6,1,1.5,1,2.5c-0.1,1-0.4,1.8-1,2.4c-0.7,0.7-1.6,1.1-2.8,1.1H235.2z"/>
				<path class="st0" d="M273.8,93.8c1.3,0,2.3,0.3,2.9,1c0.7,0.6,1,1.5,1,2.5c-0.1,1-0.4,1.8-1,2.4c-0.7,0.7-1.7,1-2.9,1h-20.5v7.1
					c0,1.4-0.4,2.4-1.2,3.1c-0.9,0.7-2,1.1-3.4,1.1c-1.2,0-2.3-0.4-3.3-1.1c-0.9-0.8-1.4-1.9-1.4-3.1v-7.1h-10.1
					c-1.2-0.1-2.2-0.4-2.8-0.9c-0.7-0.6-1-1.5-1-2.5c0.1-1,0.4-1.8,1-2.4c0.7-0.7,1.6-1.1,2.8-1.1H273.8z"/>
			</g>
			<path class="st1" d="M249.3,94.9c0.8,0,1.5-0.5,1.7-1.1c0.1-0.2,0.1-0.5,0.1-0.7v-3.4c0.1,0,0.3,0,0.4,0c2.9,0,5.7-0.7,8.3-2.1
				c6.8-3.7,10.5-11.3,9.1-19c-0.4-2.4-2.7-3.9-5-3.5c-2.3,0.4-3.9,2.7-3.4,5.1c0.7,3.9-1.1,7.8-4.7,9.7c-1.4,0.8-3,1.1-4.6,1.1
				v-3.4c0-1-0.8-1.8-1.9-1.8c-0.4,0-0.8,0.1-1.1,0.4l-9.9,7.5c-1.1,1.2-1.1,2.3,0,3.5l8.9,6.7l1,0.8
				C248.5,94.8,248.9,94.9,249.3,94.9z"/>
			<path class="st1" d="M250,49.4c-0.8,0-1.5,0.5-1.7,1.1c-0.1,0.2-0.1,0.5-0.1,0.7v3.4c-0.1,0-0.3,0-0.4,0c-2.9,0-5.7,0.7-8.3,2.1
				c-6.8,3.7-10.5,11.3-9.1,19c0.4,2.4,2.7,3.9,5,3.5c2.3-0.4,3.9-2.7,3.4-5.1c-0.7-3.9,1.1-7.8,4.7-9.7c1.4-0.8,3-1.1,4.6-1.1v3.4
				c0,1,0.8,1.8,1.9,1.8c0.4,0,0.8-0.1,1.1-0.4l9.9-7.5c1.1-1.2,1.1-2.3,0-3.5l-8.9-6.7l-1-0.8C250.8,49.5,250.4,49.4,250,49.4z"/>
		</g>
		<g>
			<g>
				<g>
					<ellipse class="st0" cx="182.3" cy="107.9" rx="5.1" ry="5.1"/>
					<path class="st0" d="M177.4,100.8c-1.3,0-2.3-0.3-2.9-1c-0.7-0.6-1-1.5-1-2.5c0.1-1,0.4-1.8,1-2.4c0.7-0.7,1.7-1,2.9-1h24.9
						v-1.9c0-1.1,0.2-1.9,0.7-2.6l-24.5,1.9c-1.3,0.1-2.4-0.2-3.2-0.7c-0.9-0.8-1.4-1.6-1.5-2.5c0-1.2,0.3-2.1,0.9-2.9
						c0.8-0.8,1.9-1.2,3.3-1.3l13.9-0.9v-3.5h-10.4c-1.6-0.1-2.8-0.6-3.6-1.6c-1.1-1.2-1.6-2.6-1.5-4v-16c0-1.3,0.5-2.4,1.5-3.3
						c1.1-1,2.3-1.4,3.6-1.4h10.4v-2.6h-14c-1.3,0-2.3-0.3-2.9-1c-0.7-0.6-1-1.5-1-2.5c0.1-1,0.4-1.8,1-2.4c0.7-0.7,1.7-1,2.9-1h14
						v-2.3c0-1.4,0.4-2.4,1.2-3.1c0.9-0.7,2-1.1,3.4-1.1c1.2,0,2.3,0.4,3.3,1.1c0.9,0.8,1.4,1.9,1.4,3.1v2.3h14.2
						c1.2,0.1,2.2,0.4,2.8,0.9c0.7,0.6,1,1.5,1,2.5c-0.1,1-0.4,1.8-1,2.4c-0.7,0.7-1.6,1.1-2.8,1.1h-14.2v2.6h9.8
						c1.8-0.1,3.3,0.4,4.5,1.4c1,0.8,1.5,1.9,1.6,3.3v16c0,1.2-0.5,2.3-1.4,3.3c0.6,0.3,1.2,0.7,1.6,1.3c4.3,5.3,6,9.1,5.2,11.3
						c-0.4,0.9-1.2,1.5-2.2,1.9c-1.1,0.4-2.1,0.4-3,0.1c-0.6-0.3-1.5-1.4-2.9-3.3l-4,0.3c0.7,0.8,1.1,1.9,1.1,3.1v1.9h6.5
						c1.2,0.1,2.2,0.4,2.8,0.9c0.7,0.6,1,1.5,1,2.5c-0.1,1-0.4,1.8-1,2.4c-0.7,0.7-1.6,1.1-2.8,1.1h-6.5v9c-0.1,3.7-1.7,6.5-4.9,8.5
						c-2.1,1.1-4.9,1.5-9.8,1.2c-4.9-0.4-7.9-1.5-9-3.2c-0.5-1-0.6-2.1-0.4-3.1c1.1-2.7,3.2-3.6,6.2-2.8c4.5,0.7,6.6,0.8,7.5,0.1
						c0.7-0.6,1.1-1.5,1-2.8v-6.9H177.4z M191.9,59.8h-6.4c-0.4,0.1-0.8,0.2-1,0.4c-0.3,0.3-0.4,0.6-0.4,0.9v2.1h7.8V59.8z
						 M191.9,69.3h-7.8v2.2c0,0.3,0.1,0.6,0.4,0.8c0.3,0.3,0.7,0.4,1,0.4h6.4V69.3z M201.1,63.3h8.2v-2.1c0-0.4-0.1-0.7-0.4-0.9
						c-0.3-0.3-0.7-0.4-1-0.4h-6.7V63.3z M201.1,72.7h6.7c0.4-0.1,0.8-0.2,1-0.4c0.2-0.3,0.3-0.6,0.4-0.8v-2.2h-8.2V72.7z
						 M209.9,79.4h-8.8v3l9.1-0.8c-0.2-0.7-0.3-1.4-0.3-2V79.4z"/>
				</g>
				<path class="st0" d="M138.7,50.5c-1.3,0-2.3-0.3-2.9-1c-0.7-0.6-1-1.5-1-2.5c0.1-1,0.4-1.8,1-2.4c0.7-0.7,1.7-1,2.9-1h9.8v-2.3
					c0-1.4,0.4-2.4,1.2-3.1c0.9-0.7,2-1.1,3.4-1.1c1.2,0,2.3,0.4,3.3,1.1c0.9,0.8,1.4,1.9,1.4,3.1v2.3h19.6c1.2,0.1,2.2,0.4,2.8,0.9
					c0.7,0.6,1,1.5,1,2.5c-0.1,1-0.4,1.8-1,2.4c-0.7,0.7-1.6,1.1-2.8,1.1H138.7z"/>
				<path class="st0" d="M177.3,93.8c1.3,0,2.3,0.3,2.9,1c0.7,0.6,1,1.5,1,2.5c-0.1,1-0.4,1.8-1,2.4c-0.7,0.7-1.7,1-2.9,1h-20.5v7.1
					c0,1.4-0.4,2.4-1.2,3.1c-0.9,0.7-2,1.1-3.4,1.1c-1.2,0-2.3-0.4-3.3-1.1c-0.9-0.8-1.4-1.9-1.4-3.1v-7.1h-10.1
					c-1.2-0.1-2.2-0.4-2.8-0.9c-0.7-0.6-1-1.5-1-2.5c0.1-1,0.4-1.8,1-2.4c0.7-0.7,1.6-1.1,2.8-1.1H177.3z"/>
			</g>
			<path class="st1" d="M152.9,94.9c0.8,0,1.5-0.5,1.7-1.1c0.1-0.2,0.1-0.5,0.1-0.7v-3.4c0.1,0,0.3,0,0.4,0c2.9,0,5.7-0.7,8.3-2.1
				c6.8-3.7,10.5-11.3,9.1-19c-0.4-2.4-2.7-3.9-5-3.5c-2.3,0.4-3.9,2.7-3.4,5.1c0.7,3.9-1.1,7.8-4.7,9.7c-1.4,0.8-3,1.1-4.6,1.1
				v-3.4c0-1-0.8-1.8-1.9-1.8c-0.4,0-0.8,0.1-1.1,0.4l-9.9,7.5c-1.1,1.2-1.1,2.3,0,3.5l8.9,6.7l1,0.8
				C152.1,94.8,152.4,94.9,152.9,94.9z"/>
			<path class="st1" d="M153.6,49.4c-0.8,0-1.5,0.5-1.7,1.1c-0.1,0.2-0.1,0.5-0.1,0.7v3.4c-0.1,0-0.3,0-0.4,0
				c-2.9,0-5.7,0.7-8.3,2.1c-6.8,3.7-10.5,11.3-9.1,19c0.4,2.4,2.7,3.9,5,3.5c2.3-0.4,3.9-2.7,3.4-5.1c-0.7-3.9,1.1-7.8,4.7-9.7
				c1.4-0.8,3-1.1,4.6-1.1v3.4c0,1,0.8,1.8,1.9,1.8c0.4,0,0.8-0.1,1.1-0.4l9.9-7.5c1.1-1.2,1.1-2.3,0-3.5l-8.9-6.7l-1-0.8
				C154.4,49.5,154,49.4,153.6,49.4z"/>
		</g>
	</g>
</g>
</svg>
