<?xml version="1.0" encoding="utf-8"?>
<!-- Generator: Adobe Illustrator 26.5.0, SVG Export Plug-In . SVG Version: 6.00 Build 0)  -->
<svg version="1.1" id="圖層_1" xmlns="http://www.w3.org/2000/svg" xmlns:xlink="http://www.w3.org/1999/xlink" x="0px" y="0px"
	 viewBox="0 0 32.5 27.4" style="enable-background:new 0 0 32.5 27.4;" xml:space="preserve">
<style type="text/css">
	.st0{fill-rule:evenodd;clip-rule:evenodd;}
</style>
<path d="M24.2,27.4H5.9c-3.3,0-5.9-2.7-5.9-5.9V8.8c0-3.3,2.7-5.9,5.9-5.9h10.9v3H5.9C4.3,5.8,3,7.1,3,8.8v12.7
	c0,1.6,1.3,2.9,2.9,2.9h18.3c1.6,0,2.9-1.3,2.9-2.9v-6.3h3v6.3C30.2,24.8,27.5,27.4,24.2,27.4z"/>
<path class="st0" d="M28.3,0l-9.8,9.8l-2.2,6.4l6.4-2.2l9.8-9.8L28.3,0z"/>
</svg>
