<?xml version="1.0" encoding="utf-8"?>
<!-- Generator: Adobe Illustrator 26.3.1, SVG Export Plug-In . SVG Version: 6.00 Build 0)  -->
<svg version="1.1" id="圖層_1" xmlns="http://www.w3.org/2000/svg" xmlns:xlink="http://www.w3.org/1999/xlink" x="0px" y="0px"
	 viewBox="0 0 100 100" style="enable-background:new 0 0 100 100;" xml:space="preserve">
<style type="text/css">
	.st0{clip-path:url(#SVGID_00000097473955427175637850000004073860285842487986_);fill:#FFFFFF;}
	.st1{clip-path:url(#SVGID_00000127037064036057977850000004183746660162056338_);fill:#FFFFFF;}
	.st2{fill:#FF0055;}
	.st3{fill:#FFFFFF;}
	.st4{fill:#FFF000;}
</style>
<g>
	<g>
		<g>
			<defs>
				<rect id="SVGID_1_" x="0" width="100" height="100"/>
			</defs>
			<clipPath id="SVGID_00000152971247241194180910000004438335269934548358_">
				<use xlink:href="#SVGID_1_"  style="overflow:visible;"/>
			</clipPath>
			
				<rect style="clip-path:url(#SVGID_00000152971247241194180910000004438335269934548358_);fill:#FFFFFF;" width="100" height="100"/>
		</g>
		<rect x="25" y="6" width="2.4" height="2.4"/>
		<rect x="32.2" y="6" width="2.4" height="2.4"/>
		<rect x="34.5" y="6" width="2.4" height="2.4"/>
		<rect x="58.3" y="6" width="2.4" height="2.4"/>
		<rect x="63.1" y="6" width="2.4" height="2.4"/>
		<rect x="72.6" y="6" width="2.4" height="2.4"/>
		<rect x="25" y="8.4" width="2.4" height="2.4"/>
		<rect x="27.4" y="8.4" width="2.4" height="2.4"/>
		<rect x="29.8" y="8.4" width="2.4" height="2.4"/>
		<rect x="32.2" y="8.4" width="2.4" height="2.4"/>
		<rect x="34.5" y="8.4" width="2.4" height="2.4"/>
		<rect x="44" y="8.4" width="2.4" height="2.4"/>
		<rect x="46.4" y="8.4" width="2.4" height="2.4"/>
		<rect x="48.8" y="8.4" width="2.4" height="2.4"/>
		<rect x="53.5" y="8.4" width="2.4" height="2.4"/>
		<rect x="55.9" y="8.4" width="2.4" height="2.4"/>
		<rect x="58.3" y="8.4" width="2.4" height="2.4"/>
		<rect x="63.1" y="8.4" width="2.4" height="2.4"/>
		<rect x="65.4" y="8.4" width="2.4" height="2.4"/>
		<rect x="67.8" y="8.4" width="2.4" height="2.4"/>
		<rect x="70.2" y="8.4" width="2.4" height="2.4"/>
		<rect x="25" y="10.8" width="2.4" height="2.4"/>
		<rect x="29.8" y="10.8" width="2.4" height="2.4"/>
		<rect x="34.5" y="10.8" width="2.4" height="2.4"/>
		<rect x="39.3" y="10.8" width="2.4" height="2.4"/>
		<rect x="41.7" y="10.8" width="2.4" height="2.4"/>
		<rect x="44" y="10.8" width="2.4" height="2.4"/>
		<rect x="48.8" y="10.8" width="2.4" height="2.4"/>
		<rect x="51.2" y="10.8" width="2.4" height="2.4"/>
		<rect x="60.7" y="10.8" width="2.4" height="2.4"/>
		<rect x="63.1" y="10.8" width="2.4" height="2.4"/>
		<rect x="67.8" y="10.8" width="2.4" height="2.4"/>
		<rect x="72.6" y="10.8" width="2.4" height="2.4"/>
		<rect x="29.8" y="13.1" width="2.4" height="2.4"/>
		<rect x="34.5" y="13.1" width="2.4" height="2.4"/>
		<rect x="41.7" y="13.1" width="2.4" height="2.4"/>
		<rect x="44" y="13.1" width="2.4" height="2.4"/>
		<rect x="51.2" y="13.1" width="2.4" height="2.4"/>
		<rect x="53.5" y="13.1" width="2.4" height="2.4"/>
		<rect x="55.9" y="13.1" width="2.4" height="2.4"/>
		<rect x="60.7" y="13.1" width="2.4" height="2.4"/>
		<rect x="65.4" y="13.1" width="2.4" height="2.4"/>
		<rect x="27.4" y="15.5" width="2.4" height="2.4"/>
		<rect x="41.7" y="15.5" width="2.4" height="2.4"/>
		<rect x="58.3" y="15.5" width="2.4" height="2.4"/>
		<rect x="63.1" y="15.5" width="2.4" height="2.4"/>
		<rect x="65.4" y="15.5" width="2.4" height="2.4"/>
		<rect x="25" y="17.9" width="2.4" height="2.4"/>
		<rect x="27.4" y="17.9" width="2.4" height="2.4"/>
		<rect x="32.2" y="17.9" width="2.4" height="2.4"/>
		<rect x="34.5" y="17.9" width="2.4" height="2.4"/>
		<rect x="36.9" y="17.9" width="2.4" height="2.4"/>
		<rect x="41.7" y="17.9" width="2.4" height="2.4"/>
		<rect x="46.4" y="17.9" width="2.4" height="2.4"/>
		<rect x="48.8" y="17.9" width="2.4" height="2.4"/>
		<rect x="60.7" y="17.9" width="2.4" height="2.4"/>
		<rect x="63.1" y="17.9" width="2.4" height="2.4"/>
		<rect x="65.4" y="17.9" width="2.4" height="2.4"/>
		<rect x="67.8" y="17.9" width="2.4" height="2.4"/>
		<rect x="70.2" y="17.9" width="2.4" height="2.4"/>
		<rect x="72.6" y="17.9" width="2.4" height="2.4"/>
		<rect x="25" y="20.3" width="2.4" height="2.4"/>
		<rect x="29.8" y="20.3" width="2.4" height="2.4"/>
		<rect x="34.5" y="20.3" width="2.4" height="2.4"/>
		<rect x="39.3" y="20.3" width="2.4" height="2.4"/>
		<rect x="44" y="20.3" width="2.4" height="2.4"/>
		<rect x="48.8" y="20.3" width="2.4" height="2.4"/>
		<rect x="53.5" y="20.3" width="2.4" height="2.4"/>
		<rect x="58.3" y="20.3" width="2.4" height="2.4"/>
		<rect x="63.1" y="20.3" width="2.4" height="2.4"/>
		<rect x="67.8" y="20.3" width="2.4" height="2.4"/>
		<rect x="72.6" y="20.3" width="2.4" height="2.4"/>
		<rect x="25" y="22.6" width="2.4" height="2.4"/>
		<rect x="32.2" y="22.6" width="2.4" height="2.4"/>
		<rect x="46.4" y="22.6" width="2.4" height="2.4"/>
		<rect x="48.8" y="22.6" width="2.4" height="2.4"/>
		<rect x="58.3" y="22.6" width="2.4" height="2.4"/>
		<rect x="67.8" y="22.6" width="2.4" height="2.4"/>
		<rect x="72.6" y="22.6" width="2.4" height="2.4"/>
		<rect x="10.8" y="25" width="2.4" height="2.4"/>
		<rect x="13.1" y="25" width="2.4" height="2.4"/>
		<rect x="15.5" y="25" width="2.4" height="2.4"/>
		<rect x="20.3" y="25" width="2.4" height="2.4"/>
		<rect x="25" y="25" width="2.4" height="2.4"/>
		<rect x="27.4" y="25" width="2.4" height="2.4"/>
		<rect x="36.9" y="25" width="2.4" height="2.4"/>
		<rect x="41.7" y="25" width="2.4" height="2.4"/>
		<rect x="46.4" y="25" width="2.4" height="2.4"/>
		<rect x="48.8" y="25" width="2.4" height="2.4"/>
		<rect x="51.2" y="25" width="2.4" height="2.4"/>
		<rect x="55.9" y="25" width="2.4" height="2.4"/>
		<rect x="58.3" y="25" width="2.4" height="2.4"/>
		<rect x="74.9" y="25" width="2.4" height="2.4"/>
		<rect x="77.3" y="25" width="2.4" height="2.4"/>
		<rect x="79.7" y="25" width="2.4" height="2.4"/>
		<rect x="86.8" y="25" width="2.4" height="2.4"/>
		<rect x="89.2" y="25" width="2.4" height="2.4"/>
		<rect x="91.6" y="25" width="2.4" height="2.4"/>
		<rect x="10.8" y="27.4" width="2.4" height="2.4"/>
		<rect x="13.1" y="27.4" width="2.4" height="2.4"/>
		<rect x="15.5" y="27.4" width="2.4" height="2.4"/>
		<rect x="22.7" y="27.4" width="2.4" height="2.4"/>
		<rect x="27.4" y="27.4" width="2.4" height="2.4"/>
		<rect x="34.5" y="27.4" width="2.4" height="2.4"/>
		<rect x="36.9" y="27.4" width="2.4" height="2.4"/>
		<rect x="41.7" y="27.4" width="2.4" height="2.4"/>
		<rect x="63.1" y="27.4" width="2.4" height="2.4"/>
		<rect x="65.4" y="27.4" width="2.4" height="2.4"/>
		<rect x="74.9" y="27.4" width="2.4" height="2.4"/>
		<rect x="79.7" y="27.4" width="2.4" height="2.4"/>
		<rect x="86.8" y="27.4" width="2.4" height="2.4"/>
		<rect x="6" y="29.8" width="2.4" height="2.4"/>
		<rect x="10.8" y="29.8" width="2.4" height="2.4"/>
		<rect x="15.5" y="29.8" width="2.4" height="2.4"/>
		<rect x="20.3" y="29.8" width="2.4" height="2.4"/>
		<rect x="22.7" y="29.8" width="2.4" height="2.4"/>
		<rect x="25" y="29.8" width="2.4" height="2.4"/>
		<rect x="29.8" y="29.8" width="2.4" height="2.4"/>
		<rect x="34.5" y="29.8" width="2.4" height="2.4"/>
		<rect x="41.7" y="29.8" width="2.4" height="2.4"/>
		<rect x="53.5" y="29.8" width="2.4" height="2.4"/>
		<rect x="58.3" y="29.8" width="2.4" height="2.4"/>
		<rect x="63.1" y="29.8" width="2.4" height="2.4"/>
		<rect x="65.4" y="29.8" width="2.4" height="2.4"/>
		<rect x="67.8" y="29.8" width="2.4" height="2.4"/>
		<rect x="70.2" y="29.8" width="2.4" height="2.4"/>
		<rect x="77.3" y="29.8" width="2.4" height="2.4"/>
		<rect x="84.4" y="29.8" width="2.4" height="2.4"/>
		<rect x="89.2" y="29.8" width="2.4" height="2.4"/>
		<rect x="91.6" y="29.8" width="2.4" height="2.4"/>
		<rect x="10.8" y="32.1" width="2.4" height="2.4"/>
		<rect x="25" y="32.1" width="2.4" height="2.4"/>
		<rect x="27.4" y="32.1" width="2.4" height="2.4"/>
		<rect x="34.5" y="32.1" width="2.4" height="2.4"/>
		<rect x="36.9" y="32.1" width="2.4" height="2.4"/>
		<rect x="41.7" y="32.1" width="2.4" height="2.4"/>
		<rect x="44" y="32.1" width="2.4" height="2.4"/>
		<rect x="46.4" y="32.1" width="2.4" height="2.4"/>
		<rect x="48.8" y="32.1" width="2.4" height="2.4"/>
		<rect x="67.8" y="32.1" width="2.4" height="2.4"/>
		<rect x="72.6" y="32.1" width="2.4" height="2.4"/>
		<rect x="77.3" y="32.1" width="2.4" height="2.4"/>
		<rect x="79.7" y="32.1" width="2.4" height="2.4"/>
		<rect x="6" y="34.5" width="2.4" height="2.4"/>
		<rect x="8.4" y="34.5" width="2.4" height="2.4"/>
		<rect x="20.3" y="34.5" width="2.4" height="2.4"/>
		<rect x="22.7" y="34.5" width="2.4" height="2.4"/>
		<rect x="25" y="34.5" width="2.4" height="2.4"/>
		<rect x="29.8" y="34.5" width="2.4" height="2.4"/>
		<rect x="36.9" y="34.5" width="2.4" height="2.4"/>
		<rect x="39.3" y="34.5" width="2.4" height="2.4"/>
		<rect x="44" y="34.5" width="2.4" height="2.4"/>
		<rect x="51.2" y="34.5" width="2.4" height="2.4"/>
		<rect x="53.5" y="34.5" width="2.4" height="2.4"/>
		<rect x="55.9" y="34.5" width="2.4" height="2.4"/>
		<rect x="58.3" y="34.5" width="2.4" height="2.4"/>
		<rect x="65.4" y="34.5" width="2.4" height="2.4"/>
		<rect x="67.8" y="34.5" width="2.4" height="2.4"/>
		<rect x="72.6" y="34.5" width="2.4" height="2.4"/>
		<rect x="74.9" y="34.5" width="2.4" height="2.4"/>
		<rect x="77.3" y="34.5" width="2.4" height="2.4"/>
		<rect x="79.7" y="34.5" width="2.4" height="2.4"/>
		<rect x="82.1" y="34.5" width="2.4" height="2.4"/>
		<rect x="84.4" y="34.5" width="2.4" height="2.4"/>
		<rect x="86.8" y="34.5" width="2.4" height="2.4"/>
		<rect x="91.6" y="34.5" width="2.4" height="2.4"/>
		<rect x="10.8" y="36.9" width="2.4" height="2.4"/>
		<rect x="22.7" y="36.9" width="2.4" height="2.4"/>
		<rect x="25" y="36.9" width="2.4" height="2.4"/>
		<rect x="27.4" y="36.9" width="2.4" height="2.4"/>
		<rect x="34.5" y="36.9" width="2.4" height="2.4"/>
		<rect x="72.6" y="36.9" width="2.4" height="2.4"/>
		<rect x="74.9" y="36.9" width="2.4" height="2.4"/>
		<rect x="79.7" y="36.9" width="2.4" height="2.4"/>
		<rect x="84.4" y="36.9" width="2.4" height="2.4"/>
		<rect x="86.8" y="36.9" width="2.4" height="2.4"/>
		<rect x="89.2" y="36.9" width="2.4" height="2.4"/>
		<rect x="8.4" y="39.3" width="2.4" height="2.4"/>
		<rect x="10.8" y="39.3" width="2.4" height="2.4"/>
		<rect x="13.1" y="39.3" width="2.4" height="2.4"/>
		<rect x="17.9" y="39.3" width="2.4" height="2.4"/>
		<rect x="20.3" y="39.3" width="2.4" height="2.4"/>
		<rect x="25" y="39.3" width="2.4" height="2.4"/>
		<rect x="27.4" y="39.3" width="2.4" height="2.4"/>
		<rect x="34.5" y="39.3" width="2.4" height="2.4"/>
		<rect x="63.1" y="39.3" width="2.4" height="2.4"/>
		<rect x="65.4" y="39.3" width="2.4" height="2.4"/>
		<rect x="67.8" y="39.3" width="2.4" height="2.4"/>
		<rect x="70.2" y="39.3" width="2.4" height="2.4"/>
		<rect x="77.3" y="39.3" width="2.4" height="2.4"/>
		<rect x="79.7" y="39.3" width="2.4" height="2.4"/>
		<rect x="84.4" y="39.3" width="2.4" height="2.4"/>
		<rect x="89.2" y="39.3" width="2.4" height="2.4"/>
		<rect x="91.6" y="39.3" width="2.4" height="2.4"/>
		<rect x="8.4" y="41.6" width="2.4" height="2.4"/>
		<rect x="10.8" y="41.6" width="2.4" height="2.4"/>
		<rect x="17.9" y="41.6" width="2.4" height="2.4"/>
		<rect x="25" y="41.6" width="2.4" height="2.4"/>
		<rect x="32.2" y="41.6" width="2.4" height="2.4"/>
		<rect x="67.8" y="41.6" width="2.4" height="2.4"/>
		<rect x="70.2" y="41.6" width="2.4" height="2.4"/>
		<rect x="72.6" y="41.6" width="2.4" height="2.4"/>
		<rect x="77.3" y="41.6" width="2.4" height="2.4"/>
		<rect x="6" y="44" width="2.4" height="2.4"/>
		<rect x="8.4" y="44" width="2.4" height="2.4"/>
		<rect x="17.9" y="44" width="2.4" height="2.4"/>
		<rect x="20.3" y="44" width="2.4" height="2.4"/>
		<rect x="22.7" y="44" width="2.4" height="2.4"/>
		<rect x="25" y="44" width="2.4" height="2.4"/>
		<rect x="65.4" y="44" width="2.4" height="2.4"/>
		<rect x="70.2" y="44" width="2.4" height="2.4"/>
		<rect x="74.9" y="44" width="2.4" height="2.4"/>
		<rect x="77.3" y="44" width="2.4" height="2.4"/>
		<rect x="79.7" y="44" width="2.4" height="2.4"/>
		<rect x="82.1" y="44" width="2.4" height="2.4"/>
		<rect x="86.8" y="44" width="2.4" height="2.4"/>
		<rect x="89.2" y="44" width="2.4" height="2.4"/>
		<rect x="8.4" y="46.4" width="2.4" height="2.4"/>
		<rect x="17.9" y="46.4" width="2.4" height="2.4"/>
		<rect x="27.4" y="46.4" width="2.4" height="2.4"/>
		<rect x="29.8" y="46.4" width="2.4" height="2.4"/>
		<rect x="32.2" y="46.4" width="2.4" height="2.4"/>
		<rect x="63.1" y="46.4" width="2.4" height="2.4"/>
		<rect x="65.4" y="46.4" width="2.4" height="2.4"/>
		<rect x="72.6" y="46.4" width="2.4" height="2.4"/>
		<rect x="74.9" y="46.4" width="2.4" height="2.4"/>
		<rect x="79.7" y="46.4" width="2.4" height="2.4"/>
		<rect x="84.4" y="46.4" width="2.4" height="2.4"/>
		<rect x="6" y="48.8" width="2.4" height="2.4"/>
		<rect x="8.4" y="48.8" width="2.4" height="2.4"/>
		<rect x="13.1" y="48.8" width="2.4" height="2.4"/>
		<rect x="20.3" y="48.8" width="2.4" height="2.4"/>
		<rect x="25" y="48.8" width="2.4" height="2.4"/>
		<rect x="27.4" y="48.8" width="2.4" height="2.4"/>
		<rect x="32.2" y="48.8" width="2.4" height="2.4"/>
		<rect x="34.5" y="48.8" width="2.4" height="2.4"/>
		<rect x="65.4" y="48.8" width="2.4" height="2.4"/>
		<rect x="67.8" y="48.8" width="2.4" height="2.4"/>
		<rect x="70.2" y="48.8" width="2.4" height="2.4"/>
		<rect x="72.6" y="48.8" width="2.4" height="2.4"/>
		<rect x="79.7" y="48.8" width="2.4" height="2.4"/>
		<rect x="82.1" y="48.8" width="2.4" height="2.4"/>
		<rect x="86.8" y="48.8" width="2.4" height="2.4"/>
		<rect x="89.2" y="48.8" width="2.4" height="2.4"/>
		<rect x="91.6" y="48.8" width="2.4" height="2.4"/>
		<rect x="13.1" y="51.2" width="2.4" height="2.4"/>
		<rect x="17.9" y="51.2" width="2.4" height="2.4"/>
		<rect x="22.7" y="51.2" width="2.4" height="2.4"/>
		<rect x="25" y="51.2" width="2.4" height="2.4"/>
		<rect x="27.4" y="51.2" width="2.4" height="2.4"/>
		<rect x="29.8" y="51.2" width="2.4" height="2.4"/>
		<rect x="34.5" y="51.2" width="2.4" height="2.4"/>
		<rect x="67.8" y="51.2" width="2.4" height="2.4"/>
		<rect x="70.2" y="51.2" width="2.4" height="2.4"/>
		<rect x="74.9" y="51.2" width="2.4" height="2.4"/>
		<rect x="77.3" y="51.2" width="2.4" height="2.4"/>
		<rect x="79.7" y="51.2" width="2.4" height="2.4"/>
		<rect x="82.1" y="51.2" width="2.4" height="2.4"/>
		<rect x="89.2" y="51.2" width="2.4" height="2.4"/>
		<rect x="91.6" y="51.2" width="2.4" height="2.4"/>
		<rect x="10.8" y="53.5" width="2.4" height="2.4"/>
		<rect x="13.1" y="53.5" width="2.4" height="2.4"/>
		<rect x="17.9" y="53.5" width="2.4" height="2.4"/>
		<rect x="20.3" y="53.5" width="2.4" height="2.4"/>
		<rect x="22.7" y="53.5" width="2.4" height="2.4"/>
		<rect x="29.8" y="53.5" width="2.4" height="2.4"/>
		<rect x="34.5" y="53.5" width="2.4" height="2.4"/>
		<rect x="65.4" y="53.5" width="2.4" height="2.4"/>
		<rect x="67.8" y="53.5" width="2.4" height="2.4"/>
		<rect x="77.3" y="53.5" width="2.4" height="2.4"/>
		<rect x="79.7" y="53.5" width="2.4" height="2.4"/>
		<rect x="82.1" y="53.5" width="2.4" height="2.4"/>
		<rect x="84.4" y="53.5" width="2.4" height="2.4"/>
		<rect x="86.8" y="53.5" width="2.4" height="2.4"/>
		<rect x="6" y="55.9" width="2.4" height="2.4"/>
		<rect x="13.1" y="55.9" width="2.4" height="2.4"/>
		<rect x="22.7" y="55.9" width="2.4" height="2.4"/>
		<rect x="27.4" y="55.9" width="2.4" height="2.4"/>
		<rect x="32.2" y="55.9" width="2.4" height="2.4"/>
		<rect x="34.5" y="55.9" width="2.4" height="2.4"/>
		<rect x="65.4" y="55.9" width="2.4" height="2.4"/>
		<rect x="79.7" y="55.9" width="2.4" height="2.4"/>
		<rect x="84.4" y="55.9" width="2.4" height="2.4"/>
		<rect x="86.8" y="55.9" width="2.4" height="2.4"/>
		<rect x="13.1" y="58.3" width="2.4" height="2.4"/>
		<rect x="15.5" y="58.3" width="2.4" height="2.4"/>
		<rect x="17.9" y="58.3" width="2.4" height="2.4"/>
		<rect x="20.3" y="58.3" width="2.4" height="2.4"/>
		<rect x="22.7" y="58.3" width="2.4" height="2.4"/>
		<rect x="25" y="58.3" width="2.4" height="2.4"/>
		<rect x="29.8" y="58.3" width="2.4" height="2.4"/>
		<rect x="34.5" y="58.3" width="2.4" height="2.4"/>
		<rect x="63.1" y="58.3" width="2.4" height="2.4"/>
		<rect x="65.4" y="58.3" width="2.4" height="2.4"/>
		<rect x="67.8" y="58.3" width="2.4" height="2.4"/>
		<rect x="70.2" y="58.3" width="2.4" height="2.4"/>
		<rect x="74.9" y="58.3" width="2.4" height="2.4"/>
		<rect x="77.3" y="58.3" width="2.4" height="2.4"/>
		<rect x="89.2" y="58.3" width="2.4" height="2.4"/>
		<rect x="91.6" y="58.3" width="2.4" height="2.4"/>
		<rect x="8.4" y="60.7" width="2.4" height="2.4"/>
		<rect x="10.8" y="60.7" width="2.4" height="2.4"/>
		<rect x="13.1" y="60.7" width="2.4" height="2.4"/>
		<rect x="25" y="60.7" width="2.4" height="2.4"/>
		<rect x="29.8" y="60.7" width="2.4" height="2.4"/>
		<rect x="34.5" y="60.7" width="2.4" height="2.4"/>
		<rect x="65.4" y="60.7" width="2.4" height="2.4"/>
		<rect x="74.9" y="60.7" width="2.4" height="2.4"/>
		<rect x="77.3" y="60.7" width="2.4" height="2.4"/>
		<rect x="79.7" y="60.7" width="2.4" height="2.4"/>
		<rect x="89.2" y="60.7" width="2.4" height="2.4"/>
		<rect x="6" y="63" width="2.4" height="2.4"/>
		<rect x="8.4" y="63" width="2.4" height="2.4"/>
		<rect x="10.8" y="63" width="2.4" height="2.4"/>
		<rect x="13.1" y="63" width="2.4" height="2.4"/>
		<rect x="15.5" y="63" width="2.4" height="2.4"/>
		<rect x="20.3" y="63" width="2.4" height="2.4"/>
		<rect x="22.7" y="63" width="2.4" height="2.4"/>
		<rect x="27.4" y="63" width="2.4" height="2.4"/>
		<rect x="36.9" y="63" width="2.4" height="2.4"/>
		<rect x="41.7" y="63" width="2.4" height="2.4"/>
		<rect x="44" y="63" width="2.4" height="2.4"/>
		<rect x="46.4" y="63" width="2.4" height="2.4"/>
		<rect x="53.5" y="63" width="2.4" height="2.4"/>
		<rect x="55.9" y="63" width="2.4" height="2.4"/>
		<rect x="58.3" y="63" width="2.4" height="2.4"/>
		<rect x="60.7" y="63" width="2.4" height="2.4"/>
		<rect x="63.1" y="63" width="2.4" height="2.4"/>
		<rect x="67.8" y="63" width="2.4" height="2.4"/>
		<rect x="74.9" y="63" width="2.4" height="2.4"/>
		<rect x="77.3" y="63" width="2.4" height="2.4"/>
		<rect x="79.7" y="63" width="2.4" height="2.4"/>
		<rect x="82.1" y="63" width="2.4" height="2.4"/>
		<rect x="84.4" y="63" width="2.4" height="2.4"/>
		<rect x="86.8" y="63" width="2.4" height="2.4"/>
		<rect x="91.6" y="63" width="2.4" height="2.4"/>
		<rect x="6" y="65.4" width="2.4" height="2.4"/>
		<rect x="15.5" y="65.4" width="2.4" height="2.4"/>
		<rect x="27.4" y="65.4" width="2.4" height="2.4"/>
		<rect x="39.3" y="65.4" width="2.4" height="2.4"/>
		<rect x="46.4" y="65.4" width="2.4" height="2.4"/>
		<rect x="48.8" y="65.4" width="2.4" height="2.4"/>
		<rect x="51.2" y="65.4" width="2.4" height="2.4"/>
		<rect x="53.5" y="65.4" width="2.4" height="2.4"/>
		<rect x="55.9" y="65.4" width="2.4" height="2.4"/>
		<rect x="58.3" y="65.4" width="2.4" height="2.4"/>
		<rect x="72.6" y="65.4" width="2.4" height="2.4"/>
		<rect x="74.9" y="65.4" width="2.4" height="2.4"/>
		<rect x="79.7" y="65.4" width="2.4" height="2.4"/>
		<rect x="89.2" y="65.4" width="2.4" height="2.4"/>
		<rect x="6" y="67.8" width="2.4" height="2.4"/>
		<rect x="10.8" y="67.8" width="2.4" height="2.4"/>
		<rect x="13.1" y="67.8" width="2.4" height="2.4"/>
		<rect x="15.5" y="67.8" width="2.4" height="2.4"/>
		<rect x="17.9" y="67.8" width="2.4" height="2.4"/>
		<rect x="20.3" y="67.8" width="2.4" height="2.4"/>
		<rect x="27.4" y="67.8" width="2.4" height="2.4"/>
		<rect x="29.8" y="67.8" width="2.4" height="2.4"/>
		<rect x="34.5" y="67.8" width="2.4" height="2.4"/>
		<rect x="44" y="67.8" width="2.4" height="2.4"/>
		<rect x="51.2" y="67.8" width="2.4" height="2.4"/>
		<rect x="55.9" y="67.8" width="2.4" height="2.4"/>
		<rect x="60.7" y="67.8" width="2.4" height="2.4"/>
		<rect x="63.1" y="67.8" width="2.4" height="2.4"/>
		<rect x="65.4" y="67.8" width="2.4" height="2.4"/>
		<rect x="67.8" y="67.8" width="2.4" height="2.4"/>
		<rect x="70.2" y="67.8" width="2.4" height="2.4"/>
		<rect x="77.3" y="67.8" width="2.4" height="2.4"/>
		<rect x="79.7" y="67.8" width="2.4" height="2.4"/>
		<rect x="82.1" y="67.8" width="2.4" height="2.4"/>
		<rect x="89.2" y="67.8" width="2.4" height="2.4"/>
		<rect x="91.6" y="67.8" width="2.4" height="2.4"/>
		<rect x="6" y="70.2" width="2.4" height="2.4"/>
		<rect x="10.8" y="70.2" width="2.4" height="2.4"/>
		<rect x="15.5" y="70.2" width="2.4" height="2.4"/>
		<rect x="17.9" y="70.2" width="2.4" height="2.4"/>
		<rect x="22.7" y="70.2" width="2.4" height="2.4"/>
		<rect x="27.4" y="70.2" width="2.4" height="2.4"/>
		<rect x="34.5" y="70.2" width="2.4" height="2.4"/>
		<rect x="39.3" y="70.2" width="2.4" height="2.4"/>
		<rect x="44" y="70.2" width="2.4" height="2.4"/>
		<rect x="48.8" y="70.2" width="2.4" height="2.4"/>
		<rect x="51.2" y="70.2" width="2.4" height="2.4"/>
		<rect x="53.5" y="70.2" width="2.4" height="2.4"/>
		<rect x="60.7" y="70.2" width="2.4" height="2.4"/>
		<rect x="67.8" y="70.2" width="2.4" height="2.4"/>
		<rect x="74.9" y="70.2" width="2.4" height="2.4"/>
		<rect x="79.7" y="70.2" width="2.4" height="2.4"/>
		<rect x="82.1" y="70.2" width="2.4" height="2.4"/>
		<rect x="84.4" y="70.2" width="2.4" height="2.4"/>
		<rect x="6" y="72.5" width="2.4" height="2.4"/>
		<rect x="15.5" y="72.5" width="2.4" height="2.4"/>
		<rect x="17.9" y="72.5" width="2.4" height="2.4"/>
		<rect x="20.3" y="72.5" width="2.4" height="2.4"/>
		<rect x="22.7" y="72.5" width="2.4" height="2.4"/>
		<rect x="25" y="72.5" width="2.4" height="2.4"/>
		<rect x="29.8" y="72.5" width="2.4" height="2.4"/>
		<rect x="32.2" y="72.5" width="2.4" height="2.4"/>
		<rect x="34.5" y="72.5" width="2.4" height="2.4"/>
		<rect x="36.9" y="72.5" width="2.4" height="2.4"/>
		<rect x="39.3" y="72.5" width="2.4" height="2.4"/>
		<rect x="41.7" y="72.5" width="2.4" height="2.4"/>
		<rect x="48.8" y="72.5" width="2.4" height="2.4"/>
		<rect x="53.5" y="72.5" width="2.4" height="2.4"/>
		<rect x="55.9" y="72.5" width="2.4" height="2.4"/>
		<rect x="58.3" y="72.5" width="2.4" height="2.4"/>
		<rect x="60.7" y="72.5" width="2.4" height="2.4"/>
		<rect x="63.1" y="72.5" width="2.4" height="2.4"/>
		<rect x="65.4" y="72.5" width="2.4" height="2.4"/>
		<rect x="67.8" y="72.5" width="2.4" height="2.4"/>
		<rect x="70.2" y="72.5" width="2.4" height="2.4"/>
		<rect x="72.6" y="72.5" width="2.4" height="2.4"/>
		<rect x="74.9" y="72.5" width="2.4" height="2.4"/>
		<rect x="77.3" y="72.5" width="2.4" height="2.4"/>
		<rect x="79.7" y="72.5" width="2.4" height="2.4"/>
		<rect x="82.1" y="72.5" width="2.4" height="2.4"/>
		<rect x="84.4" y="72.5" width="2.4" height="2.4"/>
		<rect x="86.8" y="72.5" width="2.4" height="2.4"/>
		<rect x="89.2" y="72.5" width="2.4" height="2.4"/>
		<rect x="91.6" y="72.5" width="2.4" height="2.4"/>
		<rect x="25" y="74.9" width="2.4" height="2.4"/>
		<rect x="29.8" y="74.9" width="2.4" height="2.4"/>
		<rect x="32.2" y="74.9" width="2.4" height="2.4"/>
		<rect x="34.5" y="74.9" width="2.4" height="2.4"/>
		<rect x="39.3" y="74.9" width="2.4" height="2.4"/>
		<rect x="60.7" y="74.9" width="2.4" height="2.4"/>
		<rect x="65.4" y="74.9" width="2.4" height="2.4"/>
		<rect x="72.6" y="74.9" width="2.4" height="2.4"/>
		<rect x="82.1" y="74.9" width="2.4" height="2.4"/>
		<rect x="27.4" y="77.3" width="2.4" height="2.4"/>
		<rect x="29.8" y="77.3" width="2.4" height="2.4"/>
		<rect x="32.2" y="77.3" width="2.4" height="2.4"/>
		<rect x="46.4" y="77.3" width="2.4" height="2.4"/>
		<rect x="51.2" y="77.3" width="2.4" height="2.4"/>
		<rect x="53.5" y="77.3" width="2.4" height="2.4"/>
		<rect x="55.9" y="77.3" width="2.4" height="2.4"/>
		<rect x="58.3" y="77.3" width="2.4" height="2.4"/>
		<rect x="65.4" y="77.3" width="2.4" height="2.4"/>
		<rect x="67.8" y="77.3" width="2.4" height="2.4"/>
		<rect x="72.6" y="77.3" width="2.4" height="2.4"/>
		<rect x="77.3" y="77.3" width="2.4" height="2.4"/>
		<rect x="82.1" y="77.3" width="2.4" height="2.4"/>
		<rect x="84.4" y="77.3" width="2.4" height="2.4"/>
		<rect x="91.6" y="77.3" width="2.4" height="2.4"/>
		<rect x="27.4" y="79.7" width="2.4" height="2.4"/>
		<rect x="34.5" y="79.7" width="2.4" height="2.4"/>
		<rect x="51.2" y="79.7" width="2.4" height="2.4"/>
		<rect x="53.5" y="79.7" width="2.4" height="2.4"/>
		<rect x="55.9" y="79.7" width="2.4" height="2.4"/>
		<rect x="63.1" y="79.7" width="2.4" height="2.4"/>
		<rect x="72.6" y="79.7" width="2.4" height="2.4"/>
		<rect x="82.1" y="79.7" width="2.4" height="2.4"/>
		<rect x="89.2" y="79.7" width="2.4" height="2.4"/>
		<rect x="25" y="82" width="2.4" height="2.4"/>
		<rect x="29.8" y="82" width="2.4" height="2.4"/>
		<rect x="34.5" y="82" width="2.4" height="2.4"/>
		<rect x="44" y="82" width="2.4" height="2.4"/>
		<rect x="48.8" y="82" width="2.4" height="2.4"/>
		<rect x="55.9" y="82" width="2.4" height="2.4"/>
		<rect x="60.7" y="82" width="2.4" height="2.4"/>
		<rect x="65.4" y="82" width="2.4" height="2.4"/>
		<rect x="67.8" y="82" width="2.4" height="2.4"/>
		<rect x="70.2" y="82" width="2.4" height="2.4"/>
		<rect x="72.6" y="82" width="2.4" height="2.4"/>
		<rect x="74.9" y="82" width="2.4" height="2.4"/>
		<rect x="77.3" y="82" width="2.4" height="2.4"/>
		<rect x="79.7" y="82" width="2.4" height="2.4"/>
		<rect x="82.1" y="82" width="2.4" height="2.4"/>
		<rect x="86.8" y="82" width="2.4" height="2.4"/>
		<rect x="89.2" y="82" width="2.4" height="2.4"/>
		<rect x="25" y="84.4" width="2.4" height="2.4"/>
		<rect x="36.9" y="84.4" width="2.4" height="2.4"/>
		<rect x="39.3" y="84.4" width="2.4" height="2.4"/>
		<rect x="44" y="84.4" width="2.4" height="2.4"/>
		<rect x="58.3" y="84.4" width="2.4" height="2.4"/>
		<rect x="63.1" y="84.4" width="2.4" height="2.4"/>
		<rect x="70.2" y="84.4" width="2.4" height="2.4"/>
		<rect x="72.6" y="84.4" width="2.4" height="2.4"/>
		<rect x="77.3" y="84.4" width="2.4" height="2.4"/>
		<rect x="82.1" y="84.4" width="2.4" height="2.4"/>
		<rect x="84.4" y="84.4" width="2.4" height="2.4"/>
		<rect x="86.8" y="84.4" width="2.4" height="2.4"/>
		<rect x="25" y="86.8" width="2.4" height="2.4"/>
		<rect x="32.2" y="86.8" width="2.4" height="2.4"/>
		<rect x="34.5" y="86.8" width="2.4" height="2.4"/>
		<rect x="41.7" y="86.8" width="2.4" height="2.4"/>
		<rect x="46.4" y="86.8" width="2.4" height="2.4"/>
		<rect x="48.8" y="86.8" width="2.4" height="2.4"/>
		<rect x="53.5" y="86.8" width="2.4" height="2.4"/>
		<rect x="65.4" y="86.8" width="2.4" height="2.4"/>
		<rect x="72.6" y="86.8" width="2.4" height="2.4"/>
		<rect x="74.9" y="86.8" width="2.4" height="2.4"/>
		<rect x="79.7" y="86.8" width="2.4" height="2.4"/>
		<rect x="84.4" y="86.8" width="2.4" height="2.4"/>
		<rect x="91.6" y="86.8" width="2.4" height="2.4"/>
		<rect x="27.4" y="89.2" width="2.4" height="2.4"/>
		<rect x="29.8" y="89.2" width="2.4" height="2.4"/>
		<rect x="32.2" y="89.2" width="2.4" height="2.4"/>
		<rect x="34.5" y="89.2" width="2.4" height="2.4"/>
		<rect x="41.7" y="89.2" width="2.4" height="2.4"/>
		<rect x="46.4" y="89.2" width="2.4" height="2.4"/>
		<rect x="51.2" y="89.2" width="2.4" height="2.4"/>
		<rect x="53.5" y="89.2" width="2.4" height="2.4"/>
		<rect x="55.9" y="89.2" width="2.4" height="2.4"/>
		<rect x="63.1" y="89.2" width="2.4" height="2.4"/>
		<rect x="67.8" y="89.2" width="2.4" height="2.4"/>
		<rect x="70.2" y="89.2" width="2.4" height="2.4"/>
		<rect x="72.6" y="89.2" width="2.4" height="2.4"/>
		<rect x="77.3" y="89.2" width="2.4" height="2.4"/>
		<rect x="91.6" y="89.2" width="2.4" height="2.4"/>
		<rect x="29.8" y="91.6" width="2.4" height="2.4"/>
		<rect x="39.3" y="91.6" width="2.4" height="2.4"/>
		<rect x="44" y="91.6" width="2.4" height="2.4"/>
		<rect x="46.4" y="91.6" width="2.4" height="2.4"/>
		<rect x="51.2" y="91.6" width="2.4" height="2.4"/>
		<rect x="53.5" y="91.6" width="2.4" height="2.4"/>
		<rect x="65.4" y="91.6" width="2.4" height="2.4"/>
		<rect x="67.8" y="91.6" width="2.4" height="2.4"/>
		<rect x="77.3" y="91.6" width="2.4" height="2.4"/>
		<rect x="79.7" y="91.6" width="2.4" height="2.4"/>
		<rect x="84.4" y="91.6" width="2.4" height="2.4"/>
		<rect x="86.8" y="91.6" width="2.4" height="2.4"/>
		<rect x="89.2" y="91.6" width="2.4" height="2.4"/>
		<rect x="91.6" y="91.6" width="2.4" height="2.4"/>
		<path d="M6,6v16.6h16.6V6H6L6,6z M20.3,20.3H8.4V8.4h11.9V20.3L20.3,20.3z"/>
		<path d="M77.3,6v16.6h16.6V6H77.3L77.3,6z M91.6,20.3H79.7V8.4h11.9V20.3L91.6,20.3z"/>
		<path d="M6,77.3v16.6h16.6V77.3H6L6,77.3z M20.3,91.6H8.4V79.7h11.9V91.6L20.3,91.6z"/>
		<rect x="10.8" y="10.8" width="7.1" height="7.1"/>
		<rect x="82.1" y="10.8" width="7.1" height="7.1"/>
		<rect x="10.8" y="82" width="7.1" height="7.1"/>
		<g>
			<defs>
				<rect id="SVGID_00000146462256487331149670000017388382897192719270_" x="30.4" y="30.4" width="39.2" height="39.2"/>
			</defs>
			<clipPath id="SVGID_00000004536355258703828090000005851390203517072772_">
				<use xlink:href="#SVGID_00000146462256487331149670000017388382897192719270_"  style="overflow:visible;"/>
			</clipPath>
			<path style="clip-path:url(#SVGID_00000004536355258703828090000005851390203517072772_);fill:#FFFFFF;" d="M59.7,30.4H40.2
				c-5.4,0-9.9,4.4-9.9,9.9v19.5c0,5.4,4.4,9.9,9.9,9.9h19.5c5.4,0,9.9-4.4,9.9-9.9V40.2C69.6,34.8,65.2,30.4,59.7,30.4L59.7,30.4z"
				/>
		</g>
		<path class="st2" d="M59.7,32.4c4.3,0,7.8,3.5,7.8,7.8v19.5c0,4.3-3.5,7.8-7.8,7.8H40.2c-4.3,0-7.8-3.5-7.8-7.8V40.2
			c0-4.3,3.5-7.8,7.8-7.8H59.7"/>
	</g>
	<g>
		<g>
			<circle class="st3" cx="51.4" cy="59.9" r="1.7"/>
			<path class="st3" d="M49.8,57.5c-0.4,0-0.8-0.1-1-0.3c-0.2-0.2-0.3-0.5-0.3-0.8c0-0.3,0.1-0.6,0.3-0.8c0.3-0.2,0.6-0.3,1-0.3h8.4
				v-0.6c0-0.4,0.1-0.6,0.2-0.9l-8.3,0.6c-0.4,0-0.8-0.1-1.1-0.2c-0.3-0.3-0.5-0.5-0.5-0.8c0-0.4,0.1-0.7,0.3-1
				c0.3-0.3,0.6-0.4,1.1-0.4l4.7-0.3v-1.2h-3.5c-0.5,0-1-0.2-1.2-0.5c-0.4-0.4-0.5-0.9-0.5-1.3v-5.3c0-0.4,0.2-0.8,0.5-1.1
				c0.4-0.3,0.8-0.5,1.2-0.5h3.5v-0.9h-4.7c-0.4,0-0.8-0.1-1-0.3c-0.2-0.2-0.3-0.5-0.3-0.8c0-0.3,0.1-0.6,0.3-0.8
				c0.3-0.2,0.6-0.3,1-0.3h4.7v-0.8c0-0.5,0.1-0.8,0.4-1c0.3-0.2,0.7-0.4,1.1-0.4c0.4,0,0.8,0.1,1.1,0.4c0.3,0.3,0.5,0.6,0.5,1v0.8
				h4.8c0.4,0,0.7,0.1,0.9,0.3c0.2,0.2,0.3,0.5,0.3,0.8c0,0.3-0.1,0.6-0.3,0.8c-0.2,0.2-0.5,0.4-0.9,0.4h-4.8v0.9h3.3
				c0.6,0,1.1,0.1,1.5,0.5c0.3,0.3,0.5,0.6,0.5,1.1v5.3c0,0.4-0.2,0.8-0.5,1.1c0.2,0.1,0.4,0.2,0.5,0.4c1.4,1.8,2,3,1.8,3.8
				c-0.1,0.3-0.4,0.5-0.7,0.6c-0.4,0.1-0.7,0.1-1,0c-0.2-0.1-0.5-0.5-1-1.1l-1.3,0.1c0.3,0.3,0.4,0.6,0.4,1v0.6h2.2
				c0.4,0,0.7,0.1,0.9,0.3c0.2,0.2,0.3,0.5,0.3,0.8c0,0.3-0.1,0.6-0.3,0.8c-0.2,0.2-0.5,0.4-0.9,0.4h-2.2v3c0,1.2-0.6,2.2-1.6,2.8
				c-0.7,0.4-1.7,0.5-3.3,0.4c-1.6-0.1-2.6-0.5-3-1.1c-0.2-0.3-0.2-0.7-0.1-1c0.4-0.9,1.1-1.2,2.1-0.9c1.5,0.2,2.2,0.3,2.5,0
				c0.3-0.2,0.4-0.5,0.3-0.9v-2.3H49.8z M54.6,43.8h-2.1c-0.1,0-0.3,0.1-0.3,0.1C52,44,52,44.1,52,44.3V45h2.6V43.8z M54.6,47H52
				v0.7c0,0.1,0,0.2,0.1,0.3c0.1,0.1,0.2,0.1,0.3,0.1h2.1V47z M57.8,45h2.7v-0.7c0-0.1,0-0.2-0.1-0.3c-0.1-0.1-0.2-0.1-0.3-0.1h-2.3
				V45z M57.8,48.1H60c0.1,0,0.3-0.1,0.3-0.1c0.1-0.1,0.1-0.2,0.1-0.3V47h-2.7V48.1z M60.7,50.3h-3v1l3.1-0.3
				C60.7,50.9,60.7,50.6,60.7,50.3L60.7,50.3z"/>
		</g>
		<g>
			<path class="st3" d="M36.7,40.7c-0.4,0-0.8-0.1-1-0.3c-0.2-0.2-0.3-0.5-0.3-0.8c0-0.3,0.1-0.6,0.3-0.8c0.3-0.2,0.6-0.3,1-0.3H40
				v-0.8c0-0.5,0.1-0.8,0.4-1c0.3-0.2,0.7-0.4,1.1-0.4c0.4,0,0.8,0.1,1.1,0.4c0.3,0.3,0.5,0.6,0.5,1v0.8h6.6c0.4,0,0.7,0.1,0.9,0.3
				c0.2,0.2,0.3,0.5,0.3,0.8c0,0.3-0.1,0.6-0.3,0.8c-0.2,0.2-0.5,0.4-0.9,0.4H36.7z"/>
			<path class="st3" d="M49.7,55.2c0.4,0,0.8,0.1,1,0.3c0.2,0.2,0.3,0.5,0.3,0.8c0,0.3-0.1,0.6-0.3,0.8c-0.3,0.2-0.6,0.3-1,0.3h-6.9
				v2.4c0,0.5-0.1,0.8-0.4,1c-0.3,0.2-0.7,0.4-1.1,0.4c-0.4,0-0.8-0.1-1.1-0.4c-0.3-0.3-0.5-0.6-0.5-1v-2.4h-3.4
				c-0.4,0-0.7-0.1-0.9-0.3C35.1,57,35,56.7,35,56.3c0-0.3,0.1-0.6,0.3-0.8c0.2-0.2,0.5-0.4,0.9-0.4H49.7z"/>
		</g>
		<g>
			<path class="st4" d="M41.5,55.5c0.3,0,0.5-0.2,0.6-0.4c0-0.1,0-0.2,0-0.2v-1.1c0,0,0.1,0,0.1,0c1,0,1.9-0.2,2.8-0.7
				c2.3-1.2,3.5-3.8,3.1-6.3c-0.1-0.8-0.9-1.3-1.7-1.2c-0.8,0.1-1.3,0.9-1.2,1.7c0.2,1.3-0.4,2.6-1.6,3.2c-0.5,0.3-1,0.4-1.6,0.4
				v-1.1c0-0.3-0.3-0.6-0.6-0.6c-0.1,0-0.3,0-0.4,0.1l-3.3,2.5c-0.4,0.4-0.4,0.8,0,1.2l3,2.2l0.3,0.3C41.2,55.5,41.3,55.5,41.5,55.5
				z"/>
			<path class="st4" d="M41.7,40.3c-0.3,0-0.5,0.2-0.6,0.4c0,0.1,0,0.2,0,0.2v1.1c0,0-0.1,0-0.1,0c-1,0-1.9,0.2-2.8,0.7
				c-2.3,1.2-3.5,3.8-3.1,6.3c0.1,0.8,0.9,1.3,1.7,1.2c0.8-0.1,1.3-0.9,1.2-1.7c-0.2-1.3,0.4-2.6,1.6-3.2c0.5-0.3,1-0.4,1.6-0.4v1.1
				c0,0.3,0.3,0.6,0.6,0.6c0.1,0,0.3,0,0.4-0.1l3.3-2.5c0.4-0.4,0.4-0.8,0-1.2l-3-2.2l-0.3-0.3C42,40.4,41.9,40.3,41.7,40.3z"/>
		</g>
	</g>
</g>
</svg>
