<svg xmlns="http://www.w3.org/2000/svg" viewBox="0 0 23.17 8.06"><defs><style>.cls-1{fill:#040000;}</style></defs><g id="圖層_2" data-name="圖層 2"><g id="圖層_1-2" data-name="圖層 1"><path class="cls-1" d="M4,5.62v.25a4.36,4.36,0,0,1,0,.51,2.1,2.1,0,0,1-.1.51,1.76,1.76,0,0,1-.22.46,1.37,1.37,0,0,1-.35.37A1.68,1.68,0,0,1,2.73,8,2.73,2.73,0,0,1,2,8.06,2.91,2.91,0,0,1,1.22,8a1.94,1.94,0,0,1-.54-.26,1.44,1.44,0,0,1-.35-.39,1.89,1.89,0,0,1-.21-.48A3,3,0,0,1,0,6.3c0-.18,0-.37,0-.56V2.33a5.49,5.49,0,0,1,0-.58,2.35,2.35,0,0,1,.1-.54A2.06,2.06,0,0,1,.34.73,1.33,1.33,0,0,1,.7.34,1.74,1.74,0,0,1,1.23.09,2.78,2.78,0,0,1,2,0a2.75,2.75,0,0,1,.75.09,1.94,1.94,0,0,1,.54.26,1.27,1.27,0,0,1,.36.37,2.11,2.11,0,0,1,.21.46,2.75,2.75,0,0,1,.09.5,4.63,4.63,0,0,1,0,.51v.24H3.09V2.19a3.31,3.31,0,0,0,0-.55,1.31,1.31,0,0,0-.14-.46A.85.85,0,0,0,2.57.87,1.22,1.22,0,0,0,2,.75,1.21,1.21,0,0,0,1.4.87a.77.77,0,0,0-.33.34,1.28,1.28,0,0,0-.15.5,4,4,0,0,0,0,.62v3.4a5.74,5.74,0,0,0,0,.6A1.59,1.59,0,0,0,1,6.84a.86.86,0,0,0,.34.34A1.15,1.15,0,0,0,2,7.31a1.14,1.14,0,0,0,.56-.11.85.85,0,0,0,.34-.31,1.25,1.25,0,0,0,.16-.46,4.78,4.78,0,0,0,0-.57V5.62Z"/><path class="cls-1" d="M5.19,8V.09h.88V8Z"/><path class="cls-1" d="M11.36,5.62v.25a4.36,4.36,0,0,1,0,.51,2.1,2.1,0,0,1-.1.51,2.15,2.15,0,0,1-.22.46,1.37,1.37,0,0,1-.35.37,1.68,1.68,0,0,1-.54.25,2.75,2.75,0,0,1-.75.09A2.88,2.88,0,0,1,8.61,8a1.94,1.94,0,0,1-.54-.26,1.44,1.44,0,0,1-.35-.39,1.89,1.89,0,0,1-.21-.48,3,3,0,0,1-.1-.54c0-.18,0-.37,0-.56V2.33a5.49,5.49,0,0,1,0-.58,2.35,2.35,0,0,1,.1-.54A2.06,2.06,0,0,1,7.73.73,1.33,1.33,0,0,1,8.09.34,1.74,1.74,0,0,1,8.62.09,2.75,2.75,0,0,1,9.37,0a2.78,2.78,0,0,1,.76.09,1.94,1.94,0,0,1,.54.26A1.41,1.41,0,0,1,11,.72a1.69,1.69,0,0,1,.2.46,2.11,2.11,0,0,1,.1.5,4.63,4.63,0,0,1,0,.51v.24h-.88V2.19a3.31,3.31,0,0,0,0-.55,1.14,1.14,0,0,0-.15-.46A.77.77,0,0,0,10,.87,1.23,1.23,0,0,0,9.37.75a1.19,1.19,0,0,0-.58.12.86.86,0,0,0-.34.34,1.47,1.47,0,0,0-.14.5,4,4,0,0,0,0,.62v3.4a5.74,5.74,0,0,0,0,.6,1.59,1.59,0,0,0,.13.51.9.9,0,0,0,.33.34,1.18,1.18,0,0,0,.61.13,1.16,1.16,0,0,0,.57-.11.85.85,0,0,0,.34-.31,1.25,1.25,0,0,0,.16-.46,4.78,4.78,0,0,0,0-.57V5.62Z"/><path class="cls-1" d="M12.58,8V.09h.88V8Z"/><path class="cls-1" d="M14.53,8v-.7L17.28.84h-2.6V.1h3.59V.77L15.49,7.23h2.76V8Z"/><path class="cls-1" d="M22.27,8l-.34-1.76H19.78L19.44,8h-.89L20.22.09h1.27L23.17,8ZM19.92,5.5h1.87L20.87.82h0Z"/></g></g></svg>