<?xml version="1.0" encoding="utf-8"?>
<!-- Generator: Adobe Illustrator 26.0.2, SVG Export Plug-In . SVG Version: 6.00 Build 0)  -->
<svg version="1.1" id="圖層_1" xmlns="http://www.w3.org/2000/svg" xmlns:xlink="http://www.w3.org/1999/xlink" x="0px" y="0px"
	 viewBox="0 0 30 28.5" style="enable-background:new 0 0 30 28.5;" xml:space="preserve">
<style type="text/css">
	.st0{fill:none;}
	.st1{fill:#FFFFFF;}
	.st2{fill-rule:evenodd;clip-rule:evenodd;fill:#FFFFFF;}
</style>
<g>
	<g>
		<polygon class="st0" points="5.27,19.45 20.33,19.45 23.34,8.2 2.8,8.2 		"/>
		<path class="st1" d="M25.45,0l-1.44,5.95H0L3.46,21.7h18.6l5.1-19.45H30V0H25.45z M20.33,19.45H5.27L2.8,8.2h20.54L20.33,19.45z"
			/>
	</g>
	<g>
		<g>
			<path class="st2" d="M7.73,24c-1.24,0-2.25,1.01-2.25,2.25c0,1.24,1.01,2.25,2.25,2.25s2.25-1.01,2.25-2.25
				C9.99,25.01,8.97,24,7.73,24z M18.19,24c-1.24,0-2.25,1.01-2.25,2.25c0,1.24,1.01,2.25,2.25,2.25s2.25-1.01,2.25-2.25
				C20.44,25.01,19.43,24,18.19,24z"/>
		</g>
	</g>
</g>
</svg>
