<?xml version="1.0" encoding="utf-8"?>
<!-- Generator: Adobe Illustrator 26.0.2, SVG Export Plug-In . SVG Version: 6.00 Build 0)  -->
<svg version="1.1" id="圖層_1" xmlns="http://www.w3.org/2000/svg" xmlns:xlink="http://www.w3.org/1999/xlink" x="0px" y="0px"
	 viewBox="0 0 56.8 26.23" style="enable-background:new 0 0 56.8 26.23;" xml:space="preserve">
<style type="text/css">
	.st0{fill:none;}
	.st1{fill:#FFFFFF;}
</style>
<g>
	<path class="st0" d="M51.92,6.24c0-2.69-2.19-4.87-4.87-4.87c-2.69,0-4.87,2.19-4.87,4.87c0,2.69,2.19,4.87,4.87,4.87
		C49.73,11.11,51.92,8.93,51.92,6.24z"/>
	<path class="st1" d="M56.67,14.78l-4.7-4.7c0.83-1.06,1.33-2.39,1.33-3.84c0-3.45-2.8-6.24-6.24-6.24C43.6,0,40.8,2.79,40.8,6.24
		c0,3.45,2.8,6.24,6.24,6.24c1.43,0,2.74-0.49,3.79-1.29l4.71,4.71c0.09,0.09,0.21,0.13,0.32,0.13c0.12,0,0.23-0.04,0.32-0.13
		l0.47-0.47c0.09-0.09,0.13-0.2,0.13-0.32C56.8,14.98,56.75,14.86,56.67,14.78z M42.17,6.24c0-2.69,2.19-4.87,4.87-4.87
		c2.69,0,4.87,2.19,4.87,4.87c0,2.69-2.19,4.87-4.87,4.87C44.36,11.11,42.17,8.93,42.17,6.24z"/>
</g>
<g>
	<path class="st1" d="M20.5,2.22c7.96,0,14.73,4.1,18.28,11.01c-3.55,6.91-10.31,11.01-18.28,11.01c-7.96,0-14.73-4.1-18.28-11.01
		C5.77,6.32,12.54,2.22,20.5,2.22 M20.5,0.22C11.13,0.22,3.61,5.4,0,13.23c3.61,7.82,11.12,13.01,20.5,13.01
		c9.38,0,16.89-5.18,20.5-13.01C37.39,5.4,29.88,0.22,20.5,0.22L20.5,0.22z"/>
	<path class="st1" d="M20.5,7.49c3.18,0,5.77,2.58,5.77,5.74c0,3.17-2.59,5.74-5.77,5.74c-3.18,0-5.77-2.58-5.77-5.74
		C14.73,10.06,17.32,7.49,20.5,7.49 M20.5,5.49c-4.29,0-7.77,3.47-7.77,7.74c0,4.28,3.48,7.74,7.77,7.74c4.29,0,7.77-3.47,7.77-7.74
		C28.27,8.95,24.79,5.49,20.5,5.49L20.5,5.49z"/>
</g>
</svg>
