<?xml version="1.0" encoding="utf-8"?>
<!-- Generator: Adobe Illustrator 27.6.1, SVG Export Plug-In . SVG Version: 6.00 Build 0)  -->
<svg version="1.1" id="圖層_5_拷貝" xmlns="http://www.w3.org/2000/svg" xmlns:xlink="http://www.w3.org/1999/xlink" x="0px"
	 y="0px" width="200px" height="70px" viewBox="0 0 200 70" style="enable-background:new 0 0 200 70;" xml:space="preserve">
<style type="text/css">
	.製作陰影{fill:none;}
	.圓角_x0020_2_x0020_點{fill:#FFFFFF;stroke:#231815;stroke-miterlimit:10;}
	.即時反射_x0020_X{fill:none;}
	.柔化斜角{fill:url(#SVGID_1_);}
	.黃昏{fill:#FFFFFF;}
	.葉子_GS{fill:#FFE100;}
	.高捲式髮型_GS{fill-rule:evenodd;clip-rule:evenodd;fill:#4CACE2;}
	.st0{fill:#FFFFFF;}
	.st1{fill:#FFF000;}
</style>
<linearGradient id="SVGID_1_" gradientUnits="userSpaceOnUse" x1="-149.7126" y1="-74.1954" x2="-149.0055" y2="-73.4883">
	<stop  offset="0" style="stop-color:#E6E7EA"/>
	<stop  offset="0.1747" style="stop-color:#E2E3E6"/>
	<stop  offset="0.3538" style="stop-color:#D6D7DA"/>
	<stop  offset="0.5349" style="stop-color:#C1C4C5"/>
	<stop  offset="0.7174" style="stop-color:#A4A8A8"/>
	<stop  offset="0.8993" style="stop-color:#808584"/>
	<stop  offset="1" style="stop-color:#686E6C"/>
</linearGradient>
<g>
	<g>
		<path class="st0" d="M29.8,13.1c0,6.7-5.4,12.1-12.1,12.1S5.5,19.8,5.5,13.1S10.9,1,17.6,1S29.8,6.4,29.8,13.1z M15.3,7l-4.9,10.7
			c-0.3,0.7,0.2,1.2,1.4,1.7c1.1,0.5,1.9,0.4,2.2-0.3l0.7-1.6h6l0.7,1.6c0.3,0.7,1,0.8,2.2,0.4c1.1-0.5,1.6-1.1,1.3-1.8L20,7
			c-0.7-1.2-1.5-1.9-2.4-1.9C16.8,5.2,16,5.8,15.3,7z M17.6,10.4l1.7,3.9H16L17.6,10.4z"/>
		<g>
			<rect x="5.5" y="27.7" class="st0" width="24.3" height="1.7"/>
			<rect x="5.5" y="67.1" class="st0" width="24.3" height="1.8"/>
		</g>
		<path class="st0" d="M28.6,68.9H6.7V27.7h21.8V68.9z M12.9,63.6v-1.4l1.1-1.9h-0.5l-0.5,0.9c-0.1,0.2-0.2,0.5-0.3,0.7h0
			c-0.1-0.2-0.2-0.4-0.3-0.7L12,60.3h-0.5l1,1.9v1.4H12.9z M14.7,63.4c0.2,0.1,0.5,0.2,0.8,0.2c0.8,0,1.1-0.4,1.1-0.9
			c0-0.5-0.3-0.7-0.8-1c-0.5-0.2-0.6-0.3-0.6-0.6c0-0.2,0.2-0.5,0.6-0.5c0.3,0,0.5,0.1,0.6,0.2l0.1-0.3c-0.1-0.1-0.4-0.2-0.7-0.2
			c-0.6,0-1.1,0.4-1.1,0.9c0,0.5,0.3,0.7,0.9,0.9c0.4,0.2,0.6,0.3,0.6,0.6c0,0.3-0.3,0.6-0.7,0.6c-0.3,0-0.6-0.1-0.8-0.2L14.7,63.4z
			 M17.7,63.6c0.2,0,0.5,0,0.8,0c0.6,0,1.1-0.2,1.4-0.5c0.3-0.3,0.5-0.7,0.5-1.3c0-0.5-0.2-0.9-0.5-1.2c-0.3-0.3-0.7-0.4-1.3-0.4
			c-0.3,0-0.6,0-0.9,0.1V63.6z M18.1,60.7c0.1,0,0.3,0,0.5,0c0.9,0,1.3,0.5,1.3,1.3c0,0.9-0.5,1.4-1.4,1.4c-0.2,0-0.3,0-0.4,0V60.7z
			 M21.9,63.6h0.4v-2.9h1v-0.4h-2.4v0.4h1V63.6z"/>
	</g>
	<g>
		<g>
			<path class="st1" d="M178.5,19c0.2-0.2,0.4-0.3,0.7-0.3c0.3,0,0.5,0.1,0.7,0.2c0.2,0.2,0.3,0.4,0.3,0.8c-0.1,3.3-0.3,5.6-0.5,7
				c0,0.3-0.2,0.6-0.4,0.7c-0.2,0.1-0.4,0.2-0.7,0.2c-0.3,0-0.5-0.2-0.6-0.4c-0.2-0.2-0.2-0.5-0.2-0.8c0.3-2,0.5-4.3,0.5-6.6
				C178.2,19.5,178.3,19.2,178.5,19z M178.9,18.2c-0.3,0-0.6-0.1-0.8-0.3c-0.2-0.2-0.3-0.4-0.3-0.8c0-0.3,0.1-0.5,0.3-0.7
				c0.2-0.2,0.4-0.3,0.8-0.3h5.3c0.3,0,0.6,0.1,0.7,0.3c0.2,0.2,0.3,0.4,0.3,0.8c0,0.3-0.1,0.5-0.3,0.7c-0.2,0.2-0.4,0.3-0.7,0.3
				h-1.8V29c0,0.3-0.1,0.6-0.3,0.8c-0.2,0.2-0.4,0.3-0.7,0.3c-0.3,0-0.5-0.1-0.7-0.3c-0.2-0.2-0.3-0.5-0.3-0.8V18.2H178.9z
				 M183.6,12.5c0.3,0,0.6,0.1,0.7,0.3c0.2,0.2,0.3,0.4,0.3,0.8c0,0.3-0.1,0.5-0.3,0.7c-0.2,0.2-0.4,0.3-0.7,0.3h-4.3
				c-0.3,0-0.6-0.1-0.8-0.3c-0.2-0.2-0.3-0.4-0.3-0.8c0-0.3,0.1-0.5,0.3-0.7c0.2-0.2,0.4-0.3,0.8-0.3H183.6z M184.8,25.4
				c0,0.3-0.1,0.6-0.3,0.8c-0.1,0.2-0.4,0.3-0.7,0.3c-0.3,0-0.5-0.1-0.7-0.2c-0.2-0.2-0.3-0.4-0.3-0.8l-0.3-5.7
				c0-0.3,0.1-0.6,0.2-0.8c0.2-0.2,0.4-0.3,0.7-0.3c0.3,0,0.6,0.1,0.8,0.2c0.2,0.2,0.3,0.5,0.3,0.8L184.8,25.4z M194.5,12.5
				c0.3,0,0.6,0.1,0.7,0.3c0.2,0.2,0.3,0.4,0.3,0.8c0,0.3-0.1,0.5-0.3,0.7c-0.2,0.2-0.4,0.3-0.7,0.3h-8.4c-0.3,0-0.6-0.1-0.8-0.3
				c-0.2-0.2-0.3-0.4-0.3-0.8c0-0.3,0.1-0.5,0.3-0.7c0.2-0.2,0.4-0.3,0.8-0.3H194.5z M186.5,29.7c-0.4,0-0.7-0.2-0.9-0.4
				c-0.3-0.3-0.4-0.6-0.4-1v-6.3c0-0.4,0.1-0.7,0.4-1c0.3-0.2,0.6-0.4,0.9-0.4h7.6c0.4,0,0.7,0.1,1,0.4c0.3,0.3,0.4,0.6,0.4,1v6.3
				c0,0.4-0.1,0.7-0.4,1c-0.3,0.3-0.6,0.4-1,0.4H186.5z M187,19.9c-0.4,0-0.6-0.1-0.8-0.3c-0.2-0.3-0.3-0.6-0.3-0.9v-2.2
				c0-0.3,0.1-0.6,0.3-0.8c0.2-0.2,0.5-0.3,0.8-0.3h6.6c0.4,0,0.7,0.1,0.9,0.4c0.2,0.2,0.3,0.5,0.3,0.8v2.2c0,0.3-0.1,0.6-0.4,0.9
				c-0.2,0.2-0.5,0.4-0.8,0.4H187z M189.3,22.6h-1.5c-0.1,0-0.3,0.1-0.4,0.1c-0.1,0.1-0.1,0.2-0.1,0.3v1h2V22.6z M189.3,26.1h-2v0.9
				c0,0.2,0,0.3,0.1,0.4c0.1,0.1,0.2,0.2,0.3,0.2h1.5V26.1z M188.3,17c-0.2,0-0.3,0-0.3,0.1c-0.1,0.1-0.1,0.2-0.1,0.3v0.3
				c0,0.1,0,0.3,0.1,0.3c0.1,0.1,0.2,0.1,0.3,0.1h4c0.1,0,0.2-0.1,0.3-0.1c0.1-0.1,0.1-0.2,0.1-0.3v-0.3c0-0.1,0-0.2-0.1-0.3
				c-0.1-0.1-0.2-0.1-0.3-0.1H188.3z M191.4,24.1h2v-1c0-0.2-0.1-0.3-0.2-0.4c-0.1-0.1-0.2-0.1-0.4-0.1h-1.5V24.1z M191.4,27.6h1.5
				c0.2,0,0.3-0.1,0.4-0.2c0.1-0.1,0.1-0.2,0.1-0.4v-0.9h-2V27.6z"/>
			<path class="st1" d="M184.5,48.3c0,0.4-0.1,0.6-0.3,0.9c-0.2,0.2-0.4,0.3-0.8,0.3c-0.3,0-0.6-0.1-0.8-0.3
				c-0.2-0.2-0.3-0.5-0.3-0.9v-6.8c0,0.1-0.1,0.1-0.1,0.2c-0.7,1.2-1.5,2.3-2.2,3.2c-0.3,0.3-0.6,0.5-0.9,0.5
				c-0.3,0-0.6-0.1-0.8-0.3c-0.2-0.2-0.4-0.5-0.4-0.8c0-0.3,0.1-0.6,0.4-1c1.4-1.6,2.6-3.2,3.5-5h-2.6c-0.3,0-0.6-0.1-0.8-0.3
				c-0.2-0.2-0.3-0.5-0.3-0.8c0-0.3,0.1-0.6,0.3-0.8c0.2-0.2,0.5-0.3,0.8-0.3h3.2v-1.8c-1.2,0.1-2.1,0.1-2.9,0.2
				c-0.3,0-0.6-0.1-0.8-0.3c-0.2-0.2-0.3-0.5-0.3-0.8c0-0.3,0.1-0.6,0.3-0.8c0.2-0.2,0.5-0.3,0.8-0.3c3.4-0.2,5.8-0.5,7.3-0.8
				c0.3-0.1,0.6,0,0.9,0.1c0.2,0.1,0.4,0.4,0.5,0.7c0.1,0.3,0.1,0.6-0.1,0.9c-0.1,0.3-0.3,0.4-0.7,0.5c-0.7,0.2-1.6,0.4-2.7,0.5v2.1
				h2.9c0.3,0,0.6,0.1,0.8,0.3c0.2,0.2,0.3,0.5,0.3,0.8c0,0.3-0.1,0.6-0.3,0.8c-0.2,0.2-0.5,0.3-0.8,0.3h-2.9
				c1.4,1.4,2.6,2.7,3.6,3.8c0.2,0.2,0.3,0.6,0.3,0.9c0,0.3-0.2,0.5-0.5,0.7c-0.3,0.2-0.5,0.3-0.8,0.2c-0.3,0-0.6-0.2-0.8-0.6
				c-0.5-0.7-1.1-1.4-1.8-2.3V48.3z M193.1,31.6c0.2-0.2,0.4-0.3,0.8-0.3c0.3,0,0.6,0.1,0.8,0.3c0.2,0.2,0.3,0.5,0.3,0.9v14.7
				c0,0.7-0.2,1.2-0.7,1.6c-0.5,0.4-1.5,0.6-2.9,0.5c-1.5-0.2-2.4-0.5-2.6-0.9c-0.1-0.3-0.1-0.5-0.1-0.8c0.3-0.7,0.8-0.9,1.5-0.7
				c1.3,0.3,2.1,0.3,2.4,0.1c0.1-0.1,0.2-0.3,0.2-0.5v-14C192.8,32.1,193,31.8,193.1,31.6z M191.1,44.4c0,0.4-0.1,0.6-0.3,0.9
				c-0.2,0.2-0.4,0.3-0.8,0.3c-0.3,0-0.6-0.1-0.8-0.3c-0.2-0.2-0.3-0.5-0.3-0.9V33.2c0-0.3,0.1-0.6,0.3-0.8c0.2-0.2,0.5-0.3,0.8-0.3
				c0.3,0,0.6,0.1,0.8,0.3c0.2,0.2,0.3,0.5,0.3,0.8V44.4z"/>
			<path class="st1" d="M182.3,67.7c0,0.3-0.1,0.6-0.3,0.8c-0.2,0.2-0.4,0.3-0.7,0.3c-0.3,0-0.5-0.1-0.7-0.3
				c-0.2-0.2-0.3-0.5-0.3-0.8v-3.9c0,0.1-0.1,0.2-0.1,0.3c-0.3,2.1-0.6,3.2-1,3.4c-0.2,0.1-0.4,0.2-0.7,0.1
				c-0.3-0.1-0.4-0.2-0.6-0.4c-0.1-0.2-0.1-0.5-0.1-0.8c0.1-0.5,0.3-1.5,0.6-2.9c0.2-1,0.3-1.5,0.5-1.7c0.2-0.2,0.4-0.2,0.7-0.2
				c0.3,0,0.5,0.2,0.7,0.3v-1.1L179,61c-0.3,0-0.6,0-0.8-0.2c-0.2-0.1-0.3-0.4-0.4-0.7c0-0.3,0-0.5,0.2-0.8c0.2-0.2,0.5-0.4,0.8-0.4
				h0.2c0.4-0.5,0.8-1,1.2-1.6c-0.6-0.7-1.2-1.3-1.8-1.8c-0.3-0.2-0.4-0.4-0.5-0.7c-0.1-0.2,0-0.5,0.1-0.8c0.2-0.2,0.4-0.4,0.6-0.4
				c0.2,0,0.4,0,0.6,0.1c0.3-0.7,0.6-1.5,0.8-2.3c0.1-0.3,0.3-0.5,0.6-0.6c0.2-0.1,0.5-0.1,0.8,0c0.3,0.1,0.4,0.3,0.6,0.6
				c0.1,0.5-0.3,1.7-1.3,3.7c0.2,0.1,0.3,0.3,0.5,0.5c0.4-0.8,0.7-1.5,1-2.3c0.1-0.3,0.3-0.5,0.6-0.7c0.2-0.1,0.5-0.1,0.8-0.1
				c0.3,0.1,0.5,0.3,0.6,0.5c0.1,0.3,0.1,0.6,0,0.9c-0.4,1-0.8,1.9-1.2,2.7c0.2,0,0.4,0,0.6,0c0.1,0,0.1,0.1,0.2,0.1
				c0.2,0.2,0.6,1.1,1,2.8V53c0-0.4,0.2-0.8,0.5-1.1c0.3-0.3,0.7-0.5,1.2-0.5h7.6c0.4,0,0.8,0.2,1.1,0.5c0.3,0.3,0.5,0.7,0.5,1.1
				v13.8c0,0.7-0.2,1.2-0.7,1.6c-0.6,0.4-1.8,0.6-3.6,0.4c-0.4-0.1-0.7-0.2-0.9-0.5c-0.1-0.3-0.2-0.6-0.1-0.9c0.2-0.7,0.7-1,1.4-0.9
				c0.7,0.2,1.2,0.2,1.4,0.1c0.2-0.1,0.3-0.4,0.3-0.8v-4.5h-3.9V63c0,0.1,0,0.3,0.1,0.3c0.1,0.1,0.2,0.1,0.3,0.1h2.1
				c0.3,0,0.6,0.1,0.8,0.3c0.2,0.2,0.3,0.4,0.3,0.7c0,0.3-0.1,0.5-0.3,0.7c-0.2,0.2-0.5,0.3-0.8,0.3h-3.4c-0.3,0-0.6-0.1-0.9-0.3
				c-0.2-0.3-0.4-0.6-0.4-0.9v-2.9h-0.7v6.5c0,0.3-0.1,0.6-0.3,0.8c-0.2,0.2-0.4,0.3-0.8,0.3c-0.3,0-0.6-0.1-0.8-0.3
				c-0.2-0.2-0.3-0.5-0.3-0.9v-2.3c-0.1,0.3-0.3,0.5-0.6,0.6c-0.3,0.1-0.5,0.1-0.7-0.1c-0.2-0.1-0.4-0.4-0.4-0.7l-0.6-2.2V67.7z
				 M182.1,57.8c-0.2,0.3-0.4,0.6-0.6,0.9l0.8-0.1c-0.1-0.3-0.1-0.5-0.2-0.6C182.1,57.9,182.1,57.8,182.1,57.8z M184.6,64.9v-4
				c0,0,0,0,0,0c-0.1,0.2-0.4,0.4-0.6,0.4c-0.3,0-0.5,0-0.7-0.1c-0.2-0.1-0.3-0.3-0.4-0.6l-0.6,0.1V62c0.1-0.2,0.3-0.3,0.5-0.3
				c0.3-0.1,0.5-0.1,0.7,0.1c0.2,0.1,0.4,0.4,0.4,0.7L184.6,64.9z M193.4,56.3v-2.2c0-0.2-0.1-0.3-0.2-0.5c-0.1-0.1-0.3-0.2-0.5-0.2
				h-5.3c-0.2,0-0.4,0.1-0.5,0.2c-0.1,0.1-0.2,0.3-0.1,0.5v2.2h1.2c-0.2-0.1-0.3-0.4-0.3-0.8c-0.3-0.7-0.4-1.1-0.4-1.3
				c0.1-0.2,0.2-0.4,0.5-0.6c0.2-0.1,0.5-0.2,0.7-0.1c0.4,0.1,0.8,0.7,1.1,1.7c0.1,0.4,0,0.7-0.2,1h0.9c0-0.2,0.1-0.3,0.2-0.4
				c0.5-1.4,0.9-2.1,1.1-2.2c0.2-0.1,0.5-0.2,0.8-0.1c0.3,0.1,0.5,0.2,0.6,0.5l0,0.1c0.1,0.3,0,1-0.4,2.1H193.4z M188.9,59.4v-1.2
				h-2.2v1.2H188.9z M193.4,59.4v-1.2H191v1.2H193.4z"/>
		</g>
	</g>
	<g>
		<path class="st0" d="M130.1,50c-0.9,0.9-2.1,1.4-3.8,1.4h-11.6c-1.7,0-3-0.4-3.8-1.2c-1-0.9-1.5-2.2-1.5-4.1V12.7
			c0-1.5,0.4-2.6,1.2-3.5c0.8-1,2-1.5,3.6-1.5h12.3c1.6,0,2.9,0.5,3.8,1.5c0.8,1,1.2,2.3,1.2,3.9v33.2C131.4,47.9,131,49.1,130.1,50
			z M122.2,15c0-0.5-0.3-0.7-0.9-0.7h-1.8c-0.2,0-0.4,0.1-0.5,0.2c-0.2,0.1-0.3,0.3-0.3,0.5v5.1h3.5V15z M122.2,26.2h-3.5v6.4h3.5
			V26.2z M122.2,38.5h-3.5v5.6c0,0.2,0.1,0.4,0.3,0.6c0.2,0.1,0.4,0.2,0.5,0.2h1.8c0.6,0,0.9-0.3,0.9-0.8V38.5z"/>
		<g>
			<g>
				<circle class="st0" cx="126.4" cy="59.8" r="6.1"/>
			</g>
			<path class="st0" d="M107.8,68.9c-1,0-1.9-0.3-2.8-0.9c-2.2-1.5-2.7-4.6-1.2-6.8l7-9.9c1.5-2.2,4.6-2.7,6.8-1.2
				c2.2,1.5,2.7,4.6,1.2,6.8l-7,9.9C110.8,68.2,109.3,68.9,107.8,68.9z"/>
		</g>
		<g>
			<g>
				<path class="st0" d="M168.8,26.1h-31.5c-1.5,0-2.7-1.2-2.7-2.7s1.2-2.7,2.7-2.7h31.5c1.5,0,2.7,1.2,2.7,2.7
					S170.3,26.1,168.8,26.1z"/>
				<g>
					<path class="st0" d="M170,34.3h-34c-1.5,0-2.7-1.2-2.7-2.7s1.2-2.7,2.7-2.7h34c1.5,0,2.7,1.2,2.7,2.7S171.5,34.3,170,34.3z"/>
					<path class="st0" d="M170,18h-34c-1.5,0-2.7-1.2-2.7-2.7s1.2-2.7,2.7-2.7h34c1.5,0,2.7,1.2,2.7,2.7S171.5,18,170,18z"/>
				</g>
			</g>
			<path class="st0" d="M144.8,34.3c-2.7,0-4.9-2.2-4.9-4.9V11.3c0-2.7,2.2-4.9,4.9-4.9c2.7,0,4.9,2.2,4.9,4.9v18.2
				C149.7,32.2,147.5,34.3,144.8,34.3z"/>
			<path class="st0" d="M161.2,34.3c-2.7,0-4.9-2.2-4.9-4.9V11.3c0-2.7,2.2-4.9,4.9-4.9c2.7,0,4.9,2.2,4.9,4.9v18.2
				C166,32.2,163.9,34.3,161.2,34.3z"/>
		</g>
		<g>
			<circle class="st0" cx="88.4" cy="61.6" r="7.3"/>
		</g>
		<path class="st0" d="M99.4,20.8c-0.9,0.9-2.1,1.4-3.7,1.4h-48c-1.7,0-3-0.4-3.8-1.3c-1-0.9-1.4-2.3-1.4-4.2v-5.3
			c0-1.5,0.4-2.7,1.1-3.6c0.8-1,2-1.5,3.5-1.5h48.6c1.6,0,2.9,0.5,3.7,1.6c0.8,1,1.2,2.3,1.2,4v5.2C100.7,18.7,100.3,19.9,99.4,20.8
			z M89.4,15.8v-2.9c0-0.5-0.4-1-1-1H54.8c-0.5,0-1,0.4-1,1v2.9c0,0.5,0.4,1,1,1h33.7C89,16.8,89.4,16.3,89.4,15.8z"/>
		<path class="st0" d="M101.2,54c-0.9,0.9-2.1,1.4-3.8,1.4H46c-1.7,0-3-0.4-3.8-1.3c-1-0.9-1.4-2.3-1.4-4.2V30.2
			c0-1.5,0.4-2.7,1.2-3.6c0.8-1,2-1.5,3.5-1.5h52.2c1.6,0,2.9,0.5,3.8,1.6c0.8,1,1.2,2.3,1.2,4v19.7C102.5,51.9,102.1,53.1,101.2,54
			z M91,33.7v-1.4c0-0.4-0.4-0.8-0.8-0.8H53c-0.4,0-0.8,0.4-0.8,0.8v1.4c0,0.4,0.4,0.8,0.8,0.8h37.2C90.7,34.5,91,34.1,91,33.7z
			 M91,48.3v-1.4c0-0.4-0.4-0.8-0.8-0.8H53c-0.4,0-0.8,0.4-0.8,0.8v1.4c0,0.4,0.4,0.8,0.8,0.8h37.2C90.7,49.1,91,48.7,91,48.3z
			 M91,41v-1.4c0-0.4-0.4-0.8-0.8-0.8H53c-0.4,0-0.8,0.4-0.8,0.8V41c0,0.4,0.4,0.8,0.8,0.8h37.2C90.7,41.8,91,41.4,91,41z"/>
		<g>
			<path class="st0" d="M165.6,37.4h-25.2c-2.8,0-5,2.3-5,5.2v21.1c0,2.4,2,4.2,4.3,4c1.9-0.2,3.3-2.1,3.3-4.1V45.3
				c0-1,0.8-1.8,1.8-1.8h16.4c1,0,1.8,0.8,1.8,1.8v16.9h-3.7c-1.8,0-3.2,1.5-3.2,3.3c0,1.8,1.4,3.3,3.2,3.3h6.4c2.8,0,5-2.3,5-5.2
				V42.6C170.6,39.7,168.4,37.4,165.6,37.4z"/>
			<path class="st0" d="M168,50.8h-30.3c-1.2,0-2.1-1-2.1-2.1c0-1.2,1-2.1,2.1-2.1H168c1.2,0,2.1,1,2.1,2.1
				C170.1,49.8,169.2,50.8,168,50.8z"/>
			<rect x="148.8" y="31.4" class="st0" width="8.5" height="26.7"/>
			<path class="st0" d="M169.4,59.9h-27.9c-1.7,0-3-1.4-3-3c0-1.7,1.4-3,3-3h27.9c1.7,0,3,1.4,3,3C172.5,58.5,171.1,59.9,169.4,59.9
				z"/>
		</g>
		<path class="st0" d="M53.8,68.9c-1.3,0-2.7-0.4-3.9-1.3c-2.8-2.1-3.3-6.1-1.2-8.9l5.2-6.8c2.1-2.8,6.1-3.3,8.9-1.2
			c2.8,2.1,3.3,6.1,1.2,8.9l-5.2,6.8C57.6,68,55.7,68.9,53.8,68.9z"/>
	</g>
</g>
</svg>
