<?xml version="1.0" encoding="utf-8"?>
<!-- Generator: Adobe Illustrator 26.5.0, SVG Export Plug-In . SVG Version: 6.00 Build 0)  -->
<svg version="1.1" id="圖層_1" xmlns="http://www.w3.org/2000/svg" xmlns:xlink="http://www.w3.org/1999/xlink" x="0px" y="0px"
	 viewBox="0 0 34 30" style="enable-background:new 0 0 34 30;" xml:space="preserve">
<path d="M29,3c1.1,0,2,0.9,2,2v20c0,1.1-0.9,2-2,2H5c-1.1,0-2-0.9-2-2V5c0-1.1,0.9-2,2-2H29 M29,0H5C2.2,0,0,2.2,0,5v20
	c0,2.8,2.2,5,5,5h24c2.8,0,5-2.2,5-5V5C34,2.2,31.8,0,29,0L29,0z"/>
<g>
	<g>
		<path d="M26.4,15.3c-1-1.1-2.3-1.7-3.7-1.7c-1.5,0-2.8,0.5-3.8,1.6c-1,1.1-1.6,2.3-1.6,3.8v0c0,1.6,0.6,3,1.7,4
			c1,0.9,2.2,1.4,3.6,1.4h0c1.5,0,2.8-0.5,3.8-1.6c1-1,1.6-2.3,1.6-3.8C28,17.6,27.5,16.3,26.4,15.3z M24.9,21.3
			c-0.6,0.6-1.3,0.9-2.2,0.9c-0.8,0-1.5-0.3-2.1-0.9c-0.6-0.6-0.9-1.3-0.9-2.3c0-0.9,0.3-1.6,0.9-2.3c0.6-0.6,1.3-0.9,2.2-0.9
			c0.9,0,1.6,0.3,2.2,0.9c0.6,0.6,0.9,1.3,0.9,2.3C25.8,20,25.5,20.7,24.9,21.3z M15.7,20c-0.3-0.3-1.4-1.3-1.5-1.4
			c-0.3-0.3-0.5-0.3-1-0.3h-2.4v1.9h3c0,0.6-0.3,1.1-0.7,1.6c-0.5,0.4-1.1,0.6-1.7,0.6c-0.7,0-1.4-0.3-2.1-0.9c-0.7-0.7-1-1.4-1-2.4
			c0-0.9,0.3-1.7,0.9-2.3c0.6-0.7,1.4-0.9,2.3-0.9c0.7,0,1.4,0.3,2,0.8l0,0l1.5-1.6l0,0c-0.4-0.4-0.8-0.7-1.3-0.9
			c-0.7-0.3-1.5-0.5-2.3-0.5c-1.5,0-2.8,0.5-3.8,1.6c-1,1.1-1.6,2.4-1.6,3.9c0,1.5,0.5,2.8,1.6,3.8c1,1.1,2.3,1.6,3.7,1.6h0
			c1.5,0,2.7-0.5,3.7-1.6c0.4-0.5,0.7-0.9,0.9-1.6c0-0.2,0.1-0.3,0.1-0.5c0-0.2,0-0.3,0-0.4c0,0,0,0-0.1-0.1
			C15.9,20.3,15.9,20.2,15.7,20z M17.4,8.8h0.3c0.5,0,0.9-0.1,1.3-0.4c0.3-0.3,0.5-0.7,0.5-1.2c0-0.4-0.2-0.8-0.5-1.1
			c-0.2-0.2-0.4-0.3-0.6-0.3c-0.2-0.1-0.6-0.1-1-0.1h-0.9v5h1V8.8z M17.4,6.7h0.2c0.3,0,0.5,0.1,0.6,0.2c0.1,0.1,0.2,0.2,0.2,0.4
			s-0.1,0.3-0.2,0.4c-0.1,0.1-0.3,0.2-0.6,0.2h-0.2V6.7z M21.4,8.8h0.3c0.5,0,0.9-0.1,1.3-0.4c0.3-0.3,0.5-0.7,0.5-1.2
			c0-0.4-0.2-0.8-0.5-1.1c-0.2-0.2-0.4-0.3-0.6-0.3c-0.2-0.1-0.6-0.1-1-0.1h-0.9v5h1V8.8z M21.4,6.7h0.2c0.3,0,0.5,0.1,0.6,0.2
			c0.1,0.1,0.2,0.2,0.2,0.4s-0.1,0.3-0.2,0.4c-0.1,0.1-0.3,0.2-0.6,0.2h-0.2V6.7z M12.2,9.7H14l0.5,1h1.1l-2.5-5.2L13,5.6l-2.5,5.1
			h1.1L12.2,9.7z M13.1,7.8l0.5,1h-0.9L13.1,7.8z M25.3,10.7h1V8.6L28,5.7h-1.2l-1,1.7l-1-1.7h-1.2l1.6,2.9V10.7z M7,8.6h1.7v2.1h1
			v-5h-1v1.9H7V5.7H6v5h1V8.6z"/>
	</g>
</g>
</svg>
