<?xml version="1.0" encoding="utf-8"?>
<!-- Generator: Adobe Illustrator 26.3.1, SVG Export Plug-In . SVG Version: 6.00 Build 0)  -->
<svg version="1.1" id="圖層_1" xmlns="http://www.w3.org/2000/svg" xmlns:xlink="http://www.w3.org/1999/xlink" x="0px" y="0px"
	 viewBox="0 0 326.8 50" style="enable-background:new 0 0 326.8 50;" xml:space="preserve">
<style type="text/css">
	.st0{fill:#FFFFFF;}
	.st1{fill:#FFFFAA;}
	.st2{fill-rule:evenodd;clip-rule:evenodd;fill:#FFFFFF;}
</style>
<g>
	<g>
		<path class="st0" d="M5.8,20.7h1.5c0.1,0,0.3,0.1,0.3,0.2c0.1,0.1,0.1,0.2,0.1,0.4v22.5c0,0.1,0,0.3-0.1,0.4
			c-0.1,0.1-0.2,0.2-0.3,0.2H2.9c-0.1,0-0.3-0.1-0.3-0.2c-0.1-0.1-0.1-0.3-0.1-0.4v-22H0.5c-0.1,0-0.3-0.1-0.4-0.2
			C0,21.4,0,21.3,0,21.2L5.1,7c0-0.1,0.1-0.2,0.2-0.3s0.3-0.1,0.4-0.1h4.4c0.1,0,0.3,0.1,0.4,0.2c0.1,0.2,0.1,0.3,0.1,0.4L5.8,20.7z
			 M37.7,43.3c-0.6,0.7-1.4,1.1-2.6,1.1H13.9c-1.1,0-2-0.3-2.6-1c-0.6-0.7-0.9-1.5-0.9-2.5V10.5c0-1,0.3-1.8,0.9-2.4
			c0.6-0.7,1.5-1,2.7-1h21.3c1,0,1.8,0.3,2.4,1c0.5,0.6,0.8,1.4,0.8,2.5v30.4C38.5,41.9,38.2,42.7,37.7,43.3z M33.1,10.4H15.8V41
			h17.3V10.4z M31.6,19.6c-0.1,0.1-0.3,0.1-0.4,0.1H27v4.5h1.3c0.8,0,1.4,0.2,1.9,0.7c0.5,0.4,0.7,1,0.7,1.7v9.6
			c0,0.7-0.2,1.3-0.6,1.8c-0.2,0.2-0.5,0.4-0.8,0.5c-0.3,0.1-0.6,0.2-1,0.2h-8.3c-0.7,0-1.3-0.2-1.8-0.6c-0.2-0.2-0.4-0.5-0.5-0.8
			c-0.1-0.3-0.2-0.7-0.2-1.1v-9.6c0-0.6,0.2-1.2,0.7-1.7c0.4-0.5,1-0.7,1.7-0.7h1.7v-4.5h-4.3c-0.1,0-0.3,0-0.4-0.1
			c-0.1-0.1-0.2-0.2-0.2-0.3v-2.5c0-0.1,0.1-0.3,0.2-0.3c0.1-0.1,0.2-0.1,0.4-0.1h4.3v-4.1c0-0.1,0-0.3,0.1-0.4
			c0.1-0.1,0.2-0.2,0.3-0.2h4.3c0.1,0,0.2,0.1,0.3,0.2C27,12,27,12.2,27,12.3v4.1h4.1c0.1,0,0.3,0,0.4,0.1s0.2,0.2,0.2,0.3v2.4
			C31.8,19.4,31.7,19.6,31.6,19.6z M25.8,27.7h-3v7.7h3V27.7z"/>
		<path class="st0" d="M83,44.2c-0.1,0.1-0.2,0.2-0.3,0.2h-5.5c-0.3,0-0.6-0.1-0.7-0.2l-14.8-22L50.1,44c-0.1,0.2-0.3,0.3-0.5,0.3
			H44c-0.1,0-0.3-0.1-0.3-0.2c-0.1-0.1-0.1-0.2,0-0.3L63.5,7c0.1-0.2,0.3-0.3,0.6-0.3h5.4c0.1,0,0.2,0.1,0.3,0.2
			c0.1,0.1,0.1,0.2,0,0.3l-7.3,13.7h4.6c0.1,0,0.2,0,0.3,0.1c0.1,0,0.2,0.1,0.3,0.2l15.2,22.8C83,44,83,44.1,83,44.2z"/>
		<path class="st0" d="M91.3,14.6c-0.1,0.1-0.2,0.2-0.3,0.2h-1.8c-0.3,0-0.5-0.1-0.5-0.3l-1-6.2c0-0.1,0-0.2,0.1-0.3
			c0.1-0.1,0.1-0.2,0.3-0.2h1.9c0.1,0,0.2,0,0.3,0.1c0.1,0.1,0.2,0.1,0.2,0.3l1,6.2C91.3,14.3,91.3,14.5,91.3,14.6z M109,19.5
			c-0.1,0.1-0.2,0.2-0.4,0.2H88.5c-0.1,0-0.3,0-0.4-0.1c-0.1-0.1-0.2-0.2-0.2-0.3v-2.5c0-0.3,0.2-0.4,0.5-0.4h3.7V7.2
			c0-0.1,0-0.3,0.1-0.4c0.1-0.1,0.2-0.2,0.3-0.2H97c0.1,0,0.2,0.1,0.3,0.2c0.1,0.1,0.2,0.2,0.2,0.4v9.2h1.8V7.2c0-0.1,0-0.3,0.1-0.4
			c0.1-0.1,0.2-0.2,0.3-0.2h4.5c0.1,0,0.2,0.1,0.3,0.2c0.1,0.1,0.2,0.2,0.2,0.4v9.2h4c0.1,0,0.3,0,0.4,0.1c0.1,0.1,0.2,0.2,0.2,0.3
			V19C109.2,19.2,109.2,19.4,109,19.5z M109.4,42.7c-0.1,0.1-0.2,0.2-0.4,0.2l-20.6,1.6c-0.1,0-0.2,0-0.4-0.1s-0.2-0.2-0.2-0.3v-2.5
			c0-0.1,0-0.3,0.2-0.3c0.1-0.1,0.2-0.1,0.4-0.1l7.4-0.6v-4.4h-6.2c-0.1,0-0.3,0-0.4-0.1c-0.1-0.1-0.2-0.2-0.2-0.3v-2.5
			c0-0.3,0.2-0.4,0.5-0.4h6.3v-3.6h-6.9c-0.1,0-0.3,0-0.4-0.1s-0.2-0.2-0.2-0.3v-2.5c0-0.3,0.2-0.4,0.5-0.4h3l-1.7-4.4
			c0-0.1,0-0.2,0.1-0.3c0.1-0.1,0.2-0.2,0.3-0.2h4.6c0.1,0,0.2,0,0.3,0.1c0.1,0.1,0.2,0.2,0.3,0.3l1.7,4.4h2l1.7-4.4
			c0.1-0.1,0.2-0.2,0.3-0.3c0.1-0.1,0.2-0.1,0.3-0.1h4.6c0.1,0,0.2,0.1,0.3,0.2c0.1,0.1,0.1,0.2,0.1,0.3l-1.7,4.4h3.3
			c0.1,0,0.3,0,0.4,0.1c0.1,0.1,0.2,0.2,0.2,0.3v2.3c0,0.2-0.1,0.4-0.2,0.5c-0.1,0.1-0.2,0.2-0.4,0.2h-7.1v3.6h6.5
			c0.1,0,0.3,0,0.4,0.1s0.2,0.2,0.2,0.3v2.3c0,0.2-0.1,0.4-0.2,0.5c-0.1,0.1-0.2,0.2-0.4,0.2h-6.5v4l7.7-0.6c0.1,0,0.3,0,0.4,0.1
			c0.1,0.1,0.2,0.2,0.2,0.4v2.3C109.6,42.4,109.5,42.6,109.4,42.7z M108.1,14.4c-0.1,0.2-0.2,0.3-0.5,0.3h-1.8c-0.1,0-0.3,0-0.3-0.2
			c-0.1-0.1-0.1-0.2-0.1-0.4l1-6.2c0-0.1,0.1-0.2,0.2-0.3c0.1-0.1,0.2-0.1,0.3-0.1h1.9c0.1,0,0.2,0.1,0.3,0.2
			c0.1,0.1,0.1,0.2,0.1,0.3L108.1,14.4z M117.3,37.5c-0.1,0.1-0.2,0.2-0.3,0.2h-4.2c-0.3,0-0.5-0.1-0.6-0.4l-2.5-16.6
			c0-0.1,0-0.2,0.1-0.3c0.1-0.1,0.2-0.2,0.3-0.2h4.2c0.1,0,0.2,0,0.3,0.1c0.1,0.1,0.2,0.1,0.2,0.3l2.6,16.6
			C117.4,37.3,117.4,37.4,117.3,37.5z M125.9,17.1c-0.1,0.1-0.2,0.2-0.4,0.2h-1.3v24.4c0,0.3-0.1,0.6-0.2,1
			c-0.2,0.3-0.4,0.6-0.6,0.9c-0.2,0.2-0.5,0.4-0.8,0.6c-0.3,0.2-0.6,0.2-0.9,0.2h-7.7c-0.2,0-0.4-0.1-0.4-0.3l-1.1-2.6
			c0-0.1,0-0.2,0-0.3c0.1-0.1,0.1-0.2,0.3-0.2h6V17.2h-8.2c-0.1,0-0.3,0-0.4-0.1c-0.1-0.1-0.2-0.2-0.2-0.3v-2.5c0-0.1,0-0.3,0.2-0.3
			c0.1-0.1,0.2-0.1,0.4-0.1h8.3V7.2c0-0.2,0.1-0.3,0.2-0.5c0.1-0.1,0.3-0.2,0.5-0.2h4.3c0.1,0,0.3,0.1,0.4,0.2
			c0.1,0.1,0.2,0.3,0.2,0.4v6.7h1.3c0.1,0,0.3,0,0.4,0.1s0.2,0.2,0.2,0.3v2.3C126.1,16.8,126,17,125.9,17.1z"/>
		<path class="st0" d="M148.5,43.7c-0.4,0.4-0.9,0.6-1.5,0.6h-12.2c-0.5,0-1-0.1-1.3-0.4c-0.5-0.3-0.8-0.9-0.8-1.7V28.1
			c0-0.5,0.2-1.1,0.6-1.5c0.5-0.5,1.1-0.8,1.8-0.8h11.7c0.7,0,1.3,0.3,1.8,0.8c0.5,0.5,0.7,1.1,0.7,1.8V42
			C149.2,42.7,148.9,43.3,148.5,43.7z M164.9,22.1c-0.4,0.4-0.9,0.6-1.5,0.6H138c-0.6,0-1-0.1-1.4-0.4c-0.5-0.4-0.8-1-0.8-1.7V9.5
			c0-0.6,0.2-1.1,0.7-1.6c0.5-0.5,1-0.8,1.7-0.8h24.9c0.7,0,1.3,0.3,1.8,0.8c0.4,0.5,0.6,1.1,0.6,1.8v10.9
			C165.6,21.2,165.4,21.7,164.9,22.1z M143.7,29.2h-5.7v11.6h5.7V29.2z M159.9,10.6h-18.5v8.7h18.5V10.6z M168.1,43.7
			c-0.4,0.4-0.9,0.6-1.5,0.6h-12.2c-0.5,0-1-0.1-1.3-0.4c-0.5-0.3-0.8-0.9-0.8-1.7V28.1c0-0.5,0.2-1.1,0.6-1.5
			c0.5-0.5,1.1-0.8,1.8-0.8h11.7c0.7,0,1.3,0.3,1.8,0.8c0.5,0.5,0.7,1.1,0.7,1.8V42C168.8,42.7,168.5,43.3,168.1,43.7z M163.3,29.2
			h-5.7v11.6h5.7V29.2z"/>
	</g>
	<g>
		<path class="st1" d="M202.6,25.3l-4,2.1v13c0,0.8-0.3,1.5-1,2c-0.3,0.2-0.6,0.4-1,0.6c-0.4,0.1-0.7,0.2-1.1,0.2h-4
			c-0.3,0-0.6-0.2-0.7-0.5l-1-2.2c-0.1-0.1,0-0.2,0-0.3c0.1-0.1,0.2-0.2,0.3-0.2h3.4v-10l-3.6,1.9c-0.1,0.1-0.3,0.1-0.4,0
			c-0.1-0.1-0.2-0.2-0.2-0.3v-2.8c0-0.1,0-0.3,0.1-0.4c0.1-0.1,0.1-0.2,0.3-0.3l3.9-2v-9.3h-3.8c-0.1,0-0.3,0-0.4-0.1
			s-0.2-0.2-0.2-0.3V14c0-0.1,0-0.2,0.1-0.3c0.1-0.1,0.2-0.1,0.3-0.1h3.9v-5c0-0.2,0.1-0.3,0.2-0.4c0.1-0.1,0.3-0.2,0.5-0.2h3.9
			c0.1,0,0.3,0.1,0.4,0.2c0.1,0.1,0.2,0.3,0.2,0.4v5h3.6c0.1,0,0.3,0,0.4,0.1s0.2,0.2,0.2,0.3v2.3c0,0.1-0.1,0.2-0.2,0.3
			c-0.1,0.1-0.2,0.1-0.4,0.1h-3.6v6.7l3.8-2c0.1-0.1,0.3-0.1,0.4,0c0.1,0.1,0.2,0.2,0.2,0.3v2.9C203,25,202.9,25.2,202.6,25.3z
			 M224.3,23.9c-0.1,0.1-0.2,0.1-0.4,0.1h-3.9v18.6c0,0.1,0,0.3-0.1,0.4c-0.1,0.1-0.2,0.2-0.4,0.2h-4.1c-0.1,0-0.2-0.1-0.3-0.2
			c-0.1-0.1-0.1-0.2-0.1-0.4V24.1h-5.8v11.3c0,0.4-0.1,0.8-0.2,1.2c-0.1,0.4-0.3,0.8-0.4,1.1l-2.4,5c-0.1,0.1-0.2,0.2-0.4,0.3
			c-0.2,0.1-0.3,0.1-0.4,0.1h-4.6c-0.2,0-0.3-0.1-0.3-0.2c0-0.1,0-0.2,0-0.4l3.4-7.2V14.1c0-1.4,0.4-2.5,1.2-3.1
			c0.7-0.5,1.7-0.8,2.8-0.8h10l0.4-1.6c0.1-0.1,0.1-0.2,0.3-0.3c0.1-0.1,0.2-0.1,0.4-0.1h4.8c0.1,0,0.2,0,0.3,0.1s0.1,0.2,0.1,0.3
			l-0.6,1.9c-0.3,0.9-0.7,1.6-1.2,2.1c-0.7,0.5-1.5,0.8-2.6,0.8h-10.7v7.4h14.7c0.1,0,0.3,0,0.4,0.1c0.1,0.1,0.2,0.2,0.2,0.3v2.3
			C224.5,23.7,224.5,23.8,224.3,23.9z"/>
	</g>
	<g>
		<path class="st0" d="M249.1,20.7h2.1c0.1,0,0.3,0.1,0.3,0.2c0.1,0.1,0.1,0.2,0.1,0.4v22.5c0,0.1,0,0.3-0.1,0.4
			c-0.1,0.1-0.2,0.2-0.3,0.2h-4.5c-0.1,0-0.3-0.1-0.3-0.2c-0.1-0.1-0.1-0.3-0.1-0.4v-22h-2.5c-0.1,0-0.3-0.1-0.4-0.2
			c-0.1-0.1-0.1-0.2-0.1-0.3l5-14.1c0-0.1,0.1-0.2,0.2-0.3c0.1-0.1,0.3-0.1,0.4-0.1h4.4c0.1,0,0.3,0.1,0.4,0.2
			c0.1,0.2,0.1,0.3,0.1,0.4L249.1,20.7z M259.8,44c-0.1,0.1-0.2,0.1-0.4,0.2c-0.2,0.1-0.4,0.1-0.5,0.1h-5.8c-0.1,0-0.2-0.1-0.3-0.2
			s0-0.2,0.1-0.3l5.1-3.9c0.1-0.1,0.2-0.1,0.4-0.2c0.2-0.1,0.3-0.2,0.4-0.2h5.8c0.1,0,0.2,0.1,0.3,0.2c0.1,0.1,0.1,0.2,0,0.3
			L259.8,44z M282.2,9.7c-0.1,0.1-0.2,0.2-0.4,0.2h-8.2v2.7h4.9c1,0,1.8,0.3,2.2,0.8c0.5,0.5,0.7,1.3,0.7,2.2v2.7
			c0,1-0.2,1.7-0.6,2.1c-0.4,0.5-1.1,0.7-2.1,0.7h-22.5c-1,0-1.8-0.2-2.2-0.5c-0.5-0.4-0.7-1.1-0.7-2.1v-3.1c0-0.4,0.1-0.8,0.2-1.1
			c0.1-0.3,0.3-0.6,0.5-0.9c0.6-0.6,1.3-0.9,2.2-0.9h4.9V9.8h-6.5c-0.1,0-0.3,0-0.4-0.1c-0.1-0.1-0.2-0.2-0.2-0.3V7.7
			c0-0.1,0.1-0.3,0.2-0.3c0.1-0.1,0.2-0.1,0.4-0.1h27c0.4,0,0.6,0.2,0.6,0.5v1.4C282.4,9.4,282.3,9.6,282.2,9.7z M279.1,38
			c-0.5,0.4-1.1,0.6-2,0.6h-19.8c-0.5,0-1-0.1-1.4-0.4c-0.5-0.4-0.8-0.9-0.8-1.7V25.9c0-1,0.3-1.8,0.8-2.3c0.5-0.5,1.2-0.8,2.2-0.8
			H277c0.5,0,1,0.1,1.4,0.3c0.4,0.2,0.7,0.4,1,0.7c0.5,0.6,0.7,1.3,0.7,2.2v9.8C280,36.8,279.7,37.6,279.1,38z M261.7,14.8h-3.2v4.1
			h3.2V14.8z M274.6,25.4h-14v1.8h14V25.4z M274.6,29.8h-14v1.8h14V29.8z M274.6,34.2h-14V36h14V34.2z M265.9,9.8v2.7h3.2l0-2.7
			H265.9z M269.1,14.8h-3.2v4.1h3.2V14.8z M282.6,44.1c-0.1,0.1-0.2,0.2-0.3,0.2h-5.8c-0.1,0-0.3,0-0.5-0.1
			c-0.2-0.1-0.3-0.2-0.4-0.2l-4.6-3.9c-0.1-0.1-0.1-0.2,0-0.3c0.1-0.1,0.1-0.2,0.3-0.2h5.8c0.1,0,0.2,0.1,0.4,0.2
			c0.2,0.1,0.3,0.2,0.4,0.2l4.7,3.8C282.7,43.9,282.7,44,282.6,44.1z M276.4,14.8h-3.2v4.1h3.2V14.8z"/>
		<path class="st0" d="M326.8,33.6c-0.1,0.1-0.2,0.2-0.3,0.2h-4.6v7.7c0,0.4-0.1,0.8-0.2,1.1c-0.1,0.4-0.3,0.7-0.6,1
			c-0.2,0.2-0.5,0.4-0.9,0.6c-0.3,0.1-0.8,0.2-1.2,0.2h-9.8c-0.4,0-0.6-0.1-0.7-0.3l-1.2-2.5c-0.1-0.1,0-0.2,0-0.4
			c0.1-0.1,0.2-0.2,0.3-0.2h8.7v-8.8H307V36c0,1.2-0.4,2-1.1,2.5l-9.1,5.5c-0.1,0.1-0.3,0.2-0.6,0.2c-0.3,0.1-0.5,0.1-0.7,0.1h-7
			c-0.1,0-0.3-0.1-0.3-0.3c-0.1-0.2,0-0.3,0.1-0.3l13.2-8.3v-3.3h-6.6l-0.9,1.3c-0.1,0.1-0.2,0.2-0.3,0.3c-0.1,0-0.3,0.1-0.4,0.1
			h-5.8c-0.1,0-0.2-0.1-0.3-0.2c0-0.1,0-0.2,0-0.3l5.9-8.7h-4.9c-0.1,0-0.3,0-0.4-0.1c-0.1-0.1-0.2-0.2-0.2-0.3v-2.6
			c0-0.1,0-0.3,0.2-0.3c0.1-0.1,0.2-0.1,0.4-0.1h7.3l2.5-3.7h-8.5c-0.1,0-0.3,0-0.4-0.1c-0.1-0.1-0.2-0.2-0.2-0.3v-2.6
			c0-0.1,0-0.3,0.2-0.3c0.1-0.1,0.2-0.1,0.4-0.1h10.9l4.7-6.9c0.2-0.3,0.5-0.5,1-0.5h5.5c0.1,0,0.2,0.1,0.3,0.2
			c0.1,0.1,0.1,0.3,0,0.4l-4.6,6.8h16.9c0.4,0,0.6,0.2,0.6,0.5v2.5c0,0.1-0.1,0.3-0.2,0.3c-0.1,0.1-0.2,0.1-0.4,0.1H305l-2.5,3.7
			h23.1c0.4,0,0.6,0.2,0.6,0.5v2.5c0,0.1-0.1,0.3-0.2,0.3c-0.1,0.1-0.2,0.1-0.4,0.1h-5.7l6.9,8.7C326.8,33.4,326.9,33.5,326.8,33.6z
			 M300,12.7c0,0.1-0.1,0.2-0.3,0.2h-5.3c-0.2,0-0.4,0-0.5-0.1c-0.1-0.1-0.2-0.2-0.3-0.2l-2.6-4.4c-0.1-0.1-0.1-0.2,0-0.4
			c0.1-0.1,0.2-0.2,0.3-0.2h5.4c0.1,0,0.2,0,0.3,0.1c0.1,0.1,0.2,0.1,0.3,0.2l2.6,4.5C300.1,12.5,300.1,12.6,300,12.7z M313,24.6
			h-12.9l-2.8,4.1h18.9L313,24.6z M319.7,12.7c-0.1,0.1-0.3,0.2-0.7,0.2h-5.3c-0.1,0-0.2,0-0.3-0.2c0-0.1,0-0.2,0-0.4l2.6-4.5
			c0.1-0.1,0.2-0.2,0.3-0.2c0.1-0.1,0.2-0.1,0.3-0.1h5.4c0.1,0,0.3,0.1,0.3,0.2c0.1,0.1,0.1,0.3,0,0.4L319.7,12.7z"/>
	</g>
	<g>
		<path class="st0" d="M222,3c2.7,3.3,10.9,13.1,13.3,15.9v23.9c0,2.3-1.9,4.1-4.2,4.1h-47.5c-2.3,0-4.2-1.9-4.2-4.1V7.1
			c0-2.3,1.9-4.1,4.2-4.1H222 M223.4,0h-39.8c-4,0-7.2,3.2-7.2,7.1v35.7c0,3.9,3.2,7.1,7.2,7.1H231c4,0,7.2-3.2,7.2-7.1v-25
			C238.3,17.8,223.4,0,223.4,0L223.4,0z"/>
		<g>
			<rect x="183.3" y="20" class="st2" width="2" height="10"/>
			<rect x="183.3" y="3" class="st2" width="2" height="10"/>
			<rect x="183.3" y="37" class="st2" width="2" height="10"/>
		</g>
	</g>
</g>
</svg>
