<?xml version="1.0" encoding="utf-8"?>
<!-- Generator: Adobe Illustrator 26.3.1, SVG Export Plug-In . SVG Version: 6.00 Build 0)  -->
<svg version="1.1" id="圖層_1" xmlns="http://www.w3.org/2000/svg" xmlns:xlink="http://www.w3.org/1999/xlink" x="0px" y="0px"
	 viewBox="0 0 60 60" style="enable-background:new 0 0 60 60;" xml:space="preserve">
<style type="text/css">
	.st0{clip-path:url(#SVGID_00000080200065920321565040000003937372291650219392_);fill:#FFFFFF;}
	.st1{clip-path:url(#SVGID_00000083054260956585169190000017673278616813946758_);fill:#FFFFFF;}
	.st2{fill:#FF0055;}
	.st3{fill:#FFFFFF;}
</style>
<g>
	<g>
		<defs>
			<rect id="SVGID_1_" width="60" height="60"/>
		</defs>
		<clipPath id="SVGID_00000059295769485882911510000018021311629390811559_">
			<use xlink:href="#SVGID_1_"  style="overflow:visible;"/>
		</clipPath>
		
			<rect x="0" style="clip-path:url(#SVGID_00000059295769485882911510000018021311629390811559_);fill:#FFFFFF;" width="60" height="60"/>
	</g>
	<g>
		<rect x="15" y="3.6" width="1.5" height="1.5"/>
		<rect x="20.7" y="3.6" width="1.5" height="1.5"/>
		<rect x="35" y="3.6" width="1.5" height="1.5"/>
		<rect x="37.8" y="3.6" width="1.5" height="1.5"/>
		<rect x="43.5" y="3.6" width="1.5" height="1.5"/>
		<rect x="15" y="5" width="1.5" height="1.5"/>
		<rect x="16.4" y="5" width="1.5" height="1.5"/>
		<rect x="17.9" y="5" width="1.5" height="1.5"/>
		<rect x="19.3" y="5" width="1.5" height="1.5"/>
		<rect x="20.7" y="5" width="1.5" height="1.5"/>
		<rect x="26.4" y="5" width="1.5" height="1.5"/>
		<rect x="27.8" y="5" width="1.5" height="1.5"/>
		<rect x="30.7" y="5" width="1.5" height="1.5"/>
		<rect x="33.5" y="5" width="1.5" height="1.5"/>
		<rect x="35" y="5" width="1.5" height="1.5"/>
		<rect x="37.8" y="5" width="1.5" height="1.5"/>
		<rect x="39.2" y="5" width="1.5" height="1.5"/>
		<rect x="40.7" y="5" width="1.5" height="1.5"/>
		<rect x="42.1" y="5" width="1.5" height="1.5"/>
		<rect x="15" y="6.5" width="1.5" height="1.5"/>
		<rect x="19.3" y="6.5" width="1.5" height="1.5"/>
		<rect x="23.6" y="6.5" width="1.5" height="1.5"/>
		<rect x="25" y="6.5" width="1.5" height="1.5"/>
		<rect x="26.4" y="6.5" width="1.5" height="1.5"/>
		<rect x="27.8" y="6.5" width="1.5" height="1.5"/>
		<rect x="30.7" y="6.5" width="1.5" height="1.5"/>
		<rect x="36.4" y="6.5" width="1.5" height="1.5"/>
		<rect x="37.8" y="6.5" width="1.5" height="1.5"/>
		<rect x="40.7" y="6.5" width="1.5" height="1.5"/>
		<rect x="43.5" y="6.5" width="1.5" height="1.5"/>
		<rect x="19.3" y="7.9" width="1.5" height="1.5"/>
		<rect x="20.7" y="7.9" width="1.5" height="1.5"/>
		<rect x="25" y="7.9" width="1.5" height="1.5"/>
		<rect x="27.8" y="7.9" width="1.5" height="1.5"/>
		<rect x="29.3" y="7.9" width="1.5" height="1.5"/>
		<rect x="30.7" y="7.9" width="1.5" height="1.5"/>
		<rect x="32.1" y="7.9" width="1.5" height="1.5"/>
		<rect x="33.5" y="7.9" width="1.5" height="1.5"/>
		<rect x="36.4" y="7.9" width="1.5" height="1.5"/>
		<rect x="39.2" y="7.9" width="1.5" height="1.5"/>
		<rect x="16.4" y="9.3" width="1.5" height="1.5"/>
		<rect x="22.1" y="9.3" width="1.5" height="1.5"/>
		<rect x="25" y="9.3" width="1.5" height="1.5"/>
		<rect x="26.4" y="9.3" width="1.5" height="1.5"/>
		<rect x="29.3" y="9.3" width="1.5" height="1.5"/>
		<rect x="33.5" y="9.3" width="1.5" height="1.5"/>
		<rect x="35" y="9.3" width="1.5" height="1.5"/>
		<rect x="36.4" y="9.3" width="1.5" height="1.5"/>
		<rect x="37.8" y="9.3" width="1.5" height="1.5"/>
		<rect x="39.2" y="9.3" width="1.5" height="1.5"/>
		<rect x="15" y="10.7" width="1.5" height="1.5"/>
		<rect x="16.4" y="10.7" width="1.5" height="1.5"/>
		<rect x="19.3" y="10.7" width="1.5" height="1.5"/>
		<rect x="20.7" y="10.7" width="1.5" height="1.5"/>
		<rect x="22.1" y="10.7" width="1.5" height="1.5"/>
		<rect x="25" y="10.7" width="1.5" height="1.5"/>
		<rect x="26.4" y="10.7" width="1.5" height="1.5"/>
		<rect x="27.8" y="10.7" width="1.5" height="1.5"/>
		<rect x="29.3" y="10.7" width="1.5" height="1.5"/>
		<rect x="33.5" y="10.7" width="1.5" height="1.5"/>
		<rect x="36.4" y="10.7" width="1.5" height="1.5"/>
		<rect x="39.2" y="10.7" width="1.5" height="1.5"/>
		<rect x="40.7" y="10.7" width="1.5" height="1.5"/>
		<rect x="42.1" y="10.7" width="1.5" height="1.5"/>
		<rect x="43.5" y="10.7" width="1.5" height="1.5"/>
		<rect x="15" y="12.2" width="1.5" height="1.5"/>
		<rect x="17.9" y="12.2" width="1.5" height="1.5"/>
		<rect x="20.7" y="12.2" width="1.5" height="1.5"/>
		<rect x="23.6" y="12.2" width="1.5" height="1.5"/>
		<rect x="26.4" y="12.2" width="1.5" height="1.5"/>
		<rect x="29.3" y="12.2" width="1.5" height="1.5"/>
		<rect x="32.1" y="12.2" width="1.5" height="1.5"/>
		<rect x="35" y="12.2" width="1.5" height="1.5"/>
		<rect x="37.8" y="12.2" width="1.5" height="1.5"/>
		<rect x="40.7" y="12.2" width="1.5" height="1.5"/>
		<rect x="43.5" y="12.2" width="1.5" height="1.5"/>
		<rect x="15" y="13.6" width="1.5" height="1.5"/>
		<rect x="19.3" y="13.6" width="1.5" height="1.5"/>
		<rect x="23.6" y="13.6" width="1.5" height="1.5"/>
		<rect x="25" y="13.6" width="1.5" height="1.5"/>
		<rect x="26.4" y="13.6" width="1.5" height="1.5"/>
		<rect x="27.8" y="13.6" width="1.5" height="1.5"/>
		<rect x="29.3" y="13.6" width="1.5" height="1.5"/>
		<rect x="37.8" y="13.6" width="1.5" height="1.5"/>
		<rect x="39.2" y="13.6" width="1.5" height="1.5"/>
		<rect x="43.5" y="13.6" width="1.5" height="1.5"/>
		<rect x="6.5" y="15" width="1.5" height="1.5"/>
		<rect x="7.9" y="15" width="1.5" height="1.5"/>
		<rect x="9.3" y="15" width="1.5" height="1.5"/>
		<rect x="12.2" y="15" width="1.5" height="1.5"/>
		<rect x="15" y="15" width="1.5" height="1.5"/>
		<rect x="16.4" y="15" width="1.5" height="1.5"/>
		<rect x="26.4" y="15" width="1.5" height="1.5"/>
		<rect x="27.8" y="15" width="1.5" height="1.5"/>
		<rect x="29.3" y="15" width="1.5" height="1.5"/>
		<rect x="30.7" y="15" width="1.5" height="1.5"/>
		<rect x="35" y="15" width="1.5" height="1.5"/>
		<rect x="36.4" y="15" width="1.5" height="1.5"/>
		<rect x="40.7" y="15" width="1.5" height="1.5"/>
		<rect x="45" y="15" width="1.5" height="1.5"/>
		<rect x="46.4" y="15" width="1.5" height="1.5"/>
		<rect x="47.8" y="15" width="1.5" height="1.5"/>
		<rect x="52.1" y="15" width="1.5" height="1.5"/>
		<rect x="53.5" y="15" width="1.5" height="1.5"/>
		<rect x="54.9" y="15" width="1.5" height="1.5"/>
		<rect x="7.9" y="16.4" width="1.5" height="1.5"/>
		<rect x="9.3" y="16.4" width="1.5" height="1.5"/>
		<rect x="13.6" y="16.4" width="1.5" height="1.5"/>
		<rect x="16.4" y="16.4" width="1.5" height="1.5"/>
		<rect x="20.7" y="16.4" width="1.5" height="1.5"/>
		<rect x="22.1" y="16.4" width="1.5" height="1.5"/>
		<rect x="26.4" y="16.4" width="1.5" height="1.5"/>
		<rect x="33.5" y="16.4" width="1.5" height="1.5"/>
		<rect x="36.4" y="16.4" width="1.5" height="1.5"/>
		<rect x="39.2" y="16.4" width="1.5" height="1.5"/>
		<rect x="42.1" y="16.4" width="1.5" height="1.5"/>
		<rect x="45" y="16.4" width="1.5" height="1.5"/>
		<rect x="47.8" y="16.4" width="1.5" height="1.5"/>
		<rect x="52.1" y="16.4" width="1.5" height="1.5"/>
		<rect x="9.3" y="17.9" width="1.5" height="1.5"/>
		<rect x="12.2" y="17.9" width="1.5" height="1.5"/>
		<rect x="13.6" y="17.9" width="1.5" height="1.5"/>
		<rect x="15" y="17.9" width="1.5" height="1.5"/>
		<rect x="17.9" y="17.9" width="1.5" height="1.5"/>
		<rect x="20.7" y="17.9" width="1.5" height="1.5"/>
		<rect x="23.6" y="17.9" width="1.5" height="1.5"/>
		<rect x="25" y="17.9" width="1.5" height="1.5"/>
		<rect x="26.4" y="17.9" width="1.5" height="1.5"/>
		<rect x="32.1" y="17.9" width="1.5" height="1.5"/>
		<rect x="33.5" y="17.9" width="1.5" height="1.5"/>
		<rect x="35" y="17.9" width="1.5" height="1.5"/>
		<rect x="39.2" y="17.9" width="1.5" height="1.5"/>
		<rect x="40.7" y="17.9" width="1.5" height="1.5"/>
		<rect x="42.1" y="17.9" width="1.5" height="1.5"/>
		<rect x="46.4" y="17.9" width="1.5" height="1.5"/>
		<rect x="50.7" y="17.9" width="1.5" height="1.5"/>
		<rect x="53.5" y="17.9" width="1.5" height="1.5"/>
		<rect x="54.9" y="17.9" width="1.5" height="1.5"/>
		<rect x="5" y="19.3" width="1.5" height="1.5"/>
		<rect x="6.5" y="19.3" width="1.5" height="1.5"/>
		<rect x="15" y="19.3" width="1.5" height="1.5"/>
		<rect x="16.4" y="19.3" width="1.5" height="1.5"/>
		<rect x="20.7" y="19.3" width="1.5" height="1.5"/>
		<rect x="23.6" y="19.3" width="1.5" height="1.5"/>
		<rect x="26.4" y="19.3" width="1.5" height="1.5"/>
		<rect x="27.8" y="19.3" width="1.5" height="1.5"/>
		<rect x="29.3" y="19.3" width="1.5" height="1.5"/>
		<rect x="35" y="19.3" width="1.5" height="1.5"/>
		<rect x="37.8" y="19.3" width="1.5" height="1.5"/>
		<rect x="40.7" y="19.3" width="1.5" height="1.5"/>
		<rect x="43.5" y="19.3" width="1.5" height="1.5"/>
		<rect x="46.4" y="19.3" width="1.5" height="1.5"/>
		<rect x="47.8" y="19.3" width="1.5" height="1.5"/>
		<rect x="12.2" y="20.7" width="1.5" height="1.5"/>
		<rect x="13.6" y="20.7" width="1.5" height="1.5"/>
		<rect x="15" y="20.7" width="1.5" height="1.5"/>
		<rect x="17.9" y="20.7" width="1.5" height="1.5"/>
		<rect x="20.7" y="20.7" width="1.5" height="1.5"/>
		<rect x="23.6" y="20.7" width="1.5" height="1.5"/>
		<rect x="26.4" y="20.7" width="1.5" height="1.5"/>
		<rect x="30.7" y="20.7" width="1.5" height="1.5"/>
		<rect x="35" y="20.7" width="1.5" height="1.5"/>
		<rect x="39.2" y="20.7" width="1.5" height="1.5"/>
		<rect x="40.7" y="20.7" width="1.5" height="1.5"/>
		<rect x="43.5" y="20.7" width="1.5" height="1.5"/>
		<rect x="45" y="20.7" width="1.5" height="1.5"/>
		<rect x="46.4" y="20.7" width="1.5" height="1.5"/>
		<rect x="47.8" y="20.7" width="1.5" height="1.5"/>
		<rect x="49.2" y="20.7" width="1.5" height="1.5"/>
		<rect x="50.7" y="20.7" width="1.5" height="1.5"/>
		<rect x="52.1" y="20.7" width="1.5" height="1.5"/>
		<rect x="54.9" y="20.7" width="1.5" height="1.5"/>
		<rect x="6.5" y="22.1" width="1.5" height="1.5"/>
		<rect x="9.3" y="22.1" width="1.5" height="1.5"/>
		<rect x="15" y="22.1" width="1.5" height="1.5"/>
		<rect x="16.4" y="22.1" width="1.5" height="1.5"/>
		<rect x="19.3" y="22.1" width="1.5" height="1.5"/>
		<rect x="43.5" y="22.1" width="1.5" height="1.5"/>
		<rect x="45" y="22.1" width="1.5" height="1.5"/>
		<rect x="47.8" y="22.1" width="1.5" height="1.5"/>
		<rect x="50.7" y="22.1" width="1.5" height="1.5"/>
		<rect x="52.1" y="22.1" width="1.5" height="1.5"/>
		<rect x="53.5" y="22.1" width="1.5" height="1.5"/>
		<rect x="5" y="23.6" width="1.5" height="1.5"/>
		<rect x="6.5" y="23.6" width="1.5" height="1.5"/>
		<rect x="7.9" y="23.6" width="1.5" height="1.5"/>
		<rect x="9.3" y="23.6" width="1.5" height="1.5"/>
		<rect x="12.2" y="23.6" width="1.5" height="1.5"/>
		<rect x="13.6" y="23.6" width="1.5" height="1.5"/>
		<rect x="15" y="23.6" width="1.5" height="1.5"/>
		<rect x="19.3" y="23.6" width="1.5" height="1.5"/>
		<rect x="20.7" y="23.6" width="1.5" height="1.5"/>
		<rect x="37.8" y="23.6" width="1.5" height="1.5"/>
		<rect x="39.2" y="23.6" width="1.5" height="1.5"/>
		<rect x="40.7" y="23.6" width="1.5" height="1.5"/>
		<rect x="42.1" y="23.6" width="1.5" height="1.5"/>
		<rect x="46.4" y="23.6" width="1.5" height="1.5"/>
		<rect x="47.8" y="23.6" width="1.5" height="1.5"/>
		<rect x="50.7" y="23.6" width="1.5" height="1.5"/>
		<rect x="53.5" y="23.6" width="1.5" height="1.5"/>
		<rect x="54.9" y="23.6" width="1.5" height="1.5"/>
		<rect x="5" y="25" width="1.5" height="1.5"/>
		<rect x="6.5" y="25" width="1.5" height="1.5"/>
		<rect x="13.6" y="25" width="1.5" height="1.5"/>
		<rect x="15" y="25" width="1.5" height="1.5"/>
		<rect x="20.7" y="25" width="1.5" height="1.5"/>
		<rect x="40.7" y="25" width="1.5" height="1.5"/>
		<rect x="42.1" y="25" width="1.5" height="1.5"/>
		<rect x="43.5" y="25" width="1.5" height="1.5"/>
		<rect x="46.4" y="25" width="1.5" height="1.5"/>
		<rect x="3.6" y="26.4" width="1.5" height="1.5"/>
		<rect x="5" y="26.4" width="1.5" height="1.5"/>
		<rect x="9.3" y="26.4" width="1.5" height="1.5"/>
		<rect x="12.2" y="26.4" width="1.5" height="1.5"/>
		<rect x="13.6" y="26.4" width="1.5" height="1.5"/>
		<rect x="19.3" y="26.4" width="1.5" height="1.5"/>
		<rect x="20.7" y="26.4" width="1.5" height="1.5"/>
		<rect x="39.2" y="26.4" width="1.5" height="1.5"/>
		<rect x="42.1" y="26.4" width="1.5" height="1.5"/>
		<rect x="45" y="26.4" width="1.5" height="1.5"/>
		<rect x="46.4" y="26.4" width="1.5" height="1.5"/>
		<rect x="47.8" y="26.4" width="1.5" height="1.5"/>
		<rect x="49.2" y="26.4" width="1.5" height="1.5"/>
		<rect x="52.1" y="26.4" width="1.5" height="1.5"/>
		<rect x="53.5" y="26.4" width="1.5" height="1.5"/>
		<rect x="5" y="27.8" width="1.5" height="1.5"/>
		<rect x="9.3" y="27.8" width="1.5" height="1.5"/>
		<rect x="13.6" y="27.8" width="1.5" height="1.5"/>
		<rect x="16.4" y="27.8" width="1.5" height="1.5"/>
		<rect x="17.9" y="27.8" width="1.5" height="1.5"/>
		<rect x="19.3" y="27.8" width="1.5" height="1.5"/>
		<rect x="37.8" y="27.8" width="1.5" height="1.5"/>
		<rect x="39.2" y="27.8" width="1.5" height="1.5"/>
		<rect x="43.5" y="27.8" width="1.5" height="1.5"/>
		<rect x="45" y="27.8" width="1.5" height="1.5"/>
		<rect x="47.8" y="27.8" width="1.5" height="1.5"/>
		<rect x="50.7" y="27.8" width="1.5" height="1.5"/>
		<rect x="3.6" y="29.3" width="1.5" height="1.5"/>
		<rect x="5" y="29.3" width="1.5" height="1.5"/>
		<rect x="7.9" y="29.3" width="1.5" height="1.5"/>
		<rect x="12.2" y="29.3" width="1.5" height="1.5"/>
		<rect x="17.9" y="29.3" width="1.5" height="1.5"/>
		<rect x="20.7" y="29.3" width="1.5" height="1.5"/>
		<rect x="39.2" y="29.3" width="1.5" height="1.5"/>
		<rect x="40.7" y="29.3" width="1.5" height="1.5"/>
		<rect x="42.1" y="29.3" width="1.5" height="1.5"/>
		<rect x="43.5" y="29.3" width="1.5" height="1.5"/>
		<rect x="47.8" y="29.3" width="1.5" height="1.5"/>
		<rect x="49.2" y="29.3" width="1.5" height="1.5"/>
		<rect x="52.1" y="29.3" width="1.5" height="1.5"/>
		<rect x="53.5" y="29.3" width="1.5" height="1.5"/>
		<rect x="54.9" y="29.3" width="1.5" height="1.5"/>
		<rect x="7.9" y="30.7" width="1.5" height="1.5"/>
		<rect x="9.3" y="30.7" width="1.5" height="1.5"/>
		<rect x="10.7" y="30.7" width="1.5" height="1.5"/>
		<rect x="15" y="30.7" width="1.5" height="1.5"/>
		<rect x="40.7" y="30.7" width="1.5" height="1.5"/>
		<rect x="42.1" y="30.7" width="1.5" height="1.5"/>
		<rect x="45" y="30.7" width="1.5" height="1.5"/>
		<rect x="46.4" y="30.7" width="1.5" height="1.5"/>
		<rect x="47.8" y="30.7" width="1.5" height="1.5"/>
		<rect x="49.2" y="30.7" width="1.5" height="1.5"/>
		<rect x="54.9" y="30.7" width="1.5" height="1.5"/>
		<rect x="6.5" y="32.1" width="1.5" height="1.5"/>
		<rect x="7.9" y="32.1" width="1.5" height="1.5"/>
		<rect x="12.2" y="32.1" width="1.5" height="1.5"/>
		<rect x="13.6" y="32.1" width="1.5" height="1.5"/>
		<rect x="16.4" y="32.1" width="1.5" height="1.5"/>
		<rect x="17.9" y="32.1" width="1.5" height="1.5"/>
		<rect x="20.7" y="32.1" width="1.5" height="1.5"/>
		<rect x="37.8" y="32.1" width="1.5" height="1.5"/>
		<rect x="39.2" y="32.1" width="1.5" height="1.5"/>
		<rect x="40.7" y="32.1" width="1.5" height="1.5"/>
		<rect x="46.4" y="32.1" width="1.5" height="1.5"/>
		<rect x="47.8" y="32.1" width="1.5" height="1.5"/>
		<rect x="49.2" y="32.1" width="1.5" height="1.5"/>
		<rect x="50.7" y="32.1" width="1.5" height="1.5"/>
		<rect x="52.1" y="32.1" width="1.5" height="1.5"/>
		<rect x="3.6" y="33.5" width="1.5" height="1.5"/>
		<rect x="6.5" y="33.5" width="1.5" height="1.5"/>
		<rect x="7.9" y="33.5" width="1.5" height="1.5"/>
		<rect x="13.6" y="33.5" width="1.5" height="1.5"/>
		<rect x="16.4" y="33.5" width="1.5" height="1.5"/>
		<rect x="17.9" y="33.5" width="1.5" height="1.5"/>
		<rect x="19.3" y="33.5" width="1.5" height="1.5"/>
		<rect x="20.7" y="33.5" width="1.5" height="1.5"/>
		<rect x="37.8" y="33.5" width="1.5" height="1.5"/>
		<rect x="47.8" y="33.5" width="1.5" height="1.5"/>
		<rect x="50.7" y="33.5" width="1.5" height="1.5"/>
		<rect x="52.1" y="33.5" width="1.5" height="1.5"/>
		<rect x="3.6" y="35" width="1.5" height="1.5"/>
		<rect x="7.9" y="35" width="1.5" height="1.5"/>
		<rect x="9.3" y="35" width="1.5" height="1.5"/>
		<rect x="10.7" y="35" width="1.5" height="1.5"/>
		<rect x="12.2" y="35" width="1.5" height="1.5"/>
		<rect x="13.6" y="35" width="1.5" height="1.5"/>
		<rect x="15" y="35" width="1.5" height="1.5"/>
		<rect x="17.9" y="35" width="1.5" height="1.5"/>
		<rect x="20.7" y="35" width="1.5" height="1.5"/>
		<rect x="42.1" y="35" width="1.5" height="1.5"/>
		<rect x="45" y="35" width="1.5" height="1.5"/>
		<rect x="46.4" y="35" width="1.5" height="1.5"/>
		<rect x="53.5" y="35" width="1.5" height="1.5"/>
		<rect x="54.9" y="35" width="1.5" height="1.5"/>
		<rect x="3.6" y="36.4" width="1.5" height="1.5"/>
		<rect x="6.5" y="36.4" width="1.5" height="1.5"/>
		<rect x="7.9" y="36.4" width="1.5" height="1.5"/>
		<rect x="15" y="36.4" width="1.5" height="1.5"/>
		<rect x="17.9" y="36.4" width="1.5" height="1.5"/>
		<rect x="20.7" y="36.4" width="1.5" height="1.5"/>
		<rect x="40.7" y="36.4" width="1.5" height="1.5"/>
		<rect x="45" y="36.4" width="1.5" height="1.5"/>
		<rect x="46.4" y="36.4" width="1.5" height="1.5"/>
		<rect x="47.8" y="36.4" width="1.5" height="1.5"/>
		<rect x="53.5" y="36.4" width="1.5" height="1.5"/>
		<rect x="3.6" y="37.8" width="1.5" height="1.5"/>
		<rect x="7.9" y="37.8" width="1.5" height="1.5"/>
		<rect x="9.3" y="37.8" width="1.5" height="1.5"/>
		<rect x="12.2" y="37.8" width="1.5" height="1.5"/>
		<rect x="13.6" y="37.8" width="1.5" height="1.5"/>
		<rect x="16.4" y="37.8" width="1.5" height="1.5"/>
		<rect x="22.1" y="37.8" width="1.5" height="1.5"/>
		<rect x="26.4" y="37.8" width="1.5" height="1.5"/>
		<rect x="27.8" y="37.8" width="1.5" height="1.5"/>
		<rect x="32.1" y="37.8" width="1.5" height="1.5"/>
		<rect x="33.5" y="37.8" width="1.5" height="1.5"/>
		<rect x="45" y="37.8" width="1.5" height="1.5"/>
		<rect x="46.4" y="37.8" width="1.5" height="1.5"/>
		<rect x="47.8" y="37.8" width="1.5" height="1.5"/>
		<rect x="49.2" y="37.8" width="1.5" height="1.5"/>
		<rect x="50.7" y="37.8" width="1.5" height="1.5"/>
		<rect x="52.1" y="37.8" width="1.5" height="1.5"/>
		<rect x="54.9" y="37.8" width="1.5" height="1.5"/>
		<rect x="3.6" y="39.2" width="1.5" height="1.5"/>
		<rect x="6.5" y="39.2" width="1.5" height="1.5"/>
		<rect x="9.3" y="39.2" width="1.5" height="1.5"/>
		<rect x="16.4" y="39.2" width="1.5" height="1.5"/>
		<rect x="27.8" y="39.2" width="1.5" height="1.5"/>
		<rect x="29.3" y="39.2" width="1.5" height="1.5"/>
		<rect x="30.7" y="39.2" width="1.5" height="1.5"/>
		<rect x="32.1" y="39.2" width="1.5" height="1.5"/>
		<rect x="35" y="39.2" width="1.5" height="1.5"/>
		<rect x="37.8" y="39.2" width="1.5" height="1.5"/>
		<rect x="40.7" y="39.2" width="1.5" height="1.5"/>
		<rect x="43.5" y="39.2" width="1.5" height="1.5"/>
		<rect x="45" y="39.2" width="1.5" height="1.5"/>
		<rect x="47.8" y="39.2" width="1.5" height="1.5"/>
		<rect x="53.5" y="39.2" width="1.5" height="1.5"/>
		<rect x="3.6" y="40.7" width="1.5" height="1.5"/>
		<rect x="9.3" y="40.7" width="1.5" height="1.5"/>
		<rect x="10.7" y="40.7" width="1.5" height="1.5"/>
		<rect x="12.2" y="40.7" width="1.5" height="1.5"/>
		<rect x="16.4" y="40.7" width="1.5" height="1.5"/>
		<rect x="17.9" y="40.7" width="1.5" height="1.5"/>
		<rect x="20.7" y="40.7" width="1.5" height="1.5"/>
		<rect x="23.6" y="40.7" width="1.5" height="1.5"/>
		<rect x="25" y="40.7" width="1.5" height="1.5"/>
		<rect x="26.4" y="40.7" width="1.5" height="1.5"/>
		<rect x="30.7" y="40.7" width="1.5" height="1.5"/>
		<rect x="39.2" y="40.7" width="1.5" height="1.5"/>
		<rect x="40.7" y="40.7" width="1.5" height="1.5"/>
		<rect x="42.1" y="40.7" width="1.5" height="1.5"/>
		<rect x="46.4" y="40.7" width="1.5" height="1.5"/>
		<rect x="47.8" y="40.7" width="1.5" height="1.5"/>
		<rect x="49.2" y="40.7" width="1.5" height="1.5"/>
		<rect x="53.5" y="40.7" width="1.5" height="1.5"/>
		<rect x="54.9" y="40.7" width="1.5" height="1.5"/>
		<rect x="3.6" y="42.1" width="1.5" height="1.5"/>
		<rect x="6.5" y="42.1" width="1.5" height="1.5"/>
		<rect x="9.3" y="42.1" width="1.5" height="1.5"/>
		<rect x="10.7" y="42.1" width="1.5" height="1.5"/>
		<rect x="13.6" y="42.1" width="1.5" height="1.5"/>
		<rect x="16.4" y="42.1" width="1.5" height="1.5"/>
		<rect x="20.7" y="42.1" width="1.5" height="1.5"/>
		<rect x="22.1" y="42.1" width="1.5" height="1.5"/>
		<rect x="26.4" y="42.1" width="1.5" height="1.5"/>
		<rect x="29.3" y="42.1" width="1.5" height="1.5"/>
		<rect x="30.7" y="42.1" width="1.5" height="1.5"/>
		<rect x="32.1" y="42.1" width="1.5" height="1.5"/>
		<rect x="33.5" y="42.1" width="1.5" height="1.5"/>
		<rect x="35" y="42.1" width="1.5" height="1.5"/>
		<rect x="37.8" y="42.1" width="1.5" height="1.5"/>
		<rect x="40.7" y="42.1" width="1.5" height="1.5"/>
		<rect x="45" y="42.1" width="1.5" height="1.5"/>
		<rect x="47.8" y="42.1" width="1.5" height="1.5"/>
		<rect x="49.2" y="42.1" width="1.5" height="1.5"/>
		<rect x="50.7" y="42.1" width="1.5" height="1.5"/>
		<rect x="3.6" y="43.5" width="1.5" height="1.5"/>
		<rect x="9.3" y="43.5" width="1.5" height="1.5"/>
		<rect x="10.7" y="43.5" width="1.5" height="1.5"/>
		<rect x="12.2" y="43.5" width="1.5" height="1.5"/>
		<rect x="13.6" y="43.5" width="1.5" height="1.5"/>
		<rect x="17.9" y="43.5" width="1.5" height="1.5"/>
		<rect x="19.3" y="43.5" width="1.5" height="1.5"/>
		<rect x="20.7" y="43.5" width="1.5" height="1.5"/>
		<rect x="22.1" y="43.5" width="1.5" height="1.5"/>
		<rect x="23.6" y="43.5" width="1.5" height="1.5"/>
		<rect x="29.3" y="43.5" width="1.5" height="1.5"/>
		<rect x="33.5" y="43.5" width="1.5" height="1.5"/>
		<rect x="37.8" y="43.5" width="1.5" height="1.5"/>
		<rect x="39.2" y="43.5" width="1.5" height="1.5"/>
		<rect x="40.7" y="43.5" width="1.5" height="1.5"/>
		<rect x="42.1" y="43.5" width="1.5" height="1.5"/>
		<rect x="43.5" y="43.5" width="1.5" height="1.5"/>
		<rect x="45" y="43.5" width="1.5" height="1.5"/>
		<rect x="46.4" y="43.5" width="1.5" height="1.5"/>
		<rect x="47.8" y="43.5" width="1.5" height="1.5"/>
		<rect x="49.2" y="43.5" width="1.5" height="1.5"/>
		<rect x="50.7" y="43.5" width="1.5" height="1.5"/>
		<rect x="52.1" y="43.5" width="1.5" height="1.5"/>
		<rect x="53.5" y="43.5" width="1.5" height="1.5"/>
		<rect x="54.9" y="43.5" width="1.5" height="1.5"/>
		<rect x="15" y="45" width="1.5" height="1.5"/>
		<rect x="16.4" y="45" width="1.5" height="1.5"/>
		<rect x="17.9" y="45" width="1.5" height="1.5"/>
		<rect x="19.3" y="45" width="1.5" height="1.5"/>
		<rect x="20.7" y="45" width="1.5" height="1.5"/>
		<rect x="30.7" y="45" width="1.5" height="1.5"/>
		<rect x="32.1" y="45" width="1.5" height="1.5"/>
		<rect x="36.4" y="45" width="1.5" height="1.5"/>
		<rect x="39.2" y="45" width="1.5" height="1.5"/>
		<rect x="43.5" y="45" width="1.5" height="1.5"/>
		<rect x="49.2" y="45" width="1.5" height="1.5"/>
		<rect x="17.9" y="46.4" width="1.5" height="1.5"/>
		<rect x="20.7" y="46.4" width="1.5" height="1.5"/>
		<rect x="29.3" y="46.4" width="1.5" height="1.5"/>
		<rect x="33.5" y="46.4" width="1.5" height="1.5"/>
		<rect x="35" y="46.4" width="1.5" height="1.5"/>
		<rect x="39.2" y="46.4" width="1.5" height="1.5"/>
		<rect x="40.7" y="46.4" width="1.5" height="1.5"/>
		<rect x="43.5" y="46.4" width="1.5" height="1.5"/>
		<rect x="46.4" y="46.4" width="1.5" height="1.5"/>
		<rect x="49.2" y="46.4" width="1.5" height="1.5"/>
		<rect x="50.7" y="46.4" width="1.5" height="1.5"/>
		<rect x="54.9" y="46.4" width="1.5" height="1.5"/>
		<rect x="17.9" y="47.8" width="1.5" height="1.5"/>
		<rect x="20.7" y="47.8" width="1.5" height="1.5"/>
		<rect x="30.7" y="47.8" width="1.5" height="1.5"/>
		<rect x="33.5" y="47.8" width="1.5" height="1.5"/>
		<rect x="37.8" y="47.8" width="1.5" height="1.5"/>
		<rect x="43.5" y="47.8" width="1.5" height="1.5"/>
		<rect x="49.2" y="47.8" width="1.5" height="1.5"/>
		<rect x="53.5" y="47.8" width="1.5" height="1.5"/>
		<rect x="15" y="49.2" width="1.5" height="1.5"/>
		<rect x="17.9" y="49.2" width="1.5" height="1.5"/>
		<rect x="20.7" y="49.2" width="1.5" height="1.5"/>
		<rect x="26.4" y="49.2" width="1.5" height="1.5"/>
		<rect x="27.8" y="49.2" width="1.5" height="1.5"/>
		<rect x="30.7" y="49.2" width="1.5" height="1.5"/>
		<rect x="32.1" y="49.2" width="1.5" height="1.5"/>
		<rect x="33.5" y="49.2" width="1.5" height="1.5"/>
		<rect x="36.4" y="49.2" width="1.5" height="1.5"/>
		<rect x="37.8" y="49.2" width="1.5" height="1.5"/>
		<rect x="39.2" y="49.2" width="1.5" height="1.5"/>
		<rect x="40.7" y="49.2" width="1.5" height="1.5"/>
		<rect x="42.1" y="49.2" width="1.5" height="1.5"/>
		<rect x="43.5" y="49.2" width="1.5" height="1.5"/>
		<rect x="45" y="49.2" width="1.5" height="1.5"/>
		<rect x="46.4" y="49.2" width="1.5" height="1.5"/>
		<rect x="47.8" y="49.2" width="1.5" height="1.5"/>
		<rect x="49.2" y="49.2" width="1.5" height="1.5"/>
		<rect x="52.1" y="49.2" width="1.5" height="1.5"/>
		<rect x="53.5" y="49.2" width="1.5" height="1.5"/>
		<rect x="15" y="50.7" width="1.5" height="1.5"/>
		<rect x="17.9" y="50.7" width="1.5" height="1.5"/>
		<rect x="19.3" y="50.7" width="1.5" height="1.5"/>
		<rect x="22.1" y="50.7" width="1.5" height="1.5"/>
		<rect x="23.6" y="50.7" width="1.5" height="1.5"/>
		<rect x="26.4" y="50.7" width="1.5" height="1.5"/>
		<rect x="27.8" y="50.7" width="1.5" height="1.5"/>
		<rect x="29.3" y="50.7" width="1.5" height="1.5"/>
		<rect x="30.7" y="50.7" width="1.5" height="1.5"/>
		<rect x="32.1" y="50.7" width="1.5" height="1.5"/>
		<rect x="35" y="50.7" width="1.5" height="1.5"/>
		<rect x="42.1" y="50.7" width="1.5" height="1.5"/>
		<rect x="43.5" y="50.7" width="1.5" height="1.5"/>
		<rect x="46.4" y="50.7" width="1.5" height="1.5"/>
		<rect x="49.2" y="50.7" width="1.5" height="1.5"/>
		<rect x="50.7" y="50.7" width="1.5" height="1.5"/>
		<rect x="52.1" y="50.7" width="1.5" height="1.5"/>
		<rect x="15" y="52.1" width="1.5" height="1.5"/>
		<rect x="17.9" y="52.1" width="1.5" height="1.5"/>
		<rect x="19.3" y="52.1" width="1.5" height="1.5"/>
		<rect x="20.7" y="52.1" width="1.5" height="1.5"/>
		<rect x="25" y="52.1" width="1.5" height="1.5"/>
		<rect x="27.8" y="52.1" width="1.5" height="1.5"/>
		<rect x="29.3" y="52.1" width="1.5" height="1.5"/>
		<rect x="30.7" y="52.1" width="1.5" height="1.5"/>
		<rect x="32.1" y="52.1" width="1.5" height="1.5"/>
		<rect x="36.4" y="52.1" width="1.5" height="1.5"/>
		<rect x="37.8" y="52.1" width="1.5" height="1.5"/>
		<rect x="39.2" y="52.1" width="1.5" height="1.5"/>
		<rect x="43.5" y="52.1" width="1.5" height="1.5"/>
		<rect x="45" y="52.1" width="1.5" height="1.5"/>
		<rect x="47.8" y="52.1" width="1.5" height="1.5"/>
		<rect x="50.7" y="52.1" width="1.5" height="1.5"/>
		<rect x="54.9" y="52.1" width="1.5" height="1.5"/>
		<rect x="16.4" y="53.5" width="1.5" height="1.5"/>
		<rect x="17.9" y="53.5" width="1.5" height="1.5"/>
		<rect x="25" y="53.5" width="1.5" height="1.5"/>
		<rect x="27.8" y="53.5" width="1.5" height="1.5"/>
		<rect x="29.3" y="53.5" width="1.5" height="1.5"/>
		<rect x="30.7" y="53.5" width="1.5" height="1.5"/>
		<rect x="32.1" y="53.5" width="1.5" height="1.5"/>
		<rect x="33.5" y="53.5" width="1.5" height="1.5"/>
		<rect x="36.4" y="53.5" width="1.5" height="1.5"/>
		<rect x="40.7" y="53.5" width="1.5" height="1.5"/>
		<rect x="42.1" y="53.5" width="1.5" height="1.5"/>
		<rect x="43.5" y="53.5" width="1.5" height="1.5"/>
		<rect x="46.4" y="53.5" width="1.5" height="1.5"/>
		<rect x="54.9" y="53.5" width="1.5" height="1.5"/>
		<rect x="16.4" y="54.9" width="1.5" height="1.5"/>
		<rect x="17.9" y="54.9" width="1.5" height="1.5"/>
		<rect x="19.3" y="54.9" width="1.5" height="1.5"/>
		<rect x="23.6" y="54.9" width="1.5" height="1.5"/>
		<rect x="27.8" y="54.9" width="1.5" height="1.5"/>
		<rect x="29.3" y="54.9" width="1.5" height="1.5"/>
		<rect x="32.1" y="54.9" width="1.5" height="1.5"/>
		<rect x="36.4" y="54.9" width="1.5" height="1.5"/>
		<rect x="39.2" y="54.9" width="1.5" height="1.5"/>
		<rect x="40.7" y="54.9" width="1.5" height="1.5"/>
		<rect x="46.4" y="54.9" width="1.5" height="1.5"/>
		<rect x="47.8" y="54.9" width="1.5" height="1.5"/>
		<rect x="50.7" y="54.9" width="1.5" height="1.5"/>
		<rect x="52.1" y="54.9" width="1.5" height="1.5"/>
		<rect x="53.5" y="54.9" width="1.5" height="1.5"/>
		<rect x="54.9" y="54.9" width="1.5" height="1.5"/>
		<path d="M3.6,3.6v10h10v-10H3.6L3.6,3.6z M12.2,12.2H5V5h7.1V12.2L12.2,12.2z"/>
		<path d="M46.4,3.6v10h10v-10H46.4L46.4,3.6z M54.9,12.2h-7.1V5h7.1V12.2L54.9,12.2z"/>
		<path d="M3.6,46.4v10h10v-10H3.6L3.6,46.4z M12.2,54.9H5v-7.1h7.1V54.9L12.2,54.9z"/>
		<rect x="6.5" y="6.5" width="4.3" height="4.3"/>
		<rect x="49.2" y="6.5" width="4.3" height="4.3"/>
		<rect x="6.5" y="49.2" width="4.3" height="4.3"/>
		<g>
			<defs>
				<rect id="SVGID_00000028285049472452596210000002426452986082433443_" x="18.2" y="18.2" width="23.5" height="23.5"/>
			</defs>
			<clipPath id="SVGID_00000113344847476217018320000013900886031629603227_">
				<use xlink:href="#SVGID_00000028285049472452596210000002426452986082433443_"  style="overflow:visible;"/>
			</clipPath>
			<path style="clip-path:url(#SVGID_00000113344847476217018320000013900886031629603227_);fill:#FFFFFF;" d="M35.8,18.2H24.1
				c-3.3,0-5.9,2.6-5.9,5.9v11.7c0,3.3,2.6,5.9,5.9,5.9h11.7c3.3,0,5.9-2.6,5.9-5.9V24.1C41.7,20.9,39.1,18.2,35.8,18.2L35.8,18.2z"
				/>
		</g>
		<path class="st2" d="M35.8,19.5c2.6,0,4.7,2.1,4.7,4.7v11.7c0,2.6-2.1,4.7-4.7,4.7H24.1c-2.6,0-4.7-2.1-4.7-4.7V24.1
			c0-2.6,2.1-4.7,4.7-4.7H35.8"/>
		<path class="st3" d="M22.4,24.7c-0.1,0-0.1,0-0.2-0.1s-0.1-0.1-0.1-0.1v-0.6c0,0,0-0.1,0.1-0.1s0.1-0.1,0.1-0.1h2.1V23
			c0,0,0-0.1,0.1-0.1c0,0,0.1-0.1,0.1-0.1h1.6c0,0,0.1,0,0.1,0.1c0,0,0.1,0.1,0.1,0.1v0.7h1.9c0.1,0,0.1,0,0.2,0
			c0,0,0.1,0.1,0.1,0.1v0.6c0,0.1,0,0.1-0.1,0.2c0,0-0.1,0.1-0.2,0.1L22.4,24.7L22.4,24.7L22.4,24.7z M28.5,34.3
			c0,0-0.1,0.1-0.2,0.1h-1.9v2.8c0,0.2-0.1,0.2-0.2,0.2h-1.6c-0.1,0-0.1,0-0.2-0.1s-0.1-0.1-0.1-0.2v-2.8h-2.2c-0.1,0-0.1,0-0.2-0.1
			c0,0-0.1-0.1-0.1-0.1v-0.6c0,0,0-0.1,0.1-0.1c0,0,0.1-0.1,0.1-0.1h6.1c0.1,0,0.1,0,0.2,0c0,0,0.1,0.1,0.1,0.1v0.6
			C28.6,34.2,28.6,34.3,28.5,34.3L28.5,34.3z M38,32.2c0,0-0.1,0.1-0.1,0.1h-1.5c-0.1,0-0.1,0-0.2,0S36,32.1,36,32.1l-0.4-0.5
			L35.3,32c0,0-0.1,0.1-0.2,0.1c-0.1,0-0.1,0-0.2,0h-5.7c-0.1,0-0.1,0-0.2,0c0,0-0.1-0.1-0.1-0.1v-0.7c0-0.1,0.1-0.2,0.2-0.2h3.1v-1
			h-2.1c-0.2,0-0.4,0-0.6-0.2c-0.2-0.1-0.3-0.4-0.3-0.6v-2.9c0-0.2,0.1-0.4,0.3-0.6c0.1-0.1,0.2-0.2,0.3-0.2
			c0.1-0.1,0.2-0.1,0.4-0.1h2v-0.9h-3.1c-0.1,0-0.1,0-0.2,0c0,0-0.1-0.1-0.1-0.1v-0.7c0-0.1,0.1-0.2,0.2-0.2h3.1v-0.7
			c0,0,0-0.1,0-0.1c0,0,0.1-0.1,0.1-0.1h1.7c0,0,0.1,0,0.1,0.1c0,0,0,0.1,0,0.1v0.7h3c0.1,0,0.1,0,0.2,0c0.1,0,0.1,0.1,0.1,0.1v0.6
			c0,0.1,0,0.1-0.1,0.2c0,0-0.1,0.1-0.2,0.1h-3v0.9h2c0.3,0,0.5,0.1,0.7,0.3c0.2,0.2,0.3,0.4,0.3,0.7v2.7c0,0.3-0.1,0.5-0.3,0.6
			c-0.2,0.2-0.4,0.2-0.6,0.2h-2.1v1h1l-0.4-0.5c0,0,0-0.1,0-0.1s0.1-0.1,0.1-0.1h1.6c0.1,0,0.1,0,0.2,0.1L38,32
			C38,32.1,38,32.1,38,32.2L38,32.2z M37.5,34.3c0,0-0.1,0.1-0.2,0.1h-1v2c0,0.3-0.1,0.5-0.3,0.7c-0.1,0.1-0.2,0.2-0.3,0.2
			s-0.2,0.1-0.4,0.1h-1.5c-0.1,0-0.1,0-0.2-0.1l-0.3-0.7c0,0,0-0.1,0-0.1c0,0,0.1-0.1,0.1-0.1h0.9v-2h-5c-0.1,0-0.1,0-0.2,0
			c0,0-0.1-0.1-0.1-0.1v-0.7c0-0.1,0.1-0.2,0.2-0.2h5.1v-0.7c0-0.1,0-0.1,0.1-0.2c0.1,0,0.1-0.1,0.2-0.1h1.6c0.1,0,0.1,0,0.2,0.1
			c0,0,0.1,0.1,0.1,0.2v0.6h1c0.1,0,0.1,0,0.2,0s0.1,0.1,0.1,0.1v0.6C37.5,34.2,37.5,34.3,37.5,34.3L37.5,34.3z M33,36.7
			C33,36.7,33,36.7,33,36.7l-2,0.1c-0.1,0-0.1,0-0.2,0c-0.1,0-0.1-0.1-0.2-0.1l-1.1-1.7c0,0,0-0.1,0-0.1c0,0,0.1-0.1,0.1-0.1h2
			c0.1,0,0.2,0,0.2,0.1l1.1,1.7C33,36.6,33,36.6,33,36.7L33,36.7z M31.2,26.7v0.7h1l0-0.7H31.2L31.2,26.7z M32.3,28.4h-1v0.7h1V28.4
			L32.3,28.4z M35.4,26.7h-1v0.7h1V26.7L35.4,26.7z M35.4,28.4h-1v0.7h1V28.4L35.4,28.4z"/>
		<path class="st3" d="M27.5,26.3L25,24.6v1c-1.7,0.2-3,1.6-3,3.4c0,0.9,0.2,1.3,0.7,2l1.2-0.9c-0.1-0.1-0.4-0.5-0.4-1.2
			c0-0.9,0.7-1.7,1.5-1.9v1L27.5,26.3L27.5,26.3z"/>
		<path class="st3" d="M28.8,29c0-0.9-0.3-1.4-0.7-2l-1.2,0.9c0.3,0.3,0.4,0.7,0.4,1.2c0,0.9-0.7,1.7-1.5,1.9v-1l-2.5,1.7l2.5,1.7
			v-1C27.4,32.2,28.8,30.7,28.8,29L28.8,29z"/>
	</g>
</g>
</svg>
