<?xml version="1.0" encoding="utf-8"?>
<!-- Generator: Adobe Illustrator 26.3.1, SVG Export Plug-In . SVG Version: 6.00 Build 0)  -->
<svg version="1.1" id="圖層_1" xmlns="http://www.w3.org/2000/svg" xmlns:xlink="http://www.w3.org/1999/xlink" x="0px" y="0px"
	 viewBox="0 0 100 100" style="enable-background:new 0 0 100 100;" xml:space="preserve">
<style type="text/css">
	.st0{fill:#FFFFFF;}
	.st1{fill-rule:evenodd;clip-rule:evenodd;fill:#CF171B;}
	.st2{fill-rule:evenodd;clip-rule:evenodd;fill:#FF0055;}
</style>
<g>
	<g>
		<g>
			<g>
				<rect class="st0" width="100" height="100"/>
			</g>
		</g>
		<rect x="26.6" y="4.5" width="2.8" height="2.8"/>
		<rect x="32.1" y="4.5" width="2.8" height="2.8"/>
		<rect x="40.4" y="4.5" width="2.8" height="2.8"/>
		<rect x="43.1" y="4.5" width="2.8" height="2.8"/>
		<rect x="51.4" y="4.5" width="2.8" height="2.8"/>
		<rect x="67.9" y="4.5" width="2.8" height="2.8"/>
		<rect x="70.7" y="4.5" width="2.8" height="2.8"/>
		<rect x="26.6" y="7.3" width="2.8" height="2.8"/>
		<rect x="32.1" y="7.3" width="2.8" height="2.8"/>
		<rect x="34.8" y="7.3" width="2.8" height="2.8"/>
		<rect x="40.4" y="7.3" width="2.8" height="2.8"/>
		<rect x="48.6" y="7.3" width="2.8" height="2.8"/>
		<rect x="56.9" y="7.3" width="2.8" height="2.8"/>
		<rect x="65.2" y="7.3" width="2.8" height="2.8"/>
		<rect x="70.7" y="7.3" width="2.8" height="2.8"/>
		<rect x="26.6" y="10" width="2.8" height="2.8"/>
		<rect x="32.1" y="10" width="2.8" height="2.8"/>
		<rect x="34.8" y="10" width="2.8" height="2.8"/>
		<rect x="37.6" y="10" width="2.8" height="2.8"/>
		<rect x="45.9" y="10" width="2.8" height="2.8"/>
		<rect x="48.6" y="10" width="2.8" height="2.8"/>
		<rect x="54.1" y="10" width="2.8" height="2.8"/>
		<rect x="62.4" y="10" width="2.8" height="2.8"/>
		<rect x="67.9" y="10" width="2.8" height="2.8"/>
		<rect x="70.7" y="10" width="2.8" height="2.8"/>
		<rect x="37.6" y="12.8" width="2.8" height="2.8"/>
		<rect x="59.6" y="12.8" width="2.8" height="2.8"/>
		<rect x="65.2" y="12.8" width="2.8" height="2.8"/>
		<rect x="67.9" y="12.8" width="2.8" height="2.8"/>
		<rect x="70.7" y="12.8" width="2.8" height="2.8"/>
		<rect x="29.3" y="15.5" width="2.8" height="2.8"/>
		<rect x="37.6" y="15.5" width="2.8" height="2.8"/>
		<rect x="43.1" y="15.5" width="2.8" height="2.8"/>
		<rect x="54.1" y="15.5" width="2.8" height="2.8"/>
		<rect x="26.6" y="18.3" width="2.8" height="2.8"/>
		<rect x="29.3" y="18.3" width="2.8" height="2.8"/>
		<rect x="32.1" y="18.3" width="2.8" height="2.8"/>
		<rect x="40.4" y="18.3" width="2.8" height="2.8"/>
		<rect x="54.1" y="18.3" width="2.8" height="2.8"/>
		<rect x="65.2" y="18.3" width="2.8" height="2.8"/>
		<rect x="67.9" y="18.3" width="2.8" height="2.8"/>
		<rect x="70.7" y="18.3" width="2.8" height="2.8"/>
		<rect x="26.6" y="21.1" width="2.8" height="2.8"/>
		<rect x="32.1" y="21.1" width="2.8" height="2.8"/>
		<rect x="37.6" y="21.1" width="2.8" height="2.8"/>
		<rect x="43.1" y="21.1" width="2.8" height="2.8"/>
		<rect x="48.6" y="21.1" width="2.8" height="2.8"/>
		<rect x="54.1" y="21.1" width="2.8" height="2.8"/>
		<rect x="59.6" y="21.1" width="2.8" height="2.8"/>
		<rect x="65.2" y="21.1" width="2.8" height="2.8"/>
		<rect x="70.7" y="21.1" width="2.8" height="2.8"/>
		<rect x="26.6" y="23.8" width="2.8" height="2.8"/>
		<rect x="37.6" y="23.8" width="2.8" height="2.8"/>
		<rect x="43.1" y="23.8" width="2.8" height="2.8"/>
		<rect x="45.9" y="23.8" width="2.8" height="2.8"/>
		<rect x="51.4" y="23.8" width="2.8" height="2.8"/>
		<rect x="54.1" y="23.8" width="2.8" height="2.8"/>
		<rect x="62.4" y="23.8" width="2.8" height="2.8"/>
		<rect x="67.9" y="23.8" width="2.8" height="2.8"/>
		<rect x="10" y="26.6" width="2.8" height="2.8"/>
		<rect x="12.8" y="26.6" width="2.8" height="2.8"/>
		<rect x="15.5" y="26.6" width="2.8" height="2.8"/>
		<rect x="21.1" y="26.6" width="2.8" height="2.8"/>
		<rect x="26.6" y="26.6" width="2.8" height="2.8"/>
		<rect x="32.1" y="26.6" width="2.8" height="2.8"/>
		<rect x="34.8" y="26.6" width="2.8" height="2.8"/>
		<rect x="43.1" y="26.6" width="2.8" height="2.8"/>
		<rect x="45.9" y="26.6" width="2.8" height="2.8"/>
		<rect x="54.1" y="26.6" width="2.8" height="2.8"/>
		<rect x="65.2" y="26.6" width="2.8" height="2.8"/>
		<rect x="67.9" y="26.6" width="2.8" height="2.8"/>
		<rect x="70.7" y="26.6" width="2.8" height="2.8"/>
		<rect x="73.4" y="26.6" width="2.8" height="2.8"/>
		<rect x="76.2" y="26.6" width="2.8" height="2.8"/>
		<rect x="78.9" y="26.6" width="2.8" height="2.8"/>
		<rect x="87.2" y="26.6" width="2.8" height="2.8"/>
		<rect x="90" y="26.6" width="2.8" height="2.8"/>
		<rect x="92.7" y="26.6" width="2.8" height="2.8"/>
		<rect x="7.3" y="29.3" width="2.8" height="2.8"/>
		<rect x="10" y="29.3" width="2.8" height="2.8"/>
		<rect x="15.5" y="29.3" width="2.8" height="2.8"/>
		<rect x="18.3" y="29.3" width="2.8" height="2.8"/>
		<rect x="37.6" y="29.3" width="2.8" height="2.8"/>
		<rect x="51.4" y="29.3" width="2.8" height="2.8"/>
		<rect x="56.9" y="29.3" width="2.8" height="2.8"/>
		<rect x="59.6" y="29.3" width="2.8" height="2.8"/>
		<rect x="62.4" y="29.3" width="2.8" height="2.8"/>
		<rect x="65.2" y="29.3" width="2.8" height="2.8"/>
		<rect x="67.9" y="29.3" width="2.8" height="2.8"/>
		<rect x="70.7" y="29.3" width="2.8" height="2.8"/>
		<rect x="73.4" y="29.3" width="2.8" height="2.8"/>
		<rect x="76.2" y="29.3" width="2.8" height="2.8"/>
		<rect x="84.5" y="29.3" width="2.8" height="2.8"/>
		<rect x="87.2" y="29.3" width="2.8" height="2.8"/>
		<rect x="92.7" y="29.3" width="2.8" height="2.8"/>
		<rect x="4.5" y="32.1" width="2.8" height="2.8"/>
		<rect x="10" y="32.1" width="2.8" height="2.8"/>
		<rect x="12.8" y="32.1" width="2.8" height="2.8"/>
		<rect x="15.5" y="32.1" width="2.8" height="2.8"/>
		<rect x="18.3" y="32.1" width="2.8" height="2.8"/>
		<rect x="21.1" y="32.1" width="2.8" height="2.8"/>
		<rect x="29.3" y="32.1" width="2.8" height="2.8"/>
		<rect x="34.8" y="32.1" width="2.8" height="2.8"/>
		<rect x="37.6" y="32.1" width="2.8" height="2.8"/>
		<rect x="43.1" y="32.1" width="2.8" height="2.8"/>
		<rect x="45.9" y="32.1" width="2.8" height="2.8"/>
		<rect x="48.6" y="32.1" width="2.8" height="2.8"/>
		<rect x="51.4" y="32.1" width="2.8" height="2.8"/>
		<rect x="56.9" y="32.1" width="2.8" height="2.8"/>
		<rect x="62.4" y="32.1" width="2.8" height="2.8"/>
		<rect x="78.9" y="32.1" width="2.8" height="2.8"/>
		<rect x="90" y="32.1" width="2.8" height="2.8"/>
		<rect x="4.5" y="34.8" width="2.8" height="2.8"/>
		<rect x="7.3" y="34.8" width="2.8" height="2.8"/>
		<rect x="10" y="34.8" width="2.8" height="2.8"/>
		<rect x="15.5" y="34.8" width="2.8" height="2.8"/>
		<rect x="18.3" y="34.8" width="2.8" height="2.8"/>
		<rect x="34.8" y="34.8" width="2.8" height="2.8"/>
		<rect x="37.6" y="34.8" width="2.8" height="2.8"/>
		<rect x="45.9" y="34.8" width="2.8" height="2.8"/>
		<rect x="54.1" y="34.8" width="2.8" height="2.8"/>
		<rect x="56.9" y="34.8" width="2.8" height="2.8"/>
		<rect x="62.4" y="34.8" width="2.8" height="2.8"/>
		<rect x="65.2" y="34.8" width="2.8" height="2.8"/>
		<rect x="70.7" y="34.8" width="2.8" height="2.8"/>
		<rect x="84.5" y="34.8" width="2.8" height="2.8"/>
		<rect x="87.2" y="34.8" width="2.8" height="2.8"/>
		<rect x="90" y="34.8" width="2.8" height="2.8"/>
		<rect x="92.7" y="34.8" width="2.8" height="2.8"/>
		<rect x="4.5" y="37.6" width="2.8" height="2.8"/>
		<rect x="10" y="37.6" width="2.8" height="2.8"/>
		<rect x="12.8" y="37.6" width="2.8" height="2.8"/>
		<rect x="15.5" y="37.6" width="2.8" height="2.8"/>
		<rect x="21.1" y="37.6" width="2.8" height="2.8"/>
		<rect x="23.8" y="37.6" width="2.8" height="2.8"/>
		<rect x="26.6" y="37.6" width="2.8" height="2.8"/>
		<rect x="32.1" y="37.6" width="2.8" height="2.8"/>
		<rect x="34.8" y="37.6" width="2.8" height="2.8"/>
		<rect x="62.4" y="37.6" width="2.8" height="2.8"/>
		<rect x="67.9" y="37.6" width="2.8" height="2.8"/>
		<rect x="70.7" y="37.6" width="2.8" height="2.8"/>
		<rect x="73.4" y="37.6" width="2.8" height="2.8"/>
		<rect x="84.5" y="37.6" width="2.8" height="2.8"/>
		<rect x="7.3" y="40.4" width="2.8" height="2.8"/>
		<rect x="10" y="40.4" width="2.8" height="2.8"/>
		<rect x="15.5" y="40.4" width="2.8" height="2.8"/>
		<rect x="18.3" y="40.4" width="2.8" height="2.8"/>
		<rect x="23.8" y="40.4" width="2.8" height="2.8"/>
		<rect x="26.6" y="40.4" width="2.8" height="2.8"/>
		<rect x="34.8" y="40.4" width="2.8" height="2.8"/>
		<rect x="65.2" y="40.4" width="2.8" height="2.8"/>
		<rect x="67.9" y="40.4" width="2.8" height="2.8"/>
		<rect x="73.4" y="40.4" width="2.8" height="2.8"/>
		<rect x="76.2" y="40.4" width="2.8" height="2.8"/>
		<rect x="78.9" y="40.4" width="2.8" height="2.8"/>
		<rect x="84.5" y="40.4" width="2.8" height="2.8"/>
		<rect x="92.7" y="40.4" width="2.8" height="2.8"/>
		<rect x="10" y="43.1" width="2.8" height="2.8"/>
		<rect x="12.8" y="43.1" width="2.8" height="2.8"/>
		<rect x="15.5" y="43.1" width="2.8" height="2.8"/>
		<rect x="18.3" y="43.1" width="2.8" height="2.8"/>
		<rect x="21.1" y="43.1" width="2.8" height="2.8"/>
		<rect x="65.2" y="43.1" width="2.8" height="2.8"/>
		<rect x="73.4" y="43.1" width="2.8" height="2.8"/>
		<rect x="84.5" y="43.1" width="2.8" height="2.8"/>
		<rect x="90" y="43.1" width="2.8" height="2.8"/>
		<rect x="7.3" y="45.9" width="2.8" height="2.8"/>
		<rect x="12.8" y="45.9" width="2.8" height="2.8"/>
		<rect x="15.5" y="45.9" width="2.8" height="2.8"/>
		<rect x="32.1" y="45.9" width="2.8" height="2.8"/>
		<rect x="34.8" y="45.9" width="2.8" height="2.8"/>
		<rect x="62.4" y="45.9" width="2.8" height="2.8"/>
		<rect x="65.2" y="45.9" width="2.8" height="2.8"/>
		<rect x="70.7" y="45.9" width="2.8" height="2.8"/>
		<rect x="78.9" y="45.9" width="2.8" height="2.8"/>
		<rect x="87.2" y="45.9" width="2.8" height="2.8"/>
		<rect x="90" y="45.9" width="2.8" height="2.8"/>
		<rect x="92.7" y="45.9" width="2.8" height="2.8"/>
		<rect x="4.5" y="48.6" width="2.8" height="2.8"/>
		<rect x="7.3" y="48.6" width="2.8" height="2.8"/>
		<rect x="10" y="48.6" width="2.8" height="2.8"/>
		<rect x="15.5" y="48.6" width="2.8" height="2.8"/>
		<rect x="18.3" y="48.6" width="2.8" height="2.8"/>
		<rect x="21.1" y="48.6" width="2.8" height="2.8"/>
		<rect x="23.8" y="48.6" width="2.8" height="2.8"/>
		<rect x="26.6" y="48.6" width="2.8" height="2.8"/>
		<rect x="29.3" y="48.6" width="2.8" height="2.8"/>
		<rect x="32.1" y="48.6" width="2.8" height="2.8"/>
		<rect x="34.8" y="48.6" width="2.8" height="2.8"/>
		<rect x="67.9" y="48.6" width="2.8" height="2.8"/>
		<rect x="73.4" y="48.6" width="2.8" height="2.8"/>
		<rect x="78.9" y="48.6" width="2.8" height="2.8"/>
		<rect x="81.7" y="48.6" width="2.8" height="2.8"/>
		<rect x="87.2" y="48.6" width="2.8" height="2.8"/>
		<rect x="92.7" y="48.6" width="2.8" height="2.8"/>
		<rect x="10" y="51.4" width="2.8" height="2.8"/>
		<rect x="12.8" y="51.4" width="2.8" height="2.8"/>
		<rect x="18.3" y="51.4" width="2.8" height="2.8"/>
		<rect x="23.8" y="51.4" width="2.8" height="2.8"/>
		<rect x="26.6" y="51.4" width="2.8" height="2.8"/>
		<rect x="34.8" y="51.4" width="2.8" height="2.8"/>
		<rect x="62.4" y="51.4" width="2.8" height="2.8"/>
		<rect x="67.9" y="51.4" width="2.8" height="2.8"/>
		<rect x="70.7" y="51.4" width="2.8" height="2.8"/>
		<rect x="76.2" y="51.4" width="2.8" height="2.8"/>
		<rect x="92.7" y="51.4" width="2.8" height="2.8"/>
		<rect x="4.5" y="54.1" width="2.8" height="2.8"/>
		<rect x="7.3" y="54.1" width="2.8" height="2.8"/>
		<rect x="10" y="54.1" width="2.8" height="2.8"/>
		<rect x="12.8" y="54.1" width="2.8" height="2.8"/>
		<rect x="21.1" y="54.1" width="2.8" height="2.8"/>
		<rect x="26.6" y="54.1" width="2.8" height="2.8"/>
		<rect x="29.3" y="54.1" width="2.8" height="2.8"/>
		<rect x="32.1" y="54.1" width="2.8" height="2.8"/>
		<rect x="34.8" y="54.1" width="2.8" height="2.8"/>
		<rect x="65.2" y="54.1" width="2.8" height="2.8"/>
		<rect x="73.4" y="54.1" width="2.8" height="2.8"/>
		<rect x="76.2" y="54.1" width="2.8" height="2.8"/>
		<rect x="87.2" y="54.1" width="2.8" height="2.8"/>
		<rect x="4.5" y="56.9" width="2.8" height="2.8"/>
		<rect x="12.8" y="56.9" width="2.8" height="2.8"/>
		<rect x="15.5" y="56.9" width="2.8" height="2.8"/>
		<rect x="62.4" y="56.9" width="2.8" height="2.8"/>
		<rect x="65.2" y="56.9" width="2.8" height="2.8"/>
		<rect x="67.9" y="56.9" width="2.8" height="2.8"/>
		<rect x="70.7" y="56.9" width="2.8" height="2.8"/>
		<rect x="76.2" y="56.9" width="2.8" height="2.8"/>
		<rect x="78.9" y="56.9" width="2.8" height="2.8"/>
		<rect x="81.7" y="56.9" width="2.8" height="2.8"/>
		<rect x="84.5" y="56.9" width="2.8" height="2.8"/>
		<rect x="87.2" y="56.9" width="2.8" height="2.8"/>
		<rect x="90" y="56.9" width="2.8" height="2.8"/>
		<rect x="92.7" y="56.9" width="2.8" height="2.8"/>
		<rect x="4.5" y="59.6" width="2.8" height="2.8"/>
		<rect x="12.8" y="59.6" width="2.8" height="2.8"/>
		<rect x="15.5" y="59.6" width="2.8" height="2.8"/>
		<rect x="21.1" y="59.6" width="2.8" height="2.8"/>
		<rect x="23.8" y="59.6" width="2.8" height="2.8"/>
		<rect x="73.4" y="59.6" width="2.8" height="2.8"/>
		<rect x="76.2" y="59.6" width="2.8" height="2.8"/>
		<rect x="81.7" y="59.6" width="2.8" height="2.8"/>
		<rect x="84.5" y="59.6" width="2.8" height="2.8"/>
		<rect x="90" y="59.6" width="2.8" height="2.8"/>
		<rect x="4.5" y="62.4" width="2.8" height="2.8"/>
		<rect x="7.3" y="62.4" width="2.8" height="2.8"/>
		<rect x="10" y="62.4" width="2.8" height="2.8"/>
		<rect x="12.8" y="62.4" width="2.8" height="2.8"/>
		<rect x="15.5" y="62.4" width="2.8" height="2.8"/>
		<rect x="23.8" y="62.4" width="2.8" height="2.8"/>
		<rect x="32.1" y="62.4" width="2.8" height="2.8"/>
		<rect x="37.6" y="62.4" width="2.8" height="2.8"/>
		<rect x="40.4" y="62.4" width="2.8" height="2.8"/>
		<rect x="54.1" y="62.4" width="2.8" height="2.8"/>
		<rect x="59.6" y="62.4" width="2.8" height="2.8"/>
		<rect x="62.4" y="62.4" width="2.8" height="2.8"/>
		<rect x="70.7" y="62.4" width="2.8" height="2.8"/>
		<rect x="92.7" y="62.4" width="2.8" height="2.8"/>
		<rect x="4.5" y="65.2" width="2.8" height="2.8"/>
		<rect x="10" y="65.2" width="2.8" height="2.8"/>
		<rect x="21.1" y="65.2" width="2.8" height="2.8"/>
		<rect x="23.8" y="65.2" width="2.8" height="2.8"/>
		<rect x="26.6" y="65.2" width="2.8" height="2.8"/>
		<rect x="32.1" y="65.2" width="2.8" height="2.8"/>
		<rect x="34.8" y="65.2" width="2.8" height="2.8"/>
		<rect x="37.6" y="65.2" width="2.8" height="2.8"/>
		<rect x="45.9" y="65.2" width="2.8" height="2.8"/>
		<rect x="54.1" y="65.2" width="2.8" height="2.8"/>
		<rect x="56.9" y="65.2" width="2.8" height="2.8"/>
		<rect x="62.4" y="65.2" width="2.8" height="2.8"/>
		<rect x="65.2" y="65.2" width="2.8" height="2.8"/>
		<rect x="81.7" y="65.2" width="2.8" height="2.8"/>
		<rect x="87.2" y="65.2" width="2.8" height="2.8"/>
		<rect x="90" y="65.2" width="2.8" height="2.8"/>
		<rect x="4.5" y="67.9" width="2.8" height="2.8"/>
		<rect x="10" y="67.9" width="2.8" height="2.8"/>
		<rect x="12.8" y="67.9" width="2.8" height="2.8"/>
		<rect x="18.3" y="67.9" width="2.8" height="2.8"/>
		<rect x="23.8" y="67.9" width="2.8" height="2.8"/>
		<rect x="26.6" y="67.9" width="2.8" height="2.8"/>
		<rect x="29.3" y="67.9" width="2.8" height="2.8"/>
		<rect x="32.1" y="67.9" width="2.8" height="2.8"/>
		<rect x="37.6" y="67.9" width="2.8" height="2.8"/>
		<rect x="40.4" y="67.9" width="2.8" height="2.8"/>
		<rect x="43.1" y="67.9" width="2.8" height="2.8"/>
		<rect x="45.9" y="67.9" width="2.8" height="2.8"/>
		<rect x="54.1" y="67.9" width="2.8" height="2.8"/>
		<rect x="56.9" y="67.9" width="2.8" height="2.8"/>
		<rect x="62.4" y="67.9" width="2.8" height="2.8"/>
		<rect x="70.7" y="67.9" width="2.8" height="2.8"/>
		<rect x="81.7" y="67.9" width="2.8" height="2.8"/>
		<rect x="84.5" y="67.9" width="2.8" height="2.8"/>
		<rect x="87.2" y="67.9" width="2.8" height="2.8"/>
		<rect x="92.7" y="67.9" width="2.8" height="2.8"/>
		<rect x="4.5" y="70.7" width="2.8" height="2.8"/>
		<rect x="10" y="70.7" width="2.8" height="2.8"/>
		<rect x="15.5" y="70.7" width="2.8" height="2.8"/>
		<rect x="21.1" y="70.7" width="2.8" height="2.8"/>
		<rect x="32.1" y="70.7" width="2.8" height="2.8"/>
		<rect x="34.8" y="70.7" width="2.8" height="2.8"/>
		<rect x="65.2" y="70.7" width="2.8" height="2.8"/>
		<rect x="70.7" y="70.7" width="2.8" height="2.8"/>
		<rect x="73.4" y="70.7" width="2.8" height="2.8"/>
		<rect x="76.2" y="70.7" width="2.8" height="2.8"/>
		<rect x="78.9" y="70.7" width="2.8" height="2.8"/>
		<rect x="81.7" y="70.7" width="2.8" height="2.8"/>
		<rect x="90" y="70.7" width="2.8" height="2.8"/>
		<rect x="92.7" y="70.7" width="2.8" height="2.8"/>
		<rect x="26.6" y="73.4" width="2.8" height="2.8"/>
		<rect x="29.3" y="73.4" width="2.8" height="2.8"/>
		<rect x="32.1" y="73.4" width="2.8" height="2.8"/>
		<rect x="34.8" y="73.4" width="2.8" height="2.8"/>
		<rect x="40.4" y="73.4" width="2.8" height="2.8"/>
		<rect x="59.6" y="73.4" width="2.8" height="2.8"/>
		<rect x="65.2" y="73.4" width="2.8" height="2.8"/>
		<rect x="67.9" y="73.4" width="2.8" height="2.8"/>
		<rect x="70.7" y="73.4" width="2.8" height="2.8"/>
		<rect x="81.7" y="73.4" width="2.8" height="2.8"/>
		<rect x="87.2" y="73.4" width="2.8" height="2.8"/>
		<rect x="90" y="73.4" width="2.8" height="2.8"/>
		<rect x="92.7" y="73.4" width="2.8" height="2.8"/>
		<rect x="29.3" y="76.2" width="2.8" height="2.8"/>
		<rect x="37.6" y="76.2" width="2.8" height="2.8"/>
		<rect x="40.4" y="76.2" width="2.8" height="2.8"/>
		<rect x="48.6" y="76.2" width="2.8" height="2.8"/>
		<rect x="51.4" y="76.2" width="2.8" height="2.8"/>
		<rect x="56.9" y="76.2" width="2.8" height="2.8"/>
		<rect x="65.2" y="76.2" width="2.8" height="2.8"/>
		<rect x="67.9" y="76.2" width="2.8" height="2.8"/>
		<rect x="70.7" y="76.2" width="2.8" height="2.8"/>
		<rect x="76.2" y="76.2" width="2.8" height="2.8"/>
		<rect x="81.7" y="76.2" width="2.8" height="2.8"/>
		<rect x="90" y="76.2" width="2.8" height="2.8"/>
		<rect x="32.1" y="78.9" width="2.8" height="2.8"/>
		<rect x="34.8" y="78.9" width="2.8" height="2.8"/>
		<rect x="40.4" y="78.9" width="2.8" height="2.8"/>
		<rect x="43.1" y="78.9" width="2.8" height="2.8"/>
		<rect x="54.1" y="78.9" width="2.8" height="2.8"/>
		<rect x="59.6" y="78.9" width="2.8" height="2.8"/>
		<rect x="67.9" y="78.9" width="2.8" height="2.8"/>
		<rect x="70.7" y="78.9" width="2.8" height="2.8"/>
		<rect x="81.7" y="78.9" width="2.8" height="2.8"/>
		<rect x="84.5" y="78.9" width="2.8" height="2.8"/>
		<rect x="87.2" y="78.9" width="2.8" height="2.8"/>
		<rect x="90" y="78.9" width="2.8" height="2.8"/>
		<rect x="92.7" y="78.9" width="2.8" height="2.8"/>
		<rect x="26.6" y="81.7" width="2.8" height="2.8"/>
		<rect x="29.3" y="81.7" width="2.8" height="2.8"/>
		<rect x="32.1" y="81.7" width="2.8" height="2.8"/>
		<rect x="34.8" y="81.7" width="2.8" height="2.8"/>
		<rect x="37.6" y="81.7" width="2.8" height="2.8"/>
		<rect x="43.1" y="81.7" width="2.8" height="2.8"/>
		<rect x="45.9" y="81.7" width="2.8" height="2.8"/>
		<rect x="48.6" y="81.7" width="2.8" height="2.8"/>
		<rect x="56.9" y="81.7" width="2.8" height="2.8"/>
		<rect x="59.6" y="81.7" width="2.8" height="2.8"/>
		<rect x="62.4" y="81.7" width="2.8" height="2.8"/>
		<rect x="65.2" y="81.7" width="2.8" height="2.8"/>
		<rect x="70.7" y="81.7" width="2.8" height="2.8"/>
		<rect x="73.4" y="81.7" width="2.8" height="2.8"/>
		<rect x="76.2" y="81.7" width="2.8" height="2.8"/>
		<rect x="78.9" y="81.7" width="2.8" height="2.8"/>
		<rect x="81.7" y="81.7" width="2.8" height="2.8"/>
		<rect x="90" y="81.7" width="2.8" height="2.8"/>
		<rect x="92.7" y="81.7" width="2.8" height="2.8"/>
		<rect x="26.6" y="84.5" width="2.8" height="2.8"/>
		<rect x="34.8" y="84.5" width="2.8" height="2.8"/>
		<rect x="37.6" y="84.5" width="2.8" height="2.8"/>
		<rect x="45.9" y="84.5" width="2.8" height="2.8"/>
		<rect x="48.6" y="84.5" width="2.8" height="2.8"/>
		<rect x="54.1" y="84.5" width="2.8" height="2.8"/>
		<rect x="56.9" y="84.5" width="2.8" height="2.8"/>
		<rect x="67.9" y="84.5" width="2.8" height="2.8"/>
		<rect x="70.7" y="84.5" width="2.8" height="2.8"/>
		<rect x="73.4" y="84.5" width="2.8" height="2.8"/>
		<rect x="81.7" y="84.5" width="2.8" height="2.8"/>
		<rect x="84.5" y="84.5" width="2.8" height="2.8"/>
		<rect x="90" y="84.5" width="2.8" height="2.8"/>
		<rect x="26.6" y="87.2" width="2.8" height="2.8"/>
		<rect x="37.6" y="87.2" width="2.8" height="2.8"/>
		<rect x="40.4" y="87.2" width="2.8" height="2.8"/>
		<rect x="45.9" y="87.2" width="2.8" height="2.8"/>
		<rect x="56.9" y="87.2" width="2.8" height="2.8"/>
		<rect x="59.6" y="87.2" width="2.8" height="2.8"/>
		<rect x="65.2" y="87.2" width="2.8" height="2.8"/>
		<rect x="70.7" y="87.2" width="2.8" height="2.8"/>
		<rect x="73.4" y="87.2" width="2.8" height="2.8"/>
		<rect x="76.2" y="87.2" width="2.8" height="2.8"/>
		<rect x="37.6" y="90" width="2.8" height="2.8"/>
		<rect x="45.9" y="90" width="2.8" height="2.8"/>
		<rect x="48.6" y="90" width="2.8" height="2.8"/>
		<rect x="51.4" y="90" width="2.8" height="2.8"/>
		<rect x="54.1" y="90" width="2.8" height="2.8"/>
		<rect x="56.9" y="90" width="2.8" height="2.8"/>
		<rect x="59.6" y="90" width="2.8" height="2.8"/>
		<rect x="62.4" y="90" width="2.8" height="2.8"/>
		<rect x="65.2" y="90" width="2.8" height="2.8"/>
		<rect x="78.9" y="90" width="2.8" height="2.8"/>
		<rect x="84.5" y="90" width="2.8" height="2.8"/>
		<rect x="29.3" y="92.7" width="2.8" height="2.8"/>
		<rect x="34.8" y="92.7" width="2.8" height="2.8"/>
		<rect x="37.6" y="92.7" width="2.8" height="2.8"/>
		<rect x="43.1" y="92.7" width="2.8" height="2.8"/>
		<rect x="45.9" y="92.7" width="2.8" height="2.8"/>
		<rect x="48.6" y="92.7" width="2.8" height="2.8"/>
		<rect x="56.9" y="92.7" width="2.8" height="2.8"/>
		<rect x="59.6" y="92.7" width="2.8" height="2.8"/>
		<rect x="65.2" y="92.7" width="2.8" height="2.8"/>
		<rect x="67.9" y="92.7" width="2.8" height="2.8"/>
		<rect x="70.7" y="92.7" width="2.8" height="2.8"/>
		<rect x="87.2" y="92.7" width="2.8" height="2.8"/>
		<rect x="90" y="92.7" width="2.8" height="2.8"/>
		<path d="M4.5,4.5v19.3h19.3V4.5H4.5L4.5,4.5z M21.1,21.1H7.3V7.3h13.8V21.1L21.1,21.1z"/>
		<path d="M76.2,4.5v19.3h19.3V4.5H76.2L76.2,4.5z M92.7,21.1H78.9V7.3h13.8V21.1L92.7,21.1z"/>
		<path d="M4.5,76.2v19.3h19.3V76.2H4.5L4.5,76.2z M21.1,92.7H7.3V78.9h13.8V92.7L21.1,92.7z"/>
		<rect x="10" y="10" width="8.3" height="8.3"/>
		<rect x="81.7" y="10" width="8.3" height="8.3"/>
		<rect x="10" y="81.7" width="8.3" height="8.3"/>
	</g>
	<g>
		<path class="st0" d="M59.3,31.4H40.7c-5.2,0-9.4,4.2-9.4,9.4v18.5c0,5.2,4.2,9.4,9.4,9.4h18.5c5.2,0,9.4-4.2,9.4-9.4V40.7
			C68.6,35.6,64.4,31.4,59.3,31.4L59.3,31.4z"/>
		<path class="st1" d="M41.2,66.7c-4.4,0-7.9-3.6-7.9-7.9V41.2c0-4.4,3.6-7.9,7.9-7.9h17.5c4.4,0,7.9,3.6,7.9,7.9v17.5
			c0,4.4-3.6,7.9-7.9,7.9H41.2L41.2,66.7z"/>
	</g>
	<g>
		<path class="st2" d="M40.7,33.2h18.6c4.1,0,7.4,3.3,7.4,7.4v18.6c0,4.1-3.3,7.4-7.4,7.4H40.7c-4.1,0-7.4-3.3-7.4-7.4V40.6
			C33.3,36.5,36.6,33.2,40.7,33.2z"/>
		<g>
			<g>
				<path class="st0" d="M37.9,42.7c-0.1,0-0.2,0-0.2-0.1c-0.1-0.1-0.1-0.1-0.1-0.2v-1.3c0-0.1,0-0.2,0.1-0.2
					c0.1-0.1,0.1-0.1,0.2-0.1h3.3v-2.1c0-0.1,0-0.2,0.1-0.2c0.1-0.1,0.1-0.1,0.2-0.1h2.6c0.1,0,0.1,0,0.2,0.1
					c0.1,0.1,0.1,0.1,0.1,0.2v2.1h2.9c0.1,0,0.2,0,0.3,0.1c0.1,0.1,0.1,0.1,0.1,0.2v1.2c0,0.1,0,0.2-0.1,0.3
					c-0.1,0.1-0.2,0.1-0.2,0.1H37.9z M47.6,58c-0.1,0.1-0.2,0.1-0.2,0.1h-3v2.8c0,0.3-0.1,0.4-0.4,0.4h-2.5c-0.1,0-0.2,0-0.2-0.1
					c-0.1-0.1-0.1-0.2-0.1-0.2v-2.8h-3.4c-0.1,0-0.2,0-0.2-0.1c-0.1-0.1-0.1-0.1-0.1-0.2v-1.3c0-0.1,0-0.2,0.1-0.2
					c0.1-0.1,0.1-0.1,0.2-0.1h9.5c0.1,0,0.2,0,0.3,0.1c0.1,0.1,0.1,0.1,0.1,0.2v1.3C47.7,57.8,47.7,57.9,47.6,58z M62.5,53.1
					c0,0.1-0.1,0.1-0.2,0.1H60c-0.1,0-0.2,0-0.4-0.1c-0.1,0-0.2-0.1-0.3-0.2l-0.7-0.8l-0.5,0.7c-0.1,0.1-0.2,0.2-0.3,0.2
					c-0.1,0.1-0.2,0.1-0.3,0.1h-9c-0.1,0-0.2,0-0.2-0.1c-0.1-0.1-0.1-0.1-0.1-0.2v-1.1c0-0.2,0.1-0.3,0.3-0.3h4.8V50h-3.3
					c-0.3,0-0.6-0.1-0.9-0.3c-0.3-0.2-0.5-0.6-0.5-1v-4.5c0-0.4,0.1-0.7,0.4-0.9c0.1-0.1,0.3-0.3,0.5-0.4c0.2-0.1,0.4-0.1,0.6-0.1
					h3.1v-1.4h-4.9c-0.1,0-0.2,0-0.2-0.1c-0.1-0.1-0.1-0.1-0.1-0.2v-1.1c0-0.2,0.1-0.3,0.3-0.3h4.9v-1.1c0-0.1,0-0.2,0.1-0.2
					c0.1-0.1,0.1-0.1,0.2-0.1h2.7c0.1,0,0.1,0,0.2,0.1c0.1,0.1,0.1,0.1,0.1,0.2v1.1h4.6c0.1,0,0.2,0,0.3,0.1
					c0.1,0.1,0.1,0.1,0.1,0.2v1c0,0.1,0,0.2-0.1,0.3c-0.1,0.1-0.2,0.1-0.2,0.1h-4.7v1.4h3.1c0.5,0,0.8,0.2,1.1,0.5
					c0.3,0.3,0.4,0.6,0.4,1.1v4.2c0,0.4-0.1,0.8-0.4,1c-0.3,0.3-0.6,0.4-1,0.4h-3.2v1.6h1.5l-0.6-0.8c-0.1-0.1-0.1-0.1,0-0.2
					c0-0.1,0.1-0.1,0.2-0.1h2.6c0.1,0,0.2,0.1,0.4,0.2l1.7,2.1C62.5,52.9,62.5,53,62.5,53.1z M61.6,56.5c-0.1,0.1-0.2,0.1-0.2,0.1
					h-1.5v3.1c0,0.4-0.2,0.8-0.5,1.1c-0.1,0.1-0.3,0.3-0.5,0.4c-0.2,0.1-0.4,0.1-0.6,0.1h-2.4c-0.1,0-0.2-0.1-0.3-0.2L55,60
					c0,0,0-0.1,0-0.2c0-0.1,0.1-0.1,0.1-0.1h1.4v-3.1h-7.9c-0.1,0-0.2,0-0.2-0.1c-0.1-0.1-0.1-0.1-0.1-0.2v-1.1
					c0-0.2,0.1-0.3,0.3-0.3h8v-1c0-0.1,0-0.2,0.1-0.3c0.1-0.1,0.2-0.1,0.3-0.1h2.4c0.1,0,0.2,0,0.3,0.1c0.1,0.1,0.1,0.2,0.1,0.3v1
					h1.5c0.1,0,0.2,0,0.3,0.1c0.1,0.1,0.1,0.1,0.1,0.2v1C61.7,56.3,61.7,56.4,61.6,56.5z M54.6,60.2c0,0.1-0.1,0.1-0.1,0.1h-3
					c-0.1,0-0.2,0-0.4-0.1c-0.1,0-0.2-0.1-0.3-0.2l-1.8-2.7c0-0.1,0-0.1,0-0.2c0-0.1,0.1-0.1,0.2-0.1h3.1c0.1,0,0.3,0.1,0.4,0.2
					l1.8,2.7C54.6,60,54.6,60.1,54.6,60.2z M51.9,44.5v1.1h1.6l0-1.1H51.9z M53.5,47.3h-1.6v1.1h1.6V47.3z M58.3,44.5h-1.6v1.1h1.6
					V44.5z M58.3,47.3h-1.6v1.1h1.6V47.3z"/>
			</g>
			<g>
				<path class="st0" d="M45.9,45.1l-4-2.7v1.5c-2.7,0.3-4.8,2.6-4.8,5.3c0,1.4,0.5,2.7,1.5,3.7l2-1.4c-0.1-0.1-1.1-0.9-1.1-2.4
					c0-1.5,1-2.7,2.4-3v1.5L45.9,45.1z"/>
				<path class="st0" d="M47.9,49.3c0-1.4-0.6-2.7-1.5-3.7c0,0-2,1.4-2,1.4c0.7,0.6,1.1,1.4,1.1,2.4c0,1.5-1,2.7-2.4,3v-1.5l-4,2.7
					l4,2.7v-1.5C45.9,54.3,47.9,52,47.9,49.3z"/>
			</g>
		</g>
	</g>
</g>
</svg>
