<?xml version="1.0" encoding="utf-8"?>
<!-- Generator: Adobe Illustrator 26.3.1, SVG Export Plug-In . SVG Version: 6.00 Build 0)  -->
<svg version="1.1" id="圖層_1" xmlns="http://www.w3.org/2000/svg" xmlns:xlink="http://www.w3.org/1999/xlink" x="0px" y="0px"
	 viewBox="0 0 60 60" style="enable-background:new 0 0 60 60;" xml:space="preserve">
<style type="text/css">
	.st0{clip-path:url(#SVGID_00000093860827176854206190000006139860063891593893_);fill:#FFFFFF;}
	.st1{fill:#FFFFFF;}
	.st2{fill:#FF0055;}
</style>
<g>
	<g>
		<defs>
			<rect id="SVGID_1_" x="-0.1" y="0" width="60" height="60"/>
		</defs>
		<clipPath id="SVGID_00000144326894496207587730000008426766165632143272_">
			<use xlink:href="#SVGID_1_"  style="overflow:visible;"/>
		</clipPath>
		
			<rect x="-0.1" y="0" style="clip-path:url(#SVGID_00000144326894496207587730000008426766165632143272_);fill:#FFFFFF;" width="60" height="60"/>
	</g>
	<rect x="15.9" y="2.7" width="1.7" height="1.7"/>
	<rect x="17.6" y="2.7" width="1.7" height="1.7"/>
	<rect x="19.2" y="2.7" width="1.7" height="1.7"/>
	<rect x="25.8" y="2.7" width="1.7" height="1.7"/>
	<rect x="27.5" y="2.7" width="1.7" height="1.7"/>
	<rect x="32.4" y="2.7" width="1.7" height="1.7"/>
	<rect x="34.1" y="2.7" width="1.7" height="1.7"/>
	<rect x="35.7" y="2.7" width="1.7" height="1.7"/>
	<rect x="37.4" y="2.7" width="1.7" height="1.7"/>
	<rect x="40.7" y="2.7" width="1.7" height="1.7"/>
	<rect x="42.3" y="2.7" width="1.7" height="1.7"/>
	<rect x="15.9" y="4.4" width="1.7" height="1.7"/>
	<rect x="17.6" y="4.4" width="1.7" height="1.7"/>
	<rect x="20.9" y="4.4" width="1.7" height="1.7"/>
	<rect x="24.2" y="4.4" width="1.7" height="1.7"/>
	<rect x="29.1" y="4.4" width="1.7" height="1.7"/>
	<rect x="37.4" y="4.4" width="1.7" height="1.7"/>
	<rect x="39" y="4.4" width="1.7" height="1.7"/>
	<rect x="42.3" y="4.4" width="1.7" height="1.7"/>
	<rect x="15.9" y="6" width="1.7" height="1.7"/>
	<rect x="20.9" y="6" width="1.7" height="1.7"/>
	<rect x="22.5" y="6" width="1.7" height="1.7"/>
	<rect x="24.2" y="6" width="1.7" height="1.7"/>
	<rect x="25.8" y="6" width="1.7" height="1.7"/>
	<rect x="29.1" y="6" width="1.7" height="1.7"/>
	<rect x="37.4" y="6" width="1.7" height="1.7"/>
	<rect x="40.7" y="6" width="1.7" height="1.7"/>
	<rect x="42.3" y="6" width="1.7" height="1.7"/>
	<rect x="19.2" y="7.7" width="1.7" height="1.7"/>
	<rect x="22.5" y="7.7" width="1.7" height="1.7"/>
	<rect x="29.1" y="7.7" width="1.7" height="1.7"/>
	<rect x="39" y="7.7" width="1.7" height="1.7"/>
	<rect x="40.7" y="7.7" width="1.7" height="1.7"/>
	<rect x="17.6" y="9.3" width="1.7" height="1.7"/>
	<rect x="20.9" y="9.3" width="1.7" height="1.7"/>
	<rect x="24.2" y="9.3" width="1.7" height="1.7"/>
	<rect x="25.8" y="9.3" width="1.7" height="1.7"/>
	<rect x="30.8" y="9.3" width="1.7" height="1.7"/>
	<rect x="32.4" y="9.3" width="1.7" height="1.7"/>
	<rect x="39" y="9.3" width="1.7" height="1.7"/>
	<rect x="40.7" y="9.3" width="1.7" height="1.7"/>
	<rect x="15.9" y="11" width="1.7" height="1.7"/>
	<rect x="24.2" y="11" width="1.7" height="1.7"/>
	<rect x="25.8" y="11" width="1.7" height="1.7"/>
	<rect x="30.8" y="11" width="1.7" height="1.7"/>
	<rect x="34.1" y="11" width="1.7" height="1.7"/>
	<rect x="39" y="11" width="1.7" height="1.7"/>
	<rect x="15.9" y="12.6" width="1.7" height="1.7"/>
	<rect x="19.2" y="12.6" width="1.7" height="1.7"/>
	<rect x="22.5" y="12.6" width="1.7" height="1.7"/>
	<rect x="25.8" y="12.6" width="1.7" height="1.7"/>
	<rect x="29.1" y="12.6" width="1.7" height="1.7"/>
	<rect x="32.4" y="12.6" width="1.7" height="1.7"/>
	<rect x="35.7" y="12.6" width="1.7" height="1.7"/>
	<rect x="39" y="12.6" width="1.7" height="1.7"/>
	<rect x="42.3" y="12.6" width="1.7" height="1.7"/>
	<rect x="15.9" y="14.3" width="1.7" height="1.7"/>
	<rect x="22.5" y="14.3" width="1.7" height="1.7"/>
	<rect x="24.2" y="14.3" width="1.7" height="1.7"/>
	<rect x="27.5" y="14.3" width="1.7" height="1.7"/>
	<rect x="29.1" y="14.3" width="1.7" height="1.7"/>
	<rect x="30.8" y="14.3" width="1.7" height="1.7"/>
	<rect x="37.4" y="14.3" width="1.7" height="1.7"/>
	<rect x="39" y="14.3" width="1.7" height="1.7"/>
	<rect x="6" y="15.9" width="1.7" height="1.7"/>
	<rect x="7.6" y="15.9" width="1.7" height="1.7"/>
	<rect x="9.3" y="15.9" width="1.7" height="1.7"/>
	<rect x="12.6" y="15.9" width="1.7" height="1.7"/>
	<rect x="15.9" y="15.9" width="1.7" height="1.7"/>
	<rect x="17.6" y="15.9" width="1.7" height="1.7"/>
	<rect x="25.8" y="15.9" width="1.7" height="1.7"/>
	<rect x="27.5" y="15.9" width="1.7" height="1.7"/>
	<rect x="29.1" y="15.9" width="1.7" height="1.7"/>
	<rect x="34.1" y="15.9" width="1.7" height="1.7"/>
	<rect x="39" y="15.9" width="1.7" height="1.7"/>
	<rect x="42.3" y="15.9" width="1.7" height="1.7"/>
	<rect x="44" y="15.9" width="1.7" height="1.7"/>
	<rect x="45.6" y="15.9" width="1.7" height="1.7"/>
	<rect x="47.3" y="15.9" width="1.7" height="1.7"/>
	<rect x="52.2" y="15.9" width="1.7" height="1.7"/>
	<rect x="53.9" y="15.9" width="1.7" height="1.7"/>
	<rect x="55.5" y="15.9" width="1.7" height="1.7"/>
	<rect x="2.7" y="17.6" width="1.7" height="1.7"/>
	<rect x="4.3" y="17.6" width="1.7" height="1.7"/>
	<rect x="6" y="17.6" width="1.7" height="1.7"/>
	<rect x="7.6" y="17.6" width="1.7" height="1.7"/>
	<rect x="14.2" y="17.6" width="1.7" height="1.7"/>
	<rect x="15.9" y="17.6" width="1.7" height="1.7"/>
	<rect x="17.6" y="17.6" width="1.7" height="1.7"/>
	<rect x="20.9" y="17.6" width="1.7" height="1.7"/>
	<rect x="25.8" y="17.6" width="1.7" height="1.7"/>
	<rect x="27.5" y="17.6" width="1.7" height="1.7"/>
	<rect x="29.1" y="17.6" width="1.7" height="1.7"/>
	<rect x="30.8" y="17.6" width="1.7" height="1.7"/>
	<rect x="32.4" y="17.6" width="1.7" height="1.7"/>
	<rect x="37.4" y="17.6" width="1.7" height="1.7"/>
	<rect x="40.7" y="17.6" width="1.7" height="1.7"/>
	<rect x="42.3" y="17.6" width="1.7" height="1.7"/>
	<rect x="44" y="17.6" width="1.7" height="1.7"/>
	<rect x="45.6" y="17.6" width="1.7" height="1.7"/>
	<rect x="52.2" y="17.6" width="1.7" height="1.7"/>
	<rect x="55.5" y="17.6" width="1.7" height="1.7"/>
	<rect x="2.7" y="19.2" width="1.7" height="1.7"/>
	<rect x="7.6" y="19.2" width="1.7" height="1.7"/>
	<rect x="10.9" y="19.2" width="1.7" height="1.7"/>
	<rect x="12.6" y="19.2" width="1.7" height="1.7"/>
	<rect x="14.2" y="19.2" width="1.7" height="1.7"/>
	<rect x="17.6" y="19.2" width="1.7" height="1.7"/>
	<rect x="22.5" y="19.2" width="1.7" height="1.7"/>
	<rect x="29.1" y="19.2" width="1.7" height="1.7"/>
	<rect x="35.7" y="19.2" width="1.7" height="1.7"/>
	<rect x="44" y="19.2" width="1.7" height="1.7"/>
	<rect x="45.6" y="19.2" width="1.7" height="1.7"/>
	<rect x="47.3" y="19.2" width="1.7" height="1.7"/>
	<rect x="50.6" y="19.2" width="1.7" height="1.7"/>
	<rect x="53.9" y="19.2" width="1.7" height="1.7"/>
	<rect x="2.7" y="20.9" width="1.7" height="1.7"/>
	<rect x="4.3" y="20.9" width="1.7" height="1.7"/>
	<rect x="6" y="20.9" width="1.7" height="1.7"/>
	<rect x="14.2" y="20.9" width="1.7" height="1.7"/>
	<rect x="15.9" y="20.9" width="1.7" height="1.7"/>
	<rect x="19.2" y="20.9" width="1.7" height="1.7"/>
	<rect x="24.2" y="20.9" width="1.7" height="1.7"/>
	<rect x="27.5" y="20.9" width="1.7" height="1.7"/>
	<rect x="29.1" y="20.9" width="1.7" height="1.7"/>
	<rect x="32.4" y="20.9" width="1.7" height="1.7"/>
	<rect x="34.1" y="20.9" width="1.7" height="1.7"/>
	<rect x="35.7" y="20.9" width="1.7" height="1.7"/>
	<rect x="37.4" y="20.9" width="1.7" height="1.7"/>
	<rect x="40.7" y="20.9" width="1.7" height="1.7"/>
	<rect x="45.6" y="20.9" width="1.7" height="1.7"/>
	<rect x="50.6" y="20.9" width="1.7" height="1.7"/>
	<rect x="52.2" y="20.9" width="1.7" height="1.7"/>
	<rect x="53.9" y="20.9" width="1.7" height="1.7"/>
	<rect x="4.3" y="22.5" width="1.7" height="1.7"/>
	<rect x="6" y="22.5" width="1.7" height="1.7"/>
	<rect x="12.6" y="22.5" width="1.7" height="1.7"/>
	<rect x="20.9" y="22.5" width="1.7" height="1.7"/>
	<rect x="39" y="22.5" width="1.7" height="1.7"/>
	<rect x="42.3" y="22.5" width="1.7" height="1.7"/>
	<rect x="44" y="22.5" width="1.7" height="1.7"/>
	<rect x="47.3" y="22.5" width="1.7" height="1.7"/>
	<rect x="48.9" y="22.5" width="1.7" height="1.7"/>
	<rect x="2.7" y="24.2" width="1.7" height="1.7"/>
	<rect x="9.3" y="24.2" width="1.7" height="1.7"/>
	<rect x="19.2" y="24.2" width="1.7" height="1.7"/>
	<rect x="20.9" y="24.2" width="1.7" height="1.7"/>
	<rect x="40.7" y="24.2" width="1.7" height="1.7"/>
	<rect x="44" y="24.2" width="1.7" height="1.7"/>
	<rect x="45.6" y="24.2" width="1.7" height="1.7"/>
	<rect x="47.3" y="24.2" width="1.7" height="1.7"/>
	<rect x="52.2" y="24.2" width="1.7" height="1.7"/>
	<rect x="55.5" y="24.2" width="1.7" height="1.7"/>
	<rect x="4.3" y="25.9" width="1.7" height="1.7"/>
	<rect x="6" y="25.9" width="1.7" height="1.7"/>
	<rect x="7.6" y="25.9" width="1.7" height="1.7"/>
	<rect x="12.6" y="25.9" width="1.7" height="1.7"/>
	<rect x="14.2" y="25.9" width="1.7" height="1.7"/>
	<rect x="19.2" y="25.9" width="1.7" height="1.7"/>
	<rect x="20.9" y="25.9" width="1.7" height="1.7"/>
	<rect x="39" y="25.9" width="1.7" height="1.7"/>
	<rect x="44" y="25.9" width="1.7" height="1.7"/>
	<rect x="45.6" y="25.9" width="1.7" height="1.7"/>
	<rect x="50.6" y="25.9" width="1.7" height="1.7"/>
	<rect x="53.9" y="25.9" width="1.7" height="1.7"/>
	<rect x="2.7" y="27.5" width="1.7" height="1.7"/>
	<rect x="4.3" y="27.5" width="1.7" height="1.7"/>
	<rect x="14.2" y="27.5" width="1.7" height="1.7"/>
	<rect x="19.2" y="27.5" width="1.7" height="1.7"/>
	<rect x="20.9" y="27.5" width="1.7" height="1.7"/>
	<rect x="37.4" y="27.5" width="1.7" height="1.7"/>
	<rect x="39" y="27.5" width="1.7" height="1.7"/>
	<rect x="40.7" y="27.5" width="1.7" height="1.7"/>
	<rect x="42.3" y="27.5" width="1.7" height="1.7"/>
	<rect x="45.6" y="27.5" width="1.7" height="1.7"/>
	<rect x="50.6" y="27.5" width="1.7" height="1.7"/>
	<rect x="52.2" y="27.5" width="1.7" height="1.7"/>
	<rect x="55.5" y="27.5" width="1.7" height="1.7"/>
	<rect x="7.6" y="29.2" width="1.7" height="1.7"/>
	<rect x="9.3" y="29.2" width="1.7" height="1.7"/>
	<rect x="12.6" y="29.2" width="1.7" height="1.7"/>
	<rect x="17.6" y="29.2" width="1.7" height="1.7"/>
	<rect x="19.2" y="29.2" width="1.7" height="1.7"/>
	<rect x="20.9" y="29.2" width="1.7" height="1.7"/>
	<rect x="44" y="29.2" width="1.7" height="1.7"/>
	<rect x="47.3" y="29.2" width="1.7" height="1.7"/>
	<rect x="48.9" y="29.2" width="1.7" height="1.7"/>
	<rect x="6" y="30.8" width="1.7" height="1.7"/>
	<rect x="9.3" y="30.8" width="1.7" height="1.7"/>
	<rect x="15.9" y="30.8" width="1.7" height="1.7"/>
	<rect x="17.6" y="30.8" width="1.7" height="1.7"/>
	<rect x="20.9" y="30.8" width="1.7" height="1.7"/>
	<rect x="37.4" y="30.8" width="1.7" height="1.7"/>
	<rect x="40.7" y="30.8" width="1.7" height="1.7"/>
	<rect x="42.3" y="30.8" width="1.7" height="1.7"/>
	<rect x="44" y="30.8" width="1.7" height="1.7"/>
	<rect x="45.6" y="30.8" width="1.7" height="1.7"/>
	<rect x="47.3" y="30.8" width="1.7" height="1.7"/>
	<rect x="55.5" y="30.8" width="1.7" height="1.7"/>
	<rect x="2.7" y="32.5" width="1.7" height="1.7"/>
	<rect x="12.6" y="32.5" width="1.7" height="1.7"/>
	<rect x="20.9" y="32.5" width="1.7" height="1.7"/>
	<rect x="37.4" y="32.5" width="1.7" height="1.7"/>
	<rect x="39" y="32.5" width="1.7" height="1.7"/>
	<rect x="44" y="32.5" width="1.7" height="1.7"/>
	<rect x="45.6" y="32.5" width="1.7" height="1.7"/>
	<rect x="52.2" y="32.5" width="1.7" height="1.7"/>
	<rect x="53.9" y="32.5" width="1.7" height="1.7"/>
	<rect x="6" y="34.1" width="1.7" height="1.7"/>
	<rect x="17.6" y="34.1" width="1.7" height="1.7"/>
	<rect x="37.4" y="34.1" width="1.7" height="1.7"/>
	<rect x="40.7" y="34.1" width="1.7" height="1.7"/>
	<rect x="42.3" y="34.1" width="1.7" height="1.7"/>
	<rect x="44" y="34.1" width="1.7" height="1.7"/>
	<rect x="45.6" y="34.1" width="1.7" height="1.7"/>
	<rect x="48.9" y="34.1" width="1.7" height="1.7"/>
	<rect x="50.6" y="34.1" width="1.7" height="1.7"/>
	<rect x="52.2" y="34.1" width="1.7" height="1.7"/>
	<rect x="53.9" y="34.1" width="1.7" height="1.7"/>
	<rect x="2.7" y="35.8" width="1.7" height="1.7"/>
	<rect x="4.3" y="35.8" width="1.7" height="1.7"/>
	<rect x="12.6" y="35.8" width="1.7" height="1.7"/>
	<rect x="14.2" y="35.8" width="1.7" height="1.7"/>
	<rect x="15.9" y="35.8" width="1.7" height="1.7"/>
	<rect x="44" y="35.8" width="1.7" height="1.7"/>
	<rect x="47.3" y="35.8" width="1.7" height="1.7"/>
	<rect x="48.9" y="35.8" width="1.7" height="1.7"/>
	<rect x="50.6" y="35.8" width="1.7" height="1.7"/>
	<rect x="55.5" y="35.8" width="1.7" height="1.7"/>
	<rect x="2.7" y="37.4" width="1.7" height="1.7"/>
	<rect x="4.3" y="37.4" width="1.7" height="1.7"/>
	<rect x="6" y="37.4" width="1.7" height="1.7"/>
	<rect x="9.3" y="37.4" width="1.7" height="1.7"/>
	<rect x="14.2" y="37.4" width="1.7" height="1.7"/>
	<rect x="17.6" y="37.4" width="1.7" height="1.7"/>
	<rect x="19.2" y="37.4" width="1.7" height="1.7"/>
	<rect x="22.5" y="37.4" width="1.7" height="1.7"/>
	<rect x="24.2" y="37.4" width="1.7" height="1.7"/>
	<rect x="25.8" y="37.4" width="1.7" height="1.7"/>
	<rect x="27.5" y="37.4" width="1.7" height="1.7"/>
	<rect x="30.8" y="37.4" width="1.7" height="1.7"/>
	<rect x="34.1" y="37.4" width="1.7" height="1.7"/>
	<rect x="37.4" y="37.4" width="1.7" height="1.7"/>
	<rect x="40.7" y="37.4" width="1.7" height="1.7"/>
	<rect x="44" y="37.4" width="1.7" height="1.7"/>
	<rect x="45.6" y="37.4" width="1.7" height="1.7"/>
	<rect x="47.3" y="37.4" width="1.7" height="1.7"/>
	<rect x="55.5" y="37.4" width="1.7" height="1.7"/>
	<rect x="2.7" y="39.1" width="1.7" height="1.7"/>
	<rect x="6" y="39.1" width="1.7" height="1.7"/>
	<rect x="12.6" y="39.1" width="1.7" height="1.7"/>
	<rect x="15.9" y="39.1" width="1.7" height="1.7"/>
	<rect x="22.5" y="39.1" width="1.7" height="1.7"/>
	<rect x="24.2" y="39.1" width="1.7" height="1.7"/>
	<rect x="25.8" y="39.1" width="1.7" height="1.7"/>
	<rect x="27.5" y="39.1" width="1.7" height="1.7"/>
	<rect x="29.1" y="39.1" width="1.7" height="1.7"/>
	<rect x="30.8" y="39.1" width="1.7" height="1.7"/>
	<rect x="32.4" y="39.1" width="1.7" height="1.7"/>
	<rect x="34.1" y="39.1" width="1.7" height="1.7"/>
	<rect x="42.3" y="39.1" width="1.7" height="1.7"/>
	<rect x="47.3" y="39.1" width="1.7" height="1.7"/>
	<rect x="50.6" y="39.1" width="1.7" height="1.7"/>
	<rect x="52.2" y="39.1" width="1.7" height="1.7"/>
	<rect x="53.9" y="39.1" width="1.7" height="1.7"/>
	<rect x="2.7" y="40.7" width="1.7" height="1.7"/>
	<rect x="6" y="40.7" width="1.7" height="1.7"/>
	<rect x="7.6" y="40.7" width="1.7" height="1.7"/>
	<rect x="10.9" y="40.7" width="1.7" height="1.7"/>
	<rect x="15.9" y="40.7" width="1.7" height="1.7"/>
	<rect x="17.6" y="40.7" width="1.7" height="1.7"/>
	<rect x="19.2" y="40.7" width="1.7" height="1.7"/>
	<rect x="20.9" y="40.7" width="1.7" height="1.7"/>
	<rect x="22.5" y="40.7" width="1.7" height="1.7"/>
	<rect x="24.2" y="40.7" width="1.7" height="1.7"/>
	<rect x="29.1" y="40.7" width="1.7" height="1.7"/>
	<rect x="30.8" y="40.7" width="1.7" height="1.7"/>
	<rect x="37.4" y="40.7" width="1.7" height="1.7"/>
	<rect x="39" y="40.7" width="1.7" height="1.7"/>
	<rect x="52.2" y="40.7" width="1.7" height="1.7"/>
	<rect x="55.5" y="40.7" width="1.7" height="1.7"/>
	<rect x="2.7" y="42.4" width="1.7" height="1.7"/>
	<rect x="6" y="42.4" width="1.7" height="1.7"/>
	<rect x="12.6" y="42.4" width="1.7" height="1.7"/>
	<rect x="15.9" y="42.4" width="1.7" height="1.7"/>
	<rect x="17.6" y="42.4" width="1.7" height="1.7"/>
	<rect x="20.9" y="42.4" width="1.7" height="1.7"/>
	<rect x="22.5" y="42.4" width="1.7" height="1.7"/>
	<rect x="25.8" y="42.4" width="1.7" height="1.7"/>
	<rect x="27.5" y="42.4" width="1.7" height="1.7"/>
	<rect x="29.1" y="42.4" width="1.7" height="1.7"/>
	<rect x="32.4" y="42.4" width="1.7" height="1.7"/>
	<rect x="39" y="42.4" width="1.7" height="1.7"/>
	<rect x="42.3" y="42.4" width="1.7" height="1.7"/>
	<rect x="44" y="42.4" width="1.7" height="1.7"/>
	<rect x="45.6" y="42.4" width="1.7" height="1.7"/>
	<rect x="47.3" y="42.4" width="1.7" height="1.7"/>
	<rect x="48.9" y="42.4" width="1.7" height="1.7"/>
	<rect x="50.6" y="42.4" width="1.7" height="1.7"/>
	<rect x="53.9" y="42.4" width="1.7" height="1.7"/>
	<rect x="55.5" y="42.4" width="1.7" height="1.7"/>
	<rect x="15.9" y="44" width="1.7" height="1.7"/>
	<rect x="20.9" y="44" width="1.7" height="1.7"/>
	<rect x="27.5" y="44" width="1.7" height="1.7"/>
	<rect x="35.7" y="44" width="1.7" height="1.7"/>
	<rect x="39" y="44" width="1.7" height="1.7"/>
	<rect x="40.7" y="44" width="1.7" height="1.7"/>
	<rect x="42.3" y="44" width="1.7" height="1.7"/>
	<rect x="48.9" y="44" width="1.7" height="1.7"/>
	<rect x="50.6" y="44" width="1.7" height="1.7"/>
	<rect x="55.5" y="44" width="1.7" height="1.7"/>
	<rect x="17.6" y="45.7" width="1.7" height="1.7"/>
	<rect x="19.2" y="45.7" width="1.7" height="1.7"/>
	<rect x="24.2" y="45.7" width="1.7" height="1.7"/>
	<rect x="27.5" y="45.7" width="1.7" height="1.7"/>
	<rect x="29.1" y="45.7" width="1.7" height="1.7"/>
	<rect x="35.7" y="45.7" width="1.7" height="1.7"/>
	<rect x="39" y="45.7" width="1.7" height="1.7"/>
	<rect x="40.7" y="45.7" width="1.7" height="1.7"/>
	<rect x="42.3" y="45.7" width="1.7" height="1.7"/>
	<rect x="45.6" y="45.7" width="1.7" height="1.7"/>
	<rect x="48.9" y="45.7" width="1.7" height="1.7"/>
	<rect x="50.6" y="45.7" width="1.7" height="1.7"/>
	<rect x="53.9" y="45.7" width="1.7" height="1.7"/>
	<rect x="17.6" y="47.3" width="1.7" height="1.7"/>
	<rect x="19.2" y="47.3" width="1.7" height="1.7"/>
	<rect x="22.5" y="47.3" width="1.7" height="1.7"/>
	<rect x="25.8" y="47.3" width="1.7" height="1.7"/>
	<rect x="29.1" y="47.3" width="1.7" height="1.7"/>
	<rect x="32.4" y="47.3" width="1.7" height="1.7"/>
	<rect x="34.1" y="47.3" width="1.7" height="1.7"/>
	<rect x="37.4" y="47.3" width="1.7" height="1.7"/>
	<rect x="40.7" y="47.3" width="1.7" height="1.7"/>
	<rect x="42.3" y="47.3" width="1.7" height="1.7"/>
	<rect x="48.9" y="47.3" width="1.7" height="1.7"/>
	<rect x="50.6" y="47.3" width="1.7" height="1.7"/>
	<rect x="52.2" y="47.3" width="1.7" height="1.7"/>
	<rect x="53.9" y="47.3" width="1.7" height="1.7"/>
	<rect x="55.5" y="47.3" width="1.7" height="1.7"/>
	<rect x="15.9" y="49" width="1.7" height="1.7"/>
	<rect x="19.2" y="49" width="1.7" height="1.7"/>
	<rect x="22.5" y="49" width="1.7" height="1.7"/>
	<rect x="24.2" y="49" width="1.7" height="1.7"/>
	<rect x="27.5" y="49" width="1.7" height="1.7"/>
	<rect x="32.4" y="49" width="1.7" height="1.7"/>
	<rect x="34.1" y="49" width="1.7" height="1.7"/>
	<rect x="35.7" y="49" width="1.7" height="1.7"/>
	<rect x="37.4" y="49" width="1.7" height="1.7"/>
	<rect x="42.3" y="49" width="1.7" height="1.7"/>
	<rect x="44" y="49" width="1.7" height="1.7"/>
	<rect x="45.6" y="49" width="1.7" height="1.7"/>
	<rect x="47.3" y="49" width="1.7" height="1.7"/>
	<rect x="48.9" y="49" width="1.7" height="1.7"/>
	<rect x="53.9" y="49" width="1.7" height="1.7"/>
	<rect x="55.5" y="49" width="1.7" height="1.7"/>
	<rect x="15.9" y="50.6" width="1.7" height="1.7"/>
	<rect x="19.2" y="50.6" width="1.7" height="1.7"/>
	<rect x="22.5" y="50.6" width="1.7" height="1.7"/>
	<rect x="25.8" y="50.6" width="1.7" height="1.7"/>
	<rect x="27.5" y="50.6" width="1.7" height="1.7"/>
	<rect x="29.1" y="50.6" width="1.7" height="1.7"/>
	<rect x="35.7" y="50.6" width="1.7" height="1.7"/>
	<rect x="37.4" y="50.6" width="1.7" height="1.7"/>
	<rect x="42.3" y="50.6" width="1.7" height="1.7"/>
	<rect x="44" y="50.6" width="1.7" height="1.7"/>
	<rect x="48.9" y="50.6" width="1.7" height="1.7"/>
	<rect x="50.6" y="50.6" width="1.7" height="1.7"/>
	<rect x="55.5" y="50.6" width="1.7" height="1.7"/>
	<rect x="15.9" y="52.3" width="1.7" height="1.7"/>
	<rect x="19.2" y="52.3" width="1.7" height="1.7"/>
	<rect x="22.5" y="52.3" width="1.7" height="1.7"/>
	<rect x="27.5" y="52.3" width="1.7" height="1.7"/>
	<rect x="30.8" y="52.3" width="1.7" height="1.7"/>
	<rect x="34.1" y="52.3" width="1.7" height="1.7"/>
	<rect x="35.7" y="52.3" width="1.7" height="1.7"/>
	<rect x="39" y="52.3" width="1.7" height="1.7"/>
	<rect x="40.7" y="52.3" width="1.7" height="1.7"/>
	<rect x="42.3" y="52.3" width="1.7" height="1.7"/>
	<rect x="44" y="52.3" width="1.7" height="1.7"/>
	<rect x="45.6" y="52.3" width="1.7" height="1.7"/>
	<rect x="52.2" y="52.3" width="1.7" height="1.7"/>
	<rect x="22.5" y="53.9" width="1.7" height="1.7"/>
	<rect x="24.2" y="53.9" width="1.7" height="1.7"/>
	<rect x="25.8" y="53.9" width="1.7" height="1.7"/>
	<rect x="27.5" y="53.9" width="1.7" height="1.7"/>
	<rect x="32.4" y="53.9" width="1.7" height="1.7"/>
	<rect x="35.7" y="53.9" width="1.7" height="1.7"/>
	<rect x="37.4" y="53.9" width="1.7" height="1.7"/>
	<rect x="40.7" y="53.9" width="1.7" height="1.7"/>
	<rect x="45.6" y="53.9" width="1.7" height="1.7"/>
	<rect x="47.3" y="53.9" width="1.7" height="1.7"/>
	<rect x="50.6" y="53.9" width="1.7" height="1.7"/>
	<rect x="52.2" y="53.9" width="1.7" height="1.7"/>
	<rect x="20.9" y="55.6" width="1.7" height="1.7"/>
	<rect x="24.2" y="55.6" width="1.7" height="1.7"/>
	<rect x="25.8" y="55.6" width="1.7" height="1.7"/>
	<rect x="32.4" y="55.6" width="1.7" height="1.7"/>
	<rect x="39" y="55.6" width="1.7" height="1.7"/>
	<rect x="40.7" y="55.6" width="1.7" height="1.7"/>
	<rect x="42.3" y="55.6" width="1.7" height="1.7"/>
	<rect x="44" y="55.6" width="1.7" height="1.7"/>
	<rect x="53.9" y="55.6" width="1.7" height="1.7"/>
	<path d="M2.7,2.7v11.6h11.6V2.7H2.7L2.7,2.7z M12.6,12.6H4.3V4.4h8.3V12.6L12.6,12.6z"/>
	<path d="M45.6,2.7v11.6h11.6V2.7H45.6L45.6,2.7z M55.5,12.6h-8.3V4.4h8.3V12.6L55.5,12.6z"/>
	<path d="M2.7,45.7v11.6h11.6V45.7H2.7L2.7,45.7z M12.6,55.6H4.3v-8.3h8.3V55.6L12.6,55.6z"/>
	<rect x="6" y="6" width="5" height="5"/>
	<rect x="48.9" y="6" width="5" height="5"/>
	<rect x="6" y="49" width="5" height="5"/>
	<path class="st1" d="M35.5,18.8H24.4c-3.1,0-5.6,2.5-5.6,5.6v11.1c0,3.1,2.5,5.6,5.6,5.6h11.1c3.1,0,5.6-2.5,5.6-5.6V24.4
		C41.1,21.3,38.6,18.8,35.5,18.8L35.5,18.8z"/>
	<path class="st2" d="M35.5,20c2.5,0,4.4,2,4.4,4.4v11.1c0,2.5-2,4.4-4.4,4.4H24.4c-2.5,0-4.4-2-4.4-4.4V24.4c0-2.5,2-4.4,4.4-4.4
		H35.5"/>
	<path class="st1" d="M22.7,25c-0.1,0-0.1,0-0.2-0.1c0,0-0.1-0.1-0.1-0.1v-0.6c0,0,0-0.1,0.1-0.1c0,0,0.1-0.1,0.1-0.1h2v-0.6
		c0,0,0-0.1,0.1-0.1c0,0,0.1-0.1,0.1-0.1h1.5c0,0,0.1,0,0.1,0.1c0,0,0.1,0.1,0.1,0.1V24h1.8c0.1,0,0.1,0,0.2,0c0,0,0.1,0.1,0.1,0.1
		v0.6c0,0.1,0,0.1-0.1,0.2c0,0-0.1,0.1-0.2,0.1L22.7,25L22.7,25L22.7,25z M28.6,34.1c0,0-0.1,0.1-0.2,0.1h-1.8v2.6
		c0,0.2-0.1,0.2-0.2,0.2h-1.5c-0.1,0-0.1,0-0.2-0.1c0,0-0.1-0.1-0.1-0.2v-2.7h-2c-0.1,0-0.1,0-0.2-0.1s-0.1-0.1-0.1-0.1v-0.6
		c0,0,0-0.1,0.1-0.1s0.1-0.1,0.1-0.1h5.7c0.1,0,0.1,0,0.2,0c0,0,0.1,0.1,0.1,0.1v0.6C28.6,34,28.6,34,28.6,34.1L28.6,34.1z M37.5,32
		c0,0-0.1,0.1-0.1,0.1H36c-0.1,0-0.1,0-0.2,0c-0.1,0-0.1-0.1-0.2-0.1l-0.4-0.5L35,31.9c0,0-0.1,0.1-0.2,0.1c-0.1,0-0.1,0-0.2,0h-5.4
		c-0.1,0-0.1,0-0.2,0C29,32,29,32,29,32v-0.7c0-0.1,0.1-0.2,0.2-0.2h2.9v-0.9h-2c-0.2,0-0.4,0-0.5-0.2c-0.2-0.1-0.3-0.3-0.3-0.6
		v-2.7c0-0.2,0.1-0.4,0.3-0.6c0.1-0.1,0.2-0.2,0.3-0.2c0.1-0.1,0.2-0.1,0.4-0.1h1.9V25h-2.9c-0.1,0-0.1,0-0.2,0s-0.1-0.1-0.1-0.1
		v-0.7c0-0.1,0.1-0.2,0.2-0.2h3v-0.6c0,0,0-0.1,0-0.1c0,0,0.1-0.1,0.1-0.1h1.6c0,0,0.1,0,0.1,0.1c0,0,0,0.1,0,0.1v0.6h2.8
		c0.1,0,0.1,0,0.2,0c0.1,0,0.1,0.1,0.1,0.1v0.6c0,0.1,0,0.1-0.1,0.2S36.9,25,36.9,25H34v0.8h1.9c0.3,0,0.5,0.1,0.7,0.3
		c0.2,0.2,0.2,0.4,0.2,0.6v2.5c0,0.3-0.1,0.5-0.2,0.6c-0.2,0.2-0.4,0.2-0.6,0.2h-1.9v0.9H35l-0.4-0.5c0,0,0-0.1,0-0.1
		c0,0,0.1-0.1,0.1-0.1h1.6c0.1,0,0.1,0,0.2,0.1l1,1.3C37.6,32,37.6,32,37.5,32L37.5,32z M37,34.1c0,0-0.1,0.1-0.2,0.1H36V36
		c0,0.2-0.1,0.5-0.3,0.7c-0.1,0.1-0.2,0.2-0.3,0.2C35.2,37,35.1,37,35,37h-1.4c-0.1,0-0.1,0-0.2-0.1L33,36.2c0,0,0-0.1,0-0.1
		c0,0,0.1-0.1,0.1-0.1H34v-1.9h-4.8c-0.1,0-0.1,0-0.2,0c0,0-0.1-0.1-0.1-0.1v-0.7c0-0.1,0.1-0.2,0.2-0.2h4.8v-0.6
		c0-0.1,0-0.1,0.1-0.2c0.1,0,0.1-0.1,0.2-0.1h1.5c0.1,0,0.1,0,0.2,0.1c0,0,0.1,0.1,0.1,0.2v0.6h0.9c0.1,0,0.1,0,0.2,0
		c0,0,0.1,0.1,0.1,0.1v0.6C37.1,34,37.1,34,37,34.1L37,34.1z M32.8,36.3C32.8,36.4,32.8,36.4,32.8,36.3L31,36.4c-0.1,0-0.1,0-0.2,0
		c-0.1,0-0.1-0.1-0.2-0.1l-1.1-1.6c0,0,0-0.1,0-0.1c0,0,0.1-0.1,0.1-0.1h1.9c0.1,0,0.2,0,0.2,0.1l1.1,1.6
		C32.8,36.2,32.8,36.3,32.8,36.3L32.8,36.3z M31.1,26.8v0.7h0.9l0-0.7H31.1L31.1,26.8z M32.1,28.5h-1v0.7h1V28.5L32.1,28.5z
		 M35,26.8h-1v0.7h1V26.8L35,26.8z M35,28.5h-1v0.7h1V28.5L35,28.5z"/>
	<path class="st1" d="M27.6,26.5l-2.4-1.6v0.9c-1.6,0.2-2.9,1.6-2.9,3.2c0,0.8,0.2,1.3,0.6,1.9l1.2-0.8C24,30,23.7,29.6,23.7,29
		c0-0.9,0.6-1.6,1.5-1.8v0.9L27.6,26.5L27.6,26.5z"/>
	<path class="st1" d="M28.8,29c0-0.9-0.2-1.4-0.6-1.9L27,27.9c0.2,0.3,0.4,0.6,0.4,1.1c0,0.9-0.6,1.6-1.5,1.8v-0.9l-2.4,1.6l2.4,1.6
		v-0.9C27.5,32,28.8,30.7,28.8,29L28.8,29z"/>
</g>
</svg>
