<?xml version="1.0" encoding="utf-8"?>
<!-- Generator: Adobe Illustrator 26.3.1, SVG Export Plug-In . SVG Version: 6.00 Build 0)  -->
<svg version="1.1" id="圖層_1" xmlns="http://www.w3.org/2000/svg" xmlns:xlink="http://www.w3.org/1999/xlink" x="0px" y="0px"
	 viewBox="0 0 100 100" style="enable-background:new 0 0 100 100;" xml:space="preserve">
<style type="text/css">
	.st0{clip-path:url(#SVGID_00000167382752153458660570000011199071922293688748_);fill:#FFFFFF;}
	.st1{clip-path:url(#SVGID_00000024709110598563025430000005954102650205603770_);fill:#FFFFFF;}
	.st2{fill:#FF0055;}
	.st3{fill:#FFFFFF;}
</style>
<g>
	<g>
		<defs>
			<rect id="SVGID_1_" width="100" height="100"/>
		</defs>
		<clipPath id="SVGID_00000016048366134954406950000013007610451292643483_">
			<use xlink:href="#SVGID_1_"  style="overflow:visible;"/>
		</clipPath>
		
			<rect x="0" style="clip-path:url(#SVGID_00000016048366134954406950000013007610451292643483_);fill:#FFFFFF;" width="100" height="100"/>
	</g>
	<g>
		<rect x="25" y="6" width="2.4" height="2.4"/>
		<rect x="34.5" y="6" width="2.4" height="2.4"/>
		<rect x="58.3" y="6" width="2.4" height="2.4"/>
		<rect x="63" y="6" width="2.4" height="2.4"/>
		<rect x="72.5" y="6" width="2.4" height="2.4"/>
		<rect x="25" y="8.4" width="2.4" height="2.4"/>
		<rect x="27.4" y="8.4" width="2.4" height="2.4"/>
		<rect x="29.8" y="8.4" width="2.4" height="2.4"/>
		<rect x="32.1" y="8.4" width="2.4" height="2.4"/>
		<rect x="34.5" y="8.4" width="2.4" height="2.4"/>
		<rect x="44" y="8.4" width="2.4" height="2.4"/>
		<rect x="46.4" y="8.4" width="2.4" height="2.4"/>
		<rect x="51.2" y="8.4" width="2.4" height="2.4"/>
		<rect x="55.9" y="8.4" width="2.4" height="2.4"/>
		<rect x="58.3" y="8.4" width="2.4" height="2.4"/>
		<rect x="63" y="8.4" width="2.4" height="2.4"/>
		<rect x="65.4" y="8.4" width="2.4" height="2.4"/>
		<rect x="67.8" y="8.4" width="2.4" height="2.4"/>
		<rect x="70.2" y="8.4" width="2.4" height="2.4"/>
		<rect x="25" y="10.8" width="2.4" height="2.4"/>
		<rect x="32.1" y="10.8" width="2.4" height="2.4"/>
		<rect x="39.3" y="10.8" width="2.4" height="2.4"/>
		<rect x="41.6" y="10.8" width="2.4" height="2.4"/>
		<rect x="44" y="10.8" width="2.4" height="2.4"/>
		<rect x="46.4" y="10.8" width="2.4" height="2.4"/>
		<rect x="51.2" y="10.8" width="2.4" height="2.4"/>
		<rect x="60.7" y="10.8" width="2.4" height="2.4"/>
		<rect x="63" y="10.8" width="2.4" height="2.4"/>
		<rect x="67.8" y="10.8" width="2.4" height="2.4"/>
		<rect x="72.5" y="10.8" width="2.4" height="2.4"/>
		<rect x="32.1" y="13.1" width="2.4" height="2.4"/>
		<rect x="34.5" y="13.1" width="2.4" height="2.4"/>
		<rect x="41.6" y="13.1" width="2.4" height="2.4"/>
		<rect x="46.4" y="13.1" width="2.4" height="2.4"/>
		<rect x="48.8" y="13.1" width="2.4" height="2.4"/>
		<rect x="51.2" y="13.1" width="2.4" height="2.4"/>
		<rect x="53.5" y="13.1" width="2.4" height="2.4"/>
		<rect x="55.9" y="13.1" width="2.4" height="2.4"/>
		<rect x="60.7" y="13.1" width="2.4" height="2.4"/>
		<rect x="65.4" y="13.1" width="2.4" height="2.4"/>
		<rect x="27.4" y="15.5" width="2.4" height="2.4"/>
		<rect x="36.9" y="15.5" width="2.4" height="2.4"/>
		<rect x="41.6" y="15.5" width="2.4" height="2.4"/>
		<rect x="44" y="15.5" width="2.4" height="2.4"/>
		<rect x="48.8" y="15.5" width="2.4" height="2.4"/>
		<rect x="55.9" y="15.5" width="2.4" height="2.4"/>
		<rect x="58.3" y="15.5" width="2.4" height="2.4"/>
		<rect x="60.7" y="15.5" width="2.4" height="2.4"/>
		<rect x="63" y="15.5" width="2.4" height="2.4"/>
		<rect x="65.4" y="15.5" width="2.4" height="2.4"/>
		<rect x="25" y="17.9" width="2.4" height="2.4"/>
		<rect x="27.4" y="17.9" width="2.4" height="2.4"/>
		<rect x="32.1" y="17.9" width="2.4" height="2.4"/>
		<rect x="34.5" y="17.9" width="2.4" height="2.4"/>
		<rect x="36.9" y="17.9" width="2.4" height="2.4"/>
		<rect x="41.6" y="17.9" width="2.4" height="2.4"/>
		<rect x="44" y="17.9" width="2.4" height="2.4"/>
		<rect x="46.4" y="17.9" width="2.4" height="2.4"/>
		<rect x="48.8" y="17.9" width="2.4" height="2.4"/>
		<rect x="55.9" y="17.9" width="2.4" height="2.4"/>
		<rect x="60.7" y="17.9" width="2.4" height="2.4"/>
		<rect x="65.4" y="17.9" width="2.4" height="2.4"/>
		<rect x="67.8" y="17.9" width="2.4" height="2.4"/>
		<rect x="70.2" y="17.9" width="2.4" height="2.4"/>
		<rect x="72.5" y="17.9" width="2.4" height="2.4"/>
		<rect x="25" y="20.3" width="2.4" height="2.4"/>
		<rect x="29.8" y="20.3" width="2.4" height="2.4"/>
		<rect x="34.5" y="20.3" width="2.4" height="2.4"/>
		<rect x="39.3" y="20.3" width="2.4" height="2.4"/>
		<rect x="44" y="20.3" width="2.4" height="2.4"/>
		<rect x="48.8" y="20.3" width="2.4" height="2.4"/>
		<rect x="53.5" y="20.3" width="2.4" height="2.4"/>
		<rect x="58.3" y="20.3" width="2.4" height="2.4"/>
		<rect x="63" y="20.3" width="2.4" height="2.4"/>
		<rect x="67.8" y="20.3" width="2.4" height="2.4"/>
		<rect x="72.5" y="20.3" width="2.4" height="2.4"/>
		<rect x="25" y="22.6" width="2.4" height="2.4"/>
		<rect x="32.1" y="22.6" width="2.4" height="2.4"/>
		<rect x="39.3" y="22.6" width="2.4" height="2.4"/>
		<rect x="41.6" y="22.6" width="2.4" height="2.4"/>
		<rect x="44" y="22.6" width="2.4" height="2.4"/>
		<rect x="46.4" y="22.6" width="2.4" height="2.4"/>
		<rect x="48.8" y="22.6" width="2.4" height="2.4"/>
		<rect x="63" y="22.6" width="2.4" height="2.4"/>
		<rect x="65.4" y="22.6" width="2.4" height="2.4"/>
		<rect x="72.5" y="22.6" width="2.4" height="2.4"/>
		<rect x="10.8" y="25" width="2.4" height="2.4"/>
		<rect x="13.1" y="25" width="2.4" height="2.4"/>
		<rect x="15.5" y="25" width="2.4" height="2.4"/>
		<rect x="20.3" y="25" width="2.4" height="2.4"/>
		<rect x="25" y="25" width="2.4" height="2.4"/>
		<rect x="27.4" y="25" width="2.4" height="2.4"/>
		<rect x="44" y="25" width="2.4" height="2.4"/>
		<rect x="46.4" y="25" width="2.4" height="2.4"/>
		<rect x="48.8" y="25" width="2.4" height="2.4"/>
		<rect x="51.2" y="25" width="2.4" height="2.4"/>
		<rect x="58.3" y="25" width="2.4" height="2.4"/>
		<rect x="60.7" y="25" width="2.4" height="2.4"/>
		<rect x="67.8" y="25" width="2.4" height="2.4"/>
		<rect x="74.9" y="25" width="2.4" height="2.4"/>
		<rect x="77.3" y="25" width="2.4" height="2.4"/>
		<rect x="79.7" y="25" width="2.4" height="2.4"/>
		<rect x="86.8" y="25" width="2.4" height="2.4"/>
		<rect x="89.2" y="25" width="2.4" height="2.4"/>
		<rect x="91.6" y="25" width="2.4" height="2.4"/>
		<rect x="13.1" y="27.4" width="2.4" height="2.4"/>
		<rect x="15.5" y="27.4" width="2.4" height="2.4"/>
		<rect x="22.6" y="27.4" width="2.4" height="2.4"/>
		<rect x="27.4" y="27.4" width="2.4" height="2.4"/>
		<rect x="34.5" y="27.4" width="2.4" height="2.4"/>
		<rect x="36.9" y="27.4" width="2.4" height="2.4"/>
		<rect x="44" y="27.4" width="2.4" height="2.4"/>
		<rect x="55.9" y="27.4" width="2.4" height="2.4"/>
		<rect x="60.7" y="27.4" width="2.4" height="2.4"/>
		<rect x="65.4" y="27.4" width="2.4" height="2.4"/>
		<rect x="70.2" y="27.4" width="2.4" height="2.4"/>
		<rect x="74.9" y="27.4" width="2.4" height="2.4"/>
		<rect x="79.7" y="27.4" width="2.4" height="2.4"/>
		<rect x="86.8" y="27.4" width="2.4" height="2.4"/>
		<rect x="15.5" y="29.8" width="2.4" height="2.4"/>
		<rect x="20.3" y="29.8" width="2.4" height="2.4"/>
		<rect x="22.6" y="29.8" width="2.4" height="2.4"/>
		<rect x="25" y="29.8" width="2.4" height="2.4"/>
		<rect x="29.8" y="29.8" width="2.4" height="2.4"/>
		<rect x="34.5" y="29.8" width="2.4" height="2.4"/>
		<rect x="39.3" y="29.8" width="2.4" height="2.4"/>
		<rect x="41.6" y="29.8" width="2.4" height="2.4"/>
		<rect x="44" y="29.8" width="2.4" height="2.4"/>
		<rect x="53.5" y="29.8" width="2.4" height="2.4"/>
		<rect x="55.9" y="29.8" width="2.4" height="2.4"/>
		<rect x="58.3" y="29.8" width="2.4" height="2.4"/>
		<rect x="65.4" y="29.8" width="2.4" height="2.4"/>
		<rect x="67.8" y="29.8" width="2.4" height="2.4"/>
		<rect x="70.2" y="29.8" width="2.4" height="2.4"/>
		<rect x="77.3" y="29.8" width="2.4" height="2.4"/>
		<rect x="84.4" y="29.8" width="2.4" height="2.4"/>
		<rect x="89.2" y="29.8" width="2.4" height="2.4"/>
		<rect x="91.6" y="29.8" width="2.4" height="2.4"/>
		<rect x="8.4" y="32.1" width="2.4" height="2.4"/>
		<rect x="10.8" y="32.1" width="2.4" height="2.4"/>
		<rect x="25" y="32.1" width="2.4" height="2.4"/>
		<rect x="27.4" y="32.1" width="2.4" height="2.4"/>
		<rect x="34.5" y="32.1" width="2.4" height="2.4"/>
		<rect x="39.3" y="32.1" width="2.4" height="2.4"/>
		<rect x="44" y="32.1" width="2.4" height="2.4"/>
		<rect x="46.4" y="32.1" width="2.4" height="2.4"/>
		<rect x="48.8" y="32.1" width="2.4" height="2.4"/>
		<rect x="58.3" y="32.1" width="2.4" height="2.4"/>
		<rect x="63" y="32.1" width="2.4" height="2.4"/>
		<rect x="67.8" y="32.1" width="2.4" height="2.4"/>
		<rect x="72.5" y="32.1" width="2.4" height="2.4"/>
		<rect x="77.3" y="32.1" width="2.4" height="2.4"/>
		<rect x="79.7" y="32.1" width="2.4" height="2.4"/>
		<rect x="20.3" y="34.5" width="2.4" height="2.4"/>
		<rect x="22.6" y="34.5" width="2.4" height="2.4"/>
		<rect x="25" y="34.5" width="2.4" height="2.4"/>
		<rect x="29.8" y="34.5" width="2.4" height="2.4"/>
		<rect x="34.5" y="34.5" width="2.4" height="2.4"/>
		<rect x="39.3" y="34.5" width="2.4" height="2.4"/>
		<rect x="44" y="34.5" width="2.4" height="2.4"/>
		<rect x="51.2" y="34.5" width="2.4" height="2.4"/>
		<rect x="58.3" y="34.5" width="2.4" height="2.4"/>
		<rect x="65.4" y="34.5" width="2.4" height="2.4"/>
		<rect x="67.8" y="34.5" width="2.4" height="2.4"/>
		<rect x="72.5" y="34.5" width="2.4" height="2.4"/>
		<rect x="74.9" y="34.5" width="2.4" height="2.4"/>
		<rect x="77.3" y="34.5" width="2.4" height="2.4"/>
		<rect x="79.7" y="34.5" width="2.4" height="2.4"/>
		<rect x="82" y="34.5" width="2.4" height="2.4"/>
		<rect x="84.4" y="34.5" width="2.4" height="2.4"/>
		<rect x="86.8" y="34.5" width="2.4" height="2.4"/>
		<rect x="91.6" y="34.5" width="2.4" height="2.4"/>
		<rect x="10.8" y="36.9" width="2.4" height="2.4"/>
		<rect x="15.5" y="36.9" width="2.4" height="2.4"/>
		<rect x="25" y="36.9" width="2.4" height="2.4"/>
		<rect x="27.4" y="36.9" width="2.4" height="2.4"/>
		<rect x="32.1" y="36.9" width="2.4" height="2.4"/>
		<rect x="72.5" y="36.9" width="2.4" height="2.4"/>
		<rect x="74.9" y="36.9" width="2.4" height="2.4"/>
		<rect x="79.7" y="36.9" width="2.4" height="2.4"/>
		<rect x="84.4" y="36.9" width="2.4" height="2.4"/>
		<rect x="86.8" y="36.9" width="2.4" height="2.4"/>
		<rect x="89.2" y="36.9" width="2.4" height="2.4"/>
		<rect x="8.4" y="39.3" width="2.4" height="2.4"/>
		<rect x="10.8" y="39.3" width="2.4" height="2.4"/>
		<rect x="13.1" y="39.3" width="2.4" height="2.4"/>
		<rect x="15.5" y="39.3" width="2.4" height="2.4"/>
		<rect x="20.3" y="39.3" width="2.4" height="2.4"/>
		<rect x="22.6" y="39.3" width="2.4" height="2.4"/>
		<rect x="25" y="39.3" width="2.4" height="2.4"/>
		<rect x="32.1" y="39.3" width="2.4" height="2.4"/>
		<rect x="34.5" y="39.3" width="2.4" height="2.4"/>
		<rect x="63" y="39.3" width="2.4" height="2.4"/>
		<rect x="65.4" y="39.3" width="2.4" height="2.4"/>
		<rect x="67.8" y="39.3" width="2.4" height="2.4"/>
		<rect x="70.2" y="39.3" width="2.4" height="2.4"/>
		<rect x="77.3" y="39.3" width="2.4" height="2.4"/>
		<rect x="79.7" y="39.3" width="2.4" height="2.4"/>
		<rect x="84.4" y="39.3" width="2.4" height="2.4"/>
		<rect x="89.2" y="39.3" width="2.4" height="2.4"/>
		<rect x="91.6" y="39.3" width="2.4" height="2.4"/>
		<rect x="8.4" y="41.6" width="2.4" height="2.4"/>
		<rect x="10.8" y="41.6" width="2.4" height="2.4"/>
		<rect x="22.6" y="41.6" width="2.4" height="2.4"/>
		<rect x="25" y="41.6" width="2.4" height="2.4"/>
		<rect x="34.5" y="41.6" width="2.4" height="2.4"/>
		<rect x="67.8" y="41.6" width="2.4" height="2.4"/>
		<rect x="70.2" y="41.6" width="2.4" height="2.4"/>
		<rect x="72.5" y="41.6" width="2.4" height="2.4"/>
		<rect x="77.3" y="41.6" width="2.4" height="2.4"/>
		<rect x="6" y="44" width="2.4" height="2.4"/>
		<rect x="8.4" y="44" width="2.4" height="2.4"/>
		<rect x="15.5" y="44" width="2.4" height="2.4"/>
		<rect x="20.3" y="44" width="2.4" height="2.4"/>
		<rect x="22.6" y="44" width="2.4" height="2.4"/>
		<rect x="32.1" y="44" width="2.4" height="2.4"/>
		<rect x="34.5" y="44" width="2.4" height="2.4"/>
		<rect x="65.4" y="44" width="2.4" height="2.4"/>
		<rect x="70.2" y="44" width="2.4" height="2.4"/>
		<rect x="74.9" y="44" width="2.4" height="2.4"/>
		<rect x="77.3" y="44" width="2.4" height="2.4"/>
		<rect x="79.7" y="44" width="2.4" height="2.4"/>
		<rect x="82" y="44" width="2.4" height="2.4"/>
		<rect x="86.8" y="44" width="2.4" height="2.4"/>
		<rect x="89.2" y="44" width="2.4" height="2.4"/>
		<rect x="8.4" y="46.4" width="2.4" height="2.4"/>
		<rect x="15.5" y="46.4" width="2.4" height="2.4"/>
		<rect x="22.6" y="46.4" width="2.4" height="2.4"/>
		<rect x="27.4" y="46.4" width="2.4" height="2.4"/>
		<rect x="29.8" y="46.4" width="2.4" height="2.4"/>
		<rect x="32.1" y="46.4" width="2.4" height="2.4"/>
		<rect x="63" y="46.4" width="2.4" height="2.4"/>
		<rect x="65.4" y="46.4" width="2.4" height="2.4"/>
		<rect x="72.5" y="46.4" width="2.4" height="2.4"/>
		<rect x="74.9" y="46.4" width="2.4" height="2.4"/>
		<rect x="79.7" y="46.4" width="2.4" height="2.4"/>
		<rect x="84.4" y="46.4" width="2.4" height="2.4"/>
		<rect x="6" y="48.8" width="2.4" height="2.4"/>
		<rect x="8.4" y="48.8" width="2.4" height="2.4"/>
		<rect x="13.1" y="48.8" width="2.4" height="2.4"/>
		<rect x="20.3" y="48.8" width="2.4" height="2.4"/>
		<rect x="29.8" y="48.8" width="2.4" height="2.4"/>
		<rect x="34.5" y="48.8" width="2.4" height="2.4"/>
		<rect x="65.4" y="48.8" width="2.4" height="2.4"/>
		<rect x="67.8" y="48.8" width="2.4" height="2.4"/>
		<rect x="70.2" y="48.8" width="2.4" height="2.4"/>
		<rect x="72.5" y="48.8" width="2.4" height="2.4"/>
		<rect x="79.7" y="48.8" width="2.4" height="2.4"/>
		<rect x="82" y="48.8" width="2.4" height="2.4"/>
		<rect x="86.8" y="48.8" width="2.4" height="2.4"/>
		<rect x="89.2" y="48.8" width="2.4" height="2.4"/>
		<rect x="91.6" y="48.8" width="2.4" height="2.4"/>
		<rect x="13.1" y="51.2" width="2.4" height="2.4"/>
		<rect x="15.5" y="51.2" width="2.4" height="2.4"/>
		<rect x="17.9" y="51.2" width="2.4" height="2.4"/>
		<rect x="25" y="51.2" width="2.4" height="2.4"/>
		<rect x="67.8" y="51.2" width="2.4" height="2.4"/>
		<rect x="70.2" y="51.2" width="2.4" height="2.4"/>
		<rect x="74.9" y="51.2" width="2.4" height="2.4"/>
		<rect x="77.3" y="51.2" width="2.4" height="2.4"/>
		<rect x="79.7" y="51.2" width="2.4" height="2.4"/>
		<rect x="82" y="51.2" width="2.4" height="2.4"/>
		<rect x="91.6" y="51.2" width="2.4" height="2.4"/>
		<rect x="10.8" y="53.5" width="2.4" height="2.4"/>
		<rect x="13.1" y="53.5" width="2.4" height="2.4"/>
		<rect x="20.3" y="53.5" width="2.4" height="2.4"/>
		<rect x="22.6" y="53.5" width="2.4" height="2.4"/>
		<rect x="27.4" y="53.5" width="2.4" height="2.4"/>
		<rect x="29.8" y="53.5" width="2.4" height="2.4"/>
		<rect x="34.5" y="53.5" width="2.4" height="2.4"/>
		<rect x="63" y="53.5" width="2.4" height="2.4"/>
		<rect x="65.4" y="53.5" width="2.4" height="2.4"/>
		<rect x="67.8" y="53.5" width="2.4" height="2.4"/>
		<rect x="77.3" y="53.5" width="2.4" height="2.4"/>
		<rect x="79.7" y="53.5" width="2.4" height="2.4"/>
		<rect x="82" y="53.5" width="2.4" height="2.4"/>
		<rect x="84.4" y="53.5" width="2.4" height="2.4"/>
		<rect x="86.8" y="53.5" width="2.4" height="2.4"/>
		<rect x="6" y="55.9" width="2.4" height="2.4"/>
		<rect x="10.8" y="55.9" width="2.4" height="2.4"/>
		<rect x="13.1" y="55.9" width="2.4" height="2.4"/>
		<rect x="22.6" y="55.9" width="2.4" height="2.4"/>
		<rect x="27.4" y="55.9" width="2.4" height="2.4"/>
		<rect x="29.8" y="55.9" width="2.4" height="2.4"/>
		<rect x="32.1" y="55.9" width="2.4" height="2.4"/>
		<rect x="34.5" y="55.9" width="2.4" height="2.4"/>
		<rect x="63" y="55.9" width="2.4" height="2.4"/>
		<rect x="79.7" y="55.9" width="2.4" height="2.4"/>
		<rect x="84.4" y="55.9" width="2.4" height="2.4"/>
		<rect x="86.8" y="55.9" width="2.4" height="2.4"/>
		<rect x="6" y="58.3" width="2.4" height="2.4"/>
		<rect x="13.1" y="58.3" width="2.4" height="2.4"/>
		<rect x="15.5" y="58.3" width="2.4" height="2.4"/>
		<rect x="17.9" y="58.3" width="2.4" height="2.4"/>
		<rect x="20.3" y="58.3" width="2.4" height="2.4"/>
		<rect x="22.6" y="58.3" width="2.4" height="2.4"/>
		<rect x="25" y="58.3" width="2.4" height="2.4"/>
		<rect x="29.8" y="58.3" width="2.4" height="2.4"/>
		<rect x="34.5" y="58.3" width="2.4" height="2.4"/>
		<rect x="70.2" y="58.3" width="2.4" height="2.4"/>
		<rect x="74.9" y="58.3" width="2.4" height="2.4"/>
		<rect x="77.3" y="58.3" width="2.4" height="2.4"/>
		<rect x="89.2" y="58.3" width="2.4" height="2.4"/>
		<rect x="91.6" y="58.3" width="2.4" height="2.4"/>
		<rect x="6" y="60.7" width="2.4" height="2.4"/>
		<rect x="10.8" y="60.7" width="2.4" height="2.4"/>
		<rect x="13.1" y="60.7" width="2.4" height="2.4"/>
		<rect x="25" y="60.7" width="2.4" height="2.4"/>
		<rect x="29.8" y="60.7" width="2.4" height="2.4"/>
		<rect x="34.5" y="60.7" width="2.4" height="2.4"/>
		<rect x="67.8" y="60.7" width="2.4" height="2.4"/>
		<rect x="74.9" y="60.7" width="2.4" height="2.4"/>
		<rect x="77.3" y="60.7" width="2.4" height="2.4"/>
		<rect x="79.7" y="60.7" width="2.4" height="2.4"/>
		<rect x="89.2" y="60.7" width="2.4" height="2.4"/>
		<rect x="6" y="63" width="2.4" height="2.4"/>
		<rect x="13.1" y="63" width="2.4" height="2.4"/>
		<rect x="15.5" y="63" width="2.4" height="2.4"/>
		<rect x="20.3" y="63" width="2.4" height="2.4"/>
		<rect x="22.6" y="63" width="2.4" height="2.4"/>
		<rect x="27.4" y="63" width="2.4" height="2.4"/>
		<rect x="36.9" y="63" width="2.4" height="2.4"/>
		<rect x="44" y="63" width="2.4" height="2.4"/>
		<rect x="46.4" y="63" width="2.4" height="2.4"/>
		<rect x="53.5" y="63" width="2.4" height="2.4"/>
		<rect x="55.9" y="63" width="2.4" height="2.4"/>
		<rect x="74.9" y="63" width="2.4" height="2.4"/>
		<rect x="77.3" y="63" width="2.4" height="2.4"/>
		<rect x="79.7" y="63" width="2.4" height="2.4"/>
		<rect x="82" y="63" width="2.4" height="2.4"/>
		<rect x="84.4" y="63" width="2.4" height="2.4"/>
		<rect x="86.8" y="63" width="2.4" height="2.4"/>
		<rect x="91.6" y="63" width="2.4" height="2.4"/>
		<rect x="6" y="65.4" width="2.4" height="2.4"/>
		<rect x="10.8" y="65.4" width="2.4" height="2.4"/>
		<rect x="15.5" y="65.4" width="2.4" height="2.4"/>
		<rect x="27.4" y="65.4" width="2.4" height="2.4"/>
		<rect x="46.4" y="65.4" width="2.4" height="2.4"/>
		<rect x="48.8" y="65.4" width="2.4" height="2.4"/>
		<rect x="51.2" y="65.4" width="2.4" height="2.4"/>
		<rect x="53.5" y="65.4" width="2.4" height="2.4"/>
		<rect x="58.3" y="65.4" width="2.4" height="2.4"/>
		<rect x="63" y="65.4" width="2.4" height="2.4"/>
		<rect x="67.8" y="65.4" width="2.4" height="2.4"/>
		<rect x="72.5" y="65.4" width="2.4" height="2.4"/>
		<rect x="74.9" y="65.4" width="2.4" height="2.4"/>
		<rect x="79.7" y="65.4" width="2.4" height="2.4"/>
		<rect x="89.2" y="65.4" width="2.4" height="2.4"/>
		<rect x="6" y="67.8" width="2.4" height="2.4"/>
		<rect x="15.5" y="67.8" width="2.4" height="2.4"/>
		<rect x="17.9" y="67.8" width="2.4" height="2.4"/>
		<rect x="20.3" y="67.8" width="2.4" height="2.4"/>
		<rect x="27.4" y="67.8" width="2.4" height="2.4"/>
		<rect x="29.8" y="67.8" width="2.4" height="2.4"/>
		<rect x="34.5" y="67.8" width="2.4" height="2.4"/>
		<rect x="39.3" y="67.8" width="2.4" height="2.4"/>
		<rect x="41.6" y="67.8" width="2.4" height="2.4"/>
		<rect x="44" y="67.8" width="2.4" height="2.4"/>
		<rect x="51.2" y="67.8" width="2.4" height="2.4"/>
		<rect x="65.4" y="67.8" width="2.4" height="2.4"/>
		<rect x="67.8" y="67.8" width="2.4" height="2.4"/>
		<rect x="70.2" y="67.8" width="2.4" height="2.4"/>
		<rect x="77.3" y="67.8" width="2.4" height="2.4"/>
		<rect x="79.7" y="67.8" width="2.4" height="2.4"/>
		<rect x="82" y="67.8" width="2.4" height="2.4"/>
		<rect x="89.2" y="67.8" width="2.4" height="2.4"/>
		<rect x="91.6" y="67.8" width="2.4" height="2.4"/>
		<rect x="6" y="70.2" width="2.4" height="2.4"/>
		<rect x="10.8" y="70.2" width="2.4" height="2.4"/>
		<rect x="15.5" y="70.2" width="2.4" height="2.4"/>
		<rect x="17.9" y="70.2" width="2.4" height="2.4"/>
		<rect x="22.6" y="70.2" width="2.4" height="2.4"/>
		<rect x="27.4" y="70.2" width="2.4" height="2.4"/>
		<rect x="34.5" y="70.2" width="2.4" height="2.4"/>
		<rect x="36.9" y="70.2" width="2.4" height="2.4"/>
		<rect x="44" y="70.2" width="2.4" height="2.4"/>
		<rect x="48.8" y="70.2" width="2.4" height="2.4"/>
		<rect x="51.2" y="70.2" width="2.4" height="2.4"/>
		<rect x="53.5" y="70.2" width="2.4" height="2.4"/>
		<rect x="55.9" y="70.2" width="2.4" height="2.4"/>
		<rect x="58.3" y="70.2" width="2.4" height="2.4"/>
		<rect x="63" y="70.2" width="2.4" height="2.4"/>
		<rect x="67.8" y="70.2" width="2.4" height="2.4"/>
		<rect x="74.9" y="70.2" width="2.4" height="2.4"/>
		<rect x="79.7" y="70.2" width="2.4" height="2.4"/>
		<rect x="82" y="70.2" width="2.4" height="2.4"/>
		<rect x="84.4" y="70.2" width="2.4" height="2.4"/>
		<rect x="6" y="72.5" width="2.4" height="2.4"/>
		<rect x="15.5" y="72.5" width="2.4" height="2.4"/>
		<rect x="17.9" y="72.5" width="2.4" height="2.4"/>
		<rect x="20.3" y="72.5" width="2.4" height="2.4"/>
		<rect x="22.6" y="72.5" width="2.4" height="2.4"/>
		<rect x="29.8" y="72.5" width="2.4" height="2.4"/>
		<rect x="32.1" y="72.5" width="2.4" height="2.4"/>
		<rect x="34.5" y="72.5" width="2.4" height="2.4"/>
		<rect x="36.9" y="72.5" width="2.4" height="2.4"/>
		<rect x="39.3" y="72.5" width="2.4" height="2.4"/>
		<rect x="48.8" y="72.5" width="2.4" height="2.4"/>
		<rect x="55.9" y="72.5" width="2.4" height="2.4"/>
		<rect x="63" y="72.5" width="2.4" height="2.4"/>
		<rect x="65.4" y="72.5" width="2.4" height="2.4"/>
		<rect x="67.8" y="72.5" width="2.4" height="2.4"/>
		<rect x="70.2" y="72.5" width="2.4" height="2.4"/>
		<rect x="72.5" y="72.5" width="2.4" height="2.4"/>
		<rect x="74.9" y="72.5" width="2.4" height="2.4"/>
		<rect x="77.3" y="72.5" width="2.4" height="2.4"/>
		<rect x="79.7" y="72.5" width="2.4" height="2.4"/>
		<rect x="82" y="72.5" width="2.4" height="2.4"/>
		<rect x="84.4" y="72.5" width="2.4" height="2.4"/>
		<rect x="86.8" y="72.5" width="2.4" height="2.4"/>
		<rect x="89.2" y="72.5" width="2.4" height="2.4"/>
		<rect x="91.6" y="72.5" width="2.4" height="2.4"/>
		<rect x="25" y="74.9" width="2.4" height="2.4"/>
		<rect x="27.4" y="74.9" width="2.4" height="2.4"/>
		<rect x="29.8" y="74.9" width="2.4" height="2.4"/>
		<rect x="32.1" y="74.9" width="2.4" height="2.4"/>
		<rect x="34.5" y="74.9" width="2.4" height="2.4"/>
		<rect x="51.2" y="74.9" width="2.4" height="2.4"/>
		<rect x="53.5" y="74.9" width="2.4" height="2.4"/>
		<rect x="60.7" y="74.9" width="2.4" height="2.4"/>
		<rect x="65.4" y="74.9" width="2.4" height="2.4"/>
		<rect x="72.5" y="74.9" width="2.4" height="2.4"/>
		<rect x="82" y="74.9" width="2.4" height="2.4"/>
		<rect x="29.8" y="77.3" width="2.4" height="2.4"/>
		<rect x="34.5" y="77.3" width="2.4" height="2.4"/>
		<rect x="48.8" y="77.3" width="2.4" height="2.4"/>
		<rect x="55.9" y="77.3" width="2.4" height="2.4"/>
		<rect x="58.3" y="77.3" width="2.4" height="2.4"/>
		<rect x="65.4" y="77.3" width="2.4" height="2.4"/>
		<rect x="67.8" y="77.3" width="2.4" height="2.4"/>
		<rect x="72.5" y="77.3" width="2.4" height="2.4"/>
		<rect x="77.3" y="77.3" width="2.4" height="2.4"/>
		<rect x="82" y="77.3" width="2.4" height="2.4"/>
		<rect x="84.4" y="77.3" width="2.4" height="2.4"/>
		<rect x="91.6" y="77.3" width="2.4" height="2.4"/>
		<rect x="29.8" y="79.7" width="2.4" height="2.4"/>
		<rect x="34.5" y="79.7" width="2.4" height="2.4"/>
		<rect x="51.2" y="79.7" width="2.4" height="2.4"/>
		<rect x="55.9" y="79.7" width="2.4" height="2.4"/>
		<rect x="63" y="79.7" width="2.4" height="2.4"/>
		<rect x="72.5" y="79.7" width="2.4" height="2.4"/>
		<rect x="82" y="79.7" width="2.4" height="2.4"/>
		<rect x="89.2" y="79.7" width="2.4" height="2.4"/>
		<rect x="25" y="82" width="2.4" height="2.4"/>
		<rect x="29.8" y="82" width="2.4" height="2.4"/>
		<rect x="34.5" y="82" width="2.4" height="2.4"/>
		<rect x="44" y="82" width="2.4" height="2.4"/>
		<rect x="46.4" y="82" width="2.4" height="2.4"/>
		<rect x="51.2" y="82" width="2.4" height="2.4"/>
		<rect x="53.5" y="82" width="2.4" height="2.4"/>
		<rect x="55.9" y="82" width="2.4" height="2.4"/>
		<rect x="60.7" y="82" width="2.4" height="2.4"/>
		<rect x="63" y="82" width="2.4" height="2.4"/>
		<rect x="65.4" y="82" width="2.4" height="2.4"/>
		<rect x="67.8" y="82" width="2.4" height="2.4"/>
		<rect x="70.2" y="82" width="2.4" height="2.4"/>
		<rect x="72.5" y="82" width="2.4" height="2.4"/>
		<rect x="74.9" y="82" width="2.4" height="2.4"/>
		<rect x="77.3" y="82" width="2.4" height="2.4"/>
		<rect x="79.7" y="82" width="2.4" height="2.4"/>
		<rect x="82" y="82" width="2.4" height="2.4"/>
		<rect x="86.8" y="82" width="2.4" height="2.4"/>
		<rect x="89.2" y="82" width="2.4" height="2.4"/>
		<rect x="25" y="84.4" width="2.4" height="2.4"/>
		<rect x="29.8" y="84.4" width="2.4" height="2.4"/>
		<rect x="32.1" y="84.4" width="2.4" height="2.4"/>
		<rect x="36.9" y="84.4" width="2.4" height="2.4"/>
		<rect x="39.3" y="84.4" width="2.4" height="2.4"/>
		<rect x="44" y="84.4" width="2.4" height="2.4"/>
		<rect x="46.4" y="84.4" width="2.4" height="2.4"/>
		<rect x="48.8" y="84.4" width="2.4" height="2.4"/>
		<rect x="51.2" y="84.4" width="2.4" height="2.4"/>
		<rect x="53.5" y="84.4" width="2.4" height="2.4"/>
		<rect x="58.3" y="84.4" width="2.4" height="2.4"/>
		<rect x="70.2" y="84.4" width="2.4" height="2.4"/>
		<rect x="72.5" y="84.4" width="2.4" height="2.4"/>
		<rect x="77.3" y="84.4" width="2.4" height="2.4"/>
		<rect x="82" y="84.4" width="2.4" height="2.4"/>
		<rect x="84.4" y="84.4" width="2.4" height="2.4"/>
		<rect x="86.8" y="84.4" width="2.4" height="2.4"/>
		<rect x="25" y="86.8" width="2.4" height="2.4"/>
		<rect x="29.8" y="86.8" width="2.4" height="2.4"/>
		<rect x="32.1" y="86.8" width="2.4" height="2.4"/>
		<rect x="34.5" y="86.8" width="2.4" height="2.4"/>
		<rect x="41.6" y="86.8" width="2.4" height="2.4"/>
		<rect x="46.4" y="86.8" width="2.4" height="2.4"/>
		<rect x="48.8" y="86.8" width="2.4" height="2.4"/>
		<rect x="51.2" y="86.8" width="2.4" height="2.4"/>
		<rect x="53.5" y="86.8" width="2.4" height="2.4"/>
		<rect x="60.7" y="86.8" width="2.4" height="2.4"/>
		<rect x="63" y="86.8" width="2.4" height="2.4"/>
		<rect x="65.4" y="86.8" width="2.4" height="2.4"/>
		<rect x="72.5" y="86.8" width="2.4" height="2.4"/>
		<rect x="74.9" y="86.8" width="2.4" height="2.4"/>
		<rect x="79.7" y="86.8" width="2.4" height="2.4"/>
		<rect x="84.4" y="86.8" width="2.4" height="2.4"/>
		<rect x="91.6" y="86.8" width="2.4" height="2.4"/>
		<rect x="27.4" y="89.2" width="2.4" height="2.4"/>
		<rect x="29.8" y="89.2" width="2.4" height="2.4"/>
		<rect x="41.6" y="89.2" width="2.4" height="2.4"/>
		<rect x="46.4" y="89.2" width="2.4" height="2.4"/>
		<rect x="48.8" y="89.2" width="2.4" height="2.4"/>
		<rect x="51.2" y="89.2" width="2.4" height="2.4"/>
		<rect x="53.5" y="89.2" width="2.4" height="2.4"/>
		<rect x="55.9" y="89.2" width="2.4" height="2.4"/>
		<rect x="60.7" y="89.2" width="2.4" height="2.4"/>
		<rect x="67.8" y="89.2" width="2.4" height="2.4"/>
		<rect x="70.2" y="89.2" width="2.4" height="2.4"/>
		<rect x="72.5" y="89.2" width="2.4" height="2.4"/>
		<rect x="77.3" y="89.2" width="2.4" height="2.4"/>
		<rect x="91.6" y="89.2" width="2.4" height="2.4"/>
		<rect x="27.4" y="91.6" width="2.4" height="2.4"/>
		<rect x="29.8" y="91.6" width="2.4" height="2.4"/>
		<rect x="32.1" y="91.6" width="2.4" height="2.4"/>
		<rect x="39.3" y="91.6" width="2.4" height="2.4"/>
		<rect x="46.4" y="91.6" width="2.4" height="2.4"/>
		<rect x="48.8" y="91.6" width="2.4" height="2.4"/>
		<rect x="53.5" y="91.6" width="2.4" height="2.4"/>
		<rect x="60.7" y="91.6" width="2.4" height="2.4"/>
		<rect x="65.4" y="91.6" width="2.4" height="2.4"/>
		<rect x="67.8" y="91.6" width="2.4" height="2.4"/>
		<rect x="77.3" y="91.6" width="2.4" height="2.4"/>
		<rect x="79.7" y="91.6" width="2.4" height="2.4"/>
		<rect x="84.4" y="91.6" width="2.4" height="2.4"/>
		<rect x="86.8" y="91.6" width="2.4" height="2.4"/>
		<rect x="89.2" y="91.6" width="2.4" height="2.4"/>
		<rect x="91.6" y="91.6" width="2.4" height="2.4"/>
		<path d="M6,6v16.6h16.6V6H6L6,6z M20.3,20.3H8.4V8.4h11.9V20.3L20.3,20.3z"/>
		<path d="M77.3,6v16.6h16.6V6H77.3L77.3,6z M91.6,20.3H79.7V8.4h11.9V20.3L91.6,20.3z"/>
		<path d="M6,77.3v16.6h16.6V77.3H6L6,77.3z M20.3,91.6H8.4V79.7h11.9V91.6L20.3,91.6z"/>
		<rect x="10.8" y="10.8" width="7.1" height="7.1"/>
		<rect x="82" y="10.8" width="7.1" height="7.1"/>
		<rect x="10.8" y="82" width="7.1" height="7.1"/>
		<g>
			<defs>
				<rect id="SVGID_00000106111072857317969420000017213339952856467645_" x="30.4" y="30.4" width="39.2" height="39.2"/>
			</defs>
			<clipPath id="SVGID_00000170268136745447718570000013755388926038595984_">
				<use xlink:href="#SVGID_00000106111072857317969420000017213339952856467645_"  style="overflow:visible;"/>
			</clipPath>
			<path style="clip-path:url(#SVGID_00000170268136745447718570000013755388926038595984_);fill:#FFFFFF;" d="M59.7,30.4H40.2
				c-5.4,0-9.9,4.4-9.9,9.9v19.5c0,5.4,4.4,9.9,9.9,9.9h19.5c5.4,0,9.9-4.4,9.9-9.9V40.2C69.6,34.8,65.1,30.4,59.7,30.4L59.7,30.4z"
				/>
		</g>
		<path class="st2" d="M59.7,32.4c4.3,0,7.8,3.5,7.8,7.8v19.5c0,4.3-3.5,7.8-7.8,7.8H40.2c-4.3,0-7.8-3.5-7.8-7.8V40.2
			c0-4.3,3.5-7.8,7.8-7.8H59.7"/>
		<path class="st3" d="M37.3,41.2c-0.1,0-0.2,0-0.3-0.1C37,41,36.9,41,36.9,40.9v-1c0-0.1,0-0.2,0.1-0.2c0.1-0.1,0.1-0.1,0.2-0.1
			h3.5v-1.1c0-0.1,0-0.2,0.1-0.2S41,38,41.1,38h2.7c0.1,0,0.1,0,0.2,0.1c0.1,0.1,0.1,0.2,0.1,0.2v1.1h3.1c0.1,0,0.2,0,0.3,0.1
			c0.1,0.1,0.1,0.1,0.1,0.2v1c0,0.1,0,0.2-0.1,0.3c-0.1,0.1-0.2,0.1-0.3,0.1L37.3,41.2L37.3,41.2L37.3,41.2z M47.6,57.2
			c-0.1,0.1-0.2,0.1-0.3,0.1h-3.1v4.6c0,0.3-0.1,0.4-0.4,0.4h-2.6c-0.1,0-0.2,0-0.3-0.1s-0.1-0.2-0.1-0.3v-4.7h-3.6
			c-0.1,0-0.2,0-0.3-0.1s-0.1-0.1-0.1-0.2v-1.1c0-0.1,0-0.2,0.1-0.2c0.1-0.1,0.1-0.1,0.2-0.1h10.1c0.1,0,0.2,0,0.3,0.1
			c0.1,0.1,0.1,0.1,0.1,0.2v1C47.7,57,47.6,57.1,47.6,57.2L47.6,57.2z M63.3,53.6c0,0.1-0.1,0.1-0.2,0.1h-2.5c-0.1,0-0.2,0-0.4-0.1
			c-0.1,0-0.2-0.1-0.3-0.2l-0.7-0.8l-0.5,0.7c-0.1,0.1-0.2,0.2-0.3,0.2c-0.1,0.1-0.2,0.1-0.3,0.1h-9.5c-0.1,0-0.2,0-0.3-0.1
			c-0.1-0.1-0.1-0.1-0.1-0.2v-1.2c0-0.2,0.1-0.3,0.3-0.3h5.1v-1.7h-3.4c-0.3,0-0.6-0.1-0.9-0.3c-0.4-0.2-0.5-0.6-0.5-1.1v-4.8
			c0-0.4,0.1-0.7,0.5-1c0.1-0.1,0.3-0.3,0.5-0.4c0.2-0.1,0.4-0.1,0.6-0.1h3.3v-1.5h-5.2c-0.1,0-0.2,0-0.3-0.1
			c-0.1-0.1-0.1-0.1-0.1-0.2v-1.2c0-0.2,0.1-0.3,0.3-0.3h5.2v-1.1c0-0.1,0-0.2,0.1-0.2s0.1-0.1,0.2-0.1h2.9c0.1,0,0.1,0,0.2,0.1
			c0.1,0.1,0.1,0.1,0.1,0.2v1.1h4.9c0.1,0,0.2,0,0.3,0.1s0.1,0.1,0.1,0.2v1c0,0.1,0,0.2-0.1,0.3c-0.1,0.1-0.2,0.1-0.3,0.1h-5v1.5
			h3.3c0.5,0,0.9,0.2,1.2,0.5c0.3,0.3,0.4,0.7,0.4,1.1v4.5c0,0.5-0.1,0.8-0.4,1.1c-0.3,0.3-0.6,0.4-1,0.4h-3.4V52h1.6l-0.6-0.8
			c-0.1-0.1-0.1-0.1,0-0.2c0-0.1,0.1-0.1,0.2-0.1h2.7c0.1,0,0.2,0.1,0.4,0.2l1.8,2.3C63.4,53.4,63.4,53.5,63.3,53.6L63.3,53.6z
			 M62.5,57.2c-0.1,0.1-0.2,0.1-0.3,0.1h-1.7v3.3c0,0.4-0.2,0.8-0.6,1.2c-0.1,0.1-0.3,0.3-0.5,0.4c-0.2,0.1-0.4,0.1-0.6,0.1h-2.5
			c-0.1,0-0.2-0.1-0.3-0.2l-0.6-1.2c0,0,0-0.1,0-0.2c0-0.1,0.1-0.1,0.2-0.1h1.5v-3.3h-8.4c-0.1,0-0.2,0-0.3-0.1
			c-0.1-0.1-0.1-0.1-0.1-0.2v-1.2c0-0.2,0.1-0.3,0.3-0.3H57v-1.1c0-0.1,0-0.2,0.1-0.3c0.1-0.1,0.2-0.1,0.4-0.1h2.6
			c0.1,0,0.2,0,0.3,0.1c0.1,0.1,0.1,0.2,0.1,0.3v1.1h1.7c0.1,0,0.2,0,0.3,0.1c0.1,0.1,0.1,0.1,0.1,0.2v1
			C62.6,57,62.5,57.1,62.5,57.2L62.5,57.2z M55,61.1c0,0.1-0.1,0.1-0.1,0.1h-3.1c-0.1,0-0.2,0-0.4-0.1c-0.1,0-0.2-0.1-0.3-0.2
			l-1.9-2.8c0-0.1,0-0.1,0-0.2c0-0.1,0.1-0.1,0.2-0.1h3.3c0.1,0,0.3,0.1,0.4,0.2l1.9,2.8C55,60.9,55,61,55,61.1L55,61.1z M52.1,44.4
			v1.2h1.7l0-1.2H52.1L52.1,44.4z M53.8,47.4h-1.7v1.2h1.7V47.4L53.8,47.4z M58.9,44.4h-1.7v1.2h1.7V44.4L58.9,44.4z M58.9,47.4
			h-1.7v1.2h1.7V47.4L58.9,47.4z"/>
		<path class="st3" d="M45.8,43.8L41.6,41v1.6c-2.8,0.3-5.1,2.7-5.1,5.7c0,1.5,0.3,2.2,1.1,3.4l2.1-1.4c-0.1-0.1-0.6-0.9-0.7-1.9
			c0-1.5,1.1-2.8,2.6-3.2v1.6L45.8,43.8L45.8,43.8z"/>
		<path class="st3" d="M47.9,48.3c0-1.5-0.4-2.4-1.1-3.4l-2.1,1.4c0.4,0.6,0.7,1.1,0.7,1.9c0,1.6-1.1,2.8-2.6,3.1v-1.6l-4.2,2.9
			l4.2,2.9v-1.6C45.7,53.6,47.9,51.2,47.9,48.3L47.9,48.3z"/>
	</g>
</g>
</svg>
