<?xml version="1.0" encoding="utf-8"?>
<!-- Generator: Adobe Illustrator 16.0.0, SVG Export Plug-In . SVG Version: 6.00 Build 0)  -->
<!DOCTYPE svg PUBLIC "-//W3C//DTD SVG 1.1//EN" "http://www.w3.org/Graphics/SVG/1.1/DTD/svg11.dtd">
<svg version="1.1" id="Track" xmlns="http://www.w3.org/2000/svg" xmlns:xlink="http://www.w3.org/1999/xlink" x="0px" y="0px"
	 width="60.378px" height="56.693px" viewBox="0 0 60.378 56.693" enable-background="new 0 0 60.378 56.693" xml:space="preserve">
<path fill="#fff" d="M30.188,55.11c-4.124,0-7.688-2.274-8.951-5.619H4.175v-4.531c0-3.011,1.957-5.711,5.106-7.046
	c0.511-0.217,1.464-0.622,1.464-2.864v-9.948c0-6.676,4.736-12.78,11.859-15.389V6.928c0-3.215,3.402-5.831,7.583-5.831
	c4.182,0,7.584,2.616,7.584,5.831v2.486c7.127,2.33,11.861,8.191,11.861,14.788v10.847c0,2.242,0.953,2.647,1.466,2.865
	c3.147,1.334,5.103,4.033,5.103,7.045v4.531H39.141C37.879,52.835,34.315,55.11,30.188,55.11z M6.175,47.491h16.562l0.196,0.745
	c0.744,2.824,3.795,4.874,7.255,4.874c3.463,0,6.514-2.05,7.256-4.873l0.196-0.746h16.562v-2.531c0-2.194-1.488-4.188-3.884-5.204
	c-1.807-0.769-2.685-2.308-2.685-4.706V24.202c0-5.917-4.475-11.176-11.137-13.087l-0.725-0.208V6.928
	c0-2.077-2.557-3.831-5.584-3.831c-3.026,0-5.583,1.754-5.583,3.831v4.221l-0.688,0.226c-6.682,2.189-11.171,7.706-11.171,13.728
	v9.948c0,2.398-0.877,3.938-2.683,4.705c-2.398,1.017-3.887,3.011-3.887,5.205V47.491z"/>
</svg>
