<?xml version="1.0" encoding="utf-8"?>
<!-- Generator: Adobe Illustrator 16.0.0, SVG Export Plug-In . SVG Version: 6.00 Build 0)  -->
<!DOCTYPE svg PUBLIC "-//W3C//DTD SVG 1.1//EN" "http://www.w3.org/Graphics/SVG/1.1/DTD/svg11.dtd">
<svg version="1.1" id="Track" xmlns="http://www.w3.org/2000/svg" xmlns:xlink="http://www.w3.org/1999/xlink" x="0px" y="0px"
	 width="60.378px" height="56.693px" viewBox="0 0 60.378 56.693" enable-background="new 0 0 60.378 56.693" xml:space="preserve">
<path fill="#fff" d="M44.029,6.599c0.633,0,1.252,0.048,1.837,0.144c7.267,1.185,10.662,7.511,11.169,10.389
	c1.391,7.913-6.372,17.343-7.262,18.393l-0.051,0.06l-0.036,0.044c-3.927,4.727-10.582,9.361-19.79,13.782
	C19.416,44.694,4.821,33.529,3.434,23.858l-0.007-0.043L3.42,23.776c-0.018-0.097-1.721-9.781,4.312-14.348
	c2.25-1.704,5.144-2.604,8.369-2.604c4.508,0,9.411,1.797,12.491,4.579l1.239,1.119l1.323-1.019
	C31.215,11.454,37.592,6.599,44.029,6.599 M44.029,4.599c-7.193,0-14.098,5.32-14.098,5.32C26.635,6.942,21.343,4.824,16.1,4.824
	c-3.398,0-6.775,0.889-9.576,3.01c-7.125,5.395-5.07,16.309-5.07,16.309c1.582,11.026,17.545,22.805,28.478,27.465
	c15.047-7.088,19.932-13.064,21.331-14.746c0.291-0.352,9.377-10.781,7.742-20.077C58.303,12.793,54.09,6.057,46.188,4.769
	C45.469,4.651,44.748,4.599,44.029,4.599L44.029,4.599z"/>
</svg>
