<?xml version="1.0" encoding="utf-8"?>
<!-- Generator: Adobe Illustrator 27.6.1, SVG Export Plug-In . SVG Version: 6.00 Build 0)  -->
<svg version="1.1" id="圖層_2" xmlns="http://www.w3.org/2000/svg" xmlns:xlink="http://www.w3.org/1999/xlink" x="0px" y="0px"
	 width="45.9px" height="48px" viewBox="0 0 45.9 48" style="enable-background:new 0 0 45.9 48;" xml:space="preserve">
<style type="text/css">
	.製作陰影{fill:none;}
	.圓角_x0020_2_x0020_點{fill:#FFFFFF;stroke:#231815;stroke-miterlimit:10;}
	.即時反射_x0020_X{fill:none;}
	.柔化斜角{fill:url(#SVGID_1_);}
	.黃昏{fill:#FFFFFF;}
	.葉子_GS{fill:#FFE100;}
	.高捲式髮型_GS{fill-rule:evenodd;clip-rule:evenodd;fill:#4CACE2;}
	.st0{fill:#37AD1B;}
	.st1{fill:#0078C7;}
</style>
<linearGradient id="SVGID_1_" gradientUnits="userSpaceOnUse" x1="-26.7339" y1="-27.1304" x2="-26.0268" y2="-26.4233">
	<stop  offset="0" style="stop-color:#E6E7EA"/>
	<stop  offset="0.1747" style="stop-color:#E2E3E6"/>
	<stop  offset="0.3538" style="stop-color:#D6D7DA"/>
	<stop  offset="0.5349" style="stop-color:#C1C4C5"/>
	<stop  offset="0.7174" style="stop-color:#A4A8A8"/>
	<stop  offset="0.8993" style="stop-color:#808584"/>
	<stop  offset="1" style="stop-color:#686E6C"/>
</linearGradient>
<g>
	<path class="st0" d="M45.9,15.4H0V0h45.9V15.4z"/>
	<path class="st1" d="M45.9,34.1H0V18.6h45.9V34.1z"/>
	<g>
		<g>
			<path class="st1" d="M0.6,38.9H0v7h1.4v-3.1h3.2v-1.3H1.4v-1.3h3.2v-1.3H1.4H0.6z M8.8,42.5c0,0,0.1-0.9-0.9-1.3
				c-0.9-0.4-2.2-0.2-2.7,0v1.2c0,0,0.4-0.4,1.4-0.4c1,0,0.9,0.7,0.9,0.7s-0.9-0.2-1.6,0c-0.7,0.2-1.2,0.9-1.2,1.6
				c0,0.8,0.7,1.5,1.6,1.5c0.9,0,1-0.2,1.1-0.3c0.1-0.1,0.3-0.1,0.3,0.3h1.3c0,0-0.1-0.2-0.1-0.6C8.8,45,8.8,42.5,8.8,42.5z
				 M7.5,44.6c0,0-0.6,0.4-1.2,0.1c-0.5-0.2-0.3-1.1,0.5-1.1c0.4,0,0.8,0.2,0.8,0.2V44.6z M38.5,42.5c0,0,0.1-0.9-0.9-1.3
				c-0.9-0.4-2.2-0.2-2.7,0v1.2c0,0,0.4-0.4,1.4-0.4c1,0,0.9,0.7,0.9,0.7s-0.9-0.2-1.6,0c-0.7,0.2-1.2,0.9-1.2,1.6
				c0,0.8,0.7,1.5,1.6,1.5c0.9,0,1-0.2,1.1-0.3c0.1-0.1,0.3-0.1,0.3,0.3h1.3c0,0-0.1-0.2-0.1-0.6C38.5,45,38.5,42.5,38.5,42.5z
				 M37.2,44.6c0,0-0.6,0.4-1.2,0.1c-0.5-0.2-0.3-1.1,0.5-1.1c0.4,0,0.8,0.2,0.8,0.2V44.6z M14.8,41c-0.6,0-1.2,0.3-1.4,0.5
				c0,0-0.2-0.6-1.3-0.6c-0.4,0-0.9,0.1-1.1,0.4V41H9.7v4.9H11v-3.2c0.1-0.1,0.3-0.4,0.7-0.4c0.6,0,0.7,0.3,0.7,0.6c0,0.2,0,3,0,3
				h1.4v-3c0,0,0-0.6,0.7-0.6c0.8,0,0.7,0.6,0.7,0.6v3h1.4c0,0,0-3.1,0-3.5C16.6,41.9,16.4,41,14.8,41z M17.6,45.9h1.3v-4.8h-1.3
				V45.9z M18.2,38.9c-0.5,0-0.9,0.4-0.9,0.9c0,0.5,0.4,0.9,0.9,0.9c0.5,0,0.9-0.4,0.9-0.9C19.1,39.3,18.7,38.9,18.2,38.9z
				 M19.8,45.9h1.4v-7h-1.4V45.9z M24.3,43.7l-1.1-2.7h-1.5l1.8,4.4l-1,2.5H24l2.7-6.9h-1.5L24.3,43.7z M30.4,41l-1.8-2.1h-1.5v7
				h1.5v-4.6l1.8,2.1l1.8-2.1v4.6h1.5v-7h-1.4L30.4,41z M40.7,41.4v-0.4h-1.4v4.8h1.4v-3c0.4-0.7,1.6-0.2,1.6-0.2v-1.4
				C41.3,40.9,40.9,41.2,40.7,41.4z M45,44.6c-0.3-0.1-0.3-0.6-0.3-0.6v-1.7h1.2v-1.2h-1.2v-1.6l-1.3,0.4v1.1h-0.8v1.2h0.8v2.2
				c0,0,0,1.3,1.4,1.3c0.7,0,1.1-0.2,1.1-0.2v-1.2C45.9,44.5,45.5,44.7,45,44.6z"/>
		</g>
	</g>
</g>
</svg>
