<?xml version="1.0" encoding="utf-8"?>
<!-- Generator: Adobe Illustrator 27.6.1, SVG Export Plug-In . SVG Version: 6.00 Build 0)  -->
<svg version="1.1" id="圖層_1" xmlns="http://www.w3.org/2000/svg" xmlns:xlink="http://www.w3.org/1999/xlink" x="0px" y="0px"
	 width="48px" height="48px" viewBox="0 0 48 48" style="enable-background:new 0 0 48 48;" xml:space="preserve">
<style type="text/css">
	.st0{fill:#808080;stroke:#000000;stroke-width:0.3276;}
	.st1{fill:#009844;}
	.st2{fill:#FFFFFF;}
	.st3{fill:#E50012;}
	.st4{fill:#EF8200;}
	.st5{fill:none;stroke:#009844;stroke-width:0.3276;}
</style>
<g>
	<path class="st0" d="M22.8,26.9"/>
	<rect class="st1" width="48" height="48"/>
	<path class="st2" d="M42.5,4c0.7,0.1,1.3,0.7,1.5,1.4c0.2,0.3,0.2,0.7,0.1,1.1l-3.9,36.9c-0.1,0.5-0.5,1-1,1.3c-2,0.1-7.9,0-8.9,0
		l-0.1,1.8L30,46.5H18.7v-0.1l-0.1-1.8l-8.9-0.1c-0.5,0-1-0.4-1.3-0.9L8.3,43L7.1,30.4C6.6,24.7,6,18.9,5.6,13.1l0,0V13L4.9,5.8
		C5,5.2,5.2,4.5,5.8,4.2C6.1,4.1,6.3,4,6.6,3.9L42.5,4z"/>
	<path class="st3" d="M38.3,9.5c0,3,0,6.2-0.1,9.3c-0.5,0.2-1,0.4-1.5,0.7c-2.3,1.3-4.5,3.5-5.4,6.1l-0.2,0.9H31h-9.5
		c0.2-1.6,0.8-3.1,1.6-4.5c0.1,0,0-0.1,0.1-0.2c2-3.9,5.3-7,9-9.3c1.9-1.4,4.1-2.4,6.2-3.3C38.2,9.2,38.3,9.4,38.3,9.5z"/>
	<path class="st4" d="M35,9.6c-3.2,1.7-6.4,3.8-9.2,6.4c-0.7,0.8-1.5,1.5-2.1,2.3H11.3V9.5C11.3,9.6,34,9.5,35,9.6z"/>
	<path class="st3" d="M29.8,46H19.3c0-3.8,0.6-11.3,0.6-11.3H30C30,34.7,29.8,42.4,29.8,46z"/>
	<path class="st5" d="M32.8,37.9c0.7,0,1.3-0.5,1.3-1.3c0-0.7-0.5-1.3-1.3-1.3s-1.3,0.6-1.3,1.3C31.5,37.4,32.1,37.9,32.8,37.9z"/>
	<path class="st1" d="M32.7,35.9c0.1,0,0.2,0,0.3,0l0.1,0.1l0.1,0.1c0,0,0,0.1-0.1,0.2L33,36.4c-0.1,0-0.1,0-0.3,0h-0.3v-0.6h0.3
		V35.9z M32.7,36.7c0.1,0.1,0.2,0.2,0.3,0.2l0.3,0.4h0.3l-0.3-0.4c0,0,0-0.1-0.1-0.1l-0.1-0.1c0,0-0.1,0-0.1-0.1
		c0.1,0,0.2-0.1,0.2-0.1c0.1,0,0.1-0.1,0.1-0.2c0-0.1,0.1-0.1,0.1-0.2c0-0.1,0-0.1-0.1-0.2c0-0.1-0.1-0.1-0.2-0.1
		c-0.1,0-0.2-0.1-0.4-0.1h-0.6v1.7h0.3v-0.7h0.3V36.7z"/>
	<polygon class="st1" points="14.3,28.7 14.3,27.2 10.5,27.3 10.5,33.8 14.2,33.8 14.2,32.5 12.7,32.5 12.7,31.3 14.3,31.3 
		14.3,29.9 12.7,29.9 12.7,28.7 	"/>
	<polygon class="st1" points="23.1,28.7 23.1,27.3 19.3,27.3 19.3,33.8 23,33.8 23,32.5 21.4,32.5 21.4,31.3 23.1,31.3 23.1,29.9 
		21.4,29.9 21.4,28.7 	"/>
	<polygon class="st1" points="32.8,28.8 32.8,27.3 29,27.3 29,33.9 32.7,33.9 32.7,32.6 31.1,32.6 31.1,31.4 32.8,31.4 32.8,29.9 
		31.1,29.9 31.1,28.8 	"/>
	<polygon class="st1" points="17.1,32.3 17.1,27.2 14.9,27.2 14.9,33.8 18.8,33.8 18.8,32.3 	"/>
	<polygon class="st1" points="23.4,27.2 25.3,27.2 26,31.2 26.9,27.4 28.5,27.4 27.2,33.8 24.5,33.8 	"/>
	<path class="st1" d="M35.6,27.7v-0.3h-2.1V34h2.1v-4.8c0.2-0.2,0.8-0.7,1.1,0v4.6h2.1v-5.6C38.9,28.2,38.9,26.4,35.6,27.7z"/>
	<path class="st0" d="M38.2,28"/>
</g>
</svg>
