<?xml version="1.0" encoding="utf-8"?>
<!-- Generator: Adobe Illustrator 26.0.2, SVG Export Plug-In . SVG Version: 6.00 Build 0)  -->
<svg version="1.1" id="圖層_1" xmlns="http://www.w3.org/2000/svg" xmlns:xlink="http://www.w3.org/1999/xlink" x="0px" y="0px"
	 viewBox="0 0 525.86 82.96" style="enable-background:new 0 0 525.86 82.96;" xml:space="preserve">
<style type="text/css">
	.st0{fill:#FFFFFF;}
</style>
<g>
	<g>
		<path class="st0" d="M231.48,1.9c-1.24-1.24-2.82-1.9-4.57-1.9c-1.76,0-3.34,0.66-4.58,1.9c-1.24,1.24-1.89,2.82-1.89,4.57
			c0,1.75,0.65,3.33,1.89,4.57c1.24,1.24,2.82,1.89,4.58,1.89c1.75,0,3.33-0.65,4.56-1.89c1.24-1.24,1.9-2.82,1.9-4.58
			C233.37,4.71,232.72,3.13,231.48,1.9z"/>
		<path class="st0" d="M232.69,60.21V19h-11.52v41.24c0,1.4,0.58,2.66,1.67,3.65c1.11,0.99,2.51,1.52,4.08,1.52
			c1.56,0,2.97-0.53,4.08-1.53C232.08,62.89,232.65,61.65,232.69,60.21z"/>
		<path class="st0" d="M290.23,23.3l-1.79-5.72c-0.76-2.42-2.21-3.65-4.32-3.65c-0.75,0-1.6,0.16-2.51,0.48l-50.22,17.45
			c-1.77,0.62-2.93,1.5-3.46,2.64c-0.51,1.09-0.46,2.45,0.16,4.05l2.15,5.59c4.47,11.68,12.16,16.79,17.82,19.02
			c3.82,1.49,8.09,2.29,12.34,2.29l0,0c3.57,0,7.12-0.57,10.23-1.66C286.95,58.12,295.56,40.33,290.23,23.3z M260.1,54.54
			c-2.69,0-5.38-0.5-7.76-1.41c-3.82-1.49-8.92-4.84-11.54-12.36l-0.25-0.72l38.8-13.48l0.25,0.72c0.53,1.55,1.63,6.81,0.2,12.53
			c-1.67,6.65-5.99,11.23-12.86,13.61C264.84,54.16,262.48,54.54,260.1,54.54z"/>
		<path class="st0" d="M182.09,9.19c0.92-1.2,1.19-2.72,0.81-4.52c-0.43-2.06-2.2-4.47-5.76-4.47c-12.73,0-19.71,6.53-20.19,18.86
			l-0.06,1.4l-1.81,0.1c-1.22,0.11-2.34,0.68-3.24,1.65c-1.02,1.1-1.56,2.51-1.56,4.07c0,1.58,0.54,3.01,1.55,4.11
			c0.91,0.97,2,1.52,3.24,1.64l1.84,0.12v32.82h11.48V32.14h8.18c1.37,0,2.62-0.58,3.61-1.67c0.99-1.1,1.51-2.52,1.51-4.11
			c0-1.57-0.52-2.97-1.52-4.07c-0.98-1.1-2.23-1.67-3.6-1.67h-8.22v-1.65c0-4.31,1.33-6.87,8.1-7.25
			C178.91,11.58,180.96,10.66,182.09,9.19z"/>
		<path class="st0" d="M371.46,18.86c-0.79-0.33-1.78-0.52-2.69-0.52c-1.56,0-3.62,0.52-4.64,3.03l-9.44,22.34l-9.23-22.31
			c-1.14-2.8-3.89-3.11-5.01-3.11c-0.84,0-1.68,0.16-2.39,0.45c-0.94,0.39-2.6,1.62-3.33,3.43c-0.49,1.2-0.46,2.42,0.06,3.63
			l13.57,33.01l-10.15,24.1l12.49,0.05l23.97-56.91c0.52-1.16,0.52-2.69,0.01-4C374.3,21.06,373.42,19.7,371.46,18.86z"/>
		<path class="st0" d="M311.15,18.45c-6.35,0-11.85,2.28-16.34,6.77c-4.49,4.49-6.77,9.99-6.77,16.34c0,6.35,2.28,11.85,6.77,16.35
			c4.5,4.49,9.99,6.77,16.34,6.77c5.67,0,9.09-1.84,10.63-2.94l0.84-0.6l0.16,3.82h11.48V41.56c0-6.35-2.29-11.85-6.79-16.36
			C322.94,20.72,317.44,18.45,311.15,18.45z M321.85,46.01c-0.61,1.42-1.43,2.63-2.5,3.71c-1.03,1.04-2.27,1.89-3.69,2.51
			c-1.41,0.62-2.89,0.92-4.51,0.92c-1.65,0-3.13-0.3-4.54-0.92c-1.41-0.62-2.65-1.45-3.68-2.5c-1.03-1.04-1.86-2.28-2.47-3.69
			c-0.61-1.42-0.9-2.88-0.9-4.48c0-1.59,0.3-3.06,0.9-4.47c0.62-1.42,1.44-2.67,2.48-3.71c1.03-1.04,2.24-1.86,3.67-2.5
			c1.41-0.62,2.9-0.91,4.54-0.91c1.61,0,3.09,0.29,4.5,0.91c1.43,0.62,2.67,1.47,3.7,2.51c1.07,1.07,1.88,2.29,2.5,3.71
			c0.61,1.41,0.9,2.86,0.9,4.45C322.74,43.15,322.45,44.61,321.85,46.01z"/>
		<path class="st0" d="M217.67,23.33c-0.42-2.96-2.95-4.74-6.77-4.74l-0.99,0c-6.88,0-11.48,4.2-11.52,4.23l-0.93,0.87l-0.01-4.67
			h-11.49l0.02,41.27c0,1.38,0.58,2.62,1.67,3.61c1.1,0.99,2.52,1.52,4.11,1.52c1.57,0,2.98-0.52,4.09-1.52
			c1.09-0.98,1.65-2.23,1.65-3.6V41.89c0-6.86,7.56-10.69,11.02-11.38c0.58-0.12,1.33-0.17,2.12-0.22c0.66-0.03,1.33-0.08,1.9-0.17
			C214.84,29.78,218.28,27.63,217.67,23.33z"/>
	</g>
	<g>
		<path class="st0" d="M397.35,51.24c-0.7,3.91-2.1,8.38-4.19,13.54l-5.17-1.81c2.1-5.38,3.49-9.78,4.05-13.2L397.35,51.24z
			 M406.49,47.67h-16.06c-0.49,0-0.77-0.28-0.77-0.77V2.99c0-0.49,0.28-0.77,0.77-0.77h16.06c0.56,0,0.84,0.28,0.84,0.77v43.92
			C407.33,47.4,407.05,47.67,406.49,47.67z M401.95,15.56V7.81l-0.28-0.21h-6.42l-0.21,0.21v7.75H401.95z M401.95,28.96V21h-6.91
			v7.96H401.95z M395.04,34.34v7.68l0.21,0.28h6.42c0.21,0,0.28-0.07,0.28-0.28v-7.68H395.04z M404.47,50.19
			c1.54,2.93,2.86,6.49,4.05,10.96l-4.96,1.61c-1.26-4.54-2.65-8.17-3.91-10.68L404.47,50.19z M418.22,64.57h-5.38v-9.49h-3.7v-4.82
			h3.7V32.1c0-0.84,0.42-1.26,1.26-1.26h14.31v-3.91h-18.43v-4.82h10.26v-3.91h-7.82v-4.82h7.82V9.76h-9.71V4.95h9.71V0.48h5.38
			v4.47h11.52V0.2h5.38v4.75h9.29v4.82h-9.29v3.63h7.89v4.82h-7.89v3.91h10.33v4.82h-19.06v3.91h14.52c0.91,0,1.33,0.42,1.33,1.26
			v18.15h3.21v4.82h-3.21v3.7c0,2.16-0.84,3.77-2.58,4.96c-2.16,1.4-6,1.61-11.59,0.63l-0.21-5.93c4.05,1.05,6.56,1.26,7.54,0.56
			c0.98-0.56,1.4-1.4,1.4-2.44v-1.47h-25.97V64.57z M428.42,35.67h-9.77c-0.28,0-0.42,0.14-0.42,0.42v4.61h10.19V35.67z
			 M428.42,50.26v-4.75h-10.19v4.75H428.42z M437.14,9.76h-11.52v3.63h11.52V9.76z M437.14,22.12v-3.91h-11.52v3.91H437.14z
			 M433.79,40.69h10.4v-4.61c0-0.28-0.14-0.42-0.42-0.42h-9.98V40.69z M444.2,50.26v-4.75h-10.4v4.75H444.2z"/>
		<path class="st0" d="M473.84,19.05h-4.61c-0.84,5.93-1.61,10.12-2.3,12.29l-5.79-0.84c2.16-7.12,3.35-15.22,3.35-24.23V2.64h5.66
			v3.63l-0.35,6.84h4.05V0.2h5.93v12.92h6v5.93h-6v16.9l5.45-3.28l3.35,4.82c-2.51,1.68-5.45,3.35-8.8,4.96v22.41h-5.93V45.23
			l-9.29,3.91l-3.21-5.38c5.1-1.82,9.29-3.42,12.5-4.89V19.05z M505.89,14.44l-1.12,8.17c-2.03,9.36-7.82,18.92-17.04,28.49
			l-5.17-3.21c6.63-6.63,11.31-12.71,13.89-18.01c1.61-3.63,2.93-8.8,3.63-15.43h-4.96c-2.03,6-4.33,10.89-6.84,14.59l-5.72-2.23
			c5.38-8.24,8.66-17.04,9.77-26.32l5.86,0.77l-1.4,7.19h26.81l1.19,0.28c0.7,0.35,1.05,1.4,1.05,3.14l-0.35,27.16
			c-0.35,13.2-2.79,21.29-7.19,24.3c-2.58,1.89-7.75,1.75-15.36-0.35l-0.21-6.91c6.35,2.16,10.47,2.65,12.15,1.4
			c1.19-0.91,2.3-2.65,3.21-5.31c0.91-2.79,1.4-7.54,1.54-13.96c0.49-14.8,0.49-22.62,0-23.25c-0.14-0.35-0.42-0.49-0.77-0.49h-2.86
			c-0.14,9.29-2.3,18.64-6.28,28.14c-3.91,7.89-9.71,14.66-17.24,20.11l-4.68-4.33c14.24-8.31,21.71-22.97,22.27-43.92H505.89z"/>
	</g>
	<g>
		<path class="st0" d="M8.67,37.37c0-0.55-0.28-0.83-0.76-0.83H1.25v-5.89h11.79c1.04,0,1.53,0.49,1.53,1.52v16.37
			c0.28,1.46,0.97,2.91,2.29,4.51c1.46,2.22,3.88,3.75,7.07,4.44c3.61,0.9,16.99,0.76,39.87-0.49l-1.53,6.59l-32.94,0.14
			c-8.6-0.49-14.28-3.4-17.06-8.53c-0.42,1.39-1.6,3.19-3.4,5.13C7,62.19,5.13,63.65,3.19,64.55L0,59.35
			c3.61-1.73,6.03-3.4,7.14-5.13c0.69-1.18,1.18-2.43,1.53-3.95V37.37z M3.47,14.27c3.33,1.66,7.07,4.23,11.16,7.7l-3.61,4.85
			c-4.3-3.54-7.84-6.03-10.75-7.63L3.47,14.27z M5.27,1.51c3.33,1.6,6.93,3.95,10.96,7.14l-3.47,4.85C8.6,10.25,5.06,7.97,2.15,6.65
			L5.27,1.51z M30.3,44.99c-3.88,2.29-7.42,3.95-10.61,4.85l-2.91-5.34c5.82-1.73,11.3-4.44,16.43-7.97H20.94
			c-0.42,0-0.62-0.28-0.62-0.76V22.94c0-0.49,0.21-0.69,0.62-0.69h37.79c0.49,0,0.76,0.21,0.76,0.69v12.83
			c0,0.49-0.28,0.76-0.76,0.76H41.61l-5.69,4.72v15.32h-5.34V44.86L30.3,44.99z M36.68,9.84H19.63V4.78h17.06V0.2h5.62v4.58h17.2
			v5.06H42.3v3.75h19.9v5.34H17.48v-5.34h19.21V9.84z M25.87,27.04c-0.21,0-0.28,0.07-0.21,0.21v4.23l0.21,0.28h28.01l0.28-0.28
			v-4.23l-0.28-0.21H25.87z M55.89,37.16l3.54,4.16c-1.73,1.8-3.95,3.61-6.45,5.55l6.73,5.2l-3.4,4.58
			c-6.93-5.69-12.9-9.78-17.75-12.27l3.12-4.79c2.08,1.11,4.37,2.36,6.59,3.95C51.52,41.18,54.09,38.96,55.89,37.16z"/>
		<path class="st0" d="M77.92,32.58l-5.69-2.15c5.96-9.22,9.5-19.21,10.4-29.89l5.89,0.63c-0.9,5.75-1.94,10.89-3.26,15.25v48.54
			h-5.62V29.74L77.92,32.58z M88.88,52v-5.34h33.56v-4.09l-32.87,1.59l-0.62-5.41l19.97-0.76v-3.88H91.86
			c-0.9,0-1.32-0.49-1.32-1.39V14.14c0-0.9,0.42-1.39,1.32-1.39h17.06V9.21H90.54V3.87h18.38v-3.4h5.62v3.4h20.46v5.34h-20.46v3.54
			h18.1c0.97,0,1.39,0.49,1.39,1.39v18.58c0,0.9-0.42,1.39-1.39,1.39h-0.62l5.34,7.83l-4.37,2.98l-1.94-2.84l-2.91,0.21v4.37h7.7V52
			h-7.7v6.1c0,2.57-1.11,4.44-2.98,5.69c-2.01,1.18-5.82,1.18-11.44-0.07v-5.89c4.37,1.18,7.14,1.46,8.18,0.69
			c0.42-0.35,0.56-0.97,0.56-1.87V52H88.88z M108.92,17.6H96.3c-0.14,0-0.21,0.07-0.14,0.28v3.19h12.76V17.6z M108.92,25.58H96.16
			v3.4c-0.07,0.21,0,0.28,0.14,0.35h12.62V25.58z M102.54,52.69c2.57,2.29,4.92,4.58,6.8,6.86l-4.37,3.47
			c-2.29-2.57-4.51-4.79-6.52-6.59L102.54,52.69z M114.54,21.07h13.87v-3.19c0-0.21-0.07-0.28-0.28-0.28h-13.59V21.07z
			 M114.54,29.32h13.59l0.28-0.35v-3.4h-13.87V29.32z M127.99,34.11h-13.45v3.67l13.11-0.62l-1.25-1.8L127.99,34.11z"/>
	</g>
</g>
</svg>
