<?xml version="1.0" encoding="utf-8"?>
<!-- Generator: Adobe Illustrator 26.3.1, SVG Export Plug-In . SVG Version: 6.00 Build 0)  -->
<svg version="1.1" id="圖層_1" xmlns="http://www.w3.org/2000/svg" xmlns:xlink="http://www.w3.org/1999/xlink" x="0px" y="0px"
	 viewBox="0 0 30 30" style="enable-background:new 0 0 30 30;" xml:space="preserve">
<style type="text/css">
	.st0{fill:#888888;}
</style>
<g>
	<path class="st0" d="M29,1v28H1V1H29 M30,0H0v30h30V0L30,0z"/>
	<path class="st0" d="M13,5v8H5V5H13 M14,4H4v10h10V4L14,4z"/>
	<path class="st0" d="M25.2,5v8h-8V5H25.2 M26.2,4h-10v10h10V4L26.2,4z"/>
	<path class="st0" d="M13,17.2v8H5v-8H13 M14,16.2H4v10h10V16.2L14,16.2z"/>
	<path class="st0" d="M25.2,17.2v8h-8v-8H25.2 M26.2,16.2h-10v10h10V16.2L26.2,16.2z"/>
</g>
</svg>
