<?xml version="1.0" encoding="utf-8"?>
<!-- Generator: Adobe Illustrator 26.5.0, SVG Export Plug-In . SVG Version: 6.00 Build 0)  -->
<svg version="1.1" id="圖層_1" xmlns="http://www.w3.org/2000/svg" xmlns:xlink="http://www.w3.org/1999/xlink" x="0px" y="0px"
	 viewBox="0 0 32.4 25.3" style="enable-background:new 0 0 32.4 25.3;" xml:space="preserve">
<g>
	<path d="M23.9,3c0.3,0,0.5,0,0.7,0.1c3.1,0.5,4.5,3.1,4.7,4c0.5,2.7-2.1,6.6-3.6,8.3l-0.1,0.1c-1.9,2.2-5.2,4.4-9.7,6.6
		c-5.9-2.7-12.3-8-12.9-11.9l0-0.1l0-0.1c0,0-0.7-4.1,1.7-5.8c1.2-0.9,2.6-1,3.6-1c2.1,0,4.4,0.8,5.8,2l1.8,1.6l1.9-1.4
		C18.7,4.6,21.5,3,23.9,3 M23.9,0c-4,0-7.9,2.9-7.9,2.9c-1.8-1.6-4.8-2.7-7.7-2.7C6.4,0.1,4.5,0.6,3,1.7c-4,2.9-2.8,8.8-2.8,8.8
		C1,16.5,10,22.8,16.1,25.3c8.4-3.8,11.1-7,11.9-7.9c0.2-0.2,5.2-5.8,4.3-10.8c-0.4-2.2-2.7-5.8-7.2-6.5C24.7,0,24.3,0,23.9,0
		L23.9,0z"/>
</g>
</svg>
