<?xml version="1.0" encoding="utf-8"?>
<!-- Generator: Adobe Illustrator 22.0.1, SVG Export Plug-In . SVG Version: 6.00 Build 0)  -->
<svg version="1.1" id="分離模式" xmlns="http://www.w3.org/2000/svg" xmlns:xlink="http://www.w3.org/1999/xlink" x="0px"
	 y="0px" viewBox="0 0 260 50" style="enable-background:new 0 0 260 50;" xml:space="preserve">
<style type="text/css">
	.st0{fill:#241E7B;}
	.st1{fill:#FF6450;}
</style>
<g>
	<g id="XMLID_61_">
		<g id="XMLID_69_">
			<path class="st0" d="M234.1,14.1l4,0c0.3,0,0.5,0.2,0.5,0.6l0,18.4c0,0.3-0.2,0.6-0.5,0.6l-4,0c-0.3,0-0.5-0.2-0.5-0.6l0-1.5
				c-1,0.9-2,1.6-3,2c-1,0.4-2.1,0.6-3.2,0.6c-2.6,0-4.9-1-6.8-2.9c-1.9-1.9-2.9-4.4-2.9-7.3c0-3,0.9-5.5,2.7-7.4
				c1.8-1.9,4.1-2.9,6.7-2.9c1.2,0,2.3,0.2,3.4,0.7c1.1,0.4,2,1.1,2.9,2l0-1.6C233.6,14.4,233.8,14.1,234.1,14.1z M227.9,18.9
				c-1.4,0-2.5,0.5-3.4,1.4c-0.9,0.9-1.3,2.1-1.3,3.6c0,1.5,0.5,2.7,1.4,3.6c0.9,0.9,2,1.4,3.4,1.4c1.4,0,2.5-0.5,3.4-1.4
				c0.9-0.9,1.4-2.2,1.4-3.7c0-1.5-0.5-2.7-1.4-3.6C230.4,19.3,229.3,18.9,227.9,18.9z"/>
		</g>
		<g id="XMLID_65_">
			<g id="XMLID_66_">
				<path class="st0" d="M209,3.7l-11.4,0c-0.3,0-0.5,0.2-0.5,0.5l0.1,28.7c0,0.3,0.2,0.5,0.5,0.5l4.6,0c0.3,0,0.5-0.2,0.5-0.5
					l0-11.4l6.3,0c4.8,0,8.8-4,8.8-8.9C217.8,7.6,213.9,3.7,209,3.7z M208.6,16.3L208.6,16.3l-5.3,0c-0.3,0-0.5-0.2-0.5-0.5l0-6.5
					c0-0.3,0.2-0.5,0.5-0.5l5.3,0c2,0,3.7,1.7,3.7,3.7S210.7,16.3,208.6,16.3z"/>
			</g>
		</g>
		<g id="XMLID_62_">
			<g id="XMLID_64_">
				<path class="st0" d="M259.2,14.1l-4.3,0c-0.2,0-0.4,0.2-0.5,0.4l-3.8,8.8l-3.8-8.8c-0.1-0.2-0.3-0.3-0.5-0.3l-4,0
					c-0.4,0-0.6,0.4-0.5,0.8l6.2,14.4l-1.3,2.9c-0.1,0.3,0,0.6,0.2,0.7l3.5,1.9c0.3,0.1,0.6,0,0.7-0.3l8.5-19.7
					C259.9,14.5,259.6,14.1,259.2,14.1z"/>
			</g>
			<g id="XMLID_63_">
				<path class="st1" d="M249.5,36.6l-3.2-1.7c-0.2-0.1-0.6-0.1-0.7,0.2c0,0.1-0.1,0.2-0.2,0.3c-0.6,0.8-1.7,2.4-3.6,3.9
					c-3.5,2.9-7.8,4.4-12.7,4.5c-4.9,0-9.2-1.5-12.7-4.4c-1.8-1.5-3-3-3.6-3.9c-0.1-0.1-0.1-0.2-0.2-0.3c-0.2-0.2-0.5-0.3-0.7-0.2
					l-3.2,1.7c-0.2,0.1-0.3,0.4-0.3,0.6c0,0.1,0,0.1,0.1,0.2c0.1,0.2,0.3,0.4,0.4,0.7c1.9,3,7.6,10,19.9,10c0.1,0,0.2,0,0.3,0
					c0.1,0,0.2,0,0.3,0c12.3,0,17.9-7,19.8-10.1c0.2-0.3,0.3-0.5,0.4-0.7c0.1-0.2,0.1-0.4,0-0.6C249.6,36.7,249.6,36.7,249.5,36.6z"
					/>
			</g>
		</g>
	</g>
	<g id="XMLID_2_">
		<g id="XMLID_117_">
			<path class="st1" d="M180.3,7.8c-2.9-2.9-6.7-4.5-10.8-4.5c-4.1,0-7.9,1.6-10.8,4.6c-2.1,2.2-3.5,4.8-4.1,7.7l-9,0
				c-0.2,0-0.4,0.2-0.4,0.4l0,5.7c0,0.2,0.2,0.4,0.4,0.4l8.1,0c-0.4,1.1-1.1,2.1-1.9,3c-3.4,3.4-8.8,3.4-12.2,0
				c-3.4-3.4-3.4-8.9,0-12.3c1.6-1.7,3.8-2.6,6.1-2.6c2.2,0,4.3,0.8,5.9,2.3l-0.1-0.1c0.2,0.1,0.4,0.1,0.5-0.1l0,0.1
				c0.7-2,1.8-3.9,3.1-5.6L154.7,7c0.1-0.2,0.1-0.4,0-0.6c-2.6-2-5.8-3.1-9.2-3.1c-4.1,0-7.9,1.6-10.8,4.6v0c-6,6-5.9,15.9,0,21.9
				c3,3,6.9,4.5,10.8,4.5c3.9,0,7.8-1.5,10.8-4.5c2.9-2.9,4.3-6.5,4.5-11c0.1-2.4,0.9-4.5,2.5-6.2c1.6-1.7,3.8-2.6,6.1-2.6
				s4.5,0.9,6.1,2.5c3.4,3.4,3.4,8.9,0,12.3c-3.3,3.3-8.6,3.4-12,0.2l0.1,0.1c-0.2-0.1-0.4-0.1-0.5,0.1l0-0.1
				c-0.7,2-1.7,3.8-3.1,5.5l0.2-0.2c-0.1,0.2-0.1,0.4,0,0.6c2.7,2.1,6,3.1,9.2,3.1c3.9,0,7.8-1.5,10.8-4.5
				C186.3,23.6,186.3,13.8,180.3,7.8"/>
		</g>
		<g id="XMLID_114_">
			<path class="st0" d="M70.3,16.3l-4.4,0l0-6.3l4.4,0c1.7,0,3.1,1.4,3.1,3.1C73.4,14.8,72.1,16.3,70.3,16.3 M70.8,3.9L59.9,4
				c-0.3,0-0.5,0.2-0.5,0.5l0.1,29c0,0.3,0.2,0.5,0.5,0.5l5.5,0c0.3,0,0.5-0.2,0.5-0.5l0-11.2l4.9,0c5,0,9.1-4.1,9.1-9.2
				C79.9,8,75.8,3.9,70.8,3.9"/>
		</g>
		<g id="XMLID_113_">
			<path class="st0" d="M120.9,20L120.9,20l9.2-15.2c0.1-0.1,0.1-0.2,0.1-0.3c0-0.4-0.3-0.7-0.7-0.7l-5.5,0c-0.4,0-0.8,0.2-1,0.6
				l-5.4,9.4l-5.4-9.4c-0.2-0.3-0.6-0.5-1-0.5l-5.5,0c-0.4,0-0.7,0.3-0.7,0.7c0,0.1,0,0.2,0.1,0.3l0,0.1l9.3,15.1l0,13.3
				c0,0.3,0.2,0.5,0.5,0.5l5.4,0c0.3,0,0.5-0.2,0.5-0.5L120.9,20z"/>
		</g>
		<g id="XMLID_110_">
			<path class="st0" d="M42.3,13.4l3,9.2l-6,0L42.3,13.4z M37.3,28.6l10,0l1.6,4.8c0.2,0.4,0.5,0.5,0.8,0.5l5.6,0
				c0.2,0,0.4-0.1,0.5-0.3c0.1-0.2,0.2-0.4,0.1-0.6L45.6,4.5C45.4,4.2,45.2,4,44.9,4l-5.2,0c-0.3,0-0.5,0.2-0.7,0.5L28.7,33.1
				c-0.1,0.2,0,0.4,0.1,0.6c0.1,0.2,0.3,0.3,0.5,0.3l5.6,0c0.3,0,0.6-0.1,0.8-0.5L37.3,28.6z"/>
		</g>
		<g id="XMLID_76_">
			<path class="st0" d="M94.8,16.2l-4.4,0l0-6.3l4.4,0c1.7,0,3.1,1.4,3.1,3.1C97.9,14.8,96.5,16.2,94.8,16.2 M95.2,3.9l-10.9,0
				c-0.3,0-0.5,0.2-0.5,0.5l0.1,29c0,0.3,0.2,0.5,0.5,0.5l5.5,0c0.3,0,0.5-0.2,0.5-0.5l0-11.2l4.9,0c5,0,9.1-4.1,9.1-9.2
				C104.3,8,100.2,3.9,95.2,3.9"/>
		</g>
		<g id="XMLID_75_">
			<path class="st0" d="M25.1,4.5c0-0.3-0.2-0.5-0.5-0.5L19,4c-0.3,0-0.5,0.2-0.5,0.5l0,11.8l-11.6,0l0-11.8c0-0.3-0.2-0.5-0.5-0.5
				l-5.7,0c-0.3,0-0.5,0.2-0.5,0.5l0.1,29c0,0.3,0.2,0.5,0.5,0.5l5.7,0c0.3,0,0.5-0.2,0.5-0.5l0-11.2l11.6,0l0,11.2
				c0,0.3,0.2,0.5,0.5,0.5l5.7,0c0.3,0,0.5-0.2,0.5-0.5L25.1,4.5z"/>
		</g>
		<g id="XMLID_72_">
			<path class="st0" d="M94.8,16.2l-4.4,0l0-6.3l4.4,0c1.7,0,3.1,1.4,3.1,3.1C97.9,14.8,96.5,16.2,94.8,16.2 M95.2,3.9l-10.9,0
				c-0.3,0-0.5,0.2-0.5,0.5l0.1,29c0,0.3,0.2,0.5,0.5,0.5l5.5,0c0.3,0,0.5-0.2,0.5-0.5l0-11.2l4.9,0c5,0,9.1-4.1,9.1-9.2
				C104.3,8,100.2,3.9,95.2,3.9"/>
		</g>
	</g>
</g>
</svg>
