<?xml version="1.0" encoding="UTF-8"?>
<svg id="Logo" xmlns="http://www.w3.org/2000/svg" viewBox="0 0 563 99.76">
  <defs>
    <style>
      .cls-1 {
        fill: #ff4600;
      }
    </style>
  </defs>
  <path class="cls-1" d="M402.53,49.74c3.89-5.71,6.23-14.37,5.01-21.76-.93-5.65-3.94-10.55-9.91-12.8-3.16-1.19-6.66-1.96-9.93-2.46-12.08-1.95-26.15-1.15-36.28-.06-7.97,.86-14.24,7.19-15.06,15.17l-4.9,46.39c-.35,3.35,2.27,6.27,5.64,6.27h10.92c2.9,0,5.34-2.19,5.64-5.08l1.68-16.04h20c8.51,0,14.38-1.21,18.24-2.5,3.76-1.26,6.75-3.89,8.96-7.13Zm-25.74-3.18c-1.09,2.94-3.89,4.81-7.11,4.83h-.16s-13.36,.08-13.36,.08l2.63-25.02c.17-1.38,1.3-2.37,2.71-2.37l9.86-.03c4.29,0,5.72,.94,6.53,2.45,1.6,2.97,2.98,9-1.1,20.06Z"/>
  <path class="cls-1" d="M462.75,38.89c-1.44-4.8-5.85-8.08-10.86-8.08h-17.72c-6.08,0-11.7,3.25-14.73,8.51l-31.17,54.06c-1.63,2.83,.41,6.38,3.68,6.38h11.15c3.04,0,5.85-1.62,7.37-4.26l7.39-12.82h31.74l3.3,11.01c1.08,3.6,4.39,6.06,8.15,6.06h14.23c2.85,0,4.89-2.74,4.07-5.47l-16.6-55.39Zm-39.29,34.07l13.27-23.01c.87-1.59,2.63-1.31,3.22,.52l6.74,22.49h-23.22Z"/>
  <path class="cls-1" d="M559.99,13.92h-9.72c-2.14,0-4.2,.81-5.77,2.26l-30.26,27.96-22.69-26.29c-2.15-2.5-5.29-3.93-8.58-3.93h-12.93c-4.85,0-7.46,5.7-4.29,9.37l30.22,35.06-1.72,17.29c-.3,2.46,1.77,4.77,4.29,4.77h14.39c1.89,0,3.41-1.33,3.64-3.18l1.92-18.81,43.66-40.22c1.89-1.75,.42-4.27-2.16-4.27Z"/>
  <path class="cls-1" d="M313.75,48.84h-23.35l1.95-18.72c.52-5.02-3.41-9.39-8.46-9.39h-12.43c-4.35,0-8,3.29-8.46,7.62l-2.15,20.49h-24.56c-2.9,0-5.33,2.19-5.64,5.08l-.23,2.23c-.35,3.35,2.27,6.26,5.64,6.26h23.37l-1.97,18.72c-.53,5.02,3.41,9.39,8.46,9.39h12.48c4.36,0,8.01-3.29,8.46-7.62l2.14-20.49h24.53c2.9,0,5.33-2.19,5.64-5.08l.23-2.23c.35-3.35-2.27-6.26-5.64-6.26Z"/>
  <path class="cls-1" d="M101.73,91.83h-36.56l1.78-16.77h20.22c1.45,0,2.67-1.1,2.82-2.54l.23-2.2c.18-1.67-1.14-3.13-2.82-3.13h-19.61l1.17-11.06h23.45c1.45,0,2.67-1.1,2.82-2.54l.23-2.2c.17-1.67-1.14-3.13-2.82-3.13H21.28c-1.45,0-2.67,1.1-2.82,2.54l-.23,2.2c-.18,1.67,1.14,3.13,2.82,3.13h22.84l-1.16,11.06H22.55c-1.45,0-2.67,1.1-2.82,2.54l-.23,2.2c-.18,1.67,1.14,3.13,2.82,3.13h19.59l-1.76,16.77H3.08c-1.45,0-2.67,1.09-2.82,2.53l-.24,2.26c-.18,1.67,1.13,3.13,2.82,3.13H101.48c1.45,0,2.66-1.09,2.82-2.53l.25-2.26c.18-1.68-1.13-3.14-2.82-3.14Z"/>
  <path class="cls-1" d="M105.87,33.52h-1.96c-3.62-5.3-17.62-24.89-30.83-31.31-10.81-5.25-21.11,.22-25,2.28-13.35,7.09-27.01,21.82-33.24,29.03h-3.65c-1.45,0-2.67,1.1-2.82,2.54l-.23,2.2c-.18,1.67,1.14,3.13,2.82,3.13h14.33c2.42,0,4.74-1.03,6.35-2.84,6.1-6.86,14.67-15.14,23.47-19.81,3.87-2.06,7.93-3.73,11.4-2.04,6.73,3.27,14.39,13,19.82,20.98,1.58,2.33,4.21,3.71,7.02,3.71h12.28c1.45,0,2.67-1.1,2.82-2.54l.23-2.2c.17-1.67-1.14-3.13-2.82-3.13Z"/>
  <path class="cls-1" d="M216.84,91.83h-4.21l1.73-16.49c.7-6.69-4.55-12.52-11.28-12.52h-3.02s-58.48,0-58.48,0h0s-5.4,0-5.4,0c-5.8,0-10.67,4.38-11.28,10.15l-1.98,18.86h-4.75c-1.45,0-2.67,1.09-2.82,2.53l-.24,2.26c-.18,1.67,1.13,3.13,2.82,3.13h98.65c1.45,0,2.66-1.09,2.82-2.53l.25-2.26c.18-1.68-1.13-3.14-2.82-3.14Zm-69.24,0h-9.06l1.95-18.59c.15-1.44,1.37-2.54,2.82-2.54h6.49l-2.21,21.13Zm24.71,0h-9.12l2.21-21.13h9.12l-2.21,21.13Zm24.71,0h-9.12l2.21-21.13h5.99c1.68,0,3,1.46,2.82,3.13l-1.89,18Z"/>
  <path class="cls-1" d="M206.67,18.17h-3.48l.4-3.8c.84-7.86-6.27-14.23-14.13-14.23h-2.54s-.09-.01-.14-.01h-43.9c-1.45,0-2.67,1.09-2.82,2.53l-.24,2.26c-.18,1.67,1.13,3.13,2.82,3.13h5.8l-13.72,29.18c-2.29,4.62-7.3,10.59-12.22,12.35-.44,.16-1.03,.35-1.68,.55-1.99,.63-3.24,2.61-2.93,4.68v.08c.37,2.41,2.62,4.01,5.01,3.56,5.41-1.03,10.39-3.02,14.72-5.92,5.04-3.38,8.92-8.22,11.49-13.72l7.14-15.28h14.57c.07,0,.08,.06,.08,.08-.36,3.61-1.55,8.12-3.74,12.57l-5.51-3.99c-1.48-1.08-3.69-.65-4.94,.94l-2.26,2.89c-1.25,1.6-1.05,3.76,.43,4.84l6.02,4.37c-2.24,2.34-4.87,4.4-7.96,5.95-1.97,.99-5.05,2.22-5.57,2.64-.97,.79-1.01,2.24-.06,3.19,.6,.59,1.49,.95,2.65,.79,5.81-.76,11.97-3.67,17.46-7.84l6.86,4.98c1.48,1.08,3.69,.65,4.94-.94l2.26-2.89c1.25-1.6,1.05-3.76-.43-4.84l-5.5-3.99c3.2-3.76,5.78-7.92,7.39-12.16,1.28-3.38,.87-6.92-1.15-9.61-1.8-2.4-4.73-3.68-7.89-3.68h-14.53s4.1-8.77,4.1-8.77h23.68c1.24,0,2.21,1.08,2.08,2.31v.03s-1.57,15.44-1.57,15.44c-.16,1.54,.95,2.79,2.49,2.79h11.15c3.5,0,5.96,2.86,5.59,6.37l-.84,8.1v.06c-.16,1.45-1.38,2.54-2.83,2.54h-15.15c-1.45,0-2.67,1.09-2.82,2.53l-.24,2.26c-.18,1.67,1.13,3.14,2.82,3.14h17.37c7.61,0,14.44-6.17,15.25-13.78l.52-4.88c.99-9.28-5.03-16.8-14.3-16.8Z"/>
</svg>