<?xml version="1.0" encoding="UTF-8"?>
<svg id="_圖層_2" data-name="圖層 2" xmlns="http://www.w3.org/2000/svg" viewBox="0 0 200.99 58.58">
  <defs>
    <style>
      .cls-1 {
        fill: #fff;
      }

      .cls-2 {
        fill: #08bf5b;
      }
    </style>
  </defs>
  <g id="Layer_1" data-name="Layer 1">
    <g>
      <g>
        <rect x="26.36" y="12.72" width="7.61" height="33.15" rx="1.36" ry="1.36"/>
        <path d="M20.79,38.26H7.61V14.07c0-.75-.61-1.36-1.36-1.36H1.36c-.75,0-1.36,.61-1.36,1.36v30.43c0,.75,.61,1.36,1.36,1.36H20.79c.75,0,1.36-.61,1.36-1.36v-4.89c0-.75-.61-1.36-1.36-1.36Z"/>
        <path d="M93.47,20.32c.75,0,1.36-.61,1.36-1.36v-4.89c0-.75-.61-1.36-1.36-1.36h-19.43c-.75,0-1.36,.61-1.36,1.36v30.43c0,.75,.61,1.36,1.36,1.36h19.43c.75,0,1.36-.61,1.36-1.36v-4.89c0-.75-.61-1.36-1.36-1.36h-13.18v-5.16h13.18c.75,0,1.36-.61,1.36-1.36v-4.89c0-.75-.61-1.36-1.36-1.36h-13.18v-5.16h13.18Z"/>
        <path d="M66.17,12.72h-4.89c-.75,0-1.36,.61-1.36,1.36V31.68l-12.8-18.3c-.36-.52-.9-.67-1.51-.67-.08-.01-.15,0-.23,0h-4.89c-.75,0-1.36,.61-1.36,1.36v30.43c0,.75,.61,1.36,1.36,1.36h4.89c.75,0,1.36-.61,1.36-1.36V26.12l13.35,19.08c.05,.07,.1,.13,.16,.19,.23,.27,.56,.45,.94,.48h4.99c.75,0,1.36-.61,1.36-1.36V14.07c0-.75-.61-1.36-1.36-1.36Z"/>
      </g>
      <g>
        <rect class="cls-2" x="107.6" width="93.38" height="58.58" rx="3.4" ry="3.4"/>
        <g>
          <path class="cls-1" d="M141.27,22.84c0,5.15-4.14,9.29-9.48,9.29h-4.06v7.6c0,.5-.41,.91-.91,.91h-4.37c-.5,0-.91-.41-.91-.91V14.47c0-.5,.41-.91,.91-.91h9.34c5.34,0,9.48,4.14,9.48,9.29Zm-6.19,0c0-1.97-1.39-3.48-3.29-3.48h-4.06v6.96h4.06c1.9,0,3.29-1.51,3.29-3.48Z"/>
          <path class="cls-1" d="M164.26,21.77v18.39c0,.26-.21,.48-.48,.48h-4.84c-.26,0-.48-.21-.48-.48v-1.34c-1.28,1.47-3.17,2.36-5.76,2.36-5.07,0-9.25-4.45-9.25-10.21s4.18-10.21,9.25-10.21c2.59,0,4.49,.89,5.76,2.36v-1.34c0-.26,.21-.48,.48-.48h4.84c.26,0,.48,.21,.48,.48Zm-5.8,9.19c0-2.9-1.93-4.72-4.6-4.72s-4.6,1.82-4.6,4.72,1.93,4.72,4.6,4.72,4.6-1.82,4.6-4.72Z"/>
          <path class="cls-1" d="M183.57,21.8l-4.45,11.22-4.61-11.23c-.12-.3-.42-.5-.74-.5h-4.94c-.34,0-.57,.35-.44,.66l7.68,18.73-2.8,7.05c-.13,.31,.11,.66,.45,.66h4.94c.33,0,.62-.2,.74-.5l10.3-25.94c.13-.31-.11-.66-.45-.66h-4.94c-.33,0-.62,.2-.74,.5Z"/>
        </g>
      </g>
    </g>
  </g>
</svg>