<?xml version="1.0" encoding="utf-8"?>
<!-- Generator: Adobe Illustrator 27.3.1, SVG Export Plug-In . SVG Version: 6.00 Build 0)  -->
<svg version="1.1" id="圖層_1" xmlns="http://www.w3.org/2000/svg" xmlns:xlink="http://www.w3.org/1999/xlink" x="0px" y="0px"
	 width="678.7px" height="48.7px" viewBox="0 0 678.7 48.7" style="enable-background:new 0 0 678.7 48.7;" xml:space="preserve">
<style type="text/css">
	.製作陰影{fill:none;}
	.圓角_x0020_2_x0020_點{fill:#FFFFFF;stroke:#231815;stroke-miterlimit:10;}
	.即時反射_x0020_X{fill:none;}
	.柔化斜角{fill:url(#SVGID_1_);}
	.黃昏{fill:#FFFFFF;}
	.葉子_GS{fill:#FFE100;}
	.高捲式髮型_GS{fill-rule:evenodd;clip-rule:evenodd;fill:#4CACE2;}
	.st0{fill:#888888;}
	.st1{fill:#FF0055;}
	.st2{fill:#666666;}
	.st3{fill-rule:evenodd;clip-rule:evenodd;fill:#BBBBBB;}
	.st4{fill:#999999;}
</style>
<linearGradient id="SVGID_1_" gradientUnits="userSpaceOnUse" x1="276.2485" y1="-54.0222" x2="276.9556" y2="-53.3151">
	<stop  offset="0" style="stop-color:#E6E7EA"/>
	<stop  offset="0.1747" style="stop-color:#E2E3E6"/>
	<stop  offset="0.3538" style="stop-color:#D6D7DA"/>
	<stop  offset="0.5349" style="stop-color:#C1C4C5"/>
	<stop  offset="0.7174" style="stop-color:#A4A8A8"/>
	<stop  offset="0.8993" style="stop-color:#808584"/>
	<stop  offset="1" style="stop-color:#686E6C"/>
</linearGradient>
<g>
	<path class="st0" d="M4.9,10.3c0.6,0,0.9,0.2,1.1,0.6c0.2,0.3,0.3,0.6,0.3,1c0.1,1.1,0.1,2.4,0.2,3.7c0.5,0,0.9,0,1.3,0
		c-0.1-1.4-0.1-2.6-0.1-3.7c0-1,0.4-1.5,1.1-1.5c0.6,0,0.9,0.2,1.1,0.5c0.2,0.3,0.3,0.6,0.3,0.9c0,0.6,0,1.2,0.1,1.8
		c0.4-0.5,0.9-1,1.3-1.4c0.4-0.3,0.8-0.5,1.3-0.5c0.6,0.1,1,0.4,1.1,1c0,0.4-0.2,0.8-0.6,1.2c-0.5,0.5-1,1-1.5,1.6h0.8
		c1.2,0,1.8,0.4,1.9,1.2c0,0.3-0.1,0.5-0.2,0.7c1.1-0.2,2.8-0.3,5.1-0.3c-0.3-1.3-0.6-2.7-1-4c-0.1-0.3-0.1-0.6-0.1-0.8
		c0-0.8,0.5-1.2,1.5-1.4c0.7,0,1.2,0.4,1.5,1.1c0.2,0.4,0.6,1.9,1.1,4.5c0,0.2,0.1,0.3,0.1,0.5c1.2,0.1,1.8,0.6,1.8,1.4
		c-0.1,0.8-0.5,1.2-1.4,1.3c0.1,1.4,0.2,2.7,0.2,4.1c0,3.5-0.4,5.9-1.1,7.2c-0.8,1.5-2,2.2-3.6,2.2c-1.6,0-3.1-0.3-4.4-1l0.5-2.6
		c1,0.5,2,0.8,2.9,0.8c0.5,0,0.9-0.2,1.3-0.4c0.4-0.3,0.7-0.6,0.8-1.1c0.3-0.9,0.5-2.7,0.5-5.5c0-1.2-0.1-2.4-0.3-3.7
		c-3.2,0.1-5.2,0.2-6.1,0.5v-2.4c-0.1,0-0.3,0.1-0.4,0.1c-0.6,0-1.1,0-1.6,0c0.2,0.2,0.4,0.5,0.4,0.9c0,0.4-0.2,1-0.6,2
		c1.1,0.1,1.6,0.5,1.7,1.3c0,0.8-0.5,1.2-1.3,1.3c-1.4,0-2.6,0.1-3.7,0.1v0c0,0.5,0.1,1.1,0.1,1.6c0.7,0,1.5,0,2.3,0
		c1.3,0,2,0.5,2.1,1.3c-0.1,0.8-0.5,1.2-1.4,1.3c-1,0-2,0-2.8,0.1c0.1,0.6,0.1,1.1,0.1,1.7c0.7-0.1,1.4-0.2,2.1-0.4
		c0.3,0,0.6-0.1,0.9-0.1c1,0,1.6,0.5,1.7,1.4c0,0.7-0.4,1.1-1.2,1.3c-0.8,0.2-2.5,0.5-5.1,0.8c-1.9,0.2-3.9,0.4-6,0.4v-2.7
		c1.7-0.1,3.3-0.2,4.9-0.4c-0.1-0.7-0.1-1.4-0.2-2c-0.5,0-0.9,0-1.3,0.1c-1,0.1-1.9,0.1-2.8,0.2v-2.6c0.9-0.1,2.2-0.2,3.8-0.3
		c-0.1-0.5-0.1-1-0.2-1.5v-0.1c-0.4,0-0.8,0.1-1.1,0.1c-1.1,0.1-2.1,0.1-3.1,0.2v-2.6C1.5,21.1,2.3,21,3.1,21
		c-0.2-1.2-0.3-2-0.4-2.3c0-0.2,0-0.3,0.1-0.4c-1,0.1-1.9,0.1-2.8,0.2V16c0.5-0.1,1.2-0.1,1.8-0.2c-0.5-0.7-0.9-1.2-1.3-1.5
		C0.2,14,0,13.6,0,13.1c0.1-0.7,0.5-1,1.2-1.1c0.5,0,1,0.3,1.5,0.8C3,13.1,3.5,13.6,4,14.4c-0.1-0.9-0.2-1.7-0.3-2.5
		C3.8,10.9,4.1,10.4,4.9,10.3z M6.1,20.9c0.7,0,1.5-0.1,2.3-0.1c0.2-0.5,0.4-1.3,0.8-2.2c0.1-0.3,0.3-0.5,0.5-0.7
		c-1.6,0-3,0.1-4.2,0.2c0.1,0.2,0.2,0.4,0.2,0.7C5.8,19.4,5.9,20.1,6.1,20.9z M14.4,22.2c0.5,0,1.1,0.2,1.6,0.7
		c0.6,0.5,1.4,1.4,2.4,2.8l-2.2,1.7c-0.9-1.2-1.8-2-2.4-2.6c-0.4-0.3-0.6-0.8-0.6-1.3C13.3,22.6,13.7,22.2,14.4,22.2z"/>
	<path class="st0" d="M28.2,21.4c0.6,0,0.9,0.2,1.1,0.6c0.6-0.1,1.2-0.2,1.8-0.3h0.3c0.7,0,1.4,0,2.4,0.1c0.8,0.2,1.5,0.5,2,1
		c0.8,0.5,1.1,1.9,1.1,4.3v0.8c0,1.1-0.1,1.8-0.3,2.3c-0.3,0.9-0.8,1.5-1.6,1.9c-0.8,0.5-1.9,0.7-3.4,0.7h-0.8c-1.8,0-3-0.4-3.7-1.2
		c-0.8-0.9-1.2-2.1-1.2-3.5v-0.4c0-1.4,0.2-3.1,0.6-5.1C26.8,21.8,27.3,21.4,28.2,21.4z M30,10.1c0.8,0.1,1.3,0.4,1.5,0.9
		c2-0.3,3.8-0.5,5.6-0.6h1.8c2,0,3.4,0.1,4.2,0.3c1.4,0.3,2.4,0.8,3.1,1.6c0.7,0.6,1,1.8,1,3.5v0.5c0,1.1-0.4,2.1-1.2,2.9
		c-1,1.1-3.3,1.7-6.8,1.7h-2.6c-2.4,0-4.4-0.3-5.9-0.8c-1.9-0.7-2.8-2-2.8-3.7V16c0-1.6,0.3-3.2,0.8-4.8
		C28.8,10.6,29.3,10.2,30,10.1z M30.9,24.5c-0.6,0.1-1.2,0.1-1.8,0.3c-0.2,1.3-0.3,2.3-0.3,3c0,0.8,0.2,1.4,0.5,1.8
		c0.4,0.3,1.2,0.5,2.1,0.5c1,0,1.7-0.2,2-0.7c0.3-0.3,0.4-1.1,0.5-2.5c0-1.3-0.2-2-0.7-2.2C32.4,24.6,31.6,24.5,30.9,24.5z
		 M38.5,13.2c-2.8,0-5.3,0.2-7.5,0.7c-0.1,0.6-0.2,1.2-0.2,1.7c0,1,0.5,1.6,1.4,2c1,0.4,3,0.6,6.1,0.6c1.3,0,2.4-0.1,3.3-0.2
		c0.7-0.1,1.3-0.3,1.7-0.6C43.8,17,44,16.6,44,16c0-1.2-0.4-2-1.3-2.4C42.1,13.4,40.7,13.2,38.5,13.2z M40.2,21.5
		c0.6,0,0.9,0.2,1.1,0.6c0.7-0.1,1.5-0.3,2.3-0.4h0.3c0.6,0,1.4,0,2.4,0.1c0.8,0.2,1.5,0.6,2,1.1c0.8,0.6,1.2,2.2,1.2,4.9v0.9
		c0,0.9-0.1,1.6-0.3,2c-0.3,0.7-0.9,1.3-1.6,1.6c-0.8,0.4-2,0.6-3.5,0.6h-0.8c-1.9,0-3.2-0.4-3.8-1.3c-0.8-0.9-1.2-2.1-1.3-3.6v-0.4
		c0-1.3,0.1-2.9,0.4-4.8C38.8,21.9,39.3,21.5,40.2,21.5z M43.5,24.5c-0.8,0.1-1.5,0.2-2.2,0.3C41.1,26,41,26.9,41,27.6
		c0,0.9,0.2,1.6,0.6,2c0.5,0.4,1.3,0.6,2.4,0.6c1,0,1.7-0.2,2.1-0.6c0.3-0.2,0.4-0.8,0.5-1.9c0-1.7-0.2-2.7-0.7-2.9
		C45,24.6,44.2,24.5,43.5,24.5z"/>
	<path class="st0" d="M56.7,10.3c0.8,0,1.2,0.5,1.3,1.4c0.1,0.9,0.2,1.9,0.3,2.8h0.1c1.4,0,2.1,0.5,2.2,1.4
		c-0.1,0.8-0.6,1.3-1.5,1.4h-0.6c0.1,1.1,0.2,2.3,0.2,3.4c0.2-0.1,0.4-0.1,0.6-0.1c0.9,0.1,1.4,0.5,1.5,1.4c0,0.6-0.4,1.1-1.1,1.4
		c-0.2,0.2-0.5,0.3-0.8,0.5c0.1,1.6,0.1,3.1,0.1,4.6c-0.1,3-1.2,4.5-3.5,4.6c-1.2,0-2.3-0.3-3.3-0.9L52,29.7
		c0.9,0.5,1.9,0.7,2.8,0.7c0.8,0,1.1-1,1.1-2.9c0-0.4,0-1.2-0.1-2.4c-1.1,0.3-2.3,0.6-3.6,0.8l-0.6-3c1.5-0.2,2.8-0.5,4-0.9
		c-0.1-1.3-0.2-2.8-0.3-4.4c-0.6,0-1.1,0-1.6,0.1c-0.7,0.1-1.4,0.1-2.1,0.2V15c0.8-0.2,2-0.3,3.5-0.3c-0.1-0.9-0.1-1.8-0.2-2.8
		C55,10.9,55.6,10.4,56.7,10.3z M73.4,11.3c1.1,0,1.7,0.5,1.7,1.2c0,0.8-0.4,1.3-1.3,1.5c-2.9,0.4-5.7,0.9-8.5,1.4
		c-0.1,1-0.2,2.3-0.3,3.9c1.8-0.2,4.4-0.3,7.9-0.4c1.6,0,2.4,0.5,2.4,1.5c-0.1,0.8-0.6,1.2-1.5,1.3c-0.9,0-1.7,0-2.4,0
		c0.1,0.5,0.2,2.1,0.5,4.9c0.2,3.4,0.4,5.5,0.4,6.5h-3.1c-0.1-3.2-0.2-5.5-0.3-7.1c-0.1-1.4-0.2-2.6-0.3-3.5c0-0.3-0.1-0.5-0.1-0.7
		c-1.5,0.1-2.7,0.2-3.6,0.2c-0.2,3.5-0.3,7.2-0.3,11h-3c0-4.6,0.2-11.1,0.7-19.5c0.2-1,0.7-1.5,1.6-1.6c0.5,0,0.8,0.2,1.1,0.5
		C69.2,11.8,72,11.4,73.4,11.3z"/>
	<path class="st0" d="M99.2,10.7c1.4,0,2,0.4,2,1.2c0,0.7-0.4,1-1.2,1.1h-4c0,0.3-0.1,0.5-0.2,0.8c0,0.1-0.1,0.3-0.1,0.4h0.2
		c1.1,0.1,2.2,0.4,3.2,0.8c1.1,0.5,1.7,1.2,1.7,2.1v0.5c0,0.9-0.4,1.6-1.3,2.1c-1.3,0.8-3.2,1.3-5.5,1.3h-2c-2.6,0-4.7-0.2-6.2-0.7
		c-1.7-0.6-2.5-1.5-2.5-2.7v-0.2c0-1,0.2-2,0.6-2.8c-0.9,0.6-1.7,1.1-2.4,1.5v0.2c0.1,0.4,0.2,2.9,0.5,7.4c0.2,5,0.3,8.2,0.3,9.7
		h-2.9c-0.1-4.6-0.2-8.1-0.4-10.4c-0.1-2-0.2-3.8-0.3-5.2v0c-1.1,0.7-1.8,1-1.9,1l-0.6-2.8c4.2-2.9,6.7-4.3,7.5-4.4
		c0.4,0,0.7,0.1,0.9,0.2v-0.9C86.9,10.7,91.7,10.7,99.2,10.7z M85.7,21.1c0.6,0,1,0.2,1.2,0.7c1.2-0.2,2.7-0.2,4.5-0.3h0.9
		c1.3,0,2.4,0.1,3.5,0.2c1.1,0.2,2.1,0.7,3.1,1.4c1.1,0.9,1.6,2,1.6,3.5v0.8c0,1.1-0.4,2-1.2,2.7c0.5,0.3,1.1,0.8,1.7,1.3l-1.8,2
		c-0.8-0.5-1.6-1.1-2.2-1.6c-0.1-0.1-0.2-0.2-0.2-0.3C95.6,31.8,94.4,32,93,32h-1.8c-1.5,0-2.7-0.1-3.8-0.4
		c-0.2,0.5-0.5,1.1-0.8,1.9l-2.4-0.9c0.1-0.3,0.3-1,0.7-1.9c0-0.1,0.1-0.1,0.1-0.2c-1.1-0.9-1.6-2.1-1.6-3.5v-0.4
		c0-1.6,0.3-3.1,0.9-4.4C84.6,21.5,85.1,21.1,85.7,21.1z M88.9,14.1c0.1-0.5,0.1-0.8,0.2-1.1c-1.6,0-2.9,0-3.7,0
		c0,0.1-0.1,0.2-0.1,0.3c0.1,0,0.2,0,0.2,0c0.6,0,1,0.3,1.2,0.8C87.3,14.1,88.1,14.1,88.9,14.1z M92.3,16.1c-0.5,0-0.9,0-1.3,0
		c-0.1,0.6-0.2,1.3-0.2,2l-2.4-0.5c0.1-0.5,0.1-1,0.2-1.4c-0.6,0-1.1,0.1-1.6,0.1c-0.3,0.1-0.6,0.1-0.8,0.1c0,0.2-0.1,0.4-0.1,0.7
		c0,0.7,0.5,1.2,1.5,1.4c1.2,0.2,2.6,0.4,4.3,0.4h1.6c1.8,0,3-0.2,3.7-0.5c0.5-0.3,0.8-0.6,0.8-1c0-0.5-0.4-0.8-1.3-1
		c-0.3-0.1-0.8-0.2-1.3-0.2c-0.1,0.7-0.2,1.4-0.2,2.1l-2.4-0.5c0.1-0.6,0.2-1.2,0.2-1.7H92.3z M92.3,23.5c-1.9,0-3.7,0.2-5.3,0.6
		c0.6,0,1.4,0,2.2,0.1c2.7,0.1,4.2,0.2,4.6,0.2c0.6,0.2,0.8,0.5,0.8,1c-0.1,0.5-0.4,0.8-1.1,0.8c-1,0-3.4-0.1-7.3-0.2
		c0,0.2,0,0.4,0,0.5v0.4c2.9,0.1,5.4,0.3,7.5,0.6c0.5,0.1,0.8,0.4,0.8,0.8c0,0.6-0.4,0.9-1.1,0.9c-2.5,0-4.7-0.2-6.6-0.4
		c0.2,0.2,0.4,0.3,0.6,0.4c1,0.5,2.2,0.8,3.6,0.8h1.3c2,0,3.4-0.3,4.2-1c0.6-0.5,0.9-1.1,0.9-1.9c0-1.2-0.4-2.1-1.2-2.7
		C95.7,23.9,94.3,23.6,92.3,23.5z M93.5,14.1c0.1-0.5,0.1-0.8,0.2-1.1h-2c0,0.2-0.1,0.5-0.2,0.9c0,0.1,0,0.2-0.1,0.2H93.5z"/>
	<path class="st0" d="M113.1,20.1c0,1.2-0.7,1.9-2.1,1.9c-0.5,0-1-0.2-1.4-0.5c-0.4-0.4-0.6-0.8-0.6-1.3c0-0.6,0.2-1,0.5-1.4
		c0.4-0.4,0.8-0.5,1.4-0.5c0.7,0,1.2,0.2,1.6,0.5C112.9,19,113.1,19.4,113.1,20.1z M113.1,27c0,1.2-0.7,1.9-2.1,1.9
		c-0.5,0-1-0.2-1.4-0.5c-0.4-0.4-0.6-0.8-0.6-1.3c0-0.6,0.2-1,0.5-1.4c0.4-0.3,0.8-0.5,1.4-0.5c0.7,0,1.2,0.2,1.6,0.5
		C112.9,25.9,113.1,26.4,113.1,27z"/>
</g>
<g>
	<g>
		<g>
			<path class="st1" d="M143.5,15.2v3.4l8.2-5.6l-8.2-5.6v3.4c-7.2,0-13,5.5-13,12.3h4.6C135.1,18.8,138.8,15.2,143.5,15.2z
				 M151.9,19.8c0,4.4-3.8,7.9-8.4,7.9v-3.4l-8.2,5.6l8.2,5.6v-3.4c7.2,0,13-5.5,13-12.3H151.9z"/>
		</g>
	</g>
	<g>
		<path class="st1" d="M154.8,4.5c3.1,0,5.7,2.5,5.7,5.7v22.6c0,3.1-2.5,5.7-5.7,5.7h-22.6c-3.1,0-5.7-2.5-5.7-5.7V10.2
			c0-3.1,2.5-5.7,5.7-5.7H154.8 M154.8,1.5h-22.6c-4.8,0-8.7,3.9-8.7,8.7v22.6c0,4.8,3.9,8.7,8.7,8.7h22.6c4.8,0,8.7-3.9,8.7-8.7
			V10.2C163.5,5.4,159.6,1.5,154.8,1.5L154.8,1.5z"/>
	</g>
</g>
<g>
	<path class="st1" d="M184.4,22.6c0.5,0,1,0.1,1.5,0.4c1.5,0.8,2.8,1.8,4.1,3c2.8,2.6,4.9,6,5.8,9.7l-10.1,9.3
		c-1.9-0.5-3.8-0.8-5.6-0.8c-2.5,0-5,0.5-7.5,1.2c-0.3,0.1-0.6,0.2-0.9,0.2c-0.6,0-1.3-0.2-1.8-0.7c-1-0.9-1-2.4,0-3.3
		c0.3-0.3,0.6-0.4,1-0.6l3.5-1.4c0.1-0.1,0.2-0.1,0.3-0.2c0.5-0.5,0.5-1.2,0-1.6l-10.1-9.3c-1-0.9-1-2.4,0-3.3
		c0.5-0.5,1.1-0.7,1.8-0.7c0.6,0,1.3,0.2,1.8,0.7l5.8,5.3c-1-0.9-1-2.4,0-3.3c0.5-0.5,1.1-0.7,1.8-0.7c0.6,0,1.3,0.2,1.8,0.7
		l0.9,0.8c-1-0.9-1-2.4,0-3.3c0.5-0.5,1.1-0.7,1.8-0.7c0.6,0,1.3,0.2,1.8,0.7l0.2,0.1c0-0.6,0.2-1.3,0.7-1.8
		C183.1,22.9,183.7,22.6,184.4,22.6 M184.4,19.6c-1.4,0-2.8,0.5-3.8,1.5c-0.1,0.1-0.1,0.1-0.2,0.2c-0.1,0-0.3,0-0.4,0
		c-1.4,0-2.8,0.5-3.8,1.5c-0.3,0.3-0.6,0.6-0.8,1c-1.2,0-2.4,0.5-3.3,1.2l-2-1.8c-1-1-2.4-1.5-3.8-1.5c-1.4,0-2.8,0.5-3.8,1.5
		c-1.1,1-1.7,2.4-1.7,3.8c0,1.4,0.6,2.8,1.7,3.8l7.9,7.3l-0.6,0.2c-0.8,0.3-1.4,0.7-2,1.2c-1.1,1-1.7,2.4-1.7,3.8
		c0,1.4,0.6,2.8,1.7,3.8c1,1,2.4,1.5,3.8,1.5c0.6,0,1.3-0.1,1.9-0.3c2.5-0.7,4.6-1.1,6.6-1.1c1.6,0,3.2,0.2,4.8,0.7l1.6,0.5l1.2-1.1
		l10.1-9.3l1.3-1.2l-0.4-1.7c-1.1-4.3-3.5-8.2-6.7-11.2c-1.5-1.4-3.1-2.5-4.7-3.4C186.3,19.9,185.3,19.6,184.4,19.6L184.4,19.6z"/>
</g>
<g>
	<path class="st2" d="M217.6,19.4h-2.2c-0.1-4.1-0.7-7.2-2.1-9.3c-0.4-0.6-0.7-1-1-1.2c-0.4-0.3-0.9-0.5-1.5-0.5
		c-0.7,0-1.5,0.6-2.4,1.8c-0.7,1-1.3,2.2-1.8,3.5l3.6,0.6c0.7,0.1,1,0.5,1,1.2c0,0.2-0.1,0.4-0.3,0.6c-0.2,0.2-0.4,0.3-0.7,0.3
		c-0.5,0-1.9-0.2-4.3-0.7c-0.2,0.8-0.5,2-0.8,3.6h-2.1c0.3-2.2,0.7-4.3,1.4-6.2c0.8-2.3,1.8-4.1,3-5.4c1-1,2-1.5,3.1-1.5
		c1.3,0,2.4,0.4,3.3,1.3c1.2,1.2,2.2,3,2.8,5.4C217.3,14.9,217.6,17,217.6,19.4z"/>
	<path class="st2" d="M224.5,18.3c0,0.2-0.1,0.4-0.3,0.6c-0.2,0.2-0.3,0.3-0.5,0.3c-0.8,0.2-1.7,0.2-2.6,0.2c-1.1,0-2.1-0.1-2.9-0.3
		V17c0.5,0.1,1.2,0.2,2.1,0.2c-0.1-2.5-0.1-4-0.1-4.5c0-0.8,0-2.2,0.1-4.2c-0.1,0-0.7,0.1-1.7,0.2l0-2.1c0.9-0.1,1.8-0.2,2.7-0.2
		c1,0,1.7,0,2.1,0c0.6,0.1,1,0.4,1,1.1c0,0.7-0.4,1-1.1,1c0,0-0.3,0-0.8-0.1c0,1.4-0.1,2.9-0.1,4.5c0,1.9,0,3.3,0.1,4.2
		c0.1,0,0.3,0,0.5-0.1c0.3,0,0.4-0.1,0.6-0.1c0.3,0,0.6,0.1,0.8,0.4C224.5,17.7,224.5,18,224.5,18.3z"/>
	<path class="st2" d="M207.3,22.9c0.8,0,1.5,0.3,2,0.9c0.6,0.7,0.9,1.5,0.9,2.3c0,1-0.4,2-1.3,3.2c1,0.8,1.4,1.8,1.4,3.1
		c0,1-0.4,1.8-1.1,2.4c-0.7,0.6-1.5,0.9-2.4,0.9c-0.1,0-0.2,0-0.4,0c0.1,2.4,0.1,4,0.1,4.8h-2.2c0-3.4-0.1-5.9-0.2-7.7
		c-0.1-1.5-0.1-2.8-0.2-3.8c0-0.5-0.1-0.9-0.1-1.3c0-0.7,0.3-1,1-1c0.7,0,1.1,0.4,1.1,1.2c0,0.3,0.1,2.1,0.3,5.4c0,0.1,0,0.3,0,0.4
		c0.1,0,0.2,0,0.4,0c0.3,0,0.6-0.2,0.9-0.5c0.3-0.2,0.4-0.5,0.4-0.9c0-0.4-0.1-0.8-0.2-1.2c-0.1-0.4-0.3-0.6-0.5-0.7
		c-0.3-0.1-0.5-0.4-0.6-0.8c0-0.3,0.1-0.5,0.3-0.6c0.2-0.3,0.4-0.7,0.6-1.2c0.1-0.4,0.2-0.8,0.2-1.2c0-1.2-0.4-1.8-1.1-1.8
		c-0.9,0-1.8,0.4-2.8,1.3l-0.2-2.1C205.2,23.3,206.3,22.9,207.3,22.9z M220.2,23.6c0.9,0,1.4,0.3,1.4,0.9c0,0.5-0.3,0.8-0.9,0.9
		c-1.8,0-3.2,0-4.5,0c-0.2,0.3-0.4,0.7-0.7,1c1-0.1,2.3-0.1,4-0.1c0.8,0,1.3,0.3,1.3,0.8c0,0.5-0.3,0.7-0.8,0.8c-0.7,0-1.3,0-1.9,0
		c0,0.1,0,0.2,0,0.2c0,0.2,0.1,0.5,0.1,0.7c0.6,0,1.2,0,1.8,0c0.9,0,1.3,0.3,1.3,0.9c0,0.5-0.3,0.7-0.8,0.8c-3.7,0-6.1,0.1-7,0.3
		v-1.2c-0.2,0.3-0.4,0.6-0.5,0.9l-1.3-1.1c0.7-1.4,1.4-2.6,2.1-3.8c-0.5,0-1,0.1-1.2,0.1c0.1,0.1,0.3,0.3,0.4,0.4l-0.9,1.7
		c-0.6-0.5-1.1-1-1.5-1.4c-0.3-0.3-0.4-0.6-0.4-0.9c0.1-0.5,0.4-0.8,0.9-0.8c0.2,0,0.5,0.2,1.1,0.7v-1.3c0.6-0.1,1.5-0.1,2.8-0.2
		c0.2-0.3,0.4-0.6,0.6-0.9c0.3-0.3,0.6-0.4,1-0.4c0.5,0.1,0.7,0.3,0.8,0.8c0,0.2,0,0.3-0.1,0.5C218.2,23.6,219.2,23.6,220.2,23.6z
		 M211.7,30c0.5,0,0.8,0.3,0.9,0.8c0,0.4-0.1,0.9-0.1,1.6c-0.2,2-0.3,3.2-0.3,3.6c0,0.8,0.2,1.4,0.7,1.8c0.5,0.5,1.4,0.7,2.6,0.7
		c1.2,0,3.2-0.2,5.9-0.6v1.6c-2.4,0.5-4.5,0.7-6.2,0.7c-1.6,0-2.8-0.3-3.6-1c-0.8-0.7-1.2-1.6-1.3-2.8c0-2.3,0.2-4.3,0.5-6
		C211,30.2,211.3,30,211.7,30z M214.4,31.3c0.2,0,0.4,0.1,0.5,0.2c0.9-0.3,2-0.5,3.1-0.5h0.6c0.8,0,1.5,0.2,2.1,0.6
		c0.5,0.6,0.7,1.3,0.7,2.1v0.4c0,0.9-0.2,1.9-0.4,3.1c-0.2,0.3-0.4,0.4-0.9,0.4c-0.6,0-1-0.3-1-0.8c0-0.2,0.1-0.3,0.1-0.5
		c0.2-0.6,0.3-1.2,0.4-2c0-0.7-0.1-1.2-0.3-1.6c-0.2-0.2-0.6-0.3-1-0.3c-1.2,0-2.3,0.2-3.4,0.6c0,0.1,0,0.3-0.1,0.4
		c0.6,0,1.4,0,2.5,0c0.8,0,1.2,0.3,1.2,0.8c0,0.4-0.3,0.7-0.7,0.7c-1.3,0-2.3,0-3,0c0,0.2,0,0.5,0.1,0.7c0.6,0,1.4-0.1,2.3-0.1
		c0.8,0,1.2,0.3,1.2,0.8c0,0.4-0.3,0.7-0.7,0.7c-1.1,0-2,0-2.6,0.1c0,0.2,0.1,0.5,0.1,0.7l-1.7,0.3c-0.2-1.1-0.4-2.4-0.4-4.1
		c0-0.8,0.1-1.5,0.3-2C213.7,31.5,214,31.3,214.4,31.3z M214,29c0.6-0.1,1.4-0.1,2.5-0.2c0-0.5,0-0.8-0.1-0.9v-0.1
		c-0.7,0-1.3,0.1-1.8,0.1C214.4,28.3,214.2,28.6,214,29z"/>
	<path class="st2" d="M225.5,24c0.4,0,1.4,0.6,3,1.8l-1.3,2.2c-0.9-0.7-1.7-1.3-2.3-1.8c-0.4-0.3-0.6-0.7-0.6-1.2
		C224.4,24.4,224.8,24,225.5,24z M232.5,22.5c0.8,0,1.4,0.2,1.9,0.6c0.5,0.4,0.7,0.9,0.7,1.6c0,0.8-0.2,1.4-0.6,1.8
		c-0.5,0.4-1.1,0.6-2,0.6l-1.8-0.1v0.1c0,0.3,0.1,0.5,0.2,0.7c0.2,0.2,0.4,0.3,0.7,0.3c0.6,0,1.7-0.2,3.1-0.6v1.6
		c-0.7,0.2-1.4,0.4-1.9,0.5c0,0,0,0.1,0.1,0.1c0.1,0.3,0.2,0.5,0.2,0.8h3.9c0.1-0.4,0.2-0.7,0.2-0.8c0,0,0,0,0,0
		c-0.5-0.1-0.9-0.2-1.2-0.4c-0.4-0.3-0.7-0.8-0.7-1.4c0-1.3,0.1-2.5,0.2-3.4h-0.1l-0.2-1.6c1.3-0.2,2.6-0.3,3.8-0.3
		c0.7,0,1.3,0.2,1.8,0.6c0.4,0.4,0.6,0.9,0.6,1.5c0,0.8-0.2,1.3-0.7,1.7c-0.5,0.4-1.2,0.6-2.1,0.6l-1.4-0.1v0.3
		c0,0.2,0.1,0.4,0.2,0.6c0.2,0.2,0.4,0.2,0.7,0.2c0.7,0,1.8-0.2,3.4-0.6V29c-1,0.3-1.8,0.5-2.6,0.6c0.1,0.1,0.1,0.3,0.1,0.5
		c0,0.1,0,0.3-0.1,0.4h0.6c0.8,0,1.3,0.3,1.3,0.9c0,0.6-0.3,0.9-1,0.9h-1.4c-0.1,0.4-0.2,0.7-0.2,1.1c0.5,0,0.9,0,1.3,0
		c0.4,0,0.7,0,1.1,0c0.6,0,1,0.3,1,0.9c0,0.5-0.3,0.8-0.8,0.9c-0.5,0-1.4,0.1-2.5,0.1c0,0,0,0,0.1,0c0.4,0.3,1,0.8,1.7,1.6l-0.8,0.6
		c0.8-0.1,1.5-0.1,2.3-0.3v2.2c-3.8,0.5-7.3,0.8-10.7,0.8h-0.8c-1.5,0-2.8-0.4-3.9-1.1c-1.2-0.9-1.8-2.1-1.8-3.8
		c0-1.1,0.1-2.5,0.4-3.9c0.2-0.6,0.6-1,1.2-1c0.7,0,1,0.4,1.1,1c0,0.2-0.1,0.7-0.3,1.5c-0.1,0.9-0.2,1.5-0.2,2c0,1.1,0.3,1.8,1,2.3
		c0.6,0.5,1.6,0.8,3,0.8c2.2,0,4.7-0.1,7.3-0.4c-0.5-0.4-0.9-0.7-1.2-0.9c-0.3-0.2-0.4-0.5-0.4-0.9c0-0.2,0.1-0.4,0.2-0.5
		c-0.4,0-0.9,0-1.3,0c-0.8,0-1.6,0-2.4,0.1c0,0.1,0,0.1,0,0.2c-0.1,0.3-0.5,1.1-1.3,2.4l-1.9-0.8c0.1-0.3,0.5-0.9,1.1-1.7l0,0
		c-0.8,0-1.5,0-2.3,0v-1.8c1,0,2,0,2.9,0c-0.1-0.5-0.2-0.9-0.3-1.3h-2v-1.8h1.7c0-0.3,0.1-0.5,0.2-0.7c-0.8,0-1.4-0.2-1.7-0.5
		c-0.4-0.4-0.7-0.9-0.7-1.5c0-1.2,0.1-2.2,0.2-3.1c0-0.1,0.1-0.1,0.1-0.1c-0.1,0-0.3,0-0.4,0.1l-0.3-1.6
		C229.8,22.7,231.2,22.5,232.5,22.5z M230.6,24.2c0.1,0.2,0.2,0.4,0.2,0.6c0,0.1,0,0.3,0,0.6c0.4,0,0.9,0.1,1.4,0.1
		c0.3,0,0.6-0.1,0.7-0.2c0.2-0.1,0.3-0.3,0.3-0.6c0-0.3-0.1-0.5-0.2-0.5c-0.2-0.1-0.4-0.2-0.7-0.2C231.8,24.1,231.3,24.1,230.6,24.2
		z M236.4,33.4c0.1-0.4,0.1-0.8,0.2-1.2h-3.2c0.1,0.4,0.2,0.8,0.2,1.2C234.6,33.5,235.5,33.5,236.4,33.4z M237.3,24.2
		c0.1,0.1,0.1,0.3,0.1,0.4c0,0.2,0,0.4,0,0.8c0.3,0,0.6,0.1,1,0.1c0.4,0,0.7-0.1,0.9-0.2c0.2-0.1,0.3-0.3,0.3-0.5
		c0-0.2-0.1-0.4-0.2-0.5c-0.1-0.1-0.3-0.2-0.6-0.2C238.5,24.2,238,24.2,237.3,24.2z"/>
	<path class="st2" d="M252.7,22.2c0.5,0,1.2,0.6,2.2,1.8c1.6,0,3.3,0,5.2-0.1c1,0,1.5,0.4,1.6,1c0,0.6-0.4,1-1,1c-0.8,0-1.6,0-2.4,0
		c-0.1,0.4-0.3,1.1-0.7,2.1c1.4,0.1,2.4,0.5,3.1,1.1c0.8,0.7,1.2,1.5,1.2,2.5v0.6c0,0.9-0.1,1.9-0.2,2.9c-0.1,1-0.4,2.4-0.8,4.2
		c-0.1,0.5-0.4,0.8-0.9,0.8c-0.8,0-1.2-0.4-1.2-1.2c0.4-1.6,0.6-2.9,0.8-3.9c0.1-1.1,0.2-2.1,0.2-2.9c0-0.8-0.3-1.4-0.9-1.7
		c-0.6-0.4-1.7-0.5-3.2-0.5c-0.1,0.3-0.1,0.5-0.1,0.6c0,0.7,0.2,1.1,0.7,1.1c0.3,0,1.1-0.2,2.3-0.5v1.7c-1.1,0.4-2,0.6-2.7,0.6h-0.3
		c-0.6,0-1.1-0.3-1.6-0.8c-0.4-0.4-0.5-1-0.5-1.7c0-0.3,0.1-0.6,0.2-1c-0.5,0.1-1,0.1-1.5,0.2c0,0.1,0,0.2,0.1,0.3
		c0,0.2-0.1,0.4-0.3,0.6c-0.8,1-1.5,1.9-1.9,2.6c0.1,0.1,0.2,0.2,0.3,0.3c0.7-0.1,1.3-0.2,1.9-0.2h0.4c2.1,0,3.5,0.2,4.2,0.7
		c0.7,0.4,1,1,1,1.8l0.1,0.3c0,1.1-0.3,1.8-0.8,2.2c-0.5,0.4-1.8,0.6-3.9,0.6h-1.4c-1.4,0-2.3-0.2-2.9-0.6c-0.5-0.4-0.7-1.1-0.7-2
		v-0.4c0-0.6,0.1-1.3,0.4-2.1c0.2-0.4,0.5-0.6,0.8-0.7l-1-0.7c0.7-1,1.2-1.8,1.7-2.3c-1,0.2-1.9,0.5-2.9,0.8c0,0.9-0.1,2.2-0.2,3.9
		c0,2.3,0.2,3.9,0.4,5.1h-2.1c-0.2-0.8-0.4-2.5-0.4-5.1v-0.6c0-1.5,0.1-2.9,0.2-4.4c0.1-0.8,0.5-1.2,1.1-1.2c0.3,0,0.6,0.1,0.7,0.3
		c0.7-0.2,1.3-0.4,2-0.6c-0.5-1.2-0.7-2.1-0.8-2.6c-1.1,0.1-2.1,0.1-3.1,0.1v-2c1.7-0.1,3.9-0.3,6.8-0.4c-0.2-0.3-0.3-0.6-0.3-0.8
		C251.6,22.6,252,22.3,252.7,22.2z M253,35.8c-0.9,0-1.8,0.1-2.8,0.2c-0.1,0.2-0.1,0.4-0.1,0.5c0,0.5,0.1,0.7,0.3,0.9
		c0.3,0.3,0.9,0.4,1.7,0.4h0.9c1.1,0,1.9-0.1,2.4-0.3c0.3-0.1,0.4-0.4,0.4-0.8c0-0.4-0.2-0.6-0.6-0.7
		C254.9,35.9,254.1,35.8,253,35.8z M251.3,28.5c1.2-0.2,2.5-0.4,3.8-0.4h0.2c0.2-0.5,0.4-1.2,0.7-2c-2.2,0.1-4.1,0.1-5.6,0.2
		C250.6,26.9,250.9,27.7,251.3,28.5z"/>
	<path class="st2" d="M266.5,31.1c0.4,0,0.7,0.2,0.8,0.5c0.4-0.1,0.9-0.2,1.3-0.2h0.2c0.5,0,1.1,0,1.8,0.1c0.6,0.1,1.1,0.4,1.5,0.8
		c0.6,0.4,0.8,1.5,0.8,3.4v0.6c0,0.8-0.1,1.4-0.2,1.8c-0.2,0.7-0.6,1.2-1.2,1.5c-0.6,0.4-1.4,0.5-2.5,0.6h-0.6
		c-1.3,0-2.2-0.3-2.7-0.9c-0.6-0.7-0.9-1.6-0.9-2.7v-0.3c0-1.1,0.1-2.4,0.4-4C265.5,31.4,265.9,31.1,266.5,31.1z M267.8,22.3
		c0.6,0.1,1,0.3,1.1,0.7c1.5-0.2,2.9-0.4,4.1-0.4h1.3c1.5,0,2.5,0.1,3.1,0.3c1,0.2,1.8,0.6,2.3,1.2c0.5,0.5,0.7,1.4,0.7,2.7v0.4
		c0,0.9-0.3,1.6-0.9,2.3c-0.7,0.9-2.4,1.3-5.1,1.3h-1.9c-1.8,0-3.2-0.2-4.4-0.6c-1.4-0.6-2.1-1.5-2.1-2.9v-0.3
		c0-1.2,0.2-2.5,0.6-3.7C267,22.6,267.3,22.4,267.8,22.3z M268.5,33.5c-0.5,0-0.9,0.1-1.3,0.2c-0.1,1-0.2,1.8-0.2,2.4
		c0,0.7,0.1,1.1,0.4,1.4c0.3,0.3,0.9,0.4,1.6,0.4c0.7,0,1.2-0.2,1.4-0.6c0.2-0.2,0.3-0.9,0.4-1.9c0-1-0.2-1.6-0.5-1.7
		C269.6,33.5,269.1,33.5,268.5,33.5z M274.2,24.7c-2.1,0-3.9,0.2-5.6,0.5c-0.1,0.5-0.1,0.9-0.1,1.3c0,0.8,0.4,1.3,1.1,1.5
		c0.7,0.3,2.2,0.4,4.5,0.4c0.9,0,1.8-0.1,2.5-0.2c0.5-0.1,1-0.2,1.3-0.5c0.3-0.2,0.4-0.5,0.5-1c0-1-0.3-1.6-1-1.9
		C276.8,24.8,275.8,24.7,274.2,24.7z M275.4,31.1c0.4,0,0.7,0.1,0.8,0.4c0.5-0.1,1.1-0.2,1.7-0.3h0.2c0.5,0,1.1,0,1.8,0.1
		c0.6,0.1,1.1,0.4,1.5,0.9c0.6,0.4,0.9,1.7,0.9,3.8v0.7c0,0.7-0.1,1.2-0.3,1.5c-0.2,0.6-0.6,1-1.2,1.3c-0.6,0.3-1.5,0.5-2.6,0.5
		h-0.6c-1.4,0-2.3-0.3-2.9-1c-0.6-0.7-0.9-1.7-0.9-2.8v-0.3c0-1,0.1-2.3,0.3-3.8C274.4,31.5,274.8,31.1,275.4,31.1z M277.8,33.5
		c-0.6,0-1.1,0.1-1.6,0.2c-0.1,0.9-0.2,1.6-0.2,2.2c0,0.7,0.1,1.2,0.4,1.5c0.4,0.3,1,0.4,1.8,0.4c0.8,0,1.3-0.1,1.5-0.4
		c0.2-0.2,0.3-0.7,0.4-1.4c0-1.3-0.2-2.1-0.5-2.3C279,33.6,278.4,33.5,277.8,33.5z"/>
</g>
<g>
	<path class="st3" d="M317.3,37.9c-2.1,0-3.8-1.8-3.8-4v-2.2h-6.7c-2.1,0-3.8-1.8-3.8-4V19c0-2.2,1.7-4,3.8-4h6.7v-2.2
		c0-2.2,1.7-4,3.8-4c0.8,0,1.6,0.3,2.3,0.8l12,10.4l0,0.1c1.7,1.8,1.7,4.7,0,6.5l0,0.1L319.7,37C319,37.6,318.2,37.9,317.3,37.9z"/>
	<path class="st4" d="M317.3,10.4c0.5,0,1,0.2,1.4,0.5l11.8,10.3c1.2,1.2,1.2,3.2,0,4.4l-11.8,10.3c-0.4,0.3-0.9,0.5-1.4,0.5
		c-1.3,0-2.3-1.1-2.3-2.5v-2.5c0-0.7-0.5-1.2-1.2-1.2h-7c-1.3,0-2.3-1.1-2.3-2.5V19c0-1.4,1.1-2.5,2.3-2.5h7c0.6,0,1.2-0.6,1.2-1.2
		v-2.5C315,11.5,316,10.4,317.3,10.4 M317.3,7.4c-2.9,0-5.3,2.5-5.3,5.5v0.7h-5.2c-2.9,0-5.3,2.5-5.3,5.5v8.7c0,3,2.4,5.5,5.3,5.5
		h5.2v0.7c0,3,2.4,5.5,5.3,5.5c1.2,0,2.3-0.4,3.2-1.1l0.1-0.1l0.1-0.1l11.8-10.3l0.1-0.1l0.1-0.1c2.3-2.4,2.3-6.1,0-8.5l-0.1-0.1
		l-0.1-0.1L320.7,8.6l-0.1-0.1l-0.1-0.1C319.6,7.7,318.5,7.4,317.3,7.4L317.3,7.4z"/>
</g>
<g>
	<path class="st3" d="M512.3,37.9c-2.1,0-3.8-1.8-3.8-4v-2.2h-6.7c-2.1,0-3.8-1.8-3.8-4V19c0-2.2,1.7-4,3.8-4h6.7v-2.2
		c0-2.2,1.7-4,3.8-4c0.8,0,1.6,0.3,2.3,0.8l12,10.4l0,0.1c1.7,1.8,1.7,4.7,0,6.5l0,0.1L514.7,37C514,37.6,513.2,37.9,512.3,37.9z"/>
	<path class="st4" d="M512.3,10.4c0.5,0,1,0.2,1.4,0.5l11.8,10.3c1.2,1.2,1.2,3.2,0,4.4l-11.8,10.3c-0.4,0.3-0.9,0.5-1.4,0.5
		c-1.3,0-2.3-1.1-2.3-2.5v-2.5c0-0.7-0.5-1.2-1.2-1.2h-7c-1.3,0-2.3-1.1-2.3-2.5V19c0-1.4,1.1-2.5,2.3-2.5h7c0.6,0,1.2-0.6,1.2-1.2
		v-2.5C510,11.5,511,10.4,512.3,10.4 M512.3,7.4c-2.9,0-5.3,2.5-5.3,5.5v0.7h-5.2c-2.9,0-5.3,2.5-5.3,5.5v8.7c0,3,2.4,5.5,5.3,5.5
		h5.2v0.7c0,3,2.4,5.5,5.3,5.5c1.2,0,2.3-0.4,3.2-1.1l0.1-0.1l0.1-0.1l11.8-10.3l0.1-0.1l0.1-0.1c2.3-2.4,2.3-6.1,0-8.5l-0.1-0.1
		l-0.1-0.1L515.7,8.6l-0.1-0.1l-0.1-0.1C514.6,7.7,513.5,7.4,512.3,7.4L512.3,7.4z"/>
</g>
<g>
	<path class="st2" d="M411.2,4.6c0.3,0,0.5,0.1,0.6,0.2c0.3-0.1,0.7-0.2,1-0.2c1,0,1.7,0.1,2,0.4c0.5,0.3,0.9,1,1.2,2
		c0.3,0.7,0.5,1.8,0.5,3.5c0.8,0,1.7,0,2.7,0c0-0.3,0-0.6,0-0.8h-1.8V7.8h1.7c0-0.3,0-0.6,0-0.8c-1,0-1.6,0.1-2.1,0.1V5.2
		c0.5,0,1.1-0.1,2-0.1V4.9c0-0.7,0.3-1,0.9-1c0.8,0,1.2,0.4,1.3,1.1v0c0.7,0,1.5,0,2.3,0c0-0.4,0.1-0.6,0.1-0.7
		c0.3-0.4,0.6-0.6,1-0.6c0.7,0,1,0.4,1,1c0,0.1,0,0.2,0,0.3h0.3c1,0,1.6,0.3,1.6,1c0,0.6-0.4,0.9-0.9,0.9h-1.2
		c0,0.3-0.1,0.6-0.1,0.9h0.3c0.8,0,1.3,0.3,1.3,0.9c0,0.6-0.3,0.9-0.9,0.9h-0.8c0,0.3,0,0.5-0.1,0.8h0.9c1,0,1.5,0.3,1.5,0.9
		c0,0.6-0.4,1-1,1c-1.2,0-2.4,0-3.4,0c0,0.1,0,0.3,0,0.5h0.3c1.2,0,2.1,0.3,2.7,0.9c0.7,0.7,1,1.6,1.1,2.9v0.9c0,0.3,0,0.6,0,0.9
		c0.4,0.1,0.6,0.4,0.6,0.7c0,0.6-0.3,0.9-0.9,1c-0.1,0.5-0.3,0.9-0.4,1.4c-0.2,0.4-0.5,0.6-1.1,0.6c-0.7,0-1-0.3-1-0.9
		c0.1-0.4,0.3-0.7,0.4-1.1c-2,0-3.7,0-5,0c0.1,0.7,0.1,1.3,0.2,1.7h-2.1c-0.1-0.4-0.2-0.9-0.2-1.7c-0.4,0-0.9,0-1.2,0l-1.4,1.1
		c-0.5-0.8-1-1.3-1.3-1.7c-0.2-0.2-0.4-0.5-0.4-0.9c0-0.1,0-0.2,0-0.2c0,0-0.1,0-0.1,0c-0.3,0-0.6,0-0.9-0.1
		c-0.1,0.4-0.5,1.4-1.3,2.9l-1.7-0.7c0.1-0.4,0.4-1.2,1-2.4c0.1-0.2,0.3-0.4,0.4-0.5c-0.2-0.2-0.4-0.4-0.6-0.6
		c-0.6-0.9-0.9-2.3-0.9-4c0-2.6,0.2-5.1,0.6-7.5C410.1,4.9,410.5,4.6,411.2,4.6z M412.7,6.6c-0.3,0.1-0.6,0.1-0.8,0.2
		c-0.1,0.5-0.1,1.1-0.2,1.5c0.5,0.1,0.9,0.1,1.2,0.2c0.7,0.1,1,0.4,1,0.9c0,0.6-0.4,1-1.2,1c-0.5,0-0.9,0-1.3-0.1
		c0,0.5-0.1,0.9-0.1,1.3c0.5,0.1,1,0.1,1.4,0.2c0.7,0.1,1,0.4,1,0.9c0,0.6-0.4,1-1.2,1c-0.5,0-0.9,0-1.2-0.1c0,0.8,0.1,1.4,0.3,1.7
		c0.2,0.5,0.6,0.8,1.2,0.8c0.6,0,1-0.3,1.2-0.8c0.2-0.5,0.3-1.3,0.3-2.4c0-3.6-0.1-5.5-0.4-5.8c-0.2-0.4-0.4-0.6-0.7-0.6
		C413.1,6.7,412.9,6.6,412.7,6.6z M414.8,18c0.1,0.1,0.2,0.1,0.3,0.2c0.2,0.2,0.5,0.6,0.9,1.1v-0.8c0.5,0,1,0,1.6-0.1v-1.1
		c0-1.1,0-2.1,0.1-3.2c0.1-0.8,0.5-1.1,1.1-1.2c0.3,0,0.5,0.1,0.7,0.3c0.5-0.1,1-0.2,1.6-0.3v-0.6c-0.9,0-1.6,0-2.2,0
		c-0.8,0-1.5,0-2.2,0v0.4c0,1.8-0.2,3.1-0.6,3.9C415.7,17.3,415.3,17.7,414.8,18z M419.7,17.4c0,0.1,0,0.3,0,0.4v0.6
		c0.5,0,0.9,0,1.4,0v-1C420.5,17.4,420.1,17.4,419.7,17.4z M419.8,15c0,0.2,0,0.5,0,0.8c0.4,0,0.9,0,1.3,0v-1.1
		C420.6,14.8,420.2,14.9,419.8,15z M423.2,7.8c0-0.3,0-0.6,0.1-0.9c-0.8,0-1.5,0-2.1,0c0,0.3,0,0.6,0,0.8H423.2z M423,10.4
		c0-0.3,0-0.6,0.1-0.8h-1.7c0,0.3,0,0.6,0,0.8H423z M423.1,18.3c0.6,0,1.3,0,2,0c0-0.3,0-0.5,0-0.7v-0.2c-0.1,0-0.2,0.1-0.4,0.1
		c-0.6,0-1.1,0-1.6,0V18.3z M423.1,14.6v1.2c0.7,0,1.2,0,1.8,0h0c-0.1-0.4-0.3-0.6-0.4-0.8C424.1,14.8,423.7,14.7,423.1,14.6z"/>
	<path class="st2" d="M434.6,4.2c0.6,0,0.9,0.3,0.9,1c0.2,1.1,0.3,2.2,0.4,3.3c0.2,0,0.4,0.1,0.5,0.1c0.9-2,1.6-3.4,2.1-4.1
		c0.4-0.3,0.7-0.5,1.2-0.5c0.6,0,1,0.4,1,1.1c0,0.3-0.1,0.6-0.3,1c0.9-0.2,1.8-0.3,2.8-0.4h0.8c1.2,0,2,0.4,2.5,1.2
		c0.7,0.7,1,2.5,1.1,5.6v0.6c0,2.5-0.5,5.1-1.5,7.9c-0.2,0.6-0.6,0.9-1.2,0.9c-0.7,0-1.1-0.3-1.1-1c1-2.9,1.5-5.5,1.5-7.9
		c0-2.4-0.2-3.9-0.5-4.6c-0.4-0.4-0.8-0.6-1.2-0.6c-1.5,0.1-3.1,0.3-4.6,0.8c-0.6,1.2-1.1,2.3-1.5,3.2l-1.4-1
		c0.1,0.8,0.1,1.7,0.1,2.5h0.1c0.5,0,0.8,0.1,1.1,0.3c0.9-1.4,1.9-2.5,2.9-3.6c0.4-0.3,0.8-0.5,1.2-0.5c0.6,0.1,0.9,0.4,1,0.9
		c0,0.4-0.2,0.7-0.5,1.1c-1.1,1.3-2.2,2.7-3.3,4.1l-1-0.8c-0.2,0.3-0.4,0.5-0.9,0.6c-0.1,0-0.3,0.1-0.4,0.1c0,0.9,0,1.8,0,2.7
		c0,2.3-1,3.5-2.8,3.5c-1,0-1.9-0.2-2.6-0.7l-0.1-2c0.8,0.4,1.5,0.5,2.2,0.5c0.7,0,1.1-0.7,1.1-2.2c0-0.2,0-0.6,0-1.1
		c-1.3,0.5-2.7,1-3.9,1.5l-0.6-2.3c1.8-0.8,3.3-1.3,4.5-1.7c-0.1-0.9-0.2-2-0.2-3.3c-0.6,0-1.2,0.1-1.6,0.1
		c-0.1,0.9-0.2,1.9-0.3,2.9l-2.2-0.5c0.5-4,0.9-6.3,1-6.7c0.3-0.4,0.6-0.6,1-0.6c0.7,0,1,0.4,1.1,1c0,0.3-0.1,0.7-0.2,1.2
		c0,0.2-0.1,0.3-0.1,0.4c0.3,0,0.7-0.1,1.1-0.1c-0.1-1-0.2-2.1-0.2-3.3C433.4,4.6,433.8,4.3,434.6,4.2z M443.1,13.5
		c0.6,0.1,0.9,0.4,1,0.9c0,0.3-0.2,0.7-0.5,1.1c-1.4,1.7-2.8,3.6-4.3,5.6l-1.6-1.4c1.4-2.2,2.8-4.1,4.3-5.7
		C442.3,13.6,442.7,13.5,443.1,13.5z"/>
	<path class="st2" d="M465,5.1c1,0,1.5,0.4,1.6,1c0,0.7-0.4,1-1.1,1.1c-2.3,0-4.2,0-5.9,0c0,0.3,0,0.7,0,1c1.2,0,2.3,0.1,3.3,0.2
		c1.3,0.2,2.3,0.6,3,1.3c0.5,0.5,0.8,1.6,0.8,3v0.5c0,0.6-0.2,1.3-0.5,2c-0.5,0.9-1.5,1.5-2.9,1.8c-0.9,0.2-2.1,0.2-3.4,0.3
		c0,0.4,0,0.7,0,1c1.8,0,3.7,0,5.8,0c1,0,1.5,0.4,1.6,1c0,0.7-0.4,1-1.1,1.1c-2.3,0-4.4,0-6.2,0c0,0.7,0,1.2,0,1.5h-2.2
		c0-0.5,0-1.1,0-1.5c-1.1,0-2.1,0-2.9,0c-1.6,0-3.1,0-4.5,0.1v-2.1c1.8-0.1,4.3-0.1,7.4-0.1c0-0.4,0-0.7,0-1c-2.2,0-3.8-0.2-4.9-0.6
		c-1.6-0.5-2.4-1.5-2.4-3.1v-0.4c0-0.7,0.4-1.9,1.1-3.8c0.3-0.6,0.7-0.9,1.3-0.9c0.4,0,0.6,0.1,0.8,0.4c1.1-0.2,2.4-0.4,3.9-0.5
		c0-0.4,0-0.7,0-1.1c-0.8,0-1.6,0-2.2,0c-1.4,0-2.8,0-4.1,0V5.2c1.5,0,3.6,0,6.2-0.1c0-0.1,0-0.3,0-0.4c0-0.7,0.3-1,1-1
		c0.7,0,1.1,0.4,1.1,1.2c0,0,0,0.1,0,0.2C461.1,5.1,463,5.1,465,5.1z M457.7,15.2c0-0.5,0-1,0-1.4c-1.3,0-2.4,0-3.2,0.1
		c-0.6,0-1.2,0.1-1.7,0.1c0.2,0.4,0.6,0.7,1.3,0.9C454.7,15,455.9,15.2,457.7,15.2z M457.5,11.7L457.5,11.7c0-0.5,0-0.9,0-1.3
		c-1.3,0.1-2.8,0.4-4.4,0.8c-0.1,0.2-0.1,0.4-0.2,0.6C454.2,11.8,455.7,11.7,457.5,11.7z M459.7,10.3c0,0.4,0,0.9,0,1.3
		c0.5,0,0.9,0,1.4,0c1,0,1.5,0.4,1.6,1c0,0.7-0.4,1-1.1,1.1c-0.6,0-1.2,0-1.7,0c0,0.5,0,1,0,1.5c1.2,0,2.2-0.1,3-0.3
		c0.6-0.1,1-0.4,1.3-0.7c0.2-0.4,0.4-0.8,0.4-1.3c0-0.8-0.1-1.3-0.3-1.6c-0.4-0.5-1.1-0.8-2-0.9C461.3,10.4,460.5,10.3,459.7,10.3z"
		/>
	<path class="st2" d="M413.6,26.1c0.4,0,1,0.4,1.8,1.1c1.4,1.4,2.1,2.7,2.1,3.9c0,0.9-0.2,1.6-0.6,2c0.3,0.5,0.5,1,0.7,1.6
		c0.2,0.6,0.3,1.1,0.3,1.7c0,0.9-0.4,1.5-1.1,2c-0.5,0.4-1.1,0.6-1.8,0.7v0.1c0,0.1,0,0.3,0,0.7c0.1,0,0.2,0,0.3,0
		c0.4,0.1,1,0.2,2,0.2l-0.2,2.3c-0.8,0-1.4-0.1-2-0.2c0,1,0,1.6,0,2h-2.2c0-1.4,0-2.4,0-3.1c0-0.6,0-1.1,0-1.5c0-0.1,0-0.3,0-0.4
		c-0.6-0.1-1.1-0.2-1.6-0.4c-1-0.4-1.5-1.2-1.5-2.3c0-0.7,0.3-1.7,0.9-2.9c-0.1,0-0.1-0.1-0.1-0.1c-0.5-0.5-0.8-1.2-0.8-2
		c0-0.6,0.2-1.3,0.6-2c0.4-0.7,1.1-1.5,1.9-2.3C412.8,26.4,413.3,26.1,413.6,26.1z M410.9,39.3c0.7,0,1,0.3,1.1,0.9
		c0,0.1,0,0.5-0.1,0.9c-0.1,0.6-0.1,1.3-0.1,2.3l-2.1-0.2c0-1.5,0.1-2.6,0.2-3.3C410.2,39.6,410.5,39.4,410.9,39.3z M413.2,32.1
		c0.6,0,1.2-0.1,1.6-0.3c0.3-0.1,0.5-0.4,0.5-0.7c0-0.4-0.2-0.9-0.6-1.5c-0.5-0.7-0.8-1.1-1.1-1.1c-0.1,0-0.1,0.1-0.2,0.3
		c-0.6,0.8-1,1.4-1.2,1.9c-0.2,0.3-0.3,0.6-0.3,0.8c0,0.2,0.1,0.3,0.2,0.4C412.4,32,412.7,32.1,413.2,32.1z M412.5,34.2
		c-0.4,0.8-0.6,1.3-0.6,1.5c0,0.5,0.1,0.8,0.4,1c0.2,0.2,0.6,0.3,1.3,0.3c0.8,0,1.3-0.2,1.6-0.5c0.3-0.2,0.4-0.5,0.4-0.9
		c0-0.3-0.2-0.9-0.5-1.7c-0.7,0.2-1.4,0.2-2.2,0.2H412.5z M425.7,28.3c1.2,0,1.8,0.4,1.8,1.2c0,0.6-0.4,1-1.1,1h-2.8
		c0,0.8,0.1,1.7,0.1,2.6c0.5,0,0.9,0,1.4,0c1.2,0,1.8,0.4,1.8,1.2c0,0.6-0.4,1-1.1,1c-4.1,0-6.6,0.1-7.6,0.4v-2.2
		c0.6-0.1,1.7-0.2,3.2-0.3c0-0.9-0.1-1.8-0.2-2.6c-1.8,0-3,0.1-3.6,0.2v-2.2c0.7-0.1,1.8-0.1,3.5-0.2c0-0.3,0-0.6,0-0.8
		c0-1,0.4-1.5,1.1-1.6c0.5,0,0.9,0.2,1,0.5c0.1,0.3,0.2,0.6,0.2,0.9c0,0.3,0,0.6,0,0.9C424.2,28.3,424.9,28.3,425.7,28.3z
		 M422.5,36.4c1.3,0,2.4,0.3,3.3,0.8c0.8,0.5,1.3,1.4,1.3,2.5v0.5c0,1.1-0.3,2-1,2.6c-0.7,0.6-1.6,0.9-2.7,0.9h-1
		c-1.5,0-2.7-0.4-3.5-1.1c-0.5-0.5-0.8-1.3-0.8-2.4v-0.5c0-1.1,0.4-2,1.1-2.5c0.5-0.4,1.4-0.6,2.6-0.7H422.5z M422.9,41.6
		c0.8,0,1.3-0.2,1.5-0.5c0.3-0.2,0.4-0.6,0.4-1.2c0-0.5-0.2-0.8-0.6-1.1c-0.4-0.2-1-0.4-1.9-0.4c-0.9,0-1.5,0.1-1.7,0.4
		c-0.3,0.2-0.4,0.6-0.4,1.2c0,0.6,0.1,1.1,0.4,1.3C420.9,41.5,421.7,41.6,422.9,41.6z"/>
	<path class="st2" d="M445.8,26.7c1.1,0,1.6,0.4,1.6,1.1c0,0.6-0.4,0.9-1,1c-2.6,0-4.6,0-5.8,0c0,0.3,0,0.6,0,1c1,0,2.5,0,4.5,0
		c1,0,1.6,0.3,1.6,1c0,0.5-0.4,0.8-0.9,0.9c-2.4,0-4.1,0-5.2,0c0,0.4,0,0.7,0,1.1c1,0,2.5,0,4.5,0c1,0,1.5,0.3,1.5,1
		c0,0.5-0.3,0.8-0.9,0.9c-2.3,0-4,0-5.1,0c0,0.4,0,0.8,0,1.3c1.9-0.1,3.7-0.1,5.4-0.2c0.3,0,0.6,0,0.9,0c0.7,0,1,0.3,1.1,0.9
		c0,0.5-0.3,0.8-0.9,0.9c-0.2,0-0.6,0-1,0.1c0,0,0,0,0.1,0c0.5,0.5,0.8,1.1,0.8,1.8c0,0.7-0.2,1.4-0.7,2c0.5,0.2,1.1,0.4,1.7,0.6
		l-0.3,1.8c-0.3,0-0.7-0.1-1.3-0.3c-0.6-0.2-1.2-0.4-1.7-0.6c-0.3,0.2-0.6,0.3-0.9,0.5c-1,0.4-2,0.6-3.1,0.6c-1.1,0-1.9-0.4-2.4-1.1
		c-0.4-0.6-0.6-1.5-0.6-2.7c0-0.7,0.1-1.4,0.3-2.2c0,0,0-0.1,0-0.1c-0.2,0-0.4,0-0.6,0c-0.1,0.4-0.1,0.8-0.2,1.2
		c-0.1,0.4-0.5,0.5-1.1,0.5c-0.5,0-0.7-0.3-0.7-1c0.2-1.3,0.4-2.6,0.5-3.7c0.1-1.1,0.2-1.9,0.2-2.6c0-0.6-0.1-1-0.3-1.3
		c-0.2-0.4-0.5-0.5-0.9-0.5c-0.1,0-0.2,0-0.2,0c0,1.1,0.1,2.4,0.1,3.8c0.1,4.9,0.2,8,0.2,9.5h-1.9c0-4.5-0.1-7.9-0.2-10.2
		c0-1.1,0-2-0.1-2.9c-0.3,0.1-0.5,0.1-0.7,0.2c0,1-0.1,2.5-0.1,4.5c0,2,0.1,3.5,0.3,4.5h-1.9c-0.2-0.7-0.3-2.2-0.3-4.5v-0.7
		c0-1.7,0.1-3.4,0.2-5.1c0.1-0.7,0.4-1,1-1c0.4,0,0.6,0.2,0.7,0.5c0.3-0.1,0.5-0.2,0.8-0.2c0-0.1,0-0.2,0-0.3c0-0.7,0-1.2,0-1.7
		c0-0.6,0.3-0.9,0.9-0.9c0.6,0,0.9,0.4,0.9,1c0,0.2,0,0.7,0.1,1.5c0,0,0.1,0,0.1,0h0.6c0.8,0,1.4,0.3,1.9,1c0.5,0.7,0.7,1.5,0.7,2.4
		v0.4c0,0.8-0.1,1.9-0.2,3.3c0,0.1,0,0.2,0,0.3c0.3,0,0.7,0,1,0c0-2.2,0.1-5,0.2-8.5c0.1-0.7,0.4-1,1-1.1c0.4,0,0.6,0.1,0.8,0.4
		C441.6,26.7,443.4,26.7,445.8,26.7z M439.5,37.8c0,0.1,0,0.1,0,0.2c-0.1,0.6-0.1,1.3-0.1,2.1c0,1.3,0.3,2,1,2
		c0.5,0,1.1-0.1,1.8-0.3c-0.3-0.2-0.5-0.3-0.7-0.4c-0.4-0.5-0.7-1.1-0.7-1.9c0-0.7,0.2-1.2,0.6-1.6
		C440.8,37.8,440.1,37.8,439.5,37.8z M443.9,38.8c-0.4,0-0.8,0.1-1,0.2c-0.2,0.1-0.3,0.3-0.3,0.5c0,0.3,0.2,0.6,0.7,0.9
		c0.2,0.1,0.5,0.2,0.9,0.4c0.1-0.1,0.1-0.1,0.1-0.1c0.4-0.4,0.6-0.8,0.6-1.2c0-0.2-0.1-0.4-0.3-0.4
		C444.5,38.9,444.2,38.8,443.9,38.8z"/>
</g>
<g>
	<path class="st2" d="M601.6,17.4c0.6,0,1,0.2,1.2,0.7c1.5-0.4,3.1-0.8,4.7-1c-0.2-0.3-0.4-0.6-0.4-0.8c0-0.8,0.4-1.2,1.2-1.2
		c0.5,0,1.3,0.6,2.2,1.7c0.6-0.1,1.1-0.1,1.7-0.1h1.5c1.3,0,2.3,0.2,3.1,0.6c0.8,0.6,1.2,1.4,1.2,2.6c0,0.8-0.3,1.8-0.9,3.1
		c-0.1,0.5-0.6,0.8-1.4,0.8c-0.6,0-0.9-0.3-0.9-0.9c0.4-0.9,0.6-1.8,0.8-2.8c0-0.9-0.8-1.4-2.5-1.4c-3.4,0.1-6.8,0.5-10,1.4
		c0.2,1.2,0.3,2.5,0.5,3.8l-2.4,0.4c-0.4-3.3-0.7-5.2-0.7-5.9C600.6,17.8,600.9,17.5,601.6,17.4z M613.4,20.7c0.7,0,1.1,0.4,1.2,1.1
		c-0.1,0.4-0.3,0.8-0.8,1c-1.6,0.3-3,0.6-4.1,0.8c0,0.3-0.1,0.6-0.3,0.9c-0.1,0.5-0.2,1-0.3,1.4c2,0,4.2-0.1,6.7-0.1
		c1.1,0,1.6,0.4,1.6,1.1c0,0.7-0.4,1-1.1,1.1c-3,0-5.6,0-7.7,0.1c0,0.4-0.1,0.7-0.1,1c0,0.5,0.2,1,0.5,1.2c0.5,0.3,1.2,0.4,2.1,0.4
		c1.2,0,3.2-0.3,6.1-0.9v2.2c-0.8,0.2-1.7,0.4-2.9,0.6c-1.1,0.2-2.1,0.3-3.1,0.3h-0.4c-1.5,0-2.6-0.2-3.4-0.7
		c-0.9-0.6-1.3-1.5-1.3-2.8c0-0.4,0-0.9,0.1-1.3c-0.3,0-0.5,0-0.7,0c-1.5,0.1-2.9,0.1-4.3,0.1v-2.2c1.4-0.1,3.1-0.2,5.3-0.2
		c0.1-0.5,0.2-1.2,0.4-1.8c-1.6,0.3-2.5,0.5-2.7,0.5l-0.4-2.1C609.3,21.3,612.5,20.7,613.4,20.7z"/>
	<path class="st2" d="M628.3,15.7c1.1,0,1.6,0.4,1.6,1.1c0,0.6-0.4,0.9-1,0.9h-1.3c0,0.3-0.1,0.8-0.2,1.5c0.1,0,0.2,0,0.2,0
		c0.5,0.2,1,0.6,1.3,1.1c0.5,0.6,0.7,2.2,0.7,4.9v1c0,1.4-0.1,2.4-0.3,3.1c-0.3,1.1-0.7,2-1.4,2.6c-0.7,0.6-1.6,0.9-2.9,1h-0.7
		c-1.5,0-2.5-0.4-3-1.2c-0.7-0.9-1-2-1-3.4v-0.6c0-2.2,0.2-4.8,0.6-7.9c0.2-0.6,0.5-0.9,1-0.9c0.5,0,0.7,0.2,0.8,0.7
		c0.2-0.1,0.5-0.1,0.7-0.2c0.1-0.6,0.1-1.2,0.2-1.8c-1.4,0-2.4,0-2.9,0.1v-2C621.9,15.7,624.4,15.7,628.3,15.7z M627.2,21.4
		c-0.1,1.5-0.2,3.2-0.3,4.8h-1.6c0-1.4,0.1-3.1,0.3-5.2c-0.3,0-0.5,0-0.7,0.1c-0.2,1.7-0.3,3.4-0.4,5.2H623c0-1.3,0.1-3,0.3-5
		c-0.2,0-0.4,0.1-0.6,0.1c-0.3,2.5-0.4,4.5-0.4,5.9h2.7c1,0,1.6,0.3,1.6,1c0,0.5-0.4,0.8-1,0.9h-3.2c0.1,0.5,0.2,0.8,0.4,1.1
		c0.5,0.4,1.3,0.6,2.3,0.6c1.2,0,1.9-0.4,2.3-1.2c0.3-0.5,0.4-1.9,0.5-4.2c0-2.4-0.2-3.7-0.5-4C627.4,21.4,627.3,21.4,627.2,21.4z
		 M625.9,19.1c0.1-0.5,0.1-0.9,0.2-1.4h-0.7c0,0.4-0.1,0.9-0.2,1.5C625.4,19.1,625.6,19.1,625.9,19.1L625.9,19.1z M635.3,16
		c1,0,1.8,0.4,2.4,1.2c0.6,0.7,0.9,1.8,0.9,3.2c0,1.6-0.3,2.8-1,3.7c-0.7,0.8-1.6,1.2-2.9,1.2L633,25c-0.3,1.7-0.4,2.8-0.4,3.2
		c0,0.9,0.1,1.5,0.4,1.9c0.3,0.4,0.9,0.7,1.7,0.7c0.5,0,1.7-0.2,3.5-0.7v2.1c-1.6,0.4-2.7,0.7-3.4,0.7h-0.8c-1.2,0-2.1-0.4-2.8-1.1
		c-0.7-0.8-1-1.9-1-3.3c0-0.9,0.2-2.8,0.7-5.5c0.2-0.6,0.6-0.9,1.3-0.9c0.7,0,1,0.3,1,1c0.3,0.1,0.6,0.1,0.9,0.2
		c0.6,0,1.1-0.2,1.4-0.6c0.3-0.3,0.5-1,0.5-2.1c0-0.9-0.1-1.5-0.3-1.8c-0.2-0.3-0.5-0.5-0.9-0.5c-0.7,0-2.1,0.3-4.2,0.9l-0.4-2.1
		C632,16.3,633.7,16,635.3,16z"/>
	<path class="st2" d="M649.9,16.4c1,0,1.6,0.4,1.6,1.1c0,0.7-0.4,1-1.1,1.1c-1.8,0-3.3,0.1-4.6,0.1c-1.5,1.4-2.2,2.4-2.2,2.9
		c0,1,0.5,1.5,1.6,1.5c0.7,0,1.5-0.1,2.3-0.4c-0.1-0.1-0.2-0.2-0.3-0.3c-0.3-0.6-0.5-1-0.5-1.4c0-0.6,0.4-1,1.2-1
		c0.3,0,0.5,0.1,0.7,0.3c0.7,0.6,1.6,1.6,2.7,3l-1.3,1.6c-0.4-0.3-0.7-0.6-1.1-0.8c-0.8,0.4-1.7,0.7-2.4,0.8c0,0.1,0,0.1,0,0.2
		c0,0.5,0,0.9,0,1.3h1.7c1.1,0,1.7,0.4,1.7,1.1c0,0.6-0.4,0.9-1,1h-2.4c0,0.6,0,1.2,0,1.8c0.8-0.1,1.6-0.2,2.3-0.3
		c0.3,0,0.6-0.1,0.8-0.1c0.8,0,1.2,0.4,1.3,1.1c0,0.6-0.4,1-1,1.1c-0.7,0.1-2.1,0.3-4.2,0.5c-1.6,0.2-3.2,0.3-5,0.3v-2.2
		c1.3-0.1,2.5-0.1,3.7-0.2c0-0.7-0.1-1.4-0.1-2c-1.5,0-2.6,0-3.1,0.1v-2.1c0.6,0,1.6,0,3-0.1c0-0.4,0-0.8,0-1.2c0-0.1,0-0.1,0-0.2
		c-0.7-0.1-1.4-0.3-2.1-0.8c-0.7-0.5-1-1.2-1-2c0-0.9,0.6-2,1.7-3.3c-0.7,0.1-1.4,0.1-2.1,0.1v-2.2
		C642.8,16.5,645.7,16.4,649.9,16.4z M652.7,18.1c0.7,0,1.1,0.4,1.1,1.2c0.1,0.3,0.2,1.7,0.4,4.2c0.2,2.8,0.3,4.7,0.3,5.5h-2.2
		c-0.1-2.6-0.1-4.6-0.3-5.9c-0.1-1.1-0.2-2.1-0.2-2.9c0-0.4-0.1-0.7-0.1-1C651.7,18.4,652,18.1,652.7,18.1z M656.4,15.3
		c0.6,0,0.9,0.3,0.9,1c0.5,4.4,0.8,8.8,0.8,13.1c0,2.3-1.1,3.5-3,3.5c-1.1,0-2-0.3-2.9-0.8l-0.1-2.1c0.9,0.4,1.7,0.6,2.5,0.6
		c0.9,0,1.4-0.7,1.4-2.2c0-1.1-0.2-5.1-0.7-12.2C655.3,15.7,655.7,15.3,656.4,15.3z"/>
	<path class="st2" d="M665.6,22.3c-0.5,0-1,0-1.4,0.1v-2.1c2-0.2,5.2-0.3,9.6-0.3c1,0,1.5,0.4,1.6,1c0,0.7-0.4,1-1.1,1.1
		c-1.7,0-3.2,0-4.5,0.1c-0.1,0.3-0.3,0.5-0.6,0.8c0.6,0.3,1.2,0.7,1.7,1.3c0.2,0.2,0.4,0.4,0.5,0.5c2.3-1.2,3.8-1.9,4.2-1.9
		c0.8,0,1.1,0.4,1.2,1.1c0,0.5-0.3,0.8-0.8,1.1c-1.5,0.7-2.7,1.3-3.5,1.7c0.1,0.3,0.2,0.5,0.2,0.8c0,0,0,0,0.1,0
		c1.7,0.8,3.5,1.3,5.4,1.5l-0.5,2.5c-1.9-0.2-3.5-0.7-4.9-1.3c-0.2,0.6-0.5,1.2-0.9,1.7c-0.7,0.8-1.5,1.2-2.4,1.2
		c-0.9,0-1.7-0.2-2.4-0.7l-0.1-0.8c-0.6,0.5-1.2,1.1-1.8,1.7l-1.6-1.3c1.2-1.3,2.5-2.5,3.7-3.4c0.4-0.3,0.7-0.4,1.1-0.4
		c0.6,0.1,0.9,0.4,0.9,0.9c0,0.3-0.2,0.6-0.4,1c-0.2,0.2-0.5,0.4-0.7,0.6c0.5,0.2,0.9,0.2,1.2,0.2c0.3,0,0.6-0.2,0.9-0.7
		c0.3-0.4,0.4-1,0.4-1.6c0-0.9-0.4-1.7-1.1-2.5c-0.6-0.7-1.5-1.2-2.7-1.4c-1.5,1-3.1,2.1-4.8,3.2l-1.3-1.6c1.6-1.2,3.2-2.4,4.7-3.6
		C665.5,22.4,665.6,22.4,665.6,22.3z M668.9,15.1c0.5,0,1.3,0.6,2.3,1.6c0.5,0,1.1,0,1.6-0.1h1.5c1.3,0,2.4,0.2,3.1,0.5
		c0.8,0.5,1.2,1.2,1.2,2.1c0,0.6-0.2,1.4-0.5,2.5c-0.1,0.5-0.6,0.8-1.4,0.8c-0.5,0-0.8-0.3-0.8-0.8c0.2-0.7,0.3-1.4,0.4-2.2
		c0-0.6-0.9-0.9-2.6-0.9c-3.5,0-6.9,0.3-10.2,0.7c0.1,0.9,0.3,1.8,0.4,2.8l-2.3,0.4c-0.3-2.5-0.5-4-0.5-4.4c0-0.7,0.3-1.1,0.9-1.1
		c0.5,0,0.8,0.1,1,0.4c1.5-0.2,3.2-0.4,4.9-0.5c-0.2-0.2-0.3-0.4-0.3-0.6C667.8,15.5,668.1,15.1,668.9,15.1z M666.2,25.9
		c0.6,0.1,0.9,0.4,0.9,0.9c0,0.3-0.2,0.7-0.5,1c-1.2,1-2.4,2.1-3.7,3.2l-1.6-1.3c1.2-1.3,2.5-2.4,3.7-3.4
		C665.4,26,665.8,25.9,666.2,25.9z"/>
</g>
<g>
	<path class="st1" d="M370.4,4.2c1.2,0,2.1,0.8,2.4,1.9l0.7,2h26c0.9,0,1.7,0.7,1.7,1.6c0,0.3-0.1,0.5-0.2,0.8
		c0,0-4.3,12.2-4.5,12.7c-0.6,1.2-1.9,2-3.4,2h-14.3c-3.1,0,2.6,0-6,0l-3.5-16c-0.2-0.6-0.8-1.1-1.6-1.1h-4.4c-1.1,0-2.1-0.9-2.1-2
		c0-1.1,0.9-2,2.1-2H370.4 M370.4,1.2h-7.1c-2.8,0-5.1,2.2-5.1,5c0,2.7,2.3,5,5.1,5h3.3l3.2,14.7l0.5,2.4h2.4c2.2,0,3.4,0,4.1,0
		l0.7,0c0.1,0,0.2,0,0.2,0c0.1,0,0.4,0,0.9,0h14.3c2.6,0,5-1.5,6.1-3.7c0.1-0.2,0.3-0.6,4.6-12.9c0.2-0.4,0.4-1.1,0.4-1.9
		c0-2.5-2.1-4.6-4.7-4.6h-23.9C374.9,2.8,372.8,1.2,370.4,1.2L370.4,1.2z"/>
</g>
<g>
	<path class="st1" d="M376.6,32.8c1.4,0,2.5,1.1,2.5,2.5c0,1.4-1.1,2.5-2.5,2.5c-1.4,0-2.5-1.1-2.5-2.5
		C374.1,34,375.2,32.8,376.6,32.8 M376.6,29.8c-3,0-5.5,2.5-5.5,5.5c0,3,2.5,5.5,5.5,5.5c3,0,5.5-2.5,5.5-5.5
		C382.1,32.3,379.6,29.8,376.6,29.8L376.6,29.8z"/>
</g>
<g>
	<path class="st1" d="M390.6,32.8c1.4,0,2.5,1.1,2.5,2.5c0,1.4-1.1,2.5-2.5,2.5s-2.5-1.1-2.5-2.5C388.1,34,389.2,32.8,390.6,32.8
		 M390.6,29.8c-3,0-5.5,2.5-5.5,5.5c0,3,2.5,5.5,5.5,5.5c3,0,5.5-2.5,5.5-5.5C396.1,32.3,393.6,29.8,390.6,29.8L390.6,29.8z"/>
</g>
<g>
	<path class="st1" d="M382.2,24.4l0.3-1.7c-1.2-0.1-2.3-0.4-2.9-0.8l0.9-2.1c0.7,0.4,1.7,0.8,2.8,0.8c1,0,1.8-0.4,1.9-1.1
		c0.1-0.7-0.4-1.1-1.6-1.5c-1.8-0.6-2.9-1.5-2.6-3.2c0.3-1.6,1.6-2.8,3.6-3.2l0.3-1.7h1.7l-0.3,1.6c1.2,0.1,1.9,0.3,2.5,0.6l-0.9,2
		c-0.4-0.2-1.2-0.6-2.4-0.6c-1.2,0-1.6,0.5-1.7,1c-0.1,0.6,0.5,1,1.9,1.5c2,0.7,2.7,1.7,2.4,3.3c-0.3,1.6-1.6,2.9-3.7,3.3l-0.3,1.8
		H382.2z"/>
</g>
<g>
	<path class="st1" d="M588.3,4.7c1.9,0,3.4,1.6,3.4,3.6v20.5c0,2-1.5,3.6-3.4,3.6h-0.9c-0.2,3.5-3,6.2-6.4,6.2
		c-3.4,0-6.2-2.8-6.4-6.2h-4.2c-0.2,3.5-3,6.2-6.4,6.2c-3.4,0-6.2-2.8-6.4-6.2h-3c-1.2,0-2.1-1-2.1-2.2c0-1.1,0.7-2,1.7-2.2v-7.2
		c0-1.2,0.5-2.4,1.3-3.2l4.3-4.5c0.7-0.8,1.8-1.2,2.9-1.2h5.2V8.2c0-2,1.5-3.6,3.4-3.6H588.3 M558.5,21.4h9.4v-5.1h-4.7
		c-0.8,0-1.3,0.4-1.9,1l-1.8,1.9c-0.6,0.7-1,1.1-1,2V21.4 M581.1,34.1c1.2,0,2.1-1,2.1-2.2c0-1.2-1-2.2-2.1-2.2
		c-1.2,0-2.1,1-2.1,2.2C578.9,33.1,579.9,34.1,581.1,34.1 M564.1,34.1c1.2,0,2.1-1,2.1-2.2c0-1.2-1-2.2-2.1-2.2
		c-1.2,0-2.1,1-2.1,2.2C562,33.1,562.9,34.1,564.1,34.1 M588.3,1.7h-17c-3.5,0-6.4,2.9-6.4,6.6v0.6h-2.2c-1.9,0-3.7,0.8-5,2.1
		l-4.3,4.5c-1.3,1.4-2.1,3.2-2.1,5.2v5.5c-1.1,1-1.7,2.4-1.7,3.9c0,2.9,2.3,5.2,5.1,5.2h0.6c1.4,3.7,4.8,6.2,8.8,6.2
		c3.7,0,7-2.3,8.5-5.5c1.5,3.3,4.8,5.5,8.5,5.5c4.1,0,7.6-2.7,8.9-6.4c2.8-0.7,4.8-3.3,4.8-6.4V8.2C594.7,4.6,591.9,1.7,588.3,1.7
		L588.3,1.7z"/>
</g>
</svg>
