<?xml version="1.0" encoding="utf-8"?>
<!-- Generator: Adobe Illustrator 26.5.0, SVG Export Plug-In . SVG Version: 6.00 Build 0)  -->
<svg version="1.1" id="圖層_1" xmlns="http://www.w3.org/2000/svg" xmlns:xlink="http://www.w3.org/1999/xlink" x="0px" y="0px"
	 viewBox="0 0 39.1 39.3" style="enable-background:new 0 0 39.1 39.3;" xml:space="preserve">
<style type="text/css">
	.st0{fill:none;}
	.st1{fill-rule:evenodd;clip-rule:evenodd;}
</style>
<g>
	<g>
		<path class="st0" d="M19.1,28v-0.5H9.7v-3h9.5v-5H9.7v-3h9.5V5.3h-7C11,6.5,7.5,9.9,5.1,12.4c-0.9,0.9-1.6,1.6-2.1,2v18.4
			c0,1.9,1.6,3.5,3.5,3.5h20c1.9,0,3.5-1.6,3.5-3.5V32h-6.9C20.9,32,19.1,30.2,19.1,28z"/>
		<path class="st0" d="M35.1,3h-12c-0.6,0-1,0.4-1,1v24c0,0.6,0.4,1,1,1H30v0h3v0h2.1c0.6,0,1-0.4,1-1V4C36.1,3.4,35.7,3,35.1,3z"/>
		<path d="M35.1,0h-12c-1.6,0-3,0.9-3.6,2.3h-7.4c-0.8,0-1.6,0.3-2.1,0.9c-1.2,1.2-4.7,4.7-7.1,7.1C0,13.2,0,13.2,0,13.8v19
			c0,3.6,2.9,6.5,6.5,6.5h20c3.6,0,6.5-2.9,6.5-6.5V32h2.1c2.2,0,4-1.8,4-4V4C39.1,1.8,37.3,0,35.1,0z M30,32.8
			c0,1.9-1.6,3.5-3.5,3.5h-20c-1.9,0-3.5-1.6-3.5-3.5V14.4c0.4-0.4,1.2-1.2,2.1-2c2.4-2.4,5.9-5.9,7.1-7.1h7v11.2H9.7v3h9.5v5H9.7v3
			h9.5V28c0,2.2,1.8,4,4,4H30V32.8z M36.1,28c0,0.6-0.4,1-1,1H33v0h-3v0h-6.9c-0.6,0-1-0.4-1-1V4c0-0.6,0.4-1,1-1h12
			c0.6,0,1,0.4,1,1V28z"/>
	</g>
	<g>
		<path class="st1" d="M25,5.7h5.1c0.2,0,0.4,0.4,0.4,1c0,0.6-0.2,1-0.4,1H25c-0.2,0-0.4-0.4-0.4-1C24.5,6.2,24.7,5.7,25,5.7z"/>
		<path class="st1" d="M32.7,5.7c0.6,0,1,0.4,1,1c0,0.6-0.4,1-1,1c-0.6,0-1-0.4-1-1C31.7,6.2,32.2,5.7,32.7,5.7z"/>
	</g>
</g>
</svg>
