<?xml version="1.0" standalone="no"?>
<!DOCTYPE svg PUBLIC "-//W3C//DTD SVG 1.1//EN" "http://www.w3.org/Graphics/SVG/1.1/DTD/svg11.dtd" >
<svg xmlns="http://www.w3.org/2000/svg">
<metadata>Generated by IcoMoon</metadata>
<defs>
<font id="icomoon" horiz-adv-x="1024">
<font-face units-per-em="1024" ascent="960" descent="-64" />
<missing-glyph horiz-adv-x="1024" />
<glyph unicode="&#x20;" horiz-adv-x="512" d="" />
<glyph unicode="&#xe900;" glyph-name="friday_logo" horiz-adv-x="6491" d="M2857.227 949.348c-15.306 15.306-34.808 23.452-56.409 23.452-21.724 0-41.227-8.147-56.532-23.452s-23.329-34.808-23.329-56.409c0-21.601 8.023-41.103 23.329-56.409s34.808-23.329 56.532-23.329c21.601 0 41.103 8.023 56.285 23.329 15.306 15.306 23.452 34.808 23.452 56.532 0 21.601-8.023 41.103-23.329 56.285zM2872.162 229.61v508.667h-142.195v-509.038c0-17.281 7.159-32.833 20.613-45.053 13.701-12.22 30.982-18.762 50.361-18.762 19.256 0 36.66 6.542 50.361 18.885 13.331 12.22 20.366 27.526 20.86 45.3zM3582.395 685.201l-22.095 70.604c-9.381 29.871-27.279 45.053-53.323 45.053-9.257 0-19.749-1.975-30.982-5.925l-619.88-215.391c-21.848-7.653-36.166-18.515-42.708-32.586-6.295-13.454-5.678-30.241 1.975-49.99l26.538-68.999c55.175-144.17 150.095-207.244 219.958-234.77 47.151-18.392 99.857-28.266 152.316-28.266v0c44.066 0 87.884 7.036 126.272 20.49 201.443 69.986 307.718 289.574 241.929 499.78zM3210.492 299.597c-33.203 0-66.407 6.172-95.784 17.404-47.151 18.392-110.102 59.742-142.442 152.563l-3.086 8.887 478.92 166.388 3.086-8.887c6.542-19.132 20.12-84.058 2.469-154.662-20.613-82.083-73.936-138.615-158.735-167.992-25.921-9.011-55.051-13.701-84.428-13.701zM2247.591 859.365c11.356 14.812 14.689 33.574 9.998 55.792-5.308 25.427-27.155 55.175-71.097 55.175-157.13 0-243.286-80.602-249.211-232.795l-0.741-17.281-22.341-1.234c-15.059-1.358-28.883-8.393-39.992-20.366-12.59-13.578-19.256-30.982-19.256-50.237 0-19.502 6.665-37.153 19.132-50.731 11.232-11.973 24.687-18.762 39.992-20.243l22.712-1.481v-405.107h141.701v405.23h100.968c16.91 0 32.339 7.159 44.559 20.613 12.22 13.578 18.638 31.105 18.638 50.731 0 19.379-6.419 36.66-18.762 50.237-12.096 13.578-27.526 20.613-44.436 20.613h-101.462v20.366c0 53.2 16.417 84.798 99.981 89.489 30.365 1.728 55.668 13.084 69.616 31.229zM4585.041 740.005c-9.751 4.073-21.971 6.419-33.203 6.419-19.256 0-44.683-6.419-57.273-37.4l-116.521-275.749-113.929 275.379c-14.071 34.561-48.015 38.388-61.84 38.388-10.368 0-20.737-1.975-29.5-5.554-11.603-4.814-32.093-19.996-41.103-42.338-6.048-14.812-5.678-29.871 0.741-44.806l167.499-407.452-125.284-297.473 154.168-0.617 295.869 702.457c6.419 14.318 6.419 33.203 0.123 49.373-4.69 12.22-15.553 29.007-39.745 39.375zM3840.617 745.066c-78.38 0-146.268-28.143-201.689-83.564s-83.564-123.31-83.564-201.689c0-78.38 28.143-146.268 83.564-201.813 55.545-55.421 123.31-83.564 201.689-83.564 69.986 0 112.201 22.712 131.209 36.289l10.368 7.406 1.975-47.151h141.701v288.833c0 78.38-28.266 146.268-83.811 201.936-55.915 55.298-123.803 83.317-201.443 83.317zM3972.69 404.885c-7.529-17.527-17.651-32.463-30.858-45.794-12.714-12.837-28.019-23.329-45.547-30.982-17.404-7.653-35.672-11.356-55.668-11.356-20.366 0-38.635 3.703-56.039 11.356s-32.71 17.898-45.423 30.858c-12.714 12.837-22.959 28.143-30.488 45.547-7.529 17.527-11.109 35.549-11.109 55.298 0 19.626 3.703 37.77 11.109 55.175 7.653 17.527 17.774 32.957 30.611 45.794 12.714 12.837 27.649 22.959 45.3 30.858 17.404 7.653 35.796 11.232 56.039 11.232 19.873 0 38.141-3.58 55.545-11.232 17.651-7.653 32.957-18.145 45.67-30.982 13.207-13.207 23.205-28.266 30.858-45.794 7.529-17.404 11.109-35.302 11.109-54.928-0.123-19.749-3.703-37.77-11.109-55.051zM2686.766 684.831c-5.184 36.536-36.413 58.507-83.564 58.507h-12.22c-84.922 0-141.701-51.842-142.195-52.212l-11.479-10.739-0.123 57.643h-141.824l0.247-509.408c0-17.034 7.159-32.339 20.613-44.559 13.578-12.22 31.105-18.762 50.731-18.762 19.379 0 36.783 6.419 50.484 18.762 13.454 12.096 20.366 27.526 20.366 44.436v227.24c0 84.675 93.315 131.95 136.023 140.467 7.159 1.481 16.417 2.098 26.168 2.716 8.147 0.37 16.417 0.987 23.452 2.098 28.39 4.197 70.851 30.735 63.321 83.811zM4904.609 340.329c-8.64-48.262-25.921-103.437-51.718-167.128l-63.815 22.341c25.921 66.407 43.078 120.717 49.99 162.932l65.543-18.145zM5017.427 384.395h-198.233c-6.048 0-9.504 3.456-9.504 9.504v541.994c0 6.048 3.456 9.504 9.504 9.504h198.233c6.912 0 10.368-3.456 10.368-9.504v-542.118c0-6.048-3.456-9.381-10.368-9.381zM4961.389 780.738v95.661l-3.456 2.592h-79.244l-2.592-2.592v-95.661h85.292zM4961.389 615.338v98.253h-85.292v-98.253h85.292zM4876.096 548.931v-94.797l2.592-3.456h79.244c2.592 0 3.456 0.864 3.456 3.456v94.797h-85.292zM4992.494 353.29c19.009-36.166 35.302-80.108 49.99-135.283l-61.223-19.873c-15.553 56.039-32.71 100.845-48.262 131.826l59.495 23.329zM5162.214 175.793h-66.407v117.138h-45.67v59.495h45.67v224.154c0 10.368 5.184 15.553 15.553 15.553h176.633v48.262h-227.487v59.495h126.642v48.262h-96.525v59.495h96.525v44.683h-119.853v59.371h119.853v55.175h66.407v-55.175h142.195v58.631h66.407v-58.631h114.669v-59.495h-114.669v-44.806h97.389v-59.495h-97.389v-48.262h127.506v-59.495h-235.263v-48.262h179.225c11.232 0 16.417-5.184 16.417-15.553v-224.031h39.622v-59.495h-39.622v-45.67c0-26.662-10.368-46.534-31.846-61.223-26.662-17.281-74.060-19.873-143.059-7.776l-2.592 73.196c49.99-12.96 80.972-15.553 93.068-6.912 12.096 6.912 17.281 17.281 17.281 30.118v18.145h-320.555v-116.891zM5288.116 532.515h-120.594c-3.456 0-5.184-1.728-5.184-5.184v-56.903h125.778v62.087zM5288.116 352.426v58.631h-125.778v-58.631h125.778zM5395.749 852.329h-142.195v-44.806h142.195v44.806zM5395.749 699.766v48.262h-142.195v-48.262h142.195zM5354.399 470.551h128.37v56.903c0 3.456-1.728 5.184-5.184 5.184h-123.186v-62.087zM5482.893 352.426v58.631h-128.37v-58.631h128.37zM5848.748 737.66h-56.903c-10.368-73.196-19.873-124.914-28.39-151.699l-71.468 10.368c26.662 87.884 41.35 187.865 41.35 299.078v44.806h69.863v-44.806l-4.32-84.428h49.99v159.352h73.196v-159.475h74.060v-73.196h-74.060v-208.602l67.271 40.486 41.35-59.495c-30.982-20.737-67.271-41.35-108.621-61.223v-276.613h-73.196v242.299l-114.669-48.262-39.622 66.407c62.951 22.465 114.669 42.214 154.291 60.359v244.644zM6244.351 794.563l-13.824-100.845c-25.057-115.533-96.525-233.535-210.33-351.661l-63.815 39.622c81.836 81.836 139.603 156.883 171.448 222.303 19.873 44.806 36.166 108.621 44.806 190.457h-61.223c-25.057-74.060-53.446-134.419-84.428-180.089l-70.604 27.526c66.407 101.709 106.893 210.33 120.594 324.876l72.332-9.504-17.281-88.748h330.924l14.689-3.456c8.64-4.32 12.96-17.281 12.96-38.758l-4.32-335.244c-4.32-162.932-34.438-262.789-88.748-299.942-31.846-23.329-95.661-21.601-189.593 4.32l-2.592 85.292c78.38-26.662 129.234-32.71 149.971-17.281 14.689 11.232 28.39 32.71 39.622 65.543 11.232 34.438 17.281 93.068 19.009 172.312 6.048 182.681 6.048 279.205 0 286.982-1.728 4.32-5.184 6.048-9.504 6.048h-35.302c-1.728-114.669-28.39-230.079-77.516-347.34-48.262-97.389-119.853-180.953-212.798-248.224l-57.767 53.446c175.769 102.573 267.973 283.526 274.885 542.118h-51.595zM107.016 511.531c0 6.789-3.456 10.245-9.381 10.245h-82.206v72.702h145.527c12.837 0 18.885-6.048 18.885-18.762v-202.060c3.456-18.021 11.973-35.919 28.266-55.668 18.021-27.402 47.892-46.287 87.267-54.804 44.559-11.109 209.713-9.381 492.127 6.048l-18.885-81.342-406.588-1.728c-106.152 6.048-176.262 41.967-210.577 105.288-5.184-17.157-19.749-39.375-41.967-63.321-23.082-22.959-46.164-40.98-70.11-52.089l-39.375 64.185c44.559 21.354 74.43 41.967 88.131 63.321 8.517 14.565 14.565 29.994 18.885 48.756v159.229zM42.831 796.661c41.103-20.49 87.267-52.212 137.751-95.043l-44.559-59.865c-53.076 43.695-96.771 74.43-132.69 94.179l39.499 60.729zM65.049 954.162c41.103-19.749 85.539-48.756 135.283-88.131l-42.831-59.865c-51.348 40.116-95.043 68.258-130.962 84.552l38.511 63.445zM374.002 417.475c-47.892-28.266-91.587-48.756-130.962-59.865l-35.919 65.913c71.838 21.354 139.479 54.804 202.8 98.376h-151.452c-5.184 0-7.653 3.456-7.653 9.381v158.365c0 6.048 2.592 8.517 7.653 8.517h466.453c6.048 0 9.381-2.592 9.381-8.517v-158.365c0-6.048-3.456-9.381-9.381-9.381h-211.317l-70.233-58.26v-189.099h-65.913v144.54l-3.456-1.605zM452.752 851.342h-210.453v62.457h210.577v56.532h69.369v-56.532h212.305v-62.457h-212.428v-46.287h245.632v-65.913h-551.992v65.913h237.115v46.287zM319.321 639.037c-2.592 0-3.456-0.864-2.592-2.592v-52.212l2.592-3.456h345.736l3.456 3.456v52.212l-3.456 2.592h-345.736zM689.867 514.123l43.695-51.348c-21.354-22.218-48.756-44.559-79.614-68.505l83.070-64.185-41.967-56.532c-85.539 70.233-159.229 120.717-219.094 151.452l38.511 59.124c25.674-13.701 53.94-29.13 81.342-48.756 40.116 29.13 71.838 56.532 94.056 78.75zM961.79 570.655l-70.233 26.538c73.566 113.805 117.261 237.115 128.37 368.941l72.702-7.776c-11.109-70.974-23.946-134.419-40.239-188.235v-599.144h-69.369v434.731l-21.23-35.055zM1097.072 330.949v65.913h414.241v50.484l-405.724-19.626-7.653 66.777 246.496 9.381v47.892h-210.577c-11.109 0-16.293 6.048-16.293 17.157v229.338c0 11.109 5.184 17.157 16.293 17.157h210.577v43.695h-226.87v65.913h226.87v41.967h69.369v-41.967h252.544v-65.913h-252.544v-43.695h223.414c11.973 0 17.157-6.048 17.157-17.157v-229.338c0-11.109-5.184-17.157-17.157-17.157h-7.653l65.913-96.648-53.94-36.783-23.946 35.055-35.919-2.592v-53.94h95.043v-65.913h-95.043v-75.294c0-31.722-13.701-54.804-36.783-70.233-24.81-14.565-71.838-14.565-141.207 0.864v72.702c53.94-14.565 88.131-18.021 100.968-8.517 5.184 4.32 6.912 11.973 6.912 23.082v57.396h-414.488zM1344.432 755.558h-155.772c-1.728 0-2.592-0.864-1.728-3.456v-39.375h157.5v42.831zM1344.432 657.058h-157.5v-41.967c-0.864-2.592 0-3.456 1.728-4.32h155.772v46.287zM1265.682 322.432c31.722-28.266 60.729-56.532 83.934-84.675l-53.94-42.831c-28.266 31.722-55.668 59.124-80.478 81.342l50.484 46.164zM1413.801 712.727h171.202v39.375c0 2.592-0.864 3.456-3.456 3.456h-167.745v-42.831zM1413.801 610.895h167.745l3.456 4.32v41.967h-171.202v-46.287zM1579.819 551.77h-166.017v-45.3l161.821 7.653-15.429 22.218 19.626 15.429z" />
<glyph unicode="&#xe901;" glyph-name="icon_account" horiz-adv-x="905" d="M453.087 459.946c138.886 0 251.589 114.979 251.589 256.712 0 141.163-112.703 256.142-251.589 256.142s-251.589-114.979-251.589-256.712c0-141.163 112.133-256.142 251.589-256.142zM452.518 333.013c-223.698 0-452.518-117.256-452.518-335.262v-48.952h905.036v48.952c0 218.006-228.251 335.262-452.518 335.262z" />
<glyph unicode="&#xe902;" glyph-name="icon_allcate" horiz-adv-x="1536" d="M0 972.8h1536v-170.667h-1536v170.667zM0 546.133h1536v-170.667h-1536v170.667zM0 119.467h1536v-170.667h-1536v170.667z" />
<glyph unicode="&#xe903;" glyph-name="icon_cart_arrow" horiz-adv-x="931" d="M372.279 972.8v-701.853l-372.279 336.073v-237.665l466.045-419.626 466.045 419.626v237.665l-373.208-336.073v701.853h-186.604z" />
<glyph unicode="&#xe904;" glyph-name="icon_cart" horiz-adv-x="1078" d="M914.414 972.8l-51.739-213.782h-862.675l124.317-565.895h668.295l183.242 698.835h102.041v80.842h-163.481zM730.453 273.965h-541.103l-88.747 404.211h737.999l-108.149-404.211zM277.738 110.484c-44.553 0-80.842-36.289-80.842-80.842s36.289-80.842 80.842-80.842 80.842 36.289 80.842 80.842c0.359 44.553-36.289 80.842-80.842 80.842zM653.564 110.484c-44.553 0-80.842-36.289-80.842-80.842s36.289-80.842 80.842-80.842 80.842 36.289 80.842 80.842c0 44.553-36.289 80.842-80.842 80.842z" />
<glyph unicode="&#xe905;" glyph-name="icon_check" horiz-adv-x="1238" d="M1192.791 939.042c-56.264 45.011-135.033 45.011-180.044-22.505l-483.868-618.901-303.824 326.33c-56.264 56.264-135.033 56.264-180.044 0s-45.011-135.033 0-191.297l393.846-416.352c0-11.253 11.253-22.505 22.505-33.758 56.264-45.011 135.033-33.758 180.044 11.253 0 0 0 11.253 11.253 11.253l562.637 742.681c45.011 56.264 33.758 146.286-22.505 191.297z" />
<glyph unicode="&#xe906;" glyph-name="icon_arrow" horiz-adv-x="570" d="M0-51.2l378.88 512-378.88 512h190.009l378.88-512-378.88-512h-190.009z" />
<glyph unicode="&#xe907;" glyph-name="icon_refresh" horiz-adv-x="1023" d="M722.991 127.134c-164.135-92.007-374.842-36.348-469.688 123.811l134.034 75.536-319.184 102.798-68.153-320.319 134.034 75.536c133.466-224.337 428.796-302.145 657.677-173.79 111.317 62.474 190.829 163.567 223.201 285.107l-132.899 34.644c-22.718-86.327-79.512-158.456-159.024-203.323zM299.874 794.466c164.135 92.007 374.842 36.348 469.688-123.811l-134.034-75.536 319.184-102.23 68.153 320.319-134.034-75.536c-133.466 223.769-428.796 301.577-658.245 173.222-111.317-62.474-190.829-163.567-223.201-285.107l132.899-34.644c23.286 86.327 80.080 159.024 159.592 203.323z" />
<glyph unicode="&#xe908;" glyph-name="icon_same" horiz-adv-x="2217" d="M2212.355 395.8l-183.485 183.485c32.403 41.382 51.922 93.304 51.922 149.911 0 134.685-109.31 243.605-243.605 243.605-135.076 0-244.386-108.92-244.386-243.605s109.31-243.605 243.605-243.605c55.826 0 106.968 19.129 147.959 50.361l183.875-183.875c3.514-3.514 8.198-5.075 12.493-5.075 4.685 0 8.979 1.562 12.493 5.075l18.348 18.348c3.514 3.514 5.075 7.808 5.075 12.493 0.781 5.075-1.171 9.76-4.294 12.883zM1646.286 729.195c0 105.016 85.496 190.121 190.121 190.121 105.016 0 190.121-85.496 190.121-190.121 0-105.016-85.496-190.121-190.121-190.121s-190.121 85.106-190.121 190.121zM800.305 886.133c310.753 0 575.048-160.061 713.638-429.822-138.589-269.761-402.495-429.822-713.638-429.822-310.753 0-575.048 160.061-713.638 429.822 138.589 269.761 402.885 429.822 713.638 429.822zM800.305 964.211c-365.798 0-659.373-202.223-800.305-507.901 140.932-305.287 434.117-507.901 800.305-507.901s659.373 202.223 800.305 507.901c-140.932 305.677-434.117 507.901-800.305 507.901v0zM800.305 680.396c124.145 0 225.257-100.721 225.257-224.085 0-123.754-101.112-224.085-225.257-224.085s-225.257 100.721-225.257 224.085c0 123.754 101.112 224.085 225.257 224.085zM800.305 758.474c-167.478 0-303.335-135.466-303.335-302.164 0-167.088 135.857-302.164 303.335-302.164s303.335 135.466 303.335 302.164c0 167.088-135.857 302.164-303.335 302.164v0z" />
<glyph unicode="&#xe909;" glyph-name="icon_track_plus" horiz-adv-x="1311" d="M968.55 972.8c-162.707 0-318.938-115.757-318.938-115.757-74.473 64.759-194.277 110.9-312.462 110.9-76.901 0-152.993-19.428-216.538-65.568-161.088-117.375-114.542-355.364-114.542-355.364 35.617-240.013 396.648-496.62 643.542-598.21 339.984 154.207 450.479 284.534 482.049 321.366 6.476 7.69 212.085 234.751 174.849 437.123-15.785 87.020-110.9 233.942-289.796 261.869-15.38 2.428-31.975 3.643-48.164 3.643v0z" />
<glyph unicode="&#xe90a;" glyph-name="icon_track" horiz-adv-x="1952" d="M934.21 857.244c12.102 0 23.814-0.781 34.745-2.733 138.199-21.862 204.956-138.589 213.935-188.56 22.252-121.022-83.544-279.912-149.52-354.477l-1.952-2.342c-80.030-93.304-216.278-185.437-405.618-274.056-219.401 98.769-513.757 316.218-541.475 502.435l-0.39 1.952-0.39 1.562c-0.39 1.171-32.403 181.923 79.64 263.515 54.655 39.82 118.289 48.018 162.013 48.018 90.571 0 188.56-34.355 249.851-87.838l48.018-41.772 51.141 37.868c1.171 1.171 133.124 96.427 260.002 96.427zM934.21 936.493c-156.938 0-307.629-111.652-307.629-111.652-71.832 62.463-187.388 106.968-301.383 106.968-74.175 0-147.568-18.739-208.86-63.244-155.376-113.214-110.481-342.765-110.481-342.765 34.355-231.503 382.585-479.012 620.724-577 327.93 148.74 434.507 274.446 464.958 309.972 6.246 7.417 204.566 226.428 168.65 421.624-15.225 83.934-106.968 225.647-279.521 252.584-14.835 2.342-30.841 3.514-46.457 3.514v0zM1951.963 735.832h-236.968v236.968h-78.859v-236.968h-236.968v-78.859h236.968v-236.968h78.859v236.968h236.968z" />
<glyph unicode="&#xe90b;" glyph-name="icon_search" horiz-adv-x="1022" d="M1013.494 28.759l-300.459 300.313c52.907 67.557 84.686 152.506 84.686 245.013 0 220.179-178.565 398.715-398.832 398.715-220.296 0-398.89-178.536-398.89-398.715 0-220.15 178.594-398.686 398.89-398.686 91.282 0 175.122 31.021 242.387 82.585l300.867-300.663c5.661-5.691 13.132-8.55 20.632-8.55 7.471 0 14.941 2.86 20.603 8.55l30.145 30.058c5.486 5.486 8.55 12.869 8.55 20.632 0 7.792-3.093 15.233-8.58 20.748zM87.546 574.085c0 171.591 139.666 311.169 311.344 311.169 171.649 0 311.285-139.578 311.285-311.169 0-171.532-139.636-311.14-311.285-311.14-171.678 0.029-311.344 139.607-311.344 311.14z" />
<glyph unicode="&#xe90c;" glyph-name="icon_share1" horiz-adv-x="748" d="M748.308-51.2v669.538h-245.681v-35.604h210.078v-598.331h-677.061v598.331h209.999v35.604h-245.642v-669.538zM354.462 303.537h39.385v-1.89h-39.385v1.89zM374.233 972.8l-0.079-0.079-0.039 0.079-183.414-183.414 27.845-27.845 135.916 135.916v-593.92h39.385v593.92l135.877-135.916 27.845 27.845z" />
<glyph unicode="&#xe90d;" glyph-name="icon_share2" horiz-adv-x="834" d="M499.636 835.66l-2.389 137.14 260.665-239.502-252.207-249.628-2.238 127.204c-419.612 45.473-418.361-244.888-418.361-244.888-79.834 526.564 414.53 469.675 414.53 469.675zM118.215 307.693c-26.359-64.019-57.913-111.995-94.663-144.005l-23.552 16.46c41.794 38.533 72.439 84.461 92.008 137.785l26.207-10.24zM178.669 127.697c-13.047-64.019-58.216-122.235-135.547-174.649l-21.352 19.57c88.595 51.845 133.765 118.215 135.547 199.111h-80.441v26.207h266.657c2.086-0.303 3.717-0.607 4.892-0.872 2.086-1.176 3.262-2.807 3.565-4.892 0-0.607 0.152-1.024 0.455-1.327-0.607-114.65-6.22-181.931-16.877-201.766-8.002-14.829-19.115-24.576-33.337-29.317-31.403-12.136-77.786-8.875-139.112 9.785l1.783 29.317c59.847-18.356 101.338-22.945 124.435-13.767 7.396 2.655 13.919 8.609 19.57 17.787 5.613 9.481 9.785 25.79 12.44 48.887 4.741 72.287 5.613 111.995 2.655 119.125-0.607 0.607-1.479 0.872-2.655 0.872h-136.457c-1.176-13.426-3.262-28.065-6.22-44.070zM302.232 357.907c5.348 0 9.026-2.655 11.112-8.002 30.53-75.852 68.456-133.765 113.778-173.777l-24.007-16.005c-37.319 35.84-72.439 91.553-105.32 167.102-1.176 2.958-3.717 4.437-7.547 4.437h-170.667v26.207h182.651zM618.799 363.255h26.207v-25.79h189.364v-24.462h-407.552v24.462h192.019v25.79zM713.918 141.464h-247.543v26.207h314.216l8.875-29.772-136.875-47.559c2.958-5.613 5.765-11.567 8.457-17.787h166.229v-24.462h-156.9c1.783-5.916 3.11-11.567 3.982-16.877 2.389-18.091 1.783-32.427-1.783-43.122-3.262-11.264-10.657-21.352-22.225-30.227-9.481-7.699-23.704-10.505-42.667-8.457-19.57 2.655-45.928 11.719-79.113 27.117l2.655 29.772c35.84-15.701 61.023-24.576 75.548-26.662 13.35-1.783 22.225-0.759 26.662 3.11 3.565 4.134 6.675 8.154 9.33 11.985 4.741 11.567 5.348 29.317 1.783 53.324h-210.679v24.462h201.349c-5.348 10.961-13.767 24.159-25.335 39.557l19.987 13.35c2.389-3.262 4.589-6.372 6.675-9.33l77.369 25.372zM481.925 193.915c-2.389 0-3.565 1.327-3.565 3.982v86.206c0.303 2.389 1.479 3.565 3.565 3.565h301.321c2.655-0.303 3.982-1.479 3.982-3.565v-86.206c0-2.655-1.327-3.982-3.982-3.982h-301.321zM505.477 263.244c-0.607-0.303-0.872-0.607-0.872-0.872v-42.667c0.303-0.872 0.607-1.327 0.872-1.327h253.345c1.479 0.303 2.238 1.024 2.238 2.238v41.794c-0.303 0.872-1.024 1.176-2.238 0.872h-253.345z" />
<glyph unicode="&#xe90e;" d="M512 972.8c282.744 0 512-229.256 512-512s-229.256-512-512-512-512 229.256-512 512 229.256 512 512 512z" />
<glyph unicode="&#xe90f;" d="M270.938 551.093h-60.296v-60.235h60.296v-301.176h60.235v481.882h-60.235z" />
<glyph unicode="&#xe910;" d="M813.297 731.799h-0.12v0.181h-481.882v-60.235h60.175v-482.063h0.060v-0.060l421.768 0.060v542.118zM451.704 551.213h120.531v-60.296l-60.235-0.060v-180.706h180.766v180.706h-0.060v0.060h-60.235v60.296h120.591v-301.357h-301.357v301.357zM632.531 370.387h-60.296v60.296h60.296v-60.296zM632.471 611.448v60.296h120.591v-60.296h-120.591zM572.235 671.744v-60.296h-120.531v60.296h120.531z" />
<glyph unicode="&#xe911;" glyph-name="icon_del" d="M512 972.8c-282.624 0-512-229.376-512-512s229.376-512 512-512c282.624 0 512 229.376 512 512s-229.376 512-512 512zM512 39.424c-232.448 0-421.888 188.928-421.888 421.376s188.928 421.376 421.888 421.376 421.888-188.928 421.888-421.376c0-232.448-189.44-421.376-421.888-421.376zM743.936 665.088l-27.136 27.136c-12.8 12.288-32.768 12.288-45.568 0l-159.232-158.72-159.232 158.72c-12.8 12.288-32.768 12.288-45.568 0l-27.136-27.136c-12.288-12.288-12.288-32.768 0-45.568l159.232-158.72-159.232-158.72c-12.288-12.288-12.288-32.768 0-45.568l27.136-27.136c12.8-12.288 32.768-12.288 45.568 0l159.232 158.72 159.232-159.232c12.288-12.288 32.768-12.288 45.568 0l27.136 27.136c12.8 12.288 12.8 32.768 0 45.568l-159.232 159.232 159.232 159.232c12.288 12.288 12.288 32.768 0 45.056z" />
<glyph unicode="&#xe912;" glyph-name="icon_ab" d="M1024 533.943h-438.857v438.857h-146.286v-438.857h-438.857v-146.286h438.857v-438.857h146.286v438.857h438.857z" />
<glyph unicode="&#xe913;" glyph-name="icon_minus" d="M0 546.133h1024v-170.667h-1024v170.667z" />
<glyph unicode="&#xe914;" glyph-name="icon_more" d="M0 745.244l512-378.88 512 378.88v-190.009l-512-380.018-512 380.018v190.009z" />
<glyph unicode="&#xe915;" glyph-name="icon_plus" d="M1024 546.133h-426.667v426.667h-170.667v-426.667h-426.667v-170.667h426.667v-426.667h170.667v426.667h426.667z" />
<glyph unicode="&#xe916;" glyph-name="icon_star" d="M512 940.8l158.080-316.16 353.92-50.56-256-245.76 60.8-347.52-316.8 164.48-316.16-164.48 60.16 347.52-256 245.76 353.92 50.56 158.080 316.16z" />
<glyph unicode="&#xe917;" glyph-name="icon_swiper_next" horiz-adv-x="628" d="M628.364 460.8v0l-512-512-48.873 48.873 463.127 463.127-463.127 463.127 48.873 48.873 512-512z" />
<glyph unicode="&#xe918;" glyph-name="icon_swiper_prev" horiz-adv-x="628" d="M0 460.8l512 512 48.873-48.873-463.127-463.127 463.127-463.127-48.873-48.873-512 512z" />
<glyph unicode="&#xe919;" horiz-adv-x="15360" d="M2274.793 392.415l-76.296-107.436c-76.73 79.222-138.612 160.865-185.647 244.747v-180.553h33.054l35.619 31.79 59.751-53.068v-27.022h-128.424v-123.331l-109.965-19.074v142.405h-101.078v42.050c-27.13-28.467-61.015-60.473-101.728-96.093l-43.242 43.892c80.125 92.986 143.705 194.1 190.74 303.27h-190.74v47.035h246.048v136.047l109.965-20.338v-115.708h162.743l37.534 34.969 61.665-54.693v-27.311h-236.511c64.411-68.24 143.236-135.433 236.511-201.578zM1902.85 349.21v125.245c-28.828-44.94-61.015-86.7-96.634-125.245h96.634z" />
<glyph unicode="&#xe91a;" horiz-adv-x="15360" d="M2990.899 694.421h-237.775c-13.98-17.593-31.79-34.969-53.429-52.128h130.339l41.977 41.977 98.549-64.844-29.261-33.705v-282.281l-91.541-19.038c51.731-17.376 92.191-33.307 121.416-47.685l-79.475-77.56c-32.657 24.168-94.539 62.135-185.647 113.794l34.969 43.856c24.999-5.925 55.524-15.028 91.541-27.311v30.49h-289.253v-26.046l-108.736-19.074v410.019l108.736-42.591h60.401c10.151 16.726 18.424 34.102 24.782 52.128h-255.585v48.335h518.791l37.534 34.319 61.665-54.946v-27.708zM2681.922 244.917c-67.807-36.017-156.602-64.628-266.386-85.833l-33.705 45.12c96.201 38.184 169.101 76.079 218.701 113.794l81.39-73.081zM2832.599 553.28v41.977h-289.253v-41.977h289.253zM2832.599 460.475v47.035h-289.253v-47.035h289.253zM2832.599 366.983v47.721h-289.253v-47.721h289.253z" />
<glyph unicode="&#xe91b;" horiz-adv-x="15360" d="M3707.042 534.784l-26.082-24.204v-275.815c0-46.637-21.603-69.938-64.844-69.938h-55.307c0 0.434 0 0.831 0 1.264 0 31.32-22.253 48.733-66.759 52.092l0.65 24.818-41.327-11.416v22.217h-102.992v-18.424l-89.626-16.545v149.666c-5.527-2.998-11.668-5.527-18.46-7.659l-19.688 29.948v-214.51l-100.464-17.81v443.146l100.464-36.884h66.759c-16.979 25.685-38.582 51.803-64.844 78.319l26.696 21.458h-155.771v48.371h243.483v64.194l109.965-20.338v-43.856h151.978l38.148 34.319 61.665-54.296v-28.358h-188.826l76.91-25.251c-27.13-31.609-51.948-56.463-74.381-74.526h64.844l42.591 36.884 85.219-66.867zM3289.328 516.396h-66.759v-96.634c41.11 27.997 63.363 60.184 66.759 96.634zM3476.889 664.545h-176.76c29.659-17.701 57.222-36.631 82.654-56.861l-45.77-42.953h97.249c16.112 29.912 30.309 63.183 42.628 99.813zM3581.146 272.263v148.149h-106.171c-39.412 0-59.137 17.485-59.137 52.417v43.567h-20.989c-9.754-45.554-34.138-82.69-73.117-111.373l28.611-21.531h100.428l41.327 35.619 76.91-59.787-26.046-24.818v-76.296l22.253-0.65c10.621 0.072 15.931 4.949 15.931 14.703zM3453.372 302.139v33.054h-102.992v-33.054h102.992zM3581.146 483.342v33.054h-71.853v-19.327c0-9.14 5.491-13.728 16.545-13.728h55.307z" />
<glyph unicode="&#xe91c;" horiz-adv-x="15360" d="M4115.435 429.877l-29.875-28.683v-221.121l-109.965-18.424v43.856h-45.156v-28.611l-110.001-18.46v340.803l110.001-41.327h44.506l49.6 41.327 90.891-69.36zM4360.868 707.678l-29.875-28.683v-161.948l-110.001-19.074v44.506h-204.070v-28.611l-109.965-19.074v282.281l109.965-41.327h203.456l49.6 41.327 90.891-69.396zM3975.595 253.804v155.807h-45.156v-155.807h45.156zM4220.992 590.778v96.671h-204.070v-96.634h204.070zM4423.148 429.877l-29.875-28.683v-221.121l-110.001-18.424v43.856h-51.478v-28.611l-110.001-18.46v340.803l110.001-41.327h50.864l49.6 41.327 90.891-69.36zM4283.272 253.804v155.807h-51.478v-155.807h51.478z" />
<glyph unicode="&#xe91d;" horiz-adv-x="15360" d="M5139.291 421.099l-24.818-22.289c-7.622-110.217-18.424-176.76-32.404-199.663-13.547-22.867-41.544-34.283-83.918-34.283h-50.864c0.831 8.056 1.264 13.764 1.264 17.159 0 17.774-11.452 30.526-34.319 38.148l1.915 13.366c-15.245-4.227-33.705-9.32-55.307-15.281-11.885 55.958-23.951 97.465-36.233 124.631l50.864 12.066c13.113-16.545 31.79-51.298 55.958-104.293 2.529 0 6.792-0.217 12.716-0.65 27.094-2.131 41.724-3.179 43.856-3.179 8.887 0 14.378 6.358 16.545 19.074 0 0.434 0.181 2.312 0.65 5.708 1.264 4.66 2.131 8.67 2.529 12.102-13.547-6.394-29.875-14.414-48.949-24.204-19.508 45.373-36.45 79.258-50.864 101.728l42.591 17.81c18.641-15.714 38.545-38.582 59.751-68.674 2.962 25.432 6.141 53.61 9.537 84.569h-343.946c-40.279-75.465-78.644-131.387-115.094-167.837l-38.798 27.311c54.693 96.237 100.464 221.266 137.311 375.122h-131.603v48.335h61.015c-15.714 17.81-35.403 36.017-59.137 54.693l39.412 44.506c42.375-13.547 75.248-30.923 98.549-52.128l-47.685-47.035h50.864c9.32 37.281 16.329 70.372 20.989 99.199l115.708-17.81c-3.793-16.112-11.416-43.242-22.867-81.39h108.086l44.506 31.79 83.304-57.258-33.705-27.383-11.416-50.972 34.319 24.204 77.56-56.066-36.233-29.948-8.273-52.887 23.517 17.846 73.117-56.138zM4716.519 336.458c-6.358-63.58-14.631-113.144-24.782-148.763l-93.455 26.082c29.659 58.486 49.166 102.776 58.486 132.904l59.751-10.223zM4959.388 517.047h-230.803l-32.404-73.731h249.877l13.33 73.731zM4829.663 211.212l-89.012-10.187c0.831 18.279 1.264 34.572 1.264 48.949 0 25.432-1.698 54.26-5.094 86.483l54.657 3.829c16.581-36.017 29.297-79.078 38.184-129.075zM4892.629 629.576h-121.416l-24.818-64.194h132.868l13.366 64.194z" />
<glyph unicode="&#xe91e;" horiz-adv-x="15360" d="M5438.984 750.992c-12.716-64.844-32.224-123.764-58.486-176.76l24.132-5.708v-392.282l-101.078-17.196v305.834c-8.489-11.018-19.941-22.253-34.355-33.705l-31.79 30.526c61.015 96.201 95.767 201.325 104.257 315.335l97.321-26.046zM5855.397 710.279l-22.253-31.176v-498.995l-94.72-17.159v37.462h-204.070v-24.782l-94.72-17.196v618.641l94.72-35.583h197.712l36.884 35.583 86.447-66.795zM5738.424 615.596v77.56h-204.070v-76.296h57.222v70.588l82.004-16.545v-54.043h17.81l25.432 20.808 21.603-22.072zM5738.424 248.746v222.53l-17.81-19.074v-169.101l-66.759-14.017v34.319h-35.583v-26.696l-67.409-14.631v262.629l40.677-10.801v55.958h-57.186v-321.079h204.070zM5653.855 348.56v113.794h-35.583v-113.794h35.583zM5738.424 486.521v83.304h-64.844v-59.137l22.903 17.81 41.941-41.977z" />
<glyph unicode="&#xe91f;" horiz-adv-x="15360" d="M6571.539 259.511l-74.381-100.428c-128.424 116.973-204.937 221.266-229.538 312.807-13.15-51.261-45.554-106.822-97.249-166.572-52.128-59.751-111.915-108.52-179.288-146.234l-36.884 45.77c63.147 47.468 117.84 111.915 164.044 193.305 45.77 81.823 68.674 170.618 68.674 266.422v111.843l118.887-24.168v-85.797c0-23.734-3.179-57.222-9.537-100.464 14.414-41.977 47.035-91.794 97.899-149.413 50.864-57.656 109.965-110.001 177.374-157.072z" />
<glyph unicode="&#xe920;" horiz-adv-x="15360" d="M7287.646 231.587l-69.288-72.503c-75.032 33.885-139.443 60.22-193.269 78.861l36.233 30.526h-164.044l52.779-48.335c-74.165-27.563-156.205-47.866-246.048-61.015l-34.319 47.685c63.147 15.714 114.841 32.007 155.121 48.913l-94.106-17.774v241.604l-30.526-8.923v168.487l7.008-2.529v40.027h212.993v17.81h-250.491v46.421h250.491v36.233l109.35-20.338v-15.895h169.137l32.404 27.961 56.572-49.6v-24.818h-64.844l45.77-39.412v-24.818h-64.194l73.117-46.421-24.168-19.688v-62.966c-31.357-8.887-47.252-13.33-47.685-13.33l47.035-34.355-26.046-19.688v-164.044l-61.051-13.366c37.317-5.888 77.994-14.125 122.066-24.71zM7175.767 630.226h-448.203l72.467-18.424h350.955l24.782 18.424zM6852.159 540.564v29.875h-52.128v-29.875h52.128zM7142.712 498.623h-342.682v-3.793l28.611-12.716h295.647l18.424 16.509zM7128.696 424.205v15.895h-300.091v-15.895h300.091zM7128.696 368.248v16.545h-300.091v-16.545h300.091zM7128.696 310.412v18.46h-300.091v-18.46h300.091zM7000.921 540.564v29.875h-54.043v-29.875h54.043zM7202.463 694.421h-172.93v-17.81h154.507l18.424 17.81zM7152.863 540.564v29.875h-57.872v-29.875h57.872z" />
<glyph unicode="&#xe921;" horiz-adv-x="15360" d="M8003.644 301.489l-74.345-89.626c-62.28 56.789-107.4 125.462-135.397 206.021l-13.98-3.793c7.189-28.43 10.801-61.485 10.801-99.235 0-101.692-35.547-152.556-106.749-152.556h-51.478c0 1.698 0 3.396 0 5.094 0 26.66-21.205 41.508-63.58 44.47l4.48 38.148c-48.335-21.169-102.595-40.027-162.743-56.572l-22.253 46.421c121.633 38.148 221.663 93.672 300.091 166.572l-4.443 15.895c-75.429-47.071-162.96-78.825-262.557-95.37l-20.338 42.591c100.464 23.734 182.684 61.918 246.698 114.444l-7.622 11.452c-63.58-25.866-128.858-45.987-195.798-60.401l-20.989 38.148c79.258 26.696 137.094 51.478 173.545 74.381h-134.132v34.463l-76.91 35.764c32.224 45.084 56.391 87.603 72.467 127.485l55.958-14.631-5.094-26.696h124.631v73.117l111.229-15.895v-57.222h129.002l43.82 42.591 85.797-66.867-42.591-22.976c-28.756-42.158-43.422-63.219-43.82-63.219l20.989-18.496v-27.455h-67.987l77.524-54.043c-20.302-15.245-55.271-34.319-104.871-57.222 40.966-61.882 94.575-106.786 160.648-134.782zM7875.292 655.658h-374.4l-17.159-59.751h354.675l27.961 23.915 8.923 35.836zM7692.932 311.676c-32.657-21.603-69.107-40.894-109.387-57.872 38.582-2.529 65.711-3.793 81.39-3.793 18.641 0 27.997 20.555 27.997 61.665zM7861.925 547.572h-118.201c-13.583-10.585-27.094-19.291-40.641-26.082 24.962-16.979 45.301-38.365 60.979-64.23 41.941 31.393 74.562 61.485 97.863 90.313z" />
<glyph unicode="&#xe922;" horiz-adv-x="15360" d="M8719.678 260.162l-30.562-92.155h-125.245c-80.956 0-140.888 33.452-179.903 100.428-24.999-45.337-49.383-82.040-73.081-110.001l-38.184 23.517c34.788 99.597 56.174 185.647 64.194 258.149h-30.49v31.284c-17.412-19.146-30.128-32.549-38.184-40.171v-203.456c0-41.977-19.471-62.93-58.486-62.93h-46.421c0 32.187-15.859 50.214-47.613 54.007l1.264 36.884 39.376-1.915c9.32 0 14.017 4.443 14.017 13.366v84.569c-15.678-10.621-29.875-19.508-42.555-26.696l-26.082 97.285c25.829 11.018 48.733 21.856 68.638 32.476v139.19h-68.638v47.035h68.638v136.047l97.863-19.074v-112.529l22.253 20.338 48.299-43.856v-27.961h-70.552v-78.861c11.849 8.056 23.517 17.196 35.005 27.347l32.368-36.884c-1.264-1.264-3.179-3.613-5.708-7.008-3.793-4.227-6.792-7.622-8.887-10.151h300.091l37.534 34.319 61.015-54.946v-27.708h-158.336v-54.693h45.807l33.018 30.526 59.137-52.454v-26.407h-137.925v-74.418c7.189-1.662 14.811-2.529 22.903-2.529h135.433zM8464.707 284.98v155.121h-124.017l99.199-19.688c-5.491-25.035-14.378-54.079-26.696-87.134 14.017-19.905 31.176-36.017 51.514-48.299zM8705.047 715.337l-26.696-25.504v-158.155l-94.070-17.159v19.724h-142.405v-13.366l-93.455-17.81v274.008l93.455-36.233h141.14l43.206 36.233 78.825-61.738zM8584.245 662.631v29.875h-142.405v-29.875h142.405zM8584.245 582.541v31.79h-142.405v-31.79h142.405z" />
<glyph unicode="&#xe923;" horiz-adv-x="15360" d="M9435.748 229.058l-95.984-70.588c-25.866 68.674-57.439 128.858-94.72 180.553l50.864 33.054h-176.76l71.817-43.206c-48.769-69.541-106.171-126.293-172.316-170.402l-36.233 40.677v-27.925l-103.607-12.752v319.165c-7.622-9.754-16.979-19.291-27.997-28.611l-32.368 36.233c47.83 81.39 86.519 178.638 115.997 291.818l105.232-21.603c-14.017-49.166-33.054-98.332-57.222-147.498v-187.561h75.682v173.581h-58.486v47.035h58.486v136.047l103.607-19.074v-116.973h74.418v136.047l103.607-19.074v-116.973h4.48l30.49 34.969 56.572-54.693v-27.311h-91.541v-173.581h4.48l34.933 34.969 56.572-54.946v-28.358h-122.066c47.504-41.977 88.181-89.626 122.066-143.019zM9087.358 372.077h-104.871v-155.771c50.394 52.995 85.4 104.871 104.871 155.771zM9236.157 420.412v173.581h-74.418v-173.581h74.418z" />
<glyph unicode="&#xe924;" horiz-adv-x="15360" d="M9900.171 491.615c0-48.769-31.826-98.152-95.406-148.149l-41.327 45.12c34.319 21.639 56.752 42.158 67.373 61.702h-45.77v119.538h115.094v-78.211z" />
<glyph unicode="&#xe925;" horiz-adv-x="15360" d="M10718.837 199.905h-74.526l-51.587 146.631h-227.479l-51.587-146.631h-70.986l191.427 525.944h93.275l191.463-525.944zM10571.194 406.576l-92.191 258.186-92.588-258.186h184.78z" />
<glyph unicode="&#xe926;" horiz-adv-x="15360" d="M11216.965 350.041c0-20.483-4.732-40.785-14.269-60.762-9.573-20.049-22.939-36.956-40.099-50.864-18.821-15.1-40.821-26.841-65.856-35.366-25.071-8.453-55.271-12.716-90.602-12.716-37.931 0-71.997 3.54-102.27 10.585-30.237 7.081-61.051 17.557-92.372 31.465v87.567h4.985c26.588-22.109 57.294-39.196 92.155-51.189 34.861-12.030 67.59-18.026 98.224-18.026 43.314 0 77.055 8.128 101.186 24.384s36.197 37.931 36.197 64.989c0 23.337-5.708 40.496-17.159 51.587-11.379 11.090-28.792 19.652-52.056 25.793-17.629 4.696-36.811 8.598-57.403 11.632-20.591 3.071-42.447 6.936-65.495 11.668-46.637 9.898-81.209 26.805-103.643 50.683-22.506 23.879-33.777 55.018-33.777 93.419 0 44.036 18.604 80.125 55.813 108.267s84.424 42.194 141.646 42.194c36.956 0 70.877-3.54 101.728-10.585s58.125-15.787 81.932-26.118v-82.654h-4.949c-20.049 16.943-46.348 31.031-78.969 42.194s-65.964 16.762-100.102 16.762c-37.462 0-67.518-7.767-90.24-23.337s-34.066-35.547-34.066-60.040c0-21.892 5.636-39.087 16.943-51.55 11.307-12.499 31.176-22 59.679-28.611 15.1-3.287 36.486-7.297 64.266-12.030s51.37-9.537 70.661-14.486c39.051-10.368 68.493-26.010 88.29-46.963 19.724-20.88 29.623-50.214 29.623-87.892z" />
<glyph unicode="&#xe927;" horiz-adv-x="15360" d="M11780.154 199.905h-74.526l-51.587 146.631h-227.479l-51.587-146.631h-70.986l191.427 525.944h93.275l191.463-525.944zM11632.511 406.576l-92.191 258.186-92.588-258.186h184.78z" />
<glyph unicode="&#xe928;" horiz-adv-x="15360" d="M12240.17 566.935c0-23.337-4.082-44.94-12.21-64.808s-19.471-37.137-34.066-51.731c-18.135-18.135-39.593-31.718-64.266-40.785-24.746-9.067-55.958-13.619-93.636-13.619h-69.938v-196.051h-69.938v525.908h142.658c31.573 0 58.27-2.637 80.234-7.948 21.856-5.274 41.327-13.583 58.27-24.89 19.977-13.439 35.475-30.128 46.421-50.142 10.982-20.049 16.473-45.337 16.473-75.935zM12167.378 565.165c0 18.099-3.179 33.885-9.573 47.324-6.358 13.439-16.003 24.348-28.936 32.838-11.307 7.297-24.204 12.535-38.654 15.714-14.486 3.179-32.802 4.769-54.946 4.769h-69.216v-210.139h58.992c28.25 0 51.225 2.529 68.854 7.586 17.665 5.058 32.043 13.113 43.097 24.168 11.090 11.307 18.893 23.192 23.481 35.692 4.624 12.463 6.9 26.516 6.9 42.050z" />
<glyph unicode="&#xe929;" horiz-adv-x="15360" d="M12646.829 348.56c-70.372-73.334-155.771-136.48-256.235-189.476l-40.027 57.222c77.56 58.486 142.405 123.764 194.569 195.834l101.692-63.58zM12941.826 707.715l-29.875-28.647v-246.553l-110.001-19.074v48.299h-261.906v-32.404l-110.001-19.074v366.814l110.001-41.327h261.256l50.25 41.327 90.276-69.36zM12801.95 510.038v177.374h-261.906v-177.374h261.906zM12968.523 249.36l-91.541-90.276c-45.807 77.56-98.549 144.536-158.3 200.927l52.092 45.807c68.71-40.316 134.602-92.444 197.748-156.457z" />
<glyph unicode="&#xe92a;" horiz-adv-x="15360" d="M13374.387 710.857l-22.217-21.675v-170.221l-94.106-18.46v34.355h-76.91v-359.227l-97.935-17.196v618.641l97.935-33.705h71.202l38.184 33.705 83.846-66.217zM13258.029 663.895v31.176h-76.91v-31.14h76.91zM13258.029 583.155v32.44h-76.91v-32.404h76.91zM13555.554 327.571h-87.712v-124.017l-90.963-16.509v140.526h-39.412c-8.489-48.335-43.856-95.153-106.135-140.526l-44.506 38.184c32.621 37.281 52.128 71.419 58.486 102.342h-57.222v48.335h61.015v64.844h-54.043v48.335h272.78l24.782 22.253 53.429-46.71v-23.843h-78.175v-64.844h3.179l28.575 26.082 55.958-49.275v-25.179zM13376.916 375.906v64.844h-36.197v-64.844h36.197zM13684.629 710.857l-27.347-26.769v-449.323c0-46.637-21.639-69.938-64.844-69.938h-40.063c0 1.264 0 2.746 0 4.443 0 38.148-23.698 58.703-71.202 61.665l1.915 41.327 61.015-1.915c10.585 0 15.859 4.66 15.859 14.017v250.491h-80.089v-15.895l-94.72-18.46v276.573l94.72-33.705h76.91l38.798 33.705 89.048-66.217zM13559.998 663.895v31.176h-80.089v-31.14h80.089zM13559.998 583.155v32.44h-80.089v-32.404h80.089z" />
<glyph unicode="&#xe92b;" horiz-adv-x="15360" d="M14047.902 176.893l-97.899-17.81v199.013c-50.431-20.338-96.418-37.1-137.961-50.25l-29.225 88.362h38.148v337.624l92.805-18.424v-309.628l36.233 4.443v366.85l97.899-19.688v-580.493zM14400.772 262.076l-73.081-102.992c-41.977 40.677-74.381 80.523-97.285 119.538-42.375-48.733-88.976-88.579-139.84-119.538l-34.319 38.148c47.866 41.146 89.012 90.529 123.331 148.185-27.563 55.488-45.987 104.040-55.307 145.584-9.79-26.696-19.291-47.468-28.611-62.316l-45.156 26.696c10.585 38.148 21.82 94.286 33.741 168.487 0.434 1.264 0.65 2.131 0.65 2.529 6.792 43.639 11.849 93.889 15.245 150.677l104.293-17.159c-5.491-39.015-11.668-71.202-18.46-96.634h115.708l37.498 34.355 61.665-54.693v-27.347h-41.327c-8.489-109.35-32.838-195.4-73.117-258.149 26.66-29.659 64.772-61.449 114.372-95.37zM14257.753 614.945h-85.869c-3.396-16.112-8.273-32.007-14.595-47.685 22.47-59.353 45.156-104.907 68.023-136.697 21.603 61.051 32.44 122.5 32.44 184.382z" />
<glyph unicode="&#xe92c;" horiz-adv-x="15360" d="M15116.914 239.209l-76.91-50.25c-13.186 36.884-23.337 80.523-30.562 130.953-2.962-2.131-8.273-5.094-15.859-8.887 0 1.264 0.434-2.312 1.264-10.801 0.831-8.887 1.264-17.376 1.264-25.432 0-73.334-23.337-109.965-69.938-109.965h-48.949c-1.698 17.774-12.499 28.575-32.44 32.368l5.13 30.562c-16.545-5.491-37.715-11.054-63.616-16.545l-15.859 35.583c69.938 30.526 117.623 58.703 143.055 84.569l-1.915 4.443c-41.508-22.903-84.785-38.762-129.725-47.649l-8.273 22.867c-12.716-52.995-34.536-103.823-65.495-152.592l-50.864 31.14c30.562 80.523 45.807 163.61 45.807 249.227v75.032c-19.941-29.261-38.582-52.562-55.958-69.938v-231.453c0-31.79-14.595-47.649-43.892-47.649h-46.385c-2.168 24.962-17.376 40.46-45.77 46.385l1.264 29.261 34.933-0.65c7.225 0 10.838 2.962 10.838 8.887v150.063c-8.092-3.829-21.205-8.706-39.412-14.631l-19.724 90.313c24.999 3.396 44.687 7.406 59.137 12.066v129.689h-59.137v48.371h59.137v112.529l89.012-15.895v-96.634l19.688 20.338 36.27-33.054v62.93l85.833-36.884h55.271v99.199l86.519-15.895v-13.366h88.976l32.44 28.611 57.222-49.636v-26.118h-40.713l48.335-44.578-22.253-25.468-14.017-42.050 29.297-8.923c-4.227-12.319-6.358-21.675-6.358-28.033 0-8.923 3.793-16.148 11.416-21.675-2.962-20.375-14.595-30.562-35.005-30.562-0.434 0-1.048 0-1.915 0l38.798-36.306v-24.854h-125.86c-5.094-4.227-18.857-13.15-41.363-26.696 12.716-16.979 22.036-33.705 27.961-50.25 31.79 21.639 57.656 44.506 77.56 68.674l61.665-52.779c-23.337-16.545-43.675-29.659-61.015-39.449 11.488-33.054 31.826-65.892 61.087-98.513zM14703.030 516.396v100.464h-55.958v-97.899c9.754 6.358 21.169 16.292 34.319 29.875 14.45-21.205 21.639-32.007 21.639-32.44zM14894.384 389.236l-1.264 3.179c-38.545-12.283-69.938-20.158-94.070-23.517l-10.151 29.261c0-18.641-3.432-41.11-10.187-67.373 46.999 13.547 85.58 33.018 115.672 58.45zM14844.134 598.436v31.14h-55.271v-37.498l55.271 6.358zM15052.72 498.623h-144.97c-42.375 0-63.616 17.376-63.616 52.128v4.443l-47.649-6.972-7.622 40.677v-102.342h250.491l13.366 12.066zM14873.431 438.222h-84.569v-30.526c39.412 9.754 67.59 19.905 84.569 30.526zM14917.901 261.426c-9.79-8.056-29.875-17.99-60.401-29.839 2.529-0.434 7.008-1.048 13.366-1.915 11.018-0.831 17.557-1.481 19.688-1.915 2.529-0.434 4.877-0.65 6.972-0.65 10.585 0 16.979 7.189 19.074 21.603 0 1.698 0.217 3.396 0.65 5.094 0.434 2.131 0.65 4.66 0.65 7.622zM15057.777 700.779h-127.16v-22.903h102.992l24.168 22.903zM15064.786 579.76l-33.705 9.465 5.094 40.352h-46.385l37.498-29.008 1.264-20.194-97.899-13.872v-5.058c0-7.153 3.613-10.693 10.801-10.693h103.643c5.925 0 9.934 2.746 12.066 8.2l7.622 20.808zM14971.33 629.576h-40.677v-21.603l26.046 4.443 14.631 17.159z" />
<glyph unicode="&#xe92d;" horiz-adv-x="15360" d="M552.424 483.776c88.181 0 159.673 72.9 159.673 162.779s-71.491 162.779-159.673 162.779-159.673-72.9-159.673-162.779 71.491-162.779 159.673-162.779zM552.279 403.253c-142.152 0-287.266-74.309-287.266-212.74v-31.14h574.532v31.14c0 138.431-145.114 212.74-287.266 212.74z" />
<glyph unicode="&#xe92e;" horiz-adv-x="15360" d="M1042.424 700.49c169.86 0 307.605-137.492 307.605-307.063s-137.745-307.063-307.605-307.063c-169.896 0-307.641 137.492-307.641 307.063s137.745 307.063 307.641 307.063z" />
<glyph unicode="&#xe92f;" horiz-adv-x="15360" d="M897.851 447.578h-36.161v-36.161h36.161v-180.625h36.125v289.036h-36.125z" />
<glyph unicode="&#xe930;" horiz-adv-x="15360" d="M1223.121 555.953h-0.072v0.108h-289v-36.125h36.089v-289.109h0.036v-0.036h252.947v325.161zM1006.263 447.65h72.286v-36.161l-36.125-0.036v-108.375h108.411v108.375h-0.036v0.036h-36.125v36.161h72.322v-180.733h-180.733v180.733zM1114.71 339.167h-36.161v36.161h36.161v-36.161zM1114.674 483.776v36.161h72.322v-36.161h-72.322zM1078.549 519.937v-36.161h-72.286v36.161h72.286z" />
</font>
</defs>
</svg>
