<?xml version="1.0" standalone="no"?>
<!DOCTYPE svg PUBLIC "-//W3C//DTD SVG 1.1//EN" "http://www.w3.org/Graphics/SVG/1.1/DTD/svg11.dtd" >
<svg xmlns="http://www.w3.org/2000/svg">
<metadata>Generated by IcoMoon</metadata>
<defs>
<font id="icomoon" horiz-adv-x="1024">
<font-face units-per-em="1024" ascent="960" descent="-64" />
<missing-glyph horiz-adv-x="1024" />
<glyph unicode="&#x20;" horiz-adv-x="512" d="" />
<glyph unicode="&#xe900;" glyph-name="icon_friday_logo" horiz-adv-x="6491" d="M2857.227 936.548c-15.306 15.306-34.808 23.452-56.409 23.452-21.724 0-41.227-8.147-56.532-23.452s-23.329-34.808-23.329-56.409c0-21.601 8.023-41.103 23.329-56.409s34.808-23.329 56.532-23.329c21.601 0 41.103 8.023 56.285 23.329 15.306 15.306 23.452 34.808 23.452 56.532 0 21.601-8.023 41.103-23.329 56.285zM2872.162 216.81v508.667h-142.195v-509.038c0-17.281 7.159-32.833 20.613-45.053 13.701-12.22 30.982-18.762 50.361-18.762 19.256 0 36.66 6.542 50.361 18.885 13.331 12.22 20.366 27.526 20.86 45.3zM3582.395 672.401l-22.095 70.604c-9.381 29.871-27.279 45.053-53.323 45.053-9.257 0-19.749-1.975-30.982-5.925l-619.88-215.391c-21.848-7.653-36.166-18.515-42.708-32.586-6.295-13.454-5.678-30.241 1.975-49.99l26.538-68.999c55.175-144.17 150.095-207.244 219.958-234.77 47.151-18.392 99.857-28.266 152.316-28.266v0c44.066 0 87.884 7.036 126.272 20.49 201.443 69.986 307.718 289.574 241.929 499.78zM3210.492 286.797c-33.203 0-66.407 6.172-95.784 17.404-47.151 18.392-110.102 59.742-142.442 152.563l-3.086 8.887 478.92 166.388 3.086-8.887c6.542-19.132 20.12-84.058 2.469-154.662-20.613-82.083-73.936-138.615-158.735-167.992-25.921-9.011-55.051-13.701-84.428-13.701zM2247.591 846.565c11.356 14.812 14.689 33.574 9.998 55.792-5.308 25.427-27.155 55.175-71.097 55.175-157.13 0-243.286-80.602-249.211-232.795l-0.741-17.281-22.341-1.234c-15.059-1.358-28.883-8.393-39.992-20.366-12.59-13.578-19.256-30.982-19.256-50.237 0-19.502 6.665-37.153 19.132-50.731 11.232-11.973 24.687-18.762 39.992-20.243l22.712-1.481v-405.107h141.701v405.23h100.968c16.91 0 32.339 7.159 44.559 20.613 12.22 13.578 18.638 31.105 18.638 50.731 0 19.379-6.419 36.66-18.762 50.237-12.096 13.578-27.526 20.613-44.436 20.613h-101.462v20.366c0 53.2 16.417 84.798 99.981 89.489 30.365 1.728 55.668 13.084 69.616 31.229zM4585.041 727.205c-9.751 4.073-21.971 6.419-33.203 6.419-19.256 0-44.683-6.419-57.273-37.4l-116.521-275.749-113.929 275.379c-14.071 34.561-48.015 38.388-61.84 38.388-10.368 0-20.737-1.975-29.5-5.554-11.603-4.814-32.093-19.996-41.103-42.338-6.048-14.812-5.678-29.871 0.741-44.806l167.499-407.452-125.284-297.473 154.168-0.617 295.869 702.457c6.419 14.318 6.419 33.203 0.123 49.373-4.69 12.22-15.553 29.007-39.745 39.375zM3840.617 732.266c-78.38 0-146.268-28.143-201.689-83.564s-83.564-123.31-83.564-201.689c0-78.38 28.143-146.268 83.564-201.813 55.545-55.421 123.31-83.564 201.689-83.564 69.986 0 112.201 22.712 131.209 36.289l10.368 7.406 1.975-47.151h141.701v288.833c0 78.38-28.266 146.268-83.811 201.936-55.915 55.298-123.803 83.317-201.443 83.317zM3972.69 392.085c-7.529-17.527-17.651-32.463-30.858-45.794-12.714-12.837-28.019-23.329-45.547-30.982-17.404-7.653-35.672-11.356-55.668-11.356-20.366 0-38.635 3.703-56.039 11.356s-32.71 17.898-45.423 30.858c-12.714 12.837-22.959 28.143-30.488 45.547-7.529 17.527-11.109 35.549-11.109 55.298 0 19.626 3.703 37.77 11.109 55.175 7.653 17.527 17.774 32.957 30.611 45.794 12.714 12.837 27.649 22.959 45.3 30.858 17.404 7.653 35.796 11.232 56.039 11.232 19.873 0 38.141-3.58 55.545-11.232 17.651-7.653 32.957-18.145 45.67-30.982 13.207-13.207 23.205-28.266 30.858-45.794 7.529-17.404 11.109-35.302 11.109-54.928-0.123-19.749-3.703-37.77-11.109-55.051zM2686.766 672.031c-5.184 36.536-36.413 58.507-83.564 58.507h-12.22c-84.922 0-141.701-51.842-142.195-52.212l-11.479-10.739-0.123 57.643h-141.824l0.247-509.408c0-17.034 7.159-32.339 20.613-44.559 13.578-12.22 31.105-18.762 50.731-18.762 19.379 0 36.783 6.419 50.484 18.762 13.454 12.096 20.366 27.526 20.366 44.436v227.24c0 84.675 93.315 131.95 136.023 140.467 7.159 1.481 16.417 2.098 26.168 2.716 8.147 0.37 16.417 0.987 23.452 2.098 28.39 4.197 70.851 30.735 63.321 83.811zM4904.609 327.529c-8.64-48.262-25.921-103.437-51.718-167.128l-63.815 22.341c25.921 66.407 43.078 120.717 49.99 162.932l65.543-18.145zM5017.427 371.595h-198.233c-6.048 0-9.504 3.456-9.504 9.504v541.994c0 6.048 3.456 9.504 9.504 9.504h198.233c6.912 0 10.368-3.456 10.368-9.504v-542.118c0-6.048-3.456-9.381-10.368-9.381zM4961.389 767.938v95.661l-3.456 2.592h-79.244l-2.592-2.592v-95.661h85.292zM4961.389 602.538v98.253h-85.292v-98.253h85.292zM4876.096 536.131v-94.797l2.592-3.456h79.244c2.592 0 3.456 0.864 3.456 3.456v94.797h-85.292zM4992.494 340.49c19.009-36.166 35.302-80.108 49.99-135.283l-61.223-19.873c-15.553 56.039-32.71 100.845-48.262 131.826l59.495 23.329zM5162.214 162.993h-66.407v117.138h-45.67v59.495h45.67v224.154c0 10.368 5.184 15.553 15.553 15.553h176.633v48.262h-227.487v59.495h126.642v48.262h-96.525v59.495h96.525v44.683h-119.853v59.371h119.853v55.175h66.407v-55.175h142.195v58.631h66.407v-58.631h114.669v-59.495h-114.669v-44.806h97.389v-59.495h-97.389v-48.262h127.506v-59.495h-235.263v-48.262h179.225c11.232 0 16.417-5.184 16.417-15.553v-224.031h39.622v-59.495h-39.622v-45.67c0-26.662-10.368-46.534-31.846-61.223-26.662-17.281-74.060-19.873-143.059-7.776l-2.592 73.196c49.99-12.96 80.972-15.553 93.068-6.912 12.096 6.912 17.281 17.281 17.281 30.118v18.145h-320.555v-116.891zM5288.116 519.715h-120.594c-3.456 0-5.184-1.728-5.184-5.184v-56.903h125.778v62.087zM5288.116 339.626v58.631h-125.778v-58.631h125.778zM5395.749 839.529h-142.195v-44.806h142.195v44.806zM5395.749 686.966v48.262h-142.195v-48.262h142.195zM5354.399 457.751h128.37v56.903c0 3.456-1.728 5.184-5.184 5.184h-123.186v-62.087zM5482.893 339.626v58.631h-128.37v-58.631h128.37zM5848.748 724.86h-56.903c-10.368-73.196-19.873-124.914-28.39-151.699l-71.468 10.368c26.662 87.884 41.35 187.865 41.35 299.078v44.806h69.863v-44.806l-4.32-84.428h49.99v159.352h73.196v-159.475h74.060v-73.196h-74.060v-208.602l67.271 40.486 41.35-59.495c-30.982-20.737-67.271-41.35-108.621-61.223v-276.613h-73.196v242.299l-114.669-48.262-39.622 66.407c62.951 22.465 114.669 42.214 154.291 60.359v244.644zM6244.351 781.763l-13.824-100.845c-25.057-115.533-96.525-233.535-210.33-351.661l-63.815 39.622c81.836 81.836 139.603 156.883 171.448 222.303 19.873 44.806 36.166 108.621 44.806 190.457h-61.223c-25.057-74.060-53.446-134.419-84.428-180.089l-70.604 27.526c66.407 101.709 106.893 210.33 120.594 324.876l72.332-9.504-17.281-88.748h330.924l14.689-3.456c8.64-4.32 12.96-17.281 12.96-38.758l-4.32-335.244c-4.32-162.932-34.438-262.789-88.748-299.942-31.846-23.329-95.661-21.601-189.593 4.32l-2.592 85.292c78.38-26.662 129.234-32.71 149.971-17.281 14.689 11.232 28.39 32.71 39.622 65.543 11.232 34.438 17.281 93.068 19.009 172.312 6.048 182.681 6.048 279.205 0 286.982-1.728 4.32-5.184 6.048-9.504 6.048h-35.302c-1.728-114.669-28.39-230.079-77.516-347.34-48.262-97.389-119.853-180.953-212.798-248.224l-57.767 53.446c175.769 102.573 267.973 283.526 274.885 542.118h-51.595zM107.016 498.731c0 6.789-3.456 10.245-9.381 10.245h-82.206v72.702h145.527c12.837 0 18.885-6.048 18.885-18.762v-202.060c3.456-18.021 11.973-35.919 28.266-55.668 18.021-27.402 47.892-46.287 87.267-54.804 44.559-11.109 209.713-9.381 492.127 6.048l-18.885-81.342-406.588-1.728c-106.152 6.048-176.262 41.967-210.577 105.288-5.184-17.157-19.749-39.375-41.967-63.321-23.082-22.959-46.164-40.98-70.11-52.089l-39.375 64.185c44.559 21.354 74.43 41.967 88.131 63.321 8.517 14.565 14.565 29.994 18.885 48.756v159.229zM42.831 783.861c41.103-20.49 87.267-52.212 137.751-95.043l-44.559-59.865c-53.076 43.695-96.771 74.43-132.69 94.179l39.499 60.729zM65.049 941.362c41.103-19.749 85.539-48.756 135.283-88.131l-42.831-59.865c-51.348 40.116-95.043 68.258-130.962 84.552l38.511 63.445zM374.002 404.675c-47.892-28.266-91.587-48.756-130.962-59.865l-35.919 65.913c71.838 21.354 139.479 54.804 202.8 98.376h-151.452c-5.184 0-7.653 3.456-7.653 9.381v158.365c0 6.048 2.592 8.517 7.653 8.517h466.453c6.048 0 9.381-2.592 9.381-8.517v-158.365c0-6.048-3.456-9.381-9.381-9.381h-211.317l-70.233-58.26v-189.099h-65.913v144.54l-3.456-1.605zM452.752 838.542h-210.453v62.457h210.577v56.532h69.369v-56.532h212.305v-62.457h-212.428v-46.287h245.632v-65.913h-551.992v65.913h237.115v46.287zM319.321 626.237c-2.592 0-3.456-0.864-2.592-2.592v-52.212l2.592-3.456h345.736l3.456 3.456v52.212l-3.456 2.592h-345.736zM689.867 501.323l43.695-51.348c-21.354-22.218-48.756-44.559-79.614-68.505l83.070-64.185-41.967-56.532c-85.539 70.233-159.229 120.717-219.094 151.452l38.511 59.124c25.674-13.701 53.94-29.13 81.342-48.756 40.116 29.13 71.838 56.532 94.056 78.75zM961.79 557.855l-70.233 26.538c73.566 113.805 117.261 237.115 128.37 368.941l72.702-7.776c-11.109-70.974-23.946-134.419-40.239-188.235v-599.144h-69.369v434.731l-21.23-35.055zM1097.072 318.149v65.913h414.241v50.484l-405.724-19.626-7.653 66.777 246.496 9.381v47.892h-210.577c-11.109 0-16.293 6.048-16.293 17.157v229.338c0 11.109 5.184 17.157 16.293 17.157h210.577v43.695h-226.87v65.913h226.87v41.967h69.369v-41.967h252.544v-65.913h-252.544v-43.695h223.414c11.973 0 17.157-6.048 17.157-17.157v-229.338c0-11.109-5.184-17.157-17.157-17.157h-7.653l65.913-96.648-53.94-36.783-23.946 35.055-35.919-2.592v-53.94h95.043v-65.913h-95.043v-75.294c0-31.722-13.701-54.804-36.783-70.233-24.81-14.565-71.838-14.565-141.207 0.864v72.702c53.94-14.565 88.131-18.021 100.968-8.517 5.184 4.32 6.912 11.973 6.912 23.082v57.396h-414.488zM1344.432 742.758h-155.772c-1.728 0-2.592-0.864-1.728-3.456v-39.375h157.5v42.831zM1344.432 644.258h-157.5v-41.967c-0.864-2.592 0-3.456 1.728-4.32h155.772v46.287zM1265.682 309.632c31.722-28.266 60.729-56.532 83.934-84.675l-53.94-42.831c-28.266 31.722-55.668 59.124-80.478 81.342l50.484 46.164zM1413.801 699.927h171.202v39.375c0 2.592-0.864 3.456-3.456 3.456h-167.745v-42.831zM1413.801 598.095h167.745l3.456 4.32v41.967h-171.202v-46.287zM1579.819 538.97h-166.017v-45.3l161.821 7.653-15.429 22.218 19.626 15.429z" />
<glyph unicode="&#xe90c;" glyph-name="cupn_frame" d="M52.313 311.096c0 2.226 0 4.452 0 6.678-3.339 18.922-14.47 27.826-25.6 30.052v198.122c11.13 1.113 22.261 11.13 25.6 30.052 0 2.226 0 4.452 0 6.678 0 10.017-4.452 21.148-11.13 28.939-5.565 6.678-13.357 8.904-22.261 8.904-4.452 0-7.791-2.226-11.13-5.565-2.226-3.339-4.452-6.678-3.339-11.13 0-6.678 6.678-11.13 12.243-10.017 4.452 0 8.904 4.452 7.791 8.904 1.113 3.339-1.113 6.678-5.565 6.678-1.113 0-1.113 0-1.113-1.113-1.113 0-1.113-1.113-1.113-2.226s1.113-3.339 3.339-3.339c1.113 0 2.226 0 2.226 1.113 0-1.113 0-1.113 0-2.226 0-2.226-2.226-4.452-4.452-5.565-4.452 0-7.791 2.226-8.904 6.678 0 3.339 1.113 5.565 2.226 7.791 2.226 2.226 4.452 3.339 7.791 4.452 8.904 1.113 14.47-3.339 18.922-7.791 7.791-6.678 12.243-20.035 10.017-31.165-4.452-22.261-17.809-27.826-28.939-26.713-7.791 2.226-16.696 7.791-14.47 17.809 0 5.565 5.565 8.904 8.904 8.904 2.226 0 5.565 0 7.791-2.226 0 0-1.113-1.113-1.113-2.226s1.113-3.339 3.339-3.339c1.113 0 2.226 1.113 3.339 2.226s1.113 1.113 0 2.226c-2.226 5.565-7.791 8.904-13.357 7.791-6.678-2.226-12.243-6.678-13.357-13.357-1.113-10.017 6.678-18.922 17.809-21.148 1.113 0 2.226 0 3.339 0v-198.122c-1.113 0-2.226 0-3.339 0-12.243-2.226-20.035-11.13-17.809-21.148 1.113-6.678 5.565-11.13 13.357-13.357 5.565-1.113 12.243 1.113 14.47 5.565 0 1.113 0 1.113 0 2.226s-1.113 2.226-3.339 2.226c-2.226 0-3.339-1.113-3.339-3.339 0-1.113 0-1.113 1.113-2.226-2.226-2.226-5.565-2.226-7.791-2.226-4.452 1.113-8.904 3.339-10.017 10.017-2.226 10.017 6.678 16.696 14.47 17.809 11.13 1.113 24.487-4.452 28.939-26.713 2.226-11.13-2.226-23.374-8.904-31.165-3.339-3.339-10.017-7.791-18.922-7.791-3.339 0-5.565 1.113-7.791 4.452-2.226 2.226-3.339 5.565-2.226 7.791 0 4.452 4.452 6.678 8.904 6.678 3.339 0 4.452-2.226 4.452-5.565 0-1.113 0-1.113-1.113-1.113-1.113 1.113-1.113 1.113-2.226 1.113-2.226 0-3.339-1.113-3.339-3.339 0-1.113 0-2.226 1.113-2.226 0-1.113 1.113-1.113 1.113-1.113 3.339 0 6.678 3.339 6.678 6.678 0 4.452-3.339 8.904-7.791 8.904-6.678 0-12.243-4.452-12.243-10.017 0-4.452 1.113-7.791 3.339-11.13s6.678-4.452 11.13-5.565c7.791-1.113 15.583 2.226 22.261 8.904 5.565 7.791 10.017 18.922 10.017 28.939zM1001.739 348.939c-1.113 0-2.226 0-3.339 0v198.122c1.113 0 2.226 0 3.339 0 12.243 2.226 20.035 11.13 17.809 21.148-1.113 6.678-5.565 11.13-13.357 13.357-5.565 1.113-12.243-1.113-14.47-5.565 0-1.113 0-1.113 0-2.226s1.113-2.226 3.339-2.226c2.226 0 3.339 1.113 3.339 3.339 0 1.113 0 1.113-1.113 2.226 2.226 2.226 5.565 2.226 7.791 2.226 4.452-1.113 8.904-3.339 10.017-10.017 1.113-8.904-6.678-15.583-15.583-16.696-11.13-1.113-24.487 4.452-28.939 26.713-2.226 11.13 2.226 23.374 8.904 31.165 3.339 3.339 10.017 7.791 18.922 7.791 3.339 0 5.565-1.113 7.791-4.452 2.226-2.226 3.339-5.565 2.226-7.791 1.113-5.565-2.226-7.791-6.678-7.791-3.339 0-4.452 2.226-4.452 5.565 0 1.113 0 1.113 1.113 1.113 1.113-1.113 1.113-1.113 2.226-1.113 2.226 0 3.339 1.113 3.339 3.339 0 1.113 0 2.226-1.113 2.226s-1.113 1.113-2.226 1.113c-3.339 0-6.678-3.339-6.678-6.678 0-4.452 3.339-8.904 7.791-8.904 6.678 0 12.243 4.452 12.243 10.017 0 4.452-1.113 7.791-3.339 11.13s-6.678 4.452-11.13 5.565c-7.791 1.113-15.583-2.226-22.261-8.904-6.678-7.791-11.13-17.809-11.13-28.939 0-2.226 0-4.452 0-6.678 3.339-18.922 14.47-27.826 25.6-30.052v-199.235c-11.13-1.113-22.261-11.13-25.6-30.052 0-2.226 0-4.452 0-6.678 0-10.017 4.452-21.148 11.13-28.939 5.565-6.678 13.357-8.904 22.261-8.904 4.452 0 7.791 2.226 11.13 5.565 2.226 3.339 4.452 6.678 3.339 11.13 0 6.678-6.678 11.13-12.243 10.017-4.452 0-8.904-4.452-7.791-8.904 0-3.339 3.339-6.678 6.678-6.678 1.113 0 1.113 0 1.113 1.113 1.113 0 1.113 1.113 1.113 2.226s-1.113 3.339-3.339 3.339c-1.113 0-2.226 0-2.226-1.113 0 0-1.113 1.113-1.113 1.113 0 2.226 2.226 4.452 4.452 5.565 4.452 0 7.791-2.226 8.904-6.678 0-3.339-1.113-5.565-2.226-7.791-2.226-2.226-4.452-3.339-7.791-4.452-8.904-1.113-14.47 3.339-18.922 7.791-7.791 7.791-11.13 21.148-8.904 31.165 4.452 22.261 17.809 27.826 28.939 26.713 7.791-1.113 16.696-7.791 15.583-16.696-1.113-5.565-5.565-8.904-10.017-10.017-2.226 0-5.565 0-7.791 2.226 0 0 1.113 1.113 1.113 2.226s-1.113 3.339-3.339 3.339c-1.113 0-2.226-1.113-3.339-2.226s-1.113-1.113 0-2.226c2.226-4.452 8.904-6.678 14.47-5.565 6.678 1.113 12.243 6.678 13.357 13.357 0 10.017-7.791 18.922-18.922 21.148zM74.574 603.826c2.226 0 4.452 0 6.678 0 20.035 3.339 28.939 14.47 30.052 24.487h798.052c2.226-11.13 11.13-21.148 31.165-24.487 2.226 0 4.452 0 6.678 0 11.13 0 22.261 3.339 28.939 10.017 6.678 5.565 10.017 13.357 8.904 21.148 0 4.452-2.226 7.791-5.565 10.017s-6.678 3.339-11.13 3.339c-6.678 0-11.13-5.565-11.13-12.243 0-4.452 4.452-7.791 10.017-7.791 4.452 0 6.678 3.339 6.678 6.678 0 1.113-1.113 1.113-1.113 1.113-1.113 1.113-1.113 1.113-2.226 1.113-2.226 0-3.339-1.113-3.339-3.339 0-1.113 0-2.226 1.113-2.226 0 0-1.113-1.113-2.226-1.113-2.226 0-5.565 2.226-5.565 4.452 0 4.452 2.226 7.791 6.678 7.791 3.339 0 5.565-1.113 8.904-2.226 2.226-2.226 3.339-4.452 4.452-7.791 1.113-8.904-3.339-14.47-7.791-17.809-7.791-6.678-21.148-11.13-32.278-8.904-23.374 3.339-28.939 17.809-27.826 27.826 1.113 7.791 7.791 15.583 17.809 14.47 6.678-1.113 8.904-5.565 10.017-8.904 0-2.226 0-5.565-2.226-7.791 0 0-1.113 1.113-2.226 1.113-2.226 0-3.339-1.113-3.339-3.339 0-1.113 1.113-2.226 2.226-2.226 1.113-1.113 1.113-1.113 2.226 0 4.452 2.226 7.791 7.791 6.678 14.47s-6.678 11.13-13.357 12.243c-11.13 1.113-20.035-6.678-22.261-17.809 0-1.113 0-2.226 0-3.339h-795.826c0 1.113 0 2.226 0 3.339-2.226 11.13-11.13 18.922-22.261 17.809-6.678-1.113-12.243-5.565-13.357-12.243s1.113-12.243 5.565-14.47c1.113 0 1.113 0 2.226 0s2.226 1.113 2.226 2.226c0 1.113-1.113 3.339-3.339 3.339-1.113 0-1.113 0-2.226-1.113-1.113 3.339-1.113 6.678-1.113 8.904 1.113 3.339 3.339 8.904 10.017 8.904 10.017 2.226 16.696-5.565 17.809-14.47 1.113-10.017-4.452-24.487-27.826-27.826-11.13-1.113-24.487 2.226-32.278 10.017-4.452 3.339-8.904 8.904-7.791 17.809 0 3.339 2.226 5.565 4.452 7.791s5.565 3.339 8.904 2.226c4.452 0 7.791-4.452 6.678-7.791 0-2.226-2.226-4.452-5.565-4.452-1.113 0-1.113 0-2.226 1.113 1.113 0 1.113 1.113 1.113 2.226s-1.113 3.339-3.339 3.339c-1.113 0-2.226 0-2.226-1.113-1.113 0-1.113-1.113-1.113-1.113 0-3.339 3.339-6.678 6.678-6.678 4.452 0 8.904 3.339 10.017 7.791 0 6.678-4.452 12.243-11.13 12.243-4.452 0-7.791-1.113-11.13-3.339-3.339-4.452-4.452-7.791-5.565-12.243 0-7.791 2.226-15.583 8.904-21.148 7.791-6.678 18.922-10.017 30.052-10.017zM944.974 291.061c-2.226 0-4.452 0-6.678 0-20.035-3.339-28.939-13.357-31.165-24.487h-796.939c-2.226 11.13-11.13 21.148-31.165 24.487-2.226 0-4.452 0-6.678 0-11.13 0-22.261-4.452-28.939-10.017s-10.017-13.357-8.904-21.148c0-4.452 2.226-7.791 5.565-10.017s6.678-3.339 11.13-3.339c6.678 0 11.13 5.565 11.13 12.243 0 4.452-4.452 7.791-10.017 7.791-4.452 0-6.678-3.339-6.678-6.678 0-1.113 1.113-1.113 1.113-1.113 1.113-1.113 1.113-1.113 2.226-1.113 2.226 0 3.339 1.113 3.339 3.339 0 1.113 0 2.226-1.113 2.226 0 0 1.113 1.113 2.226 1.113 2.226 0 5.565-2.226 5.565-4.452 0-4.452-2.226-7.791-6.678-7.791-3.339 0-5.565 1.113-8.904 2.226-2.226 2.226-3.339 4.452-4.452 7.791-1.113 8.904 3.339 14.47 7.791 17.809 7.791 6.678 21.148 11.13 32.278 8.904 23.374-3.339 28.939-17.809 27.826-27.826-1.113-7.791-7.791-15.583-17.809-14.47-6.678 1.113-8.904 5.565-10.017 8.904 0 2.226 0 5.565 2.226 7.791 0 0 1.113-1.113 2.226-1.113 2.226 0 3.339 1.113 3.339 3.339 0 1.113-1.113 2.226-2.226 2.226-1.113 1.113-1.113 1.113-2.226 0-4.452-2.226-7.791-7.791-6.678-14.47s6.678-11.13 13.357-12.243c11.13-1.113 20.035 6.678 22.261 17.809 0 1.113 0 2.226 0 3.339h796.939c0-1.113 0-2.226 0-3.339 2.226-11.13 11.13-18.922 22.261-17.809 6.678 1.113 12.243 5.565 13.357 12.243 1.113 5.565-1.113 11.13-6.678 14.47-1.113 0-2.226 0-2.226 0-1.113 0-2.226-1.113-2.226-2.226s1.113-3.339 3.339-3.339c1.113 0 1.113 0 2.226 1.113 2.226-2.226 2.226-5.565 2.226-7.791-1.113-3.339-3.339-8.904-10.017-8.904-10.017-1.113-16.696 6.678-17.809 14.47-1.113 10.017 4.452 24.487 27.826 27.826 11.13 2.226 24.487-2.226 32.278-8.904 4.452-3.339 8.904-8.904 7.791-17.809 0-3.339-2.226-5.565-4.452-7.791s-5.565-3.339-8.904-2.226c-4.452 0-7.791 4.452-6.678 7.791 0 2.226 2.226 4.452 5.565 4.452 1.113 0 1.113 0 2.226-1.113-1.113 0-1.113-1.113-1.113-2.226s1.113-3.339 3.339-3.339c1.113 0 2.226 0 2.226 1.113 1.113 0 1.113 1.113 1.113 1.113 0 3.339-3.339 6.678-6.678 6.678-4.452 0-8.904-3.339-10.017-7.791 0-6.678 4.452-12.243 11.13-12.243 4.452 0 7.791 1.113 11.13 3.339s5.565 6.678 5.565 10.017c1.113 7.791-2.226 15.583-8.904 21.148-8.904 6.678-20.035 10.017-31.165 10.017z" />
<glyph unicode="&#xe90d;" glyph-name="icon_same" d="M1018.072 416.022l-84.435 84.435c14.911 19.043 23.893 42.936 23.893 68.985 0 61.979-50.302 112.101-112.101 112.101-62.159 0-112.46-50.122-112.46-112.101s50.302-112.101 112.101-112.101c25.69 0 49.224 8.803 68.087 23.175l84.615-84.615c1.617-1.617 3.773-2.335 5.749-2.335 2.156 0 4.132 0.719 5.749 2.335l8.444 8.444c1.617 1.617 2.335 3.593 2.335 5.749 0.359 2.335-0.539 4.491-1.976 5.928zM757.58 569.443c0 48.326 39.343 87.489 87.489 87.489 48.326 0 87.489-39.343 87.489-87.489 0-48.326-39.343-87.489-87.489-87.489s-87.489 39.164-87.489 87.489zM368.281 641.662c143.001 0 264.623-73.656 328.399-197.794-63.775-124.138-185.218-197.794-328.399-197.794-143.001 0-264.623 73.656-328.399 197.794 63.775 124.138 185.398 197.794 328.399 197.794zM368.281 677.592c-168.331 0-303.427-93.058-368.281-233.724 64.853-140.486 199.77-233.724 368.281-233.724s303.427 93.058 368.281 233.724c-64.853 140.665-199.77 233.724-368.281 233.724v0zM368.281 546.987c57.128 0 103.658-46.349 103.658-103.119 0-56.949-46.529-103.119-103.658-103.119s-103.658 46.349-103.658 103.119c0 56.949 46.529 103.119 103.658 103.119zM368.281 582.916c-77.069 0-139.587-62.338-139.587-139.048 0-76.89 62.518-139.048 139.587-139.048s139.587 62.338 139.587 139.048c0 76.89-62.518 139.048-139.587 139.048v0z" />
<glyph unicode="&#xe90e;" glyph-name="icon_share2" d="M595.437 823.467l-3.793 136.533 261.689-238.933-254.104-250.311-3.793 128.948c-417.185 45.511-417.185-246.519-417.185-246.519-79.644 527.17 417.185 470.281 417.185 470.281zM212.385 296.296c-26.548-64.474-56.889-113.778-94.815-144.119l-22.756 15.17c41.719 37.926 72.059 83.437 91.022 136.533l26.548-7.585zM273.067 114.252c-11.378-64.474-56.889-121.363-136.533-174.459l-22.756 18.963c87.23 53.096 132.741 117.57 136.533 197.215h-79.644v26.548h265.481c3.793 0 3.793 0 3.793 0 3.793 0 3.793-3.793 3.793-3.793s0 0 0 0c0-113.778-7.585-182.044-15.17-201.007-7.585-15.17-18.963-22.756-34.133-30.341-30.341-11.378-79.644-7.585-140.326 11.378v30.341c64.474-22.756 106.193-26.548 128.948-15.17 7.585 0 15.17 7.585 18.963 15.17s11.378 26.548 11.378 49.304c3.793 72.059 3.793 113.778 3.793 117.57 0 0 0 0-3.793 0h-132.741c-3.793-11.378-3.793-26.548-7.585-41.719zM398.222 345.6c3.793 0 7.585-3.793 11.378-7.585 30.341-75.852 68.267-132.741 113.778-174.459l-22.756-15.17c-37.926 34.133-72.059 91.022-106.193 166.874 0 3.793-3.793 3.793-7.585 3.793h-170.667v26.548h182.044zM713.007 349.393h26.548v-26.548h189.63v-22.756h-405.807v22.756h193.422v26.548zM807.822 129.422h-246.519v26.548h314.785l7.585-30.341-136.533-49.304c3.793-3.793 7.585-11.378 7.585-18.963h166.874v-22.756h-155.496c0-7.585 3.793-11.378 3.793-15.17 3.793-18.963 0-34.133 0-41.719-3.793-11.378-11.378-22.756-22.756-30.341-11.378-11.378-26.548-11.378-45.511-11.378-18.963 3.793-45.511 11.378-79.644 26.548l3.793 30.341c34.133-15.17 60.681-22.756 75.852-26.548 15.17 0 22.756 0 26.548 3.793s7.585 7.585 7.585 11.378c3.793 11.378 3.793 30.341 0 53.096h-212.385v22.756h201.007c-3.793 11.378-15.17 22.756-26.548 37.926l18.963 15.17c3.793-3.793 3.793-7.585 7.585-7.585l83.437 26.548zM576.474 182.519c-3.793 0-3.793 0-3.793 3.793v87.23c0 3.793 0 3.793 3.793 3.793h299.615c3.793 0 3.793 0 3.793-3.793v-87.23c0-3.793 0-3.793-3.793-3.793h-299.615zM599.23 250.785c0 0 0 0 0 0v-41.719c0 0 0 0 0 0h254.104c0 0 3.793 0 3.793 3.793v41.719c0 0 0 0-3.793 0h-254.104z" />
<glyph unicode="&#xe90f;" glyph-name="icon_pictxt" d="M989.867 925.867v-955.733h-955.733v955.733h955.733zM1024 960h-1024v-1024h1024v1024zM443.733 789.333v-273.067h-273.067v273.067h273.067zM477.867 823.467h-341.333v-341.333h341.333v341.333zM443.733 372.907v-273.067h-273.067v273.067h273.067zM477.867 407.040h-341.333v-341.333h341.333v341.333zM552.96 789.333h341.333v-34.133h-341.333v34.133zM552.96 686.933h341.333v-34.133h-341.333v34.133zM552.96 584.533h238.933v-34.133h-238.933v34.133zM552.96 372.907h341.333v-34.133h-341.333v34.133zM552.96 270.507h341.333v-34.133h-341.333v34.133zM552.96 168.107h238.933v-34.133h-238.933v34.133z" />
<glyph unicode="&#xe910;" glyph-name="icon_picview" d="M989.867 925.867v-955.733h-955.733v955.733h955.733zM1024 960h-1024v-1024h1024v1024zM443.733 789.333v-273.067h-273.067v273.067h273.067zM477.867 823.467h-341.333v-341.333h341.333v341.333zM860.16 789.333v-273.067h-273.067v273.067h273.067zM894.293 823.467h-341.333v-341.333h341.333v341.333zM443.733 372.907v-273.067h-273.067v273.067h273.067zM477.867 407.040h-341.333v-341.333h341.333v341.333zM860.16 372.907v-273.067h-273.067v273.067h273.067zM894.293 407.040h-341.333v-341.333h341.333v341.333z" />
<glyph unicode="&#xe925;" glyph-name="icon_track" d="M490.086 653.619c6.349 0 12.493-0.41 18.227-1.434 72.499-11.469 107.52-72.704 112.23-98.918 11.674-63.488-43.827-146.842-78.438-185.958l-1.024-1.229c-41.984-48.947-113.459-97.28-212.787-143.77-115.098 51.814-269.517 165.888-284.058 263.578l-0.205 1.024-0.205 0.819c-0.205 0.614-16.998 95.437 41.779 138.24 28.672 20.89 62.054 25.19 84.992 25.19 47.514 0 98.918-18.022 131.072-46.080l25.19-21.914 26.829 19.866c0.614 0.614 69.837 50.586 136.397 50.586zM490.086 695.194c-82.33 0-161.382-58.573-161.382-58.573-37.683 32.768-98.304 56.115-158.106 56.115-38.912 0-77.414-9.83-109.568-33.178-81.51-59.392-57.958-179.814-57.958-179.814 18.022-121.446 200.704-251.29 325.632-302.694 172.032 78.029 227.942 143.974 243.917 162.611 3.277 3.891 107.315 118.784 88.474 221.184-7.987 44.032-56.115 118.374-146.637 132.506-7.782 1.229-16.179 1.843-24.371 1.843v0zM1024 589.926h-124.314v124.314h-41.37v-124.314h-124.314v-41.37h124.314v-124.314h41.37v124.314h124.314z" />
<glyph unicode="&#xe927;" d="M512 960c283.106 0 512-228.894 512-512s-228.894-512-512-512-512 228.894-512 512 228.894 512 512 512z" />
<glyph unicode="&#xe928;" d="M271.059 538.353h-60.235v-60.235h60.235v-301.176h60.235v481.882h-60.235zM813.176 719.059h-481.882v-60.235h60.235v-481.882h421.647v542.118zM451.765 538.353h120.471v-60.235h-60.235v-180.706h180.706v180.706h-60.235v60.235h120.471v-301.176h-301.176v301.176zM632.471 357.647h-60.235v60.235h60.235v-60.235zM632.471 598.588v60.235h120.471v-60.235h-120.471zM572.235 658.824v-60.235h-120.471v60.235h120.471z" />
<glyph unicode="&#xe92a;" glyph-name="icon_del" d="M512 960c-282.624 0-512-229.376-512-512s229.376-512 512-512c282.624 0 512 229.376 512 512s-229.376 512-512 512zM512 26.624c-232.448 0-421.888 188.928-421.888 421.376s188.928 421.376 421.888 421.376 421.888-188.928 421.888-421.376c0-232.448-189.44-421.376-421.888-421.376zM743.936 652.288l-27.136 27.136c-12.8 12.288-32.768 12.288-45.568 0l-159.232-158.72-159.232 158.72c-12.8 12.288-32.768 12.288-45.568 0l-27.136-27.136c-12.288-12.288-12.288-32.768 0-45.568l159.232-158.72-159.232-158.72c-12.288-12.288-12.288-32.768 0-45.568l27.136-27.136c12.8-12.288 32.768-12.288 45.568 0l159.232 158.72 159.232-159.232c12.288-12.288 32.768-12.288 45.568 0l27.136 27.136c12.8 12.288 12.8 32.768 0 45.568l-159.232 159.232 159.232 159.232c12.288 12.288 12.288 32.768 0 45.056z" />
<glyph unicode="&#xe92b;" glyph-name="icon_search" horiz-adv-x="1022" d="M1013.244 16.134l-300.639 300.101c52.706 67.765 84.437 152.739 84.437 245.244 0.538 219.966-178.017 398.521-397.983 398.521-220.504 0-399.059-178.555-399.059-398.521s178.555-398.521 399.059-398.521c91.429 0 175.328 31.193 242.555 82.824l300.639-300.639c5.916-5.916 12.908-8.605 20.437-8.605s15.059 2.689 20.437 8.605l30.118 30.118c5.378 5.378 8.605 12.908 8.605 20.437s-3.227 15.059-8.605 20.437zM87.664 561.479c0 171.563 139.832 310.857 311.395 310.857s311.395-139.294 311.395-310.857c0-171.563-139.832-310.857-311.395-310.857-172.101-0.538-311.395 139.294-311.395 310.857z" />
<glyph unicode="&#xe92c;" glyph-name="icon_cart" d="M868.693 942.933l-49.152-203.093h-819.541l118.101-537.6h634.88l174.080 663.893h96.939v76.8h-155.307zM693.931 279.040h-514.048l-84.309 384h701.099l-102.741-384zM263.851 123.733c-42.325 0-76.8-34.475-76.8-76.8s34.475-76.8 76.8-76.8 76.8 34.475 76.8 76.8c0.341 42.325-34.475 76.8-76.8 76.8zM620.885 123.733c-42.325 0-76.8-34.475-76.8-76.8s34.475-76.8 76.8-76.8 76.8 34.475 76.8 76.8c0 42.325-34.475 76.8-76.8 76.8z" />
<glyph unicode="&#xe92e;" glyph-name="icon_friday_logo_min" d="M1002.4 713.92l-28.64 91.52c-12.16 38.88-35.36 58.56-69.12 58.56-12 0-25.6-2.56-40.16-7.68l-803.52-279.2c-28.32-9.92-46.88-24-55.36-42.24-8.16-17.44-7.36-39.2 2.56-64.8l34.4-89.44c71.52-186.88 194.56-268.64 285.12-304.32 61.12-23.84 129.44-36.64 197.44-36.64v0c57.12 0 113.92 9.12 163.68 26.56 261.28 90.56 398.88 375.2 313.6 647.68zM520.32 214.080c-43.040 0-86.080 8-124.16 22.56-61.12 23.84-142.72 77.44-184.64 197.76l-4 11.52 620.8 215.68 4-11.52c8.48-24.8 26.080-108.96 3.2-200.48-26.72-106.4-95.84-179.68-205.76-217.76-33.6-11.68-71.36-17.76-109.44-17.76z" />
<glyph unicode="&#xe92f;" glyph-name="icon_refresh" horiz-adv-x="1023" d="M722.991 114.334c-164.135-92.007-374.842-36.348-469.688 123.811l134.034 75.536-319.184 102.798-68.153-320.319 134.034 75.536c133.466-224.337 428.796-302.145 657.677-173.79 111.317 62.474 190.829 163.567 223.201 285.107l-132.899 34.644c-22.718-86.327-79.512-158.456-159.024-203.323zM299.874 781.666c164.135 92.007 374.842 36.348 469.688-123.811l-134.034-75.536 319.184-102.23 68.153 320.319-134.034-75.536c-133.466 223.769-428.796 301.577-658.245 173.222-111.317-62.474-190.829-163.567-223.201-285.107l132.899-34.644c23.286 86.327 80.080 159.024 159.592 203.323z" />
<glyph unicode="&#xe931;" glyph-name="icon_track_plus" d="M765.76 848c-128.64 0-252.16-91.52-252.16-91.52-58.88 51.2-153.6 87.68-247.040 87.68-60.8 0-120.96-15.36-171.2-51.84-127.36-92.8-90.56-280.96-90.56-280.96 28.16-189.76 313.6-392.64 508.8-472.96 268.8 121.92 356.16 224.96 381.12 254.080 5.12 6.080 167.68 185.6 138.24 345.6-12.48 68.8-87.68 184.96-229.12 207.040-12.16 1.92-25.28 2.88-38.080 2.88v0z" />
<glyph unicode="&#xe933;" glyph-name="icon_check" d="M986.764 841.775c-46.545 39.098-113.571 31.651-150.807-17.687l-394.705-517.585-257.862 270.895c-41.891 43.753-109.847 43.753-151.738 0s-41.891-116.364 0-160.116l327.68-345.367c5.585-9.309 13.033-17.687 21.411-25.135 44.684-37.236 108.916-31.651 147.084 12.102 2.793 2.793 4.655 5.585 7.447 8.378l468.247 615.331c36.305 49.338 28.858 120.087-16.756 159.185z" />
<glyph unicode="&#xe934;" glyph-name="icon_account" d="M509.724 447.431c138.809 0 251.449 114.916 251.449 256.569 0 141.084-112.64 256-251.449 256s-251.449-114.916-251.449-256.569c0-141.084 112.071-256 251.449-256zM509.156 320.569c-223.573 0-452.267-117.191-452.267-335.076v-48.924h904.533v48.924c0 217.884-228.124 335.076-452.267 335.076z" />
<glyph unicode="&#xe935;" glyph-name="icon_share1" d="M886.154-64v669.538h-244.185v-35.446h208.738v-598.646h-677.415v598.646h208.738v35.446h-244.185v-669.538zM512 960v0 0l-185.108-185.108 27.569-27.569 137.846 137.846v-594.708h39.385v594.708l137.846-137.846 27.569 27.569z" />
<glyph unicode="&#xe936;" glyph-name="icon_allcate" d="M0 789.333h1024v-113.778h-1024v113.778zM0 504.889h1024v-113.778h-1024v113.778zM0 220.444h1024v-113.778h-1024v113.778z" />
<glyph unicode="&#xe937;" glyph-name="icon_star" d="M512 928l158.080-316.16 353.92-50.56-256-245.76 60.8-347.52-316.8 164.48-316.16-164.48 60.16 347.52-256 245.76 353.92 50.56 158.080 316.16z" />
<glyph unicode="&#xe938;" glyph-name="cart_arrow" d="M419.84 960v-703.767l-373.295 336.989v-238.313l467.316-420.771 467.316 420.771v238.313l-374.225-336.989v703.767h-187.113z" />
<glyph unicode="&#xe93a;" glyph-name="icon_swiper_next" d="M350.953-62.138l463.593 511.069-463.593 511.069h-141.498l463.593-511.069-463.593-511.069h141.498z" />
<glyph unicode="&#xe93c;" glyph-name="icon_swiper_prev" d="M814.545-62.138l-463.593 511.069 463.593 511.069h-141.498l-463.593-511.069 463.593-511.069h141.498z" />
<glyph unicode="&#xe93d;" glyph-name="cupn_arrow" d="M0 374.857h716.8l-321.829-292.571h226.743l402.286 365.714-402.286 365.714h-226.743l321.829-292.571h-716.8v-146.286z" />
<glyph unicode="&#xe93e;" glyph-name="icon_more" d="M0 732.444l512-378.88 512 378.88v-190.009l-512-380.018-512 380.018v190.009z" />
<glyph unicode="&#xe93f;" glyph-name="icon_arrow" d="M227.556-64l378.88 512-378.88 512h190.009l378.88-512-378.88-512h-190.009z" />
<glyph unicode="&#xe940;" glyph-name="icon_ab" d="M1024 521.143h-438.857v438.857h-146.286v-438.857h-438.857v-146.286h438.857v-438.857h146.286v438.857h438.857z" />
<glyph unicode="&#xe941;" glyph-name="icon_plus" d="M1024 533.333h-426.667v426.667h-170.667v-426.667h-426.667v-170.667h426.667v-426.667h170.667v426.667h426.667z" />
<glyph unicode="&#xe942;" glyph-name="icon_minus" d="M0 533.333h1024v-170.667h-1024v170.667z" />
</font>
</defs>
</svg>
