<?xml version="1.0" encoding="utf-8"?>
<!-- Generator: Adobe Illustrator 16.0.0, SVG Export Plug-In . SVG Version: 6.00 Build 0)  -->
<!DOCTYPE svg PUBLIC "-//W3C//DTD SVG 1.1//EN" "http://www.w3.org/Graphics/SVG/1.1/DTD/svg11.dtd">
<svg version="1.1" id="account" xmlns="http://www.w3.org/2000/svg" xmlns:xlink="http://www.w3.org/1999/xlink" x="0px" y="0px"
	 width="60.378px" height="56.693px" viewBox="0 0 60.378 56.693" enable-background="new 0 0 60.378 56.693" xml:space="preserve">
<g>
	<path fill="#fff" d="M30.191,2.314c5.915,0,10.726,4.995,10.726,11.135c0,6.141-4.812,11.137-10.726,11.137
		c-5.915,0-10.728-4.996-10.728-11.137C19.463,7.31,24.276,2.314,30.191,2.314 M30.191,0.314c-7.03,0-12.728,5.881-12.728,13.135
		s5.697,13.137,12.728,13.137c7.029,0,12.726-5.883,12.726-13.137S37.22,0.314,30.191,0.314L30.191,0.314z"/>
	<path fill="#fff" d="M30.189,32.772c10.229,0,20.55,4.477,20.55,14.477v7.129H9.638v-7.129
		C9.638,37.249,19.96,32.772,30.189,32.772 M30.189,30.772c-12.052,0-22.551,5.754-22.551,16.477v9.129h45.101v-9.129
		C52.739,36.526,42.239,30.772,30.189,30.772L30.189,30.772z"/>
</g>
</svg>
