<?xml version="1.0" encoding="utf-8"?>
<!-- Generator: Adobe Illustrator 26.3.1, SVG Export Plug-In . SVG Version: 6.00 Build 0)  -->
<svg version="1.1" id="圖層_1" xmlns="http://www.w3.org/2000/svg" xmlns:xlink="http://www.w3.org/1999/xlink" x="0px" y="0px"
	 viewBox="0 0 18 16" style="enable-background:new 0 0 18 16;" xml:space="preserve">
<style type="text/css">
	.st0{fill:#FFFFFF;}
</style>
<path class="st0" d="M16.9,16H1.1C0.5,16,0,15.5,0,14.9V3.4c0-0.6,0.5-1.1,1.1-1.1h5.6c0.6,0,1.1,0.5,1.1,1.1S7.4,4.6,6.7,4.6H2.2
	v9.1h13.5V9.1c0-0.6,0.5-1.1,1.1-1.1C17.5,8,18,8.5,18,9.1v5.7C18,15.5,17.5,16,16.9,16z M11.1,11.1c-0.1,0.1-0.3,0.2-0.5,0.3
	l-3.5,1.1c-0.1,0-0.2,0.1-0.3,0.1c-0.3,0-0.6-0.1-0.8-0.3c-0.3-0.3-0.4-0.7-0.3-1.2l1.1-3.6C6.9,7.3,7,7.2,7.1,7.1l6.6-6.7
	c0.4-0.4,1.2-0.4,1.6,0l2.4,2.4c0.4,0.4,0.4,1.2,0,1.6L11.1,11.1z M14.5,2.8L8.9,8.5L8.5,9.7l1.2-0.4l5.6-5.7L14.5,2.8z"/>
</svg>
