<?xml version="1.0" encoding="utf-8"?>
<!-- Generator: Adobe Illustrator 16.0.0, SVG Export Plug-In . SVG Version: 6.00 Build 0)  -->
<!DOCTYPE svg PUBLIC "-//W3C//DTD SVG 1.1//EN" "http://www.w3.org/Graphics/SVG/1.1/DTD/svg11.dtd">
<svg version="1.1" id="圖層_1" xmlns="http://www.w3.org/2000/svg" xmlns:xlink="http://www.w3.org/1999/xlink" x="0px" y="0px"
	 width="35.024px" height="35.09px" viewBox="0 0 35.024 35.09" enable-background="new 0 0 35.024 35.09" xml:space="preserve">
<g>
	<path fill="none" d="M24.336,13.663C24.336,7.783,19.551,3,13.669,3C7.786,3,3,7.783,3,13.663c0,5.878,4.786,10.662,10.669,10.662
		C19.551,24.324,24.336,19.541,24.336,13.663z"/>
	<path fill="#666666" d="M34.73,32.35L24.434,22.059c1.813-2.316,2.902-5.226,2.902-8.396C27.336,6.118,21.217,0,13.669,0
		C6.12,0,0,6.118,0,13.663c0,7.544,6.12,13.662,13.669,13.662c3.128,0,6.001-1.063,8.306-2.83l10.309,10.303
		c0.195,0.195,0.451,0.293,0.707,0.293s0.512-0.098,0.707-0.293l1.033-1.031c0.188-0.188,0.293-0.441,0.293-0.707
		S34.918,32.539,34.73,32.35z M3,13.663C3,7.783,7.786,3,13.669,3c5.882,0,10.667,4.783,10.667,10.663
		c0,5.878-4.785,10.662-10.667,10.662C7.786,24.324,3,19.541,3,13.663z"/>
</g>
</svg>
