<?xml version="1.0" encoding="utf-8"?>
<!-- Generator: Adobe Illustrator 15.1.0, SVG Export Plug-In . SVG Version: 6.00 Build 0)  -->
<!DOCTYPE svg PUBLIC "-//W3C//DTD SVG 1.1//EN" "http://www.w3.org/Graphics/SVG/1.1/DTD/svg11.dtd">
<svg version="1.1" id="圖層_1" xmlns="http://www.w3.org/2000/svg" xmlns:xlink="http://www.w3.org/1999/xlink" x="0px" y="0px"
	 width="29px" height="29px" viewBox="0 0 29 29" enable-background="new 0 0 29 29" xml:space="preserve">
<rect x="-0.042" fill="#006546" width="29.042" height="29"/>
<g>
	<defs>
		<path id="SVGID_1_" d="M3.955,0C1.77,0,0,1.77,0,3.955v21.09C0,27.23,1.77,29,3.955,29h21.09C27.23,29,29,27.23,29,25.045V3.955
			C29,1.77,27.23,0,25.045,0H3.955z"/>
	</defs>
	<clipPath id="SVGID_2_">
		<use xlink:href="#SVGID_1_"  overflow="visible"/>
	</clipPath>
	<rect y="-0.572" clip-path="url(#SVGID_2_)" fill="#006546" width="29.042" height="30.143"/>
	<path clip-path="url(#SVGID_2_)" fill="#FFFFFF" d="M18.132,26.604v1.131h-6.966v-1.132H5.894c-0.516,0-0.934-0.539-0.934-1.202
		L2.755,3.095c0-0.664,0.513-1.202,1.147-1.202h21.299c0.635,0,1.148,0.538,1.148,1.202l-2.18,22.307
		c0,0.663-0.419,1.202-0.936,1.202L18.132,26.604z"/>
	<path clip-path="url(#SVGID_2_)" fill="#FF6600" d="M6.631,5.158h14.263c-1.404,0.527-5.68,3.42-6.747,5.366h-7.5L6.631,5.158z"/>
	<path clip-path="url(#SVGID_2_)" fill="#FE000C" d="M17.998,20.533c-0.203,1.942-0.211,4.31-0.211,6.794h-6.183
		c0-2.484,0.102-4.852,0.305-6.794H17.998z"/>
	<polygon clip-path="url(#SVGID_2_)" fill="#006546" points="6.177,16.078 8.436,16.078 8.436,16.972 7.447,16.972 7.447,17.725 
		8.436,17.725 8.436,18.479 7.447,18.479 7.447,19.231 8.436,19.231 8.436,20.095 6.177,20.095 	"/>
	<polygon clip-path="url(#SVGID_2_)" fill="#006546" points="11.433,16.078 13.691,16.078 13.691,16.972 12.704,16.972 
		12.704,17.725 13.691,17.725 13.691,18.479 12.704,18.479 12.704,19.231 13.691,19.231 13.691,20.095 11.433,20.095 	"/>
	<polygon clip-path="url(#SVGID_2_)" fill="#006546" points="17.222,16.078 19.481,16.078 19.481,16.972 18.492,16.972 
		18.492,17.725 19.481,17.725 19.481,18.479 18.492,18.479 18.492,19.231 19.481,19.231 19.481,20.095 17.222,20.095 	"/>
	<polygon clip-path="url(#SVGID_2_)" fill="#006546" points="10.13,19.231 11.118,19.231 11.118,20.095 8.859,20.095 8.859,16.077 
		10.13,16.077 	"/>
	<polygon clip-path="url(#SVGID_2_)" fill="#006546" points="13.922,16.078 14.553,20.095 16.187,20.095 16.95,16.078 
		16.006,16.078 15.512,18.792 15.032,16.078 	"/>
	<rect x="20.014" y="16.078" clip-path="url(#SVGID_2_)" fill="#006546" width="1.225" height="4.017"/>
	<path clip-path="url(#SVGID_2_)" fill="#006546" d="M21.238,17.271c0.063-0.44,0.691-0.322,0.691-0.071v2.896h1.223v-3.405
		c0-0.722-1.02-1.012-1.906-0.376"/>
	<path clip-path="url(#SVGID_2_)" fill="#FE000C" d="M18.571,15.513c0.125-1.537,2.229-4.048,4.269-4.707v-5.93
		c-5.61,2.51-9.258,6.307-10.047,10.623L18.571,15.513z"/>
	<path clip-path="url(#SVGID_2_)" fill="#006546" d="M20.198,22.241c-0.158,0.158-0.35,0.238-0.574,0.238s-0.417-0.08-0.574-0.238
		c-0.156-0.158-0.234-0.351-0.234-0.575c0-0.223,0.079-0.413,0.237-0.572c0.157-0.156,0.348-0.235,0.571-0.235
		c0.225,0,0.416,0.079,0.574,0.235c0.158,0.157,0.238,0.349,0.238,0.572S20.356,22.082,20.198,22.241 M19.129,21.174
		c-0.136,0.137-0.203,0.3-0.203,0.493c0,0.194,0.067,0.359,0.203,0.496s0.3,0.205,0.494,0.205c0.195,0,0.359-0.068,0.496-0.205
		c0.135-0.137,0.203-0.302,0.203-0.496c0-0.193-0.068-0.356-0.203-0.493c-0.138-0.136-0.303-0.205-0.496-0.205
		C19.432,20.969,19.267,21.038,19.129,21.174 M19.609,21.218c0.11,0,0.191,0.012,0.243,0.032c0.092,0.038,0.139,0.114,0.139,0.227
		c0,0.078-0.029,0.138-0.087,0.176c-0.03,0.019-0.073,0.034-0.128,0.042c0.068,0.011,0.119,0.041,0.15,0.088
		c0.032,0.047,0.049,0.093,0.049,0.138v0.065c0,0.02,0,0.042,0.002,0.065c0.001,0.023,0.004,0.039,0.008,0.046l0.006,0.013h-0.147
		c0-0.004-0.001-0.006-0.002-0.009c0-0.004-0.001-0.008-0.002-0.011l-0.002-0.028v-0.07c0-0.104-0.028-0.171-0.085-0.204
		c-0.034-0.019-0.092-0.029-0.176-0.029h-0.124v0.352h-0.156v-0.892H19.609z M19.78,21.362c-0.04-0.022-0.104-0.033-0.192-0.033
		h-0.135v0.318h0.144c0.066,0,0.116-0.007,0.15-0.02c0.062-0.023,0.093-0.07,0.093-0.138C19.84,21.427,19.82,21.384,19.78,21.362"/>
</g>
</svg>
