<?xml version="1.0" encoding="utf-8"?>
<!-- Generator: Adobe Illustrator 19.2.1, SVG Export Plug-In . SVG Version: 6.00 Build 0)  -->
<svg version="1.1" id="圖層_1" xmlns="http://www.w3.org/2000/svg" xmlns:xlink="http://www.w3.org/1999/xlink" x="0px" y="0px"
	 viewBox="0 0 20 20" style="enable-background:new 0 0 20 20;" xml:space="preserve">
<style type="text/css">
	.st0{fill:none;}
	.st1{fill:#009E41;}
	.st2{fill:#008BD5;}
</style>
<g>
	<rect x="0" class="st0" width="19.4" height="19.4"/>
	<g>
		<rect x="0" class="st0" width="19.4" height="14.4"/>
		<rect x="0" class="st1" width="19.4" height="6.5"/>
		<rect x="0" y="7.9" class="st2" width="19.4" height="6.5"/>
	</g>
	<g>
		<polygon class="st2" points="0,16.4 0,19.4 0.6,19.4 0.6,18.1 1.9,18.1 1.9,17.5 0.6,17.5 0.6,17 1.9,17 1.9,16.4 		"/>
		<path class="st2" d="M3.7,19c0-0.3,0-0.7,0-1c0-0.3-0.2-0.7-0.9-0.7c-0.3,0-0.5,0.1-0.7,0.1v0.5c0.2-0.1,0.4-0.2,0.6-0.2
			c0.2,0,0.4,0.1,0.4,0.3c0,0,0,0,0,0c-0.1,0-0.2-0.1-0.3-0.1C2.3,18,2,18.3,2,18.8c0,0.5,0.4,0.7,0.7,0.7c0.2,0,0.4-0.1,0.5-0.2
			c0,0.1,0,0.1,0,0.1h0.6C3.8,19.4,3.7,19.3,3.7,19z M2.5,18.7c0-0.2,0.1-0.3,0.4-0.3c0.1,0,0.2,0,0.3,0.1c0,0.1,0,0.3,0,0.4
			C3.1,18.9,3,19,2.8,19C2.7,19,2.5,18.9,2.5,18.7z"/>
		<path class="st2" d="M16.3,19c0-0.3,0-0.7,0-1c0-0.3-0.2-0.7-0.9-0.7c-0.3,0-0.5,0.1-0.7,0.1v0.5c0.2-0.1,0.4-0.2,0.6-0.2
			c0.2,0,0.4,0.1,0.4,0.3c0,0,0,0,0,0c-0.1,0-0.2-0.1-0.3-0.1c-0.5,0-0.8,0.3-0.8,0.8c0,0.5,0.4,0.7,0.7,0.7c0.2,0,0.4-0.1,0.5-0.2
			c0,0.1,0,0.1,0,0.1h0.6C16.4,19.4,16.3,19.3,16.3,19z M15.1,18.7c0-0.2,0.1-0.3,0.4-0.3c0.1,0,0.2,0,0.3,0.1c0,0.1,0,0.3,0,0.4
			c-0.1,0.1-0.2,0.1-0.3,0.1C15.2,19,15.1,18.9,15.1,18.7z"/>
		<path class="st2" d="M6.3,17.3c-0.3,0-0.4,0.1-0.6,0.2c-0.1-0.2-0.3-0.2-0.5-0.2c-0.2,0-0.4,0.1-0.5,0.2v-0.2H4.1v2.1h0.6V18
			c0.1-0.1,0.2-0.2,0.3-0.2c0.2,0,0.3,0.1,0.3,0.3v1.3h0.6V18c0.1-0.1,0.2-0.1,0.3-0.1c0.2,0,0.3,0.1,0.3,0.3v1.3H7V18
			C7,17.6,6.7,17.3,6.3,17.3z"/>
		<rect x="8.4" y="16.4" class="st2" width="0.6" height="3"/>
		<polygon class="st2" points="12.9,17.4 12.1,16.4 11.5,16.4 11.5,19.4 12.1,19.4 12.1,17.4 12.9,18.4 13.6,17.4 13.6,19.4 
			14.3,19.4 14.3,16.4 13.6,16.4 		"/>
		<rect x="7.4" y="17.3" class="st2" width="0.6" height="2.1"/>
		<circle class="st2" cx="7.7" cy="16.7" r="0.4"/>
		<path class="st2" d="M17.2,17.5v-0.2h-0.6v2.1h0.6v-1.3c0.1-0.1,0.2-0.2,0.4-0.2c0.2,0,0.3,0.1,0.3,0.1v-0.6
			c-0.1-0.1-0.2-0.1-0.3-0.1C17.5,17.3,17.3,17.4,17.2,17.5z"/>
		<path class="st2" d="M19.2,18.9c-0.2,0-0.3-0.1-0.3-0.3v-0.7h0.5v-0.6h-0.5v-0.8l-0.6,0.2v0.6h-0.3v0.6h0.3v0.8
			c0,0.4,0.2,0.8,0.7,0.8c0.2,0,0.3,0,0.4-0.1v-0.6C19.4,18.9,19.3,18.9,19.2,18.9z"/>
		<polygon class="st2" points="9.7,20 10.3,20 11.3,17.3 10.7,17.3 10.2,18.5 9.8,17.3 9.1,17.3 9.9,19.3 		"/>
	</g>
</g>
</svg>
