<svg xmlns="http://www.w3.org/2000/svg" viewBox="0 0 19.08 22.39"><defs><style>.cls-1{fill:none;stroke:#040000;stroke-linecap:round;stroke-linejoin:round;stroke-width:1.09px;}.cls-2{fill:#040000;}</style></defs><g id="圖層_2" data-name="圖層 2"><g id="圖層_1-2" data-name="圖層 1"><path class="cls-1" d="M12.46,20.49c6.08-.72,6.08-5.35,6.08-5.35V6.59c0-4.89-6.29-7-10.26-5.63A6.68,6.68,0,0,0,4,5.55a11.55,11.55,0,0,0-.21,2.69q0,3,0,6A4.58,4.58,0,0,1,.64,11.1a3.73,3.73,0,0,1,1.64-4,9.56,9.56,0,0,1,2.4-.75A11.14,11.14,0,0,0,8,4.85,3.13,3.13,0,0,0,9.55,3c.44,1.84,2.93,2.45,4.5,2.75,0,0,2.48.16,3.57-1.3"/><path class="cls-1" d="M12.52,20.22a1.63,1.63,0,1,1-1.63-1.63A1.63,1.63,0,0,1,12.52,20.22Z"/><circle class="cls-2" cx="8.66" cy="9.11" r="1.1"/><circle class="cls-2" cx="13.78" cy="9.11" r="1.1"/><path class="cls-1" d="M8,13.05a3.38,3.38,0,0,0,3.2,2,3.07,3.07,0,0,0,2.94-2"/></g></g></svg>