<?xml version="1.0" encoding="utf-8"?>
<!-- Generator: Adobe Illustrator 16.0.0, SVG Export Plug-In . SVG Version: 6.00 Build 0)  -->
<!DOCTYPE svg PUBLIC "-//W3C//DTD SVG 1.1//EN" "http://www.w3.org/Graphics/SVG/1.1/DTD/svg11.dtd">
<svg version="1.1" id="圖層_1" xmlns="http://www.w3.org/2000/svg" xmlns:xlink="http://www.w3.org/1999/xlink" x="0px" y="0px"
	 width="60px" height="60px" viewBox="0 0 60 60" enable-background="new 0 0 60 60" xml:space="preserve">
<g>
	<path d="M29.984,1.998v2c2.264,0,4.534,0.3,6.744,0.893c13.844,3.709,22.089,17.991,18.381,31.836
		c-3.042,11.347-13.36,19.272-25.09,19.272c-2.265,0-4.535-0.3-6.745-0.893C9.429,51.396,1.185,37.114,4.893,23.269
		C7.934,11.922,18.251,3.998,29.983,3.997L29.984,1.998 M29.983,1.998C17.624,1.999,6.313,10.246,2.961,22.752
		c-4,14.934,4.861,30.284,19.795,34.285c2.427,0.65,4.864,0.961,7.262,0.961c12.358,0,23.67-8.25,27.022-20.754
		c4-14.934-4.862-30.284-19.795-34.285C34.818,2.308,32.381,1.998,29.983,1.998L29.983,1.998z"/>
	<g>
		<g>
			<path fill-rule="evenodd" clip-rule="evenodd" d="M15.993,16.934v3.732h28.016v-3.732H15.993z M15.993,31.862h28.016V28.13
				H15.993V31.862z M15.993,43.062h28.016v-3.732H15.993V43.062z"/>
		</g>
	</g>
</g>
</svg>
