<?xml version="1.0" encoding="utf-8"?>
<!-- Generator: Adobe Illustrator 16.0.0, SVG Export Plug-In . SVG Version: 6.00 Build 0)  -->
<!DOCTYPE svg PUBLIC "-//W3C//DTD SVG 1.1//EN" "http://www.w3.org/Graphics/SVG/1.1/DTD/svg11.dtd">
<svg version="1.1" id="圖層_1" xmlns="http://www.w3.org/2000/svg" xmlns:xlink="http://www.w3.org/1999/xlink" x="0px" y="0px"
	 width="60px" height="60px" viewBox="0 0 60 60" enable-background="new 0 0 60 60" xml:space="preserve">
<g>
	<path fill="#FFFFFF" d="M29.982,1.653v2c2.295,0,4.594,0.304,6.834,0.904c14.028,3.759,22.384,18.23,18.626,32.26
		C52.36,48.315,41.905,56.346,30.017,56.346c-2.295,0-4.594-0.304-6.833-0.904C9.155,51.684,0.8,37.212,4.558,23.182
		C7.639,11.684,18.094,3.654,29.981,3.653L29.982,1.653 M29.981,1.653c-12.512,0-23.962,8.35-27.355,21.011
		c-4.05,15.119,4.921,30.659,20.04,34.71c2.456,0.658,4.924,0.972,7.351,0.972c12.513,0,23.964-8.35,27.357-21.011
		c4.05-15.119-4.922-30.658-20.04-34.709C34.877,1.968,32.41,1.653,29.981,1.653L29.981,1.653z"/>
	<path fill="#FFFFFF" d="M33.313,49.256V33.563h6.556l0.98-7.458h-7.536v-4.763c0-2.159,0.612-3.632,3.772-3.632l4.029-0.001v-6.67
		c-0.696-0.092-3.089-0.296-5.872-0.296c-5.811,0-9.787,3.478-9.787,9.861v5.5h-6.572v7.458h6.572v15.693H33.313z"/>
</g>
</svg>
