<?xml version="1.0" encoding="utf-8"?>
<!-- Generator: Adobe Illustrator 16.0.0, SVG Export Plug-In . SVG Version: 6.00 Build 0)  -->
<!DOCTYPE svg PUBLIC "-//W3C//DTD SVG 1.1//EN" "http://www.w3.org/Graphics/SVG/1.1/DTD/svg11.dtd">
<svg version="1.1" id="圖層_1" xmlns="http://www.w3.org/2000/svg" xmlns:xlink="http://www.w3.org/1999/xlink" x="0px" y="0px"
	 width="60px" height="60px" viewBox="0 0 60 60" enable-background="new 0 0 60 60" xml:space="preserve">
<g>
	<path fill="#FFFFFF" d="M25.401,5.74c11.195,0,20.303,9.114,20.303,20.315c0,11.203-9.107,20.317-20.303,20.317
		C14.208,46.373,5.1,37.258,5.1,26.056C5.1,14.854,14.208,5.74,25.401,5.74 M25.401,3.24C12.809,3.24,2.6,13.455,2.6,26.056
		s10.209,22.817,22.801,22.817c12.594,0,22.803-10.216,22.803-22.817S37.995,3.24,25.401,3.24L25.401,3.24z"/>
	<g>
		
			<rect x="37.106" y="45.646" transform="matrix(0.7069 0.7073 -0.7073 0.7069 47.7672 -20.1558)" fill="#FFFFFF" width="22.196" height="3.825"/>
	</g>
</g>
</svg>
