<?xml version="1.0" encoding="utf-8"?>
<!-- Generator: Adobe Illustrator 16.0.0, SVG Export Plug-In . SVG Version: 6.00 Build 0)  -->
<!DOCTYPE svg PUBLIC "-//W3C//DTD SVG 1.1//EN" "http://www.w3.org/Graphics/SVG/1.1/DTD/svg11.dtd">
<svg version="1.1" id="圖層_1" xmlns="http://www.w3.org/2000/svg" xmlns:xlink="http://www.w3.org/1999/xlink" x="0px" y="0px"
	 width="60px" height="60px" viewBox="0 0 60 60" enable-background="new 0 0 60 60" xml:space="preserve">
<g>
	<path fill="#FFFFFF" d="M29.982,1.653v2c2.295,0,4.594,0.304,6.834,0.904c14.028,3.759,22.384,18.23,18.626,32.26
		C52.36,48.315,41.905,56.346,30.017,56.346c-2.295,0-4.594-0.304-6.833-0.904C9.155,51.684,0.8,37.212,4.558,23.182
		C7.64,11.684,18.094,3.654,29.981,3.653L29.982,1.653 M29.981,1.653c-12.512,0-23.962,8.35-27.355,21.011
		c-4.05,15.119,4.921,30.659,20.04,34.71c2.456,0.658,4.923,0.972,7.351,0.972c12.513,0,23.964-8.35,27.357-21.011
		c4.05-15.119-4.922-30.658-20.04-34.709C34.877,1.968,32.409,1.653,29.981,1.653L29.981,1.653z"/>
	<g>
		<g>
			<path fill-rule="evenodd" clip-rule="evenodd" fill="#FFFFFF" d="M44.124,15.834c-1.768-1.771-4.207-2.872-6.892-2.872H22.768
				c-2.685,0-5.124,1.101-6.892,2.872c-1.767,1.772-2.863,4.22-2.863,6.912v14.507c0,2.693,1.097,5.141,2.863,6.912
				c1.768,1.772,4.207,2.872,6.892,2.872h14.465c2.685,0,5.124-1.1,6.892-2.872c1.767-1.771,2.863-4.219,2.863-6.912V22.746
				C46.987,20.054,45.891,17.606,44.124,15.834z M43.48,37.253c0,1.722-0.704,3.288-1.837,4.425s-2.695,1.843-4.411,1.843H22.768
				c-1.716,0-3.278-0.706-4.411-1.843s-1.837-2.703-1.837-4.425V22.746c0-1.721,0.704-3.287,1.837-4.424
				c1.133-1.136,2.695-1.842,4.411-1.842h14.465c1.716,0,3.278,0.706,4.411,1.842c1.133,1.137,1.837,2.703,1.837,4.424V37.253z
				 M30,20.819c-2.527,0-4.815,1.028-6.472,2.689c-1.656,1.66-2.682,3.956-2.682,6.491c0,2.534,1.025,4.83,2.682,6.491
				c1.656,1.66,3.944,2.688,6.472,2.688s4.815-1.028,6.472-2.688c1.656-1.661,2.682-3.957,2.682-6.491
				c0-2.535-1.025-4.83-2.682-6.491S32.527,20.819,30,20.819z M33.991,34.003c-1.021,1.025-2.433,1.659-3.991,1.659
				c-1.56,0-2.971-0.634-3.991-1.659c-1.021-1.024-1.654-2.439-1.654-4.003s0.633-2.979,1.654-4.004
				c1.021-1.023,2.433-1.658,3.991-1.658s2.971,0.635,3.991,1.658c1.021,1.025,1.654,2.44,1.654,4.004S35.013,32.979,33.991,34.003z
				 M38.833,19.029c-1.311,0-2.373,1.065-2.373,2.379c0,1.315,1.063,2.38,2.373,2.38s2.373-1.064,2.373-2.38
				C41.206,20.095,40.144,19.029,38.833,19.029z"/>
		</g>
	</g>
</g>
</svg>
