<?xml version="1.0" encoding="utf-8"?>
<!-- Generator: Adobe Illustrator 16.0.0, SVG Export Plug-In . SVG Version: 6.00 Build 0)  -->
<!DOCTYPE svg PUBLIC "-//W3C//DTD SVG 1.1//EN" "http://www.w3.org/Graphics/SVG/1.1/DTD/svg11.dtd">
<svg version="1.1" id="圖層_2" xmlns="http://www.w3.org/2000/svg" xmlns:xlink="http://www.w3.org/1999/xlink" x="0px" y="0px"
	 width="86.457px" height="86.452px" viewBox="0 0 86.457 86.452" enable-background="new 0 0 86.457 86.452" xml:space="preserve">
<g>
	<path fill="#FFFFFF" d="M43.199,2.771c14.447,0,27.906,7.765,35.123,20.264c5.41,9.371,6.848,20.289,4.047,30.742
		c-2.801,10.451-9.506,19.188-18.877,24.598c-6.158,3.555-13.148,5.436-20.215,5.436c-14.45,0-27.909-7.764-35.125-20.262
		C-3.017,44.202,3.635,19.376,22.98,8.207c6.157-3.555,13.148-5.435,20.217-5.435H43.199 M43.199,0.771c-0.002,0,0,0-0.002,0
		c-7.211,0-14.524,1.838-21.217,5.703C1.648,18.214-5.319,44.215,6.419,64.548C14.294,78.187,28.583,85.81,43.277,85.81
		c7.211,0,14.521-1.838,21.215-5.703c20.334-11.738,27.303-37.739,15.563-58.072C72.179,8.397,57.892,0.771,43.199,0.771
		L43.199,0.771z"/>
	<g>
		<g>
			<path fill-rule="evenodd" clip-rule="evenodd" fill="#FFFFFF" d="M34.563,14.306v3.821h26.749v-3.821H34.563z M34.563,29.591
				h26.749v-3.822H34.563V29.591z M34.563,41.054h26.749v-3.82H34.563V41.054z M27.878,13.351c-1.583,0-2.865,1.336-2.865,2.985
				c0,1.649,1.281,2.986,2.865,2.986c1.584,0,2.865-1.337,2.865-2.986C30.743,14.687,29.462,13.351,27.878,13.351z M27.878,24.217
				c-1.583,0-2.865,1.337-2.865,2.985s1.281,2.985,2.865,2.985c1.584,0,2.865-1.337,2.865-2.985S29.462,24.217,27.878,24.217z
				 M27.878,36.038c-1.583,0-2.865,1.337-2.865,2.985s1.281,2.985,2.865,2.985c1.584,0,2.865-1.337,2.865-2.985
				S29.462,36.038,27.878,36.038z"/>
		</g>
	</g>
	<g>
		<path fill="#FFFFFF" d="M18.837,58.235c2.274-1.999,3.974-4.373,5.049-7.073l2.049,0.875c-1.549,3.425-3.324,5.949-5.249,7.573
			L18.837,58.235z M38.882,57.685c0.025,0.275,0.05,0.8,0.05,1.575c0,0.899-0.025,2.1-0.075,3.649c-0.1,3.049-0.475,5.048-1,5.948
			c-0.9,1.449-2.225,2.124-4.274,2.124c-1.3,0-2.875-0.274-4.674-0.824l0.15-2.425c1.875,0.625,3.374,0.95,4.474,0.95
			c2.1,0,2.774-1.25,2.975-4.299c0.1-1.6,0.125-2.825,0.125-3.649c0-0.775-0.025-1.225-0.1-1.35l-0.225-0.075H30.26
			c-0.4,1.85-0.95,3.524-1.675,4.924c-1.5,2.55-4.224,4.924-8.148,6.998l-1.55-1.8c1.375-0.574,2.675-1.324,3.924-2.224
			c2.899-1.925,4.674-4.574,5.224-7.898h-4.749v-2.225h14.872l0.275,0.05c-1.1-1.449-2.274-3.574-3.499-6.348
			c-0.05-0.15-0.15-0.226-0.35-0.226h-7.298v-2.124h8.298c0.275,0,0.45,0.149,0.6,0.425c1.725,4.049,3.799,7.098,6.174,9.123
			l-2,1.299L38.882,57.685z"/>
		<path fill="#FFFFFF" d="M50.861,57.536v2.699h-1.925v-3.174c-1.024,1.225-2.175,2.349-3.399,3.273l-1.549-1.324
			c1.699-1.075,3.124-2.35,4.224-3.749h-3.925v-1.925h4.649v-5.049h1.925v5.049h4.299v1.925h-4.299v0.325
			c1.5,0.649,2.949,1.399,4.398,2.199l-0.924,1.824L50.861,57.536z M53.785,70.057c-1.024-0.999-2.273-2.074-3.724-3.273
			c-0.825,1.799-2.45,3.299-4.823,4.398l-1.2-1.6c3.823-1.449,4.573-4.099,4.573-4.374h-4.324v-1.925h4.649v-2.299h1.925v2.299
			h4.398v1.925h-4.373c1.449,1,2.824,2.1,4.174,3.249L53.785,70.057z M46.712,52.912c-0.9-1.199-1.676-2.074-2.375-2.675
			l1.449-1.324c0.75,0.675,1.575,1.6,2.449,2.749L46.712,52.912z M51.81,51.836c0.5-0.649,1.15-1.699,1.925-3.124l1.625,1.05
			l-0.875,1.475l-1.149,1.774L51.81,51.836z M53.76,62.934c-0.75-0.649-1.375-1.125-1.925-1.449l1.15-1.575
			c0.6,0.351,1.299,0.875,2.023,1.524L53.76,62.934z M63.507,66.583h-3.974l1.149,1c-1.574,1.749-3.174,3.049-4.773,3.799
			c-0.25-0.775-0.525-1.375-0.85-1.825c1.399-0.675,2.648-1.674,3.699-2.974h-1.75c-0.175,0-0.275-0.101-0.275-0.3V52.612
			c0-0.15,0.101-0.25,0.275-0.25h2.674l0.4-1.5l0.05-0.3H56.41v-1.925h10.271v1.925h-4.498l-0.425,1.8h4.424c0.2,0,0.3,0.1,0.3,0.25
			v13.672c0,0.199-0.1,0.3-0.3,0.3h-2.425c1.1,0.8,2.324,1.949,3.6,3.449l-1.6,1.399c-1.324-1.475-2.475-2.574-3.449-3.299
			L63.507,66.583z M58.683,56.361h5.874v-2l-0.1-0.074h-5.698l-0.076,0.074V56.361z M58.683,60.56h5.874v-2.274h-5.874V60.56z
			 M64.557,62.484h-5.874v2.075l0.076,0.1h5.698c0.075,0,0.1-0.025,0.1-0.1V62.484z"/>
	</g>
</g>
</svg>
