<?xml version="1.0" encoding="utf-8"?>
<!-- Generator: Adobe Illustrator 16.0.0, SVG Export Plug-In . SVG Version: 6.00 Build 0)  -->
<!DOCTYPE svg PUBLIC "-//W3C//DTD SVG 1.1//EN" "http://www.w3.org/Graphics/SVG/1.1/DTD/svg11.dtd">
<svg version="1.1" id="圖層_1" xmlns="http://www.w3.org/2000/svg" xmlns:xlink="http://www.w3.org/1999/xlink" x="0px" y="0px"
	 width="60px" height="60px" viewBox="0 0 60 60" enable-background="new 0 0 60 60" xml:space="preserve">
<g>
	<path fill="#FFFFFF" d="M29.982,1.653v2c2.295,0,4.594,0.304,6.834,0.904c14.028,3.759,22.384,18.23,18.626,32.26
		C52.36,48.315,41.905,56.346,30.017,56.346c-2.295,0-4.594-0.304-6.833-0.904C9.155,51.684,0.8,37.212,4.558,23.182
		C7.64,11.684,18.094,3.654,29.981,3.653L29.982,1.653 M29.981,1.653c-12.512,0-23.962,8.35-27.355,21.011
		c-4.05,15.119,4.921,30.659,20.04,34.71c2.456,0.658,4.923,0.972,7.351,0.972c12.513,0,23.964-8.35,27.357-21.011
		c4.05-15.119-4.922-30.658-20.04-34.709C34.877,1.968,32.409,1.653,29.981,1.653L29.981,1.653z"/>
	<path fill="#FFFFFF" d="M13.052,35.821h0.095h0.028h5.586c0.813,0,1.475-0.558,1.475-1.239v-0.103c0-0.681-0.662-1.238-1.475-1.238
		h-4.111v-7.847c0-0.682-0.663-1.237-1.475-1.237h-0.123c-0.813,0-1.477,0.556-1.477,1.237v9.188
		C11.575,35.263,12.239,35.821,13.052,35.821L13.052,35.821z M48.425,30.061v-0.103c0-0.682-0.664-1.239-1.477-1.239H42.84v-1.961
		h4.108c0.813,0,1.477-0.557,1.477-1.238v-0.103c0-0.682-0.664-1.24-1.477-1.24h-5.585h-0.028h-0.096
		c-0.812,0-1.476,0.558-1.476,1.24v9.188c0,0.683,0.664,1.239,1.476,1.239h0.096h0.028h5.585c0.813,0,1.477-0.557,1.477-1.239
		v-0.103c0-0.683-0.664-1.239-1.477-1.239H42.84V31.3h4.108C47.761,31.3,48.425,30.744,48.425,30.061L48.425,30.061z M37.447,35.451
		L37.447,35.451c0.263-0.222,0.428-0.529,0.428-0.869v-9.187c0-0.683-0.666-1.238-1.479-1.238h-0.124
		c-0.812,0-1.476,0.556-1.476,1.238v5.394l-5.335-6.006c-0.255-0.375-0.736-0.625-1.281-0.625h-0.123
		c-0.813,0-1.477,0.556-1.477,1.238v9.187c0,0.682,0.664,1.239,1.477,1.239h0.123c0.813,0,1.477-0.557,1.477-1.239v-5.494
		l5.375,6.16c0.031,0.043,0.067,0.085,0.107,0.124l0,0c0.147,0.168,0.35,0.286,0.574,0.356c0.172,0.062,0.362,0.093,0.559,0.093
		h0.124c0.249,0,0.483-0.052,0.688-0.145C37.233,35.618,37.358,35.542,37.447,35.451L37.447,35.451z M22.903,35.821h0.123
		c0.813,0,1.477-0.558,1.477-1.239v-9.188c0-0.682-0.664-1.237-1.477-1.237h-0.123c-0.813,0-1.476,0.556-1.476,1.237v9.188
		C21.428,35.263,22.091,35.821,22.903,35.821z"/>
</g>
</svg>
