<?xml version="1.0" encoding="utf-8"?>
<!-- Generator: Adobe Illustrator 16.0.0, SVG Export Plug-In . SVG Version: 6.00 Build 0)  -->
<!DOCTYPE svg PUBLIC "-//W3C//DTD SVG 1.1//EN" "http://www.w3.org/Graphics/SVG/1.1/DTD/svg11.dtd">
<svg version="1.1" id="圖層_2" xmlns="http://www.w3.org/2000/svg" xmlns:xlink="http://www.w3.org/1999/xlink" x="0px" y="0px"
	 width="94.252px" height="51.023px" viewBox="0 0 94.252 51.023" enable-background="new 0 0 94.252 51.023" xml:space="preserve">
<g>
	<g>
		<path fill="#FD6190" d="M88.97,17.459H78.73v10.217h-2.059V17.459H66.445v-2.083h10.227V5.146h2.059v10.23h10.24V17.459z"/>
	</g>
	<path fill="#FD6190" d="M47.412,4.076c0.634,0,1.252,0.048,1.838,0.144c7.268,1.185,10.662,7.51,11.168,10.389
		c1.39,7.903-6.369,17.34-7.259,18.39l-0.052,0.062l-0.038,0.045c-3.929,4.728-10.584,9.361-19.79,13.781
		c-10.481-4.715-25.076-15.88-26.463-25.55l-0.007-0.043l-0.007-0.039c-0.018-0.097-1.722-9.781,4.31-14.348
		c2.25-1.704,5.145-2.604,8.369-2.604c4.508,0,9.411,1.797,12.491,4.579L33.213,10l1.322-1.019
		C34.599,8.932,40.976,4.076,47.412,4.076 M47.412,2.076c-7.192,0-14.098,5.32-14.098,5.32c-3.296-2.977-8.588-5.095-13.832-5.095
		c-3.397,0-6.774,0.889-9.576,3.01C2.782,10.706,4.837,21.62,4.837,21.62c1.581,11.025,17.545,22.806,28.477,27.465
		c15.047-7.088,19.933-13.064,21.332-14.746c0.291-0.352,9.377-10.78,7.742-20.076c-0.701-3.992-4.914-10.729-12.816-12.017
		C48.853,2.129,48.131,2.076,47.412,2.076L47.412,2.076z"/>
</g>
</svg>
