<?xml version="1.0" encoding="utf-8"?>
<!-- Generator: Adobe Illustrator 16.0.0, SVG Export Plug-In . SVG Version: 6.00 Build 0)  -->
<!DOCTYPE svg PUBLIC "-//W3C//DTD SVG 1.1//EN" "http://www.w3.org/Graphics/SVG/1.1/DTD/svg11.dtd">
<svg version="1.1" id="圖層_2" xmlns="http://www.w3.org/2000/svg" xmlns:xlink="http://www.w3.org/1999/xlink" x="0px" y="0px"
	 width="51.023px" height="52.441px" viewBox="0 0 51.023 52.441" enable-background="new 0 0 51.023 52.441" xml:space="preserve">
<path fill-rule="evenodd" clip-rule="evenodd" fill="#FD6190" d="M36.712,22.371l-9.26,13.776c-0.432,0.643-1.16,1.03-1.941,1.03
	c-0.779,0-1.508-0.388-1.941-1.03l-9.334-13.88c-1.756-2.309-2.725-5.188-2.725-8.223c0-7.653,6.279-13.879,14-13.879
	c7.72,0,14.001,6.226,14.001,13.879C39.513,17.072,38.544,19.949,36.712,22.371z M25.513,6.348l2.472,4.937l5.525,0.793
	l-3.998,3.843l0.943,5.425l-4.943-2.563l-4.943,2.563l0.943-5.425l-4-3.843l5.527-0.793L25.513,6.348z"/>
<g>
	<path fill-rule="evenodd" clip-rule="evenodd" fill="#FD6190" d="M34.37,22.636l15.086,4.715v25L34.37,47.637l-16.801,4.2
		l-16-4.486V22.35l15.086,4.715L34.37,22.636z M35.456,25.069v20.812l12,3.75V28.82L35.456,25.069 M33.515,24.911l-16,4.001v20.877
		l16-4V24.911 M3.569,25.069v20.812l12,3.75V28.82L3.569,25.069"/>
</g>
</svg>
