<?xml version="1.0" encoding="utf-8"?>
<!-- Generator: Adobe Illustrator 16.0.0, SVG Export Plug-In . SVG Version: 6.00 Build 0)  -->
<!DOCTYPE svg PUBLIC "-//W3C//DTD SVG 1.1//EN" "http://www.w3.org/Graphics/SVG/1.1/DTD/svg11.dtd">
<svg version="1.1" id="圖層_1" xmlns="http://www.w3.org/2000/svg" xmlns:xlink="http://www.w3.org/1999/xlink" x="0px" y="0px"
	 width="40px" height="40px" viewBox="0 0 40 40" enable-background="new 0 0 40 40" xml:space="preserve">
<path fill="#FFFFFF" d="M17.956,2.567c8.269,0,14.996,6.728,14.996,14.996c0,8.268-6.728,14.994-14.996,14.994
	S2.959,25.831,2.959,17.563C2.959,9.295,9.687,2.567,17.956,2.567 M17.956,0.567c-9.387,0-16.996,7.609-16.996,16.996
	c0,9.386,7.609,16.994,16.996,16.994s16.996-7.608,16.996-16.994C34.952,8.177,27.342,0.567,17.956,0.567L17.956,0.567z"/>
<path fill-rule="evenodd" clip-rule="evenodd" fill="#FFFFFF" d="M27.62,29.28l1.278-1.279l10.143,10.153l-1.277,1.278L27.62,29.28z
	"/>
<g>
	<path fill="#FFFFFF" d="M13.649,13.436v9.167h-1.375v-3.667H8.149v3.667H6.774v-9.167h1.375v3.667h4.125v-3.667H13.649z"/>
	<path fill="#FFFFFF" d="M21.899,13.436v9.167h-6.875v-9.167H21.899z M20.524,15.27h-4.125v5.5h4.125V15.27z"/>
	<path fill="#FFFFFF" d="M30.149,13.436v1.834h-2.75v7.333h-1.375V15.27h-2.75v-1.834H30.149z"/>
</g>
</svg>
