<?xml version="1.0" encoding="utf-8"?>
<!-- Generator: Adobe Illustrator 16.0.0, SVG Export Plug-In . SVG Version: 6.00 Build 0)  -->
<!DOCTYPE svg PUBLIC "-//W3C//DTD SVG 1.1//EN" "http://www.w3.org/Graphics/SVG/1.1/DTD/svg11.dtd">
<svg version="1.1" id="圖層_1" xmlns="http://www.w3.org/2000/svg" xmlns:xlink="http://www.w3.org/1999/xlink" x="0px" y="0px"
	 width="85.04px" height="85.04px" viewBox="0 0 85.04 85.04" enable-background="new 0 0 85.04 85.04" xml:space="preserve">
<g>
	<linearGradient id="SVGID_1_" gradientUnits="userSpaceOnUse" x1="14.2402" y1="70.7764" x2="70.8016" y2="14.215">
		<stop  offset="0" style="stop-color:#FA316E"/>
		<stop  offset="1" style="stop-color:#F98EAA"/>
	</linearGradient>
	<path fill-rule="evenodd" clip-rule="evenodd" fill="url(#SVGID_1_)" d="M52.87,3.87c21.332,5.716,33.992,27.643,28.275,48.975
		C75.431,74.178,53.503,86.837,32.171,81.12C10.838,75.405-1.821,53.478,3.894,32.146C9.61,10.813,31.538-1.846,52.87,3.87z"/>
	<path fill="#FFFFFF" d="M33.76,70.966l2.885-10.053h-7.757c-5.711,0-10.357-4.628-10.357-10.316V34.02
		c0-5.688,4.646-10.315,10.357-10.315h27.264c5.711,0,10.357,4.627,10.357,10.315v16.577c0,5.688-4.646,10.316-10.357,10.316h-6.521
		L33.76,70.966z M28.888,25.705c-4.608,0-8.357,3.73-8.357,8.315v16.577c0,4.586,3.749,8.316,8.357,8.316h10.411l-2.166,7.549
		l11.918-7.549h7.101c4.608,0,8.357-3.73,8.357-8.316V34.02c0-4.585-3.749-8.315-8.357-8.315H28.888z"/>
	<g>
		<path fill="#FFFFFF" d="M43.472,54.19h-2.24v-2.834c-1.764-0.049-3.612-0.542-4.676-1.158l0.784-2.169
			c1.063,0.592,2.688,1.158,4.396,1.158c2.212,0,3.388-1.158,3.388-2.611c0-1.479-1.036-2.391-3.584-3.377
			c-2.771-1.109-4.76-2.39-4.76-4.83c0-2.39,1.792-4.189,4.648-4.682v-2.834h2.239v2.687c1.792,0.049,3.08,0.493,3.977,0.936
			l-0.784,2.095c-0.784-0.37-2.1-0.912-3.808-0.912c-2.072,0-3.108,1.208-3.108,2.316c0,1.38,1.26,2.119,3.612,3.13
			c3.191,1.256,4.788,2.612,4.788,5.175c0,2.415-1.765,4.436-4.872,4.929V54.19z"/>
	</g>
</g>
</svg>
