<?xml version="1.0" encoding="utf-8"?>
<!-- Generator: Adobe Illustrator 16.0.0, SVG Export Plug-In . SVG Version: 6.00 Build 0)  -->
<!DOCTYPE svg PUBLIC "-//W3C//DTD SVG 1.1//EN" "http://www.w3.org/Graphics/SVG/1.1/DTD/svg11.dtd">
<svg version="1.1" id="圖層_1" xmlns="http://www.w3.org/2000/svg" xmlns:xlink="http://www.w3.org/1999/xlink" x="0px" y="0px"
	 width="70.87px" height="70.87px" viewBox="0 0 70.87 70.87" enable-background="new 0 0 70.87 70.87" xml:space="preserve">
<g>
	<path d="M35.414,0.429v5c2.611,0,5.229,0.347,7.78,1.031C59.166,10.74,68.678,27.222,64.397,43.2
		c-3.508,13.096-15.408,22.242-28.94,22.242c-2.612,0-5.23-0.346-7.782-1.031C11.705,60.132,2.193,43.649,6.472,27.67
		C9.979,14.575,21.881,5.429,35.413,5.429L35.414,0.429 M35.413,0.429c-15.445,0-29.582,10.313-33.771,25.948
		c-5,18.671,6.075,37.863,24.738,42.865c3.033,0.813,6.078,1.201,9.076,1.201c15.445,0,29.582-10.313,33.771-25.949
		c5.001-18.67-6.075-37.861-24.738-42.863C41.456,0.817,38.41,0.429,35.413,0.429L35.413,0.429z"/>
	<g>
		<path d="M52.637,49.608c0.723,0.732,0.914,1.51,0.571,2.328c-0.343,0.938-1.334,1.406-2.971,1.406
			c-0.571-0.029-1.048-0.234-1.429-0.615c-0.457-0.469-1.085-1.156-1.885-2.064L35.326,38.841L23.844,50.663
			c-0.763,0.791-1.371,1.42-1.828,1.889c-0.534,0.527-1.048,0.791-1.543,0.791c-1.6,0-2.59-0.395-2.971-1.186
			c-0.495-0.879-0.285-1.729,0.629-2.549l13.882-14.151L18.131,21.263c-0.838-0.85-1.066-1.685-0.686-2.505
			c0.419-0.82,1.428-1.23,3.027-1.23c0.647,0,1.219,0.279,1.714,0.835c0.495,0.527,1.048,1.143,1.657,1.846l11.54,11.777
			l11.54-11.777c0.647-0.791,1.199-1.45,1.656-1.978c0.381-0.468,0.934-0.703,1.657-0.703c1.751,0,2.818,0.352,3.199,1.055
			c0.419,0.791,0.151,1.685-0.8,2.681l-13.939,14.15L52.637,49.608z"/>
	</g>
</g>
</svg>
