<?xml version="1.0" encoding="utf-8"?>
<!-- Generator: Adobe Illustrator 16.0.0, SVG Export Plug-In . SVG Version: 6.00 Build 0)  -->
<!DOCTYPE svg PUBLIC "-//W3C//DTD SVG 1.1//EN" "http://www.w3.org/Graphics/SVG/1.1/DTD/svg11.dtd">
<svg version="1.1" id="圖層_2" xmlns="http://www.w3.org/2000/svg" xmlns:xlink="http://www.w3.org/1999/xlink" x="0px" y="0px"
	 width="94.252px" height="51.023px" viewBox="0 0 94.252 51.023" enable-background="new 0 0 94.252 51.023" xml:space="preserve">
<g>
	<path fill="#FD6190" d="M78.494,7.643c5.045,0,9.148,4.107,9.148,9.155c0,5.049-4.104,9.156-9.148,9.156s-9.148-4.107-9.148-9.156
		C69.345,11.75,73.449,7.643,78.494,7.643 M78.494,5.643c-6.156,0-11.148,4.994-11.148,11.155s4.992,11.156,11.148,11.156
		c6.158,0,11.148-4.995,11.148-11.156S84.652,5.643,78.494,5.643L78.494,5.643z"/>
	<path fill="#FD6190" d="M92.324,32.552L92.324,32.552c-0.266,0-0.52-0.105-0.707-0.293l-6.98-6.984
		c-0.391-0.391-0.391-1.024,0-1.414l0.631-0.631c0.188-0.188,0.441-0.293,0.707-0.293l0,0c0.266,0,0.52,0.105,0.707,0.293
		l6.98,6.984c0.391,0.391,0.391,1.023,0,1.414l-0.631,0.631C92.843,32.446,92.589,32.552,92.324,32.552z"/>
	<path fill="#FD6190" d="M33.167,5.566c13.376,0,24.712,7.052,30.505,18.917c-5.793,11.864-17.13,18.916-30.505,18.916
		S8.454,36.348,2.658,24.483C8.452,12.619,19.79,5.566,33.167,5.566 M33.167,3.566c-14.963,0-26.957,8.331-32.721,20.917
		c5.764,12.582,17.756,20.916,32.721,20.916c14.961,0,26.954-8.333,32.716-20.916C60.121,11.898,48.128,3.566,33.167,3.566
		L33.167,3.566z"/>
	<path fill="#FD6190" d="M33.167,14.039c5.759,0,10.443,4.686,10.443,10.444s-4.685,10.443-10.443,10.443
		c-5.76,0-10.445-4.685-10.445-10.443S27.407,14.039,33.167,14.039 M33.167,12.039c-6.873,0-12.445,5.571-12.445,12.444
		s5.572,12.443,12.445,12.443s12.443-5.57,12.443-12.443S40.04,12.039,33.167,12.039L33.167,12.039z"/>
</g>
</svg>
