<?xml version="1.0" encoding="utf-8"?>
<!-- Generator: Adobe Illustrator 16.0.0, SVG Export Plug-In . SVG Version: 6.00 Build 0)  -->
<!DOCTYPE svg PUBLIC "-//W3C//DTD SVG 1.1//EN" "http://www.w3.org/Graphics/SVG/1.1/DTD/svg11.dtd">
<svg version="1.1" id="圖層_1" xmlns="http://www.w3.org/2000/svg" xmlns:xlink="http://www.w3.org/1999/xlink" x="0px" y="0px"
	 width="60px" height="60px" viewBox="0 0 60 60" enable-background="new 0 0 60 60" xml:space="preserve">
<g>
	<path fill="#FFFFFF" d="M29.982,1.653v2c2.295,0,4.594,0.304,6.834,0.904c14.028,3.759,22.384,18.23,18.626,32.26
		C52.36,48.315,41.905,56.346,30.017,56.346c-2.295,0-4.594-0.304-6.833-0.904C9.155,51.684,0.8,37.212,4.558,23.182
		C7.639,11.684,18.094,3.654,29.981,3.653L29.982,1.653 M29.981,1.653c-12.512,0-23.962,8.35-27.355,21.011
		c-4.05,15.119,4.921,30.659,20.04,34.71c2.456,0.658,4.924,0.972,7.351,0.972c12.513,0,23.964-8.35,27.357-21.011
		c4.05-15.119-4.922-30.658-20.04-34.709C34.877,1.968,32.41,1.653,29.981,1.653L29.981,1.653z"/>
	<path fill="#FFFFFF" d="M44.631,22.77c-0.575-2.443-1.654-3.386-3.64-3.726c-1.146-0.178-6.641-0.408-11.001-0.408h0.02
		c-4.361,0-9.856,0.23-11.002,0.408c-1.985,0.34-3.064,1.282-3.639,3.726c-0.193,0.822-0.461,5.324-0.461,7.042v0.376
		c0,1.719,0.268,6.221,0.461,7.043c0.574,2.443,1.653,3.385,3.639,3.725c1.146,0.18,6.641,0.408,11.002,0.408h-0.02
		c4.36,0,9.855-0.229,11.001-0.408c1.985-0.34,3.064-1.281,3.64-3.725c0.192-0.822,0.46-5.324,0.46-7.043v-0.376
		C45.091,28.094,44.823,23.592,44.631,22.77z M34.053,30.551l-8.105,4.002v-9.106L34.053,30.551z"/>
</g>
</svg>
