<?xml version="1.0" encoding="utf-8"?>
<!-- Generator: Adobe Illustrator 16.0.0, SVG Export Plug-In . SVG Version: 6.00 Build 0)  -->
<!DOCTYPE svg PUBLIC "-//W3C//DTD SVG 1.1//EN" "http://www.w3.org/Graphics/SVG/1.1/DTD/svg11.dtd">
<svg version="1.1" id="Home" xmlns="http://www.w3.org/2000/svg" xmlns:xlink="http://www.w3.org/1999/xlink" x="0px" y="0px"
	 width="60.378px" height="56.693px" viewBox="0 0 60.378 56.693" enable-background="new 0 0 60.378 56.693" xml:space="preserve">
<path fill="#FD6190" d="M30.215,4.524l26.978,13.361v2.563h-4.752h-2v2v28.654H38.428V35.018v-2h-2H24.343h-2v2v16.084H9.964V22.448
	v-2h-2H3.185v-2.617L30.215,4.524 M30.216,2.293v0.002c0,0.001,0,0.001,0,0.001L1.497,16.433c-0.19,0.142-0.313,0.369-0.313,0.625
	v4.613c0,0.429,0.346,0.777,0.772,0.777h6.007v30.654h16.379V35.018h12.085v18.084h16.014V22.448h5.979
	c0.428,0,0.773-0.349,0.773-0.777v-4.574l0,0c0-0.216-0.09-0.43-0.264-0.583L30.216,2.293L30.216,2.293z"/>
</svg>
