<?xml version="1.0" encoding="utf-8"?>
<!-- Generator: Adobe Illustrator 16.0.0, SVG Export Plug-In . SVG Version: 6.00 Build 0)  -->
<!DOCTYPE svg PUBLIC "-//W3C//DTD SVG 1.1//EN" "http://www.w3.org/Graphics/SVG/1.1/DTD/svg11.dtd">
<svg version="1.1" id="圖層_1" xmlns="http://www.w3.org/2000/svg" xmlns:xlink="http://www.w3.org/1999/xlink" x="0px" y="0px"
	 width="60px" height="60px" viewBox="0 0 60 60" enable-background="new 0 0 60 60" xml:space="preserve">
<g>
	<path fill="#FFFFFF" d="M29.983,1.653v2c2.295,0,4.594,0.304,6.834,0.905C50.845,8.317,59.2,22.789,55.442,36.817
		C52.36,48.316,41.905,56.346,30.017,56.346c-2.295,0-4.595-0.304-6.834-0.904C9.155,51.684,0.8,37.211,4.558,23.182
		C7.64,11.684,18.094,3.654,29.982,3.653L29.983,1.653 M29.982,1.653c-12.513,0-23.963,8.35-27.356,21.011
		c-4.05,15.119,4.92,30.659,20.039,34.71c2.456,0.658,4.924,0.972,7.352,0.972c12.513,0,23.964-8.35,27.357-21.011
		c4.05-15.119-4.922-30.658-20.039-34.709C34.878,1.967,32.41,1.653,29.982,1.653L29.982,1.653z"/>
	<g>
		<rect x="28.067" y="10.421" fill-rule="evenodd" clip-rule="evenodd" fill="#FFFFFF" width="2.834" height="24.095"/>
		<rect x="28.068" y="31.682" fill-rule="evenodd" clip-rule="evenodd" fill="#FFFFFF" width="21.26" height="2.834"/>
	</g>
</g>
</svg>
