<?xml version="1.0" encoding="utf-8"?>
<!-- Generator: Adobe Illustrator 16.0.0, SVG Export Plug-In . SVG Version: 6.00 Build 0)  -->
<!DOCTYPE svg PUBLIC "-//W3C//DTD SVG 1.1//EN" "http://www.w3.org/Graphics/SVG/1.1/DTD/svg11.dtd">
<svg version="1.1" id="Best" xmlns="http://www.w3.org/2000/svg" xmlns:xlink="http://www.w3.org/1999/xlink" x="0px" y="0px"
	 width="60.378px" height="56.693px" viewBox="0 0 60.378 56.693" enable-background="new 0 0 60.378 56.693" xml:space="preserve">
<g>
	<path fill="#FD6190" d="M44.432,4.438c0.711,0,1.76,1.053,1.76,1.999v21c0,5.827-9.404,10.939-15.088,10.939h-1.84
		c-5.953,0-15.073-4.9-15.073-10.939v-21c0-0.946,1.041-1.999,1.746-1.999H44.432 M44.432,2.438H15.937
		c-1.898,0-3.746,2.024-3.746,3.999v21c0,7.542,10.334,12.939,17.073,12.939c-0.012,0.119-0.035,0.234-0.035,0.355v12.715h1.91
		V40.731c0-0.121-0.023-0.236-0.035-0.355c6.74,0,17.088-5.939,17.088-12.939v-21C48.191,4.462,46.33,2.438,44.432,2.438
		L44.432,2.438z"/>
	<g>
		<path fill="#FD6190" d="M56.086,8.426c0.038,0.028,0.082,0.073,0.109,0.112v8.888c0,5.099-4.798,6.98-8,7.667V8.431l0.592,0
			C51.475,8.431,55.381,8.427,56.086,8.426 M56.195,6.426c0,0-4.445,0.005-7.408,0.005c-1.48,0-2.592-0.001-2.592-0.005v21
			c0-0.021,12-0.781,12-10v-9C58.195,7.482,57.188,6.426,56.195,6.426L56.195,6.426z"/>
		<path fill="#FD6190" d="M4.292,8.426c0.705,0.001,4.611,0.005,7.298,0.005l0.593,0v16.662c-3.203-0.687-8-2.567-8-7.667V8.538
			C4.21,8.499,4.254,8.454,4.292,8.426 M14.183,6.426c0,0.004-1.111,0.005-2.593,0.005c-2.963,0-7.407-0.005-7.407-0.005
			c-0.992,0-2,1.057-2,2v9c0,9.219,12,9.979,12,10V6.426L14.183,6.426z"/>
	</g>
	<path fill-rule="evenodd" clip-rule="evenodd" fill="#FD6190" d="M16.191,53.461h28v2h-28V53.461z"/>
	<path fill-rule="evenodd" clip-rule="evenodd" fill="#FD6190" d="M30.191,11.547l2.473,4.937l5.525,0.793l-3.998,3.842l0.943,5.426
		l-4.943-2.563l-4.944,2.563l0.943-5.426l-4-3.842l5.527-0.793L30.191,11.547z"/>
</g>
</svg>
