<?xml version="1.0" encoding="utf-8"?>
<!-- Generator: Adobe Illustrator 16.0.0, SVG Export Plug-In . SVG Version: 6.00 Build 0)  -->
<!DOCTYPE svg PUBLIC "-//W3C//DTD SVG 1.1//EN" "http://www.w3.org/Graphics/SVG/1.1/DTD/svg11.dtd">
<svg version="1.1" id="圖層_1" xmlns="http://www.w3.org/2000/svg" xmlns:xlink="http://www.w3.org/1999/xlink" x="0px" y="0px"
	 width="62.362px" height="86.457px" viewBox="0 0 62.362 86.457" enable-background="new 0 0 62.362 86.457" xml:space="preserve">
<g>
	<path fill="#FFFFFF" d="M24.201,60.779c-2.352-7.137-11.298-34.306-11.298-34.306c-0.57-2.019-1.141-4.037-1.711-6.056
		c-0.076-0.267-0.219-0.461-0.395-0.591c-0.178-0.145-0.414-0.236-0.709-0.236c-1.604,0-6.207,0-7.813,0
		c-1.475,0-1.475,2.252,0,2.252c1.314,0,5.629,0,6.943,0c1.898,6.711,11.355,34.227,13.253,40.936c0.012,0.008,26.42,0,26.42,0v-2
		H24.201z"/>
	<path fill-rule="evenodd" clip-rule="evenodd" fill="#FFFFFF" d="M21.443,55.843h33.855c0.588,0,1.063-0.447,1.063-1l5-21.001
		c0-0.552-0.475-1-1.061-1H15.424c-0.586,0-1.061,0.448-1.061,1c0,0.553,0.475,1,1.061,1h43.814l-5,19.001H22.504l-1,0.066
		c-1.059,0,0.951-0.068-0.143-0.068C21.361,53.841,20.545,55.843,21.443,55.843z"/>
	<g>
		<path fill="#FFFFFF" d="M48.861,62.791c2.572,0,4.666,2.02,4.666,4.502s-2.094,4.502-4.666,4.502s-4.664-2.02-4.664-4.502
			S46.289,62.791,48.861,62.791 M48.861,60.791c-3.674,0-6.664,2.916-6.664,6.502c0,3.584,2.99,6.502,6.664,6.502
			c3.676,0,6.666-2.918,6.666-6.502C55.527,63.707,52.537,60.791,48.861,60.791L48.861,60.791z"/>
		<path fill="#FFFFFF" d="M24.531,62.791c2.572,0,4.664,2.02,4.664,4.502s-2.092,4.502-4.664,4.502s-4.664-2.02-4.664-4.502
			S21.959,62.791,24.531,62.791 M24.531,60.791c-3.676,0-6.664,2.916-6.664,6.502c0,3.584,2.988,6.502,6.664,6.502
			c3.674,0,6.664-2.918,6.664-6.502C31.195,63.707,28.205,60.791,24.531,60.791L24.531,60.791z"/>
	</g>
</g>
</svg>
