<?xml version="1.0" encoding="utf-8"?>
<!-- Generator: Adobe Illustrator 16.0.0, SVG Export Plug-In . SVG Version: 6.00 Build 0)  -->
<!DOCTYPE svg PUBLIC "-//W3C//DTD SVG 1.1//EN" "http://www.w3.org/Graphics/SVG/1.1/DTD/svg11.dtd">
<svg version="1.1" id="圖層_5" xmlns="http://www.w3.org/2000/svg" xmlns:xlink="http://www.w3.org/1999/xlink" x="0px" y="0px"
	 width="56.693px" height="86.457px" viewBox="0 0 56.693 86.457" enable-background="new 0 0 56.693 86.457" xml:space="preserve">
<g>
	<path fill="#FFFFFF" d="M24.807,21.321c11.471,0,20.803,9.337,20.803,20.815c0,11.479-9.332,20.816-20.803,20.816
		c-11.469,0-20.804-9.338-20.804-20.816C4.003,30.659,13.338,21.321,24.807,21.321 M24.807,19.321
		c-12.592,0-22.805,10.214-22.805,22.815c0,12.602,10.213,22.816,22.805,22.816c12.594,0,22.803-10.215,22.803-22.816
		C47.609,29.536,37.4,19.321,24.807,19.321L24.807,19.321z"/>
	<path fill-rule="evenodd" clip-rule="evenodd" fill="#FFFFFF" d="M38.817,58.027l1.29-1.289l14.275,14.283l-1.289,1.291
		L38.817,58.027z"/>
</g>
</svg>
