<?xml version="1.0" encoding="utf-8"?>
<!-- Generator: Adobe Illustrator 16.0.0, SVG Export Plug-In . SVG Version: 6.00 Build 0)  -->
<!DOCTYPE svg PUBLIC "-//W3C//DTD SVG 1.1//EN" "http://www.w3.org/Graphics/SVG/1.1/DTD/svg11.dtd">
<svg version="1.1" id="Bird" xmlns="http://www.w3.org/2000/svg" xmlns:xlink="http://www.w3.org/1999/xlink" x="0px" y="0px"
	 width="60.378px" height="56.693px" viewBox="0 0 60.378 56.693" enable-background="new 0 0 60.378 56.693" xml:space="preserve">
<g>
	<g>
		<g>
			<g>
				<path fill="#FFFFFF" d="M49.007,24.132c-0.131,0-0.262,0-0.396,0.007c-2.633,0.089-4.557,0.963-7.623,2.945
					c0.064-1.135,0.16-2.58,0.242-4.538c0.119-2.884-2.387-6.07-2.387-6.07c-6.514-8.462-4.58-15.656-5.701-14.881
					c-0.451,0.312-1.426,2.719-0.482,6.363c-1.363-3.49-1.301-5.788-1.887-5.25c-0.4,0.364-1.02,2.848,0.388,6.287
					c-1.718-3.13-1.976-5.285-2.468-4.686c-0.371,0.451-0.652,3.393,1.773,6.977c-1.943-2.697-2.475-4.61-2.861-3.977
					c-0.277,0.455-0.189,2.943,2.021,5.812c-1.76-1.997-2.416-3.368-2.678-2.762c-0.178,0.409,0.041,2.188,1.619,4.234
					c-1.363-1.406-1.951-2.278-2.127-1.745c-0.15,0.448,0.26,2.381,2.283,4.398c-1.688-1.427-2.43-2.389-2.568-1.807
					c-0.098,0.415,0.361,1.979,2.045,3.626c-1.455-1.07-2.131-1.74-2.207-1.211c-0.066,0.447,0.605,2.127,2.689,3.7
					c-1.662-1.001-2.449-1.68-2.48-1.12c-0.008,0.139,0.074,0.397,0.243,0.717c-2.071-1.428-4.71-1.993-4.71-1.993
					c-11.33-2.528-14.777-9.818-15.164-8.4c-0.154,0.566,0.729,3.232,4.068,5.599c-3.582-1.952-5.139-3.897-5.246-3.049
					c-0.072,0.578,1.156,3.062,4.73,4.943c-3.621-1.414-5.344-3.02-5.33-2.187c0.008,0.632,1.842,3.262,6.363,4.561
					c-3.504-0.898-5.283-2.117-5.16-1.325c0.088,0.569,1.91,2.571,5.754,3.424c-2.861-0.443-4.367-1.129-4.158-0.443
					c0.141,0.459,1.572,1.784,4.316,2.392c-2.121-0.227-3.219-0.546-2.99,0.021c0.191,0.473,1.889,1.793,4.98,2.066
					c-2.4-0.016-3.691-0.303-3.396,0.273c0.211,0.413,1.689,1.395,4.24,1.597c-1.955,0.114-2.988,0.024-2.68,0.519
					c0.26,0.414,1.996,1.347,4.826,1.212c-2.08,0.316-3.205,0.297-2.842,0.779c0.277,0.366,1.879,1.067,4.381,0.849
					c-1.943,0.463-3.002,0.548-2.607,0.982c0.307,0.346,1.953,0.903,4.412,0.479c-1.939,0.646-3.016,0.82-2.578,1.227
					c0.277,0.258,1.494,0.591,3.287,0.327c-1.736,0.562-2.672,0.739-2.26,1.121c0.297,0.277,1.652,0.635,3.633,0.273
					c-1.527,0.636-2.336,0.886-1.914,1.214c0.301,0.235,1.527,0.457,3.271,0.05c-1.529,0.838-2.363,1.178-1.895,1.472
					c0.344,0.213,1.734,0.307,3.598-0.411c-1.57,0.875-2.504,1.256-2.267,1.551c-1.671,0.499-3.435,1.254-5.2,1.912
					c-1.604,0.592-3.207,1.094-4.736,1.212c-0.492,0.039-0.973,0.057-1.436,0.057c-0.582,0-1.141-0.028-1.676-0.08
					c-1.045-0.068-1.641-0.202-2.246-0.379c-0.48-0.118-0.936-0.252-1.363-0.4c-1.059-0.366-1.963-0.811-2.711-1.255
					c-1.781-1.056-2.684-2.113-2.738-2.113c-0.008,0,0.004,0.026,0.037,0.08c0.5,0.845,11.104,12.361,24.941,12.361h0.18
					c-1.469,0.404-2.973,0.62-4.516,0.62c-5.498,0-11.473-2.75-17.977-9.558c3.48,3.644,12.039,12.568,22.205,12.568
					c6.635,0,13.953-3.799,20.996-15.339c0.055-0.087,0.107-0.176,0.162-0.265c1.244-1.854,2.473-3.719,3.873-5.29
					c1.443-1.56,3.086-2.864,4.959-3.552c0.963-0.335,2.016-0.521,3.182-0.521C59.046,30.333,55.954,24.132,49.007,24.132z
					 M58.835,30.25c0.025-0.005,0.049-0.021,0.064-0.046C58.884,30.228,58.86,30.246,58.835,30.25L58.835,30.25z"/>
			</g>
		</g>
	</g>
</g>
</svg>
