<?xml version="1.0" encoding="utf-8"?>
<!-- Generator: Adobe Illustrator 16.0.0, SVG Export Plug-In . SVG Version: 6.00 Build 0)  -->
<!DOCTYPE svg PUBLIC "-//W3C//DTD SVG 1.1//EN" "http://www.w3.org/Graphics/SVG/1.1/DTD/svg11.dtd">
<svg version="1.1" id="圖層_3" xmlns="http://www.w3.org/2000/svg" xmlns:xlink="http://www.w3.org/1999/xlink" x="0px" y="0px"
	 width="85.04px" height="85.04px" viewBox="0 0 85.04 85.04" enable-background="new 0 0 85.04 85.04" xml:space="preserve">
<g>
	<linearGradient id="SVGID_1_" gradientUnits="userSpaceOnUse" x1="14.2407" y1="70.7773" x2="70.8018" y2="14.2163">
		<stop  offset="0" style="stop-color:#FF8800"/>
		<stop  offset="1" style="stop-color:#FFCC00"/>
	</linearGradient>
	<path fill-rule="evenodd" clip-rule="evenodd" fill="url(#SVGID_1_)" d="M52.87,3.87c21.332,5.716,33.992,27.643,28.275,48.975
		C75.431,74.178,53.503,86.837,32.171,81.12C10.838,75.405-1.821,53.478,3.894,32.146C9.61,10.814,31.538-1.846,52.87,3.87z"/>
	<g>
		<g>
			<g>
				<path fill="#FFFFFF" d="M38.457,64.865h-14v-27h14V64.865z M26.457,62.865h10v-23h-10V62.865z"/>
				<path fill="#FFFFFF" d="M38.457,39.866H21.456V27.995h17.001V39.866z M23.456,37.866h13.001v-7.871H23.456V37.866z"/>
			</g>
			<g>
				<path fill="#FFFFFF" d="M60.582,64.865h-14v-27h14V64.865z M48.582,62.865h10v-23h-10V62.865z"/>
				<path fill="#FFFFFF" d="M63.583,39.866H46.582V27.995h17.001V39.866z M48.582,37.866h13.001v-7.871H48.582V37.866z"/>
			</g>
		</g>
		<path fill="#FFFFFF" d="M48.519,64.865H36.521V27.861h11.998V64.865z M38.521,62.865h7.998V29.861h-7.998V62.865z"/>
		<g>
			<path fill-rule="evenodd" clip-rule="evenodd" fill="#FFFFFF" d="M40.988,26.31l-8.484-8.486l-3.535,3.536l8.484,8.485
				L40.988,26.31z"/>
			<path fill-rule="evenodd" clip-rule="evenodd" fill="#FFFFFF" d="M52.535,17.824l-8.484,8.485l3.535,3.536l8.484-8.486
				L52.535,17.824z"/>
		</g>
	</g>
</g>
</svg>
