<?xml version="1.0" encoding="utf-8"?>
<!-- Generator: Adobe Illustrator 16.0.0, SVG Export Plug-In . SVG Version: 6.00 Build 0)  -->
<!DOCTYPE svg PUBLIC "-//W3C//DTD SVG 1.1//EN" "http://www.w3.org/Graphics/SVG/1.1/DTD/svg11.dtd">
<svg version="1.1" id="圖層_2" xmlns="http://www.w3.org/2000/svg" xmlns:xlink="http://www.w3.org/1999/xlink" x="0px" y="0px"
	 width="85.04px" height="85.04px" viewBox="0 0 85.04 85.04" enable-background="new 0 0 85.04 85.04" xml:space="preserve">
<g>
	<linearGradient id="SVGID_1_" gradientUnits="userSpaceOnUse" x1="14.2402" y1="70.7773" x2="70.8015" y2="14.2161">
		<stop  offset="0" style="stop-color:#7BC002"/>
		<stop  offset="1" style="stop-color:#FFCC00"/>
	</linearGradient>
	<path fill-rule="evenodd" clip-rule="evenodd" fill="url(#SVGID_1_)" d="M52.87,3.87c21.332,5.716,33.992,27.643,28.275,48.976
		c-5.715,21.332-27.643,33.99-48.975,28.275C10.838,75.405-1.821,53.479,3.894,32.146C9.61,10.814,31.538-1.846,52.87,3.87z"/>
	<g>
		<g>
			<path fill="#FFFFFF" d="M42.52,66.95c-0.13,0-0.26-0.025-0.384-0.076l-23.008-9.567c-0.373-0.155-0.616-0.52-0.616-0.924v-28.88
				c0-0.334,0.167-0.646,0.445-0.832c0.278-0.185,0.63-0.219,0.939-0.091l23.008,9.568c0.373,0.155,0.616,0.52,0.616,0.923v28.88
				c0,0.334-0.167,0.646-0.445,0.832C42.908,66.894,42.714,66.95,42.52,66.95z M20.512,55.716l21.008,8.735V37.737l-21.008-8.736
				V55.716z"/>
			<path fill="#FFFFFF" d="M42.52,66.95c-0.195,0-0.388-0.057-0.555-0.168c-0.278-0.186-0.445-0.498-0.445-0.832V37.07
				c0-0.404,0.243-0.768,0.616-0.923l23.006-9.568c0.307-0.128,0.662-0.094,0.938,0.091c0.278,0.186,0.445,0.498,0.445,0.832v28.88
				c0,0.404-0.243,0.769-0.616,0.924l-23.006,9.566C42.78,66.925,42.649,66.95,42.52,66.95z M43.52,37.737v26.714l21.006-8.735
				V29.001L43.52,37.737z"/>
		</g>
		<path fill="#FFFFFF" d="M42.52,38.071c-0.13,0-0.261-0.025-0.384-0.077l-23.008-9.569c-0.373-0.155-0.616-0.52-0.616-0.923
			s0.243-0.768,0.616-0.923l23.008-9.568c0.245-0.103,0.522-0.103,0.768,0l23.008,9.568c0.373,0.155,0.616,0.52,0.616,0.923
			s-0.243,0.768-0.616,0.923l-23.008,9.569C42.781,38.046,42.65,38.071,42.52,38.071z M22.116,27.502l20.404,8.486l20.403-8.486
			L42.52,19.017L22.116,27.502z"/>
	</g>
	<path fill-rule="evenodd" clip-rule="evenodd" fill="#FFFFFF" d="M33.881,56.084v-8.771l3.105,1.381l-6-10.622l-6,5.289l3.105,1.38
		v8.771L33.881,56.084z"/>
</g>
</svg>
