<?xml version="1.0" encoding="utf-8"?>
<!-- Generator: Adobe Illustrator 16.0.0, SVG Export Plug-In . SVG Version: 6.00 Build 0)  -->
<!DOCTYPE svg PUBLIC "-//W3C//DTD SVG 1.1//EN" "http://www.w3.org/Graphics/SVG/1.1/DTD/svg11.dtd">
<svg version="1.1" id="圖層_1" xmlns="http://www.w3.org/2000/svg" xmlns:xlink="http://www.w3.org/1999/xlink" x="0px" y="0px"
	 width="60.094px" height="56.693px" viewBox="0 0 60.094 56.693" enable-background="new 0 0 60.094 56.693" xml:space="preserve">
<path fill="#FFFFFF" d="M59.432,16.258c0.408,0.451,0.607,1.086,0.391,1.85c-1.811,6.357-3.621,12.713-5.432,19.07
	c-0.127,0.445-0.355,0.779-0.637,1.02c-0.338,0.314-0.807,0.518-1.408,0.518c-9.805,0-19.609,0-29.414,0
	c0.474,1.682,0.947,3.361,1.422,5.041c7.888,0,15.779,0,23.669,0c0.1,0,0.197,0.006,0.289,0.018
	c3.502,0.121,6.316,2.965,6.316,6.453c0,3.566-2.936,6.467-6.545,6.467c-3.607,0-6.543-2.9-6.543-6.467
	c0-0.803,0.156-1.57,0.43-2.281c-4.393,0-8.785,0-13.175,0c0.271,0.711,0.429,1.479,0.429,2.281c0,3.566-2.936,6.467-6.543,6.467
	c-3.608,0-6.545-2.9-6.545-6.467c0-2.658,1.637-4.947,3.965-5.939c-3.519-12.48-7.04-24.961-10.558-37.439c-2.438,0-4.873,0-7.311,0
	c-2.734,0-2.734-4.191,0-4.191c2.974,0,5.947,0,8.92,0c0.549,0,0.984,0.172,1.314,0.439c0.327,0.242,0.592,0.604,0.73,1.1
	c1.059,3.754,2.118,7.508,3.177,11.262c13.802,0,27.602,0,41.403,0C58.543,15.457,59.094,15.785,59.432,16.258z M24.984,50.227
	c0-1.252-1.033-2.275-2.303-2.275c-1.271,0-2.304,1.023-2.304,2.275c0,1.254,1.032,2.277,2.304,2.277
	C23.951,52.504,24.984,51.48,24.984,50.227z M50.387,50.227c0-1.252-1.033-2.275-2.303-2.275s-2.303,1.023-2.303,2.275
	c0,1.254,1.033,2.277,2.303,2.277S50.387,51.48,50.387,50.227z M21.751,34.525c9.664,0,19.326,0,28.99,0
	c1.412-4.96,2.826-9.92,4.238-14.879c-12.475,0-24.948,0-37.423,0C18.953,24.607,20.353,29.565,21.751,34.525z"/>
</svg>
