<?xml version="1.0" encoding="utf-8"?>
<!-- Generator: Adobe Illustrator 16.0.0, SVG Export Plug-In . SVG Version: 6.00 Build 0)  -->
<!DOCTYPE svg PUBLIC "-//W3C//DTD SVG 1.1//EN" "http://www.w3.org/Graphics/SVG/1.1/DTD/svg11.dtd">
<svg version="1.1" id="圖層_2_拷貝" xmlns="http://www.w3.org/2000/svg" xmlns:xlink="http://www.w3.org/1999/xlink" x="0px"
	 y="0px" width="131px" height="30px" viewBox="-0.208 0 131 30" enable-background="new -0.208 0 131 30" xml:space="preserve">
<g>
	<rect x="0" fill="#D52528" width="29.861" height="30"/>
	<rect x="33.674" fill="#D52528" width="29.861" height="30"/>
	<rect x="67.347" fill="#D52528" width="29.861" height="30"/>
	<rect x="101.021" fill="#D52528" width="29.861" height="30"/>
	<path fill="#FFFFFF" d="M19.24,24.697l-1.171-3.318h-6.665l-1.171,3.318H6.15l6.785-17.615l-0.721-1.78h4.473l7.025,19.395H19.24z
		 M14.766,12.03l-2.312,6.394h4.563L14.766,12.03z"/>
	<path fill="#FFFFFF" d="M48.17,24.697c-1.832,0-3.783-0.09-5.554-0.724l-0.391-4.162c1.471,0.935,3.393,1.629,5.764,1.629
		c1.562,0,2.792-1.086,2.792-2.262c0-1.146-0.69-1.719-1.921-2.292l-2.552-1.206c-2.702-1.297-3.784-2.987-3.784-5.128
		c0-3.619,3.003-5.881,7.086-5.881c1.711,0,3.753,0.574,4.804,1.116v3.92c-1.982-1.538-3.243-1.809-4.804-1.809
		c-1.742,0-3.002,0.845-3.002,2.171c0,1.117,0.872,1.9,2.012,2.413l2.941,1.357c1.772,0.814,3.423,2.504,3.423,4.946
		C54.985,22.314,51.982,24.697,48.17,24.697z"/>
	<path fill="#FFFFFF" d="M86.586,24.381l-1.171-3.318H78.75l-1.171,3.318h-4.083l6.785-17.615l-0.721-1.78h4.474l7.025,19.395
		H86.586z M82.113,11.712l-2.312,6.395h4.563L82.113,11.712z"/>
	<path fill="#FFFFFF" d="M118.401,18.062c-0.631,0-1.681-0.181-2.162-0.422v-1.9h0.271c2.672,0,3.602-1.689,3.602-4.253
		c0-2.292-1.23-3.409-3.962-3.409h-1.471v16.438h-4.112V5.635c1.261-0.453,3.662-0.785,6.094-0.785c4.924,0,7.805,2.474,7.805,6.666
		C124.465,15.136,121.763,18.062,118.401,18.062z"/>
</g>
</svg>
