<?xml version="1.0" encoding="utf-8"?>
<!-- Generator: Adobe Illustrator 16.0.0, SVG Export Plug-In . SVG Version: 6.00 Build 0)  -->
<!DOCTYPE svg PUBLIC "-//W3C//DTD SVG 1.1//EN" "http://www.w3.org/Graphics/SVG/1.1/DTD/svg11.dtd">
<svg version="1.1" id="圖層_1" xmlns="http://www.w3.org/2000/svg" xmlns:xlink="http://www.w3.org/1999/xlink" x="0px" y="0px"
	 width="45.354px" height="56.693px" viewBox="0 0 45.354 56.693" enable-background="new 0 0 45.354 56.693" xml:space="preserve">
<g>
	<path fill="#FFFFFF" d="M22.658,4.294c4.812,0,8.727,4.099,8.727,9.136s-3.915,9.136-8.727,9.136c-4.813,0-8.728-4.099-8.728-9.136
		S17.846,4.294,22.658,4.294 M22.658,0.294c-7.03,0-12.728,5.881-12.728,13.136c0,7.254,5.697,13.136,12.728,13.136
		c7.03,0,12.727-5.882,12.727-13.136C35.385,6.175,29.688,0.294,22.658,0.294L22.658,0.294z"/>
	<path fill="#FFFFFF" d="M22.656,34.751c9.235,0,18.55,3.857,18.55,12.476v5.129H4.105v-5.129
		C4.105,38.609,13.423,34.751,22.656,34.751 M22.656,30.751c-12.052,0-22.551,5.754-22.551,16.476v9.129h45.101v-9.129
		C45.207,36.505,34.708,30.751,22.656,30.751L22.656,30.751z"/>
</g>
</svg>
