<?xml version="1.0" encoding="utf-8"?>
<!-- Generator: Adobe Illustrator 16.0.0, SVG Export Plug-In . SVG Version: 6.00 Build 0)  -->
<!DOCTYPE svg PUBLIC "-//W3C//DTD SVG 1.1//EN" "http://www.w3.org/Graphics/SVG/1.1/DTD/svg11.dtd">
<svg version="1.1" id="圖層_1" xmlns="http://www.w3.org/2000/svg" xmlns:xlink="http://www.w3.org/1999/xlink" x="0px" y="0px"
	 width="22.677px" height="48.188px" viewBox="0 0 22.677 48.188" enable-background="new 0 0 22.677 48.188" xml:space="preserve">
<g>
	<path fill="#FFFFFF" d="M9.429,47.152V41.48C6.171,41.426,2.8,40.412,0.834,39.01l1.349-3.766c2.022,1.348,4.943,2.416,8.089,2.416
		c3.987,0,6.685-2.303,6.685-5.506c0-3.088-2.191-4.998-6.348-6.684c-5.729-2.246-9.269-4.83-9.269-9.717
		c0-4.662,3.314-8.201,8.481-9.045V1.037h3.482v5.447c3.371,0.113,5.674,1.012,7.303,1.967l-1.404,3.707
		c-1.18-0.674-3.482-1.91-7.078-1.91c-4.325,0-5.954,2.584-5.954,4.832c0,2.92,2.078,4.381,6.965,6.404
		c5.785,2.357,8.707,5.279,8.707,10.279c0,4.438-3.09,8.594-8.875,9.549v5.84H9.429z"/>
</g>
</svg>
