<?xml version="1.0" encoding="utf-8"?>
<!-- Generator: Adobe Illustrator 16.0.0, SVG Export Plug-In . SVG Version: 6.00 Build 0)  -->
<!DOCTYPE svg PUBLIC "-//W3C//DTD SVG 1.1//EN" "http://www.w3.org/Graphics/SVG/1.1/DTD/svg11.dtd">
<svg version="1.1" id="圖層_1" xmlns="http://www.w3.org/2000/svg" xmlns:xlink="http://www.w3.org/1999/xlink" x="0px" y="0px"
	 width="180.167px" height="53.008px" viewBox="0 0 180.167 53.008" enable-background="new 0 0 180.167 53.008"
	 xml:space="preserve">
<g>
	<g>
		<path fill="#FFFFFF" d="M15.82,1.678l1.876,4.708L0.01,53.008h10.644l3.052-8.783h17.375l3.052,8.783h11.66L27.48,1.678H15.82z
			 M16.446,36.403l6.026-16.924l5.87,16.924H16.446z M76.985,24.267l-7.665-3.592c-2.973-1.354-5.243-3.432-5.243-6.386
			c0-3.512,3.285-5.749,7.825-5.749c4.067,0,7.353,0.72,12.514,4.791V2.954c-2.736-1.437-8.057-2.953-12.514-2.953
			c-10.644,0-18.472,5.986-18.472,15.566c0,5.667,2.819,10.139,9.862,13.571l6.652,3.194c3.208,1.517,5.007,3.033,5.007,6.066
			c0,3.113-3.208,5.986-7.276,5.986c-6.182,0-11.191-1.835-15.026-4.312l1.016,11.017c4.619,1.678,9.707,1.918,14.481,1.918
			c9.936,0,17.756-6.309,17.756-15.647C85.903,30.895,81.602,26.424,76.985,24.267z M106.095,0.839l1.877,4.709L90.282,52.17h10.645
			l3.054-8.783h17.374l3.052,8.783h11.663L117.753,0.839H106.095z M106.719,35.564l6.024-16.925l5.873,16.925H106.719z
			 M159.815,0.479c-6.34,0-12.6,0.878-15.887,2.077v49.973h10.723V9.022h3.834c7.124,0,10.333,2.954,10.333,9.021
			c0,6.784-2.427,11.255-9.394,11.255h-0.703v5.028c1.251,0.642,3.99,1.117,5.637,1.117c8.764,0,15.809-7.741,15.809-17.322
			C180.167,7.026,172.65,0.479,159.815,0.479z"/>
	</g>
</g>
</svg>
