<?xml version="1.0" encoding="utf-8"?>
<!-- Generator: Adobe Illustrator 16.0.0, SVG Export Plug-In . SVG Version: 6.00 Build 0)  -->
<!DOCTYPE svg PUBLIC "-//W3C//DTD SVG 1.1//EN" "http://www.w3.org/Graphics/SVG/1.1/DTD/svg11.dtd">
<svg version="1.1" id="圖層_1" xmlns="http://www.w3.org/2000/svg" xmlns:xlink="http://www.w3.org/1999/xlink" x="0px" y="0px"
	 width="96.001px" height="29.197px" viewBox="0 0 96.001 29.197" enable-background="new 0 0 96.001 29.197" xml:space="preserve">
<g>
	<g>
		<path fill="#FFFFFF" d="M8.831,1.587l1.003,2.518L0.379,29.028h5.69L7.7,24.332h9.289l1.631,4.696h6.233l-9.79-27.441H8.831z
			 M9.165,20.151l3.221-9.047l3.139,9.047H9.165z M40.995,13.664l-4.1-1.92c-1.59-0.724-2.802-1.835-2.802-3.413
			c0-1.878,1.755-3.073,4.183-3.073c2.176,0,3.933,0.384,6.693,2.561V2.27c-1.463-0.768-4.309-1.579-6.693-1.579
			c-5.69,0-9.875,3.2-9.875,8.321c0,3.029,1.506,5.42,5.271,7.255l3.557,1.706c1.715,0.813,2.678,1.624,2.678,3.244
			c0,1.665-1.715,3.201-3.891,3.201c-3.305,0-5.982-0.98-8.032-2.305l0.543,5.89c2.469,0.896,5.189,1.024,7.741,1.024
			c5.313,0,9.496-3.374,9.496-8.365C45.765,17.206,43.464,14.817,40.995,13.664z M56.561,1.139l1.005,2.518l-9.458,24.922h5.692
			l1.631-4.695h9.288l1.631,4.695h6.234l-9.79-27.44H56.561z M56.894,19.702l3.221-9.047l3.139,9.047H56.894z M84.743,0.947
			c-3.389,0-6.736,0.469-8.492,1.11v26.715h5.732V5.514h2.049c3.808,0,5.523,1.579,5.523,4.823c0,3.626-1.296,6.016-5.02,6.016
			h-0.377v2.688c0.669,0.344,2.134,0.598,3.013,0.598c4.685,0,8.451-4.139,8.451-9.26C95.623,4.447,91.604,0.947,84.743,0.947z"/>
	</g>
</g>
</svg>
