<?xml version="1.0" encoding="utf-8"?>
<!-- Generator: Adobe Illustrator 16.0.0, SVG Export Plug-In . SVG Version: 6.00 Build 0)  -->
<!DOCTYPE svg PUBLIC "-//W3C//DTD SVG 1.1//EN" "http://www.w3.org/Graphics/SVG/1.1/DTD/svg11.dtd">
<svg version="1.1" id="圖層_1" xmlns="http://www.w3.org/2000/svg" xmlns:xlink="http://www.w3.org/1999/xlink" x="0px" y="0px"
	 width="92.688px" height="92.688px" viewBox="0 0 92.688 92.688" enable-background="new 0 0 92.688 92.688" xml:space="preserve">
<g>
	<path fill="#FFFFFF" d="M46.303,0.546v5l0,0c14.744,0,28.477,7.923,35.84,20.676c5.52,9.562,6.986,20.702,4.129,31.366
		c-2.857,10.666-9.699,19.578-19.262,25.1c-6.283,3.627-13.414,5.545-20.623,5.545c-14.744,0-28.478-7.922-35.842-20.674
		c-11.396-19.74-4.608-45.07,15.13-56.467c6.285-3.627,13.416-5.545,20.626-5.546L46.303,0.546 M46.301,0.546
		c-7.861,0-15.83,2.003-23.126,6.216C1.013,19.557-6.58,47.896,6.214,70.059c8.584,14.865,24.157,23.174,40.172,23.174
		c7.859,0,15.828-2.002,23.123-6.215c22.164-12.795,29.758-41.134,16.963-63.296C77.889,8.856,62.316,0.545,46.301,0.546
		L46.301,0.546z"/>
	<g>
		<g>
			<path fill-rule="evenodd" clip-rule="evenodd" fill="#FFFFFF" d="M32.906,28.081v5.374h37.617v-5.374H32.906z M32.906,49.576
				h37.617v-5.375H32.906V49.576z M32.906,65.697h37.617v-5.373H32.906V65.697z M23.503,26.737c-2.227,0-4.03,1.879-4.03,4.198
				c0,2.319,1.804,4.199,4.03,4.199s4.03-1.88,4.03-4.199C27.534,28.617,25.73,26.737,23.503,26.737z M23.503,42.019
				c-2.227,0-4.03,1.879-4.03,4.198s1.804,4.199,4.03,4.199s4.03-1.881,4.03-4.199S25.73,42.019,23.503,42.019z M23.503,58.645
				c-2.227,0-4.03,1.879-4.03,4.197s1.804,4.199,4.03,4.199s4.03-1.881,4.03-4.199S25.73,58.645,23.503,58.645z"/>
		</g>
	</g>
</g>
</svg>
