<?xml version="1.0" encoding="utf-8"?>
<!-- Generator: Adobe Illustrator 16.0.0, SVG Export Plug-In . SVG Version: 6.00 Build 0)  -->
<!DOCTYPE svg PUBLIC "-//W3C//DTD SVG 1.1//EN" "http://www.w3.org/Graphics/SVG/1.1/DTD/svg11.dtd">
<svg version="1.1" id="圖層_1" xmlns="http://www.w3.org/2000/svg" xmlns:xlink="http://www.w3.org/1999/xlink" x="0px" y="0px"
	 width="51.59px" height="48.188px" viewBox="0 0 51.59 48.188" enable-background="new 0 0 51.59 48.188" xml:space="preserve">
<g>
	<g>
		<g>
			<path fill="#FFFFFF" d="M42.482,20.327c-0.115,0-0.23,0-0.349,0.005c-2.313,0.079-4.006,0.847-6.702,2.588
				c0.058-0.998,0.143-2.268,0.214-3.989c0.104-2.534-2.099-5.335-2.099-5.335c-5.723-7.439-4.024-13.764-5.01-13.082
				c-0.396,0.272-1.252,2.39-0.422,5.593c-1.199-3.068-1.144-5.088-1.659-4.614c-0.352,0.32-0.896,2.504,0.34,5.526
				C25.287,4.267,25.06,2.374,24.627,2.9c-0.326,0.396-0.573,2.983,1.56,6.134c-1.709-2.372-2.176-4.053-2.516-3.496
				c-0.244,0.399-0.166,2.588,1.776,5.109c-1.546-1.757-2.123-2.961-2.353-2.429c-0.156,0.36,0.036,1.924,1.423,3.723
				c-1.198-1.235-1.716-2.003-1.871-1.535c-0.132,0.396,0.229,2.095,2.009,3.867c-1.484-1.253-2.137-2.1-2.258-1.587
				c-0.086,0.365,0.316,1.74,1.797,3.187c-1.278-0.94-1.873-1.529-1.939-1.063c-0.059,0.393,0.531,1.869,2.363,3.252
				c-1.461-0.88-2.152-1.477-2.18-0.985c-0.007,0.123,0.065,0.349,0.214,0.631c-1.82-1.254-4.141-1.751-4.141-1.751
				C8.551,13.732,5.52,7.325,5.18,8.571c-0.136,0.498,0.641,2.841,3.576,4.922c-3.147-1.717-4.517-3.426-4.611-2.68
				c-0.064,0.508,1.016,2.69,4.159,4.345c-3.183-1.244-4.697-2.653-4.686-1.921c0.007,0.554,1.62,2.867,5.594,4.008
				c-3.08-0.789-4.646-1.861-4.537-1.164c0.078,0.499,1.679,2.26,5.059,3.009c-2.515-0.391-3.839-0.991-3.656-0.391
				c0.124,0.405,1.382,1.568,3.794,2.104c-1.863-0.199-2.83-0.479-2.629,0.018c0.169,0.416,1.661,1.577,4.379,1.817
				c-2.11-0.015-3.244-0.267-2.985,0.24c0.185,0.363,1.486,1.226,3.728,1.404c-1.72,0.101-2.628,0.021-2.356,0.455
				c0.228,0.364,1.753,1.185,4.242,1.065c-1.828,0.279-2.818,0.262-2.499,0.686c0.244,0.322,1.651,0.938,3.852,0.746
				c-1.709,0.407-2.64,0.481-2.292,0.864c0.269,0.303,1.716,0.793,3.877,0.42c-1.705,0.568-2.651,0.721-2.266,1.078
				c0.245,0.227,1.314,0.52,2.889,0.287c-1.525,0.494-2.348,0.65-1.985,0.986c0.261,0.244,1.452,0.559,3.192,0.24
				c-1.342,0.559-2.053,0.779-1.682,1.066c0.264,0.207,1.342,0.402,2.875,0.045c-1.344,0.736-2.076,1.035-1.664,1.293
				c0.301,0.188,1.523,0.27,3.162-0.361c-1.381,0.77-2.201,1.104-1.992,1.363c-1.47,0.438-3.02,1.104-4.572,1.682
				c-1.41,0.52-2.819,0.961-4.164,1.064c-0.434,0.035-0.855,0.051-1.262,0.051c-0.512,0-1.003-0.025-1.473-0.07
				c-0.919-0.061-1.442-0.178-1.976-0.334c-0.422-0.104-0.821-0.221-1.197-0.352c-0.932-0.322-1.725-0.713-2.384-1.104
				c-1.565-0.928-2.359-1.857-2.407-1.857c-0.007,0,0.004,0.023,0.033,0.07c0.439,0.742,9.761,10.867,21.925,10.867h0.158
				c-1.291,0.355-2.613,0.545-3.969,0.545c-4.833,0-10.086-2.418-15.803-8.402c3.059,3.203,10.582,11.049,19.52,11.049
				c5.832,0,12.263-3.34,18.455-13.484c0.048-0.076,0.095-0.154,0.143-0.232c1.093-1.631,2.173-3.27,3.404-4.65
				c1.269-1.371,2.714-2.519,4.359-3.122c0.847-0.295,1.772-0.458,2.797-0.458C51.307,25.777,48.589,20.327,42.482,20.327z
				 M51.072,25.686c0.039,0.014,0.084,0.015,0.107-0.022c-0.014,0.021-0.035,0.037-0.058,0.041
				C51.107,25.699,51.088,25.691,51.072,25.686z"/>
		</g>
	</g>
</g>
</svg>
