<?xml version="1.0" encoding="utf-8"?>
<!-- Generator: Adobe Illustrator 26.3.1, SVG Export Plug-In . SVG Version: 6.00 Build 0)  -->
<svg version="1.1" id="圖層_1" xmlns="http://www.w3.org/2000/svg" xmlns:xlink="http://www.w3.org/1999/xlink" x="0px" y="0px"
	 viewBox="0 0 678.9 47.4" style="enable-background:new 0 0 678.9 47.4;" xml:space="preserve">
<style type="text/css">
	.st0{fill:#888888;}
	.st1{fill:#FF0055;}
	.st2{fill:#666666;}
	.st3{fill-rule:evenodd;clip-rule:evenodd;fill:#BBBBBB;}
	.st4{fill:#999999;}
</style>
<g>
	<g>
		<path class="st0" d="M2.5,12.7c0.9,0,1.4,0.4,1.4,1.3c0,0.2,0,0.3-0.1,0.5c-0.6,2.2-0.9,3.6-0.9,4c0,0.7,0.1,1.1,0.2,1.4
			c0.2,0.3,0.6,0.5,1.1,0.5c0.1,0,0.3,0,0.4,0c0.1-2.9,0.3-6.2,0.5-9.7c0.1-1,0.7-1.5,1.6-1.6c0.9,0,1.4,0.6,1.5,1.6
			c-0.1,1-0.2,3.6-0.5,7.8c0,0.5,0,1-0.1,1.4c0.6-0.1,1.2-0.3,1.9-0.4v2.7c-0.8,0.2-1.4,0.3-2,0.4c-0.1,3-0.2,6.1-0.2,9.3h-3
			c0-2.5,0.1-5.4,0.2-8.8H3.8c-1.2,0-2.1-0.3-2.8-1c-0.7-0.7-1-1.7-1-3.1c0-0.9,0.3-2.6,0.9-5.1C1.2,13.2,1.8,12.8,2.5,12.7z
			 M17.5,11.5c1.5,0,2.6,0.4,3.6,1.3c0.8,0.9,1.3,1.9,1.3,3.1v0.4c0,1.1-0.1,2.5-0.3,4.2c-0.2,1.1-0.3,2-0.5,2.8h0.6
			c1.4,0,2.1,0.5,2.2,1.4c-0.1,0.8-0.5,1.3-1.5,1.4c-3.8,0-6.8,0.1-9,0.1c-0.3,1.9-0.6,3.8-0.9,5.8l-3.1-0.6
			c0.3-1.8,0.6-3.5,0.9-5.1c-0.8,0-1.5,0-2.2,0.1v-2.8c0.8-0.1,1.7-0.1,2.8-0.1c0.7-3.7,1.3-6.7,1.8-8.9c-1.3,0.2-2.5,0.5-3.7,0.9
			l-0.6-2.7c1.5-0.5,3.2-0.9,5-1.1c0.3-0.9,0.5-1.5,0.6-1.8c0.4-0.5,0.9-0.8,1.5-0.8c0.9,0,1.5,0.5,1.5,1.4c0,0.3-0.1,0.6-0.1,1
			H17.5z M16.6,14.3c0,0.1-0.1,0.2-0.1,0.2c-0.8,2.7-1.4,5.7-2.1,8.9c1.2,0,2.6-0.1,4-0.1c0.3-1.3,0.5-2.6,0.7-3.8
			c0.2-1.3,0.3-2.4,0.3-3.3c0-0.6-0.2-1.1-0.6-1.5c-0.5-0.4-1.1-0.6-1.9-0.6H16.6z M17.1,26.9c0.8,0,2.8,0.9,6,2.7l-1.4,2.4
			c-2-1-3.8-1.9-5.3-2.7C16,29,15.8,28.5,15.7,28C15.8,27.3,16.3,27,17.1,26.9z"/>
		<path class="st0" d="M29.1,19.1c0.9,0,1.4,0.5,1.5,1.3c0,0.4-0.2,1.2-0.5,2.6c-0.3,1.6-0.4,2.8-0.4,3.7c0,0.9,0.4,1.5,1.3,1.9
			c0.8,0.4,2.1,0.6,4,0.6c3.6,0,7.7-0.3,12.3-1v2.8c-4.2,0.7-8.2,1-12,1h-1.1c-2,0-3.8-0.4-5.2-1.1c-1.6-0.9-2.3-2.1-2.3-3.8
			c0-2,0.3-4.2,0.9-6.8C27.7,19.6,28.2,19.2,29.1,19.1z M28.2,11.9c0.8,0,1.3,0.4,1.6,1c0.3,0.8,0.8,1.8,1.5,3l-2.9,1.7
			c-1.1-2.1-1.7-3.5-1.7-4.2C26.8,12.5,27.3,12,28.2,11.9z M47.1,10.3c1.3,0,1.9,0.4,2,1.2c-0.1,0.8-0.5,1.2-1.4,1.3
			c-2.1,0-3.9,0-5.5,0.1c0,0.4,0,0.8-0.1,1.3c1.7,0,2.8,0.1,3.5,0.3c1.2,0.3,2,0.7,2.6,1.4c0.6,0.6,0.9,1.6,0.9,3.1v0.4
			c0,1.1-0.4,2.1-1.1,2.9c-0.9,1.1-2.9,1.6-6.1,1.6h-0.1c0,1.4-0.1,2.7-0.1,4.1h-3.1c0-1.3,0-2.6,0.1-4.1c-0.4,0-0.8,0-1.2-0.1
			c-0.1,0.4-0.3,0.7-0.5,1c-1,1.1-2.1,2.2-3.3,3.4l-2.1-1.6c1-1.3,2-2.4,3-3.4c-0.1-0.1-0.3-0.1-0.4-0.1c-1.7-0.8-2.6-2-2.6-3.8V19
			c0-1.3,0.3-2.5,0.9-3.8c0.3-0.7,0.8-1,1.5-1.1c0.6,0,1.1,0.3,1.3,0.7c1.2-0.2,2.4-0.4,3.5-0.5c0-0.5,0-1,0.1-1.4
			c-0.8,0-1.6,0-2.2,0c-1.5,0.1-3,0.1-4.4,0.1v-2.5c1.7-0.1,3.9-0.1,6.7-0.2v-0.1c0.1-1,0.7-1.6,1.6-1.7c1,0,1.5,0.6,1.6,1.7v0
			C43.9,10.3,45.4,10.3,47.1,10.3z M38.8,21.4c0.1-1.4,0.1-2.9,0.2-4.5c-1.4,0.1-2.7,0.3-4,0.6c-0.1,0.5-0.2,0.9-0.2,1.2
			c0,1.1,0.4,1.9,1.2,2.2C36.6,21.1,37.5,21.3,38.8,21.4z M42,16.7L42,16.7c-0.1,1.6-0.1,3.2-0.2,4.7c0.9,0,1.6-0.1,2.3-0.2
			c0.6-0.1,1.1-0.3,1.5-0.7c0.3-0.2,0.5-0.7,0.5-1.4c0-1.1-0.3-1.8-1-2.1C44.7,16.8,43.7,16.7,42,16.7z M45,24.4
			c0.6,0,2.2,0.7,4.9,2l-1.4,2.4c-1.5-0.8-2.9-1.4-4.1-2c-0.5-0.4-0.7-0.8-0.7-1.3C43.7,24.8,44.2,24.5,45,24.4z"/>
		<path class="st0" d="M54.4,9.8c0.4,0,0.6,0.1,0.8,0.3c0.4-0.1,0.9-0.2,1.3-0.3c1.4,0,2.3,0.2,2.7,0.6c0.7,0.4,1.2,1.2,1.6,2.6
			c0.4,0.9,0.6,2.4,0.7,4.5c1,0,2.2,0,3.6,0c0-0.4,0-0.7-0.1-1.1h-2.4V14h2.3c0-0.4,0-0.7-0.1-1c-1.3,0-2.2,0.1-2.8,0.1v-2.5
			c0.6,0,1.5-0.1,2.7-0.1v-0.2c0-0.8,0.4-1.3,1.2-1.3c1,0,1.6,0.5,1.8,1.4v0.1c1,0,2,0,3.1,0c0.1-0.5,0.1-0.8,0.1-0.9
			C71.5,9,72,8.8,72.5,8.8c0.9,0,1.3,0.5,1.4,1.3c0,0.1,0,0.2,0,0.3h0.4c1.4,0,2.1,0.4,2.1,1.3c-0.1,0.7-0.5,1.1-1.3,1.2h-1.6
			c0,0.4-0.1,0.7-0.1,1.1h0.4c1.1,0,1.7,0.4,1.8,1.1c0,0.7-0.5,1.1-1.3,1.2h-1.1c0,0.4-0.1,0.7-0.1,1h1.2c1.3,0,2,0.4,2,1.2
			c-0.1,0.8-0.5,1.2-1.4,1.3c-1.7,0-3.2,0-4.5,0c0,0.2,0,0.4,0,0.6H71c1.6,0,2.9,0.4,3.7,1.1c0.9,0.9,1.4,2.1,1.4,3.8v1.2
			c0,0.4,0,0.7-0.1,1.1c0.5,0.2,0.8,0.5,0.9,1c0,0.7-0.5,1.1-1.3,1.2c-0.2,0.6-0.4,1.2-0.6,1.8c-0.2,0.5-0.7,0.8-1.5,0.8
			c-0.9,0-1.4-0.4-1.4-1.2c0.2-0.5,0.3-1,0.5-1.4c-2.7,0-5,0-6.7,0.1c0.1,0.9,0.2,1.6,0.3,2.2h-2.9c-0.1-0.5-0.2-1.2-0.3-2.2
			c-0.6,0-1.2,0-1.7,0l-1.9,1.4c-0.7-1-1.3-1.7-1.8-2.2c-0.3-0.3-0.5-0.7-0.5-1.2c0-0.1,0-0.2,0.1-0.3c-0.1,0-0.1,0-0.2,0
			c-0.4,0-0.8,0-1.2-0.1c-0.1,0.6-0.7,1.8-1.7,3.8l-2.3-0.9c0.1-0.5,0.6-1.6,1.4-3.1c0.2-0.3,0.3-0.5,0.6-0.6
			c-0.3-0.3-0.6-0.5-0.8-0.8c-0.8-1.2-1.2-2.9-1.2-5.2c0-3.3,0.3-6.5,0.9-9.6C52.9,10.3,53.5,9.8,54.4,9.8z M56.4,12.5
			c-0.4,0.1-0.8,0.2-1.1,0.3c-0.1,0.7-0.2,1.4-0.2,2c0.6,0.1,1.2,0.2,1.7,0.3c0.9,0.2,1.3,0.6,1.4,1.2c0,0.8-0.6,1.2-1.6,1.3
			c-0.7,0-1.2-0.1-1.7-0.1c0,0.6-0.1,1.1-0.1,1.7c0.7,0.1,1.3,0.2,1.8,0.3c0.9,0.2,1.3,0.6,1.4,1.2c0,0.8-0.5,1.2-1.6,1.3
			c-0.6,0-1.2-0.1-1.6-0.1c0.1,1.1,0.2,1.8,0.4,2.2c0.3,0.7,0.9,1,1.7,1c0.8,0,1.4-0.3,1.7-1c0.3-0.7,0.4-1.7,0.4-3
			c0-4.6-0.2-7.1-0.5-7.4c-0.3-0.5-0.6-0.8-0.9-0.8C57,12.5,56.7,12.5,56.4,12.5z M59.4,27c0.1,0.1,0.2,0.2,0.3,0.3
			c0.3,0.3,0.7,0.8,1.2,1.4v-1c0.6,0,1.4-0.1,2.1-0.1v-1.4c0-1.4,0.1-2.7,0.2-4.1c0.2-1,0.6-1.5,1.5-1.5c0.4,0,0.7,0.1,0.9,0.3
			c0.7-0.1,1.4-0.2,2.1-0.3v-0.8c-1.2,0-2.2,0-3,0c-1,0-2,0-3,0.1v0.5c0,2.3-0.3,3.9-0.8,5C60.5,26.1,60,26.7,59.4,27z M65.9,26.2
			c0,0.2-0.1,0.4-0.1,0.5v0.8c0.6,0,1.2,0,1.9,0v-1.2C67,26.3,66.4,26.2,65.9,26.2z M66,23.2c0,0.3,0,0.7,0,1c0.6,0,1.2,0,1.7,0
			v-1.4C67.1,23,66.5,23.1,66,23.2z M70.6,14c0-0.4,0.1-0.8,0.1-1.1c-1,0-2,0-2.8,0c0,0.4,0,0.7,0.1,1.1H70.6z M70.4,17.3
			c0-0.4,0.1-0.7,0.1-1h-2.3c0,0.4,0,0.7,0.1,1H70.4z M70.5,27.4c0.9,0,1.7,0,2.7,0c0-0.4,0.1-0.7,0.1-1v-0.2
			c-0.2,0.1-0.3,0.1-0.5,0.1c-0.8,0-1.5,0-2.2,0V27.4z M70.5,22.7v1.6c0.9,0,1.7,0,2.4,0H73c-0.1-0.5-0.3-0.8-0.6-1
			C71.9,23,71.3,22.8,70.5,22.7z"/>
		<path class="st0" d="M84.8,9.4c0.8,0,1.2,0.4,1.3,1.3c0.2,1.4,0.4,2.8,0.5,4.2c0.3,0,0.5,0.1,0.7,0.1c1.3-2.6,2.2-4.3,2.8-5.3
			c0.5-0.4,1-0.6,1.6-0.6c0.9,0,1.3,0.5,1.4,1.4c0,0.4-0.1,0.8-0.4,1.2c1.2-0.2,2.5-0.4,3.8-0.5h1.1c1.6,0,2.7,0.5,3.4,1.5
			c0.9,0.8,1.4,3.2,1.4,7.2v0.8c0,3.2-0.7,6.6-2,10.2c-0.2,0.7-0.8,1.1-1.6,1.1c-1,0-1.5-0.4-1.5-1.3c1.4-3.7,2.1-7.1,2.1-10.1
			c0-3.1-0.2-5-0.6-5.8c-0.5-0.5-1-0.7-1.7-0.7c-2,0.1-4.1,0.4-6.3,1.1c-0.9,1.6-1.5,2.9-2,4.1l-1.9-1.3c0.1,1.1,0.1,2.1,0.2,3.2
			h0.2c0.6,0,1.1,0.1,1.4,0.4c1.3-1.7,2.5-3.3,3.8-4.6c0.5-0.4,1.1-0.6,1.6-0.6c0.8,0.1,1.2,0.5,1.3,1.2c0,0.5-0.3,0.9-0.7,1.4
			c-1.5,1.6-3,3.4-4.5,5.3l-1.3-1.1c-0.2,0.4-0.6,0.6-1.2,0.8c-0.2,0.1-0.3,0.1-0.5,0.2c0,1.2,0.1,2.3,0.1,3.5
			c-0.1,2.9-1.3,4.4-3.8,4.5c-1.3,0-2.5-0.3-3.6-0.9l-0.1-2.6c1,0.5,2,0.7,3,0.7c1,0,1.5-0.9,1.5-2.8c0-0.3,0-0.8-0.1-1.4
			c-1.8,0.6-3.6,1.2-5.3,1.9L78,24.1c2.5-1,4.5-1.7,6-2.2c-0.1-1.2-0.2-2.6-0.3-4.2c-0.9,0-1.6,0.1-2.1,0.2
			c-0.2,1.2-0.3,2.4-0.4,3.7l-3-0.6c0.7-5.2,1.2-8,1.4-8.6c0.4-0.5,0.8-0.8,1.4-0.8c0.9,0,1.4,0.5,1.5,1.3c0,0.4-0.1,0.9-0.2,1.6
			c0,0.2-0.1,0.4-0.1,0.6c0.4,0,0.9-0.1,1.4-0.1c-0.1-1.3-0.2-2.7-0.3-4.2C83.2,9.9,83.7,9.4,84.8,9.4z M96.2,21.2
			c0.8,0.1,1.2,0.5,1.3,1.2c0,0.4-0.2,0.9-0.6,1.4C95,26,93.1,28.4,91.1,31l-2.2-1.8c1.9-2.8,3.8-5.2,5.8-7.3
			C95.2,21.4,95.7,21.2,96.2,21.2z"/>
		<path class="st0" d="M114.7,18.8c0,1.2-0.7,1.9-2.1,1.9c-0.5,0-1-0.2-1.4-0.5c-0.4-0.4-0.6-0.8-0.6-1.3c0-0.6,0.2-1,0.5-1.4
			c0.4-0.4,0.8-0.5,1.4-0.5c0.7,0,1.2,0.2,1.6,0.5C114.5,17.7,114.7,18.2,114.7,18.8z M114.7,25.7c0,1.2-0.7,1.9-2.1,1.9
			c-0.5,0-1-0.2-1.4-0.5c-0.4-0.4-0.6-0.8-0.6-1.3c0-0.6,0.2-1,0.5-1.4c0.4-0.3,0.8-0.5,1.4-0.5c0.7,0,1.2,0.2,1.6,0.5
			C114.5,24.6,114.7,25.1,114.7,25.7z"/>
	</g>
	<g>
		<g>
			<g>
				<path class="st1" d="M143.7,14v3.4l8.2-5.6l-8.2-5.6v3.4c-7.2,0-13,5.5-13,12.3h4.6C135.3,17.5,139,14,143.7,14z M152.1,18.6
					c0,4.4-3.8,7.9-8.4,7.9v-3.4l-8.2,5.6l8.2,5.6v-3.4c7.2,0,13-5.5,13-12.3H152.1z"/>
			</g>
		</g>
		<path class="st1" d="M155,3.3c3.1,0,5.7,2.5,5.7,5.7v22.6c0,3.1-2.5,5.7-5.7,5.7h-22.6c-3.1,0-5.7-2.5-5.7-5.7V8.9
			c0-3.1,2.5-5.7,5.7-5.7H155 M155,0.3h-22.6c-4.8,0-8.7,3.9-8.7,8.7v22.6c0,4.8,3.9,8.7,8.7,8.7H155c4.8,0,8.7-3.9,8.7-8.7V8.9
			C163.7,4.2,159.8,0.3,155,0.3L155,0.3z"/>
	</g>
	<path class="st1" d="M184.6,21.4c0.5,0,1,0.1,1.5,0.4c1.5,0.8,2.8,1.8,4.1,3c2.8,2.6,4.9,6,5.8,9.7l-10.1,9.3
		c-1.9-0.5-3.8-0.8-5.6-0.8c-2.5,0-5,0.5-7.5,1.2c-0.3,0.1-0.6,0.2-0.9,0.2c-0.6,0-1.3-0.2-1.8-0.7c-1-0.9-1-2.4,0-3.3
		c0.3-0.3,0.6-0.4,1-0.6l3.5-1.4c0.1-0.1,0.2-0.1,0.3-0.2c0.5-0.5,0.5-1.2,0-1.6l-10.1-9.3c-1-0.9-1-2.4,0-3.3
		c0.5-0.5,1.1-0.7,1.8-0.7c0.6,0,1.3,0.2,1.8,0.7l5.8,5.3c-1-0.9-1-2.4,0-3.3c0.5-0.5,1.1-0.7,1.8-0.7c0.6,0,1.3,0.2,1.8,0.7
		l0.9,0.8c-1-0.9-1-2.4,0-3.3c0.5-0.5,1.1-0.7,1.8-0.7c0.6,0,1.3,0.2,1.8,0.7l0.2,0.1c0-0.6,0.2-1.3,0.7-1.8
		C183.3,21.6,183.9,21.4,184.6,21.4 M184.6,18.4c-1.4,0-2.8,0.5-3.8,1.5c-0.1,0.1-0.1,0.1-0.2,0.2c-0.1,0-0.3,0-0.4,0
		c-1.4,0-2.8,0.5-3.8,1.5c-0.3,0.3-0.6,0.6-0.8,1c-1.2,0-2.4,0.5-3.3,1.2l-2-1.8c-1-1-2.4-1.5-3.8-1.5c-1.4,0-2.8,0.5-3.8,1.5
		c-1.1,1-1.7,2.4-1.7,3.8c0,1.4,0.6,2.8,1.7,3.8l7.9,7.3l-0.6,0.2c-0.8,0.3-1.4,0.7-2,1.2c-1.1,1-1.7,2.4-1.7,3.8
		c0,1.4,0.6,2.8,1.7,3.8c1,1,2.4,1.5,3.8,1.5c0.6,0,1.3-0.1,1.9-0.3c2.5-0.7,4.6-1.1,6.6-1.1c1.6,0,3.2,0.2,4.8,0.7l1.6,0.5l1.2-1.1
		l10.1-9.3l1.3-1.2l-0.4-1.7c-1.1-4.3-3.5-8.2-6.7-11.2c-1.5-1.4-3.1-2.5-4.7-3.4C186.5,18.6,185.5,18.4,184.6,18.4L184.6,18.4z"/>
	<g>
		<path class="st2" d="M218.8,18.1h-2.2c-0.1-4.1-0.7-7.2-2.1-9.3c-0.4-0.6-0.7-1-1-1.2c-0.4-0.3-0.9-0.5-1.5-0.5
			c-0.7,0-1.5,0.6-2.4,1.8c-0.7,1-1.3,2.2-1.8,3.5l3.6,0.6c0.7,0.1,1,0.5,1,1.2c0,0.2-0.1,0.4-0.3,0.6c-0.2,0.2-0.4,0.3-0.7,0.3
			c-0.5,0-1.9-0.2-4.3-0.7c-0.2,0.8-0.5,2-0.8,3.6h-2.1c0.3-2.2,0.7-4.3,1.4-6.2c0.8-2.3,1.8-4.1,3-5.4c1-1,2-1.5,3.1-1.5
			c1.3,0,2.4,0.4,3.3,1.3c1.2,1.2,2.2,3,2.8,5.4C218.5,13.7,218.8,15.8,218.8,18.1z"/>
		<path class="st2" d="M225.8,17c0,0.2-0.1,0.4-0.3,0.6c-0.2,0.2-0.3,0.3-0.5,0.3c-0.8,0.2-1.7,0.2-2.6,0.2c-1.1,0-2.1-0.1-2.9-0.3
			v-2.1c0.5,0.1,1.2,0.2,2.1,0.2c-0.1-2.5-0.1-4-0.1-4.5c0-0.8,0-2.2,0.1-4.2c-0.1,0-0.7,0.1-1.7,0.2l0-2.1c0.9-0.1,1.8-0.2,2.7-0.2
			c1,0,1.7,0,2.1,0c0.6,0.1,1,0.4,1,1.1c0,0.7-0.4,1-1.1,1c0,0-0.3,0-0.8-0.1c0,1.4-0.1,2.9-0.1,4.5c0,1.9,0,3.3,0.1,4.2
			c0.1,0,0.3,0,0.5-0.1c0.3,0,0.4-0.1,0.6-0.1c0.3,0,0.6,0.1,0.8,0.4C225.7,16.4,225.8,16.7,225.8,17z"/>
		<path class="st2" d="M208.5,21.7c0.8,0,1.5,0.3,2,0.9c0.6,0.7,0.9,1.5,0.9,2.3c0,1-0.4,2-1.3,3.2c1,0.8,1.4,1.8,1.4,3.1
			c0,1-0.4,1.8-1.1,2.4c-0.7,0.6-1.5,0.9-2.4,0.9c-0.1,0-0.2,0-0.4,0c0.1,2.4,0.1,4,0.1,4.8h-2.2c0-3.4-0.1-5.9-0.2-7.7
			c-0.1-1.5-0.1-2.8-0.2-3.8c0-0.5-0.1-0.9-0.1-1.3c0-0.7,0.3-1,1-1c0.7,0,1.1,0.4,1.1,1.2c0,0.3,0.1,2.1,0.3,5.4c0,0.1,0,0.3,0,0.4
			c0.1,0,0.2,0,0.4,0c0.3,0,0.6-0.2,0.9-0.5c0.3-0.2,0.4-0.5,0.4-0.9c0-0.4-0.1-0.8-0.2-1.2c-0.1-0.4-0.3-0.6-0.5-0.7
			c-0.3-0.1-0.5-0.4-0.6-0.8c0-0.3,0.1-0.5,0.3-0.6c0.2-0.3,0.4-0.7,0.6-1.2c0.1-0.4,0.2-0.8,0.2-1.2c0-1.2-0.4-1.8-1.1-1.8
			c-0.9,0-1.8,0.4-2.8,1.3l-0.2-2.1C206.4,22,207.5,21.7,208.5,21.7z M221.4,22.3c0.9,0,1.4,0.3,1.4,0.9c0,0.5-0.3,0.8-0.9,0.9
			c-1.8,0-3.2,0-4.5,0c-0.2,0.3-0.4,0.7-0.7,1c1-0.1,2.3-0.1,4-0.1c0.8,0,1.3,0.3,1.3,0.8c0,0.5-0.3,0.7-0.8,0.8c-0.7,0-1.3,0-1.9,0
			c0,0.1,0,0.1,0,0.2c0,0.2,0.1,0.5,0.1,0.7c0.6,0,1.2,0,1.8,0c0.9,0,1.3,0.3,1.3,0.9c0,0.5-0.3,0.7-0.8,0.8c-3.7,0-6.1,0.1-7,0.3
			v-1.2c-0.2,0.3-0.4,0.6-0.5,0.9l-1.3-1.1c0.7-1.4,1.4-2.6,2.1-3.8c-0.5,0-1,0.1-1.2,0.1c0.1,0.1,0.3,0.3,0.4,0.4l-0.9,1.7
			c-0.6-0.5-1.1-1-1.5-1.4c-0.3-0.3-0.4-0.6-0.4-0.9c0.1-0.5,0.4-0.8,0.9-0.8c0.2,0,0.5,0.2,1.1,0.7v-1.3c0.6-0.1,1.5-0.1,2.8-0.2
			c0.2-0.3,0.4-0.6,0.6-0.9c0.3-0.3,0.6-0.4,1-0.4c0.5,0.1,0.7,0.3,0.8,0.8c0,0.2,0,0.3-0.1,0.5C219.5,22.3,220.4,22.3,221.4,22.3z
			 M212.9,28.8c0.5,0,0.8,0.3,0.9,0.8c0,0.4-0.1,0.9-0.1,1.6c-0.2,2-0.3,3.2-0.3,3.6c0,0.8,0.2,1.4,0.7,1.8c0.5,0.5,1.4,0.7,2.6,0.7
			c1.2,0,3.2-0.2,5.9-0.6v1.6c-2.4,0.5-4.5,0.7-6.2,0.7c-1.6,0-2.8-0.3-3.6-1c-0.8-0.7-1.2-1.6-1.3-2.8c0-2.3,0.2-4.3,0.5-6
			C212.2,29,212.5,28.8,212.9,28.8z M215.6,30c0.2,0,0.4,0.1,0.5,0.2c0.9-0.3,2-0.5,3.1-0.5h0.6c0.8,0,1.5,0.2,2.1,0.6
			c0.5,0.6,0.7,1.3,0.7,2.1v0.4c0,0.9-0.2,1.9-0.4,3.1c-0.2,0.3-0.4,0.4-0.9,0.4c-0.6,0-1-0.3-1-0.8c0-0.2,0.1-0.3,0.1-0.5
			c0.2-0.6,0.3-1.2,0.4-2c0-0.7-0.1-1.2-0.3-1.6c-0.2-0.2-0.6-0.3-1-0.3c-1.2,0-2.3,0.2-3.4,0.6c0,0.1,0,0.3-0.1,0.4
			c0.6,0,1.4,0,2.5,0c0.8,0,1.2,0.3,1.2,0.8c0,0.4-0.3,0.7-0.7,0.7c-1.3,0-2.3,0-3,0c0,0.2,0,0.5,0.1,0.7c0.6,0,1.4-0.1,2.3-0.1
			c0.8,0,1.2,0.3,1.2,0.8c0,0.4-0.3,0.7-0.7,0.7c-1.1,0-2,0-2.6,0.1c0,0.2,0.1,0.5,0.1,0.7l-1.7,0.3c-0.2-1.1-0.4-2.4-0.4-4.1
			c0-0.8,0.1-1.5,0.3-2C214.9,30.3,215.2,30.1,215.6,30z M215.2,27.7c0.6-0.1,1.4-0.1,2.5-0.2c0-0.5,0-0.8-0.1-0.9v-0.1
			c-0.7,0-1.3,0.1-1.8,0.1C215.6,27.1,215.4,27.4,215.2,27.7z"/>
		<path class="st2" d="M226.7,22.8c0.4,0,1.4,0.6,3,1.8l-1.3,2.2c-0.9-0.7-1.7-1.3-2.3-1.8c-0.4-0.3-0.6-0.7-0.6-1.2
			C225.6,23.1,226,22.8,226.7,22.8z M233.7,21.3c0.8,0,1.4,0.2,1.9,0.6c0.5,0.4,0.7,0.9,0.7,1.6c0,0.8-0.2,1.4-0.6,1.8
			c-0.5,0.4-1.1,0.6-2,0.6l-1.8-0.1v0.1c0,0.3,0.1,0.5,0.2,0.7c0.2,0.2,0.4,0.3,0.7,0.3c0.6,0,1.7-0.2,3.1-0.6v1.6
			c-0.7,0.2-1.4,0.4-1.9,0.5c0,0,0,0.1,0.1,0.1c0.1,0.3,0.2,0.5,0.2,0.8h3.9c0.1-0.4,0.2-0.7,0.2-0.8c0,0,0,0,0,0
			c-0.5-0.1-0.9-0.2-1.2-0.4c-0.4-0.3-0.7-0.8-0.7-1.4c0-1.3,0.1-2.5,0.2-3.4h-0.1l-0.2-1.6c1.3-0.2,2.6-0.3,3.8-0.3
			c0.7,0,1.3,0.2,1.8,0.6c0.4,0.4,0.6,0.9,0.6,1.5c0,0.8-0.2,1.3-0.7,1.7c-0.5,0.4-1.2,0.6-2.1,0.6l-1.4-0.1V26
			c0,0.2,0.1,0.4,0.2,0.6c0.2,0.2,0.4,0.2,0.7,0.2c0.7,0,1.8-0.2,3.4-0.6v1.6c-1,0.3-1.8,0.5-2.6,0.6c0.1,0.1,0.1,0.3,0.1,0.5
			c0,0.1,0,0.3-0.1,0.4h0.6c0.8,0,1.3,0.3,1.3,0.9c0,0.6-0.3,0.9-1,0.9h-1.4c-0.1,0.4-0.1,0.7-0.2,1.1c0.5,0,0.9,0,1.3,0
			c0.4,0,0.7,0,1.1,0c0.6,0,1,0.3,1,0.9c0,0.5-0.3,0.8-0.8,0.9c-0.5,0-1.4,0.1-2.5,0.1c0,0,0,0,0.1,0c0.4,0.3,1,0.8,1.7,1.6
			l-0.8,0.6c0.8-0.1,1.5-0.1,2.3-0.3v2.2c-3.8,0.5-7.3,0.8-10.7,0.8h-0.8c-1.5,0-2.8-0.4-3.9-1.1c-1.2-0.9-1.8-2.1-1.8-3.8
			c0-1.1,0.1-2.5,0.4-3.9c0.2-0.6,0.6-1,1.2-1c0.7,0,1,0.4,1.1,1c0,0.2-0.1,0.7-0.3,1.5c-0.1,0.9-0.2,1.5-0.2,2c0,1.1,0.3,1.8,1,2.3
			c0.6,0.5,1.6,0.8,3,0.8c2.2,0,4.7-0.1,7.3-0.4c-0.5-0.4-0.9-0.7-1.2-0.9c-0.3-0.2-0.4-0.5-0.4-0.9c0-0.2,0.1-0.4,0.2-0.5
			c-0.4,0-0.9,0-1.3,0c-0.8,0-1.6,0-2.4,0.1c0,0.1,0,0.1,0,0.2c-0.1,0.3-0.5,1.1-1.3,2.4l-1.9-0.8c0.1-0.3,0.5-0.9,1.1-1.7l0,0
			c-0.8,0-1.5,0-2.3,0v-1.8c1,0,2,0,2.9,0c-0.1-0.5-0.2-0.9-0.3-1.3h-2v-1.8h1.7c0-0.3,0.1-0.5,0.2-0.7c-0.8,0-1.4-0.2-1.7-0.5
			c-0.4-0.4-0.7-0.9-0.7-1.5c0-1.2,0.1-2.2,0.2-3.1c0-0.1,0.1-0.1,0.1-0.1c-0.1,0-0.3,0-0.4,0.1l-0.3-1.6
			C231,21.5,232.4,21.3,233.7,21.3z M231.8,23c0.1,0.2,0.2,0.4,0.2,0.6c0,0.1,0,0.3,0,0.6c0.4,0,0.9,0.1,1.4,0.1
			c0.3,0,0.6-0.1,0.7-0.2c0.2-0.1,0.3-0.3,0.3-0.6c0-0.3-0.1-0.5-0.2-0.5c-0.2-0.1-0.4-0.2-0.7-0.2C233,22.8,232.5,22.9,231.8,23z
			 M237.6,32.2c0.1-0.4,0.1-0.8,0.2-1.2h-3.2c0.1,0.4,0.2,0.8,0.2,1.2C235.8,32.3,236.7,32.2,237.6,32.2z M238.6,23
			c0.1,0.1,0.1,0.3,0.1,0.4c0,0.2,0,0.4,0,0.8c0.3,0,0.6,0.1,1,0.1c0.4,0,0.7-0.1,0.9-0.2c0.2-0.1,0.3-0.3,0.3-0.5
			c0-0.2-0.1-0.4-0.2-0.5c-0.1-0.1-0.3-0.2-0.6-0.2C239.7,22.9,239.2,22.9,238.6,23z"/>
		<path class="st2" d="M253.9,21c0.5,0,1.2,0.6,2.2,1.8c1.6,0,3.3,0,5.2-0.1c1,0,1.5,0.4,1.6,1c0,0.6-0.4,1-1,1c-0.8,0-1.6,0-2.4,0
			c-0.1,0.4-0.3,1.1-0.7,2.1c1.4,0.1,2.4,0.5,3.1,1.1c0.8,0.7,1.2,1.5,1.2,2.5v0.6c0,0.9-0.1,1.9-0.2,2.9c-0.1,1-0.4,2.4-0.8,4.2
			c-0.1,0.5-0.4,0.8-0.9,0.8c-0.8,0-1.2-0.4-1.2-1.2c0.4-1.6,0.6-2.9,0.8-3.9c0.1-1.1,0.2-2.1,0.2-2.9c0-0.8-0.3-1.4-0.9-1.7
			c-0.6-0.4-1.7-0.5-3.2-0.5c-0.1,0.3-0.1,0.5-0.1,0.6c0,0.7,0.2,1.1,0.7,1.1c0.3,0,1.1-0.2,2.3-0.5v1.7c-1.1,0.4-2,0.6-2.7,0.6H257
			c-0.6,0-1.1-0.3-1.6-0.8c-0.4-0.4-0.5-1-0.5-1.7c0-0.3,0.1-0.6,0.2-1c-0.5,0.1-1,0.1-1.5,0.2c0,0.1,0,0.2,0.1,0.3
			c0,0.2-0.1,0.4-0.3,0.6c-0.8,1-1.5,1.9-1.9,2.6c0.1,0.1,0.2,0.2,0.3,0.3c0.7-0.1,1.3-0.2,1.9-0.2h0.4c2.1,0,3.5,0.2,4.2,0.7
			c0.7,0.4,1,1,1,1.8l0.1,0.3c0,1.1-0.3,1.8-0.8,2.2c-0.5,0.4-1.8,0.6-3.9,0.6h-1.4c-1.4,0-2.3-0.2-2.9-0.6c-0.5-0.4-0.7-1.1-0.7-2
			v-0.4c0-0.6,0.1-1.3,0.4-2.1c0.2-0.4,0.5-0.6,0.8-0.7l-1-0.7c0.7-1,1.2-1.8,1.7-2.3c-1,0.2-1.9,0.5-2.9,0.8c0,0.9-0.1,2.2-0.2,3.9
			c0,2.3,0.2,3.9,0.4,5.1h-2.1c-0.2-0.8-0.4-2.5-0.4-5.1v-0.6c0-1.5,0.1-2.9,0.2-4.4c0.1-0.8,0.5-1.2,1.1-1.2c0.3,0,0.6,0.1,0.7,0.3
			c0.7-0.2,1.3-0.4,2-0.6c-0.5-1.2-0.7-2.1-0.8-2.6c-1.1,0.1-2.1,0.1-3.1,0.1v-2c1.7-0.1,3.9-0.3,6.8-0.4c-0.2-0.3-0.3-0.6-0.3-0.8
			C252.8,21.4,253.2,21,253.9,21z M254.3,34.6c-0.9,0-1.8,0.1-2.8,0.2c-0.1,0.2-0.1,0.4-0.1,0.5c0,0.5,0.1,0.7,0.3,0.9
			c0.3,0.3,0.9,0.4,1.7,0.4h0.9c1.1,0,1.9-0.1,2.4-0.3c0.3-0.1,0.4-0.4,0.4-0.8c0-0.4-0.2-0.6-0.6-0.7
			C256.1,34.6,255.4,34.6,254.3,34.6z M252.5,27.3c1.2-0.2,2.5-0.4,3.8-0.4h0.2c0.2-0.5,0.4-1.2,0.7-2c-2.2,0.1-4.1,0.1-5.6,0.2
			C251.8,25.6,252.1,26.4,252.5,27.3z"/>
		<path class="st2" d="M267.7,29.8c0.4,0,0.7,0.2,0.8,0.5c0.4-0.1,0.9-0.2,1.3-0.2h0.2c0.5,0,1.1,0,1.8,0.1c0.6,0.1,1.1,0.4,1.5,0.8
			c0.6,0.4,0.8,1.5,0.8,3.4v0.6c0,0.8-0.1,1.4-0.2,1.8c-0.2,0.7-0.6,1.2-1.2,1.5c-0.6,0.4-1.4,0.5-2.5,0.6h-0.6
			c-1.3,0-2.2-0.3-2.7-0.9c-0.6-0.7-0.9-1.6-0.9-2.7v-0.3c0-1.1,0.1-2.4,0.4-4C266.7,30.1,267.1,29.8,267.7,29.8z M269,21
			c0.6,0.1,1,0.3,1.1,0.7c1.5-0.2,2.9-0.4,4.1-0.4h1.3c1.5,0,2.5,0.1,3.1,0.3c1,0.2,1.8,0.6,2.3,1.2c0.5,0.5,0.7,1.4,0.7,2.7v0.4
			c0,0.9-0.3,1.6-0.9,2.3c-0.7,0.9-2.4,1.3-5.1,1.3h-1.9c-1.8,0-3.2-0.2-4.4-0.6c-1.4-0.6-2.1-1.5-2.1-2.9v-0.3
			c0-1.2,0.2-2.5,0.6-3.7C268.2,21.4,268.5,21.1,269,21z M269.8,32.2c-0.5,0-0.9,0.1-1.3,0.2c-0.1,1-0.2,1.8-0.2,2.4
			c0,0.7,0.1,1.1,0.4,1.4c0.3,0.3,0.9,0.4,1.6,0.4c0.7,0,1.2-0.2,1.4-0.6c0.2-0.2,0.3-0.9,0.4-1.9c0-1-0.2-1.6-0.5-1.7
			C270.9,32.3,270.3,32.2,269.8,32.2z M275.4,23.5c-2.1,0-3.9,0.2-5.6,0.5c-0.1,0.5-0.1,0.9-0.1,1.3c0,0.8,0.4,1.3,1.1,1.5
			c0.7,0.3,2.2,0.4,4.5,0.4c0.9,0,1.8-0.1,2.5-0.2c0.5-0.1,1-0.2,1.3-0.5c0.3-0.2,0.4-0.5,0.5-1c0-1-0.3-1.6-1-1.9
			C278,23.6,277,23.5,275.4,23.5z M276.6,29.9c0.4,0,0.7,0.1,0.8,0.4c0.5-0.1,1.1-0.2,1.7-0.3h0.2c0.5,0,1.1,0,1.8,0.1
			c0.6,0.1,1.1,0.4,1.5,0.9c0.6,0.4,0.9,1.7,0.9,3.8v0.7c0,0.7-0.1,1.2-0.3,1.5c-0.2,0.6-0.6,1-1.2,1.3c-0.6,0.3-1.5,0.5-2.6,0.5
			h-0.6c-1.4,0-2.3-0.3-2.9-1c-0.6-0.7-0.9-1.7-0.9-2.8v-0.3c0-1,0.1-2.3,0.3-3.8C275.6,30.2,276,29.9,276.6,29.9z M279,32.2
			c-0.6,0-1.1,0.1-1.6,0.2c-0.1,0.9-0.2,1.6-0.2,2.2c0,0.7,0.1,1.2,0.4,1.5c0.4,0.3,1,0.4,1.8,0.4c0.8,0,1.3-0.1,1.5-0.4
			c0.2-0.2,0.3-0.7,0.4-1.4c0-1.3-0.2-2.1-0.5-2.3C280.2,32.3,279.6,32.2,279,32.2z"/>
	</g>
	<g>
		<path class="st3" d="M318.9,34.6c-0.4,0.3-0.9,0.5-1.4,0.5c-1.3,0-2.3-1.1-2.3-2.5v-2.5c0-0.7-0.5-1.2-1.2-1.2h-7
			c-1.3,0-2.3-1.1-2.3-2.5v-8.7c0-1.4,1.1-2.5,2.3-2.5h7c0.6,0,1.2-0.6,1.2-1.2v-2.5c0-1.4,1-2.5,2.3-2.5c0.5,0,1,0.2,1.4,0.5
			l11.8,10.3c1.2,1.2,1.2,3.2,0,4.4L318.9,34.6z"/>
		<path class="st4" d="M317.5,9.1c0.5,0,1,0.2,1.4,0.5l11.8,10.3c1.2,1.2,1.2,3.2,0,4.4l-11.8,10.3c-0.4,0.3-0.9,0.5-1.4,0.5
			c-1.3,0-2.3-1.1-2.3-2.5v-2.5c0-0.7-0.5-1.2-1.2-1.2h-7c-1.3,0-2.3-1.1-2.3-2.5v-8.7c0-1.4,1.1-2.5,2.3-2.5h7
			c0.6,0,1.2-0.6,1.2-1.2v-2.5C315.2,10.2,316.2,9.1,317.5,9.1 M317.5,6.1c-2.9,0-5.3,2.5-5.3,5.5v0.7H307c-2.9,0-5.3,2.5-5.3,5.5
			v8.7c0,3,2.4,5.5,5.3,5.5h5.2v0.7c0,3,2.4,5.5,5.3,5.5c1.2,0,2.3-0.4,3.2-1.1l0.1-0.1l0.1-0.1l11.8-10.3l0.1-0.1l0.1-0.1
			c2.3-2.4,2.3-6.1,0-8.5l-0.1-0.1l-0.1-0.1L320.9,7.3l-0.1-0.1l-0.1-0.1C319.8,6.5,318.7,6.1,317.5,6.1L317.5,6.1z"/>
	</g>
	<g>
		<path class="st3" d="M513.9,34.6c-0.4,0.3-0.9,0.5-1.4,0.5c-1.3,0-2.3-1.1-2.3-2.5v-2.5c0-0.7-0.5-1.2-1.2-1.2h-7
			c-1.3,0-2.3-1.1-2.3-2.5v-8.7c0-1.4,1.1-2.5,2.3-2.5h7c0.6,0,1.2-0.6,1.2-1.2v-2.5c0-1.4,1-2.5,2.3-2.5c0.5,0,1,0.2,1.4,0.5
			l11.8,10.3c1.2,1.2,1.2,3.2,0,4.4L513.9,34.6z"/>
		<path class="st4" d="M512.5,9.1c0.5,0,1,0.2,1.4,0.5l11.8,10.3c1.2,1.2,1.2,3.2,0,4.4l-11.8,10.3c-0.4,0.3-0.9,0.5-1.4,0.5
			c-1.3,0-2.3-1.1-2.3-2.5v-2.5c0-0.7-0.5-1.2-1.2-1.2h-7c-1.3,0-2.3-1.1-2.3-2.5v-8.7c0-1.4,1.1-2.5,2.3-2.5h7
			c0.6,0,1.2-0.6,1.2-1.2v-2.5C510.2,10.2,511.2,9.1,512.5,9.1 M512.5,6.1c-2.9,0-5.3,2.5-5.3,5.5v0.7H502c-2.9,0-5.3,2.5-5.3,5.5
			v8.7c0,3,2.4,5.5,5.3,5.5h5.2v0.7c0,3,2.4,5.5,5.3,5.5c1.2,0,2.3-0.4,3.2-1.1l0.1-0.1l0.1-0.1l11.8-10.3l0.1-0.1l0.1-0.1
			c2.3-2.4,2.3-6.1,0-8.5l-0.1-0.1l-0.1-0.1L515.9,7.3l-0.1-0.1l-0.1-0.1C514.8,6.5,513.7,6.1,512.5,6.1L512.5,6.1z"/>
	</g>
	<g>
		<path class="st2" d="M413.5,20.8c1.1,0,1.7,0.4,1.7,1.1c0,0.7-0.4,1.1-1.2,1.2c-5.1,0-9,0.1-11.6,0.3c-1.6,0.1-3.1,0.2-4.6,0.2
			v-2.3C401,21,406.3,20.9,413.5,20.8z"/>
		<path class="st2" d="M420.7,19.6c0.4,0,0.6,0.2,0.8,0.4c1.4-0.2,3.1-0.4,5-0.4h0.6c1.4,0,2.7,0.1,3.9,0.2c1.5,0.2,2.5,0.6,3.2,1.2
			c0.6,0.5,0.9,1.4,0.9,2.7V24c0,0.5-0.2,1.1-0.5,1.8c-0.5,0.8-1.6,1.4-3.3,1.6c-1,0.2-2.2,0.2-3.6,0.3c0,0.3,0,0.5,0,0.7
			c1.6,0,3.3,0,5.1,0c1,0,1.4,0.3,1.5,0.9c0,0.6-0.4,1-1,1c-2.1,0-3.9,0-5.5,0.1c0,0.7,0,1.2,0,1.6h-2.2c0-0.6,0-1.1,0-1.5
			c-1,0-1.9,0-2.6,0.1c-1.4,0.1-2.8,0.1-4.1,0.1v-2c1.6-0.1,3.8-0.2,6.7-0.2c0-0.3,0-0.5,0-0.8c-2.2,0-3.8-0.2-4.9-0.7
			c-1.5-0.5-2.2-1.7-2.2-3.4v-0.3c0-0.5,0.3-1.4,1-2.8C419.7,20,420.1,19.7,420.7,19.6z M420.2,14.3c0.3,0,0.5,0.1,0.6,0.3
			c0.5-0.1,1-0.2,1.6-0.3h0.2c0.5,0,1.1,0,1.8,0.1c0.6,0.1,1.2,0.2,1.5,0.4c0.6,0.2,0.9,1,0.9,2.1v0.4c0,0.4-0.1,0.7-0.2,0.9
			c-0.2,0.3-0.6,0.6-1.2,0.7c-0.6,0.2-1.4,0.3-2.6,0.3h-0.6c-1.3,0-2.3-0.2-2.8-0.6c-0.6-0.4-0.9-1-0.9-1.6v-0.1
			c0-0.4,0.1-1,0.3-1.6C419.1,14.7,419.5,14.3,420.2,14.3z M422.4,16c-0.6,0.1-1.1,0.2-1.6,0.4c0,0.1,0,0.3,0,0.4
			c0,0.2,0.1,0.4,0.4,0.5c0.4,0.1,0.9,0.2,1.7,0.2c0.8,0,1.4-0.1,1.6-0.2c0.2-0.1,0.3-0.2,0.4-0.5c0-0.4-0.2-0.7-0.5-0.7
			C423.6,16.1,422.9,16,422.4,16z M425.3,22.5c0-0.1,0-0.2,0-0.4c0-0.2,0-0.4,0-0.6c-1.3,0.1-2.7,0.3-4.3,0.6
			c-0.1,0.2-0.1,0.4-0.2,0.5C421.9,22.6,423.4,22.6,425.3,22.5z M425.5,25.7c0-0.1,0-0.2,0-0.2c0-0.4,0-0.7-0.1-1
			c-1.9,0-3.4,0-4.5,0.1c0.2,0.3,0.6,0.6,1,0.7C422.6,25.5,423.7,25.6,425.5,25.7z M428.5,14.3c0.4,0,0.6,0.1,0.8,0.3
			c0.5-0.1,0.9-0.1,1.3-0.1h0.3c0.5,0,1.1,0,1.6,0c0.7,0.1,1.3,0.2,1.8,0.5c0.6,0.4,0.9,0.9,0.9,1.6V17c0,0.3,0,0.6-0.1,0.9
			c-0.1,0.4-0.4,0.7-0.7,0.8c-0.3,0.2-0.7,0.4-1.3,0.5c-0.4,0.1-0.9,0.1-1.5,0.2h-0.5c-1.1,0-2.1-0.2-2.8-0.6
			c-0.8-0.4-1.2-1-1.2-1.8V17c0-0.4,0.1-0.9,0.3-1.6C427.7,14.7,428,14.3,428.5,14.3z M427.5,21.5c0,0.2,0,0.6,0.1,1h1.4
			c1,0,1.5,0.3,1.5,1c0,0.5-0.3,0.8-0.9,0.9h-1.9c0,0.4,0,0.9,0.1,1.3c1.3,0,2.4-0.1,3.4-0.2c0.7-0.1,1.2-0.3,1.5-0.6
			c0.3-0.4,0.4-0.7,0.4-1.2c0-0.6-0.1-1.1-0.3-1.3c-0.4-0.4-1.2-0.6-2.2-0.7C429.4,21.5,428.4,21.5,427.5,21.5z M430.7,16.2
			c-0.3,0-0.8,0.1-1.3,0.3c0,0.2-0.1,0.4-0.1,0.6v0.1c0,0.2,0.2,0.3,0.5,0.4c0.4,0.1,0.8,0.2,1.3,0.2h0.4c0.2,0,0.4,0,0.7-0.1
			c0.2,0,0.4-0.1,0.5-0.2c0.2-0.1,0.3-0.2,0.3-0.3c0.1-0.1,0.1-0.2,0.1-0.3v-0.1c0-0.2-0.2-0.4-0.5-0.4c-0.2-0.1-0.6-0.1-1.1-0.1
			C431.3,16.2,431,16.2,430.7,16.2z"/>
		<path class="st2" d="M453.9,20.8c1.1,0,1.7,0.4,1.7,1.1c0,0.7-0.4,1.1-1.2,1.2c-5.1,0-9,0.1-11.6,0.3c-1.6,0.1-3.1,0.2-4.6,0.2
			v-2.3C441.4,21,446.7,20.9,453.9,20.8z"/>
		<path class="st2" d="M460.3,22.5c0.4,0,0.7,0.2,0.8,0.5c0.4-0.1,0.9-0.2,1.3-0.2h0.2c0.5,0,1.1,0,1.8,0.1c0.6,0.1,1.1,0.4,1.5,0.8
			c0.6,0.4,0.8,1.5,0.8,3.4v0.6c0,0.8-0.1,1.4-0.2,1.8c-0.2,0.7-0.6,1.2-1.2,1.5c-0.6,0.4-1.4,0.5-2.5,0.6h-0.6
			c-1.3,0-2.2-0.3-2.7-0.9c-0.6-0.7-0.9-1.6-0.9-2.7v-0.3c0-1.1,0.1-2.4,0.4-4C459.2,22.9,459.6,22.5,460.3,22.5z M461.6,13.8
			c0.6,0.1,1,0.3,1.1,0.7c1.5-0.2,2.9-0.4,4.1-0.4h1.3c1.5,0,2.5,0.1,3.1,0.3c1,0.2,1.8,0.6,2.3,1.2c0.5,0.5,0.7,1.4,0.7,2.7v0.4
			c0,0.9-0.3,1.6-0.9,2.3c-0.7,0.9-2.4,1.3-5.1,1.3h-1.9c-1.8,0-3.2-0.2-4.4-0.6c-1.4-0.6-2.1-1.5-2.1-2.9v-0.3
			c0-1.2,0.2-2.5,0.6-3.7C460.7,14.1,461.1,13.8,461.6,13.8z M462.3,25c-0.5,0-0.9,0.1-1.3,0.2c-0.1,1-0.2,1.8-0.2,2.4
			c0,0.7,0.1,1.1,0.4,1.4c0.3,0.3,0.9,0.4,1.6,0.4c0.7,0,1.2-0.2,1.4-0.6c0.2-0.2,0.3-0.9,0.4-1.9c0-1-0.2-1.6-0.5-1.7
			C463.4,25,462.8,25,462.3,25z M467.9,16.2c-2.1,0-3.9,0.2-5.6,0.5c-0.1,0.5-0.1,0.9-0.1,1.3c0,0.8,0.4,1.3,1.1,1.5
			c0.7,0.3,2.2,0.4,4.5,0.4c0.9,0,1.8-0.1,2.5-0.2c0.5-0.1,1-0.2,1.3-0.5c0.3-0.2,0.4-0.5,0.5-1c0-1-0.3-1.6-1-1.9
			C470.6,16.3,469.5,16.2,467.9,16.2z M469.1,22.6c0.4,0,0.7,0.1,0.8,0.4c0.5-0.1,1.1-0.2,1.7-0.3h0.2c0.5,0,1.1,0,1.8,0.1
			c0.6,0.1,1.1,0.4,1.5,0.9c0.6,0.4,0.9,1.7,0.9,3.8v0.7c0,0.7-0.1,1.2-0.3,1.5c-0.2,0.6-0.6,1-1.2,1.3c-0.6,0.3-1.5,0.5-2.6,0.5
			h-0.6c-1.4,0-2.3-0.3-2.9-1c-0.6-0.7-0.9-1.7-0.9-2.8v-0.3c0-1,0.1-2.3,0.3-3.8C468.1,22.9,468.5,22.6,469.1,22.6z M471.6,25
			c-0.6,0-1.1,0.1-1.6,0.2c-0.1,0.9-0.2,1.6-0.2,2.2c0,0.7,0.1,1.2,0.4,1.5c0.4,0.3,1,0.4,1.8,0.4c0.8,0,1.3-0.1,1.5-0.4
			c0.2-0.2,0.3-0.7,0.4-1.4c0-1.3-0.2-2.1-0.5-2.3C472.7,25,472.1,25,471.6,25z"/>
	</g>
	<g>
		<path class="st2" d="M601.8,16.2c0.6,0,1,0.2,1.2,0.7c1.5-0.4,3.1-0.8,4.7-1c-0.2-0.3-0.4-0.6-0.4-0.8c0-0.8,0.4-1.2,1.2-1.2
			c0.5,0,1.3,0.6,2.2,1.7c0.6-0.1,1.1-0.1,1.7-0.1h1.5c1.3,0,2.3,0.2,3.1,0.6c0.8,0.6,1.2,1.4,1.2,2.6c0,0.8-0.3,1.8-0.9,3.1
			c-0.1,0.5-0.6,0.8-1.4,0.8c-0.6,0-0.9-0.3-0.9-0.9c0.4-0.9,0.6-1.8,0.8-2.8c0-0.9-0.8-1.4-2.5-1.4c-3.4,0.1-6.8,0.5-10,1.4
			c0.2,1.2,0.3,2.5,0.5,3.8l-2.4,0.4c-0.4-3.3-0.7-5.2-0.7-5.9C600.8,16.6,601.1,16.2,601.8,16.2z M613.7,19.5
			c0.7,0,1.1,0.4,1.2,1.1c-0.1,0.4-0.3,0.8-0.8,1c-1.6,0.3-3,0.6-4.1,0.8c0,0.3-0.1,0.6-0.3,0.9c-0.1,0.5-0.2,1-0.3,1.4
			c2,0,4.2-0.1,6.7-0.1c1.1,0,1.6,0.4,1.6,1.1c0,0.7-0.4,1-1.1,1.1c-3,0-5.6,0-7.7,0.1c0,0.4-0.1,0.7-0.1,1c0,0.5,0.2,1,0.5,1.2
			c0.5,0.3,1.2,0.4,2.1,0.4c1.2,0,3.2-0.3,6.1-0.9V31c-0.8,0.2-1.7,0.4-2.9,0.6c-1.1,0.2-2.1,0.3-3.1,0.3h-0.4
			c-1.5,0-2.6-0.2-3.4-0.7c-0.9-0.6-1.3-1.5-1.3-2.8c0-0.4,0-0.9,0.1-1.3c-0.3,0-0.5,0-0.7,0c-1.5,0.1-2.9,0.1-4.3,0.1V25
			c1.4-0.1,3.1-0.2,5.3-0.2c0.1-0.5,0.2-1.2,0.4-1.8c-1.6,0.3-2.5,0.5-2.7,0.5l-0.4-2.1C609.5,20.1,612.7,19.5,613.7,19.5z"/>
		<path class="st2" d="M628.6,14.4c1.1,0,1.6,0.4,1.6,1.1c0,0.6-0.4,0.9-1,0.9h-1.3c0,0.3-0.1,0.8-0.2,1.5c0.1,0,0.2,0,0.2,0
			c0.5,0.2,1,0.6,1.3,1.1c0.5,0.6,0.7,2.2,0.7,4.9v1c0,1.4-0.1,2.4-0.3,3.1c-0.3,1.1-0.7,2-1.4,2.6c-0.7,0.6-1.6,0.9-2.9,1h-0.7
			c-1.5,0-2.5-0.4-3-1.2c-0.7-0.9-1-2-1-3.4v-0.6c0-2.2,0.2-4.8,0.6-7.9c0.2-0.6,0.5-0.9,1-0.9c0.5,0,0.7,0.2,0.8,0.7
			c0.2-0.1,0.5-0.1,0.7-0.2c0.1-0.6,0.1-1.2,0.2-1.8c-1.4,0-2.4,0-2.9,0.1v-2C622.2,14.4,624.7,14.4,628.6,14.4z M627.4,20.1
			c-0.1,1.5-0.2,3.2-0.3,4.8h-1.6c0-1.4,0.1-3.1,0.3-5.2c-0.3,0-0.5,0-0.7,0.1c-0.2,1.7-0.3,3.4-0.4,5.2h-1.6c0-1.3,0.1-3,0.3-5
			c-0.2,0-0.4,0.1-0.6,0.1c-0.3,2.5-0.4,4.5-0.4,5.9h2.7c1,0,1.6,0.3,1.6,1c0,0.5-0.4,0.8-1,0.9h-3.2c0.1,0.5,0.2,0.8,0.4,1.1
			c0.5,0.4,1.3,0.6,2.3,0.6c1.2,0,1.9-0.4,2.3-1.2c0.3-0.5,0.4-1.9,0.5-4.2c0-2.4-0.2-3.7-0.5-4C627.6,20.2,627.5,20.1,627.4,20.1z
			 M626.1,17.8c0.1-0.5,0.1-0.9,0.2-1.4h-0.7c0,0.4-0.1,0.9-0.2,1.5C625.6,17.9,625.8,17.9,626.1,17.8L626.1,17.8z M635.5,14.8
			c1,0,1.8,0.4,2.4,1.2c0.6,0.7,0.9,1.8,0.9,3.2c0,1.6-0.3,2.8-1,3.7c-0.7,0.8-1.6,1.2-2.9,1.2l-1.6-0.3c-0.3,1.7-0.4,2.8-0.4,3.2
			c0,0.9,0.1,1.5,0.4,1.9c0.3,0.4,0.9,0.7,1.7,0.7c0.5,0,1.7-0.2,3.5-0.7V31c-1.6,0.4-2.7,0.7-3.4,0.7h-0.8c-1.2,0-2.1-0.4-2.8-1.1
			c-0.7-0.8-1-1.9-1-3.3c0-0.9,0.2-2.8,0.7-5.5c0.2-0.6,0.6-0.9,1.3-0.9c0.7,0,1,0.3,1,1c0.3,0.1,0.6,0.1,0.9,0.2
			c0.6,0,1.1-0.2,1.4-0.6c0.3-0.3,0.5-1,0.5-2.1c0-0.9-0.1-1.5-0.3-1.8c-0.2-0.3-0.5-0.5-0.9-0.5c-0.7,0-2.1,0.3-4.2,0.9l-0.4-2.1
			C632.2,15.1,633.9,14.8,635.5,14.8z"/>
		<path class="st2" d="M650.1,15.1c1,0,1.6,0.4,1.6,1.1c0,0.7-0.4,1-1.1,1.1c-1.8,0-3.3,0.1-4.6,0.1c-1.5,1.4-2.2,2.4-2.2,2.9
			c0,1,0.5,1.5,1.6,1.5c0.7,0,1.5-0.1,2.3-0.4c-0.1-0.1-0.2-0.2-0.3-0.3c-0.3-0.6-0.5-1-0.5-1.4c0-0.6,0.4-1,1.2-1
			c0.3,0,0.5,0.1,0.7,0.3c0.7,0.6,1.6,1.6,2.7,3l-1.3,1.6c-0.4-0.3-0.7-0.6-1.1-0.8c-0.8,0.4-1.7,0.7-2.4,0.8c0,0.1,0,0.1,0,0.2
			c0,0.5,0,0.9,0,1.3h1.7c1.1,0,1.7,0.4,1.7,1.1c0,0.6-0.4,0.9-1,1h-2.4c0,0.6,0,1.2,0,1.8c0.8-0.1,1.6-0.2,2.3-0.3
			c0.3,0,0.6-0.1,0.8-0.1c0.8,0,1.2,0.4,1.3,1.1c0,0.6-0.4,1-1,1.1c-0.7,0.1-2.1,0.3-4.2,0.5c-1.6,0.2-3.2,0.3-5,0.3v-2.2
			c1.3-0.1,2.5-0.1,3.7-0.2c0-0.7-0.1-1.4-0.1-2c-1.5,0-2.6,0-3.1,0.1v-2.1c0.6,0,1.6,0,3-0.1c0-0.4,0-0.8,0-1.2c0-0.1,0-0.1,0-0.2
			c-0.7-0.1-1.4-0.3-2.1-0.8c-0.7-0.5-1-1.2-1-2c0-0.9,0.6-2,1.7-3.3c-0.7,0.1-1.4,0.1-2.1,0.1v-2.2C643,15.3,645.9,15.1,650.1,15.1
			z M652.9,16.8c0.7,0,1.1,0.4,1.1,1.2c0.1,0.3,0.2,1.7,0.4,4.2c0.2,2.8,0.3,4.7,0.3,5.5h-2.2c-0.1-2.6-0.1-4.6-0.3-5.9
			c-0.1-1.1-0.1-2.1-0.2-2.9c0-0.4-0.1-0.7-0.1-1C651.9,17.2,652.2,16.8,652.9,16.8z M656.6,14.1c0.6,0,0.9,0.3,0.9,1
			c0.5,4.4,0.8,8.8,0.8,13.1c0,2.3-1.1,3.5-3,3.5c-1.1,0-2-0.3-2.9-0.8l-0.1-2.1c0.9,0.4,1.7,0.6,2.5,0.6c0.9,0,1.4-0.7,1.4-2.2
			c0-1.1-0.2-5.1-0.7-12.2C655.5,14.5,655.9,14.1,656.6,14.1z"/>
		<path class="st2" d="M665.8,21.1c-0.5,0-1,0-1.4,0.1V19c2-0.2,5.2-0.3,9.6-0.3c1,0,1.5,0.4,1.6,1c0,0.7-0.4,1-1.1,1.1
			c-1.7,0-3.2,0-4.5,0.1c-0.1,0.3-0.3,0.5-0.6,0.8c0.6,0.3,1.2,0.7,1.7,1.3c0.2,0.2,0.4,0.4,0.5,0.5c2.3-1.2,3.8-1.9,4.2-1.9
			c0.8,0,1.1,0.4,1.2,1.1c0,0.5-0.3,0.8-0.8,1.1c-1.5,0.7-2.6,1.3-3.5,1.7c0.1,0.3,0.2,0.5,0.2,0.8c0,0,0,0,0.1,0
			c1.7,0.8,3.5,1.3,5.4,1.5l-0.5,2.5c-1.9-0.2-3.5-0.7-4.9-1.3c-0.2,0.6-0.5,1.2-0.9,1.7c-0.7,0.8-1.5,1.2-2.4,1.2
			c-0.9,0-1.7-0.2-2.4-0.7l-0.1-0.8c-0.6,0.5-1.2,1.1-1.8,1.7l-1.6-1.3c1.2-1.3,2.5-2.5,3.7-3.4c0.4-0.3,0.7-0.4,1.1-0.4
			c0.6,0.1,0.9,0.4,0.9,0.9c0,0.3-0.2,0.6-0.4,1c-0.2,0.2-0.5,0.4-0.7,0.6c0.5,0.2,0.9,0.2,1.2,0.2c0.3,0,0.6-0.2,0.9-0.7
			c0.3-0.4,0.4-1,0.4-1.6c0-0.9-0.4-1.7-1.1-2.5c-0.6-0.7-1.5-1.2-2.7-1.4c-1.5,1-3.1,2.1-4.8,3.2l-1.3-1.6c1.6-1.2,3.2-2.4,4.7-3.6
			C665.7,21.1,665.8,21.1,665.8,21.1z M669.1,13.8c0.5,0,1.3,0.6,2.3,1.6c0.5,0,1.1,0,1.6-0.1h1.5c1.3,0,2.4,0.2,3.1,0.5
			c0.8,0.5,1.2,1.2,1.2,2.1c0,0.6-0.2,1.4-0.5,2.5c-0.1,0.5-0.6,0.8-1.4,0.8c-0.5,0-0.8-0.3-0.8-0.8c0.2-0.7,0.3-1.4,0.4-2.2
			c0-0.6-0.9-0.9-2.6-0.9c-3.5,0-6.9,0.3-10.2,0.7c0.1,0.9,0.3,1.8,0.4,2.8l-2.3,0.4c-0.3-2.5-0.5-4-0.5-4.4c0-0.7,0.3-1.1,0.9-1.1
			c0.5,0,0.8,0.1,1,0.4c1.5-0.2,3.2-0.4,4.9-0.5c-0.2-0.2-0.3-0.4-0.3-0.6C668,14.3,668.4,13.9,669.1,13.8z M666.4,24.6
			c0.6,0.1,0.9,0.4,0.9,0.9c0,0.3-0.2,0.7-0.5,1c-1.2,1-2.4,2.1-3.7,3.2l-1.6-1.3c1.2-1.3,2.5-2.4,3.7-3.4
			C665.6,24.8,666,24.6,666.4,24.6z"/>
	</g>
	<path class="st1" d="M360.6,3c1.2,0,2.1,0.8,2.4,1.9l0.7,2h26c0.9,0,1.7,0.7,1.7,1.6c0,0.3-0.1,0.5-0.2,0.8c0,0-4.3,12.2-4.5,12.7
		c-0.6,1.2-1.9,2-3.4,2h-14.3c-3.1,0,2.6,0-6,0l-3.5-16c-0.2-0.6-0.8-1.1-1.6-1.1h-4.4c-1.1,0-2.1-0.9-2.1-2c0-1.1,0.9-2,2.1-2
		H360.6 M360.6,0h-7.1c-2.8,0-5.1,2.2-5.1,5c0,2.7,2.3,5,5.1,5h3.3l3.2,14.7l0.5,2.4h2.4c2.2,0,3.4,0,4.1,0l0.7,0c0.1,0,0.2,0,0.2,0
		c0.1,0,0.4,0,0.9,0h14.3c2.6,0,5-1.5,6.1-3.7c0.1-0.2,0.3-0.6,4.6-12.9c0.2-0.4,0.4-1.1,0.4-1.9c0-2.5-2.1-4.6-4.7-4.6h-23.9
		C365.1,1.6,363,0,360.6,0L360.6,0z"/>
	<path class="st1" d="M366.8,31.6c1.4,0,2.5,1.1,2.5,2.5c0,1.4-1.1,2.5-2.5,2.5s-2.5-1.1-2.5-2.5C364.3,32.7,365.4,31.6,366.8,31.6
		 M366.8,28.6c-3,0-5.5,2.5-5.5,5.5c0,3,2.5,5.5,5.5,5.5c3,0,5.5-2.5,5.5-5.5C372.3,31.1,369.8,28.6,366.8,28.6L366.8,28.6z"/>
	<path class="st1" d="M380.8,31.6c1.4,0,2.5,1.1,2.5,2.5c0,1.4-1.1,2.5-2.5,2.5s-2.5-1.1-2.5-2.5C378.3,32.7,379.4,31.6,380.8,31.6
		 M380.8,28.6c-3,0-5.5,2.5-5.5,5.5c0,3,2.5,5.5,5.5,5.5c3,0,5.5-2.5,5.5-5.5C386.3,31.1,383.8,28.6,380.8,28.6L380.8,28.6z"/>
	<g>
		<path class="st1" d="M375.7,21c-0.2,0.9-0.6,1.3-1.4,1.3s-1.1-0.4-1-1.3l1.5-8.7c-0.6,0.4-1.1,0.7-1.4,0.7c-0.3,0-0.5-0.1-0.7-0.3
			c-0.2-0.2-0.2-0.5-0.2-0.7c0.1-0.3,0.3-0.6,0.6-0.8l2.3-1.5c0.3-0.2,0.8-0.4,1.2-0.4c0.7,0,1,0.4,0.9,1.3L375.7,21z"/>
	</g>
	<path class="st1" d="M588.5,3.4c1.9,0,3.4,1.6,3.4,3.6v20.5c0,2-1.5,3.6-3.4,3.6h-0.9c-0.2,3.5-3,6.2-6.4,6.2
		c-3.4,0-6.2-2.8-6.4-6.2h-4.2c-0.2,3.5-3,6.2-6.4,6.2c-3.4,0-6.2-2.8-6.4-6.2h-3c-1.2,0-2.1-1-2.1-2.2c0-1.1,0.7-2,1.7-2.2v-7.2
		c0-1.2,0.5-2.4,1.3-3.2l4.3-4.5c0.7-0.8,1.8-1.2,2.9-1.2h5.2V7c0-2,1.5-3.6,3.4-3.6H588.5 M558.7,20.1h9.4V15h-4.7
		c-0.8,0-1.3,0.4-1.9,1l-1.8,1.9c-0.6,0.7-1,1.1-1,2V20.1 M581.3,32.8c1.2,0,2.1-1,2.1-2.2c0-1.2-1-2.2-2.1-2.2
		c-1.2,0-2.1,1-2.1,2.2C579.2,31.8,580.1,32.8,581.3,32.8 M564.3,32.8c1.2,0,2.1-1,2.1-2.2c0-1.2-1-2.2-2.1-2.2
		c-1.2,0-2.1,1-2.1,2.2C562.2,31.8,563.1,32.8,564.3,32.8 M588.5,0.4h-17c-3.5,0-6.4,2.9-6.4,6.6v0.6h-2.2c-1.9,0-3.7,0.8-5,2.1
		l-4.3,4.5c-1.3,1.4-2.1,3.2-2.1,5.2v5.5c-1.1,1-1.7,2.4-1.7,3.9c0,2.9,2.3,5.2,5.1,5.2h0.6c1.4,3.7,4.8,6.2,8.8,6.2
		c3.7,0,7-2.3,8.5-5.5c1.5,3.3,4.8,5.5,8.5,5.5c4.1,0,7.6-2.7,8.9-6.4c2.8-0.7,4.8-3.3,4.8-6.4V7C595,3.4,592.1,0.4,588.5,0.4
		L588.5,0.4z"/>
</g>
</svg>
